<svg width="919" height="480" viewBox="0 0 919 480" fill="none" xmlns="http://www.w3.org/2000/svg">
<g clip-path="url(#clip0_346_1456)">
<path d="M13.4688 52.4544V66.9999H11.2812V54.3294H4.43469V66.9999H2.24719V52.4544H13.4688ZM16.6541 71.0908V56.0908H18.728V57.8593H18.9055C19.0286 57.632 19.2062 57.3692 19.4382 57.0709C19.6702 56.7726 19.9922 56.5122 20.4041 56.2897C20.8161 56.0624 21.3606 55.9488 22.0376 55.9488C22.9183 55.9488 23.7043 56.1713 24.3956 56.6164C25.0869 57.0615 25.629 57.703 26.022 58.5411C26.4197 59.3792 26.6186 60.3877 26.6186 61.5667C26.6186 62.7456 26.4221 63.7565 26.0291 64.5993C25.6361 65.4374 25.0964 66.0837 24.4098 66.5383C23.7232 66.9881 22.9396 67.213 22.0589 67.213C21.3961 67.213 20.8539 67.1017 20.4325 66.8792C20.0159 66.6566 19.6892 66.3962 19.4524 66.0979C19.2157 65.7996 19.0334 65.5345 18.9055 65.3025H18.7777V71.0908H16.6541ZM18.7351 61.5454C18.7351 62.3124 18.8464 62.9847 19.0689 63.5624C19.2914 64.1401 19.6134 64.5922 20.0348 64.9189C20.4562 65.2409 20.9723 65.4019 21.5831 65.4019C22.2176 65.4019 22.7479 65.2338 23.174 64.8976C23.6001 64.5567 23.9221 64.0951 24.1399 63.5127C24.3625 62.9303 24.4737 62.2745 24.4737 61.5454C24.4737 60.8257 24.3648 60.1794 24.147 59.6064C23.9339 59.0335 23.612 58.5813 23.1811 58.2499C22.755 57.9185 22.2223 57.7527 21.5831 57.7527C20.9676 57.7527 20.4467 57.9114 20.0206 58.2286C19.5992 58.5458 19.2796 58.9885 19.0618 59.5567C18.844 60.1249 18.7351 60.7878 18.7351 61.5454ZM33.593 67.2201C32.5703 67.2201 31.6778 66.9857 30.9155 66.5169C30.1532 66.0482 29.5613 65.3924 29.1399 64.5496C28.7185 63.7068 28.5078 62.722 28.5078 61.5951C28.5078 60.4634 28.7185 59.4739 29.1399 58.6263C29.5613 57.7788 30.1532 57.1206 30.9155 56.6519C31.6778 56.1831 32.5703 55.9488 33.593 55.9488C34.6158 55.9488 35.5083 56.1831 36.2706 56.6519C37.0329 57.1206 37.6248 57.7788 38.0462 58.6263C38.4676 59.4739 38.6783 60.4634 38.6783 61.5951C38.6783 62.722 38.4676 63.7068 38.0462 64.5496C37.6248 65.3924 37.0329 66.0482 36.2706 66.5169C35.5083 66.9857 34.6158 67.2201 33.593 67.2201ZM33.6001 65.4374C34.263 65.4374 34.8123 65.2622 35.2479 64.9118C35.6835 64.5615 36.0054 64.0951 36.2138 63.5127C36.4268 62.9303 36.5334 62.2887 36.5334 61.588C36.5334 60.8919 36.4268 60.2527 36.2138 59.6704C36.0054 59.0832 35.6835 58.6121 35.2479 58.257C34.8123 57.9019 34.263 57.7243 33.6001 57.7243C32.9325 57.7243 32.3786 57.9019 31.9382 58.257C31.5026 58.6121 31.1783 59.0832 30.9652 59.6704C30.7569 60.2527 30.6527 60.8919 30.6527 61.588C30.6527 62.2887 30.7569 62.9303 30.9652 63.5127C31.1783 64.0951 31.5026 64.5615 31.9382 64.9118C32.3786 65.2622 32.9325 65.4374 33.6001 65.4374ZM39.9833 70.1462V65.1604H40.8711C41.0984 64.9521 41.2901 64.7035 41.4464 64.4147C41.6074 64.1258 41.7423 63.7826 41.8512 63.3848C41.9648 62.9871 42.0595 62.5231 42.1353 61.9928C42.2111 61.4578 42.2773 60.847 42.3342 60.1604L42.6751 56.0908H50.0898V65.1604H51.766V70.1462H49.6921V66.9999H42.0856V70.1462H39.9833ZM43.1438 65.1604H48.016V57.909H44.5785L44.3512 60.1604C44.2423 61.3062 44.105 62.3006 43.9393 63.1434C43.7736 63.9814 43.5084 64.6538 43.1438 65.1604ZM55.1839 71.0908C54.8667 71.0908 54.5779 71.0648 54.3175 71.0127C54.0571 70.9653 53.8629 70.9133 53.7351 70.8564L54.2464 69.1164C54.6347 69.2205 54.9804 69.2655 55.2834 69.2513C55.5864 69.2371 55.8539 69.1235 56.0859 68.9104C56.3227 68.6973 56.531 68.3493 56.7109 67.8664L56.9737 67.1419L52.9822 56.0908H55.255L58.0178 64.5567H58.1314L60.8942 56.0908H63.174L58.6783 68.4559C58.4699 69.024 58.2048 69.5046 57.8828 69.8976C57.5608 70.2954 57.1773 70.5937 56.7322 70.7925C56.2872 70.9914 55.7711 71.0908 55.1839 71.0908ZM65.1697 66.9999V56.0908H67.2933V60.6647H68.3161L71.9169 56.0908H74.5447L70.3189 61.3962L74.5945 66.9999H71.9595L68.6712 62.6391H67.2933V66.9999H65.1697ZM75.6332 57.9232V56.0908H84.8377V57.9232H81.2795V66.9999H79.2056V57.9232H75.6332ZM91.1712 67.2201C90.1484 67.2201 89.2559 66.9857 88.4936 66.5169C87.7313 66.0482 87.1394 65.3924 86.718 64.5496C86.2966 63.7068 86.0859 62.722 86.0859 61.5951C86.0859 60.4634 86.2966 59.4739 86.718 58.6263C87.1394 57.7788 87.7313 57.1206 88.4936 56.6519C89.2559 56.1831 90.1484 55.9488 91.1712 55.9488C92.1939 55.9488 93.0864 56.1831 93.8487 56.6519C94.611 57.1206 95.2029 57.7788 95.6243 58.6263C96.0457 59.4739 96.2564 60.4634 96.2564 61.5951C96.2564 62.722 96.0457 63.7068 95.6243 64.5496C95.2029 65.3924 94.611 66.0482 93.8487 66.5169C93.0864 66.9857 92.1939 67.2201 91.1712 67.2201ZM91.1783 65.4374C91.8411 65.4374 92.3904 65.2622 92.826 64.9118C93.2616 64.5615 93.5836 64.0951 93.7919 63.5127C94.005 62.9303 94.1115 62.2887 94.1115 61.588C94.1115 60.8919 94.005 60.2527 93.7919 59.6704C93.5836 59.0832 93.2616 58.6121 92.826 58.257C92.3904 57.9019 91.8411 57.7243 91.1783 57.7243C90.5107 57.7243 89.9567 57.9019 89.5163 58.257C89.0807 58.6121 88.7564 59.0832 88.5433 59.6704C88.335 60.2527 88.2308 60.8919 88.2308 61.588C88.2308 62.2887 88.335 62.9303 88.5433 63.5127C88.7564 64.0951 89.0807 64.5615 89.5163 64.9118C89.9567 65.2622 90.5107 65.4374 91.1783 65.4374ZM98.6268 66.9999V56.0908H103.151C104.382 56.0908 105.357 56.3536 106.077 56.8792C106.797 57.4 107.157 58.1079 107.157 59.0027C107.157 59.6419 106.953 60.1486 106.546 60.5226C106.139 60.8967 105.599 61.1476 104.926 61.2755C105.414 61.3323 105.862 61.4791 106.269 61.7158C106.676 61.9478 107.003 62.2603 107.249 62.6533C107.5 63.0463 107.625 63.5151 107.625 64.0596C107.625 64.6372 107.476 65.1486 107.178 65.5937C106.88 66.034 106.446 66.3796 105.878 66.6306C105.315 66.8768 104.635 66.9999 103.84 66.9999H98.6268ZM100.623 65.2243H103.84C104.365 65.2243 104.777 65.0989 105.076 64.8479C105.374 64.597 105.523 64.2561 105.523 63.8252C105.523 63.3186 105.374 62.9208 105.076 62.632C104.777 62.3384 104.365 62.1917 103.84 62.1917H100.623V65.2243ZM100.623 60.6363H103.172C103.57 60.6363 103.911 60.5794 104.195 60.4658C104.484 60.3522 104.704 60.1912 104.855 59.9829C105.012 59.7698 105.09 59.5188 105.09 59.23C105.09 58.8086 104.917 58.4795 104.571 58.2428C104.226 58.0061 103.752 57.8877 103.151 57.8877H100.623V60.6363ZM113.13 67.2414C112.438 67.2414 111.813 67.1135 111.255 66.8579C110.696 66.5974 110.253 66.221 109.926 65.7286C109.605 65.2362 109.444 64.6325 109.444 63.9175C109.444 63.302 109.562 62.7954 109.799 62.3976C110.035 61.9999 110.355 61.685 110.757 61.453C111.16 61.221 111.61 61.0458 112.107 60.9275C112.604 60.8091 113.111 60.7191 113.627 60.6576C114.28 60.5818 114.81 60.5203 115.218 60.4729C115.625 60.4208 115.921 60.338 116.105 60.2243C116.29 60.1107 116.382 59.926 116.382 59.6704V59.6206C116.382 59.0004 116.207 58.5198 115.857 58.1789C115.511 57.838 114.995 57.6675 114.309 57.6675C113.594 57.6675 113.03 57.8261 112.618 58.1434C112.211 58.4559 111.929 58.8039 111.773 59.1874L109.777 58.7329C110.014 58.07 110.36 57.5349 110.814 57.1277C111.274 56.7158 111.801 56.4175 112.398 56.2329C112.995 56.0435 113.622 55.9488 114.28 55.9488C114.716 55.9488 115.177 56.0008 115.665 56.105C116.158 56.2044 116.617 56.3891 117.043 56.659C117.474 56.9289 117.827 57.3148 118.101 57.8167C118.376 58.3138 118.513 58.9601 118.513 59.7556V66.9999H116.439V65.5084H116.354C116.217 65.783 116.011 66.0529 115.736 66.3181C115.462 66.5832 115.109 66.8034 114.678 66.9786C114.247 67.1538 113.731 67.2414 113.13 67.2414ZM113.591 65.5368C114.178 65.5368 114.68 65.4208 115.097 65.1888C115.518 64.9568 115.838 64.6538 116.056 64.2797C116.278 63.9009 116.39 63.4961 116.39 63.0652V61.659C116.314 61.7347 116.167 61.8058 115.949 61.8721C115.736 61.9336 115.492 61.9881 115.218 62.0354C114.943 62.078 114.676 62.1183 114.415 62.1561C114.155 62.1893 113.937 62.2177 113.762 62.2414C113.35 62.2935 112.973 62.3811 112.632 62.5042C112.296 62.6273 112.026 62.8048 111.823 63.0368C111.624 63.2641 111.525 63.5671 111.525 63.9459C111.525 64.4715 111.719 64.8692 112.107 65.1391C112.495 65.4043 112.99 65.5368 113.591 65.5368ZM127.847 66.9999V57.9019H125.234C124.613 57.9019 124.13 58.0463 123.785 58.3351C123.439 58.624 123.266 59.0027 123.266 59.4715C123.266 59.9355 123.425 60.3096 123.742 60.5937C124.064 60.873 124.514 61.0127 125.092 61.0127H128.465V62.7314H125.092C124.287 62.7314 123.591 62.5989 123.004 62.3337C122.421 62.0638 121.971 61.6827 121.654 61.1902C121.342 60.6978 121.185 60.1154 121.185 59.4431C121.185 58.7565 121.346 58.1647 121.668 57.6675C121.995 57.1656 122.461 56.7774 123.067 56.5027C123.678 56.2281 124.4 56.0908 125.234 56.0908H129.843V66.9999H127.847ZM120.688 66.9999L123.763 61.4885H125.937L122.862 66.9999H120.688ZM137.963 71.0908V56.0908H140.037V57.8593H140.214C140.337 57.632 140.515 57.3692 140.747 57.0709C140.979 56.7726 141.301 56.5122 141.713 56.2897C142.125 56.0624 142.669 55.9488 143.346 55.9488C144.227 55.9488 145.013 56.1713 145.704 56.6164C146.395 57.0615 146.938 57.703 147.331 58.5411C147.728 59.3792 147.927 60.3877 147.927 61.5667C147.927 62.7456 147.731 63.7565 147.338 64.5993C146.945 65.4374 146.405 66.0837 145.718 66.5383C145.032 66.9881 144.248 67.213 143.368 67.213C142.705 67.213 142.163 67.1017 141.741 66.8792C141.324 66.6566 140.998 66.3962 140.761 66.0979C140.524 65.7996 140.342 65.5345 140.214 65.3025H140.086V71.0908H137.963ZM140.044 61.5454C140.044 62.3124 140.155 62.9847 140.377 63.5624C140.6 64.1401 140.922 64.5922 141.343 64.9189C141.765 65.2409 142.281 65.4019 142.892 65.4019C143.526 65.4019 144.056 65.2338 144.483 64.8976C144.909 64.5567 145.231 64.0951 145.449 63.5127C145.671 62.9303 145.782 62.2745 145.782 61.5454C145.782 60.8257 145.673 60.1794 145.456 59.6064C145.243 59.0335 144.921 58.5813 144.49 58.2499C144.064 57.9185 143.531 57.7527 142.892 57.7527C142.276 57.7527 141.755 57.9114 141.329 58.2286C140.908 58.5458 140.588 58.9885 140.37 59.5567C140.153 60.1249 140.044 60.7878 140.044 61.5454ZM153.481 67.2414C152.79 67.2414 152.165 67.1135 151.606 66.8579C151.047 66.5974 150.605 66.221 150.278 65.7286C149.956 65.2362 149.795 64.6325 149.795 63.9175C149.795 63.302 149.913 62.7954 150.15 62.3976C150.387 61.9999 150.707 61.685 151.109 61.453C151.511 61.221 151.961 61.0458 152.458 60.9275C152.956 60.8091 153.462 60.7191 153.978 60.6576C154.632 60.5818 155.162 60.5203 155.569 60.4729C155.976 60.4208 156.272 60.338 156.457 60.2243C156.642 60.1107 156.734 59.926 156.734 59.6704V59.6206C156.734 59.0004 156.559 58.5198 156.208 58.1789C155.863 57.838 155.347 57.6675 154.66 57.6675C153.945 57.6675 153.382 57.8261 152.97 58.1434C152.563 58.4559 152.281 58.8039 152.125 59.1874L150.129 58.7329C150.366 58.07 150.711 57.5349 151.166 57.1277C151.625 56.7158 152.153 56.4175 152.75 56.2329C153.346 56.0435 153.974 55.9488 154.632 55.9488C155.067 55.9488 155.529 56.0008 156.017 56.105C156.509 56.2044 156.968 56.3891 157.395 56.659C157.825 56.9289 158.178 57.3148 158.453 57.8167C158.727 58.3138 158.865 58.9601 158.865 59.7556V66.9999H156.791V65.5084H156.706C156.568 65.783 156.362 66.0529 156.088 66.3181C155.813 66.5832 155.46 66.8034 155.029 66.9786C154.599 67.1538 154.083 67.2414 153.481 67.2414ZM153.943 65.5368C154.53 65.5368 155.032 65.4208 155.449 65.1888C155.87 64.9568 156.19 64.6538 156.407 64.2797C156.63 63.9009 156.741 63.4961 156.741 63.0652V61.659C156.665 61.7347 156.519 61.8058 156.301 61.8721C156.088 61.9336 155.844 61.9881 155.569 62.0354C155.295 62.078 155.027 62.1183 154.767 62.1561C154.506 62.1893 154.288 62.2177 154.113 62.2414C153.701 62.2935 153.325 62.3811 152.984 62.5042C152.648 62.6273 152.378 62.8048 152.174 63.0368C151.975 63.2641 151.876 63.5671 151.876 63.9459C151.876 64.4715 152.07 64.8692 152.458 65.1391C152.847 65.4043 153.342 65.5368 153.943 65.5368ZM161.047 64.1164H163.22C163.249 64.5615 163.45 64.9047 163.824 65.1462C164.203 65.3877 164.693 65.5084 165.294 65.5084C165.905 65.5084 166.426 65.3782 166.857 65.1178C167.287 64.8526 167.503 64.4431 167.503 63.8891C167.503 63.5577 167.42 63.2688 167.254 63.0226C167.093 62.7717 166.864 62.5776 166.565 62.4402C166.272 62.3029 165.924 62.2343 165.521 62.2343H163.746V60.5652H165.521C166.123 60.5652 166.572 60.4279 166.871 60.1533C167.169 59.8787 167.318 59.5354 167.318 59.1235C167.318 58.6784 167.157 58.3209 166.835 58.051C166.518 57.7764 166.075 57.6391 165.507 57.6391C164.929 57.6391 164.449 57.7693 164.065 58.0297C163.682 58.2854 163.481 58.6169 163.462 59.024H161.317C161.331 58.4133 161.516 57.8782 161.871 57.4189C162.231 56.9549 162.714 56.5951 163.32 56.3394C163.93 56.079 164.624 55.9488 165.401 55.9488C166.21 55.9488 166.911 56.079 167.503 56.3394C168.095 56.5998 168.552 56.9597 168.874 57.4189C169.2 57.8782 169.364 58.4061 169.364 59.0027C169.364 59.6041 169.184 60.0965 168.824 60.48C168.469 60.8588 168.005 61.1311 167.432 61.2968V61.4104C167.853 61.4388 168.227 61.5667 168.554 61.7939C168.881 62.0212 169.136 62.3219 169.321 62.6959C169.506 63.07 169.598 63.4937 169.598 63.9672C169.598 64.6348 169.413 65.2125 169.044 65.7002C168.679 66.1879 168.173 66.5643 167.524 66.8294C166.88 67.0899 166.144 67.2201 165.315 67.2201C164.51 67.2201 163.788 67.0946 163.149 66.8437C162.515 66.588 162.01 66.2281 161.636 65.7641C161.267 65.3001 161.071 64.7508 161.047 64.1164ZM171.791 71.0908V56.0908H173.865V57.8593H174.042C174.165 57.632 174.343 57.3692 174.575 57.0709C174.807 56.7726 175.129 56.5122 175.541 56.2897C175.953 56.0624 176.497 55.9488 177.174 55.9488C178.055 55.9488 178.841 56.1713 179.532 56.6164C180.224 57.0615 180.766 57.703 181.159 58.5411C181.556 59.3792 181.755 60.3877 181.755 61.5667C181.755 62.7456 181.559 63.7565 181.166 64.5993C180.773 65.4374 180.233 66.0837 179.547 66.5383C178.86 66.9881 178.076 67.213 177.196 67.213C176.533 67.213 175.991 67.1017 175.569 66.8792C175.153 66.6566 174.826 66.3962 174.589 66.0979C174.352 65.7996 174.17 65.5345 174.042 65.3025H173.914V71.0908H171.791ZM173.872 61.5454C173.872 62.3124 173.983 62.9847 174.206 63.5624C174.428 64.1401 174.75 64.5922 175.172 64.9189C175.593 65.2409 176.109 65.4019 176.72 65.4019C177.354 65.4019 177.885 65.2338 178.311 64.8976C178.737 64.5567 179.059 64.0951 179.277 63.5127C179.499 62.9303 179.61 62.2745 179.61 61.5454C179.61 60.8257 179.502 60.1794 179.284 59.6064C179.071 59.0335 178.749 58.5813 178.318 58.2499C177.892 57.9185 177.359 57.7527 176.72 57.7527C176.104 57.7527 175.583 57.9114 175.157 58.2286C174.736 58.5458 174.416 58.9885 174.199 59.5567C173.981 60.1249 173.872 60.7878 173.872 61.5454ZM187.309 67.2414C186.618 67.2414 185.993 67.1135 185.434 66.8579C184.876 66.5974 184.433 66.221 184.106 65.7286C183.784 65.2362 183.623 64.6325 183.623 63.9175C183.623 63.302 183.742 62.7954 183.978 62.3976C184.215 61.9999 184.535 61.685 184.937 61.453C185.34 61.221 185.789 61.0458 186.287 60.9275C186.784 60.8091 187.29 60.7191 187.806 60.6576C188.46 60.5818 188.99 60.5203 189.397 60.4729C189.805 60.4208 190.1 60.338 190.285 60.2243C190.47 60.1107 190.562 59.926 190.562 59.6704V59.6206C190.562 59.0004 190.387 58.5198 190.037 58.1789C189.691 57.838 189.175 57.6675 188.488 57.6675C187.773 57.6675 187.21 57.8261 186.798 58.1434C186.391 58.4559 186.109 58.8039 185.953 59.1874L183.957 58.7329C184.194 58.07 184.539 57.5349 184.994 57.1277C185.453 56.7158 185.981 56.4175 186.578 56.2329C187.174 56.0435 187.802 55.9488 188.46 55.9488C188.895 55.9488 189.357 56.0008 189.845 56.105C190.337 56.2044 190.797 56.3891 191.223 56.659C191.654 56.9289 192.006 57.3148 192.281 57.8167C192.556 58.3138 192.693 58.9601 192.693 59.7556V66.9999H190.619V65.5084H190.534C190.396 65.783 190.19 66.0529 189.916 66.3181C189.641 66.5832 189.288 66.8034 188.858 66.9786C188.427 67.1538 187.911 67.2414 187.309 67.2414ZM187.771 65.5368C188.358 65.5368 188.86 65.4208 189.277 65.1888C189.698 64.9568 190.018 64.6538 190.235 64.2797C190.458 63.9009 190.569 63.4961 190.569 63.0652V61.659C190.493 61.7347 190.347 61.8058 190.129 61.8721C189.916 61.9336 189.672 61.9881 189.397 62.0354C189.123 62.078 188.855 62.1183 188.595 62.1561C188.334 62.1893 188.117 62.2177 187.941 62.2414C187.529 62.2935 187.153 62.3811 186.812 62.5042C186.476 62.6273 186.206 62.8048 186.002 63.0368C185.804 63.2641 185.704 63.5671 185.704 63.9459C185.704 64.4715 185.898 64.8692 186.287 65.1391C186.675 65.4043 187.17 65.5368 187.771 65.5368ZM203.938 52.0283L204.818 53.3706C204.491 53.6689 204.12 53.882 203.703 54.0098C203.291 54.1329 202.815 54.2111 202.276 54.2442C201.736 54.2726 201.118 54.2987 200.422 54.3223C199.636 54.346 198.99 54.5165 198.483 54.8337C197.976 55.1462 197.586 55.6102 197.311 56.2258C197.041 56.8365 196.866 57.6036 196.786 58.5269H196.92C197.276 57.8498 197.768 57.3432 198.398 57.007C199.032 56.6708 199.745 56.5027 200.536 56.5027C201.416 56.5027 202.2 56.704 202.886 57.1064C203.573 57.5089 204.113 58.0984 204.506 58.8749C204.903 59.6467 205.102 60.5913 205.102 61.7087C205.102 62.8403 204.894 63.8181 204.477 64.6419C204.065 65.4658 203.483 66.1026 202.73 66.5525C201.982 66.9975 201.099 67.2201 200.081 67.2201C199.063 67.2201 198.175 66.9904 197.418 66.5311C196.665 66.0671 196.08 65.3806 195.663 64.4715C195.251 63.5624 195.045 62.4402 195.045 61.105V60.0255C195.045 57.5302 195.491 55.6528 196.381 54.3934C197.271 53.1339 198.601 52.4876 200.372 52.4544C200.945 52.4402 201.456 52.4379 201.906 52.4473C202.356 52.4521 202.749 52.4308 203.085 52.3834C203.426 52.3313 203.71 52.213 203.938 52.0283ZM200.088 65.4374C200.68 65.4374 201.189 65.2883 201.615 64.99C202.046 64.6869 202.377 64.2584 202.609 63.7044C202.841 63.1505 202.957 62.4971 202.957 61.7442C202.957 61.0056 202.841 60.3782 202.609 59.8621C202.377 59.346 202.046 58.953 201.615 58.6831C201.184 58.4085 200.668 58.2712 200.067 58.2712C199.622 58.2712 199.224 58.3493 198.874 58.5056C198.523 58.6571 198.223 58.882 197.972 59.1803C197.725 59.4786 197.534 59.8432 197.396 60.274C197.264 60.7002 197.193 61.1902 197.183 61.7442C197.183 62.8711 197.441 63.7684 197.957 64.436C198.478 65.1036 199.188 65.4374 200.088 65.4374ZM212.07 67.2201C211.047 67.2201 210.154 66.9857 209.392 66.5169C208.63 66.0482 208.038 65.3924 207.616 64.5496C207.195 63.7068 206.984 62.722 206.984 61.5951C206.984 60.4634 207.195 59.4739 207.616 58.6263C208.038 57.7788 208.63 57.1206 209.392 56.6519C210.154 56.1831 211.047 55.9488 212.07 55.9488C213.092 55.9488 213.985 56.1831 214.747 56.6519C215.509 57.1206 216.101 57.7788 216.523 58.6263C216.944 59.4739 217.155 60.4634 217.155 61.5951C217.155 62.722 216.944 63.7068 216.523 64.5496C216.101 65.3924 215.509 66.0482 214.747 66.5169C213.985 66.9857 213.092 67.2201 212.07 67.2201ZM212.077 65.4374C212.74 65.4374 213.289 65.2622 213.724 64.9118C214.16 64.5615 214.482 64.0951 214.69 63.5127C214.903 62.9303 215.01 62.2887 215.01 61.588C215.01 60.8919 214.903 60.2527 214.69 59.6704C214.482 59.0832 214.16 58.6121 213.724 58.257C213.289 57.9019 212.74 57.7243 212.077 57.7243C211.409 57.7243 210.855 57.9019 210.415 58.257C209.979 58.6121 209.655 59.0832 209.442 59.6704C209.233 60.2527 209.129 60.8919 209.129 61.588C209.129 62.2887 209.233 62.9303 209.442 63.5127C209.655 64.0951 209.979 64.5615 210.415 64.9118C210.855 65.2622 211.409 65.4374 212.077 65.4374ZM218.211 57.9232V56.0908H227.416V57.9232H223.858V66.9999H221.784V57.9232H218.211ZM229.662 66.9999V56.0908H231.786V60.6647H232.808L236.409 56.0908H239.037L234.811 61.3962L239.087 66.9999H236.452L233.163 62.6391H231.786V66.9999H229.662ZM243.911 67.2414C243.22 67.2414 242.595 67.1135 242.036 66.8579C241.477 66.5974 241.034 66.221 240.708 65.7286C240.386 65.2362 240.225 64.6325 240.225 63.9175C240.225 63.302 240.343 62.7954 240.58 62.3976C240.817 61.9999 241.136 61.685 241.539 61.453C241.941 61.221 242.391 61.0458 242.888 60.9275C243.385 60.8091 243.892 60.7191 244.408 60.6576C245.061 60.5818 245.592 60.5203 245.999 60.4729C246.406 60.4208 246.702 60.338 246.887 60.2243C247.071 60.1107 247.164 59.926 247.164 59.6704V59.6206C247.164 59.0004 246.989 58.5198 246.638 58.1789C246.292 57.838 245.776 57.6675 245.09 57.6675C244.375 57.6675 243.811 57.8261 243.4 58.1434C242.992 58.4559 242.711 58.8039 242.554 59.1874L240.559 58.7329C240.795 58.07 241.141 57.5349 241.596 57.1277C242.055 56.7158 242.583 56.4175 243.179 56.2329C243.776 56.0435 244.403 55.9488 245.061 55.9488C245.497 55.9488 245.959 56.0008 246.446 56.105C246.939 56.2044 247.398 56.3891 247.824 56.659C248.255 56.9289 248.608 57.3148 248.882 57.8167C249.157 58.3138 249.294 58.9601 249.294 59.7556V66.9999H247.221V65.5084H247.135C246.998 65.783 246.792 66.0529 246.517 66.3181C246.243 66.5832 245.89 66.8034 245.459 66.9786C245.028 67.1538 244.512 67.2414 243.911 67.2414ZM244.373 65.5368C244.96 65.5368 245.462 65.4208 245.878 65.1888C246.3 64.9568 246.619 64.6538 246.837 64.2797C247.06 63.9009 247.171 63.4961 247.171 63.0652V61.659C247.095 61.7347 246.948 61.8058 246.73 61.8721C246.517 61.9336 246.274 61.9881 245.999 62.0354C245.724 62.078 245.457 62.1183 245.196 62.1561C244.936 62.1893 244.718 62.2177 244.543 62.2414C244.131 62.2935 243.755 62.3811 243.414 62.5042C243.078 62.6273 242.808 62.8048 242.604 63.0368C242.405 63.2641 242.306 63.5671 242.306 63.9459C242.306 64.4715 242.5 64.8692 242.888 65.1391C243.276 65.4043 243.771 65.5368 244.373 65.5368Z" fill="white"/>
<path d="M898.5 59H914.5V61H898.5V59Z" fill="white"/>
<path d="M907.5 52V59H914.5V61H907.5V68H905.5V61H898.5V59H905.5V52H907.5Z" fill="white"/>
<path d="M918.5 118H0.5V122H918.5V118Z" fill="white" fill-opacity="0.1"/>
<path d="M13.4688 172.455V187H11.2812V174.33H4.43469V187H2.24719V172.455H13.4688ZM16.6541 191.091V176.091H18.728V177.859H18.9055C19.0286 177.632 19.2062 177.369 19.4382 177.071C19.6702 176.773 19.9922 176.512 20.4041 176.29C20.8161 176.062 21.3606 175.949 22.0376 175.949C22.9183 175.949 23.7043 176.171 24.3956 176.616C25.0869 177.062 25.629 177.703 26.022 178.541C26.4197 179.379 26.6186 180.388 26.6186 181.567C26.6186 182.746 26.4221 183.757 26.0291 184.599C25.6361 185.437 25.0964 186.084 24.4098 186.538C23.7232 186.988 22.9396 187.213 22.0589 187.213C21.3961 187.213 20.8539 187.102 20.4325 186.879C20.0159 186.657 19.6892 186.396 19.4524 186.098C19.2157 185.8 19.0334 185.535 18.9055 185.303H18.7777V191.091H16.6541ZM18.7351 181.545C18.7351 182.312 18.8464 182.985 19.0689 183.562C19.2914 184.14 19.6134 184.592 20.0348 184.919C20.4562 185.241 20.9723 185.402 21.5831 185.402C22.2176 185.402 22.7479 185.234 23.174 184.898C23.6001 184.557 23.9221 184.095 24.1399 183.513C24.3625 182.93 24.4737 182.275 24.4737 181.545C24.4737 180.826 24.3648 180.179 24.147 179.607C23.9339 179.034 23.612 178.581 23.1811 178.25C22.755 177.919 22.2223 177.753 21.5831 177.753C20.9676 177.753 20.4467 177.911 20.0206 178.229C19.5992 178.546 19.2796 178.989 19.0618 179.557C18.844 180.125 18.7351 180.788 18.7351 181.545ZM33.593 187.22C32.5703 187.22 31.6778 186.986 30.9155 186.517C30.1532 186.048 29.5613 185.393 29.1399 184.55C28.7185 183.707 28.5078 182.722 28.5078 181.595C28.5078 180.464 28.7185 179.474 29.1399 178.626C29.5613 177.779 30.1532 177.121 30.9155 176.652C31.6778 176.183 32.5703 175.949 33.593 175.949C34.6158 175.949 35.5083 176.183 36.2706 176.652C37.0329 177.121 37.6248 177.779 38.0462 178.626C38.4676 179.474 38.6783 180.464 38.6783 181.595C38.6783 182.722 38.4676 183.707 38.0462 184.55C37.6248 185.393 37.0329 186.048 36.2706 186.517C35.5083 186.986 34.6158 187.22 33.593 187.22ZM33.6001 185.438C34.263 185.438 34.8123 185.262 35.2479 184.912C35.6835 184.562 36.0054 184.095 36.2138 183.513C36.4268 182.93 36.5334 182.289 36.5334 181.588C36.5334 180.892 36.4268 180.253 36.2138 179.67C36.0054 179.083 35.6835 178.612 35.2479 178.257C34.8123 177.902 34.263 177.724 33.6001 177.724C32.9325 177.724 32.3786 177.902 31.9382 178.257C31.5026 178.612 31.1783 179.083 30.9652 179.67C30.7569 180.253 30.6527 180.892 30.6527 181.588C30.6527 182.289 30.7569 182.93 30.9652 183.513C31.1783 184.095 31.5026 184.562 31.9382 184.912C32.3786 185.262 32.9325 185.438 33.6001 185.438ZM39.9833 190.146V185.161H40.8711C41.0984 184.952 41.2901 184.704 41.4464 184.415C41.6074 184.126 41.7423 183.783 41.8512 183.385C41.9648 182.987 42.0595 182.523 42.1353 181.993C42.2111 181.458 42.2773 180.847 42.3342 180.161L42.6751 176.091H50.0898V185.161H51.766V190.146H49.6921V187H42.0856V190.146H39.9833ZM43.1438 185.161H48.016V177.909H44.5785L44.3512 180.161C44.2423 181.306 44.105 182.301 43.9393 183.143C43.7736 183.982 43.5084 184.654 43.1438 185.161ZM55.1839 191.091C54.8667 191.091 54.5779 191.065 54.3175 191.013C54.0571 190.965 53.8629 190.913 53.7351 190.857L54.2464 189.116C54.6347 189.221 54.9804 189.266 55.2834 189.251C55.5864 189.237 55.8539 189.124 56.0859 188.911C56.3227 188.697 56.531 188.349 56.7109 187.866L56.9737 187.142L52.9822 176.091H55.255L58.0178 184.557H58.1314L60.8942 176.091H63.174L58.6783 188.456C58.4699 189.024 58.2048 189.505 57.8828 189.898C57.5608 190.295 57.1773 190.594 56.7322 190.793C56.2872 190.991 55.7711 191.091 55.1839 191.091ZM65.1697 187V176.091H67.2933V180.665H68.3161L71.9169 176.091H74.5447L70.3189 181.396L74.5945 187H71.9595L68.6712 182.639H67.2933V187H65.1697ZM75.6332 177.923V176.091H84.8377V177.923H81.2795V187H79.2056V177.923H75.6332ZM91.1712 187.22C90.1484 187.22 89.2559 186.986 88.4936 186.517C87.7313 186.048 87.1394 185.393 86.718 184.55C86.2966 183.707 86.0859 182.722 86.0859 181.595C86.0859 180.464 86.2966 179.474 86.718 178.626C87.1394 177.779 87.7313 177.121 88.4936 176.652C89.2559 176.183 90.1484 175.949 91.1712 175.949C92.1939 175.949 93.0864 176.183 93.8487 176.652C94.611 177.121 95.2029 177.779 95.6243 178.626C96.0457 179.474 96.2564 180.464 96.2564 181.595C96.2564 182.722 96.0457 183.707 95.6243 184.55C95.2029 185.393 94.611 186.048 93.8487 186.517C93.0864 186.986 92.1939 187.22 91.1712 187.22ZM91.1783 185.438C91.8411 185.438 92.3904 185.262 92.826 184.912C93.2616 184.562 93.5836 184.095 93.7919 183.513C94.005 182.93 94.1115 182.289 94.1115 181.588C94.1115 180.892 94.005 180.253 93.7919 179.67C93.5836 179.083 93.2616 178.612 92.826 178.257C92.3904 177.902 91.8411 177.724 91.1783 177.724C90.5107 177.724 89.9567 177.902 89.5163 178.257C89.0807 178.612 88.7564 179.083 88.5433 179.67C88.335 180.253 88.2308 180.892 88.2308 181.588C88.2308 182.289 88.335 182.93 88.5433 183.513C88.7564 184.095 89.0807 184.562 89.5163 184.912C89.9567 185.262 90.5107 185.438 91.1783 185.438ZM98.6268 187V176.091H103.151C104.382 176.091 105.357 176.354 106.077 176.879C106.797 177.4 107.157 178.108 107.157 179.003C107.157 179.642 106.953 180.149 106.546 180.523C106.139 180.897 105.599 181.148 104.926 181.276C105.414 181.332 105.862 181.479 106.269 181.716C106.676 181.948 107.003 182.26 107.249 182.653C107.5 183.046 107.625 183.515 107.625 184.06C107.625 184.637 107.476 185.149 107.178 185.594C106.88 186.034 106.446 186.38 105.878 186.631C105.315 186.877 104.635 187 103.84 187H98.6268ZM100.623 185.224H103.84C104.365 185.224 104.777 185.099 105.076 184.848C105.374 184.597 105.523 184.256 105.523 183.825C105.523 183.319 105.374 182.921 105.076 182.632C104.777 182.339 104.365 182.192 103.84 182.192H100.623V185.224ZM100.623 180.636H103.172C103.57 180.636 103.911 180.58 104.195 180.466C104.484 180.352 104.704 180.191 104.855 179.983C105.012 179.77 105.09 179.519 105.09 179.23C105.09 178.809 104.917 178.48 104.571 178.243C104.226 178.006 103.752 177.888 103.151 177.888H100.623V180.636ZM111.553 179.841H114.721C116.056 179.841 117.083 180.172 117.803 180.835C118.523 181.498 118.882 182.353 118.882 183.399C118.882 184.081 118.721 184.694 118.4 185.239C118.078 185.783 117.606 186.214 116.986 186.531C116.366 186.844 115.611 187 114.721 187H109.955V176.091H112.036V185.168H114.721C115.331 185.168 115.833 185.009 116.226 184.692C116.619 184.37 116.816 183.96 116.816 183.463C116.816 182.937 116.619 182.509 116.226 182.178C115.833 181.841 115.331 181.673 114.721 181.673H111.553V179.841ZM120.431 187V176.091H122.554V187H120.431ZM127.485 184.024L132.293 176.091H134.58V187H132.499V179.06L127.712 187H125.404V176.091H127.485V184.024ZM131.384 172.398H133.131C133.131 173.198 132.847 173.849 132.279 174.351C131.716 174.848 130.953 175.097 129.992 175.097C129.036 175.097 128.276 174.848 127.712 174.351C127.149 173.849 126.867 173.198 126.867 172.398H128.607C128.607 172.753 128.711 173.068 128.92 173.342C129.128 173.612 129.486 173.747 129.992 173.747C130.489 173.747 130.844 173.612 131.058 173.342C131.275 173.072 131.384 172.758 131.384 172.398ZM145.903 187.241C145.212 187.241 144.587 187.114 144.028 186.858C143.469 186.598 143.027 186.221 142.7 185.729C142.378 185.236 142.217 184.633 142.217 183.918C142.217 183.302 142.335 182.795 142.572 182.398C142.809 182 143.128 181.685 143.531 181.453C143.933 181.221 144.383 181.046 144.88 180.928C145.377 180.809 145.884 180.719 146.4 180.658C147.054 180.582 147.584 180.52 147.991 180.473C148.398 180.421 148.694 180.338 148.879 180.224C149.064 180.111 149.156 179.926 149.156 179.67V179.621C149.156 179 148.981 178.52 148.63 178.179C148.285 177.838 147.769 177.668 147.082 177.668C146.367 177.668 145.804 177.826 145.392 178.143C144.984 178.456 144.703 178.804 144.547 179.188L142.551 178.733C142.788 178.07 143.133 177.535 143.588 177.128C144.047 176.716 144.575 176.418 145.172 176.233C145.768 176.044 146.395 175.949 147.054 175.949C147.489 175.949 147.951 176.001 148.439 176.105C148.931 176.205 149.39 176.389 149.816 176.659C150.247 176.929 150.6 177.315 150.875 177.817C151.149 178.314 151.287 178.96 151.287 179.756V187H149.213V185.509H149.127C148.99 185.783 148.784 186.053 148.51 186.318C148.235 186.583 147.882 186.804 147.451 186.979C147.02 187.154 146.504 187.241 145.903 187.241ZM146.365 185.537C146.952 185.537 147.454 185.421 147.87 185.189C148.292 184.957 148.611 184.654 148.829 184.28C149.052 183.901 149.163 183.496 149.163 183.065V181.659C149.087 181.735 148.94 181.806 148.723 181.872C148.51 181.934 148.266 181.988 147.991 182.036C147.717 182.078 147.449 182.118 147.189 182.156C146.928 182.189 146.71 182.218 146.535 182.241C146.123 182.294 145.747 182.381 145.406 182.504C145.07 182.627 144.8 182.805 144.596 183.037C144.397 183.264 144.298 183.567 144.298 183.946C144.298 184.472 144.492 184.869 144.88 185.139C145.269 185.404 145.763 185.537 146.365 185.537ZM161.509 180.629V182.469H155.599V180.629H161.509ZM156.196 176.091V187H154.115V176.091H156.196ZM162.993 176.091V187H160.919V176.091H162.993ZM169.009 187.241C168.317 187.241 167.692 187.114 167.134 186.858C166.575 186.598 166.132 186.221 165.805 185.729C165.483 185.236 165.322 184.633 165.322 183.918C165.322 183.302 165.441 182.795 165.678 182.398C165.914 182 166.234 181.685 166.636 181.453C167.039 181.221 167.489 181.046 167.986 180.928C168.483 180.809 168.99 180.719 169.506 180.658C170.159 180.582 170.689 180.52 171.097 180.473C171.504 180.421 171.8 180.338 171.984 180.224C172.169 180.111 172.261 179.926 172.261 179.67V179.621C172.261 179 172.086 178.52 171.736 178.179C171.39 177.838 170.874 177.668 170.188 177.668C169.473 177.668 168.909 177.826 168.497 178.143C168.09 178.456 167.808 178.804 167.652 179.188L165.656 178.733C165.893 178.07 166.239 177.535 166.693 177.128C167.152 176.716 167.68 176.418 168.277 176.233C168.874 176.044 169.501 175.949 170.159 175.949C170.595 175.949 171.056 176.001 171.544 176.105C172.036 176.205 172.496 176.389 172.922 176.659C173.353 176.929 173.705 177.315 173.98 177.817C174.255 178.314 174.392 178.96 174.392 179.756V187H172.318V185.509H172.233C172.096 185.783 171.89 186.053 171.615 186.318C171.34 186.583 170.988 186.804 170.557 186.979C170.126 187.154 169.61 187.241 169.009 187.241ZM169.47 185.537C170.057 185.537 170.559 185.421 170.976 185.189C171.397 184.957 171.717 184.654 171.935 184.28C172.157 183.901 172.268 183.496 172.268 183.065V181.659C172.193 181.735 172.046 181.806 171.828 181.872C171.615 181.934 171.371 181.988 171.097 182.036C170.822 182.078 170.554 182.118 170.294 182.156C170.034 182.189 169.816 182.218 169.641 182.241C169.229 182.294 168.852 182.381 168.511 182.504C168.175 182.627 167.905 182.805 167.702 183.037C167.503 183.264 167.403 183.567 167.403 183.946C167.403 184.472 167.598 184.869 167.986 185.139C168.374 185.404 168.869 185.537 169.47 185.537ZM176.361 187L176.354 185.161H176.745C177.048 185.161 177.301 185.097 177.505 184.969C177.713 184.836 177.883 184.614 178.016 184.301C178.149 183.989 178.25 183.558 178.321 183.009C178.392 182.455 178.444 181.759 178.478 180.92L178.669 176.091H186.283V187H184.202V177.923H180.637L180.466 181.631C180.424 182.53 180.331 183.316 180.189 183.989C180.052 184.661 179.851 185.222 179.586 185.672C179.32 186.117 178.98 186.451 178.563 186.673C178.146 186.891 177.64 187 177.043 187H176.361ZM191.196 184.024L196.004 176.091H198.291V187H196.21V179.06L191.423 187H189.115V176.091H191.196V184.024ZM200.5 184.116H202.673C202.702 184.562 202.903 184.905 203.277 185.146C203.656 185.388 204.146 185.509 204.747 185.509C205.358 185.509 205.879 185.378 206.31 185.118C206.741 184.853 206.956 184.443 206.956 183.889C206.956 183.558 206.873 183.269 206.707 183.023C206.546 182.772 206.317 182.578 206.018 182.44C205.725 182.303 205.377 182.234 204.974 182.234H203.199V180.565H204.974C205.576 180.565 206.026 180.428 206.324 180.153C206.622 179.879 206.771 179.536 206.771 179.124C206.771 178.679 206.61 178.321 206.288 178.051C205.971 177.777 205.528 177.639 204.96 177.639C204.383 177.639 203.902 177.769 203.518 178.03C203.135 178.286 202.934 178.617 202.915 179.024H200.77C200.784 178.413 200.969 177.878 201.324 177.419C201.684 176.955 202.167 176.595 202.773 176.339C203.384 176.079 204.077 175.949 204.854 175.949C205.663 175.949 206.364 176.079 206.956 176.339C207.548 176.6 208.005 176.96 208.327 177.419C208.653 177.878 208.817 178.406 208.817 179.003C208.817 179.604 208.637 180.097 208.277 180.48C207.922 180.859 207.458 181.131 206.885 181.297V181.411C207.306 181.439 207.68 181.567 208.007 181.794C208.334 182.021 208.589 182.322 208.774 182.696C208.959 183.07 209.051 183.494 209.051 183.967C209.051 184.635 208.866 185.213 208.497 185.7C208.133 186.188 207.626 186.564 206.977 186.83C206.333 187.09 205.597 187.22 204.768 187.22C203.964 187.22 203.241 187.095 202.602 186.844C201.968 186.588 201.464 186.228 201.089 185.764C200.72 185.3 200.524 184.751 200.5 184.116Z" fill="white"/>
<path d="M907.5 172V179H914.5V181H907.5V188H905.5V181H898.5V179H905.5V172H907.5Z" fill="white"/>
<path d="M918.5 238H0.5V242H918.5V238Z" fill="white" fill-opacity="0.1"/>
<path d="M3.32673 307H0.997192L6.23156 292.455H8.76708L14.0014 307H11.6719L7.55969 295.097H7.44605L3.32673 307ZM3.71736 301.304H11.2741V303.151H3.71736V301.304ZM15.9066 311.091C15.5894 311.091 15.3005 311.065 15.0401 311.013C14.7797 310.965 14.5856 310.913 14.4577 310.857L14.9691 309.116C15.3574 309.221 15.703 309.266 16.006 309.251C16.3091 309.237 16.5766 309.124 16.8086 308.911C17.0453 308.697 17.2537 308.349 17.4336 307.866L17.6964 307.142L13.7049 296.091H15.9776L18.7404 304.557H18.854L21.6168 296.091H23.8967L19.4009 308.456C19.1926 309.024 18.9274 309.505 18.6055 309.898C18.2835 310.295 17.9 310.594 17.4549 310.793C17.0098 310.991 16.4937 311.091 15.9066 311.091ZM25.2816 297.923V296.091H34.4862V297.923H30.9279V307H28.854V297.923H25.2816ZM40.8196 307.22C39.7637 307.22 38.8546 306.981 38.0923 306.503C37.3348 306.02 36.7524 305.355 36.3452 304.507C35.938 303.66 35.7344 302.689 35.7344 301.595C35.7344 300.487 35.9427 299.509 36.3594 298.662C36.776 297.81 37.3632 297.144 38.1207 296.666C38.8783 296.188 39.7708 295.949 40.7983 295.949C41.6269 295.949 42.3655 296.103 43.0142 296.411C43.6629 296.714 44.1861 297.14 44.5838 297.689C44.9863 298.238 45.2254 298.88 45.3011 299.614H43.2344C43.1207 299.102 42.8603 298.662 42.4531 298.293C42.0507 297.923 41.5109 297.739 40.8338 297.739C40.242 297.739 39.7235 297.895 39.2784 298.207C38.8381 298.515 38.4948 298.955 38.2486 299.528C38.0024 300.097 37.8793 300.769 37.8793 301.545C37.8793 302.341 38 303.027 38.2415 303.605C38.483 304.183 38.8239 304.63 39.2642 304.947C39.7093 305.265 40.2325 305.423 40.8338 305.423C41.2363 305.423 41.6009 305.35 41.9276 305.203C42.259 305.052 42.536 304.836 42.7585 304.557C42.9858 304.277 43.1444 303.941 43.2344 303.548H45.3011C45.2254 304.254 44.9957 304.884 44.6122 305.438C44.2287 305.991 43.715 306.427 43.071 306.744C42.4318 307.062 41.6813 307.22 40.8196 307.22ZM46.7464 297.923V296.091H55.951V297.923H52.3928V307H50.3189V297.923H46.7464ZM60.864 307.241C60.1727 307.241 59.5477 307.114 58.989 306.858C58.4303 306.598 57.9876 306.221 57.6609 305.729C57.3389 305.236 57.1779 304.633 57.1779 303.918C57.1779 303.302 57.2963 302.795 57.533 302.398C57.7698 302 58.0894 301.685 58.4918 301.453C58.8943 301.221 59.3441 301.046 59.8413 300.928C60.3384 300.809 60.8451 300.719 61.3612 300.658C62.0146 300.582 62.5449 300.52 62.9521 300.473C63.3593 300.421 63.6552 300.338 63.8398 300.224C64.0245 300.111 64.1168 299.926 64.1168 299.67V299.621C64.1168 299 63.9416 298.52 63.5913 298.179C63.2456 297.838 62.7295 297.668 62.043 297.668C61.328 297.668 60.7646 297.826 60.3526 298.143C59.9454 298.456 59.6637 298.804 59.5075 299.188L57.5117 298.733C57.7485 298.07 58.0941 297.535 58.5487 297.128C59.0079 296.716 59.5359 296.418 60.1325 296.233C60.729 296.044 61.3564 295.949 62.0146 295.949C62.4502 295.949 62.9118 296.001 63.3995 296.105C63.8919 296.205 64.3512 296.389 64.7773 296.659C65.2082 296.929 65.561 297.315 65.8356 297.817C66.1102 298.314 66.2475 298.96 66.2475 299.756V307H64.1737V305.509H64.0884C63.9511 305.783 63.7451 306.053 63.4705 306.318C63.1959 306.583 62.8432 306.804 62.4123 306.979C61.9814 307.154 61.4653 307.241 60.864 307.241ZM61.3256 305.537C61.9128 305.537 62.4147 305.421 62.8313 305.189C63.2527 304.957 63.5723 304.654 63.7901 304.28C64.0127 303.901 64.1239 303.496 64.1239 303.065V301.659C64.0482 301.735 63.9014 301.806 63.6836 301.872C63.4705 301.934 63.2267 301.988 62.9521 302.036C62.6774 302.078 62.4099 302.118 62.1495 302.156C61.8891 302.189 61.6713 302.218 61.4961 302.241C61.0842 302.294 60.7077 302.381 60.3668 302.504C60.0307 302.627 59.7608 302.805 59.5572 303.037C59.3583 303.264 59.2589 303.567 59.2589 303.946C59.2589 304.472 59.453 304.869 59.8413 305.139C60.2295 305.404 60.7243 305.537 61.3256 305.537ZM73.7706 310.714V292.455H75.8942V310.714H73.7706ZM73.7706 307.22C72.9988 307.22 72.2957 307.088 71.6612 306.822C71.0268 306.553 70.4799 306.169 70.0206 305.672C69.5613 305.175 69.2062 304.58 68.9553 303.889C68.709 303.198 68.5859 302.433 68.5859 301.595C68.5859 300.748 68.709 299.978 68.9553 299.287C69.2062 298.596 69.5613 298.001 70.0206 297.504C70.4799 297.007 71.0268 296.624 71.6612 296.354C72.2957 296.084 72.9988 295.949 73.7706 295.949H74.2962V307.22H73.7706ZM73.7706 305.43H74.0689V297.739H73.7706C73.2592 297.739 72.8142 297.843 72.4354 298.051C72.0566 298.255 71.7417 298.536 71.4908 298.896C71.2398 299.251 71.0504 299.661 70.9226 300.125C70.7995 300.589 70.7379 301.079 70.7379 301.595C70.7379 302.286 70.8492 302.923 71.0717 303.506C71.2943 304.083 71.6304 304.55 72.0803 304.905C72.5301 305.255 73.0935 305.43 73.7706 305.43ZM75.8942 307.22H75.3615V295.949H75.8942C76.666 295.949 77.3691 296.084 78.0036 296.354C78.638 296.624 79.1825 297.007 79.6371 297.504C80.0964 298.001 80.4491 298.596 80.6953 299.287C80.9463 299.978 81.0717 300.748 81.0717 301.595C81.0717 302.433 80.9463 303.198 80.6953 303.889C80.4491 304.58 80.0964 305.175 79.6371 305.672C79.1825 306.169 78.638 306.553 78.0036 306.822C77.3691 307.088 76.666 307.22 75.8942 307.22ZM75.8942 305.43C76.4055 305.43 76.8506 305.331 77.2294 305.132C77.6082 304.929 77.9231 304.649 78.174 304.294C78.425 303.934 78.612 303.525 78.7351 303.065C78.8582 302.601 78.9197 302.111 78.9197 301.595C78.9197 300.909 78.8085 300.274 78.5859 299.692C78.3681 299.105 78.0343 298.634 77.5845 298.278C77.1347 297.919 76.5713 297.739 75.8942 297.739H75.5888V305.43H75.8942ZM88.1261 310.714V292.455H90.2496V310.714H88.1261ZM88.1261 307.22C87.3543 307.22 86.6512 307.088 86.0167 306.822C85.3822 306.553 84.8353 306.169 84.3761 305.672C83.9168 305.175 83.5617 304.58 83.3107 303.889C83.0645 303.198 82.9414 302.433 82.9414 301.595C82.9414 300.748 83.0645 299.978 83.3107 299.287C83.5617 298.596 83.9168 298.001 84.3761 297.504C84.8353 297.007 85.3822 296.624 86.0167 296.354C86.6512 296.084 87.3543 295.949 88.1261 295.949H88.6516V307.22H88.1261ZM88.1261 305.43H88.4244V297.739H88.1261C87.6147 297.739 87.1696 297.843 86.7908 298.051C86.4121 298.255 86.0972 298.536 85.8462 298.896C85.5953 299.251 85.4059 299.661 85.2781 300.125C85.1549 300.589 85.0934 301.079 85.0934 301.595C85.0934 302.286 85.2047 302.923 85.4272 303.506C85.6497 304.083 85.9859 304.55 86.4357 304.905C86.8855 305.255 87.449 305.43 88.1261 305.43ZM90.2496 307.22H89.717V295.949H90.2496C91.0214 295.949 91.7246 296.084 92.359 296.354C92.9935 296.624 93.538 297.007 93.9925 297.504C94.4518 298.001 94.8046 298.596 95.0508 299.287C95.3017 299.978 95.4272 300.748 95.4272 301.595C95.4272 302.433 95.3017 303.198 95.0508 303.889C94.8046 304.58 94.4518 305.175 93.9925 305.672C93.538 306.169 92.9935 306.553 92.359 306.822C91.7246 307.088 91.0214 307.22 90.2496 307.22ZM90.2496 305.43C90.761 305.43 91.2061 305.331 91.5849 305.132C91.9637 304.929 92.2785 304.649 92.5295 304.294C92.7804 303.934 92.9674 303.525 93.0906 303.065C93.2137 302.601 93.2752 302.111 93.2752 301.595C93.2752 300.909 93.1639 300.274 92.9414 299.692C92.7236 299.105 92.3898 298.634 91.94 298.278C91.4902 297.919 90.9267 297.739 90.2496 297.739H89.9442V305.43H90.2496ZM99.8679 304.024L104.676 296.091H106.963V307H104.882V299.06L100.095 307H97.7869V296.091H99.8679V304.024ZM117.212 300.629V302.469H111.303V300.629H117.212ZM111.899 296.091V307H109.818V296.091H111.899ZM118.696 296.091V307H116.622V296.091H118.696ZM128.511 296.091V297.923H123.632V307H121.537V296.091H128.511Z" fill="white"/>
<path d="M907.5 292V299H914.5V301H907.5V308H905.5V301H898.5V299H905.5V292H907.5Z" fill="white"/>
<path d="M918.5 358H0.5V362H918.5V358Z" fill="white" fill-opacity="0.1"/>
<path d="M13.4688 412.455V427H11.2812V414.33H4.43469V427H2.24719V412.455H13.4688ZM16.6541 431.091V416.091H18.728V417.859H18.9055C19.0286 417.632 19.2062 417.369 19.4382 417.071C19.6702 416.773 19.9922 416.512 20.4041 416.29C20.8161 416.062 21.3606 415.949 22.0376 415.949C22.9183 415.949 23.7043 416.171 24.3956 416.616C25.0869 417.062 25.629 417.703 26.022 418.541C26.4197 419.379 26.6186 420.388 26.6186 421.567C26.6186 422.746 26.4221 423.757 26.0291 424.599C25.6361 425.437 25.0964 426.084 24.4098 426.538C23.7232 426.988 22.9396 427.213 22.0589 427.213C21.3961 427.213 20.8539 427.102 20.4325 426.879C20.0159 426.657 19.6892 426.396 19.4524 426.098C19.2157 425.8 19.0334 425.535 18.9055 425.303H18.7777V431.091H16.6541ZM18.7351 421.545C18.7351 422.312 18.8464 422.985 19.0689 423.562C19.2914 424.14 19.6134 424.592 20.0348 424.919C20.4562 425.241 20.9723 425.402 21.5831 425.402C22.2176 425.402 22.7479 425.234 23.174 424.898C23.6001 424.557 23.9221 424.095 24.1399 423.513C24.3625 422.93 24.4737 422.275 24.4737 421.545C24.4737 420.826 24.3648 420.179 24.147 419.607C23.9339 419.034 23.612 418.581 23.1811 418.25C22.755 417.919 22.2223 417.753 21.5831 417.753C20.9676 417.753 20.4467 417.911 20.0206 418.229C19.5992 418.546 19.2796 418.989 19.0618 419.557C18.844 420.125 18.7351 420.788 18.7351 421.545ZM33.593 427.22C32.5703 427.22 31.6778 426.986 30.9155 426.517C30.1532 426.048 29.5613 425.393 29.1399 424.55C28.7185 423.707 28.5078 422.722 28.5078 421.595C28.5078 420.464 28.7185 419.474 29.1399 418.626C29.5613 417.779 30.1532 417.121 30.9155 416.652C31.6778 416.183 32.5703 415.949 33.593 415.949C34.6158 415.949 35.5083 416.183 36.2706 416.652C37.0329 417.121 37.6248 417.779 38.0462 418.626C38.4676 419.474 38.6783 420.464 38.6783 421.595C38.6783 422.722 38.4676 423.707 38.0462 424.55C37.6248 425.393 37.0329 426.048 36.2706 426.517C35.5083 426.986 34.6158 427.22 33.593 427.22ZM33.6001 425.438C34.263 425.438 34.8123 425.262 35.2479 424.912C35.6835 424.562 36.0054 424.095 36.2138 423.513C36.4268 422.93 36.5334 422.289 36.5334 421.588C36.5334 420.892 36.4268 420.253 36.2138 419.67C36.0054 419.083 35.6835 418.612 35.2479 418.257C34.8123 417.902 34.263 417.724 33.6001 417.724C32.9325 417.724 32.3786 417.902 31.9382 418.257C31.5026 418.612 31.1783 419.083 30.9652 419.67C30.7569 420.253 30.6527 420.892 30.6527 421.588C30.6527 422.289 30.7569 422.93 30.9652 423.513C31.1783 424.095 31.5026 424.562 31.9382 424.912C32.3786 425.262 32.9325 425.438 33.6001 425.438ZM39.9833 430.146V425.161H40.8711C41.0984 424.952 41.2901 424.704 41.4464 424.415C41.6074 424.126 41.7423 423.783 41.8512 423.385C41.9648 422.987 42.0595 422.523 42.1353 421.993C42.2111 421.458 42.2773 420.847 42.3342 420.161L42.6751 416.091H50.0898V425.161H51.766V430.146H49.6921V427H42.0856V430.146H39.9833ZM43.1438 425.161H48.016V417.909H44.5785L44.3512 420.161C44.2423 421.306 44.105 422.301 43.9393 423.143C43.7736 423.982 43.5084 424.654 43.1438 425.161ZM55.1839 431.091C54.8667 431.091 54.5779 431.065 54.3175 431.013C54.0571 430.965 53.8629 430.913 53.7351 430.857L54.2464 429.116C54.6347 429.221 54.9804 429.266 55.2834 429.251C55.5864 429.237 55.8539 429.124 56.0859 428.911C56.3227 428.697 56.531 428.349 56.7109 427.866L56.9737 427.142L52.9822 416.091H55.255L58.0178 424.557H58.1314L60.8942 416.091H63.174L58.6783 428.456C58.4699 429.024 58.2048 429.505 57.8828 429.898C57.5608 430.295 57.1773 430.594 56.7322 430.793C56.2872 430.991 55.7711 431.091 55.1839 431.091ZM65.1697 427V416.091H67.2933V420.665H68.3161L71.9169 416.091H74.5447L70.3189 421.396L74.5945 427H71.9595L68.6712 422.639H67.2933V427H65.1697ZM75.6332 417.923V416.091H84.8377V417.923H81.2795V427H79.2056V417.923H75.6332ZM91.1712 427.22C90.1484 427.22 89.2559 426.986 88.4936 426.517C87.7313 426.048 87.1394 425.393 86.718 424.55C86.2966 423.707 86.0859 422.722 86.0859 421.595C86.0859 420.464 86.2966 419.474 86.718 418.626C87.1394 417.779 87.7313 417.121 88.4936 416.652C89.2559 416.183 90.1484 415.949 91.1712 415.949C92.1939 415.949 93.0864 416.183 93.8487 416.652C94.611 417.121 95.2029 417.779 95.6243 418.626C96.0457 419.474 96.2564 420.464 96.2564 421.595C96.2564 422.722 96.0457 423.707 95.6243 424.55C95.2029 425.393 94.611 426.048 93.8487 426.517C93.0864 426.986 92.1939 427.22 91.1712 427.22ZM91.1783 425.438C91.8411 425.438 92.3904 425.262 92.826 424.912C93.2616 424.562 93.5836 424.095 93.7919 423.513C94.005 422.93 94.1115 422.289 94.1115 421.588C94.1115 420.892 94.005 420.253 93.7919 419.67C93.5836 419.083 93.2616 418.612 92.826 418.257C92.3904 417.902 91.8411 417.724 91.1783 417.724C90.5107 417.724 89.9567 417.902 89.5163 418.257C89.0807 418.612 88.7564 419.083 88.5433 419.67C88.335 420.253 88.2308 420.892 88.2308 421.588C88.2308 422.289 88.335 422.93 88.5433 423.513C88.7564 424.095 89.0807 424.562 89.5163 424.912C89.9567 425.262 90.5107 425.438 91.1783 425.438ZM98.6268 427V416.091H103.151C104.382 416.091 105.357 416.354 106.077 416.879C106.797 417.4 107.157 418.108 107.157 419.003C107.157 419.642 106.953 420.149 106.546 420.523C106.139 420.897 105.599 421.148 104.926 421.276C105.414 421.332 105.862 421.479 106.269 421.716C106.676 421.948 107.003 422.26 107.249 422.653C107.5 423.046 107.625 423.515 107.625 424.06C107.625 424.637 107.476 425.149 107.178 425.594C106.88 426.034 106.446 426.38 105.878 426.631C105.315 426.877 104.635 427 103.84 427H98.6268ZM100.623 425.224H103.84C104.365 425.224 104.777 425.099 105.076 424.848C105.374 424.597 105.523 424.256 105.523 423.825C105.523 423.319 105.374 422.921 105.076 422.632C104.777 422.339 104.365 422.192 103.84 422.192H100.623V425.224ZM100.623 420.636H103.172C103.57 420.636 103.911 420.58 104.195 420.466C104.484 420.352 104.704 420.191 104.855 419.983C105.012 419.77 105.09 419.519 105.09 419.23C105.09 418.809 104.917 418.48 104.571 418.243C104.226 418.006 103.752 417.888 103.151 417.888H100.623V420.636ZM114.55 427.22C113.527 427.22 112.635 426.986 111.873 426.517C111.11 426.048 110.518 425.393 110.097 424.55C109.676 423.707 109.465 422.722 109.465 421.595C109.465 420.464 109.676 419.474 110.097 418.626C110.518 417.779 111.11 417.121 111.873 416.652C112.635 416.183 113.527 415.949 114.55 415.949C115.573 415.949 116.465 416.183 117.228 416.652C117.99 417.121 118.582 417.779 119.003 418.626C119.425 419.474 119.635 420.464 119.635 421.595C119.635 422.722 119.425 423.707 119.003 424.55C118.582 425.393 117.99 426.048 117.228 426.517C116.465 426.986 115.573 427.22 114.55 427.22ZM114.557 425.438C115.22 425.438 115.769 425.262 116.205 424.912C116.641 424.562 116.962 424.095 117.171 423.513C117.384 422.93 117.49 422.289 117.49 421.588C117.49 420.892 117.384 420.253 117.171 419.67C116.962 419.083 116.641 418.612 116.205 418.257C115.769 417.902 115.22 417.724 114.557 417.724C113.89 417.724 113.336 417.902 112.895 418.257C112.46 418.612 112.135 419.083 111.922 419.67C111.714 420.253 111.61 420.892 111.61 421.588C111.61 422.289 111.714 422.93 111.922 423.513C112.135 424.095 112.46 424.562 112.895 424.912C113.336 425.262 113.89 425.438 114.557 425.438ZM126.707 427.22C125.633 427.22 124.707 426.991 123.93 426.531C123.159 426.067 122.562 425.416 122.141 424.578C121.724 423.735 121.516 422.748 121.516 421.616C121.516 420.499 121.724 419.514 122.141 418.662C122.562 417.81 123.149 417.144 123.902 416.666C124.66 416.188 125.545 415.949 126.558 415.949C127.174 415.949 127.77 416.051 128.348 416.254C128.926 416.458 129.444 416.777 129.903 417.213C130.363 417.649 130.725 418.214 130.99 418.911C131.255 419.602 131.388 420.442 131.388 421.432V422.185H122.716V420.594H129.307C129.307 420.035 129.193 419.54 128.966 419.109C128.739 418.674 128.419 418.33 128.007 418.08C127.6 417.829 127.122 417.703 126.572 417.703C125.976 417.703 125.455 417.85 125.01 418.143C124.57 418.432 124.229 418.811 123.987 419.28C123.75 419.744 123.632 420.248 123.632 420.793V422.036C123.632 422.765 123.76 423.385 124.016 423.896C124.276 424.408 124.638 424.798 125.102 425.068C125.566 425.333 126.108 425.466 126.729 425.466C127.131 425.466 127.498 425.409 127.83 425.295C128.161 425.177 128.447 425.002 128.689 424.77C128.93 424.538 129.115 424.251 129.243 423.911L131.253 424.273C131.092 424.865 130.803 425.383 130.386 425.828C129.974 426.268 129.456 426.612 128.831 426.858C128.211 427.099 127.503 427.22 126.707 427.22ZM143.632 427.22C142.576 427.22 141.667 426.981 140.905 426.503C140.147 426.02 139.565 425.355 139.158 424.507C138.75 423.66 138.547 422.689 138.547 421.595C138.547 420.487 138.755 419.509 139.172 418.662C139.589 417.81 140.176 417.144 140.933 416.666C141.691 416.188 142.583 415.949 143.611 415.949C144.439 415.949 145.178 416.103 145.827 416.411C146.475 416.714 146.999 417.14 147.396 417.689C147.799 418.238 148.038 418.88 148.114 419.614H146.047C145.933 419.102 145.673 418.662 145.266 418.293C144.863 417.923 144.323 417.739 143.646 417.739C143.054 417.739 142.536 417.895 142.091 418.207C141.651 418.515 141.307 418.955 141.061 419.528C140.815 420.097 140.692 420.769 140.692 421.545C140.692 422.341 140.813 423.027 141.054 423.605C141.295 424.183 141.636 424.63 142.077 424.947C142.522 425.265 143.045 425.423 143.646 425.423C144.049 425.423 144.413 425.35 144.74 425.203C145.071 425.052 145.348 424.836 145.571 424.557C145.798 424.277 145.957 423.941 146.047 423.548H148.114C148.038 424.254 147.808 424.884 147.425 425.438C147.041 425.991 146.527 426.427 145.884 426.744C145.244 427.062 144.494 427.22 143.632 427.22ZM154.98 427.22C153.957 427.22 153.065 426.986 152.302 426.517C151.54 426.048 150.948 425.393 150.527 424.55C150.105 423.707 149.895 422.722 149.895 421.595C149.895 420.464 150.105 419.474 150.527 418.626C150.948 417.779 151.54 417.121 152.302 416.652C153.065 416.183 153.957 415.949 154.98 415.949C156.002 415.949 156.895 416.183 157.657 416.652C158.42 417.121 159.011 417.779 159.433 418.626C159.854 419.474 160.065 420.464 160.065 421.595C160.065 422.722 159.854 423.707 159.433 424.55C159.011 425.393 158.42 426.048 157.657 426.517C156.895 426.986 156.002 427.22 154.98 427.22ZM154.987 425.438C155.65 425.438 156.199 425.262 156.635 424.912C157.07 424.562 157.392 424.095 157.6 423.513C157.814 422.93 157.92 422.289 157.92 421.588C157.92 420.892 157.814 420.253 157.6 419.67C157.392 419.083 157.07 418.612 156.635 418.257C156.199 417.902 155.65 417.724 154.987 417.724C154.319 417.724 153.765 417.902 153.325 418.257C152.889 418.612 152.565 419.083 152.352 419.67C152.144 420.253 152.039 420.892 152.039 421.588C152.039 422.289 152.144 422.93 152.352 423.513C152.565 424.095 152.889 424.562 153.325 424.912C153.765 425.262 154.319 425.438 154.987 425.438ZM162.435 427V416.091H171.335V427H169.254V417.923H164.502V427H162.435ZM174.174 431.091V416.091H176.248V417.859H176.425C176.548 417.632 176.726 417.369 176.958 417.071C177.19 416.773 177.512 416.512 177.924 416.29C178.336 416.062 178.88 415.949 179.557 415.949C180.438 415.949 181.224 416.171 181.915 416.616C182.606 417.062 183.149 417.703 183.542 418.541C183.939 419.379 184.138 420.388 184.138 421.567C184.138 422.746 183.942 423.757 183.549 424.599C183.156 425.437 182.616 426.084 181.929 426.538C181.243 426.988 180.459 427.213 179.578 427.213C178.916 427.213 178.373 427.102 177.952 426.879C177.535 426.657 177.209 426.396 176.972 426.098C176.735 425.8 176.553 425.535 176.425 425.303H176.297V431.091H174.174ZM176.255 421.545C176.255 422.312 176.366 422.985 176.588 423.562C176.811 424.14 177.133 424.592 177.554 424.919C177.976 425.241 178.492 425.402 179.103 425.402C179.737 425.402 180.267 425.234 180.694 424.898C181.12 424.557 181.442 424.095 181.659 423.513C181.882 422.93 181.993 422.275 181.993 421.545C181.993 420.826 181.884 420.179 181.667 419.607C181.453 419.034 181.132 418.581 180.701 418.25C180.275 417.919 179.742 417.753 179.103 417.753C178.487 417.753 177.966 417.911 177.54 418.229C177.119 418.546 176.799 418.989 176.581 419.557C176.364 420.125 176.255 420.788 176.255 421.545ZM191.113 427.22C190.09 427.22 189.197 426.986 188.435 426.517C187.673 426.048 187.081 425.393 186.659 424.55C186.238 423.707 186.027 422.722 186.027 421.595C186.027 420.464 186.238 419.474 186.659 418.626C187.081 417.779 187.673 417.121 188.435 416.652C189.197 416.183 190.09 415.949 191.113 415.949C192.135 415.949 193.028 416.183 193.79 416.652C194.552 417.121 195.144 417.779 195.566 418.626C195.987 419.474 196.198 420.464 196.198 421.595C196.198 422.722 195.987 423.707 195.566 424.55C195.144 425.393 194.552 426.048 193.79 426.517C193.028 426.986 192.135 427.22 191.113 427.22ZM191.12 425.438C191.783 425.438 192.332 425.262 192.767 424.912C193.203 424.562 193.525 424.095 193.733 423.513C193.946 422.93 194.053 422.289 194.053 421.588C194.053 420.892 193.946 420.253 193.733 419.67C193.525 419.083 193.203 418.612 192.767 418.257C192.332 417.902 191.783 417.724 191.12 417.724C190.452 417.724 189.898 417.902 189.458 418.257C189.022 418.612 188.698 419.083 188.485 419.67C188.276 420.253 188.172 420.892 188.172 421.588C188.172 422.289 188.276 422.93 188.485 423.513C188.698 424.095 189.022 424.562 189.458 424.912C189.898 425.262 190.452 425.438 191.12 425.438ZM198.568 427V416.091H203.092C204.323 416.091 205.299 416.354 206.018 416.879C206.738 417.4 207.098 418.108 207.098 419.003C207.098 419.642 206.894 420.149 206.487 420.523C206.08 420.897 205.54 421.148 204.868 421.276C205.356 421.332 205.803 421.479 206.21 421.716C206.617 421.948 206.944 422.26 207.19 422.653C207.441 423.046 207.567 423.515 207.567 424.06C207.567 424.637 207.418 425.149 207.119 425.594C206.821 426.034 206.388 426.38 205.82 426.631C205.256 426.877 204.577 427 203.781 427H198.568ZM200.564 425.224H203.781C204.307 425.224 204.719 425.099 205.017 424.848C205.315 424.597 205.464 424.256 205.464 423.825C205.464 423.319 205.315 422.921 205.017 422.632C204.719 422.339 204.307 422.192 203.781 422.192H200.564V425.224ZM200.564 420.636H203.114C203.511 420.636 203.852 420.58 204.136 420.466C204.425 420.352 204.645 420.191 204.797 419.983C204.953 419.77 205.031 419.519 205.031 419.23C205.031 418.809 204.858 418.48 204.513 418.243C204.167 418.006 203.694 417.888 203.092 417.888H200.564V420.636ZM214.491 427.22C213.469 427.22 212.576 426.986 211.814 426.517C211.052 426.048 210.46 425.393 210.038 424.55C209.617 423.707 209.406 422.722 209.406 421.595C209.406 420.464 209.617 419.474 210.038 418.626C210.46 417.779 211.052 417.121 211.814 416.652C212.576 416.183 213.469 415.949 214.491 415.949C215.514 415.949 216.407 416.183 217.169 416.652C217.931 417.121 218.523 417.779 218.945 418.626C219.366 419.474 219.577 420.464 219.577 421.595C219.577 422.722 219.366 423.707 218.945 424.55C218.523 425.393 217.931 426.048 217.169 426.517C216.407 426.986 215.514 427.22 214.491 427.22ZM214.499 425.438C215.161 425.438 215.711 425.262 216.146 424.912C216.582 424.562 216.904 424.095 217.112 423.513C217.325 422.93 217.432 422.289 217.432 421.588C217.432 420.892 217.325 420.253 217.112 419.67C216.904 419.083 216.582 418.612 216.146 418.257C215.711 417.902 215.161 417.724 214.499 417.724C213.831 417.724 213.277 417.902 212.837 418.257C212.401 418.612 212.077 419.083 211.864 419.67C211.655 420.253 211.551 420.892 211.551 421.588C211.551 422.289 211.655 422.93 211.864 423.513C212.077 424.095 212.401 424.562 212.837 424.912C213.277 425.262 213.831 425.438 214.499 425.438ZM220.821 427L225.047 421.418L220.871 416.091H223.343L226.716 420.622H227.476V416.091H229.6V420.622H230.338L233.712 416.091H236.184L232.029 421.418L236.233 427H233.712L230.31 422.455H229.6V427H227.476V422.455H226.766L223.343 427H220.821ZM237.327 430.146V425.161H238.215C238.442 424.952 238.634 424.704 238.79 424.415C238.951 424.126 239.086 423.783 239.195 423.385C239.309 422.987 239.403 422.523 239.479 421.993C239.555 421.458 239.621 420.847 239.678 420.161L240.019 416.091H247.434V425.161H249.11V430.146H247.036V427H239.429V430.146H237.327ZM240.488 425.161H245.36V417.909H241.922L241.695 420.161C241.586 421.306 241.449 422.301 241.283 423.143C241.117 423.982 240.852 424.654 240.488 425.161ZM255.887 427.22C254.812 427.22 253.887 426.991 253.11 426.531C252.338 426.067 251.742 425.416 251.32 424.578C250.904 423.735 250.695 422.748 250.695 421.616C250.695 420.499 250.904 419.514 251.32 418.662C251.742 417.81 252.329 417.144 253.082 416.666C253.839 416.188 254.725 415.949 255.738 415.949C256.353 415.949 256.95 416.051 257.528 416.254C258.105 416.458 258.624 416.777 259.083 417.213C259.542 417.649 259.905 418.214 260.17 418.911C260.435 419.602 260.567 420.442 260.567 421.432V422.185H251.896V420.594H258.487C258.487 420.035 258.373 419.54 258.146 419.109C257.918 418.674 257.599 418.33 257.187 418.08C256.78 417.829 256.301 417.703 255.752 417.703C255.156 417.703 254.635 417.85 254.19 418.143C253.749 418.432 253.408 418.811 253.167 419.28C252.93 419.744 252.812 420.248 252.812 420.793V422.036C252.812 422.765 252.94 423.385 253.195 423.896C253.456 424.408 253.818 424.798 254.282 425.068C254.746 425.333 255.288 425.466 255.908 425.466C256.311 425.466 256.678 425.409 257.009 425.295C257.341 425.177 257.627 425.002 257.869 424.77C258.11 424.538 258.295 424.251 258.423 423.911L260.433 424.273C260.272 424.865 259.983 425.383 259.566 425.828C259.154 426.268 258.636 426.612 258.011 426.858C257.39 427.099 256.683 427.22 255.887 427.22ZM270.317 420.629V422.469H264.408V420.629H270.317ZM265.005 416.091V427H262.924V416.091H265.005ZM271.801 416.091V427H269.728V416.091H271.801ZM276.723 424.024L281.532 416.091H283.819V427H281.738V419.06L276.951 427H274.642V416.091H276.723V424.024ZM291.375 427.22C290.301 427.22 289.375 426.991 288.598 426.531C287.827 426.067 287.23 425.416 286.809 424.578C286.392 423.735 286.184 422.748 286.184 421.616C286.184 420.499 286.392 419.514 286.809 418.662C287.23 417.81 287.817 417.144 288.57 416.666C289.328 416.188 290.213 415.949 291.226 415.949C291.842 415.949 292.438 416.051 293.016 416.254C293.594 416.458 294.112 416.777 294.571 417.213C295.031 417.649 295.393 418.214 295.658 418.911C295.923 419.602 296.056 420.442 296.056 421.432V422.185H287.384V420.594H293.975C293.975 420.035 293.861 419.54 293.634 419.109C293.407 418.674 293.087 418.33 292.675 418.08C292.268 417.829 291.79 417.703 291.24 417.703C290.644 417.703 290.123 417.85 289.678 418.143C289.238 418.432 288.897 418.811 288.655 419.28C288.418 419.744 288.3 420.248 288.3 420.793V422.036C288.3 422.765 288.428 423.385 288.684 423.896C288.944 424.408 289.306 424.798 289.77 425.068C290.234 425.333 290.776 425.466 291.397 425.466C291.799 425.466 292.166 425.409 292.498 425.295C292.829 425.177 293.115 425.002 293.357 424.77C293.598 424.538 293.783 424.251 293.911 423.911L295.921 424.273C295.76 424.865 295.471 425.383 295.054 425.828C294.642 426.268 294.124 426.612 293.499 426.858C292.879 427.099 292.171 427.22 291.375 427.22Z" fill="white"/>
<path d="M907.5 412V419H914.5V421H907.5V428H905.5V421H898.5V419H905.5V412H907.5Z" fill="white"/>
</g>
<defs>
<clipPath id="clip0_346_1456">
<rect width="918" height="480" fill="white" transform="translate(0.5)"/>
</clipPath>
</defs>
</svg>
