<svg width="509" height="43" viewBox="0 0 509 43" fill="none" xmlns="http://www.w3.org/2000/svg">
<g style="mix-blend-mode:difference" filter="url(#filter0_b_268_1199)">
<rect width="509" height="43" rx="12" fill="white" fill-opacity="0.2"/>
<g style="mix-blend-mode:exclusion">
<path d="M22.1023 27.1591V25.6136H22.8011C23.0928 25.6136 23.3333 25.5644 23.5227 25.4659C23.7159 25.3674 23.8731 25.2348 23.9943 25.0682C24.1193 24.8977 24.2235 24.7121 24.3068 24.5114L24.4716 24.0966L20.3807 15.3636H22.2443L25.2955 22.0909L28.0114 15.3636H29.8523L25.8295 24.983C25.6591 25.3693 25.4621 25.7273 25.2386 26.0568C25.0189 26.3864 24.7254 26.6534 24.358 26.858C23.9905 27.0587 23.5038 27.1591 22.8977 27.1591H22.1023ZM33.6151 27.1761C32.7704 27.1761 32.0431 26.9848 31.4332 26.6023C30.8272 26.2159 30.3613 25.6837 30.0355 25.0057C29.7098 24.3277 29.5469 23.5511 29.5469 22.6761C29.5469 21.7898 29.7135 21.0076 30.0469 20.3295C30.3802 19.6477 30.8499 19.1155 31.456 18.733C32.062 18.3504 32.776 18.1591 33.598 18.1591C34.2609 18.1591 34.8518 18.2822 35.3707 18.5284C35.8897 18.7708 36.3082 19.1117 36.6264 19.5511C36.9484 19.9905 37.1397 20.5038 37.2003 21.0909H35.5469C35.456 20.6818 35.2476 20.3295 34.9219 20.0341C34.5999 19.7386 34.1681 19.5909 33.6264 19.5909C33.1529 19.5909 32.7382 19.7159 32.3821 19.9659C32.0298 20.2121 31.7552 20.5644 31.5582 21.0227C31.3613 21.4773 31.2628 22.0152 31.2628 22.6364C31.2628 23.2727 31.3594 23.822 31.5526 24.2841C31.7457 24.7462 32.0185 25.1042 32.3707 25.358C32.7268 25.6117 33.1454 25.7386 33.6264 25.7386C33.9484 25.7386 34.2401 25.6799 34.5014 25.5625C34.7666 25.4413 34.9882 25.2689 35.1662 25.0455C35.348 24.822 35.4749 24.553 35.5469 24.2386H37.2003C37.1397 24.803 36.956 25.3068 36.6491 25.75C36.3423 26.1932 35.9313 26.5417 35.4162 26.7955C34.9048 27.0492 34.3045 27.1761 33.6151 27.1761ZM38.3295 27L38.3239 25.5284H38.6364C38.8788 25.5284 39.0814 25.4773 39.2443 25.375C39.411 25.2689 39.5473 25.0909 39.6534 24.8409C39.7595 24.5909 39.8409 24.2462 39.8977 23.8068C39.9545 23.3636 39.9962 22.8068 40.0227 22.1364L40.1761 18.2727H46.267V27H44.6023V19.7386H41.75L41.6136 22.7045C41.5795 23.4242 41.5057 24.053 41.392 24.5909C41.2822 25.1288 41.1212 25.5777 40.9091 25.9375C40.697 26.2936 40.4242 26.5606 40.0909 26.7386C39.7576 26.9129 39.3523 27 38.875 27H38.3295ZM49.294 30.2727C49.0402 30.2727 48.8092 30.2519 48.6009 30.2102C48.3925 30.1723 48.2372 30.1307 48.1349 30.0852L48.544 28.6932C48.8546 28.7765 49.1312 28.8125 49.3736 28.8011C49.616 28.7898 49.83 28.6989 50.0156 28.5284C50.205 28.358 50.3717 28.0795 50.5156 27.6932L50.7259 27.1136L47.5327 18.2727H49.3509L51.5611 25.0455H51.652L53.8622 18.2727H55.6861L52.0895 28.1648C51.9228 28.6193 51.7107 29.0038 51.4531 29.3182C51.1955 29.6364 50.8887 29.875 50.5327 30.0341C50.1766 30.1932 49.7637 30.2727 49.294 30.2727ZM62.8622 18.2727V19.7386H58.9588V27H57.2827V18.2727H62.8622ZM66.3224 24.6193L70.169 18.2727H71.9986V27H70.3338V20.6477L66.5043 27H64.6577V18.2727H66.3224V24.6193Z" fill="white"/>
</g>
<g style="mix-blend-mode:exclusion">
<path d="M116.375 15.3636V27H114.625V16.8636H109.148V27H107.398V15.3636H116.375ZM118.923 30.2727V18.2727H120.582V19.6875H120.724C120.823 19.5057 120.965 19.2955 121.151 19.0568C121.336 18.8182 121.594 18.6098 121.923 18.4318C122.253 18.25 122.688 18.1591 123.23 18.1591C123.935 18.1591 124.563 18.3371 125.116 18.6932C125.67 19.0492 126.103 19.5625 126.418 20.233C126.736 20.9034 126.895 21.7102 126.895 22.6534C126.895 23.5966 126.738 24.4053 126.423 25.0795C126.109 25.75 125.677 26.267 125.128 26.6307C124.579 26.9905 123.952 27.1705 123.247 27.1705C122.717 27.1705 122.283 27.0814 121.946 26.9034C121.613 26.7254 121.351 26.517 121.162 26.2784C120.973 26.0398 120.827 25.8277 120.724 25.642H120.622V30.2727H118.923ZM120.588 22.6364C120.588 23.25 120.677 23.7879 120.855 24.25C121.033 24.7121 121.291 25.0739 121.628 25.3352C121.965 25.5928 122.378 25.7216 122.866 25.7216C123.374 25.7216 123.798 25.5871 124.139 25.3182C124.48 25.0455 124.738 24.6761 124.912 24.2102C125.09 23.7443 125.179 23.2197 125.179 22.6364C125.179 22.0606 125.092 21.5436 124.918 21.0852C124.747 20.6269 124.49 20.2652 124.145 20C123.804 19.7348 123.378 19.6023 122.866 19.6023C122.374 19.6023 121.957 19.7292 121.616 19.983C121.279 20.2367 121.024 20.5909 120.849 21.0455C120.675 21.5 120.588 22.0303 120.588 22.6364ZM132.474 27.1761C131.656 27.1761 130.942 26.9886 130.332 26.6136C129.723 26.2386 129.249 25.714 128.912 25.0398C128.575 24.3655 128.406 23.5777 128.406 22.6761C128.406 21.7708 128.575 20.9792 128.912 20.3011C129.249 19.6231 129.723 19.0966 130.332 18.7216C130.942 18.3466 131.656 18.1591 132.474 18.1591C133.293 18.1591 134.007 18.3466 134.616 18.7216C135.226 19.0966 135.7 19.6231 136.037 20.3011C136.374 20.9792 136.543 21.7708 136.543 22.6761C136.543 23.5777 136.374 24.3655 136.037 25.0398C135.7 25.714 135.226 26.2386 134.616 26.6136C134.007 26.9886 133.293 27.1761 132.474 27.1761ZM132.48 25.75C133.01 25.75 133.45 25.6098 133.798 25.3295C134.147 25.0492 134.404 24.6761 134.571 24.2102C134.741 23.7443 134.827 23.2311 134.827 22.6705C134.827 22.1136 134.741 21.6023 134.571 21.1364C134.404 20.6667 134.147 20.2898 133.798 20.0057C133.45 19.7216 133.01 19.5795 132.48 19.5795C131.946 19.5795 131.503 19.7216 131.151 20.0057C130.802 20.2898 130.543 20.6667 130.372 21.1364C130.205 21.6023 130.122 22.1136 130.122 22.6705C130.122 23.2311 130.205 23.7443 130.372 24.2102C130.543 24.6761 130.802 25.0492 131.151 25.3295C131.503 25.6098 131.946 25.75 132.48 25.75ZM145.558 18.2727V25.608H146.837V29.8125H145.161V27H138.439V18.2727H140.104V25.5341H143.899V18.2727H145.558ZM152.388 27.1761C151.528 27.1761 150.787 26.9924 150.166 26.625C149.549 26.2538 149.071 25.733 148.734 25.0625C148.401 24.3883 148.234 23.5985 148.234 22.6932C148.234 21.7992 148.401 21.0114 148.734 20.3295C149.071 19.6477 149.541 19.1155 150.143 18.733C150.75 18.3504 151.458 18.1591 152.268 18.1591C152.761 18.1591 153.238 18.2405 153.7 18.4034C154.162 18.5663 154.577 18.822 154.945 19.1705C155.312 19.5189 155.602 19.9716 155.814 20.5284C156.026 21.0814 156.132 21.7538 156.132 22.5455V23.1477H149.195V21.875H154.467C154.467 21.428 154.376 21.0322 154.195 20.6875C154.013 20.339 153.757 20.0644 153.428 19.8636C153.102 19.6629 152.719 19.5625 152.28 19.5625C151.803 19.5625 151.386 19.6799 151.03 19.9148C150.678 20.1458 150.405 20.4489 150.212 20.8239C150.022 21.1951 149.928 21.5985 149.928 22.0341V23.0284C149.928 23.6117 150.03 24.108 150.234 24.517C150.443 24.9261 150.732 25.2386 151.104 25.4545C151.475 25.6667 151.909 25.7727 152.405 25.7727C152.727 25.7727 153.02 25.7273 153.286 25.6364C153.551 25.5417 153.78 25.4015 153.973 25.2159C154.166 25.0303 154.314 24.8011 154.416 24.5284L156.024 24.8182C155.895 25.2917 155.664 25.7064 155.331 26.0625C155.001 26.4148 154.587 26.6894 154.087 26.8864C153.59 27.0795 153.024 27.1761 152.388 27.1761ZM161.693 27.1761C160.848 27.1761 160.121 26.9848 159.511 26.6023C158.905 26.2159 158.439 25.6837 158.114 25.0057C157.788 24.3277 157.625 23.5511 157.625 22.6761C157.625 21.7898 157.792 21.0076 158.125 20.3295C158.458 19.6477 158.928 19.1155 159.534 18.733C160.14 18.3504 160.854 18.1591 161.676 18.1591C162.339 18.1591 162.93 18.2822 163.449 18.5284C163.968 18.7708 164.386 19.1117 164.705 19.5511C165.027 19.9905 165.218 20.5038 165.278 21.0909H163.625C163.534 20.6818 163.326 20.3295 163 20.0341C162.678 19.7386 162.246 19.5909 161.705 19.5909C161.231 19.5909 160.816 19.7159 160.46 19.9659C160.108 20.2121 159.833 20.5644 159.636 21.0227C159.439 21.4773 159.341 22.0152 159.341 22.6364C159.341 23.2727 159.438 23.822 159.631 24.2841C159.824 24.7462 160.097 25.1042 160.449 25.358C160.805 25.6117 161.223 25.7386 161.705 25.7386C162.027 25.7386 162.318 25.6799 162.58 25.5625C162.845 25.4413 163.066 25.2689 163.244 25.0455C163.426 24.822 163.553 24.553 163.625 24.2386H165.278C165.218 24.803 165.034 25.3068 164.727 25.75C164.42 26.1932 164.009 26.5417 163.494 26.7955C162.983 27.0492 162.383 27.1761 161.693 27.1761ZM170.771 27.1761C169.927 27.1761 169.199 26.9848 168.589 26.6023C167.983 26.2159 167.518 25.6837 167.192 25.0057C166.866 24.3277 166.703 23.5511 166.703 22.6761C166.703 21.7898 166.87 21.0076 167.203 20.3295C167.536 19.6477 168.006 19.1155 168.612 18.733C169.218 18.3504 169.932 18.1591 170.754 18.1591C171.417 18.1591 172.008 18.2822 172.527 18.5284C173.046 18.7708 173.464 19.1117 173.783 19.5511C174.105 19.9905 174.296 20.5038 174.357 21.0909H172.703C172.612 20.6818 172.404 20.3295 172.078 20.0341C171.756 19.7386 171.324 19.5909 170.783 19.5909C170.309 19.5909 169.894 19.7159 169.538 19.9659C169.186 20.2121 168.911 20.5644 168.714 21.0227C168.518 21.4773 168.419 22.0152 168.419 22.6364C168.419 23.2727 168.516 23.822 168.709 24.2841C168.902 24.7462 169.175 25.1042 169.527 25.358C169.883 25.6117 170.302 25.7386 170.783 25.7386C171.105 25.7386 171.396 25.6799 171.658 25.5625C171.923 25.4413 172.144 25.2689 172.322 25.0455C172.504 24.822 172.631 24.553 172.703 24.2386H174.357C174.296 24.803 174.112 25.3068 173.805 25.75C173.499 26.1932 173.088 26.5417 172.572 26.7955C172.061 27.0492 171.461 27.1761 170.771 27.1761Z" fill="white"/>
</g>
<g style="mix-blend-mode:exclusion">
<path d="M218.375 15.3636V27H216.625V16.8636H211.148V27H209.398V15.3636H218.375ZM220.923 30.2727V18.2727H222.582V19.6875H222.724C222.823 19.5057 222.965 19.2955 223.151 19.0568C223.336 18.8182 223.594 18.6098 223.923 18.4318C224.253 18.25 224.688 18.1591 225.23 18.1591C225.935 18.1591 226.563 18.3371 227.116 18.6932C227.67 19.0492 228.103 19.5625 228.418 20.233C228.736 20.9034 228.895 21.7102 228.895 22.6534C228.895 23.5966 228.738 24.4053 228.423 25.0795C228.109 25.75 227.677 26.267 227.128 26.6307C226.579 26.9905 225.952 27.1705 225.247 27.1705C224.717 27.1705 224.283 27.0814 223.946 26.9034C223.613 26.7254 223.351 26.517 223.162 26.2784C222.973 26.0398 222.827 25.8277 222.724 25.642H222.622V30.2727H220.923ZM222.588 22.6364C222.588 23.25 222.677 23.7879 222.855 24.25C223.033 24.7121 223.291 25.0739 223.628 25.3352C223.965 25.5928 224.378 25.7216 224.866 25.7216C225.374 25.7216 225.798 25.5871 226.139 25.3182C226.48 25.0455 226.738 24.6761 226.912 24.2102C227.09 23.7443 227.179 23.2197 227.179 22.6364C227.179 22.0606 227.092 21.5436 226.918 21.0852C226.747 20.6269 226.49 20.2652 226.145 20C225.804 19.7348 225.378 19.6023 224.866 19.6023C224.374 19.6023 223.957 19.7292 223.616 19.983C223.279 20.2367 223.024 20.5909 222.849 21.0455C222.675 21.5 222.588 22.0303 222.588 22.6364ZM234.474 27.1761C233.656 27.1761 232.942 26.9886 232.332 26.6136C231.723 26.2386 231.249 25.714 230.912 25.0398C230.575 24.3655 230.406 23.5777 230.406 22.6761C230.406 21.7708 230.575 20.9792 230.912 20.3011C231.249 19.6231 231.723 19.0966 232.332 18.7216C232.942 18.3466 233.656 18.1591 234.474 18.1591C235.293 18.1591 236.007 18.3466 236.616 18.7216C237.226 19.0966 237.7 19.6231 238.037 20.3011C238.374 20.9792 238.543 21.7708 238.543 22.6761C238.543 23.5777 238.374 24.3655 238.037 25.0398C237.7 25.714 237.226 26.2386 236.616 26.6136C236.007 26.9886 235.293 27.1761 234.474 27.1761ZM234.48 25.75C235.01 25.75 235.45 25.6098 235.798 25.3295C236.147 25.0492 236.404 24.6761 236.571 24.2102C236.741 23.7443 236.827 23.2311 236.827 22.6705C236.827 22.1136 236.741 21.6023 236.571 21.1364C236.404 20.6667 236.147 20.2898 235.798 20.0057C235.45 19.7216 235.01 19.5795 234.48 19.5795C233.946 19.5795 233.503 19.7216 233.151 20.0057C232.802 20.2898 232.543 20.6667 232.372 21.1364C232.205 21.6023 232.122 22.1136 232.122 22.6705C232.122 23.2311 232.205 23.7443 232.372 24.2102C232.543 24.6761 232.802 25.0492 233.151 25.3295C233.503 25.6098 233.946 25.75 234.48 25.75ZM244.2 27.1761C243.34 27.1761 242.6 26.9924 241.979 26.625C241.361 26.2538 240.884 25.733 240.547 25.0625C240.214 24.3883 240.047 23.5985 240.047 22.6932C240.047 21.7992 240.214 21.0114 240.547 20.3295C240.884 19.6477 241.354 19.1155 241.956 18.733C242.562 18.3504 243.27 18.1591 244.081 18.1591C244.573 18.1591 245.051 18.2405 245.513 18.4034C245.975 18.5663 246.39 18.822 246.757 19.1705C247.125 19.5189 247.414 19.9716 247.626 20.5284C247.839 21.0814 247.945 21.7538 247.945 22.5455V23.1477H241.007V21.875H246.28C246.28 21.428 246.189 21.0322 246.007 20.6875C245.825 20.339 245.57 20.0644 245.24 19.8636C244.914 19.6629 244.532 19.5625 244.092 19.5625C243.615 19.5625 243.198 19.6799 242.842 19.9148C242.49 20.1458 242.217 20.4489 242.024 20.8239C241.835 21.1951 241.74 21.5985 241.74 22.0341V23.0284C241.74 23.6117 241.842 24.108 242.047 24.517C242.255 24.9261 242.545 25.2386 242.916 25.4545C243.287 25.6667 243.721 25.7727 244.217 25.7727C244.539 25.7727 244.833 25.7273 245.098 25.6364C245.363 25.5417 245.592 25.4015 245.786 25.2159C245.979 25.0303 246.126 24.8011 246.229 24.5284L247.837 24.8182C247.708 25.2917 247.477 25.7064 247.143 26.0625C246.814 26.4148 246.399 26.6894 245.899 26.8864C245.403 27.0795 244.837 27.1761 244.2 27.1761ZM249.83 27V18.2727H251.528V21.9318H252.347L255.227 18.2727H257.33L253.949 22.517L257.369 27H255.261L252.631 23.5114H251.528V27H249.83ZM258.2 19.7386V18.2727H265.564V19.7386H262.717V27H261.058V19.7386H258.2ZM268.639 21.2727H271.173C272.241 21.2727 273.063 21.5379 273.639 22.0682C274.215 22.5985 274.503 23.2822 274.503 24.1193C274.503 24.6648 274.374 25.1553 274.116 25.5909C273.859 26.0265 273.482 26.3712 272.986 26.625C272.49 26.875 271.885 27 271.173 27H267.361V18.2727H269.026V25.5341H271.173C271.662 25.5341 272.063 25.4072 272.378 25.1534C272.692 24.8958 272.849 24.5682 272.849 24.1705C272.849 23.75 272.692 23.4072 272.378 23.142C272.063 22.8731 271.662 22.7386 271.173 22.7386H268.639V21.2727ZM275.741 27V18.2727H277.44V27H275.741Z" fill="white"/>
</g>
<g style="mix-blend-mode:exclusion">
<path d="M319.182 27L315.273 21.7841H314.034V27H312.278V15.3636H314.034V20.2784H314.608L319.006 15.3636H321.148L316.494 20.5739L321.324 27H319.182ZM325.849 27.1761C325.031 27.1761 324.317 26.9886 323.707 26.6136C323.098 26.2386 322.624 25.714 322.287 25.0398C321.95 24.3655 321.781 23.5777 321.781 22.6761C321.781 21.7708 321.95 20.9792 322.287 20.3011C322.624 19.6231 323.098 19.0966 323.707 18.7216C324.317 18.3466 325.031 18.1591 325.849 18.1591C326.668 18.1591 327.382 18.3466 327.991 18.7216C328.601 19.0966 329.075 19.6231 329.412 20.3011C329.749 20.9792 329.918 21.7708 329.918 22.6761C329.918 23.5777 329.749 24.3655 329.412 25.0398C329.075 25.714 328.601 26.2386 327.991 26.6136C327.382 26.9886 326.668 27.1761 325.849 27.1761ZM325.855 25.75C326.385 25.75 326.825 25.6098 327.173 25.3295C327.522 25.0492 327.779 24.6761 327.946 24.2102C328.116 23.7443 328.202 23.2311 328.202 22.6705C328.202 22.1136 328.116 21.6023 327.946 21.1364C327.779 20.6667 327.522 20.2898 327.173 20.0057C326.825 19.7216 326.385 19.5795 325.855 19.5795C325.321 19.5795 324.878 19.7216 324.526 20.0057C324.177 20.2898 323.918 20.6667 323.747 21.1364C323.58 21.6023 323.497 22.1136 323.497 22.6705C323.497 23.2311 323.58 23.7443 323.747 24.2102C323.918 24.6761 324.177 25.0492 324.526 25.3295C324.878 25.6098 325.321 25.75 325.855 25.75ZM336.712 24.8977L339.53 18.2727H340.996L337.342 27H336.081L332.501 18.2727H333.95L336.712 24.8977ZM333.479 18.2727V27H331.814V18.2727H333.479ZM339.99 27V18.2727H341.643V27H339.99ZM346.447 27.1932C345.894 27.1932 345.394 27.0909 344.947 26.8864C344.5 26.678 344.146 26.3769 343.885 25.983C343.627 25.589 343.499 25.1061 343.499 24.5341C343.499 24.0417 343.593 23.6364 343.783 23.3182C343.972 23 344.228 22.7481 344.55 22.5625C344.872 22.3769 345.232 22.2367 345.629 22.142C346.027 22.0473 346.432 21.9754 346.845 21.9261C347.368 21.8655 347.792 21.8163 348.118 21.7784C348.444 21.7367 348.68 21.6705 348.828 21.5795C348.976 21.4886 349.05 21.3409 349.05 21.1364V21.0966C349.05 20.6004 348.91 20.2159 348.629 19.9432C348.353 19.6705 347.94 19.5341 347.391 19.5341C346.819 19.5341 346.368 19.661 346.038 19.9148C345.713 20.1648 345.487 20.4432 345.362 20.75L343.766 20.3864C343.955 19.8561 344.232 19.428 344.595 19.1023C344.963 18.7727 345.385 18.5341 345.862 18.3864C346.339 18.2348 346.841 18.1591 347.368 18.1591C347.716 18.1591 348.086 18.2008 348.476 18.2841C348.87 18.3636 349.237 18.5114 349.578 18.7273C349.923 18.9432 350.205 19.2519 350.425 19.6534C350.644 20.0511 350.754 20.5682 350.754 21.2045V27H349.095V25.8068H349.027C348.917 26.0265 348.752 26.2424 348.533 26.4545C348.313 26.6667 348.031 26.8428 347.686 26.983C347.341 27.1231 346.929 27.1932 346.447 27.1932ZM346.817 25.8295C347.286 25.8295 347.688 25.7367 348.021 25.5511C348.358 25.3655 348.614 25.1231 348.788 24.8239C348.966 24.5208 349.055 24.197 349.055 23.8523V22.7273C348.995 22.7879 348.877 22.8447 348.703 22.8977C348.533 22.947 348.338 22.9905 348.118 23.0284C347.898 23.0625 347.684 23.0947 347.476 23.125C347.268 23.1515 347.093 23.1742 346.953 23.1932C346.624 23.2348 346.322 23.3049 346.05 23.4034C345.781 23.5019 345.565 23.6439 345.402 23.8295C345.243 24.0114 345.163 24.2538 345.163 24.5568C345.163 24.9773 345.319 25.2955 345.629 25.5114C345.94 25.7235 346.336 25.8295 346.817 25.8295ZM358.932 21.9034V23.375H354.205V21.9034H358.932ZM354.682 18.2727V27H353.017V18.2727H354.682ZM360.119 18.2727V27H358.46V18.2727H360.119ZM361.54 29.517V25.5284H362.25C362.432 25.3617 362.585 25.1629 362.71 24.9318C362.839 24.7008 362.947 24.4261 363.034 24.108C363.125 23.7898 363.201 23.4186 363.261 22.9943C363.322 22.5663 363.375 22.0777 363.42 21.5284L363.693 18.2727H369.625V25.5284H370.966V29.517H369.307V27H363.222V29.517H361.54ZM364.068 25.5284H367.966V19.7273H365.216L365.034 21.5284C364.947 22.4451 364.837 23.2405 364.705 23.9148C364.572 24.5852 364.36 25.1231 364.068 25.5284ZM375.166 27.1932C374.613 27.1932 374.113 27.0909 373.666 26.8864C373.219 26.678 372.865 26.3769 372.604 25.983C372.346 25.589 372.217 25.1061 372.217 24.5341C372.217 24.0417 372.312 23.6364 372.501 23.3182C372.691 23 372.946 22.7481 373.268 22.5625C373.59 22.3769 373.95 22.2367 374.348 22.142C374.746 22.0473 375.151 21.9754 375.564 21.9261C376.087 21.8655 376.511 21.8163 376.837 21.7784C377.162 21.7367 377.399 21.6705 377.547 21.5795C377.695 21.4886 377.768 21.3409 377.768 21.1364V21.0966C377.768 20.6004 377.628 20.2159 377.348 19.9432C377.071 19.6705 376.659 19.5341 376.109 19.5341C375.537 19.5341 375.087 19.661 374.757 19.9148C374.431 20.1648 374.206 20.4432 374.081 20.75L372.484 20.3864C372.674 19.8561 372.95 19.428 373.314 19.1023C373.681 18.7727 374.104 18.5341 374.581 18.3864C375.058 18.2348 375.56 18.1591 376.087 18.1591C376.435 18.1591 376.804 18.2008 377.195 18.2841C377.589 18.3636 377.956 18.5114 378.297 18.7273C378.642 18.9432 378.924 19.2519 379.143 19.6534C379.363 20.0511 379.473 20.5682 379.473 21.2045V27H377.814V25.8068H377.746C377.636 26.0265 377.471 26.2424 377.251 26.4545C377.032 26.6667 376.75 26.8428 376.405 26.983C376.06 27.1231 375.647 27.1932 375.166 27.1932ZM375.536 25.8295C376.005 25.8295 376.407 25.7367 376.74 25.5511C377.077 25.3655 377.333 25.1231 377.507 24.8239C377.685 24.5208 377.774 24.197 377.774 23.8523V22.7273C377.714 22.7879 377.596 22.8447 377.422 22.8977C377.251 22.947 377.056 22.9905 376.837 23.0284C376.617 23.0625 376.403 23.0947 376.195 23.125C375.986 23.1515 375.812 23.1742 375.672 23.1932C375.342 23.2348 375.041 23.3049 374.768 23.4034C374.5 23.5019 374.284 23.6439 374.121 23.8295C373.962 24.0114 373.882 24.2538 373.882 24.5568C373.882 24.9773 374.037 25.2955 374.348 25.5114C374.659 25.7235 375.054 25.8295 375.536 25.8295Z" fill="white"/>
</g>
<g style="mix-blend-mode:exclusion">
<path d="M421.182 27L417.273 21.7841H416.034V27H414.278V15.3636H416.034V20.2784H416.608L421.006 15.3636H423.148L418.494 20.5739L423.324 27H421.182ZM427.849 27.1761C427.031 27.1761 426.317 26.9886 425.707 26.6136C425.098 26.2386 424.624 25.714 424.287 25.0398C423.95 24.3655 423.781 23.5777 423.781 22.6761C423.781 21.7708 423.95 20.9792 424.287 20.3011C424.624 19.6231 425.098 19.0966 425.707 18.7216C426.317 18.3466 427.031 18.1591 427.849 18.1591C428.668 18.1591 429.382 18.3466 429.991 18.7216C430.601 19.0966 431.075 19.6231 431.412 20.3011C431.749 20.9792 431.918 21.7708 431.918 22.6761C431.918 23.5777 431.749 24.3655 431.412 25.0398C431.075 25.714 430.601 26.2386 429.991 26.6136C429.382 26.9886 428.668 27.1761 427.849 27.1761ZM427.855 25.75C428.385 25.75 428.825 25.6098 429.173 25.3295C429.522 25.0492 429.779 24.6761 429.946 24.2102C430.116 23.7443 430.202 23.2311 430.202 22.6705C430.202 22.1136 430.116 21.6023 429.946 21.1364C429.779 20.6667 429.522 20.2898 429.173 20.0057C428.825 19.7216 428.385 19.5795 427.855 19.5795C427.321 19.5795 426.878 19.7216 426.526 20.0057C426.177 20.2898 425.918 20.6667 425.747 21.1364C425.58 21.6023 425.497 22.1136 425.497 22.6705C425.497 23.2311 425.58 23.7443 425.747 24.2102C425.918 24.6761 426.177 25.0492 426.526 25.3295C426.878 25.6098 427.321 25.75 427.855 25.75ZM439.729 21.9034V23.375H435.001V21.9034H439.729ZM435.479 18.2727V27H433.814V18.2727H435.479ZM440.916 18.2727V27H439.257V18.2727H440.916ZM442.107 19.7386V18.2727H449.47V19.7386H446.624V27H444.964V19.7386H442.107ZM453.401 27.1932C452.848 27.1932 452.348 27.0909 451.901 26.8864C451.454 26.678 451.099 26.3769 450.838 25.983C450.58 25.589 450.452 25.1061 450.452 24.5341C450.452 24.0417 450.546 23.6364 450.736 23.3182C450.925 23 451.181 22.7481 451.503 22.5625C451.825 22.3769 452.185 22.2367 452.582 22.142C452.98 22.0473 453.385 21.9754 453.798 21.9261C454.321 21.8655 454.745 21.8163 455.071 21.7784C455.397 21.7367 455.634 21.6705 455.781 21.5795C455.929 21.4886 456.003 21.3409 456.003 21.1364V21.0966C456.003 20.6004 455.863 20.2159 455.582 19.9432C455.306 19.6705 454.893 19.5341 454.344 19.5341C453.772 19.5341 453.321 19.661 452.991 19.9148C452.666 20.1648 452.44 20.4432 452.315 20.75L450.719 20.3864C450.908 19.8561 451.185 19.428 451.548 19.1023C451.916 18.7727 452.338 18.5341 452.815 18.3864C453.293 18.2348 453.795 18.1591 454.321 18.1591C454.67 18.1591 455.039 18.2008 455.429 18.2841C455.823 18.3636 456.19 18.5114 456.531 18.7273C456.876 18.9432 457.158 19.2519 457.378 19.6534C457.598 20.0511 457.707 20.5682 457.707 21.2045V27H456.048V25.8068H455.98C455.87 26.0265 455.705 26.2424 455.486 26.4545C455.266 26.6667 454.984 26.8428 454.639 26.983C454.295 27.1231 453.882 27.1932 453.401 27.1932ZM453.77 25.8295C454.24 25.8295 454.641 25.7367 454.974 25.5511C455.312 25.3655 455.567 25.1231 455.741 24.8239C455.92 24.5208 456.009 24.197 456.009 23.8523V22.7273C455.948 22.7879 455.83 22.8447 455.656 22.8977C455.486 22.947 455.291 22.9905 455.071 23.0284C454.851 23.0625 454.637 23.0947 454.429 23.125C454.221 23.1515 454.046 23.1742 453.906 23.1932C453.577 23.2348 453.276 23.3049 453.003 23.4034C452.734 23.5019 452.518 23.6439 452.355 23.8295C452.196 24.0114 452.116 24.2538 452.116 24.5568C452.116 24.9773 452.272 25.2955 452.582 25.5114C452.893 25.7235 453.289 25.8295 453.77 25.8295ZM459.97 27V18.2727H461.669V21.9318H462.487L465.368 18.2727H467.47L464.089 22.517L467.51 27H465.402L462.771 23.5114H461.669V27H459.97ZM468.341 19.7386V18.2727H475.705V19.7386H472.858V27H471.199V19.7386H468.341ZM478.78 21.2727H481.314C482.382 21.2727 483.204 21.5379 483.78 22.0682C484.356 22.5985 484.643 23.2822 484.643 24.1193C484.643 24.6648 484.515 25.1553 484.257 25.5909C484 26.0265 483.623 26.3712 483.126 26.625C482.63 26.875 482.026 27 481.314 27H477.501V18.2727H479.166V25.5341H481.314C481.803 25.5341 482.204 25.4072 482.518 25.1534C482.833 24.8958 482.99 24.5682 482.99 24.1705C482.99 23.75 482.833 23.4072 482.518 23.142C482.204 22.8731 481.803 22.7386 481.314 22.7386H478.78V21.2727ZM485.882 27V18.2727H487.581V27H485.882Z" fill="white"/>
</g>
</g>
<defs>
<filter id="filter0_b_268_1199" x="-40" y="-40" width="589" height="123" filterUnits="userSpaceOnUse" color-interpolation-filters="sRGB">
<feFlood flood-opacity="0" result="BackgroundImageFix"/>
<feGaussianBlur in="BackgroundImageFix" stdDeviation="20"/>
<feComposite in2="SourceAlpha" operator="in" result="effect1_backgroundBlur_268_1199"/>
<feBlend mode="normal" in="SourceGraphic" in2="effect1_backgroundBlur_268_1199" result="shape"/>
</filter>
</defs>
</svg>
