<svg width="478" height="80" viewBox="0 0 478 80" fill="none" xmlns="http://www.w3.org/2000/svg">
<path d="M0.950001 56V2H8.6L29.1 43.9L49.6 2H57.25V56H48.65V20.55L31.45 56H26.75L9.55 20.55V56H0.950001ZM83.5648 57.5C79.5315 57.5 76.1482 56.7667 73.4148 55.3C70.7148 53.8 68.6648 51.8333 67.2648 49.4C65.8982 46.9667 65.2148 44.3 65.2148 41.4C65.2148 38.5667 65.7482 36.1167 66.8148 34.05C67.9148 31.95 69.4482 30.2167 71.4148 28.85C73.3815 27.45 75.7315 26.35 78.4648 25.55C81.0315 24.85 83.8982 24.25 87.0648 23.75C90.2648 23.2167 93.4982 22.7333 96.7648 22.3C100.032 21.8667 103.082 21.45 105.915 21.05L102.715 22.9C102.815 18.1 101.848 14.55 99.8148 12.25C97.8148 9.95 94.3482 8.8 89.4148 8.8C86.1482 8.8 83.2815 9.55 80.8148 11.05C78.3815 12.5167 76.6648 14.9167 75.6648 18.25L67.2148 15.7C68.5148 10.9667 71.0315 7.25 74.7648 4.55C78.4982 1.85 83.4148 0.499999 89.5148 0.499999C94.4148 0.499999 98.6148 1.38333 102.115 3.15C105.648 4.88333 108.182 7.51667 109.715 11.05C110.482 12.7167 110.965 14.5333 111.165 16.5C111.365 18.4333 111.465 20.4667 111.465 22.6V56H103.565V43.05L105.415 44.25C103.382 48.6167 100.532 51.9167 96.8648 54.15C93.2315 56.3833 88.7982 57.5 83.5648 57.5ZM84.9148 50.05C88.1148 50.05 90.8815 49.4833 93.2148 48.35C95.5815 47.1833 97.4815 45.6667 98.9148 43.8C100.348 41.9 101.282 39.8333 101.715 37.6C102.215 35.9333 102.482 34.0833 102.515 32.05C102.582 29.9833 102.615 28.4 102.615 27.3L105.715 28.65C102.815 29.05 99.9648 29.4333 97.1648 29.8C94.3648 30.1667 91.7148 30.5667 89.2148 31C86.7148 31.4 84.4648 31.8833 82.4648 32.45C80.9982 32.9167 79.6148 33.5167 78.3148 34.25C77.0482 34.9833 76.0148 35.9333 75.2148 37.1C74.4482 38.2333 74.0648 39.65 74.0648 41.35C74.0648 42.8167 74.4315 44.2167 75.1648 45.55C75.9315 46.8833 77.0982 47.9667 78.6648 48.8C80.2648 49.6333 82.3482 50.05 84.9148 50.05ZM146.265 57.5C141.198 57.5 136.932 56.25 133.465 53.75C129.998 51.2167 127.365 47.8 125.565 43.5C123.798 39.1667 122.915 34.3167 122.915 28.95C122.915 23.5167 123.798 18.65 125.565 14.35C127.365 10.05 129.998 6.66666 133.465 4.2C136.965 1.73333 141.248 0.499999 146.315 0.499999C151.315 0.499999 155.615 1.75 159.215 4.25C162.848 6.71666 165.632 10.1 167.565 14.4C169.498 18.7 170.465 23.55 170.465 28.95C170.465 34.35 169.498 39.2 167.565 43.5C165.632 47.8 162.848 51.2167 159.215 53.75C155.615 56.25 151.298 57.5 146.265 57.5ZM121.415 80V2H129.365V41.75H130.365V80H121.415ZM145.165 49.35C148.732 49.35 151.682 48.45 154.015 46.65C156.348 44.85 158.098 42.4167 159.265 39.35C160.432 36.25 161.015 32.7833 161.015 28.95C161.015 25.15 160.432 21.7167 159.265 18.65C158.132 15.5833 156.365 13.15 153.965 11.35C151.598 9.55 148.582 8.65 144.915 8.65C141.415 8.65 138.515 9.51667 136.215 11.25C133.915 12.95 132.198 15.3333 131.065 18.4C129.932 21.4333 129.365 24.95 129.365 28.95C129.365 32.8833 129.915 36.4 131.015 39.5C132.148 42.5667 133.882 44.9833 136.215 46.75C138.548 48.4833 141.532 49.35 145.165 49.35ZM178.376 56L178.426 2H187.426V28L210.076 2H221.626L197.776 29L224.426 56H211.976L187.426 30V56H178.376ZM247.849 57.5C242.549 57.5 237.916 56.3333 233.949 54C230.016 51.6333 226.949 48.35 224.749 44.15C222.549 39.9167 221.449 34.9833 221.449 29.35C221.449 23.45 222.533 18.35 224.699 14.05C226.866 9.71666 229.883 6.38333 233.749 4.05C237.649 1.68333 242.216 0.499999 247.449 0.499999C252.883 0.499999 257.499 1.75 261.299 4.25C265.133 6.75 267.999 10.3167 269.899 14.95C271.833 19.5833 272.666 25.1 272.399 31.5H263.399V28.3C263.299 21.6667 261.949 16.7167 259.349 13.45C256.749 10.15 252.883 8.5 247.749 8.5C242.249 8.5 238.066 10.2667 235.199 13.8C232.333 17.3333 230.899 22.4 230.899 29C230.899 35.3667 232.333 40.3 235.199 43.8C238.066 47.3 242.149 49.05 247.449 49.05C251.016 49.05 254.116 48.2333 256.749 46.6C259.383 44.9667 261.449 42.6167 262.949 39.55L271.499 42.5C269.399 47.2667 266.233 50.9667 261.999 53.6C257.799 56.2 253.083 57.5 247.849 57.5ZM227.899 31.5V24.35H267.799V31.5H227.899ZM293.855 56V10.1H275.055V2H321.555V10.1H302.755V56H293.855ZM372.22 2V56H363.62V16.2L335.32 56H327.97V2H336.57V41.25L364.92 2H372.22ZM383.173 56V2H392.073V24.75H420.473V2H429.373V56H420.473V33.2H392.073V56H383.173ZM440.379 56V2H477.879V10.45H449.279V56H440.379Z" fill="white"/>
</svg>
