<svg width="1296" height="96" viewBox="0 0 1296 96" fill="none" xmlns="http://www.w3.org/2000/svg">
<path opacity="0.6" d="M944.091 22.3636L947.091 27.2045H947.182L950.182 22.3636H951.841L948.182 28.1818L951.841 34H950.182L947.182 29.25H947.091L944.091 34H942.432L946.182 28.1818L942.432 22.3636H944.091ZM956.585 34.1818C955.797 34.1818 955.106 33.9943 954.511 33.6193C953.92 33.2443 953.458 32.7197 953.125 32.0455C952.795 31.3712 952.631 30.5833 952.631 29.6818C952.631 28.7727 952.795 27.9792 953.125 27.3011C953.458 26.6231 953.92 26.0966 954.511 25.7216C955.106 25.3466 955.797 25.1591 956.585 25.1591C957.373 25.1591 958.063 25.3466 958.653 25.7216C959.248 26.0966 959.71 26.6231 960.04 27.3011C960.373 27.9792 960.54 28.7727 960.54 29.6818C960.54 30.5833 960.373 31.3712 960.04 32.0455C959.71 32.7197 959.248 33.2443 958.653 33.6193C958.063 33.9943 957.373 34.1818 956.585 34.1818ZM956.585 32.9773C957.184 32.9773 957.676 32.8239 958.062 32.517C958.449 32.2102 958.735 31.8068 958.92 31.3068C959.106 30.8068 959.199 30.2652 959.199 29.6818C959.199 29.0985 959.106 28.5549 958.92 28.0511C958.735 27.5473 958.449 27.1402 958.062 26.8295C957.676 26.5189 957.184 26.3636 956.585 26.3636C955.987 26.3636 955.494 26.5189 955.108 26.8295C954.722 27.1402 954.436 27.5473 954.25 28.0511C954.064 28.5549 953.972 29.0985 953.972 29.6818C953.972 30.2652 954.064 30.8068 954.25 31.3068C954.436 31.8068 954.722 32.2102 955.108 32.517C955.494 32.8239 955.987 32.9773 956.585 32.9773ZM962.587 37.2727V25.2727H963.882V26.6591H964.041C964.14 26.5076 964.276 26.3144 964.45 26.0795C964.628 25.8409 964.882 25.6288 965.212 25.4432C965.545 25.2538 965.996 25.1591 966.564 25.1591C967.299 25.1591 967.946 25.3428 968.507 25.7102C969.068 26.0777 969.505 26.5985 969.82 27.2727C970.134 27.947 970.291 28.7424 970.291 29.6591C970.291 30.5833 970.134 31.3845 969.82 32.0625C969.505 32.7367 969.07 33.2595 968.513 33.6307C967.956 33.9981 967.314 34.1818 966.587 34.1818C966.026 34.1818 965.577 34.089 965.24 33.9034C964.903 33.714 964.643 33.5 964.462 33.2614C964.28 33.0189 964.14 32.8182 964.041 32.6591H963.928V37.2727H962.587ZM963.905 29.6364C963.905 30.2955 964.001 30.8769 964.195 31.3807C964.388 31.8807 964.67 32.2727 965.041 32.5568C965.412 32.8371 965.867 32.9773 966.405 32.9773C966.965 32.9773 967.433 32.8295 967.808 32.5341C968.187 32.2348 968.471 31.8333 968.661 31.3295C968.854 30.822 968.95 30.2576 968.95 29.6364C968.95 29.0227 968.856 28.4697 968.666 27.9773C968.481 27.4811 968.198 27.089 967.82 26.8011C967.445 26.5095 966.973 26.3636 966.405 26.3636C965.859 26.3636 965.401 26.5019 965.03 26.7784C964.659 27.0511 964.378 27.4337 964.189 27.9261C964 28.4148 963.905 28.9848 963.905 29.6364ZM975.882 34.1818C975.094 34.1818 974.403 33.9943 973.808 33.6193C973.217 33.2443 972.755 32.7197 972.422 32.0455C972.092 31.3712 971.928 30.5833 971.928 29.6818C971.928 28.7727 972.092 27.9792 972.422 27.3011C972.755 26.6231 973.217 26.0966 973.808 25.7216C974.403 25.3466 975.094 25.1591 975.882 25.1591C976.67 25.1591 977.359 25.3466 977.95 25.7216C978.545 26.0966 979.007 26.6231 979.337 27.3011C979.67 27.9792 979.837 28.7727 979.837 29.6818C979.837 30.5833 979.67 31.3712 979.337 32.0455C979.007 32.7197 978.545 33.2443 977.95 33.6193C977.359 33.9943 976.67 34.1818 975.882 34.1818ZM975.882 32.9773C976.481 32.9773 976.973 32.8239 977.359 32.517C977.746 32.2102 978.032 31.8068 978.217 31.3068C978.403 30.8068 978.496 30.2652 978.496 29.6818C978.496 29.0985 978.403 28.5549 978.217 28.0511C978.032 27.5473 977.746 27.1402 977.359 26.8295C976.973 26.5189 976.481 26.3636 975.882 26.3636C975.284 26.3636 974.791 26.5189 974.405 26.8295C974.018 27.1402 973.732 27.5473 973.547 28.0511C973.361 28.5549 973.268 29.0985 973.268 29.6818C973.268 30.2652 973.361 30.8068 973.547 31.3068C973.732 31.8068 974.018 32.2102 974.405 32.517C974.791 32.8239 975.284 32.9773 975.882 32.9773ZM981.884 25.2727H983.224V32.75H986.52V25.2727H987.861V32.75H991.156V25.2727H992.497V34H981.884V25.2727ZM998.491 34.1818C997.704 34.1818 997.012 33.9943 996.418 33.6193C995.827 33.2443 995.365 32.7197 995.031 32.0455C994.702 31.3712 994.537 30.5833 994.537 29.6818C994.537 28.7727 994.702 27.9792 995.031 27.3011C995.365 26.6231 995.827 26.0966 996.418 25.7216C997.012 25.3466 997.704 25.1591 998.491 25.1591C999.279 25.1591 999.969 25.3466 1000.56 25.7216C1001.15 26.0966 1001.62 26.6231 1001.95 27.3011C1002.28 27.9792 1002.45 28.7727 1002.45 29.6818C1002.45 30.5833 1002.28 31.3712 1001.95 32.0455C1001.62 32.7197 1001.15 33.2443 1000.56 33.6193C999.969 33.9943 999.279 34.1818 998.491 34.1818ZM998.491 32.9773C999.09 32.9773 999.582 32.8239 999.969 32.517C1000.36 32.2102 1000.64 31.8068 1000.83 31.3068C1001.01 30.8068 1001.11 30.2652 1001.11 29.6818C1001.11 29.0985 1001.01 28.5549 1000.83 28.0511C1000.64 27.5473 1000.36 27.1402 999.969 26.8295C999.582 26.5189 999.09 26.3636 998.491 26.3636C997.893 26.3636 997.401 26.5189 997.014 26.8295C996.628 27.1402 996.342 27.5473 996.156 28.0511C995.971 28.5549 995.878 29.0985 995.878 29.6818C995.878 30.2652 995.971 30.8068 996.156 31.3068C996.342 31.8068 996.628 32.2102 997.014 32.517C997.401 32.8239 997.893 32.9773 998.491 32.9773ZM1012.54 34.1818C1011.72 34.1818 1011.02 33.9886 1010.42 33.6023C1009.83 33.2159 1009.38 32.6837 1009.06 32.0057C1008.74 31.3277 1008.58 30.553 1008.58 29.6818C1008.58 28.7955 1008.75 28.0133 1009.07 27.3352C1009.4 26.6534 1009.86 26.1212 1010.45 25.7386C1011.04 25.3523 1011.73 25.1591 1012.52 25.1591C1013.13 25.1591 1013.68 25.2727 1014.17 25.5C1014.67 25.7273 1015.07 26.0455 1015.38 26.4545C1015.7 26.8636 1015.89 27.3409 1015.97 27.8864H1014.63C1014.53 27.4886 1014.3 27.1364 1013.95 26.8295C1013.6 26.5189 1013.13 26.3636 1012.54 26.3636C1012.02 26.3636 1011.56 26.5 1011.16 26.7727C1010.77 27.0417 1010.47 27.4223 1010.25 27.9148C1010.03 28.4034 1009.92 28.9773 1009.92 29.6364C1009.92 30.3106 1010.03 30.8977 1010.24 31.3977C1010.46 31.8977 1010.76 32.286 1011.15 32.5625C1011.55 32.839 1012.01 32.9773 1012.54 32.9773C1012.89 32.9773 1013.2 32.9167 1013.49 32.7955C1013.77 32.6742 1014.01 32.5 1014.21 32.2727C1014.41 32.0455 1014.55 31.7727 1014.63 31.4545H1015.97C1015.89 31.9697 1015.71 32.4337 1015.41 32.8466C1015.11 33.2557 1014.72 33.5814 1014.23 33.8239C1013.75 34.0625 1013.18 34.1818 1012.54 34.1818ZM1017.93 34V25.2727H1024.79V34H1023.45V26.5227H1019.27V34H1017.93ZM1026.47 34V32.75H1026.79C1027.05 32.75 1027.27 32.6989 1027.44 32.5966C1027.62 32.4905 1027.76 32.3068 1027.86 32.0455C1027.97 31.7803 1028.06 31.4129 1028.11 30.9432C1028.17 30.4697 1028.22 29.8674 1028.24 29.1364L1028.4 25.2727H1034.22V34H1032.88V26.5227H1029.67L1029.54 29.6364C1029.51 30.3523 1029.44 30.983 1029.35 31.5284C1029.25 32.0701 1029.1 32.5246 1028.91 32.892C1028.71 33.2595 1028.46 33.536 1028.13 33.7216C1027.81 33.9072 1027.41 34 1026.92 34H1026.47ZM1039.25 34.2045C1038.7 34.2045 1038.19 34.1004 1037.74 33.892C1037.29 33.6799 1036.93 33.375 1036.67 32.9773C1036.4 32.5758 1036.27 32.0909 1036.27 31.5227C1036.27 31.0227 1036.37 30.6174 1036.57 30.3068C1036.76 29.9924 1037.03 29.7462 1037.36 29.5682C1037.69 29.3902 1038.05 29.2576 1038.45 29.1705C1038.85 29.0795 1039.25 29.0076 1039.66 28.9545C1040.19 28.8864 1040.62 28.8352 1040.95 28.8011C1041.28 28.7633 1041.52 28.7008 1041.67 28.6136C1041.83 28.5265 1041.91 28.375 1041.91 28.1591V28.1136C1041.91 27.553 1041.75 27.1174 1041.45 26.8068C1041.14 26.4962 1040.68 26.3409 1040.07 26.3409C1039.43 26.3409 1038.92 26.4811 1038.56 26.7614C1038.2 27.0417 1037.94 27.3409 1037.79 27.6591L1036.52 27.2045C1036.75 26.6742 1037.05 26.2614 1037.43 25.9659C1037.81 25.6667 1038.23 25.4583 1038.68 25.3409C1039.13 25.2197 1039.58 25.1591 1040.02 25.1591C1040.3 25.1591 1040.62 25.1932 1040.99 25.2614C1041.35 25.3258 1041.71 25.4602 1042.05 25.6648C1042.39 25.8693 1042.68 26.178 1042.91 26.5909C1043.13 27.0038 1043.25 27.5568 1043.25 28.25V34H1041.91V32.8182H1041.84C1041.75 33.0076 1041.6 33.2102 1041.38 33.4261C1041.17 33.642 1040.89 33.8258 1040.54 33.9773C1040.19 34.1288 1039.76 34.2045 1039.25 34.2045ZM1039.45 33C1039.98 33 1040.43 32.8958 1040.79 32.6875C1041.16 32.4792 1041.44 32.2102 1041.62 31.8807C1041.81 31.5511 1041.91 31.2045 1041.91 30.8409V29.6136C1041.85 29.6818 1041.73 29.7443 1041.53 29.8011C1041.34 29.8542 1041.12 29.9015 1040.87 29.9432C1040.63 29.9811 1040.39 30.0152 1040.15 30.0455C1039.92 30.072 1039.73 30.0947 1039.59 30.1136C1039.24 30.1591 1038.92 30.233 1038.61 30.3352C1038.31 30.4337 1038.07 30.5833 1037.88 30.7841C1037.7 30.9811 1037.61 31.25 1037.61 31.5909C1037.61 32.0568 1037.78 32.4091 1038.13 32.6477C1038.48 32.8826 1038.92 33 1039.45 33ZM1051.54 29.0227V30.2727H1046.72V29.0227H1051.54ZM1047.04 25.2727V34H1045.7V25.2727H1047.04ZM1052.56 25.2727V34H1051.22V25.2727H1052.56ZM1056.35 32.0227L1060.55 25.2727H1062.1V34H1060.76V27.25L1056.58 34H1055.01V25.2727H1056.35V32.0227ZM1064.56 37.2727V25.2727H1065.85V26.6591H1066.01C1066.11 26.5076 1066.24 26.3144 1066.42 26.0795C1066.6 25.8409 1066.85 25.6288 1067.18 25.4432C1067.51 25.2538 1067.96 25.1591 1068.53 25.1591C1069.27 25.1591 1069.92 25.3428 1070.48 25.7102C1071.04 26.0777 1071.47 26.5985 1071.79 27.2727C1072.1 27.947 1072.26 28.7424 1072.26 29.6591C1072.26 30.5833 1072.1 31.3845 1071.79 32.0625C1071.47 32.7367 1071.04 33.2595 1070.48 33.6307C1069.92 33.9981 1069.28 34.1818 1068.56 34.1818C1067.99 34.1818 1067.55 34.089 1067.21 33.9034C1066.87 33.714 1066.61 33.5 1066.43 33.2614C1066.25 33.0189 1066.11 32.8182 1066.01 32.6591H1065.9V37.2727H1064.56ZM1065.87 29.6364C1065.87 30.2955 1065.97 30.8769 1066.16 31.3807C1066.36 31.8807 1066.64 32.2727 1067.01 32.5568C1067.38 32.8371 1067.84 32.9773 1068.37 32.9773C1068.93 32.9773 1069.4 32.8295 1069.78 32.5341C1070.16 32.2348 1070.44 31.8333 1070.63 31.3295C1070.82 30.822 1070.92 30.2576 1070.92 29.6364C1070.92 29.0227 1070.82 28.4697 1070.63 27.9773C1070.45 27.4811 1070.17 27.089 1069.79 26.8011C1069.41 26.5095 1068.94 26.3636 1068.37 26.3636C1067.83 26.3636 1067.37 26.5019 1067 26.7784C1066.63 27.0511 1066.35 27.4337 1066.16 27.9261C1065.97 28.4148 1065.87 28.9848 1065.87 29.6364ZM1077.85 34.1818C1077.06 34.1818 1076.37 33.9943 1075.78 33.6193C1075.19 33.2443 1074.72 32.7197 1074.39 32.0455C1074.06 31.3712 1073.9 30.5833 1073.9 29.6818C1073.9 28.7727 1074.06 27.9792 1074.39 27.3011C1074.72 26.6231 1075.19 26.0966 1075.78 25.7216C1076.37 25.3466 1077.06 25.1591 1077.85 25.1591C1078.64 25.1591 1079.33 25.3466 1079.92 25.7216C1080.51 26.0966 1080.98 26.6231 1081.31 27.3011C1081.64 27.9792 1081.81 28.7727 1081.81 29.6818C1081.81 30.5833 1081.64 31.3712 1081.31 32.0455C1080.98 32.7197 1080.51 33.2443 1079.92 33.6193C1079.33 33.9943 1078.64 34.1818 1077.85 34.1818ZM1077.85 32.9773C1078.45 32.9773 1078.94 32.8239 1079.33 32.517C1079.71 32.2102 1080 31.8068 1080.19 31.3068C1080.37 30.8068 1080.46 30.2652 1080.46 29.6818C1080.46 29.0985 1080.37 28.5549 1080.19 28.0511C1080 27.5473 1079.71 27.1402 1079.33 26.8295C1078.94 26.5189 1078.45 26.3636 1077.85 26.3636C1077.25 26.3636 1076.76 26.5189 1076.37 26.8295C1075.99 27.1402 1075.7 27.5473 1075.52 28.0511C1075.33 28.5549 1075.24 29.0985 1075.24 29.6818C1075.24 30.2652 1075.33 30.8068 1075.52 31.3068C1075.7 31.8068 1075.99 32.2102 1076.37 32.517C1076.76 32.8239 1077.25 32.9773 1077.85 32.9773ZM1083.85 34V25.2727H1087.42C1088.36 25.2727 1089.11 25.4848 1089.66 25.9091C1090.21 26.3333 1090.49 26.8939 1090.49 27.5909C1090.49 28.1212 1090.33 28.5322 1090.02 28.8239C1089.7 29.1117 1089.3 29.3068 1088.81 29.4091C1089.13 29.4545 1089.44 29.5682 1089.74 29.75C1090.05 29.9318 1090.3 30.1818 1090.51 30.5C1090.71 30.8144 1090.81 31.2008 1090.81 31.6591C1090.81 32.1061 1090.69 32.5057 1090.47 32.858C1090.24 33.2102 1089.91 33.4886 1089.49 33.6932C1089.06 33.8977 1088.56 34 1087.97 34H1083.85ZM1085.12 32.7727H1087.97C1088.43 32.7727 1088.79 32.6629 1089.05 32.4432C1089.31 32.2235 1089.44 31.9242 1089.44 31.5455C1089.44 31.0947 1089.31 30.7405 1089.05 30.483C1088.79 30.2216 1088.43 30.0909 1087.97 30.0909H1085.12V32.7727ZM1085.12 28.9318H1087.42C1087.78 28.9318 1088.09 28.8826 1088.35 28.7841C1088.6 28.6818 1088.8 28.5379 1088.94 28.3523C1089.08 28.1629 1089.15 27.9394 1089.15 27.6818C1089.15 27.3144 1088.99 27.0265 1088.69 26.8182C1088.38 26.6061 1087.96 26.5 1087.42 26.5H1085.12V28.9318ZM1095.4 34.2045C1094.85 34.2045 1094.35 34.1004 1093.9 33.892C1093.45 33.6799 1093.09 33.375 1092.83 32.9773C1092.56 32.5758 1092.43 32.0909 1092.43 31.5227C1092.43 31.0227 1092.53 30.6174 1092.72 30.3068C1092.92 29.9924 1093.18 29.7462 1093.51 29.5682C1093.84 29.3902 1094.21 29.2576 1094.6 29.1705C1095.01 29.0795 1095.41 29.0076 1095.81 28.9545C1096.34 28.8864 1096.77 28.8352 1097.1 28.8011C1097.44 28.7633 1097.68 28.7008 1097.83 28.6136C1097.99 28.5265 1098.06 28.375 1098.06 28.1591V28.1136C1098.06 27.553 1097.91 27.1174 1097.6 26.8068C1097.3 26.4962 1096.84 26.3409 1096.22 26.3409C1095.58 26.3409 1095.08 26.4811 1094.72 26.7614C1094.35 27.0417 1094.1 27.3409 1093.95 27.6591L1092.68 27.2045C1092.9 26.6742 1093.21 26.2614 1093.59 25.9659C1093.97 25.6667 1094.39 25.4583 1094.84 25.3409C1095.29 25.2197 1095.74 25.1591 1096.18 25.1591C1096.46 25.1591 1096.78 25.1932 1097.14 25.2614C1097.51 25.3258 1097.87 25.4602 1098.21 25.6648C1098.55 25.8693 1098.84 26.178 1099.06 26.5909C1099.29 27.0038 1099.4 27.5568 1099.4 28.25V34H1098.06V32.8182H1098C1097.9 33.0076 1097.75 33.2102 1097.54 33.4261C1097.33 33.642 1097.05 33.8258 1096.69 33.9773C1096.34 34.1288 1095.91 34.2045 1095.4 34.2045ZM1095.61 33C1096.14 33 1096.59 32.8958 1096.95 32.6875C1097.32 32.4792 1097.59 32.2102 1097.78 31.8807C1097.97 31.5511 1098.06 31.2045 1098.06 30.8409V29.6136C1098.01 29.6818 1097.88 29.7443 1097.69 29.8011C1097.5 29.8542 1097.28 29.9015 1097.03 29.9432C1096.78 29.9811 1096.54 30.0152 1096.31 30.0455C1096.08 30.072 1095.89 30.0947 1095.75 30.1136C1095.4 30.1591 1095.07 30.233 1094.77 30.3352C1094.47 30.4337 1094.23 30.5833 1094.04 30.7841C1093.86 30.9811 1093.77 31.25 1093.77 31.5909C1093.77 32.0568 1093.94 32.4091 1094.29 32.6477C1094.63 32.8826 1095.08 33 1095.61 33ZM1107.69 29.0227V30.2727H1102.88V29.0227H1107.69ZM1103.19 25.2727V34H1101.85V25.2727H1103.19ZM1108.72 25.2727V34H1107.38V25.2727H1108.72ZM1117.01 29.0227V30.2727H1112.19V29.0227H1117.01ZM1112.51 25.2727V34H1111.16V25.2727H1112.51ZM1118.03 25.2727V34H1116.69V25.2727H1118.03ZM1121.64 28.4318H1124.14C1125.16 28.4318 1125.94 28.6913 1126.48 29.2102C1127.02 29.7292 1127.3 30.3864 1127.3 31.1818C1127.3 31.7045 1127.17 32.1799 1126.93 32.608C1126.69 33.0322 1126.33 33.3712 1125.86 33.625C1125.39 33.875 1124.82 34 1124.14 34H1120.48V25.2727H1121.82V32.75H1124.14C1124.67 32.75 1125.1 32.6098 1125.44 32.3295C1125.78 32.0492 1125.95 31.6894 1125.95 31.25C1125.95 30.7879 1125.78 30.411 1125.44 30.1193C1125.1 29.8277 1124.67 29.6818 1124.14 29.6818H1121.64V28.4318ZM1128.68 34V25.2727H1130.02V34H1128.68ZM1133.82 32.0227L1138.02 25.2727H1139.57V34H1138.23V27.25L1134.05 34H1132.48V25.2727H1133.82V32.0227ZM1137.14 22.3636H1138.39C1138.39 22.9773 1138.17 23.4792 1137.75 23.8693C1137.33 24.2595 1136.75 24.4545 1136.02 24.4545C1135.31 24.4545 1134.74 24.2595 1134.31 23.8693C1133.89 23.4792 1133.68 22.9773 1133.68 22.3636H1134.93C1134.93 22.6591 1135.01 22.9186 1135.18 23.142C1135.34 23.3655 1135.63 23.4773 1136.02 23.4773C1136.42 23.4773 1136.7 23.3655 1136.88 23.142C1137.05 22.9186 1137.14 22.6591 1137.14 22.3636ZM1147.87 32.0227L1152.07 25.2727H1153.62V34H1152.27V27.25L1148.09 34H1146.52V25.2727H1147.87V32.0227ZM1164.12 34.1818C1163.33 34.1818 1162.64 33.9943 1162.04 33.6193C1161.45 33.2443 1160.99 32.7197 1160.66 32.0455C1160.33 31.3712 1160.16 30.5833 1160.16 29.6818C1160.16 28.7727 1160.33 27.9792 1160.66 27.3011C1160.99 26.6231 1161.45 26.0966 1162.04 25.7216C1162.64 25.3466 1163.33 25.1591 1164.12 25.1591C1164.9 25.1591 1165.59 25.3466 1166.18 25.7216C1166.78 26.0966 1167.24 26.6231 1167.57 27.3011C1167.9 27.9792 1168.07 28.7727 1168.07 29.6818C1168.07 30.5833 1167.9 31.3712 1167.57 32.0455C1167.24 32.7197 1166.78 33.2443 1166.18 33.6193C1165.59 33.9943 1164.9 34.1818 1164.12 34.1818ZM1164.12 32.9773C1164.71 32.9773 1165.21 32.8239 1165.59 32.517C1165.98 32.2102 1166.27 31.8068 1166.45 31.3068C1166.64 30.8068 1166.73 30.2652 1166.73 29.6818C1166.73 29.0985 1166.64 28.5549 1166.45 28.0511C1166.27 27.5473 1165.98 27.1402 1165.59 26.8295C1165.21 26.5189 1164.71 26.3636 1164.12 26.3636C1163.52 26.3636 1163.03 26.5189 1162.64 26.8295C1162.25 27.1402 1161.97 27.5473 1161.78 28.0511C1161.6 28.5549 1161.5 29.0985 1161.5 29.6818C1161.5 30.2652 1161.6 30.8068 1161.78 31.3068C1161.97 31.8068 1162.25 32.2102 1162.64 32.517C1163.03 32.8239 1163.52 32.9773 1164.12 32.9773ZM1170.12 37.2727V25.2727H1171.41V26.6591H1171.57C1171.67 26.5076 1171.81 26.3144 1171.98 26.0795C1172.16 25.8409 1172.41 25.6288 1172.74 25.4432C1173.08 25.2538 1173.53 25.1591 1174.1 25.1591C1174.83 25.1591 1175.48 25.3428 1176.04 25.7102C1176.6 26.0777 1177.04 26.5985 1177.35 27.2727C1177.67 27.947 1177.82 28.7424 1177.82 29.6591C1177.82 30.5833 1177.67 31.3845 1177.35 32.0625C1177.04 32.7367 1176.6 33.2595 1176.04 33.6307C1175.49 33.9981 1174.85 34.1818 1174.12 34.1818C1173.56 34.1818 1173.11 34.089 1172.77 33.9034C1172.43 33.714 1172.17 33.5 1171.99 33.2614C1171.81 33.0189 1171.67 32.8182 1171.57 32.6591H1171.46V37.2727H1170.12ZM1171.44 29.6364C1171.44 30.2955 1171.53 30.8769 1171.73 31.3807C1171.92 31.8807 1172.2 32.2727 1172.57 32.5568C1172.94 32.8371 1173.4 32.9773 1173.94 32.9773C1174.5 32.9773 1174.96 32.8295 1175.34 32.5341C1175.72 32.2348 1176 31.8333 1176.19 31.3295C1176.38 30.822 1176.48 30.2576 1176.48 29.6364C1176.48 29.0227 1176.39 28.4697 1176.2 27.9773C1176.01 27.4811 1175.73 27.089 1175.35 26.8011C1174.98 26.5095 1174.5 26.3636 1173.94 26.3636C1173.39 26.3636 1172.93 26.5019 1172.56 26.7784C1172.19 27.0511 1171.91 27.4337 1171.72 27.9261C1171.53 28.4148 1171.44 28.9848 1171.44 29.6364ZM1185.25 25.2727V26.5227H1181.21V34H1179.87V25.2727H1185.25ZM1189.33 34.2045C1188.77 34.2045 1188.27 34.1004 1187.82 33.892C1187.37 33.6799 1187.01 33.375 1186.75 32.9773C1186.48 32.5758 1186.35 32.0909 1186.35 31.5227C1186.35 31.0227 1186.45 30.6174 1186.64 30.3068C1186.84 29.9924 1187.11 29.7462 1187.43 29.5682C1187.76 29.3902 1188.13 29.2576 1188.53 29.1705C1188.93 29.0795 1189.33 29.0076 1189.74 28.9545C1190.27 28.8864 1190.7 28.8352 1191.03 28.8011C1191.36 28.7633 1191.6 28.7008 1191.75 28.6136C1191.91 28.5265 1191.99 28.375 1191.99 28.1591V28.1136C1191.99 27.553 1191.83 27.1174 1191.53 26.8068C1191.22 26.4962 1190.76 26.3409 1190.14 26.3409C1189.5 26.3409 1189 26.4811 1188.64 26.7614C1188.28 27.0417 1188.02 27.3409 1187.87 27.6591L1186.6 27.2045C1186.83 26.6742 1187.13 26.2614 1187.51 25.9659C1187.89 25.6667 1188.31 25.4583 1188.76 25.3409C1189.21 25.2197 1189.66 25.1591 1190.1 25.1591C1190.38 25.1591 1190.7 25.1932 1191.07 25.2614C1191.43 25.3258 1191.79 25.4602 1192.13 25.6648C1192.47 25.8693 1192.76 26.178 1192.99 26.5909C1193.21 27.0038 1193.33 27.5568 1193.33 28.25V34H1191.99V32.8182H1191.92C1191.83 33.0076 1191.68 33.2102 1191.46 33.4261C1191.25 33.642 1190.97 33.8258 1190.62 33.9773C1190.26 34.1288 1189.83 34.2045 1189.33 34.2045ZM1189.53 33C1190.06 33 1190.51 32.8958 1190.87 32.6875C1191.24 32.4792 1191.52 32.2102 1191.7 31.8807C1191.89 31.5511 1191.99 31.2045 1191.99 30.8409V29.6136C1191.93 29.6818 1191.8 29.7443 1191.61 29.8011C1191.42 29.8542 1191.2 29.9015 1190.95 29.9432C1190.71 29.9811 1190.46 30.0152 1190.23 30.0455C1190 30.072 1189.81 30.0947 1189.67 30.1136C1189.32 30.1591 1188.99 30.233 1188.69 30.3352C1188.39 30.4337 1188.15 30.5833 1187.96 30.7841C1187.78 30.9811 1187.69 31.25 1187.69 31.5909C1187.69 32.0568 1187.86 32.4091 1188.21 32.6477C1188.56 32.8826 1189 33 1189.53 33ZM1201.62 29.0227V30.2727H1196.8V29.0227H1201.62ZM1197.12 25.2727V34H1195.77V25.2727H1197.12ZM1202.64 25.2727V34H1201.3V25.2727H1202.64ZM1206.43 32.0227L1210.63 25.2727H1212.18V34H1210.84V27.25L1206.65 34H1205.09V25.2727H1206.43V32.0227ZM1214.09 31.7727H1215.52C1215.55 32.1667 1215.73 32.4659 1216.05 32.6705C1216.38 32.875 1216.81 32.9773 1217.34 32.9773C1217.88 32.9773 1218.34 32.8674 1218.72 32.6477C1219.1 32.4242 1219.29 32.0644 1219.29 31.5682C1219.29 31.2765 1219.22 31.0227 1219.08 30.8068C1218.93 30.5871 1218.73 30.4167 1218.47 30.2955C1218.21 30.1742 1217.9 30.1136 1217.54 30.1136H1216.04V28.9091H1217.54C1218.08 28.9091 1218.47 28.7879 1218.72 28.5455C1218.98 28.303 1219.11 28 1219.11 27.6364C1219.11 27.2462 1218.97 26.9337 1218.7 26.6989C1218.42 26.4602 1218.03 26.3409 1217.52 26.3409C1217.01 26.3409 1216.58 26.4564 1216.24 26.6875C1215.9 26.9148 1215.72 27.2083 1215.7 27.5682H1214.29C1214.31 27.0985 1214.45 26.6837 1214.72 26.3239C1215 25.9602 1215.37 25.6761 1215.84 25.4716C1216.31 25.2633 1216.85 25.1591 1217.45 25.1591C1218.07 25.1591 1218.6 25.267 1219.05 25.483C1219.5 25.6951 1219.85 25.9848 1220.1 26.3523C1220.35 26.7159 1220.47 27.1288 1220.47 27.5909C1220.47 28.0833 1220.34 28.4811 1220.06 28.7841C1219.78 29.0871 1219.44 29.303 1219.02 29.4318V29.5227C1219.35 29.5455 1219.64 29.6515 1219.88 29.8409C1220.12 30.0265 1220.32 30.2708 1220.45 30.5739C1220.59 30.8731 1220.66 31.2045 1220.66 31.5682C1220.66 32.0985 1220.51 32.5606 1220.23 32.9545C1219.95 33.3447 1219.56 33.6477 1219.06 33.8636C1218.56 34.0758 1218 34.1818 1217.36 34.1818C1216.74 34.1818 1216.19 34.0814 1215.7 33.8807C1215.21 33.6761 1214.82 33.3939 1214.54 33.0341C1214.25 32.6705 1214.1 32.25 1214.09 31.7727ZM1226.09 34.1818C1225.3 34.1818 1224.61 33.9943 1224.01 33.6193C1223.42 33.2443 1222.96 32.7197 1222.62 32.0455C1222.3 31.3712 1222.13 30.5833 1222.13 29.6818C1222.13 28.7727 1222.3 27.9792 1222.62 27.3011C1222.96 26.6231 1223.42 26.0966 1224.01 25.7216C1224.61 25.3466 1225.3 25.1591 1226.09 25.1591C1226.87 25.1591 1227.56 25.3466 1228.15 25.7216C1228.75 26.0966 1229.21 26.6231 1229.54 27.3011C1229.87 27.9792 1230.04 28.7727 1230.04 29.6818C1230.04 30.5833 1229.87 31.3712 1229.54 32.0455C1229.21 32.7197 1228.75 33.2443 1228.15 33.6193C1227.56 33.9943 1226.87 34.1818 1226.09 34.1818ZM1226.09 32.9773C1226.68 32.9773 1227.18 32.8239 1227.56 32.517C1227.95 32.2102 1228.23 31.8068 1228.42 31.3068C1228.61 30.8068 1228.7 30.2652 1228.7 29.6818C1228.7 29.0985 1228.61 28.5549 1228.42 28.0511C1228.23 27.5473 1227.95 27.1402 1227.56 26.8295C1227.18 26.5189 1226.68 26.3636 1226.09 26.3636C1225.49 26.3636 1224.99 26.5189 1224.61 26.8295C1224.22 27.1402 1223.94 27.5473 1223.75 28.0511C1223.56 28.5549 1223.47 29.0985 1223.47 29.6818C1223.47 30.2652 1223.56 30.8068 1223.75 31.3068C1223.94 31.8068 1224.22 32.2102 1224.61 32.517C1224.99 32.8239 1225.49 32.9773 1226.09 32.9773ZM1232.09 34V25.2727H1235.65C1236.59 25.2727 1237.34 25.4848 1237.89 25.9091C1238.45 26.3333 1238.72 26.8939 1238.72 27.5909C1238.72 28.1212 1238.57 28.5322 1238.25 28.8239C1237.94 29.1117 1237.53 29.3068 1237.04 29.4091C1237.36 29.4545 1237.68 29.5682 1237.98 29.75C1238.29 29.9318 1238.54 30.1818 1238.74 30.5C1238.94 30.8144 1239.04 31.2008 1239.04 31.6591C1239.04 32.1061 1238.93 32.5057 1238.7 32.858C1238.47 33.2102 1238.15 33.4886 1237.72 33.6932C1237.3 33.8977 1236.79 34 1236.2 34H1232.09ZM1233.36 32.7727H1236.2C1236.66 32.7727 1237.02 32.6629 1237.29 32.4432C1237.55 32.2235 1237.68 31.9242 1237.68 31.5455C1237.68 31.0947 1237.55 30.7405 1237.29 30.483C1237.02 30.2216 1236.66 30.0909 1236.2 30.0909H1233.36V32.7727ZM1233.36 28.9318H1235.65C1236.01 28.9318 1236.32 28.8826 1236.58 28.7841C1236.84 28.6818 1237.04 28.5379 1237.17 28.3523C1237.31 28.1629 1237.38 27.9394 1237.38 27.6818C1237.38 27.3144 1237.23 27.0265 1236.92 26.8182C1236.62 26.6061 1236.19 26.5 1235.65 26.5H1233.36V28.9318ZM1243.64 34.2045C1243.09 34.2045 1242.58 34.1004 1242.13 33.892C1241.68 33.6799 1241.32 33.375 1241.06 32.9773C1240.79 32.5758 1240.66 32.0909 1240.66 31.5227C1240.66 31.0227 1240.76 30.6174 1240.96 30.3068C1241.15 29.9924 1241.42 29.7462 1241.75 29.5682C1242.08 29.3902 1242.44 29.2576 1242.84 29.1705C1243.24 29.0795 1243.64 29.0076 1244.05 28.9545C1244.58 28.8864 1245.01 28.8352 1245.34 28.8011C1245.67 28.7633 1245.91 28.7008 1246.07 28.6136C1246.22 28.5265 1246.3 28.375 1246.3 28.1591V28.1136C1246.3 27.553 1246.14 27.1174 1245.84 26.8068C1245.54 26.4962 1245.07 26.3409 1244.46 26.3409C1243.82 26.3409 1243.32 26.4811 1242.95 26.7614C1242.59 27.0417 1242.33 27.3409 1242.18 27.6591L1240.91 27.2045C1241.14 26.6742 1241.44 26.2614 1241.82 25.9659C1242.2 25.6667 1242.62 25.4583 1243.07 25.3409C1243.53 25.2197 1243.97 25.1591 1244.41 25.1591C1244.69 25.1591 1245.01 25.1932 1245.38 25.2614C1245.75 25.3258 1246.1 25.4602 1246.44 25.6648C1246.79 25.8693 1247.07 26.178 1247.3 26.5909C1247.53 27.0038 1247.64 27.5568 1247.64 28.25V34H1246.3V32.8182H1246.23C1246.14 33.0076 1245.99 33.2102 1245.78 33.4261C1245.56 33.642 1245.28 33.8258 1244.93 33.9773C1244.58 34.1288 1244.15 34.2045 1243.64 34.2045ZM1243.84 33C1244.37 33 1244.82 32.8958 1245.18 32.6875C1245.55 32.4792 1245.83 32.2102 1246.01 31.8807C1246.2 31.5511 1246.3 31.2045 1246.3 30.8409V29.6136C1246.24 29.6818 1246.12 29.7443 1245.92 29.8011C1245.73 29.8542 1245.51 29.9015 1245.26 29.9432C1245.02 29.9811 1244.78 30.0152 1244.54 30.0455C1244.31 30.072 1244.12 30.0947 1243.98 30.1136C1243.63 30.1591 1243.31 30.233 1243 30.3352C1242.7 30.4337 1242.46 30.5833 1242.28 30.7841C1242.09 30.9811 1242 31.25 1242 31.5909C1242 32.0568 1242.18 32.4091 1242.52 32.6477C1242.87 32.8826 1243.31 33 1243.84 33ZM1255.93 29.0227V30.2727H1251.11V29.0227H1255.93ZM1251.43 25.2727V34H1250.09V25.2727H1251.43ZM1256.95 25.2727V34H1255.61V25.2727H1256.95ZM1265.24 29.0227V30.2727H1260.42V29.0227H1265.24ZM1260.74 25.2727V34H1259.4V25.2727H1260.74ZM1266.26 25.2727V34H1264.92V25.2727H1266.26ZM1269.87 28.4318H1272.37C1273.39 28.4318 1274.18 28.6913 1274.72 29.2102C1275.26 29.7292 1275.53 30.3864 1275.53 31.1818C1275.53 31.7045 1275.41 32.1799 1275.17 32.608C1274.92 33.0322 1274.57 33.3712 1274.1 33.625C1273.63 33.875 1273.05 34 1272.37 34H1268.71V25.2727H1270.05V32.75H1272.37C1272.9 32.75 1273.34 32.6098 1273.68 32.3295C1274.02 32.0492 1274.19 31.6894 1274.19 31.25C1274.19 30.7879 1274.02 30.411 1273.68 30.1193C1273.34 29.8277 1272.9 29.6818 1272.37 29.6818H1269.87V28.4318ZM1276.92 34V25.2727H1278.26V34H1276.92ZM1282.05 32.0227L1286.26 25.2727H1287.8V34H1286.46V27.25L1282.28 34H1280.71V25.2727H1282.05V32.0227ZM1285.37 22.3636H1286.62C1286.62 22.9773 1286.41 23.4792 1285.98 23.8693C1285.56 24.2595 1284.98 24.4545 1284.26 24.4545C1283.54 24.4545 1282.97 24.2595 1282.55 23.8693C1282.13 23.4792 1281.92 22.9773 1281.92 22.3636H1283.17C1283.17 22.6591 1283.25 22.9186 1283.41 23.142C1283.58 23.3655 1283.86 23.4773 1284.26 23.4773C1284.65 23.4773 1284.94 23.3655 1285.11 23.142C1285.28 22.9186 1285.37 22.6591 1285.37 22.3636ZM943.227 54V45.2727H950.091V54H948.75V46.5227H944.568V54H943.227ZM952.54 57.2727V45.2727H953.835V46.6591H953.994C954.093 46.5076 954.229 46.3144 954.403 46.0795C954.581 45.8409 954.835 45.6288 955.165 45.4432C955.498 45.2538 955.949 45.1591 956.517 45.1591C957.252 45.1591 957.9 45.3428 958.46 45.7102C959.021 46.0777 959.458 46.5985 959.773 47.2727C960.087 47.947 960.244 48.7424 960.244 49.6591C960.244 50.5833 960.087 51.3845 959.773 52.0625C959.458 52.7367 959.023 53.2595 958.466 53.6307C957.909 53.9981 957.267 54.1818 956.54 54.1818C955.979 54.1818 955.53 54.089 955.193 53.9034C954.856 53.714 954.597 53.5 954.415 53.2614C954.233 53.0189 954.093 52.8182 953.994 52.6591H953.881V57.2727H952.54ZM953.858 49.6364C953.858 50.2955 953.955 50.8769 954.148 51.3807C954.341 51.8807 954.623 52.2727 954.994 52.5568C955.366 52.8371 955.82 52.9773 956.358 52.9773C956.919 52.9773 957.386 52.8295 957.761 52.5341C958.14 52.2348 958.424 51.8333 958.614 51.3295C958.807 50.822 958.903 50.2576 958.903 49.6364C958.903 49.0227 958.809 48.4697 958.619 47.9773C958.434 47.4811 958.152 47.089 957.773 46.8011C957.398 46.5095 956.926 46.3636 956.358 46.3636C955.813 46.3636 955.354 46.5019 954.983 46.7784C954.612 47.0511 954.331 47.4337 954.142 47.9261C953.953 48.4148 953.858 48.9848 953.858 49.6364ZM965.835 54.1818C965.047 54.1818 964.356 53.9943 963.761 53.6193C963.17 53.2443 962.708 52.7197 962.375 52.0455C962.045 51.3712 961.881 50.5833 961.881 49.6818C961.881 48.7727 962.045 47.9792 962.375 47.3011C962.708 46.6231 963.17 46.0966 963.761 45.7216C964.356 45.3466 965.047 45.1591 965.835 45.1591C966.623 45.1591 967.313 45.3466 967.903 45.7216C968.498 46.0966 968.96 46.6231 969.29 47.3011C969.623 47.9792 969.79 48.7727 969.79 49.6818C969.79 50.5833 969.623 51.3712 969.29 52.0455C968.96 52.7197 968.498 53.2443 967.903 53.6193C967.313 53.9943 966.623 54.1818 965.835 54.1818ZM965.835 52.9773C966.434 52.9773 966.926 52.8239 967.312 52.517C967.699 52.2102 967.985 51.8068 968.17 51.3068C968.356 50.8068 968.449 50.2652 968.449 49.6818C968.449 49.0985 968.356 48.5549 968.17 48.0511C967.985 47.5473 967.699 47.1402 967.312 46.8295C966.926 46.5189 966.434 46.3636 965.835 46.3636C965.237 46.3636 964.744 46.5189 964.358 46.8295C963.972 47.1402 963.686 47.5473 963.5 48.0511C963.314 48.5549 963.222 49.0985 963.222 49.6818C963.222 50.2652 963.314 50.8068 963.5 51.3068C963.686 51.8068 963.972 52.2102 964.358 52.517C964.744 52.8239 965.237 52.9773 965.835 52.9773ZM978.7 45.2727V52.75H979.928V56.8182H978.587V54H971.837V45.2727H973.178V52.75H977.359V45.2727H978.7ZM985.558 54.1818C984.717 54.1818 983.992 53.9962 983.382 53.625C982.776 53.25 982.308 52.7273 981.979 52.0568C981.653 51.3826 981.49 50.5985 981.49 49.7045C981.49 48.8106 981.653 48.0227 981.979 47.3409C982.308 46.6553 982.767 46.1212 983.354 45.7386C983.945 45.3523 984.634 45.1591 985.422 45.1591C985.876 45.1591 986.325 45.2348 986.768 45.3864C987.212 45.5379 987.615 45.7841 987.979 46.125C988.342 46.4621 988.632 46.9091 988.848 47.4659C989.064 48.0227 989.172 48.7083 989.172 49.5227V50.0909H982.445V48.9318H987.808C987.808 48.4394 987.71 48 987.513 47.6136C987.32 47.2273 987.043 46.9223 986.683 46.6989C986.327 46.4754 985.907 46.3636 985.422 46.3636C984.888 46.3636 984.426 46.4962 984.036 46.7614C983.649 47.0227 983.352 47.3636 983.143 47.7841C982.935 48.2045 982.831 48.6553 982.831 49.1364V49.9091C982.831 50.5682 982.945 51.1269 983.172 51.5852C983.403 52.0398 983.723 52.3864 984.132 52.625C984.541 52.8598 985.017 52.9773 985.558 52.9773C985.911 52.9773 986.229 52.928 986.513 52.8295C986.801 52.7273 987.049 52.5758 987.257 52.375C987.465 52.1705 987.626 51.9167 987.74 51.6136L989.036 51.9773C988.899 52.4167 988.67 52.803 988.348 53.1364C988.026 53.4659 987.628 53.7235 987.155 53.9091C986.681 54.0909 986.149 54.1818 985.558 54.1818ZM994.757 54.1818C993.939 54.1818 993.234 53.9886 992.643 53.6023C992.053 53.2159 991.598 52.6837 991.28 52.0057C990.962 51.3277 990.803 50.553 990.803 49.6818C990.803 48.7955 990.965 48.0133 991.291 47.3352C991.621 46.6534 992.079 46.1212 992.666 45.7386C993.257 45.3523 993.946 45.1591 994.734 45.1591C995.348 45.1591 995.901 45.2727 996.393 45.5C996.886 45.7273 997.289 46.0455 997.604 46.4545C997.918 46.8636 998.113 47.3409 998.189 47.8864H996.848C996.746 47.4886 996.518 47.1364 996.166 46.8295C995.818 46.5189 995.348 46.3636 994.757 46.3636C994.234 46.3636 993.776 46.5 993.382 46.7727C992.992 47.0417 992.687 47.4223 992.467 47.9148C992.251 48.4034 992.143 48.9773 992.143 49.6364C992.143 50.3106 992.25 50.8977 992.462 51.3977C992.678 51.8977 992.981 52.286 993.371 52.5625C993.765 52.839 994.227 52.9773 994.757 52.9773C995.106 52.9773 995.422 52.9167 995.706 52.7955C995.99 52.6742 996.231 52.5 996.428 52.2727C996.625 52.0455 996.765 51.7727 996.848 51.4545H998.189C998.113 51.9697 997.926 52.4337 997.626 52.8466C997.331 53.2557 996.939 53.5814 996.45 53.8239C995.965 54.0625 995.401 54.1818 994.757 54.1818ZM1003.69 54.1818C1002.88 54.1818 1002.17 53.9886 1001.58 53.6023C1000.99 53.2159 1000.54 52.6837 1000.22 52.0057C999.899 51.3277 999.74 50.553 999.74 49.6818C999.74 48.7955 999.903 48.0133 1000.23 47.3352C1000.56 46.6534 1001.02 46.1212 1001.6 45.7386C1002.19 45.3523 1002.88 45.1591 1003.67 45.1591C1004.29 45.1591 1004.84 45.2727 1005.33 45.5C1005.82 45.7273 1006.23 46.0455 1006.54 46.4545C1006.86 46.8636 1007.05 47.3409 1007.13 47.8864H1005.79C1005.68 47.4886 1005.46 47.1364 1005.1 46.8295C1004.76 46.5189 1004.29 46.3636 1003.69 46.3636C1003.17 46.3636 1002.71 46.5 1002.32 46.7727C1001.93 47.0417 1001.62 47.4223 1001.4 47.9148C1001.19 48.4034 1001.08 48.9773 1001.08 49.6364C1001.08 50.3106 1001.19 50.8977 1001.4 51.3977C1001.62 51.8977 1001.92 52.286 1002.31 52.5625C1002.7 52.839 1003.16 52.9773 1003.69 52.9773C1004.04 52.9773 1004.36 52.9167 1004.64 52.7955C1004.93 52.6742 1005.17 52.5 1005.37 52.2727C1005.56 52.0455 1005.7 51.7727 1005.79 51.4545H1007.13C1007.05 51.9697 1006.86 52.4337 1006.56 52.8466C1006.27 53.2557 1005.88 53.5814 1005.39 53.8239C1004.9 54.0625 1004.34 54.1818 1003.69 54.1818ZM1013.59 57.2727V45.2727H1014.88V46.6591H1015.04C1015.14 46.5076 1015.28 46.3144 1015.45 46.0795C1015.63 45.8409 1015.88 45.6288 1016.21 45.4432C1016.54 45.2538 1017 45.1591 1017.56 45.1591C1018.3 45.1591 1018.95 45.3428 1019.51 45.7102C1020.07 46.0777 1020.51 46.5985 1020.82 47.2727C1021.13 47.947 1021.29 48.7424 1021.29 49.6591C1021.29 50.5833 1021.13 51.3845 1020.82 52.0625C1020.51 52.7367 1020.07 53.2595 1019.51 53.6307C1018.96 53.9981 1018.31 54.1818 1017.59 54.1818C1017.03 54.1818 1016.58 54.089 1016.24 53.9034C1015.9 53.714 1015.64 53.5 1015.46 53.2614C1015.28 53.0189 1015.14 52.8182 1015.04 52.6591H1014.93V57.2727H1013.59ZM1014.9 49.6364C1014.9 50.2955 1015 50.8769 1015.19 51.3807C1015.39 51.8807 1015.67 52.2727 1016.04 52.5568C1016.41 52.8371 1016.87 52.9773 1017.4 52.9773C1017.97 52.9773 1018.43 52.8295 1018.81 52.5341C1019.19 52.2348 1019.47 51.8333 1019.66 51.3295C1019.85 50.822 1019.95 50.2576 1019.95 49.6364C1019.95 49.0227 1019.86 48.4697 1019.67 47.9773C1019.48 47.4811 1019.2 47.089 1018.82 46.8011C1018.44 46.5095 1017.97 46.3636 1017.4 46.3636C1016.86 46.3636 1016.4 46.5019 1016.03 46.7784C1015.66 47.0511 1015.38 47.4337 1015.19 47.9261C1015 48.4148 1014.9 48.9848 1014.9 49.6364ZM1025.9 54.2045C1025.35 54.2045 1024.85 54.1004 1024.4 53.892C1023.95 53.6799 1023.59 53.375 1023.33 52.9773C1023.06 52.5758 1022.93 52.0909 1022.93 51.5227C1022.93 51.0227 1023.03 50.6174 1023.22 50.3068C1023.42 49.9924 1023.68 49.7462 1024.01 49.5682C1024.34 49.3902 1024.71 49.2576 1025.1 49.1705C1025.51 49.0795 1025.91 49.0076 1026.31 48.9545C1026.84 48.8864 1027.27 48.8352 1027.6 48.8011C1027.94 48.7633 1028.18 48.7008 1028.33 48.6136C1028.49 48.5265 1028.56 48.375 1028.56 48.1591V48.1136C1028.56 47.553 1028.41 47.1174 1028.1 46.8068C1027.8 46.4962 1027.34 46.3409 1026.72 46.3409C1026.08 46.3409 1025.58 46.4811 1025.22 46.7614C1024.85 47.0417 1024.6 47.3409 1024.45 47.6591L1023.18 47.2045C1023.4 46.6742 1023.71 46.2614 1024.09 45.9659C1024.47 45.6667 1024.89 45.4583 1025.34 45.3409C1025.79 45.2197 1026.24 45.1591 1026.68 45.1591C1026.96 45.1591 1027.28 45.1932 1027.64 45.2614C1028.01 45.3258 1028.37 45.4602 1028.71 45.6648C1029.05 45.8693 1029.34 46.178 1029.56 46.5909C1029.79 47.0038 1029.9 47.5568 1029.9 48.25V54H1028.56V52.8182H1028.5C1028.4 53.0076 1028.25 53.2102 1028.04 53.4261C1027.83 53.642 1027.55 53.8258 1027.19 53.9773C1026.84 54.1288 1026.41 54.2045 1025.9 54.2045ZM1026.11 53C1026.64 53 1027.09 52.8958 1027.45 52.6875C1027.82 52.4792 1028.09 52.2102 1028.28 51.8807C1028.47 51.5511 1028.56 51.2045 1028.56 50.8409V49.6136C1028.51 49.6818 1028.38 49.7443 1028.19 49.8011C1028 49.8542 1027.78 49.9015 1027.53 49.9432C1027.28 49.9811 1027.04 50.0152 1026.81 50.0455C1026.58 50.072 1026.39 50.0947 1026.25 50.1136C1025.9 50.1591 1025.57 50.233 1025.27 50.3352C1024.97 50.4337 1024.73 50.5833 1024.54 50.7841C1024.36 50.9811 1024.27 51.25 1024.27 51.5909C1024.27 52.0568 1024.44 52.4091 1024.79 52.6477C1025.13 52.8826 1025.58 53 1026.11 53ZM1038.83 42L1039.51 42.8182C1039.25 43.0758 1038.94 43.2557 1038.59 43.358C1038.24 43.4602 1037.85 43.5227 1037.41 43.5455C1036.97 43.5682 1036.48 43.5909 1035.94 43.6136C1035.34 43.6364 1034.84 43.7841 1034.44 44.0568C1034.04 44.3295 1033.73 44.7235 1033.52 45.2386C1033.3 45.7538 1033.16 46.3864 1033.1 47.1364H1033.22C1033.51 46.5909 1033.92 46.1894 1034.44 45.9318C1034.97 45.6742 1035.53 45.5455 1036.12 45.5455C1036.81 45.5455 1037.42 45.7045 1037.97 46.0227C1038.51 46.3409 1038.94 46.8125 1039.26 47.4375C1039.58 48.0625 1039.74 48.8333 1039.74 49.75C1039.74 50.6629 1039.58 51.4508 1039.25 52.1136C1038.93 52.7765 1038.48 53.2879 1037.89 53.6477C1037.31 54.0038 1036.63 54.1818 1035.85 54.1818C1035.07 54.1818 1034.39 53.9981 1033.8 53.6307C1033.21 53.2595 1032.76 52.7102 1032.43 51.983C1032.11 51.2519 1031.94 50.3485 1031.94 49.2727V48.3409C1031.94 46.3977 1032.27 44.9242 1032.93 43.9205C1033.59 42.9167 1034.59 42.3977 1035.92 42.3636C1036.39 42.3485 1036.81 42.3447 1037.18 42.3523C1037.54 42.3598 1037.86 42.3428 1038.14 42.3011C1038.41 42.2595 1038.64 42.1591 1038.83 42ZM1035.85 52.9773C1036.38 52.9773 1036.83 52.8447 1037.21 52.5795C1037.59 52.3144 1037.89 51.9413 1038.09 51.4602C1038.3 50.9754 1038.4 50.4053 1038.4 49.75C1038.4 49.1136 1038.29 48.572 1038.09 48.125C1037.88 47.678 1037.59 47.3371 1037.2 47.1023C1036.82 46.8674 1036.36 46.75 1035.83 46.75C1035.44 46.75 1035.09 46.8163 1034.78 46.9489C1034.47 47.0814 1034.2 47.2765 1033.98 47.5341C1033.76 47.7917 1033.59 48.1061 1033.47 48.4773C1033.35 48.8485 1033.29 49.2727 1033.28 49.75C1033.28 50.7273 1033.51 51.5095 1033.97 52.0966C1034.43 52.6837 1035.06 52.9773 1035.85 52.9773ZM1045.34 54.1818C1044.55 54.1818 1043.86 53.9943 1043.26 53.6193C1042.67 53.2443 1042.21 52.7197 1041.88 52.0455C1041.55 51.3712 1041.38 50.5833 1041.38 49.6818C1041.38 48.7727 1041.55 47.9792 1041.88 47.3011C1042.21 46.6231 1042.67 46.0966 1043.26 45.7216C1043.86 45.3466 1044.55 45.1591 1045.34 45.1591C1046.12 45.1591 1046.81 45.3466 1047.4 45.7216C1048 46.0966 1048.46 46.6231 1048.79 47.3011C1049.12 47.9792 1049.29 48.7727 1049.29 49.6818C1049.29 50.5833 1049.12 51.3712 1048.79 52.0455C1048.46 52.7197 1048 53.2443 1047.4 53.6193C1046.81 53.9943 1046.12 54.1818 1045.34 54.1818ZM1045.34 52.9773C1045.93 52.9773 1046.43 52.8239 1046.81 52.517C1047.2 52.2102 1047.48 51.8068 1047.67 51.3068C1047.86 50.8068 1047.95 50.2652 1047.95 49.6818C1047.95 49.0985 1047.86 48.5549 1047.67 48.0511C1047.48 47.5473 1047.2 47.1402 1046.81 46.8295C1046.43 46.5189 1045.93 46.3636 1045.34 46.3636C1044.74 46.3636 1044.24 46.5189 1043.86 46.8295C1043.47 47.1402 1043.19 47.5473 1043 48.0511C1042.81 48.5549 1042.72 49.0985 1042.72 49.6818C1042.72 50.2652 1042.81 50.8068 1043 51.3068C1043.19 51.8068 1043.47 52.2102 1043.86 52.517C1044.24 52.8239 1044.74 52.9773 1045.34 52.9773ZM1050.2 46.5227V45.2727H1057.29V46.5227H1054.42V54H1053.08V46.5227H1050.2ZM1060.4 48.4318H1062.9C1063.92 48.4318 1064.71 48.6913 1065.25 49.2102C1065.79 49.7292 1066.06 50.3864 1066.06 51.1818C1066.06 51.7045 1065.94 52.1799 1065.7 52.608C1065.46 53.0322 1065.1 53.3712 1064.63 53.625C1064.16 53.875 1063.58 54 1062.9 54H1059.24V45.2727H1060.58V52.75H1062.9C1063.43 52.75 1063.87 52.6098 1064.21 52.3295C1064.55 52.0492 1064.72 51.6894 1064.72 51.25C1064.72 50.7879 1064.55 50.411 1064.21 50.1193C1063.87 49.8277 1063.43 49.6818 1062.9 49.6818H1060.4V48.4318ZM1067.45 54V45.2727H1068.79V54H1067.45ZM1081.58 49.0227V50.2727H1076.77V49.0227H1081.58ZM1077.08 45.2727V54H1075.74V45.2727H1077.08ZM1082.61 45.2727V54H1081.27V45.2727H1082.61ZM1087.62 54.2045C1087.07 54.2045 1086.57 54.1004 1086.12 53.892C1085.67 53.6799 1085.31 53.375 1085.04 52.9773C1084.78 52.5758 1084.65 52.0909 1084.65 51.5227C1084.65 51.0227 1084.74 50.6174 1084.94 50.3068C1085.14 49.9924 1085.4 49.7462 1085.73 49.5682C1086.06 49.3902 1086.42 49.2576 1086.82 49.1705C1087.22 49.0795 1087.63 49.0076 1088.03 48.9545C1088.56 48.8864 1088.99 48.8352 1089.32 48.8011C1089.66 48.7633 1089.9 48.7008 1090.05 48.6136C1090.21 48.5265 1090.28 48.375 1090.28 48.1591V48.1136C1090.28 47.553 1090.13 47.1174 1089.82 46.8068C1089.52 46.4962 1089.06 46.3409 1088.44 46.3409C1087.8 46.3409 1087.3 46.4811 1086.94 46.7614C1086.57 47.0417 1086.32 47.3409 1086.17 47.6591L1084.9 47.2045C1085.12 46.6742 1085.43 46.2614 1085.81 45.9659C1086.19 45.6667 1086.6 45.4583 1087.06 45.3409C1087.51 45.2197 1087.96 45.1591 1088.4 45.1591C1088.68 45.1591 1089 45.1932 1089.36 45.2614C1089.73 45.3258 1090.08 45.4602 1090.42 45.6648C1090.77 45.8693 1091.06 46.178 1091.28 46.5909C1091.51 47.0038 1091.62 47.5568 1091.62 48.25V54H1090.28V52.8182H1090.21C1090.12 53.0076 1089.97 53.2102 1089.76 53.4261C1089.55 53.642 1089.27 53.8258 1088.91 53.9773C1088.56 54.1288 1088.13 54.2045 1087.62 54.2045ZM1087.83 53C1088.36 53 1088.81 52.8958 1089.17 52.6875C1089.54 52.4792 1089.81 52.2102 1090 51.8807C1090.19 51.5511 1090.28 51.2045 1090.28 50.8409V49.6136C1090.23 49.6818 1090.1 49.7443 1089.91 49.8011C1089.72 49.8542 1089.5 49.9015 1089.25 49.9432C1089 49.9811 1088.76 50.0152 1088.53 50.0455C1088.3 50.072 1088.11 50.0947 1087.96 50.1136C1087.62 50.1591 1087.29 50.233 1086.99 50.3352C1086.69 50.4337 1086.45 50.5833 1086.26 50.7841C1086.08 50.9811 1085.99 51.25 1085.99 51.5909C1085.99 52.0568 1086.16 52.4091 1086.5 52.6477C1086.85 52.8826 1087.29 53 1087.83 53ZM1093.14 56.5V52.75H1093.87C1094.04 52.5644 1094.2 52.3636 1094.33 52.1477C1094.46 51.9318 1094.57 51.6761 1094.66 51.3807C1094.76 51.0814 1094.84 50.7178 1094.91 50.2898C1094.98 49.858 1095.04 49.3371 1095.09 48.7273L1095.39 45.2727H1100.93V52.75H1102.28V56.5H1100.93V54H1094.48V56.5H1093.14ZM1095.39 52.75H1099.59V46.5227H1096.64L1096.41 48.7273C1096.32 49.6402 1096.2 50.4375 1096.06 51.1193C1095.92 51.8011 1095.7 52.3447 1095.39 52.75ZM1108.56 54V45.2727H1115.42V54H1114.08V46.5227H1109.9V54H1108.56ZM1117.87 57.2727V45.2727H1119.16V46.6591H1119.32C1119.42 46.5076 1119.56 46.3144 1119.73 46.0795C1119.91 45.8409 1120.16 45.6288 1120.49 45.4432C1120.83 45.2538 1121.28 45.1591 1121.85 45.1591C1122.58 45.1591 1123.23 45.3428 1123.79 45.7102C1124.35 46.0777 1124.79 46.5985 1125.1 47.2727C1125.42 47.947 1125.57 48.7424 1125.57 49.6591C1125.57 50.5833 1125.42 51.3845 1125.1 52.0625C1124.79 52.7367 1124.35 53.2595 1123.79 53.6307C1123.24 53.9981 1122.6 54.1818 1121.87 54.1818C1121.31 54.1818 1120.86 54.089 1120.52 53.9034C1120.18 53.714 1119.92 53.5 1119.74 53.2614C1119.56 53.0189 1119.42 52.8182 1119.32 52.6591H1119.21V57.2727H1117.87ZM1119.19 49.6364C1119.19 50.2955 1119.28 50.8769 1119.48 51.3807C1119.67 51.8807 1119.95 52.2727 1120.32 52.5568C1120.69 52.8371 1121.15 52.9773 1121.69 52.9773C1122.25 52.9773 1122.71 52.8295 1123.09 52.5341C1123.47 52.2348 1123.75 51.8333 1123.94 51.3295C1124.13 50.822 1124.23 50.2576 1124.23 49.6364C1124.23 49.0227 1124.14 48.4697 1123.95 47.9773C1123.76 47.4811 1123.48 47.089 1123.1 46.8011C1122.73 46.5095 1122.25 46.3636 1121.69 46.3636C1121.14 46.3636 1120.68 46.5019 1120.31 46.7784C1119.94 47.0511 1119.66 47.4337 1119.47 47.9261C1119.28 48.4148 1119.19 48.9848 1119.19 49.6364ZM1131.16 54.1818C1130.38 54.1818 1129.68 53.9943 1129.09 53.6193C1128.5 53.2443 1128.04 52.7197 1127.7 52.0455C1127.37 51.3712 1127.21 50.5833 1127.21 49.6818C1127.21 48.7727 1127.37 47.9792 1127.7 47.3011C1128.04 46.6231 1128.5 46.0966 1129.09 45.7216C1129.68 45.3466 1130.38 45.1591 1131.16 45.1591C1131.95 45.1591 1132.64 45.3466 1133.23 45.7216C1133.83 46.0966 1134.29 46.6231 1134.62 47.3011C1134.95 47.9792 1135.12 48.7727 1135.12 49.6818C1135.12 50.5833 1134.95 51.3712 1134.62 52.0455C1134.29 52.7197 1133.83 53.2443 1133.23 53.6193C1132.64 53.9943 1131.95 54.1818 1131.16 54.1818ZM1131.16 52.9773C1131.76 52.9773 1132.25 52.8239 1132.64 52.517C1133.03 52.2102 1133.31 51.8068 1133.5 51.3068C1133.68 50.8068 1133.78 50.2652 1133.78 49.6818C1133.78 49.0985 1133.68 48.5549 1133.5 48.0511C1133.31 47.5473 1133.03 47.1402 1132.64 46.8295C1132.25 46.5189 1131.76 46.3636 1131.16 46.3636C1130.56 46.3636 1130.07 46.5189 1129.69 46.8295C1129.3 47.1402 1129.01 47.5473 1128.83 48.0511C1128.64 48.5549 1128.55 49.0985 1128.55 49.6818C1128.55 50.2652 1128.64 50.8068 1128.83 51.3068C1129.01 51.8068 1129.3 52.2102 1129.69 52.517C1130.07 52.8239 1130.56 52.9773 1131.16 52.9773ZM1140.82 54.1818C1139.98 54.1818 1139.26 53.9962 1138.65 53.625C1138.04 53.25 1137.57 52.7273 1137.24 52.0568C1136.92 51.3826 1136.76 50.5985 1136.76 49.7045C1136.76 48.8106 1136.92 48.0227 1137.24 47.3409C1137.57 46.6553 1138.03 46.1212 1138.62 45.7386C1139.21 45.3523 1139.9 45.1591 1140.69 45.1591C1141.14 45.1591 1141.59 45.2348 1142.03 45.3864C1142.48 45.5379 1142.88 45.7841 1143.24 46.125C1143.61 46.4621 1143.9 46.9091 1144.11 47.4659C1144.33 48.0227 1144.44 48.7083 1144.44 49.5227V50.0909H1137.71V48.9318H1143.07C1143.07 48.4394 1142.98 48 1142.78 47.6136C1142.59 47.2273 1142.31 46.9223 1141.95 46.6989C1141.59 46.4754 1141.17 46.3636 1140.69 46.3636C1140.15 46.3636 1139.69 46.4962 1139.3 46.7614C1138.91 47.0227 1138.62 47.3636 1138.41 47.7841C1138.2 48.2045 1138.1 48.6553 1138.1 49.1364V49.9091C1138.1 50.5682 1138.21 51.1269 1138.44 51.5852C1138.67 52.0398 1138.99 52.3864 1139.4 52.625C1139.81 52.8598 1140.28 52.9773 1140.82 52.9773C1141.18 52.9773 1141.49 52.928 1141.78 52.8295C1142.07 52.7273 1142.31 52.5758 1142.52 52.375C1142.73 52.1705 1142.89 51.9167 1143.01 51.6136L1144.3 51.9773C1144.16 52.4167 1143.94 52.803 1143.61 53.1364C1143.29 53.4659 1142.89 53.7235 1142.42 53.9091C1141.95 54.0909 1141.41 54.1818 1140.82 54.1818ZM1146.48 54V45.2727H1147.82V49.0682H1148.7L1151.84 45.2727H1153.57L1150.05 49.4773L1153.61 54H1151.89L1149.02 50.3182H1147.82V54H1146.48ZM1154.57 46.5227V45.2727H1161.66V46.5227H1158.8V54H1157.46V46.5227H1154.57ZM1166.71 54.1818C1165.92 54.1818 1165.23 53.9943 1164.64 53.6193C1164.05 53.2443 1163.58 52.7197 1163.25 52.0455C1162.92 51.3712 1162.76 50.5833 1162.76 49.6818C1162.76 48.7727 1162.92 47.9792 1163.25 47.3011C1163.58 46.6231 1164.05 46.0966 1164.64 45.7216C1165.23 45.3466 1165.92 45.1591 1166.71 45.1591C1167.5 45.1591 1168.19 45.3466 1168.78 45.7216C1169.37 46.0966 1169.84 46.6231 1170.16 47.3011C1170.5 47.9792 1170.66 48.7727 1170.66 49.6818C1170.66 50.5833 1170.5 51.3712 1170.16 52.0455C1169.84 52.7197 1169.37 53.2443 1168.78 53.6193C1168.19 53.9943 1167.5 54.1818 1166.71 54.1818ZM1166.71 52.9773C1167.31 52.9773 1167.8 52.8239 1168.19 52.517C1168.57 52.2102 1168.86 51.8068 1169.05 51.3068C1169.23 50.8068 1169.32 50.2652 1169.32 49.6818C1169.32 49.0985 1169.23 48.5549 1169.05 48.0511C1168.86 47.5473 1168.57 47.1402 1168.19 46.8295C1167.8 46.5189 1167.31 46.3636 1166.71 46.3636C1166.11 46.3636 1165.62 46.5189 1165.23 46.8295C1164.85 47.1402 1164.56 47.5473 1164.38 48.0511C1164.19 48.5549 1164.1 49.0985 1164.1 49.6818C1164.1 50.2652 1164.19 50.8068 1164.38 51.3068C1164.56 51.8068 1164.85 52.2102 1165.23 52.517C1165.62 52.8239 1166.11 52.9773 1166.71 52.9773ZM1177.48 52.1818L1180.53 45.2727H1181.8L1178.03 54H1176.94L1173.23 45.2727H1174.48L1177.48 52.1818ZM1174.05 45.2727V54H1172.71V45.2727H1174.05ZM1180.92 54V45.2727H1182.26V54H1180.92ZM1186.71 52.4091L1186.62 53.0227C1186.56 53.4545 1186.46 53.9167 1186.33 54.4091C1186.2 54.9015 1186.06 55.3655 1185.92 55.8011C1185.78 56.2367 1185.67 56.5833 1185.58 56.8409H1184.55C1184.6 56.5985 1184.67 56.2784 1184.75 55.8807C1184.83 55.483 1184.9 55.0379 1184.98 54.5455C1185.07 54.0568 1185.14 53.5568 1185.19 53.0455L1185.26 52.4091H1186.71ZM1193.7 54V45.2727H1200.56V54H1199.22V46.5227H1195.04V54H1193.7ZM1206.55 54.1818C1205.77 54.1818 1205.07 53.9943 1204.48 53.6193C1203.89 53.2443 1203.43 52.7197 1203.09 52.0455C1202.76 51.3712 1202.6 50.5833 1202.6 49.6818C1202.6 48.7727 1202.76 47.9792 1203.09 47.3011C1203.43 46.6231 1203.89 46.0966 1204.48 45.7216C1205.07 45.3466 1205.77 45.1591 1206.55 45.1591C1207.34 45.1591 1208.03 45.3466 1208.62 45.7216C1209.22 46.0966 1209.68 46.6231 1210.01 47.3011C1210.34 47.9792 1210.51 48.7727 1210.51 49.6818C1210.51 50.5833 1210.34 51.3712 1210.01 52.0455C1209.68 52.7197 1209.22 53.2443 1208.62 53.6193C1208.03 53.9943 1207.34 54.1818 1206.55 54.1818ZM1206.55 52.9773C1207.15 52.9773 1207.64 52.8239 1208.03 52.517C1208.42 52.2102 1208.7 51.8068 1208.89 51.3068C1209.07 50.8068 1209.17 50.2652 1209.17 49.6818C1209.17 49.0985 1209.07 48.5549 1208.89 48.0511C1208.7 47.5473 1208.42 47.1402 1208.03 46.8295C1207.64 46.5189 1207.15 46.3636 1206.55 46.3636C1205.96 46.3636 1205.46 46.5189 1205.08 46.8295C1204.69 47.1402 1204.4 47.5473 1204.22 48.0511C1204.03 48.5549 1203.94 49.0985 1203.94 49.6818C1203.94 50.2652 1204.03 50.8068 1204.22 51.3068C1204.4 51.8068 1204.69 52.2102 1205.08 52.517C1205.46 52.8239 1205.96 52.9773 1206.55 52.9773ZM1212.01 51.7727H1213.44C1213.47 52.1667 1213.65 52.4659 1213.98 52.6705C1214.31 52.875 1214.73 52.9773 1215.26 52.9773C1215.8 52.9773 1216.26 52.8674 1216.64 52.6477C1217.02 52.4242 1217.21 52.0644 1217.21 51.5682C1217.21 51.2765 1217.14 51.0227 1217 50.8068C1216.85 50.5871 1216.65 50.4167 1216.39 50.2955C1216.13 50.1742 1215.82 50.1136 1215.46 50.1136H1213.96V48.9091H1215.46C1216 48.9091 1216.39 48.7879 1216.65 48.5455C1216.9 48.303 1217.03 48 1217.03 47.6364C1217.03 47.2462 1216.89 46.9337 1216.62 46.6989C1216.34 46.4602 1215.95 46.3409 1215.44 46.3409C1214.93 46.3409 1214.5 46.4564 1214.16 46.6875C1213.82 46.9148 1213.64 47.2083 1213.62 47.5682H1212.21C1212.23 47.0985 1212.37 46.6837 1212.65 46.3239C1212.92 45.9602 1213.29 45.6761 1213.76 45.4716C1214.23 45.2633 1214.77 45.1591 1215.37 45.1591C1215.99 45.1591 1216.52 45.267 1216.97 45.483C1217.42 45.6951 1217.78 45.9848 1218.02 46.3523C1218.27 46.7159 1218.4 47.1288 1218.4 47.5909C1218.4 48.0833 1218.26 48.4811 1217.98 48.7841C1217.71 49.0871 1217.36 49.303 1216.94 49.4318V49.5227C1217.27 49.5455 1217.56 49.6515 1217.8 49.8409C1218.05 50.0265 1218.24 50.2708 1218.37 50.5739C1218.51 50.8731 1218.58 51.2045 1218.58 51.5682C1218.58 52.0985 1218.44 52.5606 1218.15 52.9545C1217.87 53.3447 1217.48 53.6477 1216.98 53.8636C1216.49 54.0758 1215.92 54.1818 1215.28 54.1818C1214.67 54.1818 1214.11 54.0814 1213.62 53.8807C1213.13 53.6761 1212.75 53.3939 1212.46 53.0341C1212.17 52.6705 1212.03 52.25 1212.01 51.7727ZM1220.46 54V45.2727H1224.03C1224.97 45.2727 1225.72 45.4848 1226.27 45.9091C1226.82 46.3333 1227.1 46.8939 1227.1 47.5909C1227.1 48.1212 1226.94 48.5322 1226.63 48.8239C1226.31 49.1117 1225.91 49.3068 1225.42 49.4091C1225.74 49.4545 1226.05 49.5682 1226.35 49.75C1226.66 49.9318 1226.91 50.1818 1227.12 50.5C1227.32 50.8144 1227.42 51.2008 1227.42 51.6591C1227.42 52.1061 1227.3 52.5057 1227.08 52.858C1226.85 53.2102 1226.52 53.4886 1226.1 53.6932C1225.67 53.8977 1225.17 54 1224.58 54H1220.46ZM1221.73 52.7727H1224.58C1225.04 52.7727 1225.4 52.6629 1225.66 52.4432C1225.92 52.2235 1226.05 51.9242 1226.05 51.5455C1226.05 51.0947 1225.92 50.7405 1225.66 50.483C1225.4 50.2216 1225.04 50.0909 1224.58 50.0909H1221.73V52.7727ZM1221.73 48.9318H1224.03C1224.39 48.9318 1224.7 48.8826 1224.96 48.7841C1225.21 48.6818 1225.41 48.5379 1225.55 48.3523C1225.69 48.1629 1225.76 47.9394 1225.76 47.6818C1225.76 47.3144 1225.6 47.0265 1225.3 46.8182C1224.99 46.6061 1224.57 46.5 1224.03 46.5H1221.73V48.9318ZM1232.99 54.1818C1232.2 54.1818 1231.51 53.9943 1230.92 53.6193C1230.33 53.2443 1229.86 52.7197 1229.53 52.0455C1229.2 51.3712 1229.04 50.5833 1229.04 49.6818C1229.04 48.7727 1229.2 47.9792 1229.53 47.3011C1229.86 46.6231 1230.33 46.0966 1230.92 45.7216C1231.51 45.3466 1232.2 45.1591 1232.99 45.1591C1233.78 45.1591 1234.47 45.3466 1235.06 45.7216C1235.65 46.0966 1236.12 46.6231 1236.45 47.3011C1236.78 47.9792 1236.95 48.7727 1236.95 49.6818C1236.95 50.5833 1236.78 51.3712 1236.45 52.0455C1236.12 52.7197 1235.65 53.2443 1235.06 53.6193C1234.47 53.9943 1233.78 54.1818 1232.99 54.1818ZM1232.99 52.9773C1233.59 52.9773 1234.08 52.8239 1234.47 52.517C1234.86 52.2102 1235.14 51.8068 1235.33 51.3068C1235.51 50.8068 1235.61 50.2652 1235.61 49.6818C1235.61 49.0985 1235.51 48.5549 1235.33 48.0511C1235.14 47.5473 1234.86 47.1402 1234.47 46.8295C1234.08 46.5189 1233.59 46.3636 1232.99 46.3636C1232.39 46.3636 1231.9 46.5189 1231.51 46.8295C1231.13 47.1402 1230.84 47.5473 1230.66 48.0511C1230.47 48.5549 1230.38 49.0985 1230.38 49.6818C1230.38 50.2652 1230.47 50.8068 1230.66 51.3068C1230.84 51.8068 1231.13 52.2102 1231.51 52.517C1231.9 52.8239 1232.39 52.9773 1232.99 52.9773ZM1238.22 54V52.75H1238.54C1238.8 52.75 1239.02 52.6989 1239.19 52.5966C1239.37 52.4905 1239.51 52.3068 1239.61 52.0455C1239.72 51.7803 1239.81 51.4129 1239.86 50.9432C1239.92 50.4697 1239.97 49.8674 1239.99 49.1364L1240.15 45.2727H1245.97V54H1244.63V46.5227H1241.42L1241.29 49.6364C1241.26 50.3523 1241.19 50.983 1241.1 51.5284C1241 52.0701 1240.85 52.5246 1240.66 52.892C1240.46 53.2595 1240.21 53.536 1239.88 53.7216C1239.56 53.9072 1239.16 54 1238.67 54H1238.22ZM1253.68 54V46.5H1251.36C1250.84 46.5 1250.43 46.6212 1250.13 46.8636C1249.83 47.1061 1249.68 47.4394 1249.68 47.8636C1249.68 48.2803 1249.81 48.608 1250.08 48.8466C1250.36 49.0852 1250.73 49.2045 1251.2 49.2045H1254.02V50.4545H1251.2C1250.61 50.4545 1250.1 50.3504 1249.67 50.142C1249.25 49.9337 1248.92 49.6364 1248.69 49.25C1248.46 48.8598 1248.34 48.3977 1248.34 47.8636C1248.34 47.3258 1248.46 46.8636 1248.7 46.4773C1248.95 46.0909 1249.29 45.7936 1249.74 45.5852C1250.2 45.3769 1250.74 45.2727 1251.36 45.2727H1254.95V54H1253.68ZM1247.86 54L1250.34 49.6591H1251.79L1249.32 54H1247.86ZM1261.07 54.1818C1260.23 54.1818 1259.51 53.9962 1258.9 53.625C1258.29 53.25 1257.82 52.7273 1257.49 52.0568C1257.17 51.3826 1257.01 50.5985 1257.01 49.7045C1257.01 48.8106 1257.17 48.0227 1257.49 47.3409C1257.82 46.6553 1258.28 46.1212 1258.87 45.7386C1259.46 45.3523 1260.15 45.1591 1260.94 45.1591C1261.39 45.1591 1261.84 45.2348 1262.28 45.3864C1262.73 45.5379 1263.13 45.7841 1263.49 46.125C1263.86 46.4621 1264.15 46.9091 1264.36 47.4659C1264.58 48.0227 1264.69 48.7083 1264.69 49.5227V50.0909H1257.96V48.9318H1263.32C1263.32 48.4394 1263.23 48 1263.03 47.6136C1262.84 47.2273 1262.56 46.9223 1262.2 46.6989C1261.84 46.4754 1261.42 46.3636 1260.94 46.3636C1260.4 46.3636 1259.94 46.4962 1259.55 46.7614C1259.16 47.0227 1258.87 47.3636 1258.66 47.7841C1258.45 48.2045 1258.35 48.6553 1258.35 49.1364V49.9091C1258.35 50.5682 1258.46 51.1269 1258.69 51.5852C1258.92 52.0398 1259.24 52.3864 1259.65 52.625C1260.06 52.8598 1260.53 52.9773 1261.07 52.9773C1261.43 52.9773 1261.74 52.928 1262.03 52.8295C1262.32 52.7273 1262.56 52.5758 1262.77 52.375C1262.98 52.1705 1263.14 51.9167 1263.26 51.6136L1264.55 51.9773C1264.41 52.4167 1264.19 52.803 1263.86 53.1364C1263.54 53.4659 1263.14 53.7235 1262.67 53.9091C1262.2 54.0909 1261.66 54.1818 1261.07 54.1818ZM1265.91 46.5227V45.2727H1273.01V46.5227H1270.14V54H1268.8V46.5227H1265.91ZM943.227 74V65.2727H950.091V74H948.75V66.5227H944.568V74H943.227ZM956.085 74.1818C955.297 74.1818 954.606 73.9943 954.011 73.6193C953.42 73.2443 952.958 72.7197 952.625 72.0455C952.295 71.3712 952.131 70.5833 952.131 69.6818C952.131 68.7727 952.295 67.9792 952.625 67.3011C952.958 66.6231 953.42 66.0966 954.011 65.7216C954.606 65.3466 955.297 65.1591 956.085 65.1591C956.873 65.1591 957.563 65.3466 958.153 65.7216C958.748 66.0966 959.21 66.6231 959.54 67.3011C959.873 67.9792 960.04 68.7727 960.04 69.6818C960.04 70.5833 959.873 71.3712 959.54 72.0455C959.21 72.7197 958.748 73.2443 958.153 73.6193C957.563 73.9943 956.873 74.1818 956.085 74.1818ZM956.085 72.9773C956.684 72.9773 957.176 72.8239 957.562 72.517C957.949 72.2102 958.235 71.8068 958.42 71.3068C958.606 70.8068 958.699 70.2652 958.699 69.6818C958.699 69.0985 958.606 68.5549 958.42 68.0511C958.235 67.5473 957.949 67.1402 957.562 66.8295C957.176 66.5189 956.684 66.3636 956.085 66.3636C955.487 66.3636 954.994 66.5189 954.608 66.8295C954.222 67.1402 953.936 67.5473 953.75 68.0511C953.564 68.5549 953.472 69.0985 953.472 69.6818C953.472 70.2652 953.564 70.8068 953.75 71.3068C953.936 71.8068 954.222 72.2102 954.608 72.517C954.994 72.8239 955.487 72.9773 956.085 72.9773ZM962.087 74V65.2727H965.655C966.594 65.2727 967.34 65.4848 967.893 65.9091C968.446 66.3333 968.723 66.8939 968.723 67.5909C968.723 68.1212 968.566 68.5322 968.251 68.8239C967.937 69.1117 967.534 69.3068 967.041 69.4091C967.363 69.4545 967.676 69.5682 967.979 69.75C968.286 69.9318 968.539 70.1818 968.74 70.5C968.941 70.8144 969.041 71.2008 969.041 71.6591C969.041 72.1061 968.928 72.5057 968.7 72.858C968.473 73.2102 968.147 73.4886 967.723 73.6932C967.299 73.8977 966.791 74 966.2 74H962.087ZM963.359 72.7727H966.2C966.662 72.7727 967.024 72.6629 967.286 72.4432C967.547 72.2235 967.678 71.9242 967.678 71.5455C967.678 71.0947 967.547 70.7405 967.286 70.483C967.024 70.2216 966.662 70.0909 966.2 70.0909H963.359V72.7727ZM963.359 68.9318H965.655C966.015 68.9318 966.323 68.8826 966.581 68.7841C966.839 68.6818 967.036 68.5379 967.172 68.3523C967.312 68.1629 967.382 67.9394 967.382 67.6818C967.382 67.3144 967.229 67.0265 966.922 66.8182C966.615 66.6061 966.193 66.5 965.655 66.5H963.359V68.9318ZM972.23 68.4318H974.73C975.753 68.4318 976.535 68.6913 977.077 69.2102C977.618 69.7292 977.889 70.3864 977.889 71.1818C977.889 71.7045 977.768 72.1799 977.526 72.608C977.283 73.0322 976.927 73.3712 976.457 73.625C975.988 73.875 975.412 74 974.73 74H971.071V65.2727H972.412V72.75H974.73C975.26 72.75 975.696 72.6098 976.037 72.3295C976.378 72.0492 976.548 71.6894 976.548 71.25C976.548 70.7879 976.378 70.411 976.037 70.1193C975.696 69.8277 975.26 69.6818 974.73 69.6818H972.23V68.4318ZM979.276 74V65.2727H980.616V74H979.276ZM986.616 74.1818C985.798 74.1818 985.094 73.9886 984.503 73.6023C983.912 73.2159 983.457 72.6837 983.139 72.0057C982.821 71.3277 982.662 70.553 982.662 69.6818C982.662 68.7955 982.825 68.0133 983.151 67.3352C983.48 66.6534 983.938 66.1212 984.526 65.7386C985.116 65.3523 985.806 65.1591 986.594 65.1591C987.207 65.1591 987.76 65.2727 988.253 65.5C988.745 65.7273 989.149 66.0455 989.463 66.4545C989.777 66.8636 989.973 67.3409 990.048 67.8864H988.707C988.605 67.4886 988.378 67.1364 988.026 66.8295C987.677 66.5189 987.207 66.3636 986.616 66.3636C986.094 66.3636 985.635 66.5 985.241 66.7727C984.851 67.0417 984.546 67.4223 984.327 67.9148C984.111 68.4034 984.003 68.9773 984.003 69.6364C984.003 70.3106 984.109 70.8977 984.321 71.3977C984.537 71.8977 984.84 72.286 985.23 72.5625C985.624 72.839 986.086 72.9773 986.616 72.9773C986.965 72.9773 987.281 72.9167 987.565 72.7955C987.849 72.6742 988.09 72.5 988.287 72.2727C988.484 72.0455 988.624 71.7727 988.707 71.4545H990.048C989.973 71.9697 989.785 72.4337 989.486 72.8466C989.19 73.2557 988.798 73.5814 988.31 73.8239C987.825 74.0625 987.26 74.1818 986.616 74.1818ZM993.349 72.0227L997.554 65.2727H999.099V74H997.759V67.25L993.577 74H992.009V65.2727H993.349V72.0227ZM1000.37 66.5227V65.2727H1007.46V66.5227H1004.6V74H1003.25V66.5227H1000.37ZM1010.57 68.4318H1013.07C1014.1 68.4318 1014.88 68.6913 1015.42 69.2102C1015.96 69.7292 1016.23 70.3864 1016.23 71.1818C1016.23 71.7045 1016.11 72.1799 1015.87 72.608C1015.63 73.0322 1015.27 73.3712 1014.8 73.625C1014.33 73.875 1013.76 74 1013.07 74H1009.41V65.2727H1010.76V72.75H1013.07C1013.6 72.75 1014.04 72.6098 1014.38 72.3295C1014.72 72.0492 1014.89 71.6894 1014.89 71.25C1014.89 70.7879 1014.72 70.411 1014.38 70.1193C1014.04 69.8277 1013.6 69.6818 1013.07 69.6818H1010.57V68.4318ZM1025.66 66.4091C1025.36 66.4129 1025.05 66.4905 1024.75 66.642C1024.44 66.7936 1024.19 66.9943 1023.98 67.2443C1023.78 67.4905 1023.68 67.7652 1023.68 68.0682H1022.37C1022.37 67.6894 1022.46 67.3258 1022.64 66.9773C1022.82 66.6288 1023.06 66.3182 1023.37 66.0455C1023.68 65.7727 1024.03 65.5568 1024.43 65.3977C1024.83 65.2386 1025.24 65.1591 1025.66 65.1591C1026.46 65.1591 1027.13 65.3598 1027.68 65.7614C1028.24 66.1629 1028.66 66.6932 1028.95 67.3523C1029.24 68.0114 1029.39 68.7273 1029.39 69.5V69.8182C1029.39 70.5871 1029.24 71.303 1028.95 71.9659C1028.66 72.625 1028.24 73.1553 1027.68 73.5568C1027.13 73.9583 1026.46 74.1591 1025.66 74.1591C1025.02 74.1591 1024.46 74.0189 1023.96 73.7386C1023.47 73.4545 1023.08 73.0758 1022.79 72.6023C1022.51 72.1288 1022.37 71.6023 1022.37 71.0227H1023.68C1023.68 71.3523 1023.78 71.661 1023.96 71.9489C1024.15 72.233 1024.4 72.464 1024.69 72.642C1025 72.8163 1025.32 72.9053 1025.66 72.9091C1026.17 72.9053 1026.6 72.7462 1026.96 72.4318C1027.31 72.1174 1027.58 71.7235 1027.77 71.25C1027.95 70.7765 1028.05 70.2992 1028.05 69.8182V69.5C1028.05 69.0076 1027.95 68.5265 1027.77 68.0568C1027.59 67.5833 1027.32 67.1913 1026.96 66.8807C1026.61 66.5701 1026.18 66.4129 1025.66 66.4091ZM1028.59 68.9773V70.2273H1024.77V68.9773H1028.59ZM1034.98 76.9773V62.3636H1036.32V76.9773H1034.98ZM1034.98 74.1818C1034.38 74.1818 1033.85 74.0758 1033.36 73.8636C1032.88 73.6477 1032.46 73.3428 1032.11 72.9489C1031.76 72.5511 1031.49 72.0758 1031.31 71.5227C1031.12 70.9697 1031.02 70.3561 1031.02 69.6818C1031.02 69 1031.12 68.3826 1031.31 67.8295C1031.49 67.2727 1031.76 66.7955 1032.11 66.3977C1032.46 66 1032.88 65.6951 1033.36 65.483C1033.85 65.267 1034.38 65.1591 1034.98 65.1591H1035.38V74.1818H1034.98ZM1034.98 72.9773H1035.2V66.3636H1034.98C1034.53 66.3636 1034.14 66.4545 1033.81 66.6364C1033.48 66.8144 1033.21 67.0587 1032.99 67.3693C1032.78 67.6761 1032.62 68.0284 1032.52 68.4261C1032.41 68.8239 1032.36 69.2424 1032.36 69.6818C1032.36 70.2652 1032.46 70.8068 1032.64 71.3068C1032.83 71.8068 1033.11 72.2102 1033.5 72.517C1033.88 72.8239 1034.38 72.9773 1034.98 72.9773ZM1036.32 74.1818H1035.91V65.1591H1036.32C1036.91 65.1591 1037.45 65.267 1037.93 65.483C1038.42 65.6951 1038.83 66 1039.18 66.3977C1039.53 66.7955 1039.8 67.2727 1039.99 67.8295C1040.18 68.3826 1040.27 69 1040.27 69.6818C1040.27 70.3561 1040.18 70.9697 1039.99 71.5227C1039.8 72.0758 1039.53 72.5511 1039.18 72.9489C1038.83 73.3428 1038.42 73.6477 1037.93 73.8636C1037.45 74.0758 1036.91 74.1818 1036.32 74.1818ZM1036.32 72.9773C1036.77 72.9773 1037.16 72.8902 1037.48 72.7159C1037.81 72.5379 1038.08 72.2955 1038.29 71.9886C1038.51 71.678 1038.67 71.3258 1038.77 70.9318C1038.88 70.5341 1038.93 70.1174 1038.93 69.6818C1038.93 69.0985 1038.84 68.5549 1038.65 68.0511C1038.47 67.5473 1038.18 67.1402 1037.79 66.8295C1037.41 66.5189 1036.92 66.3636 1036.32 66.3636H1036.09V72.9773H1036.32ZM1045.87 76.9773V62.3636H1047.21V76.9773H1045.87ZM1045.87 74.1818C1045.28 74.1818 1044.74 74.0758 1044.25 73.8636C1043.77 73.6477 1043.35 73.3428 1043 72.9489C1042.65 72.5511 1042.39 72.0758 1042.2 71.5227C1042.01 70.9697 1041.91 70.3561 1041.91 69.6818C1041.91 69 1042.01 68.3826 1042.2 67.8295C1042.39 67.2727 1042.65 66.7955 1043 66.3977C1043.35 66 1043.77 65.6951 1044.25 65.483C1044.74 65.267 1045.28 65.1591 1045.87 65.1591H1046.28V74.1818H1045.87ZM1045.87 72.9773H1046.09V66.3636H1045.87C1045.42 66.3636 1045.03 66.4545 1044.7 66.6364C1044.37 66.8144 1044.1 67.0587 1043.88 67.3693C1043.67 67.6761 1043.51 68.0284 1043.41 68.4261C1043.3 68.8239 1043.25 69.2424 1043.25 69.6818C1043.25 70.2652 1043.35 70.8068 1043.53 71.3068C1043.72 71.8068 1044 72.2102 1044.39 72.517C1044.78 72.8239 1045.27 72.9773 1045.87 72.9773ZM1047.21 74.1818H1046.8V65.1591H1047.21C1047.8 65.1591 1048.34 65.267 1048.82 65.483C1049.31 65.6951 1049.72 66 1050.07 66.3977C1050.42 66.7955 1050.69 67.2727 1050.88 67.8295C1051.07 68.3826 1051.16 69 1051.16 69.6818C1051.16 70.3561 1051.07 70.9697 1050.88 71.5227C1050.69 72.0758 1050.42 72.5511 1050.07 72.9489C1049.72 73.3428 1049.31 73.6477 1048.82 73.8636C1048.34 74.0758 1047.8 74.1818 1047.21 74.1818ZM1047.21 72.9773C1047.66 72.9773 1048.05 72.8902 1048.37 72.7159C1048.7 72.5379 1048.97 72.2955 1049.18 71.9886C1049.4 71.678 1049.56 71.3258 1049.66 70.9318C1049.77 70.5341 1049.82 70.1174 1049.82 69.6818C1049.82 69.0985 1049.73 68.5549 1049.54 68.0511C1049.36 67.5473 1049.07 67.1402 1048.68 66.8295C1048.3 66.5189 1047.81 66.3636 1047.21 66.3636H1046.98V72.9773H1047.21ZM1056.87 74.1818C1056.03 74.1818 1055.3 73.9962 1054.69 73.625C1054.09 73.25 1053.62 72.7273 1053.29 72.0568C1052.97 71.3826 1052.8 70.5985 1052.8 69.7045C1052.8 68.8106 1052.97 68.0227 1053.29 67.3409C1053.62 66.6553 1054.08 66.1212 1054.67 65.7386C1055.26 65.3523 1055.95 65.1591 1056.73 65.1591C1057.19 65.1591 1057.64 65.2348 1058.08 65.3864C1058.52 65.5379 1058.93 65.7841 1059.29 66.125C1059.65 66.4621 1059.94 66.9091 1060.16 67.4659C1060.38 68.0227 1060.48 68.7083 1060.48 69.5227V70.0909H1053.76V68.9318H1059.12C1059.12 68.4394 1059.02 68 1058.83 67.6136C1058.63 67.2273 1058.36 66.9223 1058 66.6989C1057.64 66.4754 1057.22 66.3636 1056.73 66.3636C1056.2 66.3636 1055.74 66.4962 1055.35 66.7614C1054.96 67.0227 1054.66 67.3636 1054.46 67.7841C1054.25 68.2045 1054.14 68.6553 1054.14 69.1364V69.9091C1054.14 70.5682 1054.26 71.1269 1054.48 71.5852C1054.72 72.0398 1055.04 72.3864 1055.44 72.625C1055.85 72.8598 1056.33 72.9773 1056.87 72.9773C1057.22 72.9773 1057.54 72.928 1057.83 72.8295C1058.11 72.7273 1058.36 72.5758 1058.57 72.375C1058.78 72.1705 1058.94 71.9167 1059.05 71.6136L1060.35 71.9773C1060.21 72.4167 1059.98 72.803 1059.66 73.1364C1059.34 73.4659 1058.94 73.7235 1058.47 73.9091C1057.99 74.0909 1057.46 74.1818 1056.87 74.1818ZM1062.52 74V65.2727H1063.87V69.0682H1064.75L1067.89 65.2727H1069.62L1066.09 69.4773L1069.66 74H1067.93L1065.07 70.3182H1063.87V74H1062.52ZM1070.62 66.5227V65.2727H1077.71V66.5227H1074.85V74H1073.5V66.5227H1070.62ZM1081.01 72.0227L1085.21 65.2727H1086.76V74H1085.41V67.25L1081.23 74H1079.66V65.2727H1081.01V72.0227ZM1089.21 74V65.2727H1092.78C1093.72 65.2727 1094.47 65.4848 1095.02 65.9091C1095.57 66.3333 1095.85 66.8939 1095.85 67.5909C1095.85 68.1212 1095.69 68.5322 1095.38 68.8239C1095.06 69.1117 1094.66 69.3068 1094.17 69.4091C1094.49 69.4545 1094.8 69.5682 1095.1 69.75C1095.41 69.9318 1095.66 70.1818 1095.87 70.5C1096.07 70.8144 1096.17 71.2008 1096.17 71.6591C1096.17 72.1061 1096.05 72.5057 1095.83 72.858C1095.6 73.2102 1095.27 73.4886 1094.85 73.6932C1094.42 73.8977 1093.92 74 1093.33 74H1089.21ZM1090.48 72.7727H1093.33C1093.79 72.7727 1094.15 72.6629 1094.41 72.4432C1094.67 72.2235 1094.8 71.9242 1094.8 71.5455C1094.8 71.0947 1094.67 70.7405 1094.41 70.483C1094.15 70.2216 1093.79 70.0909 1093.33 70.0909H1090.48V72.7727ZM1090.48 68.9318H1092.78C1093.14 68.9318 1093.45 68.8826 1093.71 68.7841C1093.96 68.6818 1094.16 68.5379 1094.3 68.3523C1094.44 68.1629 1094.51 67.9394 1094.51 67.6818C1094.51 67.3144 1094.35 67.0265 1094.05 66.8182C1093.74 66.6061 1093.32 66.5 1092.78 66.5H1090.48V68.9318ZM1104.04 69.0227V70.2727H1099.22V69.0227H1104.04ZM1099.54 65.2727V74H1098.2V65.2727H1099.54ZM1105.06 65.2727V74H1103.72V65.2727H1105.06ZM1111.05 74.1818C1110.27 74.1818 1109.57 73.9943 1108.98 73.6193C1108.39 73.2443 1107.93 72.7197 1107.59 72.0455C1107.26 71.3712 1107.1 70.5833 1107.1 69.6818C1107.1 68.7727 1107.26 67.9792 1107.59 67.3011C1107.93 66.6231 1108.39 66.0966 1108.98 65.7216C1109.57 65.3466 1110.27 65.1591 1111.05 65.1591C1111.84 65.1591 1112.53 65.3466 1113.12 65.7216C1113.72 66.0966 1114.18 66.6231 1114.51 67.3011C1114.84 67.9792 1115.01 68.7727 1115.01 69.6818C1115.01 70.5833 1114.84 71.3712 1114.51 72.0455C1114.18 72.7197 1113.72 73.2443 1113.12 73.6193C1112.53 73.9943 1111.84 74.1818 1111.05 74.1818ZM1111.05 72.9773C1111.65 72.9773 1112.14 72.8239 1112.53 72.517C1112.92 72.2102 1113.2 71.8068 1113.39 71.3068C1113.57 70.8068 1113.67 70.2652 1113.67 69.6818C1113.67 69.0985 1113.57 68.5549 1113.39 68.0511C1113.2 67.5473 1112.92 67.1402 1112.53 66.8295C1112.14 66.5189 1111.65 66.3636 1111.05 66.3636C1110.46 66.3636 1109.96 66.5189 1109.58 66.8295C1109.19 67.1402 1108.9 67.5473 1108.72 68.0511C1108.53 68.5549 1108.44 69.0985 1108.44 69.6818C1108.44 70.2652 1108.53 70.8068 1108.72 71.3068C1108.9 71.8068 1109.19 72.2102 1109.58 72.517C1109.96 72.8239 1110.46 72.9773 1111.05 72.9773ZM1120.6 74.1818C1119.78 74.1818 1119.08 73.9886 1118.49 73.6023C1117.9 73.2159 1117.44 72.6837 1117.12 72.0057C1116.81 71.3277 1116.65 70.553 1116.65 69.6818C1116.65 68.7955 1116.81 68.0133 1117.13 67.3352C1117.46 66.6534 1117.92 66.1212 1118.51 65.7386C1119.1 65.3523 1119.79 65.1591 1120.58 65.1591C1121.19 65.1591 1121.74 65.2727 1122.24 65.5C1122.73 65.7273 1123.13 66.0455 1123.45 66.4545C1123.76 66.8636 1123.96 67.3409 1124.03 67.8864H1122.69C1122.59 67.4886 1122.36 67.1364 1122.01 66.8295C1121.66 66.5189 1121.19 66.3636 1120.6 66.3636C1120.08 66.3636 1119.62 66.5 1119.23 66.7727C1118.84 67.0417 1118.53 67.4223 1118.31 67.9148C1118.1 68.4034 1117.99 68.9773 1117.99 69.6364C1117.99 70.3106 1118.09 70.8977 1118.31 71.3977C1118.52 71.8977 1118.82 72.286 1119.21 72.5625C1119.61 72.839 1120.07 72.9773 1120.6 72.9773C1120.95 72.9773 1121.27 72.9167 1121.55 72.7955C1121.83 72.6742 1122.07 72.5 1122.27 72.2727C1122.47 72.0455 1122.61 71.7727 1122.69 71.4545H1124.03C1123.96 71.9697 1123.77 72.4337 1123.47 72.8466C1123.17 73.2557 1122.78 73.5814 1122.29 73.8239C1121.81 74.0625 1121.24 74.1818 1120.6 74.1818ZM1125.31 66.5227V65.2727H1132.4V66.5227H1129.53V74H1128.19V66.5227H1125.31ZM1135.51 68.4318H1138.01C1139.03 68.4318 1139.82 68.6913 1140.36 69.2102C1140.9 69.7292 1141.17 70.3864 1141.17 71.1818C1141.17 71.7045 1141.05 72.1799 1140.81 72.608C1140.56 73.0322 1140.21 73.3712 1139.74 73.625C1139.27 73.875 1138.69 74 1138.01 74H1134.35V65.2727H1135.69V72.75H1138.01C1138.54 72.75 1138.98 72.6098 1139.32 72.3295C1139.66 72.0492 1139.83 71.6894 1139.83 71.25C1139.83 70.7879 1139.66 70.411 1139.32 70.1193C1138.98 69.8277 1138.54 69.6818 1138.01 69.6818H1135.51V68.4318ZM1149.05 72.0227L1153.26 65.2727H1154.8V74H1153.46V67.25L1149.28 74H1147.71V65.2727H1149.05V72.0227ZM1161.76 74V65.2727H1163.1V69.0682H1163.99L1167.12 65.2727H1168.85L1165.33 69.4773L1168.89 74H1167.17L1164.3 70.3182H1163.1V74H1161.76ZM1172.92 74.2045C1172.37 74.2045 1171.87 74.1004 1171.41 73.892C1170.96 73.6799 1170.61 73.375 1170.34 72.9773C1170.08 72.5758 1169.94 72.0909 1169.94 71.5227C1169.94 71.0227 1170.04 70.6174 1170.24 70.3068C1170.44 69.9924 1170.7 69.7462 1171.03 69.5682C1171.36 69.3902 1171.72 69.2576 1172.12 69.1705C1172.52 69.0795 1172.92 69.0076 1173.33 68.9545C1173.86 68.8864 1174.29 68.8352 1174.62 68.8011C1174.95 68.7633 1175.2 68.7008 1175.35 68.6136C1175.5 68.5265 1175.58 68.375 1175.58 68.1591V68.1136C1175.58 67.553 1175.43 67.1174 1175.12 66.8068C1174.82 66.4962 1174.36 66.3409 1173.74 66.3409C1173.1 66.3409 1172.6 66.4811 1172.23 66.7614C1171.87 67.0417 1171.61 67.3409 1171.47 67.6591L1170.19 67.2045C1170.42 66.6742 1170.72 66.2614 1171.1 65.9659C1171.48 65.6667 1171.9 65.4583 1172.35 65.3409C1172.81 65.2197 1173.25 65.1591 1173.69 65.1591C1173.97 65.1591 1174.3 65.1932 1174.66 65.2614C1175.03 65.3258 1175.38 65.4602 1175.72 65.6648C1176.07 65.8693 1176.35 66.178 1176.58 66.5909C1176.81 67.0038 1176.92 67.5568 1176.92 68.25V74H1175.58V72.8182H1175.51C1175.42 73.0076 1175.27 73.2102 1175.06 73.4261C1174.84 73.642 1174.56 73.8258 1174.21 73.9773C1173.86 74.1288 1173.43 74.2045 1172.92 74.2045ZM1173.12 73C1173.66 73 1174.1 72.8958 1174.47 72.6875C1174.83 72.4792 1175.11 72.2102 1175.3 71.8807C1175.48 71.5511 1175.58 71.2045 1175.58 70.8409V69.6136C1175.52 69.6818 1175.4 69.7443 1175.2 69.8011C1175.02 69.8542 1174.8 69.9015 1174.55 69.9432C1174.3 69.9811 1174.06 70.0152 1173.82 70.0455C1173.59 70.072 1173.41 70.0947 1173.26 70.1136C1172.91 70.1591 1172.59 70.233 1172.28 70.3352C1171.98 70.4337 1171.74 70.5833 1171.56 70.7841C1171.38 70.9811 1171.28 71.25 1171.28 71.5909C1171.28 72.0568 1171.46 72.4091 1171.8 72.6477C1172.15 72.8826 1172.59 73 1173.12 73ZM1186.1 65.2727V74H1184.75V65.2727H1186.1ZM1185.57 69.4318V70.6818C1185.27 70.7955 1184.97 70.8958 1184.67 70.983C1184.37 71.0663 1184.06 71.1326 1183.73 71.1818C1183.4 71.2273 1183.03 71.25 1182.64 71.25C1181.65 71.25 1180.86 70.983 1180.26 70.4489C1179.67 69.9148 1179.37 69.1136 1179.37 68.0455V65.25H1180.71V68.0455C1180.71 68.4924 1180.79 68.8598 1180.96 69.1477C1181.13 69.4356 1181.37 69.6496 1181.66 69.7898C1181.95 69.9299 1182.28 70 1182.64 70C1183.21 70 1183.72 69.9489 1184.18 69.8466C1184.64 69.7405 1185.11 69.6023 1185.57 69.4318ZM1192.21 74.1818C1191.37 74.1818 1190.65 73.9962 1190.04 73.625C1189.43 73.25 1188.96 72.7273 1188.63 72.0568C1188.31 71.3826 1188.15 70.5985 1188.15 69.7045C1188.15 68.8106 1188.31 68.0227 1188.63 67.3409C1188.96 66.6553 1189.42 66.1212 1190.01 65.7386C1190.6 65.3523 1191.29 65.1591 1192.08 65.1591C1192.53 65.1591 1192.98 65.2348 1193.42 65.3864C1193.87 65.5379 1194.27 65.7841 1194.63 66.125C1195 66.4621 1195.29 66.9091 1195.5 67.4659C1195.72 68.0227 1195.83 68.7083 1195.83 69.5227V70.0909H1189.1V68.9318H1194.46C1194.46 68.4394 1194.37 68 1194.17 67.6136C1193.98 67.2273 1193.7 66.9223 1193.34 66.6989C1192.98 66.4754 1192.56 66.3636 1192.08 66.3636C1191.54 66.3636 1191.08 66.4962 1190.69 66.7614C1190.31 67.0227 1190.01 67.3636 1189.8 67.7841C1189.59 68.2045 1189.49 68.6553 1189.49 69.1364V69.9091C1189.49 70.5682 1189.6 71.1269 1189.83 71.5852C1190.06 72.0398 1190.38 72.3864 1190.79 72.625C1191.2 72.8598 1191.67 72.9773 1192.21 72.9773C1192.57 72.9773 1192.88 72.928 1193.17 72.8295C1193.46 72.7273 1193.71 72.5758 1193.91 72.375C1194.12 72.1705 1194.28 71.9167 1194.4 71.6136L1195.69 71.9773C1195.56 72.4167 1195.33 72.803 1195 73.1364C1194.68 73.4659 1194.28 73.7235 1193.81 73.9091C1193.34 74.0909 1192.81 74.1818 1192.21 74.1818ZM1201.41 74.1818C1200.6 74.1818 1199.89 73.9886 1199.3 73.6023C1198.71 73.2159 1198.25 72.6837 1197.94 72.0057C1197.62 71.3277 1197.46 70.553 1197.46 69.6818C1197.46 68.7955 1197.62 68.0133 1197.95 67.3352C1198.28 66.6534 1198.74 66.1212 1199.32 65.7386C1199.91 65.3523 1200.6 65.1591 1201.39 65.1591C1202 65.1591 1202.56 65.2727 1203.05 65.5C1203.54 65.7273 1203.95 66.0455 1204.26 66.4545C1204.57 66.8636 1204.77 67.3409 1204.85 67.8864H1203.5C1203.4 67.4886 1203.17 67.1364 1202.82 66.8295C1202.47 66.5189 1202 66.3636 1201.41 66.3636C1200.89 66.3636 1200.43 66.5 1200.04 66.7727C1199.65 67.0417 1199.34 67.4223 1199.12 67.9148C1198.91 68.4034 1198.8 68.9773 1198.8 69.6364C1198.8 70.3106 1198.91 70.8977 1199.12 71.3977C1199.33 71.8977 1199.64 72.286 1200.03 72.5625C1200.42 72.839 1200.88 72.9773 1201.41 72.9773C1201.76 72.9773 1202.08 72.9167 1202.36 72.7955C1202.65 72.6742 1202.89 72.5 1203.08 72.2727C1203.28 72.0455 1203.42 71.7727 1203.5 71.4545H1204.85C1204.77 71.9697 1204.58 72.4337 1204.28 72.8466C1203.99 73.2557 1203.6 73.5814 1203.11 73.8239C1202.62 74.0625 1202.06 74.1818 1201.41 74.1818ZM1206.12 66.5227V65.2727H1213.21V66.5227H1210.35V74H1209V66.5227H1206.12ZM1215.16 74V65.2727H1218.73C1219.67 65.2727 1220.42 65.4848 1220.97 65.9091C1221.52 66.3333 1221.8 66.8939 1221.8 67.5909C1221.8 68.1212 1221.64 68.5322 1221.33 68.8239C1221.02 69.1117 1220.61 69.3068 1220.12 69.4091C1220.44 69.4545 1220.75 69.5682 1221.06 69.75C1221.36 69.9318 1221.62 70.1818 1221.82 70.5C1222.02 70.8144 1222.12 71.2008 1222.12 71.6591C1222.12 72.1061 1222.01 72.5057 1221.78 72.858C1221.55 73.2102 1221.23 73.4886 1220.8 73.6932C1220.38 73.8977 1219.87 74 1219.28 74H1215.16ZM1216.44 72.7727H1219.28C1219.74 72.7727 1220.1 72.6629 1220.36 72.4432C1220.63 72.2235 1220.76 71.9242 1220.76 71.5455C1220.76 71.0947 1220.63 70.7405 1220.36 70.483C1220.1 70.2216 1219.74 70.0909 1219.28 70.0909H1216.44V72.7727ZM1216.44 68.9318H1218.73C1219.09 68.9318 1219.4 68.8826 1219.66 68.7841C1219.92 68.6818 1220.11 68.5379 1220.25 68.3523C1220.39 68.1629 1220.46 67.9394 1220.46 67.6818C1220.46 67.3144 1220.31 67.0265 1220 66.8182C1219.69 66.6061 1219.27 66.5 1218.73 66.5H1216.44V68.9318ZM1227.69 74.1818C1226.91 74.1818 1226.22 73.9943 1225.62 73.6193C1225.03 73.2443 1224.57 72.7197 1224.23 72.0455C1223.9 71.3712 1223.74 70.5833 1223.74 69.6818C1223.74 68.7727 1223.9 67.9792 1224.23 67.3011C1224.57 66.6231 1225.03 66.0966 1225.62 65.7216C1226.22 65.3466 1226.91 65.1591 1227.69 65.1591C1228.48 65.1591 1229.17 65.3466 1229.76 65.7216C1230.36 66.0966 1230.82 66.6231 1231.15 67.3011C1231.48 67.9792 1231.65 68.7727 1231.65 69.6818C1231.65 70.5833 1231.48 71.3712 1231.15 72.0455C1230.82 72.7197 1230.36 73.2443 1229.76 73.6193C1229.17 73.9943 1228.48 74.1818 1227.69 74.1818ZM1227.69 72.9773C1228.29 72.9773 1228.79 72.8239 1229.17 72.517C1229.56 72.2102 1229.84 71.8068 1230.03 71.3068C1230.22 70.8068 1230.31 70.2652 1230.31 69.6818C1230.31 69.0985 1230.22 68.5549 1230.03 68.0511C1229.84 67.5473 1229.56 67.1402 1229.17 66.8295C1228.79 66.5189 1228.29 66.3636 1227.69 66.3636C1227.1 66.3636 1226.6 66.5189 1226.22 66.8295C1225.83 67.1402 1225.54 67.5473 1225.36 68.0511C1225.17 68.5549 1225.08 69.0985 1225.08 69.6818C1225.08 70.2652 1225.17 70.8068 1225.36 71.3068C1225.54 71.8068 1225.83 72.2102 1226.22 72.517C1226.6 72.8239 1227.1 72.9773 1227.69 72.9773ZM1238.2 77.2727V65.2727H1239.49V66.6591H1239.65C1239.75 66.5076 1239.89 66.3144 1240.06 66.0795C1240.24 65.8409 1240.49 65.6288 1240.82 65.4432C1241.15 65.2538 1241.61 65.1591 1242.17 65.1591C1242.91 65.1591 1243.56 65.3428 1244.12 65.7102C1244.68 66.0777 1245.11 66.5985 1245.43 67.2727C1245.74 67.947 1245.9 68.7424 1245.9 69.6591C1245.9 70.5833 1245.74 71.3845 1245.43 72.0625C1245.11 72.7367 1244.68 73.2595 1244.12 73.6307C1243.57 73.9981 1242.92 74.1818 1242.2 74.1818C1241.64 74.1818 1241.19 74.089 1240.85 73.9034C1240.51 73.714 1240.25 73.5 1240.07 73.2614C1239.89 73.0189 1239.75 72.8182 1239.65 72.6591H1239.54V77.2727H1238.2ZM1239.51 69.6364C1239.51 70.2955 1239.61 70.8769 1239.8 71.3807C1240 71.8807 1240.28 72.2727 1240.65 72.5568C1241.02 72.8371 1241.48 72.9773 1242.01 72.9773C1242.57 72.9773 1243.04 72.8295 1243.42 72.5341C1243.8 72.2348 1244.08 71.8333 1244.27 71.3295C1244.46 70.822 1244.56 70.2576 1244.56 69.6364C1244.56 69.0227 1244.46 68.4697 1244.28 67.9773C1244.09 67.4811 1243.81 67.089 1243.43 66.8011C1243.05 66.5095 1242.58 66.3636 1242.01 66.3636C1241.47 66.3636 1241.01 66.5019 1240.64 66.7784C1240.27 67.0511 1239.99 67.4337 1239.8 67.9261C1239.61 68.4148 1239.51 68.9848 1239.51 69.6364ZM1250.51 74.2045C1249.96 74.2045 1249.46 74.1004 1249.01 73.892C1248.56 73.6799 1248.2 73.375 1247.93 72.9773C1247.67 72.5758 1247.54 72.0909 1247.54 71.5227C1247.54 71.0227 1247.64 70.6174 1247.83 70.3068C1248.03 69.9924 1248.29 69.7462 1248.62 69.5682C1248.95 69.3902 1249.32 69.2576 1249.71 69.1705C1250.11 69.0795 1250.52 69.0076 1250.92 68.9545C1251.45 68.8864 1251.88 68.8352 1252.21 68.8011C1252.55 68.7633 1252.79 68.7008 1252.94 68.6136C1253.1 68.5265 1253.17 68.375 1253.17 68.1591V68.1136C1253.17 67.553 1253.02 67.1174 1252.71 66.8068C1252.41 66.4962 1251.95 66.3409 1251.33 66.3409C1250.69 66.3409 1250.19 66.4811 1249.83 66.7614C1249.46 67.0417 1249.21 67.3409 1249.06 67.6591L1247.79 67.2045C1248.01 66.6742 1248.32 66.2614 1248.7 65.9659C1249.08 65.6667 1249.5 65.4583 1249.95 65.3409C1250.4 65.2197 1250.85 65.1591 1251.29 65.1591C1251.57 65.1591 1251.89 65.1932 1252.25 65.2614C1252.62 65.3258 1252.97 65.4602 1253.32 65.6648C1253.66 65.8693 1253.95 66.178 1254.17 66.5909C1254.4 67.0038 1254.51 67.5568 1254.51 68.25V74H1253.17V72.8182H1253.11C1253.01 73.0076 1252.86 73.2102 1252.65 73.4261C1252.44 73.642 1252.16 73.8258 1251.8 73.9773C1251.45 74.1288 1251.02 74.2045 1250.51 74.2045ZM1250.72 73C1251.25 73 1251.7 72.8958 1252.06 72.6875C1252.43 72.4792 1252.7 72.2102 1252.89 71.8807C1253.08 71.5511 1253.17 71.2045 1253.17 70.8409V69.6136C1253.12 69.6818 1252.99 69.7443 1252.8 69.8011C1252.61 69.8542 1252.39 69.9015 1252.14 69.9432C1251.89 69.9811 1251.65 70.0152 1251.42 70.0455C1251.19 70.072 1251 70.0947 1250.86 70.1136C1250.51 70.1591 1250.18 70.233 1249.88 70.3352C1249.58 70.4337 1249.34 70.5833 1249.15 70.7841C1248.97 70.9811 1248.88 71.25 1248.88 71.5909C1248.88 72.0568 1249.05 72.4091 1249.39 72.6477C1249.74 72.8826 1250.18 73 1250.72 73ZM1263.44 62L1264.12 62.8182C1263.86 63.0758 1263.55 63.2557 1263.2 63.358C1262.85 63.4602 1262.46 63.5227 1262.02 63.5455C1261.58 63.5682 1261.09 63.5909 1260.55 63.6136C1259.95 63.6364 1259.44 63.7841 1259.05 64.0568C1258.65 64.3295 1258.34 64.7235 1258.13 65.2386C1257.91 65.7538 1257.77 66.3864 1257.71 67.1364H1257.83C1258.12 66.5909 1258.53 66.1894 1259.05 65.9318C1259.58 65.6742 1260.14 65.5455 1260.73 65.5455C1261.42 65.5455 1262.03 65.7045 1262.58 66.0227C1263.12 66.3409 1263.55 66.8125 1263.87 67.4375C1264.19 68.0625 1264.35 68.8333 1264.35 69.75C1264.35 70.6629 1264.19 71.4508 1263.86 72.1136C1263.54 72.7765 1263.08 73.2879 1262.5 73.6477C1261.92 74.0038 1261.24 74.1818 1260.46 74.1818C1259.68 74.1818 1259 73.9981 1258.41 73.6307C1257.82 73.2595 1257.37 72.7102 1257.04 71.983C1256.72 71.2519 1256.55 70.3485 1256.55 69.2727V68.3409C1256.55 66.3977 1256.88 64.9242 1257.54 63.9205C1258.2 62.9167 1259.2 62.3977 1260.53 62.3636C1261 62.3485 1261.42 62.3447 1261.79 62.3523C1262.15 62.3598 1262.47 62.3428 1262.75 62.3011C1263.02 62.2595 1263.25 62.1591 1263.44 62ZM1260.46 72.9773C1260.99 72.9773 1261.44 72.8447 1261.82 72.5795C1262.2 72.3144 1262.5 71.9413 1262.7 71.4602C1262.9 70.9754 1263.01 70.4053 1263.01 69.75C1263.01 69.1136 1262.9 68.572 1262.69 68.125C1262.49 67.678 1262.2 67.3371 1261.81 67.1023C1261.43 66.8674 1260.97 66.75 1260.44 66.75C1260.05 66.75 1259.7 66.8163 1259.39 66.9489C1259.08 67.0814 1258.81 67.2765 1258.59 67.5341C1258.37 67.7917 1258.2 68.1061 1258.08 68.4773C1257.96 68.8485 1257.9 69.2727 1257.89 69.75C1257.89 70.7273 1258.12 71.5095 1258.58 72.0966C1259.04 72.6837 1259.67 72.9773 1260.46 72.9773ZM1269.94 74.1818C1269.16 74.1818 1268.47 73.9943 1267.87 73.6193C1267.28 73.2443 1266.82 72.7197 1266.48 72.0455C1266.15 71.3712 1265.99 70.5833 1265.99 69.6818C1265.99 68.7727 1266.15 67.9792 1266.48 67.3011C1266.82 66.6231 1267.28 66.0966 1267.87 65.7216C1268.47 65.3466 1269.16 65.1591 1269.94 65.1591C1270.73 65.1591 1271.42 65.3466 1272.01 65.7216C1272.61 66.0966 1273.07 66.6231 1273.4 67.3011C1273.73 67.9792 1273.9 68.7727 1273.9 69.6818C1273.9 70.5833 1273.73 71.3712 1273.4 72.0455C1273.07 72.7197 1272.61 73.2443 1272.01 73.6193C1271.42 73.9943 1270.73 74.1818 1269.94 74.1818ZM1269.94 72.9773C1270.54 72.9773 1271.04 72.8239 1271.42 72.517C1271.81 72.2102 1272.09 71.8068 1272.28 71.3068C1272.47 70.8068 1272.56 70.2652 1272.56 69.6818C1272.56 69.0985 1272.47 68.5549 1272.28 68.0511C1272.09 67.5473 1271.81 67.1402 1271.42 66.8295C1271.04 66.5189 1270.54 66.3636 1269.94 66.3636C1269.35 66.3636 1268.85 66.5189 1268.47 66.8295C1268.08 67.1402 1267.79 67.5473 1267.61 68.0511C1267.42 68.5549 1267.33 69.0985 1267.33 69.6818C1267.33 70.2652 1267.42 70.8068 1267.61 71.3068C1267.79 71.8068 1268.08 72.2102 1268.47 72.517C1268.85 72.8239 1269.35 72.9773 1269.94 72.9773ZM1274.81 66.5227V65.2727H1281.9V66.5227H1279.03V74H1277.69V66.5227H1274.81ZM1285.01 68.4318H1287.51C1288.53 68.4318 1289.32 68.6913 1289.86 69.2102C1290.4 69.7292 1290.67 70.3864 1290.67 71.1818C1290.67 71.7045 1290.55 72.1799 1290.31 72.608C1290.06 73.0322 1289.71 73.3712 1289.24 73.625C1288.77 73.875 1288.19 74 1287.51 74H1283.85V65.2727H1285.19V72.75H1287.51C1288.04 72.75 1288.48 72.6098 1288.82 72.3295C1289.16 72.0492 1289.33 71.6894 1289.33 71.25C1289.33 70.7879 1289.16 70.411 1288.82 70.1193C1288.48 69.8277 1288.04 69.6818 1287.51 69.6818H1285.01V68.4318ZM1292.06 74V65.2727H1293.4V74H1292.06Z" fill="white"/>
<path d="M6.95 72V18H51.2V72H42.3V26.45H15.85V72H6.95ZM87.0031 73.5C81.9365 73.5 77.6698 72.25 74.2031 69.75C70.7365 67.2167 68.1031 63.8 66.3031 59.5C64.5365 55.1667 63.6531 50.3167 63.6531 44.95C63.6531 39.5167 64.5365 34.65 66.3031 30.35C68.1031 26.05 70.7365 22.6667 74.2031 20.2C77.7031 17.7333 81.9865 16.5 87.0531 16.5C92.0531 16.5 96.3531 17.75 99.9531 20.25C103.586 22.7167 106.37 26.1 108.303 30.4C110.236 34.7 111.203 39.55 111.203 44.95C111.203 50.35 110.236 55.2 108.303 59.5C106.37 63.8 103.586 67.2167 99.9531 69.75C96.3531 72.25 92.0365 73.5 87.0031 73.5ZM62.1531 96V18H70.1031V57.75H71.1031V96H62.1531ZM85.9031 65.35C89.4698 65.35 92.4198 64.45 94.7531 62.65C97.0865 60.85 98.8365 58.4167 100.003 55.35C101.17 52.25 101.753 48.7833 101.753 44.95C101.753 41.15 101.17 37.7167 100.003 34.65C98.8698 31.5833 97.1031 29.15 94.7031 27.35C92.3365 25.55 89.3198 24.65 85.6531 24.65C82.1531 24.65 79.2531 25.5167 76.9531 27.25C74.6531 28.95 72.9365 31.3333 71.8031 34.4C70.6698 37.4333 70.1031 40.95 70.1031 44.95C70.1031 48.8833 70.6531 52.4 71.7531 55.5C72.8865 58.5667 74.6198 60.9833 76.9531 62.75C79.2865 64.4833 82.2698 65.35 85.9031 65.35ZM142.164 73.5C136.797 73.5 132.164 72.2833 128.264 69.85C124.397 67.4167 121.414 64.05 119.314 59.75C117.214 55.45 116.164 50.5167 116.164 44.95C116.164 39.2833 117.231 34.3167 119.364 30.05C121.497 25.7833 124.514 22.4667 128.414 20.1C132.314 17.7 136.897 16.5 142.164 16.5C147.564 16.5 152.214 17.7167 156.114 20.15C160.014 22.55 162.997 25.9 165.064 30.2C167.164 34.4667 168.214 39.3833 168.214 44.95C168.214 50.5833 167.164 55.55 165.064 59.85C162.964 64.1167 159.964 67.4667 156.064 69.9C152.164 72.3 147.531 73.5 142.164 73.5ZM142.164 65.05C147.764 65.05 151.931 63.1833 154.664 59.45C157.397 55.7167 158.764 50.8833 158.764 44.95C158.764 38.85 157.381 34 154.614 30.4C151.847 26.7667 147.697 24.95 142.164 24.95C138.397 24.95 135.297 25.8 132.864 27.5C130.431 29.2 128.614 31.55 127.414 34.55C126.214 37.55 125.614 41.0167 125.614 44.95C125.614 51.0167 127.014 55.8833 129.814 59.55C132.614 63.2167 136.731 65.05 142.164 65.05ZM222.223 82V72H176.173V18H185.073V63.55H211.523V18H220.423V63.9H231.123V82H222.223ZM259.513 73.5C254.213 73.5 249.58 72.3333 245.613 70C241.68 67.6333 238.613 64.35 236.413 60.15C234.213 55.9167 233.113 50.9833 233.113 45.35C233.113 39.45 234.197 34.35 236.363 30.05C238.53 25.7167 241.547 22.3833 245.413 20.05C249.313 17.6833 253.88 16.5 259.113 16.5C264.547 16.5 269.163 17.75 272.963 20.25C276.797 22.75 279.663 26.3167 281.563 30.95C283.497 35.5833 284.33 41.1 284.063 47.5H275.063V44.3C274.963 37.6667 273.613 32.7167 271.013 29.45C268.413 26.15 264.547 24.5 259.413 24.5C253.913 24.5 249.73 26.2667 246.863 29.8C243.997 33.3333 242.563 38.4 242.563 45C242.563 51.3667 243.997 56.3 246.863 59.8C249.73 63.3 253.813 65.05 259.113 65.05C262.68 65.05 265.78 64.2333 268.413 62.6C271.047 60.9667 273.113 58.6167 274.613 55.55L283.163 58.5C281.063 63.2667 277.897 66.9667 273.663 69.6C269.463 72.2 264.747 73.5 259.513 73.5ZM239.563 47.5V40.35H279.463V47.5H239.563ZM314.945 73.5C309.479 73.5 304.829 72.2833 300.995 69.85C297.195 67.3833 294.295 64 292.295 59.7C290.295 55.4 289.262 50.5 289.195 45C289.262 39.3667 290.312 34.4167 292.345 30.15C294.412 25.85 297.362 22.5 301.195 20.1C305.029 17.7 309.645 16.5 315.045 16.5C320.745 16.5 325.645 17.9 329.745 20.7C333.879 23.5 336.645 27.3333 338.045 32.2L329.245 34.85C328.112 31.7167 326.262 29.2833 323.695 27.55C321.162 25.8167 318.245 24.95 314.945 24.95C311.245 24.95 308.195 25.8167 305.795 27.55C303.395 29.25 301.612 31.6167 300.445 34.65C299.279 37.65 298.679 41.1 298.645 45C298.712 51 300.095 55.85 302.795 59.55C305.529 63.2167 309.579 65.05 314.945 65.05C318.479 65.05 321.412 64.25 323.745 62.65C326.079 61.0167 327.845 58.6667 329.045 55.6L338.045 57.95C336.179 62.9833 333.262 66.8333 329.295 69.5C325.329 72.1667 320.545 73.5 314.945 73.5ZM366.535 73.5C361.068 73.5 356.418 72.2833 352.585 69.85C348.785 67.3833 345.885 64 343.885 59.7C341.885 55.4 340.852 50.5 340.785 45C340.852 39.3667 341.902 34.4167 343.935 30.15C346.002 25.85 348.952 22.5 352.785 20.1C356.618 17.7 361.235 16.5 366.635 16.5C372.335 16.5 377.235 17.9 381.335 20.7C385.468 23.5 388.235 27.3333 389.635 32.2L380.835 34.85C379.702 31.7167 377.852 29.2833 375.285 27.55C372.752 25.8167 369.835 24.95 366.535 24.95C362.835 24.95 359.785 25.8167 357.385 27.55C354.985 29.25 353.202 31.6167 352.035 34.65C350.868 37.65 350.268 41.1 350.235 45C350.302 51 351.685 55.85 354.385 59.55C357.118 63.2167 361.168 65.05 366.535 65.05C370.068 65.05 373.002 64.25 375.335 62.65C377.668 61.0167 379.435 58.6667 380.635 55.6L389.635 57.95C387.768 62.9833 384.852 66.8333 380.885 69.5C376.918 72.1667 372.135 73.5 366.535 73.5ZM396.84 72L396.79 18H405.74V37.55H413.99C415.557 37.55 417.157 37.5833 418.79 37.65C420.423 37.7167 421.84 37.8667 423.04 38.1C425.84 38.6667 428.29 39.6167 430.39 40.95C432.49 42.2833 434.123 44.0833 435.29 46.35C436.457 48.6167 437.04 51.4333 437.04 54.8C437.04 59.4667 435.823 63.1667 433.39 65.9C430.99 68.6 427.84 70.4 423.94 71.3C422.607 71.6 421.073 71.8 419.34 71.9C417.64 71.9667 416.023 72 414.49 72H396.84ZM405.74 64.65H414.64C415.64 64.65 416.757 64.6167 417.99 64.55C419.223 64.4833 420.323 64.3167 421.29 64.05C422.99 63.55 424.507 62.5667 425.84 61.1C427.207 59.6333 427.89 57.5333 427.89 54.8C427.89 52.0333 427.223 49.9 425.89 48.4C424.59 46.9 422.873 45.9167 420.74 45.45C419.773 45.2167 418.757 45.0667 417.69 45C416.623 44.9333 415.607 44.9 414.64 44.9H405.74V64.65ZM443.24 72V18H452.14V72H443.24Z" fill="white"/>
</svg>
