<svg width="632" height="632" viewBox="0 0 632 632" fill="none" xmlns="http://www.w3.org/2000/svg">
<rect width="632" height="632" rx="32" fill="#F84D4E"/>
<rect width="632" height="632" rx="32" fill="black" fill-opacity="0.2"/>
<path d="M43.78 99V60.12H48.586V77.265H69.052V60.12H73.858V99H69.052V81.828H48.586V99H43.78ZM92.3523 99.81C89.4543 99.81 86.9523 99.153 84.8463 97.839C82.7583 96.525 81.1473 94.707 80.0133 92.385C78.8793 90.063 78.3123 87.399 78.3123 84.393C78.3123 81.333 78.8883 78.651 80.0403 76.347C81.1923 74.043 82.8213 72.252 84.9273 70.974C87.0333 69.678 89.5083 69.03 92.3523 69.03C95.2683 69.03 97.7793 69.687 99.8853 71.001C101.991 72.297 103.602 74.106 104.718 76.428C105.852 78.732 106.419 81.387 106.419 84.393C106.419 87.435 105.852 90.117 104.718 92.439C103.584 94.743 101.964 96.552 99.8583 97.866C97.7523 99.162 95.2503 99.81 92.3523 99.81ZM92.3523 95.247C95.3763 95.247 97.6263 94.239 99.1023 92.223C100.578 90.207 101.316 87.597 101.316 84.393C101.316 81.099 100.569 78.48 99.0753 76.536C97.5813 74.574 95.3403 73.593 92.3523 73.593C90.3183 73.593 88.6443 74.052 87.3303 74.97C86.0163 75.888 85.0353 77.157 84.3873 78.777C83.7393 80.397 83.4153 82.269 83.4153 84.393C83.4153 87.669 84.1713 90.297 85.6833 92.277C87.1953 94.257 89.4183 95.247 92.3523 95.247ZM127.145 99C125.417 99.342 123.707 99.477 122.015 99.405C120.341 99.351 118.847 99.018 117.533 98.406C116.219 97.776 115.22 96.804 114.536 95.49C113.96 94.338 113.645 93.177 113.591 92.007C113.555 90.819 113.537 89.478 113.537 87.984V61.74H118.343V87.768C118.343 88.956 118.352 89.973 118.37 90.819C118.406 91.665 118.595 92.394 118.937 93.006C119.585 94.158 120.611 94.833 122.015 95.031C123.437 95.229 125.147 95.175 127.145 94.869V99ZM107.624 73.809V69.84H127.145V73.809H107.624ZM142.988 99.81C140.126 99.81 137.624 99.18 135.482 97.92C133.358 96.642 131.702 94.869 130.514 92.601C129.326 90.315 128.732 87.651 128.732 84.609C128.732 81.423 129.317 78.669 130.487 76.347C131.657 74.007 133.286 72.207 135.374 70.947C137.48 69.669 139.946 69.03 142.772 69.03C145.706 69.03 148.199 69.705 150.251 71.055C152.321 72.405 153.869 74.331 154.895 76.833C155.939 79.335 156.389 82.314 156.245 85.77H151.385V84.042C151.331 80.46 150.602 77.787 149.198 76.023C147.794 74.241 145.706 73.35 142.934 73.35C139.964 73.35 137.705 74.304 136.157 76.212C134.609 78.12 133.835 80.856 133.835 84.42C133.835 87.858 134.609 90.522 136.157 92.412C137.705 94.302 139.91 95.247 142.772 95.247C144.698 95.247 146.372 94.806 147.794 93.924C149.216 93.042 150.332 91.773 151.142 90.117L155.759 91.71C154.625 94.284 152.915 96.282 150.629 97.704C148.361 99.108 145.814 99.81 142.988 99.81ZM132.215 85.77V81.909H153.761V85.77H132.215ZM161.297 99V59.31H166.103V99H161.297ZM188.688 99.81C184.818 99.81 181.533 98.955 178.833 97.245C176.133 95.535 174.072 93.159 172.65 90.117C171.246 87.075 170.544 83.556 170.544 79.56C170.544 75.564 171.246 72.045 172.65 69.003C174.072 65.961 176.133 63.585 178.833 61.875C181.533 60.165 184.818 59.31 188.688 59.31C193.188 59.31 196.887 60.453 199.785 62.739C202.701 65.025 204.708 68.103 205.806 71.973L200.919 73.269C200.127 70.371 198.714 68.085 196.68 66.411C194.646 64.737 191.982 63.9 188.688 63.9C185.79 63.9 183.378 64.557 181.452 65.871C179.526 67.185 178.077 69.021 177.105 71.379C176.133 73.719 175.638 76.446 175.62 79.56C175.602 82.656 176.079 85.383 177.051 87.741C178.023 90.081 179.481 91.917 181.425 93.249C183.369 94.563 185.79 95.22 188.688 95.22C191.982 95.22 194.646 94.383 196.68 92.709C198.714 91.017 200.127 88.731 200.919 85.851L205.806 87.147C204.708 90.999 202.701 94.077 199.785 96.381C196.887 98.667 193.188 99.81 188.688 99.81ZM218.516 99.81C216.338 99.81 214.511 99.414 213.035 98.622C211.577 97.812 210.47 96.75 209.714 95.436C208.976 94.122 208.607 92.682 208.607 91.116C208.607 89.586 208.895 88.263 209.471 87.147C210.065 86.013 210.893 85.077 211.955 84.339C213.017 83.583 214.286 82.989 215.762 82.557C217.148 82.179 218.696 81.855 220.406 81.585C222.134 81.297 223.88 81.036 225.644 80.802C227.408 80.568 229.055 80.343 230.585 80.127L228.857 81.126C228.911 78.534 228.389 76.617 227.291 75.375C226.211 74.133 224.339 73.512 221.675 73.512C219.911 73.512 218.363 73.917 217.031 74.727C215.717 75.519 214.79 76.815 214.25 78.615L209.687 77.238C210.389 74.682 211.748 72.675 213.764 71.217C215.78 69.759 218.435 69.03 221.729 69.03C224.375 69.03 226.643 69.507 228.533 70.461C230.441 71.397 231.809 72.819 232.637 74.727C233.051 75.627 233.312 76.608 233.42 77.67C233.528 78.714 233.582 79.812 233.582 80.964V99H229.316V92.007L230.315 92.655C229.217 95.013 227.678 96.795 225.698 98.001C223.736 99.207 221.342 99.81 218.516 99.81ZM219.245 95.787C220.973 95.787 222.467 95.481 223.727 94.869C225.005 94.239 226.031 93.42 226.805 92.412C227.579 91.386 228.083 90.27 228.317 89.064C228.587 88.164 228.731 87.165 228.749 86.067C228.785 84.951 228.803 84.096 228.803 83.502L230.477 84.231C228.911 84.447 227.372 84.654 225.86 84.852C224.348 85.05 222.917 85.266 221.567 85.5C220.217 85.716 219.002 85.977 217.922 86.283C217.13 86.535 216.383 86.859 215.681 87.255C214.997 87.651 214.439 88.164 214.007 88.794C213.593 89.406 213.386 90.171 213.386 91.089C213.386 91.881 213.584 92.637 213.98 93.357C214.394 94.077 215.024 94.662 215.87 95.112C216.734 95.562 217.859 95.787 219.245 95.787ZM239.102 99V69.84H243.395V76.887L242.693 75.969C243.035 75.069 243.476 74.241 244.016 73.485C244.574 72.729 245.195 72.108 245.879 71.622C246.635 71.01 247.49 70.542 248.444 70.218C249.398 69.894 250.37 69.705 251.36 69.651C252.35 69.579 253.277 69.642 254.141 69.84V74.349C253.133 74.079 252.026 74.007 250.82 74.133C249.614 74.259 248.498 74.7 247.472 75.456C246.536 76.122 245.807 76.932 245.285 77.886C244.781 78.84 244.43 79.875 244.232 80.991C244.034 82.089 243.935 83.214 243.935 84.366V99H239.102ZM268.667 99.81C265.949 99.81 263.618 99.135 261.674 97.785C259.73 96.417 258.227 94.572 257.165 92.25C256.121 89.928 255.599 87.309 255.599 84.393C255.599 81.477 256.121 78.858 257.165 76.536C258.227 74.214 259.73 72.387 261.674 71.055C263.618 69.705 265.94 69.03 268.64 69.03C271.394 69.03 273.707 69.696 275.579 71.028C277.451 72.36 278.864 74.187 279.818 76.509C280.79 78.831 281.276 81.459 281.276 84.393C281.276 87.291 280.79 89.91 279.818 92.25C278.864 94.572 277.451 96.417 275.579 97.785C273.707 99.135 271.403 99.81 268.667 99.81ZM269.261 95.409C271.223 95.409 272.834 94.941 274.094 94.005C275.354 93.051 276.281 91.746 276.875 90.09C277.487 88.416 277.793 86.517 277.793 84.393C277.793 82.233 277.487 80.334 276.875 78.696C276.281 77.04 275.363 75.753 274.121 74.835C272.879 73.899 271.304 73.431 269.396 73.431C267.416 73.431 265.778 73.917 264.482 74.889C263.204 75.861 262.25 77.175 261.62 78.831C261.008 80.487 260.702 82.341 260.702 84.393C260.702 86.463 261.017 88.335 261.647 90.009C262.277 91.665 263.222 92.979 264.482 93.951C265.76 94.923 267.353 95.409 269.261 95.409ZM277.793 99V77.535H277.253V60.12H282.086V99H277.793Z" fill="white"/>
<path d="M40.7045 138.875V137.364H49.7102V138.875H46.0795V149H44.3295V138.875H40.7045ZM52.7828 143.818V149H51.0839V137.364H52.7601V141.693H52.868C53.0726 141.223 53.3851 140.85 53.8055 140.574C54.226 140.297 54.7752 140.159 55.4532 140.159C56.0517 140.159 56.5745 140.282 57.0214 140.528C57.4722 140.775 57.8207 141.142 58.0669 141.631C58.3169 142.116 58.4419 142.722 58.4419 143.449V149H56.743V143.653C56.743 143.013 56.5782 142.517 56.2487 142.165C55.9191 141.809 55.4608 141.631 54.8737 141.631C54.4722 141.631 54.1123 141.716 53.7941 141.886C53.4798 142.057 53.2316 142.307 53.0498 142.636C52.8718 142.962 52.7828 143.356 52.7828 143.818ZM63.9903 149.176C63.1304 149.176 62.3899 148.992 61.7687 148.625C61.1513 148.254 60.674 147.733 60.3369 147.062C60.0035 146.388 59.8369 145.598 59.8369 144.693C59.8369 143.799 60.0035 143.011 60.3369 142.33C60.674 141.648 61.1437 141.116 61.746 140.733C62.352 140.35 63.0604 140.159 63.871 140.159C64.3634 140.159 64.8407 140.241 65.3028 140.403C65.7649 140.566 66.1797 140.822 66.5471 141.17C66.9145 141.519 67.2043 141.972 67.4164 142.528C67.6285 143.081 67.7346 143.754 67.7346 144.545V145.148H60.7971V143.875H66.0698C66.0698 143.428 65.9789 143.032 65.7971 142.688C65.6153 142.339 65.3596 142.064 65.0301 141.864C64.7043 141.663 64.3217 141.562 63.8823 141.562C63.4051 141.562 62.9884 141.68 62.6323 141.915C62.2801 142.146 62.0073 142.449 61.8141 142.824C61.6248 143.195 61.5301 143.598 61.5301 144.034V145.028C61.5301 145.612 61.6323 146.108 61.8369 146.517C62.0452 146.926 62.335 147.239 62.7062 147.455C63.0774 147.667 63.5111 147.773 64.0073 147.773C64.3293 147.773 64.6229 147.727 64.888 147.636C65.1532 147.542 65.3823 147.402 65.5755 147.216C65.7687 147.03 65.9164 146.801 66.0187 146.528L67.6266 146.818C67.4979 147.292 67.2668 147.706 66.9335 148.062C66.6039 148.415 66.1891 148.689 65.6891 148.886C65.1929 149.08 64.6266 149.176 63.9903 149.176ZM73.0303 149V137.364H74.7291V141.688H74.8314C74.9299 141.506 75.072 141.295 75.2576 141.057C75.4432 140.818 75.7007 140.61 76.0303 140.432C76.3598 140.25 76.7954 140.159 77.3371 140.159C78.0416 140.159 78.6704 140.337 79.2235 140.693C79.7765 141.049 80.2102 141.562 80.5246 142.233C80.8428 142.903 81.0019 143.71 81.0019 144.653C81.0019 145.597 80.8447 146.405 80.5303 147.08C80.2159 147.75 79.7841 148.267 79.2348 148.631C78.6856 148.991 78.0587 149.17 77.3541 149.17C76.8238 149.17 76.3901 149.081 76.053 148.903C75.7197 148.725 75.4583 148.517 75.2689 148.278C75.0795 148.04 74.9337 147.828 74.8314 147.642H74.6894V149H73.0303ZM74.6951 144.636C74.6951 145.25 74.7841 145.788 74.9621 146.25C75.1401 146.712 75.3977 147.074 75.7348 147.335C76.072 147.593 76.4848 147.722 76.9735 147.722C77.481 147.722 77.9053 147.587 78.2462 147.318C78.5871 147.045 78.8447 146.676 79.0189 146.21C79.197 145.744 79.286 145.22 79.286 144.636C79.286 144.061 79.1988 143.544 79.0246 143.085C78.8541 142.627 78.5966 142.265 78.2519 142C77.911 141.735 77.4848 141.602 76.9735 141.602C76.481 141.602 76.0644 141.729 75.7235 141.983C75.3863 142.237 75.1307 142.591 74.9564 143.045C74.7822 143.5 74.6951 144.03 74.6951 144.636ZM86.1909 149.176C85.3311 149.176 84.5905 148.992 83.9693 148.625C83.3519 148.254 82.8746 147.733 82.5375 147.062C82.2042 146.388 82.0375 145.598 82.0375 144.693C82.0375 143.799 82.2042 143.011 82.5375 142.33C82.8746 141.648 83.3443 141.116 83.9466 140.733C84.5527 140.35 85.261 140.159 86.0716 140.159C86.564 140.159 87.0413 140.241 87.5034 140.403C87.9655 140.566 88.3803 140.822 88.7477 141.17C89.1152 141.519 89.4049 141.972 89.617 142.528C89.8292 143.081 89.9352 143.754 89.9352 144.545V145.148H82.9977V143.875H88.2705C88.2705 143.428 88.1795 143.032 87.9977 142.688C87.8159 142.339 87.5602 142.064 87.2307 141.864C86.9049 141.663 86.5223 141.562 86.083 141.562C85.6057 141.562 85.189 141.68 84.833 141.915C84.4807 142.146 84.208 142.449 84.0148 142.824C83.8254 143.195 83.7307 143.598 83.7307 144.034V145.028C83.7307 145.612 83.833 146.108 84.0375 146.517C84.2458 146.926 84.5356 147.239 84.9068 147.455C85.278 147.667 85.7117 147.773 86.208 147.773C86.5299 147.773 86.8235 147.727 87.0886 147.636C87.3538 147.542 87.583 147.402 87.7761 147.216C87.9693 147.03 88.117 146.801 88.2193 146.528L89.8273 146.818C89.6985 147.292 89.4674 147.706 89.1341 148.062C88.8045 148.415 88.3898 148.689 87.8898 148.886C87.3936 149.08 86.8273 149.176 86.1909 149.176ZM97.8799 142.403L96.3402 142.676C96.2758 142.479 96.1735 142.292 96.0334 142.114C95.897 141.936 95.7114 141.79 95.4765 141.676C95.2417 141.562 94.9481 141.506 94.5959 141.506C94.1148 141.506 93.7133 141.614 93.3913 141.83C93.0693 142.042 92.9084 142.316 92.9084 142.653C92.9084 142.945 93.0163 143.18 93.2322 143.358C93.4481 143.536 93.7966 143.682 94.2777 143.795L95.664 144.114C96.4671 144.299 97.0655 144.585 97.4595 144.972C97.8534 145.358 98.0504 145.86 98.0504 146.477C98.0504 147 97.8989 147.466 97.5959 147.875C97.2966 148.28 96.878 148.598 96.3402 148.83C95.8061 149.061 95.1868 149.176 94.4822 149.176C93.5049 149.176 92.7076 148.968 92.0902 148.551C91.4727 148.131 91.094 147.534 90.9538 146.761L92.5959 146.511C92.6981 146.939 92.9084 147.263 93.2265 147.483C93.5447 147.699 93.9595 147.807 94.4709 147.807C95.0277 147.807 95.4727 147.691 95.8061 147.46C96.1394 147.225 96.3061 146.939 96.3061 146.602C96.3061 146.33 96.2038 146.1 95.9993 145.915C95.7985 145.729 95.4898 145.589 95.0731 145.494L93.5959 145.17C92.7815 144.985 92.1792 144.689 91.789 144.284C91.4027 143.879 91.2095 143.366 91.2095 142.744C91.2095 142.229 91.3534 141.778 91.6413 141.392C91.9292 141.006 92.3269 140.705 92.8345 140.489C93.3421 140.269 93.9235 140.159 94.5788 140.159C95.522 140.159 96.2644 140.364 96.8061 140.773C97.3477 141.178 97.7057 141.722 97.8799 142.403ZM103.512 140.273V141.636H98.7451V140.273H103.512ZM100.024 138.182H101.722V146.438C101.722 146.767 101.772 147.015 101.87 147.182C101.969 147.345 102.095 147.456 102.251 147.517C102.41 147.574 102.582 147.602 102.768 147.602C102.904 147.602 103.024 147.593 103.126 147.574C103.228 147.555 103.308 147.54 103.364 147.528L103.671 148.932C103.573 148.97 103.433 149.008 103.251 149.045C103.069 149.087 102.842 149.11 102.569 149.114C102.122 149.121 101.705 149.042 101.319 148.875C100.933 148.708 100.62 148.451 100.381 148.102C100.143 147.754 100.024 147.316 100.024 146.79V138.182ZM110.365 143.818V149H108.666V137.364H110.342V141.693H110.45C110.654 141.223 110.967 140.85 111.387 140.574C111.808 140.297 112.357 140.159 113.035 140.159C113.634 140.159 114.156 140.282 114.603 140.528C115.054 140.775 115.403 141.142 115.649 141.631C115.899 142.116 116.024 142.722 116.024 143.449V149H114.325V143.653C114.325 143.013 114.16 142.517 113.831 142.165C113.501 141.809 113.043 141.631 112.456 141.631C112.054 141.631 111.694 141.716 111.376 141.886C111.062 142.057 110.814 142.307 110.632 142.636C110.454 142.962 110.365 143.356 110.365 143.818ZM121.487 149.176C120.669 149.176 119.955 148.989 119.345 148.614C118.735 148.239 118.262 147.714 117.924 147.04C117.587 146.366 117.419 145.578 117.419 144.676C117.419 143.771 117.587 142.979 117.924 142.301C118.262 141.623 118.735 141.097 119.345 140.722C119.955 140.347 120.669 140.159 121.487 140.159C122.305 140.159 123.019 140.347 123.629 140.722C124.239 141.097 124.712 141.623 125.049 142.301C125.387 142.979 125.555 143.771 125.555 144.676C125.555 145.578 125.387 146.366 125.049 147.04C124.712 147.714 124.239 148.239 123.629 148.614C123.019 148.989 122.305 149.176 121.487 149.176ZM121.493 147.75C122.023 147.75 122.462 147.61 122.811 147.33C123.159 147.049 123.417 146.676 123.584 146.21C123.754 145.744 123.839 145.231 123.839 144.67C123.839 144.114 123.754 143.602 123.584 143.136C123.417 142.667 123.159 142.29 122.811 142.006C122.462 141.722 122.023 141.58 121.493 141.58C120.959 141.58 120.515 141.722 120.163 142.006C119.815 142.29 119.555 142.667 119.385 143.136C119.218 143.602 119.135 144.114 119.135 144.67C119.135 145.231 119.218 145.744 119.385 146.21C119.555 146.676 119.815 147.049 120.163 147.33C120.515 147.61 120.959 147.75 121.493 147.75ZM131.045 140.273V141.636H126.278V140.273H131.045ZM127.557 138.182H129.256V146.438C129.256 146.767 129.305 147.015 129.403 147.182C129.502 147.345 129.629 147.456 129.784 147.517C129.943 147.574 130.115 147.602 130.301 147.602C130.437 147.602 130.557 147.593 130.659 147.574C130.761 147.555 130.841 147.54 130.898 147.528L131.204 148.932C131.106 148.97 130.966 149.008 130.784 149.045C130.602 149.087 130.375 149.11 130.102 149.114C129.655 149.121 129.238 149.042 128.852 148.875C128.466 148.708 128.153 148.451 127.915 148.102C127.676 147.754 127.557 147.316 127.557 146.79V138.182ZM136.112 149.176C135.252 149.176 134.512 148.992 133.891 148.625C133.273 148.254 132.796 147.733 132.459 147.062C132.125 146.388 131.959 145.598 131.959 144.693C131.959 143.799 132.125 143.011 132.459 142.33C132.796 141.648 133.266 141.116 133.868 140.733C134.474 140.35 135.182 140.159 135.993 140.159C136.485 140.159 136.963 140.241 137.425 140.403C137.887 140.566 138.302 140.822 138.669 141.17C139.036 141.519 139.326 141.972 139.538 142.528C139.75 143.081 139.856 143.754 139.856 144.545V145.148H132.919V143.875H138.192C138.192 143.428 138.101 143.032 137.919 142.688C137.737 142.339 137.481 142.064 137.152 141.864C136.826 141.663 136.444 141.562 136.004 141.562C135.527 141.562 135.11 141.68 134.754 141.915C134.402 142.146 134.129 142.449 133.936 142.824C133.747 143.195 133.652 143.598 133.652 144.034V145.028C133.652 145.612 133.754 146.108 133.959 146.517C134.167 146.926 134.457 147.239 134.828 147.455C135.199 147.667 135.633 147.773 136.129 147.773C136.451 147.773 136.745 147.727 137.01 147.636C137.275 147.542 137.504 147.402 137.697 147.216C137.891 147.03 138.038 146.801 138.141 146.528L139.749 146.818C139.62 147.292 139.389 147.706 139.055 148.062C138.726 148.415 138.311 148.689 137.811 148.886C137.315 149.08 136.749 149.176 136.112 149.176ZM142.96 137.364V149H141.261V137.364H142.96ZM151.787 149.17C151.083 149.17 150.454 148.991 149.901 148.631C149.352 148.267 148.92 147.75 148.605 147.08C148.295 146.405 148.139 145.597 148.139 144.653C148.139 143.71 148.297 142.903 148.611 142.233C148.929 141.562 149.365 141.049 149.918 140.693C150.471 140.337 151.098 140.159 151.799 140.159C152.34 140.159 152.776 140.25 153.105 140.432C153.439 140.61 153.696 140.818 153.878 141.057C154.064 141.295 154.208 141.506 154.31 141.688H154.412V137.364H156.111V149H154.452V147.642H154.31C154.208 147.828 154.06 148.04 153.867 148.278C153.677 148.517 153.416 148.725 153.083 148.903C152.749 149.081 152.318 149.17 151.787 149.17ZM152.162 147.722C152.651 147.722 153.064 147.593 153.401 147.335C153.742 147.074 153.999 146.712 154.174 146.25C154.352 145.788 154.441 145.25 154.441 144.636C154.441 144.03 154.354 143.5 154.179 143.045C154.005 142.591 153.749 142.237 153.412 141.983C153.075 141.729 152.658 141.602 152.162 141.602C151.651 141.602 151.225 141.735 150.884 142C150.543 142.265 150.285 142.627 150.111 143.085C149.941 143.544 149.855 144.061 149.855 144.636C149.855 145.22 149.943 145.744 150.117 146.21C150.291 146.676 150.549 147.045 150.889 147.318C151.234 147.587 151.658 147.722 152.162 147.722ZM161.817 149.176C160.957 149.176 160.217 148.992 159.596 148.625C158.978 148.254 158.501 147.733 158.164 147.062C157.83 146.388 157.664 145.598 157.664 144.693C157.664 143.799 157.83 143.011 158.164 142.33C158.501 141.648 158.971 141.116 159.573 140.733C160.179 140.35 160.887 140.159 161.698 140.159C162.19 140.159 162.668 140.241 163.13 140.403C163.592 140.566 164.007 140.822 164.374 141.17C164.741 141.519 165.031 141.972 165.243 142.528C165.455 143.081 165.561 143.754 165.561 144.545V145.148H158.624V143.875H163.897C163.897 143.428 163.806 143.032 163.624 142.688C163.442 142.339 163.186 142.064 162.857 141.864C162.531 141.663 162.149 141.562 161.709 141.562C161.232 141.562 160.815 141.68 160.459 141.915C160.107 142.146 159.834 142.449 159.641 142.824C159.452 143.195 159.357 143.598 159.357 144.034V145.028C159.357 145.612 159.459 146.108 159.664 146.517C159.872 146.926 160.162 147.239 160.533 147.455C160.904 147.667 161.338 147.773 161.834 147.773C162.156 147.773 162.45 147.727 162.715 147.636C162.98 147.542 163.209 147.402 163.402 147.216C163.596 147.03 163.743 146.801 163.846 146.528L165.454 146.818C165.325 147.292 165.094 147.706 164.76 148.062C164.431 148.415 164.016 148.689 163.516 148.886C163.02 149.08 162.454 149.176 161.817 149.176ZM169.506 149.193C168.953 149.193 168.453 149.091 168.006 148.886C167.559 148.678 167.205 148.377 166.944 147.983C166.686 147.589 166.557 147.106 166.557 146.534C166.557 146.042 166.652 145.636 166.841 145.318C167.031 145 167.287 144.748 167.608 144.562C167.93 144.377 168.29 144.237 168.688 144.142C169.086 144.047 169.491 143.975 169.904 143.926C170.427 143.866 170.851 143.816 171.177 143.778C171.502 143.737 171.739 143.67 171.887 143.58C172.035 143.489 172.108 143.341 172.108 143.136V143.097C172.108 142.6 171.968 142.216 171.688 141.943C171.412 141.67 170.999 141.534 170.449 141.534C169.877 141.534 169.427 141.661 169.097 141.915C168.771 142.165 168.546 142.443 168.421 142.75L166.824 142.386C167.014 141.856 167.29 141.428 167.654 141.102C168.021 140.773 168.444 140.534 168.921 140.386C169.398 140.235 169.9 140.159 170.427 140.159C170.775 140.159 171.144 140.201 171.535 140.284C171.929 140.364 172.296 140.511 172.637 140.727C172.982 140.943 173.264 141.252 173.483 141.653C173.703 142.051 173.813 142.568 173.813 143.205V149H172.154V147.807H172.086C171.976 148.027 171.811 148.242 171.591 148.455C171.372 148.667 171.09 148.843 170.745 148.983C170.4 149.123 169.987 149.193 169.506 149.193ZM169.876 147.83C170.345 147.83 170.747 147.737 171.08 147.551C171.417 147.366 171.673 147.123 171.847 146.824C172.025 146.521 172.114 146.197 172.114 145.852V144.727C172.054 144.788 171.936 144.845 171.762 144.898C171.591 144.947 171.396 144.991 171.177 145.028C170.957 145.062 170.743 145.095 170.535 145.125C170.326 145.152 170.152 145.174 170.012 145.193C169.682 145.235 169.381 145.305 169.108 145.403C168.84 145.502 168.624 145.644 168.461 145.83C168.302 146.011 168.222 146.254 168.222 146.557C168.222 146.977 168.377 147.295 168.688 147.511C168.999 147.723 169.394 147.83 169.876 147.83ZM177.295 137.364V149H175.596V137.364H177.295ZM185.64 142.403L184.1 142.676C184.036 142.479 183.934 142.292 183.793 142.114C183.657 141.936 183.471 141.79 183.237 141.676C183.002 141.562 182.708 141.506 182.356 141.506C181.875 141.506 181.473 141.614 181.151 141.83C180.829 142.042 180.668 142.316 180.668 142.653C180.668 142.945 180.776 143.18 180.992 143.358C181.208 143.536 181.557 143.682 182.038 143.795L183.424 144.114C184.227 144.299 184.826 144.585 185.219 144.972C185.613 145.358 185.81 145.86 185.81 146.477C185.81 147 185.659 147.466 185.356 147.875C185.057 148.28 184.638 148.598 184.1 148.83C183.566 149.061 182.947 149.176 182.242 149.176C181.265 149.176 180.468 148.968 179.85 148.551C179.233 148.131 178.854 147.534 178.714 146.761L180.356 146.511C180.458 146.939 180.668 147.263 180.987 147.483C181.305 147.699 181.719 147.807 182.231 147.807C182.788 147.807 183.233 147.691 183.566 147.46C183.899 147.225 184.066 146.939 184.066 146.602C184.066 146.33 183.964 146.1 183.759 145.915C183.559 145.729 183.25 145.589 182.833 145.494L181.356 145.17C180.541 144.985 179.939 144.689 179.549 144.284C179.163 143.879 178.969 143.366 178.969 142.744C178.969 142.229 179.113 141.778 179.401 141.392C179.689 141.006 180.087 140.705 180.594 140.489C181.102 140.269 181.684 140.159 182.339 140.159C183.282 140.159 184.024 140.364 184.566 140.773C185.108 141.178 185.466 141.722 185.64 142.403ZM190.953 149V140.273H192.652V149H190.953ZM191.811 138.926C191.515 138.926 191.261 138.828 191.049 138.631C190.841 138.43 190.737 138.191 190.737 137.915C190.737 137.634 190.841 137.396 191.049 137.199C191.261 136.998 191.515 136.898 191.811 136.898C192.106 136.898 192.358 136.998 192.566 137.199C192.778 137.396 192.884 137.634 192.884 137.915C192.884 138.191 192.778 138.43 192.566 138.631C192.358 138.828 192.106 138.926 191.811 138.926ZM196.156 143.818V149H194.457V140.273H196.088V141.693H196.196C196.396 141.231 196.711 140.86 197.139 140.58C197.571 140.299 198.114 140.159 198.77 140.159C199.364 140.159 199.885 140.284 200.332 140.534C200.779 140.78 201.126 141.148 201.372 141.636C201.618 142.125 201.741 142.729 201.741 143.449V149H200.042V143.653C200.042 143.021 199.878 142.527 199.548 142.17C199.218 141.811 198.766 141.631 198.19 141.631C197.796 141.631 197.446 141.716 197.139 141.886C196.836 142.057 196.595 142.307 196.417 142.636C196.243 142.962 196.156 143.356 196.156 143.818ZM213.777 140.42C213.716 139.883 213.466 139.466 213.027 139.17C212.587 138.871 212.034 138.722 211.368 138.722C210.891 138.722 210.478 138.797 210.129 138.949C209.781 139.097 209.51 139.301 209.317 139.562C209.127 139.82 209.033 140.114 209.033 140.443C209.033 140.72 209.097 140.958 209.226 141.159C209.358 141.36 209.531 141.528 209.743 141.665C209.959 141.797 210.19 141.909 210.436 142C210.682 142.087 210.919 142.159 211.146 142.216L212.283 142.511C212.654 142.602 213.034 142.725 213.425 142.881C213.815 143.036 214.176 143.241 214.51 143.494C214.843 143.748 215.112 144.062 215.317 144.438C215.525 144.812 215.629 145.261 215.629 145.784C215.629 146.443 215.459 147.028 215.118 147.54C214.781 148.051 214.29 148.455 213.646 148.75C213.006 149.045 212.231 149.193 211.322 149.193C210.451 149.193 209.697 149.055 209.061 148.778C208.425 148.502 207.926 148.11 207.567 147.602C207.207 147.091 207.008 146.485 206.97 145.784H208.731C208.766 146.205 208.902 146.555 209.141 146.835C209.383 147.112 209.692 147.318 210.067 147.455C210.445 147.587 210.86 147.653 211.311 147.653C211.807 147.653 212.248 147.576 212.635 147.42C213.025 147.261 213.332 147.042 213.555 146.761C213.779 146.477 213.891 146.146 213.891 145.767C213.891 145.422 213.792 145.14 213.595 144.92C213.402 144.701 213.139 144.519 212.805 144.375C212.476 144.231 212.103 144.104 211.686 143.994L210.311 143.619C209.379 143.366 208.641 142.992 208.095 142.5C207.553 142.008 207.283 141.356 207.283 140.545C207.283 139.875 207.464 139.29 207.828 138.79C208.192 138.29 208.684 137.902 209.305 137.625C209.926 137.345 210.627 137.205 211.408 137.205C212.195 137.205 212.891 137.343 213.493 137.619C214.099 137.896 214.576 138.277 214.925 138.761C215.273 139.242 215.455 139.795 215.47 140.42H213.777ZM219.003 149L216.435 140.273H218.19L219.901 146.682H219.986L221.702 140.273H223.457L225.162 146.653H225.247L226.946 140.273H228.702L226.139 149H224.406L222.634 142.699H222.503L220.73 149H219.003ZM229.834 149V140.273H231.533V149H229.834ZM230.692 138.926C230.396 138.926 230.143 138.828 229.931 138.631C229.722 138.43 229.618 138.191 229.618 137.915C229.618 137.634 229.722 137.396 229.931 137.199C230.143 136.998 230.396 136.898 230.692 136.898C230.987 136.898 231.239 136.998 231.448 137.199C231.66 137.396 231.766 137.634 231.766 137.915C231.766 138.191 231.66 138.43 231.448 138.631C231.239 138.828 230.987 138.926 230.692 138.926ZM237.412 140.273V141.636H232.645V140.273H237.412ZM233.924 138.182H235.622V146.438C235.622 146.767 235.672 147.015 235.77 147.182C235.869 147.345 235.995 147.456 236.151 147.517C236.31 147.574 236.482 147.602 236.668 147.602C236.804 147.602 236.924 147.593 237.026 147.574C237.128 147.555 237.208 147.54 237.264 147.528L237.571 148.932C237.473 148.97 237.333 149.008 237.151 149.045C236.969 149.087 236.742 149.11 236.469 149.114C236.022 149.121 235.605 149.042 235.219 148.875C234.833 148.708 234.52 148.451 234.281 148.102C234.043 147.754 233.924 147.316 233.924 146.79V138.182ZM238.63 149V147.835L243.357 141.83V141.75H238.783V140.273H245.476V141.511L240.931 147.443V147.523H245.635V149H238.63ZM250.671 149.176C249.811 149.176 249.071 148.992 248.449 148.625C247.832 148.254 247.355 147.733 247.018 147.062C246.684 146.388 246.518 145.598 246.518 144.693C246.518 143.799 246.684 143.011 247.018 142.33C247.355 141.648 247.824 141.116 248.427 140.733C249.033 140.35 249.741 140.159 250.552 140.159C251.044 140.159 251.521 140.241 251.983 140.403C252.446 140.566 252.86 140.822 253.228 141.17C253.595 141.519 253.885 141.972 254.097 142.528C254.309 143.081 254.415 143.754 254.415 144.545V145.148H247.478V143.875H252.75C252.75 143.428 252.66 143.032 252.478 142.688C252.296 142.339 252.04 142.064 251.711 141.864C251.385 141.663 251.002 141.562 250.563 141.562C250.086 141.562 249.669 141.68 249.313 141.915C248.961 142.146 248.688 142.449 248.495 142.824C248.305 143.195 248.211 143.598 248.211 144.034V145.028C248.211 145.612 248.313 146.108 248.518 146.517C248.726 146.926 249.016 147.239 249.387 147.455C249.758 147.667 250.192 147.773 250.688 147.773C251.01 147.773 251.303 147.727 251.569 147.636C251.834 147.542 252.063 147.402 252.256 147.216C252.449 147.03 252.597 146.801 252.699 146.528L254.307 146.818C254.178 147.292 253.947 147.706 253.614 148.062C253.285 148.415 252.87 148.689 252.37 148.886C251.874 149.08 251.307 149.176 250.671 149.176ZM255.82 149V140.273H257.462V141.659H257.553C257.712 141.189 257.993 140.82 258.394 140.551C258.799 140.278 259.258 140.142 259.769 140.142C259.875 140.142 260 140.146 260.144 140.153C260.292 140.161 260.407 140.17 260.491 140.182V141.807C260.422 141.788 260.301 141.767 260.127 141.744C259.953 141.718 259.779 141.705 259.604 141.705C259.203 141.705 258.845 141.79 258.53 141.96C258.22 142.127 257.974 142.36 257.792 142.659C257.61 142.955 257.519 143.292 257.519 143.67V149H255.82ZM263.18 137.364V149H261.481V137.364H263.18ZM267.525 149.193C266.972 149.193 266.472 149.091 266.025 148.886C265.578 148.678 265.224 148.377 264.962 147.983C264.705 147.589 264.576 147.106 264.576 146.534C264.576 146.042 264.671 145.636 264.86 145.318C265.05 145 265.305 144.748 265.627 144.562C265.949 144.377 266.309 144.237 266.707 144.142C267.104 144.047 267.51 143.975 267.923 143.926C268.445 143.866 268.87 143.816 269.195 143.778C269.521 143.737 269.758 143.67 269.906 143.58C270.053 143.489 270.127 143.341 270.127 143.136V143.097C270.127 142.6 269.987 142.216 269.707 141.943C269.43 141.67 269.017 141.534 268.468 141.534C267.896 141.534 267.445 141.661 267.116 141.915C266.79 142.165 266.565 142.443 266.44 142.75L264.843 142.386C265.033 141.856 265.309 141.428 265.673 141.102C266.04 140.773 266.462 140.534 266.94 140.386C267.417 140.235 267.919 140.159 268.445 140.159C268.794 140.159 269.163 140.201 269.553 140.284C269.947 140.364 270.315 140.511 270.656 140.727C271 140.943 271.283 141.252 271.502 141.653C271.722 142.051 271.832 142.568 271.832 143.205V149H270.173V147.807H270.104C269.995 148.027 269.83 148.242 269.61 148.455C269.39 148.667 269.108 148.843 268.764 148.983C268.419 149.123 268.006 149.193 267.525 149.193ZM267.894 147.83C268.364 147.83 268.765 147.737 269.099 147.551C269.436 147.366 269.692 147.123 269.866 146.824C270.044 146.521 270.133 146.197 270.133 145.852V144.727C270.072 144.788 269.955 144.845 269.781 144.898C269.61 144.947 269.415 144.991 269.195 145.028C268.976 145.062 268.762 145.095 268.553 145.125C268.345 145.152 268.171 145.174 268.031 145.193C267.701 145.235 267.4 145.305 267.127 145.403C266.858 145.502 266.642 145.644 266.479 145.83C266.32 146.011 266.241 146.254 266.241 146.557C266.241 146.977 266.396 147.295 266.707 147.511C267.017 147.723 267.413 147.83 267.894 147.83ZM275.313 143.818V149H273.615V140.273H275.245V141.693H275.353C275.554 141.231 275.868 140.86 276.296 140.58C276.728 140.299 277.272 140.159 277.927 140.159C278.522 140.159 279.043 140.284 279.49 140.534C279.937 140.78 280.283 141.148 280.529 141.636C280.776 142.125 280.899 142.729 280.899 143.449V149H279.2V143.653C279.2 143.021 279.035 142.527 278.705 142.17C278.376 141.811 277.923 141.631 277.348 141.631C276.954 141.631 276.603 141.716 276.296 141.886C275.993 142.057 275.753 142.307 275.575 142.636C275.401 142.962 275.313 143.356 275.313 143.818ZM285.964 149.17C285.26 149.17 284.631 148.991 284.078 148.631C283.528 148.267 283.097 147.75 282.782 147.08C282.472 146.405 282.316 145.597 282.316 144.653C282.316 143.71 282.474 142.903 282.788 142.233C283.106 141.562 283.542 141.049 284.095 140.693C284.648 140.337 285.275 140.159 285.975 140.159C286.517 140.159 286.953 140.25 287.282 140.432C287.616 140.61 287.873 140.818 288.055 141.057C288.241 141.295 288.385 141.506 288.487 141.688H288.589V137.364H290.288V149H288.629V147.642H288.487C288.385 147.828 288.237 148.04 288.044 148.278C287.854 148.517 287.593 148.725 287.26 148.903C286.926 149.081 286.494 149.17 285.964 149.17ZM286.339 147.722C286.828 147.722 287.241 147.593 287.578 147.335C287.919 147.074 288.176 146.712 288.35 146.25C288.528 145.788 288.618 145.25 288.618 144.636C288.618 144.03 288.53 143.5 288.356 143.045C288.182 142.591 287.926 142.237 287.589 141.983C287.252 141.729 286.835 141.602 286.339 141.602C285.828 141.602 285.402 141.735 285.061 142C284.72 142.265 284.462 142.627 284.288 143.085C284.118 143.544 284.032 144.061 284.032 144.636C284.032 145.22 284.119 145.744 284.294 146.21C284.468 146.676 284.725 147.045 285.066 147.318C285.411 147.587 285.835 147.722 286.339 147.722Z" fill="white"/>
</svg>
