<svg width="128" height="26" viewBox="0 0 128 26" fill="none" xmlns="http://www.w3.org/2000/svg">
<g opacity="0.6">
<path d="M13 6.58579L18.4142 12L13 17.4142L11.5858 16L14.5858 13H6V11H14.5858L11.5858 8L13 6.58579Z" fill="white"/>
<path fill-rule="evenodd" clip-rule="evenodd" d="M1 12C1 5.92487 5.92487 1 12 1C18.0751 1 23 5.92487 23 12C23 18.0751 18.0751 23 12 23C5.92487 23 1 18.0751 1 12ZM12 3C7.02944 3 3 7.02944 3 12C3 16.9706 7.02944 21 12 21C16.9706 21 21 16.9706 21 12C21 7.02944 16.9706 3 12 3Z" fill="white"/>
<path d="M36.84 25.36V19.648C37.6707 19.648 38.2633 19.3727 38.618 18.822C38.982 18.262 39.2713 17.3147 39.486 15.98C39.6167 15.168 39.724 14.3047 39.808 13.39C39.9013 12.4753 39.9807 11.486 40.046 10.422C40.1113 9.34867 40.1767 8.168 40.242 6.88H51.078V19.648H52.562V25.36H49.79V22H39.626V25.36H36.84ZM41.026 19.648H48.138V9.232H42.846C42.8087 9.848 42.7667 10.4827 42.72 11.136C42.6827 11.7893 42.636 12.438 42.58 13.082C42.5333 13.726 42.4773 14.342 42.412 14.93C42.3467 15.518 42.272 16.05 42.188 16.526C42.076 17.2633 41.9407 17.8793 41.782 18.374C41.6327 18.8687 41.3807 19.2933 41.026 19.648ZM66.6906 6.88V22H63.8766V11.486L56.3166 22H53.9366V6.88H56.7506V17.184L64.3246 6.88H66.6906ZM74.593 22.42C73.1276 22.42 71.8116 22.1073 70.645 21.482C69.4876 20.8567 68.573 19.9933 67.901 18.892L70.225 17.366C70.7663 18.094 71.3916 18.6587 72.101 19.06C72.8196 19.4613 73.627 19.662 74.523 19.662C75.4563 19.662 76.1936 19.452 76.735 19.032C77.2856 18.6027 77.561 18.0287 77.561 17.31C77.561 16.7407 77.4023 16.3207 77.085 16.05C76.777 15.77 76.3476 15.588 75.797 15.504C75.2556 15.42 74.6396 15.378 73.949 15.378H72.605V13.026H73.949C74.8636 13.026 75.615 12.9 76.203 12.648C76.8003 12.3867 77.099 11.8967 77.099 11.178C77.099 10.478 76.8423 9.974 76.329 9.666C75.825 9.358 75.223 9.204 74.523 9.204C73.739 9.204 72.9783 9.372 72.241 9.708C71.5036 10.0347 70.8596 10.4407 70.309 10.926L68.601 8.924C69.4036 8.14933 70.3183 7.54733 71.345 7.118C72.381 6.67933 73.4916 6.46 74.677 6.46C75.6476 6.46 76.5436 6.63267 77.365 6.978C78.1956 7.314 78.8583 7.81333 79.353 8.476C79.857 9.13867 80.109 9.95533 80.109 10.926C80.109 11.682 79.941 12.3727 79.605 12.998C79.269 13.6233 78.7556 14.1927 78.065 14.706L77.981 13.712C78.5503 13.8893 79.0263 14.174 79.409 14.566C79.7916 14.958 80.0763 15.42 80.263 15.952C80.459 16.4747 80.557 17.03 80.557 17.618C80.557 18.6353 80.2863 19.5033 79.745 20.222C79.213 20.9407 78.4943 21.4867 77.589 21.86C76.6836 22.2333 75.685 22.42 74.593 22.42ZM86.5105 22.42C85.3905 22.42 84.4525 22.2147 83.6965 21.804C82.9405 21.384 82.3665 20.8333 81.9745 20.152C81.5918 19.4613 81.4005 18.7053 81.4005 17.884C81.4005 17.1187 81.5358 16.4467 81.8065 15.868C82.0771 15.2893 82.4785 14.7993 83.0105 14.398C83.5425 13.9873 84.1958 13.656 84.9705 13.404C85.6425 13.208 86.4031 13.0353 87.2525 12.886C88.1018 12.7367 88.9931 12.5967 89.9265 12.466C90.8691 12.3353 91.8025 12.2047 92.7265 12.074L91.6625 12.662C91.6811 11.4767 91.4291 10.5993 90.9065 10.03C90.3931 9.45133 89.5065 9.162 88.2465 9.162C87.4531 9.162 86.7251 9.34867 86.0625 9.722C85.3998 10.086 84.9378 10.6927 84.6765 11.542L81.9465 10.702C82.3198 9.40467 83.0291 8.37333 84.0745 7.608C85.1291 6.84267 86.5291 6.46 88.2745 6.46C89.6278 6.46 90.8038 6.69333 91.8025 7.16C92.8105 7.61733 93.5478 8.34533 94.0145 9.344C94.2571 9.83867 94.4065 10.3613 94.4625 10.912C94.5185 11.4627 94.5465 12.0553 94.5465 12.69V22H91.9565V18.542L92.4605 18.99C91.8351 20.1473 91.0371 21.0107 90.0665 21.58C89.1051 22.14 87.9198 22.42 86.5105 22.42ZM87.0285 20.026C87.8591 20.026 88.5731 19.8813 89.1705 19.592C89.7678 19.2933 90.2485 18.9153 90.6125 18.458C90.9765 18.0007 91.2145 17.5247 91.3265 17.03C91.4851 16.582 91.5738 16.078 91.5925 15.518C91.6205 14.958 91.6345 14.51 91.6345 14.174L92.5865 14.524C91.6625 14.664 90.8225 14.79 90.0665 14.902C89.3105 15.014 88.6245 15.126 88.0085 15.238C87.4018 15.3407 86.8605 15.4667 86.3845 15.616C85.9831 15.756 85.6238 15.924 85.3065 16.12C84.9985 16.316 84.7511 16.554 84.5645 16.834C84.3871 17.114 84.2985 17.4547 84.2985 17.856C84.2985 18.248 84.3965 18.612 84.5925 18.948C84.7885 19.2747 85.0871 19.536 85.4885 19.732C85.8898 19.928 86.4031 20.026 87.0285 20.026ZM103.53 5.144C102.793 5.144 102.116 4.962 101.5 4.598C100.893 4.234 100.408 3.74867 100.044 3.142C99.6799 2.53533 99.4979 1.85867 99.4979 1.112H101.822C101.822 1.57867 101.99 1.98 102.326 2.316C102.662 2.652 103.063 2.82 103.53 2.82C104.006 2.82 104.407 2.652 104.734 2.316C105.07 1.98 105.238 1.57867 105.238 1.112H107.562C107.562 1.85867 107.38 2.53533 107.016 3.142C106.652 3.74867 106.162 4.234 105.546 4.598C104.939 4.962 104.267 5.144 103.53 5.144ZM109.522 6.88V22H106.708V11.486L99.1479 22H96.7679V6.88H99.5819V17.184L107.156 6.88H109.522ZM112.02 22V6.88H114.946V13.054H122.324V6.88H125.25V22H122.324V15.812H114.946V22H112.02Z" fill="white"/>
</g>
</svg>
