<svg width="278" height="56" viewBox="0 0 278 56" fill="none" xmlns="http://www.w3.org/2000/svg">
<path d="M0.92 55.68V43.296C2.86133 43.296 4.248 42.6667 5.08 41.408C5.912 40.128 6.584 38.0267 7.096 35.104C7.43733 33.2693 7.71467 31.3067 7.928 29.216C8.14133 27.1253 8.32267 24.8 8.472 22.24C8.64267 19.6587 8.80267 16.7253 8.952 13.44H32.76V43.296H36.12V55.68H30.68V48H6.36V55.68H0.92ZM9.688 43.296H27.064V18.144H14.104C14.04 19.6587 13.9547 21.248 13.848 22.912C13.7413 24.5547 13.6133 26.1973 13.464 27.84C13.336 29.4827 13.176 31.04 12.984 32.512C12.8133 33.9627 12.6107 35.264 12.376 36.416C12.0987 38.016 11.7787 39.3707 11.416 40.48C11.0533 41.5893 10.4773 42.528 9.688 43.296ZM36.1725 48V43.104C37.4525 43.3387 38.4232 43.296 39.0845 42.976C39.7672 42.6347 40.2685 42.048 40.5885 41.216C40.9298 40.3627 41.2072 39.296 41.4205 38.016C41.7832 35.9893 42.0925 33.728 42.3485 31.232C42.6258 28.736 42.8712 26.0053 43.0845 23.04C43.3192 20.0533 43.5325 16.8533 43.7245 13.44H67.8845V48H62.1885V18.848H48.9085C48.7805 20.8107 48.6205 22.8267 48.4285 24.896C48.2578 26.9653 48.0765 28.9813 47.8845 30.944C47.6925 32.8853 47.4792 34.6987 47.2445 36.384C47.0312 38.048 46.7965 39.488 46.5405 40.704C46.1352 42.7947 45.5698 44.4693 44.8445 45.728C44.1192 46.9653 43.0738 47.7653 41.7085 48.128C40.3432 48.512 38.4978 48.4693 36.1725 48ZM96.2965 48V35.488H88.8405C87.9658 35.488 86.9952 35.456 85.9285 35.392C84.8832 35.3067 83.9018 35.1893 82.9845 35.04C80.4885 34.5707 78.3765 33.472 76.6485 31.744C74.9418 30.016 74.0885 27.6267 74.0885 24.576C74.0885 21.6107 74.8885 19.232 76.4885 17.44C78.1098 15.6267 80.1045 14.4533 82.4725 13.92C83.5392 13.664 84.6165 13.5253 85.7045 13.504C86.8138 13.4613 87.7525 13.44 88.5205 13.44H101.993L102.025 48H96.2965ZM73.0325 48L82.2165 33.92H88.3605L79.1765 48H73.0325ZM88.4245 30.784H96.2965V18.144H88.4245C87.9338 18.144 87.2832 18.1653 86.4725 18.208C85.6832 18.2507 84.9258 18.3787 84.2005 18.592C83.5178 18.784 82.8458 19.136 82.1845 19.648C81.5445 20.16 81.0112 20.8213 80.5845 21.632C80.1578 22.4427 79.9445 23.4027 79.9445 24.512C79.9445 26.112 80.3925 27.4133 81.2885 28.416C82.1845 29.3973 83.2725 30.0587 84.5525 30.4C85.2565 30.5707 85.9498 30.6773 86.6325 30.72C87.3365 30.7627 87.9338 30.784 88.4245 30.784ZM119.956 48L119.987 13.44H125.748V30.08L140.244 13.44H147.636L132.372 30.72L149.428 48H141.46L125.748 31.36V48H119.956ZM164.787 48.96C161.353 48.96 158.387 48.1813 155.891 46.624C153.417 45.0667 151.507 42.912 150.163 40.16C148.819 37.408 148.147 34.2507 148.147 30.688C148.147 27.0613 148.83 23.8827 150.195 21.152C151.561 18.4213 153.491 16.2987 155.987 14.784C158.483 13.248 161.417 12.48 164.787 12.48C168.243 12.48 171.219 13.2587 173.715 14.816C176.211 16.352 178.121 18.496 179.443 21.248C180.787 23.9787 181.459 27.1253 181.459 30.688C181.459 34.2933 180.787 37.472 179.443 40.224C178.099 42.9547 176.179 45.0987 173.683 46.656C171.187 48.192 168.222 48.96 164.787 48.96ZM164.787 43.552C168.371 43.552 171.038 42.3573 172.787 39.968C174.537 37.5787 175.411 34.4853 175.411 30.688C175.411 26.784 174.526 23.68 172.755 21.376C170.985 19.0507 168.329 17.888 164.787 17.888C162.377 17.888 160.393 18.432 158.835 19.52C157.278 20.608 156.115 22.112 155.347 24.032C154.579 25.952 154.195 28.1707 154.195 30.688C154.195 34.5707 155.091 37.6853 156.883 40.032C158.675 42.3787 161.31 43.552 164.787 43.552ZM186.585 48V13.44H210.585V18.848H192.281V48H186.585ZM228.822 48.96C225.388 48.96 222.422 48.1813 219.926 46.624C217.452 45.0667 215.542 42.912 214.198 40.16C212.854 37.408 212.182 34.2507 212.182 30.688C212.182 27.0613 212.865 23.8827 214.23 21.152C215.596 18.4213 217.526 16.2987 220.022 14.784C222.518 13.248 225.452 12.48 228.822 12.48C232.278 12.48 235.254 13.2587 237.75 14.816C240.246 16.352 242.156 18.496 243.479 21.248C244.822 23.9787 245.494 27.1253 245.494 30.688C245.494 34.2933 244.822 37.472 243.479 40.224C242.134 42.9547 240.214 45.0987 237.718 46.656C235.222 48.192 232.257 48.96 228.822 48.96ZM228.822 43.552C232.406 43.552 235.073 42.3573 236.822 39.968C238.572 37.5787 239.446 34.4853 239.446 30.688C239.446 26.784 238.561 23.68 236.79 21.376C235.02 19.0507 232.364 17.888 228.822 17.888C226.412 17.888 224.428 18.432 222.87 19.52C221.313 20.608 220.15 22.112 219.382 24.032C218.614 25.952 218.23 28.1707 218.23 30.688C218.23 34.5707 219.126 37.6853 220.918 40.032C222.71 42.3787 225.345 43.552 228.822 43.552ZM259.42 35.456C259.42 33.856 259.516 32.4053 259.708 31.104C259.921 29.7813 260.369 28.5013 261.052 27.264C261.671 26.0693 262.407 25.0987 263.26 24.352C264.113 23.584 265.031 22.848 266.012 22.144C266.993 21.44 267.964 20.576 268.924 19.552C269.777 18.592 270.343 17.632 270.62 16.672C270.897 15.6907 271.036 14.656 271.036 13.568C271.036 12.608 270.919 11.744 270.684 10.976C270.471 10.1867 270.108 9.51467 269.596 8.96C268.828 8 267.868 7.33866 266.716 6.976C265.585 6.61333 264.401 6.432 263.164 6.432C261.991 6.432 260.881 6.592 259.836 6.912C258.812 7.232 257.959 7.73333 257.276 8.416C256.593 9.03466 256.092 9.792 255.772 10.688C255.452 11.5627 255.292 12.512 255.292 13.536H249.34C249.468 11.68 249.905 9.92 250.652 8.256C251.42 6.57066 252.476 5.184 253.82 4.096C255.079 3.02933 256.519 2.25067 258.14 1.76C259.761 1.248 261.393 0.991997 263.036 0.991997C265.212 0.991997 267.271 1.32266 269.212 1.984C271.175 2.64533 272.807 3.744 274.108 5.28C275.111 6.368 275.857 7.616 276.348 9.024C276.839 10.432 277.084 11.9147 277.084 13.472C277.084 15.3707 276.7 17.1413 275.932 18.784C275.185 20.4267 274.172 21.9093 272.892 23.232C272.188 24 271.42 24.704 270.588 25.344C269.777 25.984 268.999 26.624 268.252 27.264C267.527 27.904 266.951 28.608 266.524 29.376C265.969 30.3787 265.649 31.3067 265.564 32.16C265.5 32.992 265.468 34.0907 265.468 35.456H259.42ZM259.452 48V40.992H265.468V48H259.452Z" fill="#101010"/>
</svg>
