<svg width="316" height="116" viewBox="0 0 316 116" fill="none" xmlns="http://www.w3.org/2000/svg">
<path d="M17.04 36.96C13.5413 36.96 10.5653 36.1813 8.112 34.624C5.68 33.0453 3.824 30.88 2.544 28.128C1.264 25.376 0.602667 22.24 0.56 18.72C0.602667 15.1147 1.27467 11.9467 2.576 9.216C3.89867 6.464 5.78667 4.32 8.24 2.784C10.6933 1.248 13.648 0.48 17.104 0.48C20.752 0.48 23.888 1.376 26.512 3.168C29.1573 4.96 30.928 7.41333 31.824 10.528L26.192 12.224C25.4667 10.2187 24.2827 8.66133 22.64 7.552C21.0187 6.44267 19.152 5.888 17.04 5.888C14.672 5.888 12.72 6.44267 11.184 7.552C9.648 8.64 8.50667 10.1547 7.76 12.096C7.01333 14.016 6.62933 16.224 6.608 18.72C6.65067 22.56 7.536 25.664 9.264 28.032C11.0133 30.3787 13.6053 31.552 17.04 31.552C19.3013 31.552 21.1787 31.04 22.672 30.016C24.1653 28.9707 25.296 27.4667 26.064 25.504L31.824 27.008C30.6293 30.2293 28.7627 32.6933 26.224 34.4C23.6853 36.1067 20.624 36.96 17.04 36.96ZM44.962 36V6.624H32.93V1.44H62.69V6.624H50.658V36H44.962ZM81.8035 36.96C78.4115 36.96 75.4462 36.2133 72.9075 34.72C70.3902 33.2053 68.4275 31.104 67.0195 28.416C65.6115 25.7067 64.9075 22.5493 64.9075 18.944C64.9075 15.168 65.6008 11.904 66.9875 9.152C68.3742 6.37867 70.3048 4.24533 72.7795 2.752C75.2755 1.23733 78.1982 0.48 81.5475 0.48C85.0248 0.48 87.9795 1.28 90.4115 2.88C92.8648 4.48 94.6995 6.76267 95.9155 9.728C97.1528 12.6933 97.6862 16.224 97.5155 20.32H91.7555V18.272C91.6915 14.0267 90.8275 10.8587 89.1635 8.768C87.4995 6.656 85.0248 5.6 81.7395 5.6C78.2195 5.6 75.5422 6.73067 73.7075 8.992C71.8728 11.2533 70.9555 14.496 70.9555 18.72C70.9555 22.7947 71.8728 25.952 73.7075 28.192C75.5422 30.432 78.1555 31.552 81.5475 31.552C83.8302 31.552 85.8142 31.0293 87.4995 29.984C89.1848 28.9387 90.5075 27.4347 91.4675 25.472L96.9395 27.36C95.5955 30.4107 93.5688 32.7787 90.8595 34.464C88.1715 36.128 85.1528 36.96 81.8035 36.96ZM69.0355 20.32V15.744H94.5715V20.32H69.0355ZM102.688 36L102.72 1.44H108.48V18.08L122.976 1.44H130.368L115.104 18.72L132.16 36H124.192L108.48 19.36V36H102.688ZM161.713 1.44V36H156.209V10.528L138.097 36H133.393V1.44H138.897V26.56L157.041 1.44H161.713ZM2.448 100V65.44H30.768V100H25.072V70.848H8.144V100H2.448ZM53.682 100.96C50.4393 100.96 47.7087 100.16 45.49 98.56C43.2713 96.9387 41.586 94.752 40.434 92C39.3033 89.2267 38.738 86.1227 38.738 82.688C38.738 79.2107 39.3033 76.096 40.434 73.344C41.586 70.592 43.2713 68.4267 45.49 66.848C47.73 65.2693 50.4713 64.48 53.714 64.48C56.914 64.48 59.666 65.28 61.97 66.88C64.2953 68.4587 66.0767 70.624 67.314 73.376C68.5513 76.128 69.17 79.232 69.17 82.688C69.17 86.144 68.5513 89.248 67.314 92C66.0767 94.752 64.2953 96.9387 61.97 98.56C59.666 100.16 56.9033 100.96 53.682 100.96ZM37.778 115.36V65.44H42.866V90.88H43.506V115.36H37.778ZM52.978 95.744C55.2607 95.744 57.1487 95.168 58.642 94.016C60.1353 92.864 61.2553 91.3067 62.002 89.344C62.7487 87.36 63.122 85.1413 63.122 82.688C63.122 80.256 62.7487 78.0587 62.002 76.096C61.2767 74.1333 60.146 72.576 58.61 71.424C57.0953 70.272 55.1647 69.696 52.818 69.696C50.578 69.696 48.722 70.2507 47.25 71.36C45.778 72.448 44.6793 73.9733 43.954 75.936C43.2287 77.8773 42.866 80.128 42.866 82.688C42.866 85.2053 43.218 87.456 43.922 89.44C44.6473 91.4027 45.7567 92.9493 47.25 94.08C48.7433 95.1893 50.6527 95.744 52.978 95.744ZM88.985 100.96C85.5503 100.96 82.585 100.181 80.089 98.624C77.6143 97.0667 75.705 94.912 74.361 92.16C73.017 89.408 72.345 86.2507 72.345 82.688C72.345 79.0613 73.0277 75.8827 74.393 73.152C75.7583 70.4213 77.689 68.2987 80.185 66.784C82.681 65.248 85.6143 64.48 88.985 64.48C92.441 64.48 95.417 65.2587 97.913 66.816C100.409 68.352 102.318 70.496 103.641 73.248C104.985 75.9787 105.657 79.1253 105.657 82.688C105.657 86.2933 104.985 89.472 103.641 92.224C102.297 94.9547 100.377 97.0987 97.881 98.656C95.385 100.192 92.4197 100.96 88.985 100.96ZM88.985 95.552C92.569 95.552 95.2357 94.3573 96.985 91.968C98.7343 89.5787 99.609 86.4853 99.609 82.688C99.609 78.784 98.7237 75.68 96.953 73.376C95.1823 71.0507 92.5263 69.888 88.985 69.888C86.5743 69.888 84.5903 70.432 83.033 71.52C81.4757 72.608 80.313 74.112 79.545 76.032C78.777 77.952 78.393 80.1707 78.393 82.688C78.393 86.5707 79.289 89.6853 81.081 92.032C82.873 94.3787 85.5077 95.552 88.985 95.552ZM140.222 106.4V100H110.75V65.44H116.446V94.592H133.374V65.44H139.07V94.816H145.918V106.4H140.222ZM164.089 100.96C160.697 100.96 157.731 100.213 155.193 98.72C152.675 97.2053 150.713 95.104 149.305 92.416C147.897 89.7067 147.193 86.5493 147.193 82.944C147.193 79.168 147.886 75.904 149.273 73.152C150.659 70.3787 152.59 68.2453 155.065 66.752C157.561 65.2373 160.483 64.48 163.833 64.48C167.31 64.48 170.265 65.28 172.697 66.88C175.15 68.48 176.985 70.7627 178.201 73.728C179.438 76.6933 179.971 80.224 179.801 84.32H174.041V82.272C173.977 78.0267 173.113 74.8587 171.449 72.768C169.785 70.656 167.31 69.6 164.025 69.6C160.505 69.6 157.827 70.7307 155.993 72.992C154.158 75.2533 153.241 78.496 153.241 82.72C153.241 86.7947 154.158 89.952 155.993 92.192C157.827 94.432 160.441 95.552 163.833 95.552C166.115 95.552 168.099 95.0293 169.785 93.984C171.47 92.9387 172.793 91.4347 173.753 89.472L179.225 91.36C177.881 94.4107 175.854 96.7787 173.145 98.464C170.457 100.128 167.438 100.96 164.089 100.96ZM151.321 84.32V79.744H176.857V84.32H151.321ZM199.565 100.96C196.066 100.96 193.09 100.181 190.637 98.624C188.205 97.0453 186.349 94.88 185.069 92.128C183.789 89.376 183.128 86.24 183.085 82.72C183.128 79.1147 183.8 75.9467 185.101 73.216C186.424 70.464 188.312 68.32 190.765 66.784C193.218 65.248 196.173 64.48 199.629 64.48C203.277 64.48 206.413 65.376 209.037 67.168C211.682 68.96 213.453 71.4133 214.349 74.528L208.717 76.224C207.992 74.2187 206.808 72.6613 205.165 71.552C203.544 70.4427 201.677 69.888 199.565 69.888C197.197 69.888 195.245 70.4427 193.709 71.552C192.173 72.64 191.032 74.1547 190.285 76.096C189.538 78.016 189.154 80.224 189.133 82.72C189.176 86.56 190.061 89.664 191.789 92.032C193.538 94.3787 196.13 95.552 199.565 95.552C201.826 95.552 203.704 95.04 205.197 94.016C206.69 92.9707 207.821 91.4667 208.589 89.504L214.349 91.008C213.154 94.2293 211.288 96.6933 208.749 98.4C206.21 100.107 203.149 100.96 199.565 100.96ZM232.582 100.96C229.084 100.96 226.108 100.181 223.654 98.624C221.222 97.0453 219.366 94.88 218.086 92.128C216.806 89.376 216.145 86.24 216.102 82.72C216.145 79.1147 216.817 75.9467 218.118 73.216C219.441 70.464 221.329 68.32 223.782 66.784C226.236 65.248 229.19 64.48 232.646 64.48C236.294 64.48 239.43 65.376 242.054 67.168C244.7 68.96 246.47 71.4133 247.366 74.528L241.734 76.224C241.009 74.2187 239.825 72.6613 238.182 71.552C236.561 70.4427 234.694 69.888 232.582 69.888C230.214 69.888 228.262 70.4427 226.726 71.552C225.19 72.64 224.049 74.1547 223.302 76.096C222.556 78.016 222.172 80.224 222.15 82.72C222.193 86.56 223.078 89.664 224.806 92.032C226.556 94.3787 229.148 95.552 232.582 95.552C234.844 95.552 236.721 95.04 238.214 94.016C239.708 92.9707 240.838 91.4667 241.606 89.504L247.366 91.008C246.172 94.2293 244.305 96.6933 241.766 98.4C239.228 100.107 236.166 100.96 232.582 100.96ZM265.76 100.96C262.325 100.96 259.36 100.181 256.864 98.624C254.389 97.0667 252.48 94.912 251.136 92.16C249.792 89.408 249.12 86.2507 249.12 82.688C249.12 79.0613 249.803 75.8827 251.168 73.152C252.533 70.4213 254.464 68.2987 256.96 66.784C259.456 65.248 262.389 64.48 265.76 64.48C269.216 64.48 272.192 65.2587 274.688 66.816C277.184 68.352 279.093 70.496 280.416 73.248C281.76 75.9787 282.432 79.1253 282.432 82.688C282.432 86.2933 281.76 89.472 280.416 92.224C279.072 94.9547 277.152 97.0987 274.656 98.656C272.16 100.192 269.195 100.96 265.76 100.96ZM265.76 95.552C269.344 95.552 272.011 94.3573 273.76 91.968C275.509 89.5787 276.384 86.4853 276.384 82.688C276.384 78.784 275.499 75.68 273.728 73.376C271.957 71.0507 269.301 69.888 265.76 69.888C263.349 69.888 261.365 70.432 259.808 71.52C258.251 72.608 257.088 74.112 256.32 76.032C255.552 77.952 255.168 80.1707 255.168 82.688C255.168 86.5707 256.064 89.6853 257.856 92.032C259.648 94.3787 262.283 95.552 265.76 95.552ZM287.526 100V65.44H302.246C303.12 65.44 304.059 65.4933 305.062 65.6C306.086 65.6853 307.014 65.8453 307.846 66.08C309.702 66.5707 311.227 67.584 312.422 69.12C313.638 70.6347 314.246 72.5547 314.246 74.88C314.246 76.1813 314.043 77.312 313.638 78.272C313.254 79.232 312.699 80.064 311.974 80.768C311.654 81.088 311.302 81.376 310.918 81.632C310.534 81.888 310.15 82.0907 309.766 82.24C310.512 82.368 311.27 82.656 312.038 83.104C313.254 83.7653 314.203 84.6933 314.886 85.888C315.59 87.0827 315.942 88.608 315.942 90.464C315.942 92.8107 315.376 94.752 314.246 96.288C313.115 97.8027 311.558 98.848 309.574 99.424C308.742 99.6587 307.824 99.8187 306.822 99.904C305.819 99.968 304.848 100 303.91 100H287.526ZM293.286 95.36H303.59C304.038 95.36 304.571 95.3173 305.19 95.232C305.83 95.1467 306.395 95.04 306.886 94.912C307.995 94.592 308.795 93.9947 309.286 93.12C309.798 92.2453 310.054 91.296 310.054 90.272C310.054 88.9067 309.67 87.7973 308.902 86.944C308.155 86.0907 307.163 85.5573 305.926 85.344C305.478 85.216 304.987 85.1413 304.454 85.12C303.942 85.0987 303.483 85.088 303.078 85.088H293.286V95.36ZM293.286 80.384H301.862C302.459 80.384 303.088 80.352 303.75 80.288C304.411 80.2027 304.987 80.064 305.478 79.872C306.459 79.5093 307.174 78.912 307.622 78.08C308.091 77.2267 308.326 76.2987 308.326 75.296C308.326 74.1867 308.07 73.216 307.558 72.384C307.067 71.5307 306.31 70.944 305.286 70.624C304.603 70.368 303.835 70.2293 302.982 70.208C302.15 70.1653 301.616 70.144 301.382 70.144H293.286V80.384Z" fill="white"/>
</svg>
