<svg width="497" height="138" viewBox="0 0 497 138" fill="none" xmlns="http://www.w3.org/2000/svg">
<path d="M15.5455 46.5455C15.4091 45.3939 14.8561 44.5 13.8864 43.8636C12.9167 43.2273 11.7273 42.9091 10.3182 42.9091C9.28788 42.9091 8.38636 43.0758 7.61364 43.4091C6.84849 43.7424 6.25 44.2008 5.81818 44.7841C5.39394 45.3674 5.18182 46.0303 5.18182 46.7727C5.18182 47.3939 5.32955 47.928 5.625 48.375C5.92803 48.8144 6.31439 49.1818 6.78409 49.4773C7.25379 49.7652 7.74621 50.0038 8.26136 50.1932C8.77652 50.375 9.25 50.5227 9.68182 50.6364L12.0455 51.2727C12.6515 51.4318 13.3258 51.6515 14.0682 51.9318C14.8182 52.2121 15.5341 52.5947 16.2159 53.0795C16.9053 53.5568 17.4735 54.1705 17.9205 54.9205C18.3674 55.6705 18.5909 56.5909 18.5909 57.6818C18.5909 58.9394 18.2614 60.0758 17.6023 61.0909C16.9508 62.1061 15.9962 62.9129 14.7386 63.5114C13.4886 64.1098 11.9697 64.4091 10.1818 64.4091C8.51515 64.4091 7.07197 64.1402 5.85227 63.6023C4.64015 63.0644 3.68561 62.3144 2.98864 61.3523C2.29924 60.3902 1.90909 59.2727 1.81818 58H4.72727C4.80303 58.8788 5.09848 59.6061 5.61364 60.1818C6.13636 60.75 6.79545 61.1742 7.59091 61.4545C8.39394 61.7273 9.25758 61.8636 10.1818 61.8636C11.2576 61.8636 12.2235 61.6894 13.0795 61.3409C13.9356 60.9848 14.6136 60.4924 15.1136 59.8636C15.6136 59.2273 15.8636 58.4848 15.8636 57.6364C15.8636 56.8636 15.6477 56.2348 15.2159 55.75C14.7841 55.2652 14.2159 54.8712 13.5114 54.5682C12.8068 54.2652 12.0455 54 11.2273 53.7727L8.36364 52.9545C6.54545 52.4318 5.10606 51.6856 4.04545 50.7159C2.98485 49.7462 2.45455 48.4773 2.45455 46.9091C2.45455 45.6061 2.80682 44.4697 3.51136 43.5C4.22348 42.5227 5.17803 41.7652 6.375 41.2273C7.57955 40.6818 8.92424 40.4091 10.4091 40.4091C11.9091 40.4091 13.2424 40.678 14.4091 41.2159C15.5758 41.7462 16.5 42.4735 17.1818 43.3977C17.8712 44.322 18.2348 45.3712 18.2727 46.5455H15.5455ZM21.9008 70.5455V46.5455H24.4917V49.3182H24.8099C25.0069 49.0152 25.2796 48.6288 25.6281 48.1591C25.9841 47.6818 26.4917 47.2576 27.1508 46.8864C27.8175 46.5076 28.719 46.3182 29.8553 46.3182C31.325 46.3182 32.6205 46.6856 33.7417 47.4205C34.8629 48.1553 35.7379 49.197 36.3667 50.5455C36.9955 51.8939 37.3099 53.4848 37.3099 55.3182C37.3099 57.1667 36.9955 58.7689 36.3667 60.125C35.7379 61.4735 34.8667 62.5189 33.7531 63.2614C32.6394 63.9962 31.3553 64.3636 29.9008 64.3636C28.7796 64.3636 27.8819 64.178 27.2076 63.8068C26.5334 63.428 26.0144 63 25.6508 62.5227C25.2872 62.0379 25.0069 61.6364 24.8099 61.3182H24.5826V70.5455H21.9008ZM24.5372 55.2727C24.5372 56.5909 24.7303 57.7538 25.1167 58.7614C25.5031 59.7614 26.0675 60.5455 26.8099 61.1136C27.5523 61.6742 28.4614 61.9545 29.5372 61.9545C30.6584 61.9545 31.594 61.6591 32.344 61.0682C33.1016 60.4697 33.6697 59.6667 34.0485 58.6591C34.4349 57.6439 34.6281 56.5152 34.6281 55.2727C34.6281 54.0455 34.4387 52.9394 34.0599 51.9545C33.6887 50.9621 33.1243 50.178 32.3667 49.6023C31.6167 49.0189 30.6735 48.7273 29.5372 48.7273C28.4463 48.7273 27.5296 49.0038 26.7872 49.5568C26.0447 50.1023 25.4841 50.8674 25.1053 51.8523C24.7266 52.8295 24.5372 53.9697 24.5372 55.2727ZM47.759 64.3636C46.0772 64.3636 44.6264 63.9924 43.4067 63.25C42.1946 62.5 41.259 61.4545 40.5999 60.1136C39.9484 58.7652 39.6226 57.197 39.6226 55.4091C39.6226 53.6212 39.9484 52.0455 40.5999 50.6818C41.259 49.3106 42.1756 48.2424 43.3499 47.4773C44.5317 46.7045 45.9105 46.3182 47.4863 46.3182C48.3953 46.3182 49.2931 46.4697 50.1794 46.7727C51.0658 47.0758 51.8726 47.5682 52.5999 48.25C53.3272 48.9242 53.9067 49.8182 54.3385 50.9318C54.7703 52.0455 54.9863 53.4167 54.9863 55.0455V56.1818H41.5317V53.8636H52.259C52.259 52.8788 52.062 52 51.6681 51.2273C51.2817 50.4545 50.7287 49.8447 50.009 49.3977C49.2969 48.9508 48.4559 48.7273 47.4863 48.7273C46.4181 48.7273 45.4938 48.9924 44.7135 49.5227C43.9408 50.0455 43.3461 50.7273 42.9294 51.5682C42.5128 52.4091 42.3044 53.3106 42.3044 54.2727V55.8182C42.3044 57.1364 42.5317 58.2538 42.9863 59.1705C43.4484 60.0795 44.0885 60.7727 44.9067 61.25C45.7249 61.7197 46.6756 61.9545 47.759 61.9545C48.4635 61.9545 49.0999 61.8561 49.6681 61.6591C50.2438 61.4545 50.74 61.1515 51.1567 60.75C51.5734 60.3409 51.8953 59.8333 52.1226 59.2273L54.7135 59.9545C54.4408 60.8333 53.9825 61.6061 53.3385 62.2727C52.6946 62.9318 51.8991 63.447 50.9522 63.8182C50.0052 64.1818 48.9408 64.3636 47.759 64.3636ZM65.424 64.3636C63.7422 64.3636 62.2914 63.9924 61.0717 63.25C59.8596 62.5 58.924 61.4545 58.2649 60.1136C57.6134 58.7652 57.2876 57.197 57.2876 55.4091C57.2876 53.6212 57.6134 52.0455 58.2649 50.6818C58.924 49.3106 59.8406 48.2424 61.0149 47.4773C62.1967 46.7045 63.5755 46.3182 65.1512 46.3182C66.0603 46.3182 66.9581 46.4697 67.8444 46.7727C68.7308 47.0758 69.5376 47.5682 70.2649 48.25C70.9922 48.9242 71.5717 49.8182 72.0035 50.9318C72.4353 52.0455 72.6512 53.4167 72.6512 55.0455V56.1818H59.1967V53.8636H69.924C69.924 52.8788 69.727 52 69.3331 51.2273C68.9467 50.4545 68.3937 49.8447 67.674 49.3977C66.9619 48.9508 66.1209 48.7273 65.1512 48.7273C64.0831 48.7273 63.1588 48.9924 62.3785 49.5227C61.6058 50.0455 61.0111 50.7273 60.5944 51.5682C60.1778 52.4091 59.9694 53.3106 59.9694 54.2727V55.8182C59.9694 57.1364 60.1967 58.2538 60.6512 59.1705C61.1134 60.0795 61.7535 60.7727 62.5717 61.25C63.3899 61.7197 64.3406 61.9545 65.424 61.9545C66.1285 61.9545 66.7649 61.8561 67.3331 61.6591C67.9088 61.4545 68.405 61.1515 68.8217 60.75C69.2384 60.3409 69.5603 59.8333 69.7876 59.2273L72.3785 59.9545C72.1058 60.8333 71.6475 61.6061 71.0035 62.2727C70.3596 62.9318 69.5641 63.447 68.6172 63.8182C67.6702 64.1818 66.6058 64.3636 65.424 64.3636ZM78.2708 57.6364L78.2253 54.3182H78.7708L86.4072 46.5455H89.7253L81.589 54.7727H81.3617L78.2708 57.6364ZM75.7708 64V40.7273H78.4526V64H75.7708ZM86.8617 64L80.0435 55.3636L81.9526 53.5L90.2708 64H86.8617ZM92.217 64V46.5455H94.8989V64H92.217ZM93.5807 43.6364C93.058 43.6364 92.6072 43.4583 92.2284 43.1023C91.8572 42.7462 91.6716 42.3182 91.6716 41.8182C91.6716 41.3182 91.8572 40.8902 92.2284 40.5341C92.6072 40.178 93.058 40 93.5807 40C94.1034 40 94.5504 40.178 94.9216 40.5341C95.3004 40.8902 95.4898 41.3182 95.4898 41.8182C95.4898 42.3182 95.3004 42.7462 94.9216 43.1023C94.5504 43.4583 94.1034 43.6364 93.5807 43.6364Z" fill="white"/>
<path opacity="0.6" d="M1.27841 80.3636H3.40909L7.11364 89.4091H7.25L10.9545 80.3636H13.0852V92H11.4148V83.5795H11.3068L7.875 91.983H6.48864L3.05682 83.5739H2.94886V92H1.27841V80.3636ZM17.5612 92.1932C17.0082 92.1932 16.5082 92.0909 16.0612 91.8864C15.6142 91.678 15.2601 91.3769 14.9987 90.983C14.7411 90.589 14.6123 90.1061 14.6123 89.5341C14.6123 89.0417 14.707 88.6364 14.8964 88.3182C15.0858 88 15.3415 87.7481 15.6635 87.5625C15.9854 87.3769 16.3453 87.2367 16.743 87.142C17.1407 87.0473 17.546 86.9754 17.9589 86.9261C18.4816 86.8655 18.9059 86.8163 19.2316 86.7784C19.5574 86.7367 19.7941 86.6705 19.9419 86.5795C20.0896 86.4886 20.1635 86.3409 20.1635 86.1364V86.0966C20.1635 85.6004 20.0233 85.2159 19.743 84.9432C19.4665 84.6705 19.0536 84.5341 18.5044 84.5341C17.9324 84.5341 17.4816 84.661 17.1521 84.9148C16.8263 85.1648 16.601 85.4432 16.476 85.75L14.8794 85.3864C15.0688 84.8561 15.3453 84.428 15.7089 84.1023C16.0763 83.7727 16.4987 83.5341 16.976 83.3864C17.4532 83.2348 17.9551 83.1591 18.4816 83.1591C18.8301 83.1591 19.1995 83.2008 19.5896 83.2841C19.9835 83.3636 20.351 83.5114 20.6919 83.7273C21.0366 83.9432 21.3188 84.2519 21.5385 84.6534C21.7582 85.0511 21.868 85.5682 21.868 86.2045V92H20.2089V90.8068H20.1407C20.0309 91.0265 19.8661 91.2424 19.6464 91.4545C19.4267 91.6667 19.1445 91.8428 18.7998 91.983C18.4551 92.1231 18.0423 92.1932 17.5612 92.1932ZM17.9305 90.8295C18.4002 90.8295 18.8017 90.7367 19.1351 90.5511C19.4722 90.3655 19.7279 90.1231 19.9021 89.8239C20.0801 89.5208 20.1691 89.197 20.1691 88.8523V87.7273C20.1085 87.7879 19.9911 87.8447 19.8169 87.8977C19.6464 87.947 19.4513 87.9905 19.2316 88.0284C19.012 88.0625 18.7979 88.0947 18.5896 88.125C18.3813 88.1515 18.207 88.1742 18.0669 88.1932C17.7373 88.2348 17.4362 88.3049 17.1635 88.4034C16.8945 88.5019 16.6786 88.6439 16.5157 88.8295C16.3566 89.0114 16.2771 89.2538 16.2771 89.5568C16.2771 89.9773 16.4324 90.2955 16.743 90.5114C17.0536 90.7235 17.4495 90.8295 17.9305 90.8295ZM23.6508 92V83.2727H25.3497V92H23.6508ZM24.5088 81.9261C24.2133 81.9261 23.9595 81.8277 23.7474 81.6307C23.5391 81.4299 23.4349 81.1913 23.4349 80.9148C23.4349 80.6345 23.5391 80.3958 23.7474 80.1989C23.9595 79.9981 24.2133 79.8977 24.5088 79.8977C24.8042 79.8977 25.0561 79.9981 25.2644 80.1989C25.4766 80.3958 25.5826 80.6345 25.5826 80.9148C25.5826 81.1913 25.4766 81.4299 25.2644 81.6307C25.0561 81.8277 24.8042 81.9261 24.5088 81.9261ZM29.6949 92.1932C29.1419 92.1932 28.6419 92.0909 28.1949 91.8864C27.748 91.678 27.3938 91.3769 27.1324 90.983C26.8749 90.589 26.7461 90.1061 26.7461 89.5341C26.7461 89.0417 26.8408 88.6364 27.0302 88.3182C27.2196 88 27.4752 87.7481 27.7972 87.5625C28.1192 87.3769 28.479 87.2367 28.8768 87.142C29.2745 87.0473 29.6798 86.9754 30.0927 86.9261C30.6154 86.8655 31.0396 86.8163 31.3654 86.7784C31.6912 86.7367 31.9279 86.6705 32.0756 86.5795C32.2234 86.4886 32.2972 86.3409 32.2972 86.1364V86.0966C32.2972 85.6004 32.1571 85.2159 31.8768 84.9432C31.6002 84.6705 31.1874 84.5341 30.6381 84.5341C30.0662 84.5341 29.6154 84.661 29.2859 84.9148C28.9601 85.1648 28.7347 85.4432 28.6097 85.75L27.0131 85.3864C27.2025 84.8561 27.479 84.428 27.8427 84.1023C28.2101 83.7727 28.6324 83.5341 29.1097 83.3864C29.587 83.2348 30.0889 83.1591 30.6154 83.1591C30.9639 83.1591 31.3332 83.2008 31.7234 83.2841C32.1173 83.3636 32.4847 83.5114 32.8256 83.7273C33.1703 83.9432 33.4525 84.2519 33.6722 84.6534C33.8919 85.0511 34.0018 85.5682 34.0018 86.2045V92H32.3427V90.8068H32.2745C32.1646 91.0265 31.9999 91.2424 31.7802 91.4545C31.5605 91.6667 31.2783 91.8428 30.9336 91.983C30.5889 92.1231 30.176 92.1932 29.6949 92.1932ZM30.0643 90.8295C30.534 90.8295 30.9355 90.7367 31.2688 90.5511C31.6059 90.3655 31.8616 90.1231 32.0359 89.8239C32.2139 89.5208 32.3029 89.197 32.3029 88.8523V87.7273C32.2423 87.7879 32.1249 87.8447 31.9506 87.8977C31.7802 87.947 31.5851 87.9905 31.3654 88.0284C31.1457 88.0625 30.9317 88.0947 30.7234 88.125C30.515 88.1515 30.3408 88.1742 30.2006 88.1932C29.8711 88.2348 29.5699 88.3049 29.2972 88.4034C29.0283 88.5019 28.8124 88.6439 28.6495 88.8295C28.4904 89.0114 28.4109 89.2538 28.4109 89.5568C28.4109 89.9773 28.5662 90.2955 28.8768 90.5114C29.1874 90.7235 29.5832 90.8295 30.0643 90.8295ZM39.5389 92V83.2727H41.2378V92H39.5389ZM40.3969 81.9261C40.1014 81.9261 39.8476 81.8277 39.6355 81.6307C39.4272 81.4299 39.323 81.1913 39.323 80.9148C39.323 80.6345 39.4272 80.3958 39.6355 80.1989C39.8476 79.9981 40.1014 79.8977 40.3969 79.8977C40.6923 79.8977 40.9442 79.9981 41.1526 80.1989C41.3647 80.3958 41.4707 80.6345 41.4707 80.9148C41.4707 81.1913 41.3647 81.4299 41.1526 81.6307C40.9442 81.8277 40.6923 81.9261 40.3969 81.9261ZM49.5831 85.4034L48.0433 85.6761C47.9789 85.4792 47.8766 85.2917 47.7365 85.1136C47.6001 84.9356 47.4145 84.7898 47.1797 84.6761C46.9448 84.5625 46.6512 84.5057 46.299 84.5057C45.8179 84.5057 45.4164 84.6136 45.0944 84.8295C44.7725 85.0417 44.6115 85.3163 44.6115 85.6534C44.6115 85.9451 44.7194 86.1799 44.9353 86.358C45.1512 86.536 45.4997 86.6818 45.9808 86.7955L47.3672 87.1136C48.1702 87.2992 48.7687 87.5852 49.1626 87.9716C49.5566 88.358 49.7535 88.8598 49.7535 89.4773C49.7535 90 49.602 90.4659 49.299 90.875C48.9997 91.2803 48.5812 91.5985 48.0433 91.8295C47.5092 92.0606 46.8899 92.1761 46.1853 92.1761C45.2081 92.1761 44.4107 91.9678 43.7933 91.5511C43.1759 91.1307 42.7971 90.5341 42.6569 89.7614L44.299 89.5114C44.4012 89.9394 44.6115 90.2633 44.9297 90.483C45.2478 90.6989 45.6626 90.8068 46.174 90.8068C46.7308 90.8068 47.1759 90.6913 47.5092 90.4602C47.8425 90.2254 48.0092 89.9394 48.0092 89.6023C48.0092 89.3295 47.9069 89.1004 47.7024 88.9148C47.5016 88.7292 47.1929 88.589 46.7762 88.4943L45.299 88.1705C44.4846 87.9848 43.8823 87.6894 43.4922 87.2841C43.1058 86.8788 42.9126 86.3655 42.9126 85.7443C42.9126 85.2292 43.0566 84.7784 43.3444 84.392C43.6323 84.0057 44.03 83.7045 44.5376 83.4886C45.0452 83.2689 45.6266 83.1591 46.2819 83.1591C47.2251 83.1591 47.9675 83.3636 48.5092 83.7727C49.0509 84.178 49.4088 84.7216 49.5831 85.4034ZM57.4356 92.1932C56.8825 92.1932 56.3825 92.0909 55.9356 91.8864C55.4886 91.678 55.1344 91.3769 54.8731 90.983C54.6155 90.589 54.4867 90.1061 54.4867 89.5341C54.4867 89.0417 54.5814 88.6364 54.7708 88.3182C54.9602 88 55.2159 87.7481 55.5378 87.5625C55.8598 87.3769 56.2197 87.2367 56.6174 87.142C57.0151 87.0473 57.4204 86.9754 57.8333 86.9261C58.356 86.8655 58.7803 86.8163 59.106 86.7784C59.4318 86.7367 59.6685 86.6705 59.8162 86.5795C59.964 86.4886 60.0378 86.3409 60.0378 86.1364V86.0966C60.0378 85.6004 59.8977 85.2159 59.6174 84.9432C59.3409 84.6705 58.928 84.5341 58.3787 84.5341C57.8068 84.5341 57.356 84.661 57.0265 84.9148C56.7007 85.1648 56.4753 85.4432 56.3503 85.75L54.7537 85.3864C54.9431 84.8561 55.2197 84.428 55.5833 84.1023C55.9507 83.7727 56.3731 83.5341 56.8503 83.3864C57.3276 83.2348 57.8295 83.1591 58.356 83.1591C58.7045 83.1591 59.0738 83.2008 59.464 83.2841C59.8579 83.3636 60.2253 83.5114 60.5662 83.7273C60.9109 83.9432 61.1931 84.2519 61.4128 84.6534C61.6325 85.0511 61.7424 85.5682 61.7424 86.2045V92H60.0833V90.8068H60.0151C59.9053 91.0265 59.7405 91.2424 59.5208 91.4545C59.3011 91.6667 59.0189 91.8428 58.6742 91.983C58.3295 92.1231 57.9166 92.1932 57.4356 92.1932ZM57.8049 90.8295C58.2746 90.8295 58.6761 90.7367 59.0094 90.5511C59.3466 90.3655 59.6022 90.1231 59.7765 89.8239C59.9545 89.5208 60.0435 89.197 60.0435 88.8523V87.7273C59.9829 87.7879 59.8655 87.8447 59.6912 87.8977C59.5208 87.947 59.3257 87.9905 59.106 88.0284C58.8863 88.0625 58.6723 88.0947 58.464 88.125C58.2556 88.1515 58.0814 88.1742 57.9412 88.1932C57.6117 88.2348 57.3106 88.3049 57.0378 88.4034C56.7689 88.5019 56.553 88.6439 56.3901 88.8295C56.231 89.0114 56.1515 89.2538 56.1515 89.5568C56.1515 89.9773 56.3068 90.2955 56.6174 90.5114C56.928 90.7235 57.3238 90.8295 57.8049 90.8295ZM68.9784 86.8182V92H67.2795V83.2727H68.9102V84.6932H69.0182C69.2189 84.2311 69.5333 83.8598 69.9614 83.5795C70.3932 83.2992 70.9367 83.1591 71.592 83.1591C72.1867 83.1591 72.7076 83.2841 73.1545 83.5341C73.6015 83.7803 73.9481 84.1477 74.1943 84.6364C74.4405 85.125 74.5636 85.7292 74.5636 86.4489V92H72.8648V86.6534C72.8648 86.0208 72.7 85.5265 72.3705 85.1705C72.0409 84.8106 71.5883 84.6307 71.0125 84.6307C70.6186 84.6307 70.2682 84.7159 69.9614 84.8864C69.6583 85.0568 69.4178 85.3068 69.2398 85.6364C69.0655 85.9621 68.9784 86.3561 68.9784 86.8182ZM80.1234 92.1761C79.2636 92.1761 78.523 91.9924 77.9018 91.625C77.2844 91.2538 76.8071 90.733 76.47 90.0625C76.1367 89.3883 75.97 88.5985 75.97 87.6932C75.97 86.7992 76.1367 86.0114 76.47 85.3295C76.8071 84.6477 77.2768 84.1155 77.8791 83.733C78.4852 83.3504 79.1935 83.1591 80.0041 83.1591C80.4965 83.1591 80.9738 83.2405 81.4359 83.4034C81.898 83.5663 82.3128 83.822 82.6802 84.1705C83.0477 84.5189 83.3374 84.9716 83.5495 85.5284C83.7617 86.0814 83.8677 86.7538 83.8677 87.5455V88.1477H76.9302V86.875H82.203C82.203 86.428 82.112 86.0322 81.9302 85.6875C81.7484 85.339 81.4927 85.0644 81.1632 84.8636C80.8374 84.6629 80.4548 84.5625 80.0155 84.5625C79.5382 84.5625 79.1215 84.6799 78.7655 84.9148C78.4132 85.1458 78.1405 85.4489 77.9473 85.8239C77.7579 86.1951 77.6632 86.5985 77.6632 87.0341V88.0284C77.6632 88.6117 77.7655 89.108 77.97 89.517C78.1783 89.9261 78.4681 90.2386 78.8393 90.4545C79.2105 90.6667 79.6442 90.7727 80.1405 90.7727C80.4624 90.7727 80.756 90.7273 81.0211 90.6364C81.2863 90.5417 81.5155 90.4015 81.7086 90.2159C81.9018 90.0303 82.0495 89.8011 82.1518 89.5284L83.7598 89.8182C83.631 90.2917 83.3999 90.7064 83.0666 91.0625C82.737 91.4148 82.3223 91.6894 81.8223 91.8864C81.3261 92.0795 80.7598 92.1761 80.1234 92.1761ZM87.1491 92L84.5809 83.2727H86.3366L88.0468 89.6818H88.132L89.848 83.2727H91.6036L93.3082 89.6534H93.3934L95.0923 83.2727H96.848L94.2855 92H92.5525L90.7798 85.6989H90.6491L88.8764 92H87.1491ZM105.808 83.2727V84.6364H101.041V83.2727H105.808ZM102.32 81.1818H104.019V89.4375C104.019 89.767 104.068 90.0152 104.166 90.1818C104.265 90.3447 104.392 90.4564 104.547 90.517C104.706 90.5739 104.878 90.6023 105.064 90.6023C105.2 90.6023 105.32 90.5928 105.422 90.5739C105.524 90.5549 105.604 90.5398 105.661 90.5284L105.967 91.9318C105.869 91.9697 105.729 92.0076 105.547 92.0455C105.365 92.0871 105.138 92.1098 104.865 92.1136C104.418 92.1212 104.002 92.0417 103.615 91.875C103.229 91.7083 102.916 91.4508 102.678 91.1023C102.439 90.7538 102.32 90.3163 102.32 89.7898V81.1818ZM110.875 92.1761C110.015 92.1761 109.275 91.9924 108.654 91.625C108.036 91.2538 107.559 90.733 107.222 90.0625C106.889 89.3883 106.722 88.5985 106.722 87.6932C106.722 86.7992 106.889 86.0114 107.222 85.3295C107.559 84.6477 108.029 84.1155 108.631 83.733C109.237 83.3504 109.945 83.1591 110.756 83.1591C111.248 83.1591 111.726 83.2405 112.188 83.4034C112.65 83.5663 113.065 83.822 113.432 84.1705C113.8 84.5189 114.089 84.9716 114.301 85.5284C114.514 86.0814 114.62 86.7538 114.62 87.5455V88.1477H107.682V86.875H112.955C112.955 86.428 112.864 86.0322 112.682 85.6875C112.5 85.339 112.245 85.0644 111.915 84.8636C111.589 84.6629 111.207 84.5625 110.767 84.5625C110.29 84.5625 109.873 84.6799 109.517 84.9148C109.165 85.1458 108.892 85.4489 108.699 85.8239C108.51 86.1951 108.415 86.5985 108.415 87.0341V88.0284C108.415 88.6117 108.517 89.108 108.722 89.517C108.93 89.9261 109.22 90.2386 109.591 90.4545C109.962 90.6667 110.396 90.7727 110.892 90.7727C111.214 90.7727 111.508 90.7273 111.773 90.6364C112.038 90.5417 112.267 90.4015 112.461 90.2159C112.654 90.0303 112.801 89.8011 112.904 89.5284L114.512 89.8182C114.383 90.2917 114.152 90.7064 113.818 91.0625C113.489 91.4148 113.074 91.6894 112.574 91.8864C112.078 92.0795 111.512 92.1761 110.875 92.1761ZM119.701 92.1761C118.856 92.1761 118.129 91.9848 117.519 91.6023C116.913 91.2159 116.447 90.6837 116.121 90.0057C115.795 89.3277 115.632 88.5511 115.632 87.6761C115.632 86.7898 115.799 86.0076 116.132 85.3295C116.466 84.6477 116.936 84.1155 117.542 83.733C118.148 83.3504 118.862 83.1591 119.684 83.1591C120.347 83.1591 120.937 83.2822 121.456 83.5284C121.975 83.7708 122.394 84.1117 122.712 84.5511C123.034 84.9905 123.225 85.5038 123.286 86.0909H121.632C121.542 85.6818 121.333 85.3295 121.007 85.0341C120.686 84.7386 120.254 84.5909 119.712 84.5909C119.239 84.5909 118.824 84.7159 118.468 84.9659C118.115 85.2121 117.841 85.5644 117.644 86.0227C117.447 86.4773 117.348 87.0152 117.348 87.6364C117.348 88.2727 117.445 88.822 117.638 89.2841C117.831 89.7462 118.104 90.1042 118.456 90.358C118.812 90.6117 119.231 90.7386 119.712 90.7386C120.034 90.7386 120.326 90.6799 120.587 90.5625C120.852 90.4413 121.074 90.2689 121.252 90.0455C121.434 89.822 121.561 89.553 121.632 89.2386H123.286C123.225 89.803 123.042 90.3068 122.735 90.75C122.428 91.1932 122.017 91.5417 121.502 91.7955C120.99 92.0492 120.39 92.1761 119.701 92.1761ZM126.322 86.8182V92H124.623V80.3636H126.299V84.6932H126.407C126.611 84.2235 126.924 83.8504 127.344 83.5739C127.765 83.2973 128.314 83.1591 128.992 83.1591C129.59 83.1591 130.113 83.2822 130.56 83.5284C131.011 83.7746 131.359 84.142 131.606 84.6307C131.856 85.1155 131.981 85.7216 131.981 86.4489V92H130.282V86.6534C130.282 86.0133 130.117 85.517 129.787 85.1648C129.458 84.8087 129 84.6307 128.412 84.6307C128.011 84.6307 127.651 84.7159 127.333 84.8864C127.019 85.0568 126.77 85.3068 126.589 85.6364C126.411 85.9621 126.322 86.3561 126.322 86.8182ZM137.522 92V83.2727H139.221V92H137.522ZM138.38 81.9261C138.085 81.9261 137.831 81.8277 137.619 81.6307C137.41 81.4299 137.306 81.1913 137.306 80.9148C137.306 80.6345 137.41 80.3958 137.619 80.1989C137.831 79.9981 138.085 79.8977 138.38 79.8977C138.675 79.8977 138.927 79.9981 139.136 80.1989C139.348 80.3958 139.454 80.6345 139.454 80.9148C139.454 81.1913 139.348 81.4299 139.136 81.6307C138.927 81.8277 138.675 81.9261 138.38 81.9261ZM142.725 86.8182V92H141.026V83.2727H142.657V84.6932H142.765C142.966 84.2311 143.28 83.8598 143.708 83.5795C144.14 83.2992 144.684 83.1591 145.339 83.1591C145.934 83.1591 146.454 83.2841 146.901 83.5341C147.348 83.7803 147.695 84.1477 147.941 84.6364C148.187 85.125 148.311 85.7292 148.311 86.4489V92H146.612V86.6534C146.612 86.0208 146.447 85.5265 146.117 85.1705C145.788 84.8106 145.335 84.6307 144.759 84.6307C144.365 84.6307 144.015 84.7159 143.708 84.8864C143.405 85.0568 143.165 85.3068 142.987 85.6364C142.812 85.9621 142.725 86.3561 142.725 86.8182ZM153.863 95.2727V83.2727H155.522V84.6875H155.664C155.763 84.5057 155.905 84.2955 156.091 84.0568C156.276 83.8182 156.534 83.6098 156.863 83.4318C157.193 83.25 157.628 83.1591 158.17 83.1591C158.875 83.1591 159.503 83.3371 160.056 83.6932C160.61 84.0492 161.043 84.5625 161.358 85.233C161.676 85.9034 161.835 86.7102 161.835 87.6534C161.835 88.5966 161.678 89.4053 161.363 90.0795C161.049 90.75 160.617 91.267 160.068 91.6307C159.519 91.9905 158.892 92.1705 158.187 92.1705C157.657 92.1705 157.223 92.0814 156.886 91.9034C156.553 91.7254 156.291 91.517 156.102 91.2784C155.913 91.0398 155.767 90.8277 155.664 90.642H155.562V95.2727H153.863ZM155.528 87.6364C155.528 88.25 155.617 88.7879 155.795 89.25C155.973 89.7121 156.231 90.0739 156.568 90.3352C156.905 90.5928 157.318 90.7216 157.806 90.7216C158.314 90.7216 158.738 90.5871 159.079 90.3182C159.42 90.0455 159.678 89.6761 159.852 89.2102C160.03 88.7443 160.119 88.2197 160.119 87.6364C160.119 87.0606 160.032 86.5436 159.858 86.0852C159.687 85.6269 159.43 85.2652 159.085 85C158.744 84.7348 158.318 84.6023 157.806 84.6023C157.314 84.6023 156.897 84.7292 156.556 84.983C156.219 85.2367 155.964 85.5909 155.789 86.0455C155.615 86.5 155.528 87.0303 155.528 87.6364ZM165.798 92.1932C165.245 92.1932 164.745 92.0909 164.298 91.8864C163.851 91.678 163.497 91.3769 163.236 90.983C162.978 90.589 162.849 90.1061 162.849 89.5341C162.849 89.0417 162.944 88.6364 163.133 88.3182C163.323 88 163.578 87.7481 163.9 87.5625C164.222 87.3769 164.582 87.2367 164.98 87.142C165.378 87.0473 165.783 86.9754 166.196 86.9261C166.719 86.8655 167.143 86.8163 167.469 86.7784C167.794 86.7367 168.031 86.6705 168.179 86.5795C168.326 86.4886 168.4 86.3409 168.4 86.1364V86.0966C168.4 85.6004 168.26 85.2159 167.98 84.9432C167.703 84.6705 167.29 84.5341 166.741 84.5341C166.169 84.5341 165.719 84.661 165.389 84.9148C165.063 85.1648 164.838 85.4432 164.713 85.75L163.116 85.3864C163.306 84.8561 163.582 84.428 163.946 84.1023C164.313 83.7727 164.736 83.5341 165.213 83.3864C165.69 83.2348 166.192 83.1591 166.719 83.1591C167.067 83.1591 167.436 83.2008 167.826 83.2841C168.22 83.3636 168.588 83.5114 168.929 83.7273C169.273 83.9432 169.556 84.2519 169.775 84.6534C169.995 85.0511 170.105 85.5682 170.105 86.2045V92H168.446V90.8068H168.378C168.268 91.0265 168.103 91.2424 167.883 91.4545C167.664 91.6667 167.381 91.8428 167.037 91.983C166.692 92.1231 166.279 92.1932 165.798 92.1932ZM166.167 90.8295C166.637 90.8295 167.039 90.7367 167.372 90.5511C167.709 90.3655 167.965 90.1231 168.139 89.8239C168.317 89.5208 168.406 89.197 168.406 88.8523V87.7273C168.345 87.7879 168.228 87.8447 168.054 87.8977C167.883 87.947 167.688 87.9905 167.469 88.0284C167.249 88.0625 167.035 88.0947 166.826 88.125C166.618 88.1515 166.444 88.1742 166.304 88.1932C165.974 88.2348 165.673 88.3049 165.4 88.4034C165.131 88.5019 164.915 88.6439 164.753 88.8295C164.594 89.0114 164.514 89.2538 164.514 89.5568C164.514 89.9773 164.669 90.2955 164.98 90.5114C165.29 90.7235 165.686 90.8295 166.167 90.8295ZM178.427 85.4034L176.888 85.6761C176.823 85.4792 176.721 85.2917 176.581 85.1136C176.444 84.9356 176.259 84.7898 176.024 84.6761C175.789 84.5625 175.496 84.5057 175.143 84.5057C174.662 84.5057 174.261 84.6136 173.939 84.8295C173.617 85.0417 173.456 85.3163 173.456 85.6534C173.456 85.9451 173.564 86.1799 173.78 86.358C173.996 86.536 174.344 86.6818 174.825 86.7955L176.212 87.1136C177.015 87.2992 177.613 87.5852 178.007 87.9716C178.401 88.358 178.598 88.8598 178.598 89.4773C178.598 90 178.446 90.4659 178.143 90.875C177.844 91.2803 177.426 91.5985 176.888 91.8295C176.354 92.0606 175.734 92.1761 175.03 92.1761C174.052 92.1761 173.255 91.9678 172.638 91.5511C172.02 91.1307 171.641 90.5341 171.501 89.7614L173.143 89.5114C173.246 89.9394 173.456 90.2633 173.774 90.483C174.092 90.6989 174.507 90.8068 175.018 90.8068C175.575 90.8068 176.02 90.6913 176.354 90.4602C176.687 90.2254 176.854 89.9394 176.854 89.6023C176.854 89.3295 176.751 89.1004 176.547 88.9148C176.346 88.7292 176.037 88.589 175.621 88.4943L174.143 88.1705C173.329 87.9848 172.727 87.6894 172.337 87.2841C171.95 86.8788 171.757 86.3655 171.757 85.7443C171.757 85.2292 171.901 84.7784 172.189 84.392C172.477 84.0057 172.874 83.7045 173.382 83.4886C173.89 83.2689 174.471 83.1591 175.126 83.1591C176.069 83.1591 176.812 83.3636 177.354 83.7727C177.895 84.178 178.253 84.7216 178.427 85.4034ZM186.526 85.4034L184.986 85.6761C184.921 85.4792 184.819 85.2917 184.679 85.1136C184.543 84.9356 184.357 84.7898 184.122 84.6761C183.887 84.5625 183.594 84.5057 183.241 84.5057C182.76 84.5057 182.359 84.6136 182.037 84.8295C181.715 85.0417 181.554 85.3163 181.554 85.6534C181.554 85.9451 181.662 86.1799 181.878 86.358C182.094 86.536 182.442 86.6818 182.923 86.7955L184.31 87.1136C185.113 87.2992 185.711 87.5852 186.105 87.9716C186.499 88.358 186.696 88.8598 186.696 89.4773C186.696 90 186.545 90.4659 186.241 90.875C185.942 91.2803 185.524 91.5985 184.986 91.8295C184.452 92.0606 183.832 92.1761 183.128 92.1761C182.151 92.1761 181.353 91.9678 180.736 91.5511C180.118 91.1307 179.74 90.5341 179.599 89.7614L181.241 89.5114C181.344 89.9394 181.554 90.2633 181.872 90.483C182.19 90.6989 182.605 90.8068 183.116 90.8068C183.673 90.8068 184.118 90.6913 184.452 90.4602C184.785 90.2254 184.952 89.9394 184.952 89.6023C184.952 89.3295 184.849 89.1004 184.645 88.9148C184.444 88.7292 184.135 88.589 183.719 88.4943L182.241 88.1705C181.427 87.9848 180.825 87.6894 180.435 87.2841C180.048 86.8788 179.855 86.3655 179.855 85.7443C179.855 85.2292 179.999 84.7784 180.287 84.392C180.575 84.0057 180.973 83.7045 181.48 83.4886C181.988 83.2689 182.569 83.1591 183.224 83.1591C184.168 83.1591 184.91 83.3636 185.452 83.7727C185.993 84.178 186.351 84.7216 186.526 85.4034ZM189.976 92L187.408 83.2727H189.163L190.874 89.6818H190.959L192.675 83.2727H194.431L196.135 89.6534H196.22L197.919 83.2727H199.675L197.112 92H195.379L193.607 85.6989H193.476L191.703 92H189.976ZM204.218 92.1761C203.399 92.1761 202.685 91.9886 202.076 91.6136C201.466 91.2386 200.992 90.714 200.655 90.0398C200.318 89.3655 200.149 88.5777 200.149 87.6761C200.149 86.7708 200.318 85.9792 200.655 85.3011C200.992 84.6231 201.466 84.0966 202.076 83.7216C202.685 83.3466 203.399 83.1591 204.218 83.1591C205.036 83.1591 205.75 83.3466 206.36 83.7216C206.969 84.0966 207.443 84.6231 207.78 85.3011C208.117 85.9792 208.286 86.7708 208.286 87.6761C208.286 88.5777 208.117 89.3655 207.78 90.0398C207.443 90.714 206.969 91.2386 206.36 91.6136C205.75 91.9886 205.036 92.1761 204.218 92.1761ZM204.223 90.75C204.754 90.75 205.193 90.6098 205.541 90.3295C205.89 90.0492 206.147 89.6761 206.314 89.2102C206.485 88.7443 206.57 88.2311 206.57 87.6705C206.57 87.1136 206.485 86.6023 206.314 86.1364C206.147 85.6667 205.89 85.2898 205.541 85.0057C205.193 84.7216 204.754 84.5795 204.223 84.5795C203.689 84.5795 203.246 84.7216 202.894 85.0057C202.545 85.2898 202.286 85.6667 202.115 86.1364C201.949 86.6023 201.865 87.1136 201.865 87.6705C201.865 88.2311 201.949 88.7443 202.115 89.2102C202.286 89.6761 202.545 90.0492 202.894 90.3295C203.246 90.6098 203.689 90.75 204.223 90.75ZM209.702 92V83.2727H211.344V84.6591H211.435C211.594 84.1894 211.874 83.8201 212.276 83.5511C212.681 83.2784 213.14 83.142 213.651 83.142C213.757 83.142 213.882 83.1458 214.026 83.1534C214.174 83.161 214.289 83.1705 214.372 83.1818V84.8068C214.304 84.7879 214.183 84.767 214.009 84.7443C213.835 84.7178 213.66 84.7045 213.486 84.7045C213.085 84.7045 212.727 84.7898 212.412 84.9602C212.102 85.1269 211.855 85.3598 211.674 85.6591C211.492 85.9545 211.401 86.2917 211.401 86.6705V92H209.702ZM218.317 92.1705C217.613 92.1705 216.984 91.9905 216.431 91.6307C215.882 91.267 215.45 90.75 215.135 90.0795C214.825 89.4053 214.669 88.5966 214.669 87.6534C214.669 86.7102 214.827 85.9034 215.141 85.233C215.459 84.5625 215.895 84.0492 216.448 83.6932C217.001 83.3371 217.628 83.1591 218.329 83.1591C218.87 83.1591 219.306 83.25 219.635 83.4318C219.969 83.6098 220.226 83.8182 220.408 84.0568C220.594 84.2955 220.738 84.5057 220.84 84.6875H220.942V80.3636H222.641V92H220.982V90.642H220.84C220.738 90.8277 220.59 91.0398 220.397 91.2784C220.207 91.517 219.946 91.7254 219.613 91.9034C219.279 92.0814 218.848 92.1705 218.317 92.1705ZM218.692 90.7216C219.181 90.7216 219.594 90.5928 219.931 90.3352C220.272 90.0739 220.529 89.7121 220.704 89.25C220.882 88.7879 220.971 88.25 220.971 87.6364C220.971 87.0303 220.884 86.5 220.709 86.0455C220.535 85.5909 220.279 85.2367 219.942 84.983C219.605 84.7292 219.188 84.6023 218.692 84.6023C218.181 84.6023 217.755 84.7348 217.414 85C217.073 85.2652 216.815 85.6269 216.641 86.0852C216.471 86.5436 216.385 87.0606 216.385 87.6364C216.385 88.2197 216.473 88.7443 216.647 89.2102C216.821 89.6761 217.079 90.0455 217.419 90.3182C217.764 90.5871 218.188 90.7216 218.692 90.7216ZM226.285 80.3636V92H224.586V80.3636H226.285ZM231.852 92.1761C230.992 92.1761 230.251 91.9924 229.63 91.625C229.013 91.2538 228.535 90.733 228.198 90.0625C227.865 89.3883 227.698 88.5985 227.698 87.6932C227.698 86.7992 227.865 86.0114 228.198 85.3295C228.535 84.6477 229.005 84.1155 229.607 83.733C230.213 83.3504 230.922 83.1591 231.732 83.1591C232.225 83.1591 232.702 83.2405 233.164 83.4034C233.626 83.5663 234.041 83.822 234.408 84.1705C234.776 84.5189 235.066 84.9716 235.278 85.5284C235.49 86.0814 235.596 86.7538 235.596 87.5455V88.1477H228.658V86.875H233.931C233.931 86.428 233.84 86.0322 233.658 85.6875C233.477 85.339 233.221 85.0644 232.891 84.8636C232.566 84.6629 232.183 84.5625 231.744 84.5625C231.266 84.5625 230.85 84.6799 230.494 84.9148C230.141 85.1458 229.869 85.4489 229.675 85.8239C229.486 86.1951 229.391 86.5985 229.391 87.0341V88.0284C229.391 88.6117 229.494 89.108 229.698 89.517C229.906 89.9261 230.196 90.2386 230.567 90.4545C230.939 90.6667 231.372 90.7727 231.869 90.7727C232.191 90.7727 232.484 90.7273 232.749 90.6364C233.014 90.5417 233.244 90.4015 233.437 90.2159C233.63 90.0303 233.778 89.8011 233.88 89.5284L235.488 89.8182C235.359 90.2917 235.128 90.7064 234.795 91.0625C234.465 91.4148 234.05 91.6894 233.55 91.8864C233.054 92.0795 232.488 92.1761 231.852 92.1761ZM243.541 85.4034L242.001 85.6761C241.936 85.4792 241.834 85.2917 241.694 85.1136C241.558 84.9356 241.372 84.7898 241.137 84.6761C240.902 84.5625 240.609 84.5057 240.256 84.5057C239.775 84.5057 239.374 84.6136 239.052 84.8295C238.73 85.0417 238.569 85.3163 238.569 85.6534C238.569 85.9451 238.677 86.1799 238.893 86.358C239.109 86.536 239.457 86.6818 239.938 86.7955L241.325 87.1136C242.128 87.2992 242.726 87.5852 243.12 87.9716C243.514 88.358 243.711 88.8598 243.711 89.4773C243.711 90 243.56 90.4659 243.256 90.875C242.957 91.2803 242.539 91.5985 242.001 91.8295C241.467 92.0606 240.847 92.1761 240.143 92.1761C239.166 92.1761 238.368 91.9678 237.751 91.5511C237.133 91.1307 236.755 90.5341 236.614 89.7614L238.256 89.5114C238.359 89.9394 238.569 90.2633 238.887 90.483C239.205 90.6989 239.62 90.8068 240.131 90.8068C240.688 90.8068 241.133 90.6913 241.467 90.4602C241.8 90.2254 241.967 89.9394 241.967 89.6023C241.967 89.3295 241.864 89.1004 241.66 88.9148C241.459 88.7292 241.15 88.589 240.734 88.4943L239.256 88.1705C238.442 87.9848 237.84 87.6894 237.45 87.2841C237.063 86.8788 236.87 86.3655 236.87 85.7443C236.87 85.2292 237.014 84.7784 237.302 84.392C237.59 84.0057 237.988 83.7045 238.495 83.4886C239.003 83.2689 239.584 83.1591 240.239 83.1591C241.183 83.1591 241.925 83.3636 242.467 83.7727C243.008 84.178 243.366 84.7216 243.541 85.4034ZM251.639 85.4034L250.099 85.6761C250.035 85.4792 249.932 85.2917 249.792 85.1136C249.656 84.9356 249.47 84.7898 249.235 84.6761C249 84.5625 248.707 84.5057 248.355 84.5057C247.874 84.5057 247.472 84.6136 247.15 84.8295C246.828 85.0417 246.667 85.3163 246.667 85.6534C246.667 85.9451 246.775 86.1799 246.991 86.358C247.207 86.536 247.555 86.6818 248.036 86.7955L249.423 87.1136C250.226 87.2992 250.824 87.5852 251.218 87.9716C251.612 88.358 251.809 88.8598 251.809 89.4773C251.809 90 251.658 90.4659 251.355 90.875C251.055 91.2803 250.637 91.5985 250.099 91.8295C249.565 92.0606 248.946 92.1761 248.241 92.1761C247.264 92.1761 246.466 91.9678 245.849 91.5511C245.231 91.1307 244.853 90.5341 244.713 89.7614L246.355 89.5114C246.457 89.9394 246.667 90.2633 246.985 90.483C247.303 90.6989 247.718 90.8068 248.23 90.8068C248.786 90.8068 249.231 90.6913 249.565 90.4602C249.898 90.2254 250.065 89.9394 250.065 89.6023C250.065 89.3295 249.963 89.1004 249.758 88.9148C249.557 88.7292 249.249 88.589 248.832 88.4943L247.355 88.1705C246.54 87.9848 245.938 87.6894 245.548 87.2841C245.161 86.8788 244.968 86.3655 244.968 85.7443C244.968 85.2292 245.112 84.7784 245.4 84.392C245.688 84.0057 246.086 83.7045 246.593 83.4886C247.101 83.2689 247.682 83.1591 248.338 83.1591C249.281 83.1591 250.023 83.3636 250.565 83.7727C251.107 84.178 251.464 84.7216 251.639 85.4034ZM259.491 92.1932C258.938 92.1932 258.438 92.0909 257.991 91.8864C257.544 91.678 257.19 91.3769 256.929 90.983C256.671 90.589 256.542 90.1061 256.542 89.5341C256.542 89.0417 256.637 88.6364 256.826 88.3182C257.016 88 257.271 87.7481 257.593 87.5625C257.915 87.3769 258.275 87.2367 258.673 87.142C259.071 87.0473 259.476 86.9754 259.889 86.9261C260.412 86.8655 260.836 86.8163 261.162 86.7784C261.487 86.7367 261.724 86.6705 261.872 86.5795C262.02 86.4886 262.093 86.3409 262.093 86.1364V86.0966C262.093 85.6004 261.953 85.2159 261.673 84.9432C261.396 84.6705 260.984 84.5341 260.434 84.5341C259.862 84.5341 259.412 84.661 259.082 84.9148C258.756 85.1648 258.531 85.4432 258.406 85.75L256.809 85.3864C256.999 84.8561 257.275 84.428 257.639 84.1023C258.006 83.7727 258.429 83.5341 258.906 83.3864C259.383 83.2348 259.885 83.1591 260.412 83.1591C260.76 83.1591 261.129 83.2008 261.52 83.2841C261.914 83.3636 262.281 83.5114 262.622 83.7273C262.967 83.9432 263.249 84.2519 263.468 84.6534C263.688 85.0511 263.798 85.5682 263.798 86.2045V92H262.139V90.8068H262.071C261.961 91.0265 261.796 91.2424 261.576 91.4545C261.357 91.6667 261.075 91.8428 260.73 91.983C260.385 92.1231 259.972 92.1932 259.491 92.1932ZM259.861 90.8295C260.33 90.8295 260.732 90.7367 261.065 90.5511C261.402 90.3655 261.658 90.1231 261.832 89.8239C262.01 89.5208 262.099 89.197 262.099 88.8523V87.7273C262.039 87.7879 261.921 87.8447 261.747 87.8977C261.576 87.947 261.381 87.9905 261.162 88.0284C260.942 88.0625 260.728 88.0947 260.52 88.125C260.311 88.1515 260.137 88.1742 259.997 88.1932C259.667 88.2348 259.366 88.3049 259.093 88.4034C258.825 88.5019 258.609 88.6439 258.446 88.8295C258.287 89.0114 258.207 89.2538 258.207 89.5568C258.207 89.9773 258.362 90.2955 258.673 90.5114C258.984 90.7235 259.379 90.8295 259.861 90.8295ZM271.109 88.3807V83.2727H272.814V92H271.143V90.4886H271.052C270.852 90.9545 270.53 91.3428 270.086 91.6534C269.647 91.9602 269.1 92.1136 268.444 92.1136C267.884 92.1136 267.388 91.9905 266.956 91.7443C266.528 91.4943 266.191 91.125 265.944 90.6364C265.702 90.1477 265.581 89.5436 265.581 88.8239V83.2727H267.28V88.6193C267.28 89.214 267.444 89.6875 267.774 90.0398C268.104 90.392 268.532 90.5682 269.058 90.5682C269.376 90.5682 269.693 90.4886 270.007 90.3295C270.325 90.1705 270.588 89.9299 270.797 89.608C271.009 89.286 271.113 88.8769 271.109 88.3807ZM278.69 83.2727V84.6364H273.923V83.2727H278.69ZM275.202 81.1818H276.901V89.4375C276.901 89.767 276.95 90.0152 277.048 90.1818C277.147 90.3447 277.274 90.4564 277.429 90.517C277.588 90.5739 277.76 90.6023 277.946 90.6023C278.082 90.6023 278.202 90.5928 278.304 90.5739C278.406 90.5549 278.486 90.5398 278.543 90.5284L278.849 91.9318C278.751 91.9697 278.611 92.0076 278.429 92.0455C278.247 92.0871 278.02 92.1098 277.747 92.1136C277.3 92.1212 276.883 92.0417 276.497 91.875C276.111 91.7083 275.798 91.4508 275.56 91.1023C275.321 90.7538 275.202 90.3163 275.202 89.7898V81.1818ZM281.976 86.8182V92H280.277V80.3636H281.953V84.6932H282.061C282.266 84.2235 282.578 83.8504 282.999 83.5739C283.419 83.2973 283.968 83.1591 284.646 83.1591C285.245 83.1591 285.768 83.2822 286.215 83.5284C286.665 83.7746 287.014 84.142 287.26 84.6307C287.51 85.1155 287.635 85.7216 287.635 86.4489V92H285.936V86.6534C285.936 86.0133 285.771 85.517 285.442 85.1648C285.112 84.8087 284.654 84.6307 284.067 84.6307C283.665 84.6307 283.305 84.7159 282.987 84.8864C282.673 85.0568 282.425 85.3068 282.243 85.6364C282.065 85.9621 281.976 86.3561 281.976 86.8182ZM293.183 92.1761C292.324 92.1761 291.583 91.9924 290.962 91.625C290.344 91.2538 289.867 90.733 289.53 90.0625C289.197 89.3883 289.03 88.5985 289.03 87.6932C289.03 86.7992 289.197 86.0114 289.53 85.3295C289.867 84.6477 290.337 84.1155 290.939 83.733C291.545 83.3504 292.253 83.1591 293.064 83.1591C293.557 83.1591 294.034 83.2405 294.496 83.4034C294.958 83.5663 295.373 83.822 295.74 84.1705C296.108 84.5189 296.397 84.9716 296.61 85.5284C296.822 86.0814 296.928 86.7538 296.928 87.5455V88.1477H289.99V86.875H295.263C295.263 86.428 295.172 86.0322 294.99 85.6875C294.808 85.339 294.553 85.0644 294.223 84.8636C293.897 84.6629 293.515 84.5625 293.075 84.5625C292.598 84.5625 292.182 84.6799 291.825 84.9148C291.473 85.1458 291.2 85.4489 291.007 85.8239C290.818 86.1951 290.723 86.5985 290.723 87.0341V88.0284C290.723 88.6117 290.825 89.108 291.03 89.517C291.238 89.9261 291.528 90.2386 291.899 90.4545C292.271 90.6667 292.704 90.7727 293.2 90.7727C293.522 90.7727 293.816 90.7273 294.081 90.6364C294.346 90.5417 294.575 90.4015 294.769 90.2159C294.962 90.0303 295.11 89.8011 295.212 89.5284L296.82 89.8182C296.691 90.2917 296.46 90.7064 296.127 91.0625C295.797 91.4148 295.382 91.6894 294.882 91.8864C294.386 92.0795 293.82 92.1761 293.183 92.1761ZM300.032 86.8182V92H298.333V83.2727H299.963V84.6932H300.071C300.272 84.2311 300.586 83.8598 301.014 83.5795C301.446 83.2992 301.99 83.1591 302.645 83.1591C303.24 83.1591 303.761 83.2841 304.208 83.5341C304.655 83.7803 305.001 84.1477 305.247 84.6364C305.494 85.125 305.617 85.7292 305.617 86.4489V92H303.918V86.6534C303.918 86.0208 303.753 85.5265 303.424 85.1705C303.094 84.8106 302.641 84.6307 302.066 84.6307C301.672 84.6307 301.321 84.7159 301.014 84.8864C300.711 85.0568 300.471 85.3068 300.293 85.6364C300.119 85.9621 300.032 86.3561 300.032 86.8182ZM311.489 83.2727V84.6364H306.722V83.2727H311.489ZM308 81.1818H309.699V89.4375C309.699 89.767 309.749 90.0152 309.847 90.1818C309.945 90.3447 310.072 90.4564 310.228 90.517C310.387 90.5739 310.559 90.6023 310.745 90.6023C310.881 90.6023 311 90.5928 311.103 90.5739C311.205 90.5549 311.284 90.5398 311.341 90.5284L311.648 91.9318C311.55 91.9697 311.409 92.0076 311.228 92.0455C311.046 92.0871 310.819 92.1098 310.546 92.1136C310.099 92.1212 309.682 92.0417 309.296 91.875C308.909 91.7083 308.597 91.4508 308.358 91.1023C308.12 90.7538 308 90.3163 308 89.7898V81.1818ZM312.888 92V83.2727H314.587V92H312.888ZM313.746 81.9261C313.451 81.9261 313.197 81.8277 312.985 81.6307C312.777 81.4299 312.672 81.1913 312.672 80.9148C312.672 80.6345 312.777 80.3958 312.985 80.1989C313.197 79.9981 313.451 79.8977 313.746 79.8977C314.042 79.8977 314.294 79.9981 314.502 80.1989C314.714 80.3958 314.82 80.6345 314.82 80.9148C314.82 81.1913 314.714 81.4299 314.502 81.6307C314.294 81.8277 314.042 81.9261 313.746 81.9261ZM320.069 92.1761C319.224 92.1761 318.497 91.9848 317.887 91.6023C317.281 91.2159 316.815 90.6837 316.489 90.0057C316.163 89.3277 316.001 88.5511 316.001 87.6761C316.001 86.7898 316.167 86.0076 316.501 85.3295C316.834 84.6477 317.304 84.1155 317.91 83.733C318.516 83.3504 319.23 83.1591 320.052 83.1591C320.715 83.1591 321.306 83.2822 321.824 83.5284C322.343 83.7708 322.762 84.1117 323.08 84.5511C323.402 84.9905 323.593 85.5038 323.654 86.0909H322.001C321.91 85.6818 321.701 85.3295 321.376 85.0341C321.054 84.7386 320.622 84.5909 320.08 84.5909C319.607 84.5909 319.192 84.7159 318.836 84.9659C318.484 85.2121 318.209 85.5644 318.012 86.0227C317.815 86.4773 317.717 87.0152 317.717 87.6364C317.717 88.2727 317.813 88.822 318.006 89.2841C318.199 89.7462 318.472 90.1042 318.824 90.358C319.181 90.6117 319.599 90.7386 320.08 90.7386C320.402 90.7386 320.694 90.6799 320.955 90.5625C321.22 90.4413 321.442 90.2689 321.62 90.0455C321.802 89.822 321.929 89.553 322.001 89.2386H323.654C323.593 89.803 323.41 90.3068 323.103 90.75C322.796 91.1932 322.385 91.5417 321.87 91.7955C321.359 92.0492 320.758 92.1761 320.069 92.1761ZM327.531 92.1932C326.978 92.1932 326.478 92.0909 326.031 91.8864C325.584 91.678 325.229 91.3769 324.968 90.983C324.71 90.589 324.582 90.1061 324.582 89.5341C324.582 89.0417 324.676 88.6364 324.866 88.3182C325.055 88 325.311 87.7481 325.633 87.5625C325.955 87.3769 326.315 87.2367 326.712 87.142C327.11 87.0473 327.515 86.9754 327.928 86.9261C328.451 86.8655 328.875 86.8163 329.201 86.7784C329.527 86.7367 329.764 86.6705 329.911 86.5795C330.059 86.4886 330.133 86.3409 330.133 86.1364V86.0966C330.133 85.6004 329.993 85.2159 329.712 84.9432C329.436 84.6705 329.023 84.5341 328.474 84.5341C327.902 84.5341 327.451 84.661 327.121 84.9148C326.796 85.1648 326.57 85.4432 326.445 85.75L324.849 85.3864C325.038 84.8561 325.315 84.428 325.678 84.1023C326.046 83.7727 326.468 83.5341 326.945 83.3864C327.423 83.2348 327.925 83.1591 328.451 83.1591C328.8 83.1591 329.169 83.2008 329.559 83.2841C329.953 83.3636 330.32 83.5114 330.661 83.7273C331.006 83.9432 331.288 84.2519 331.508 84.6534C331.728 85.0511 331.837 85.5682 331.837 86.2045V92H330.178V90.8068H330.11C330 91.0265 329.835 91.2424 329.616 91.4545C329.396 91.6667 329.114 91.8428 328.769 91.983C328.425 92.1231 328.012 92.1932 327.531 92.1932ZM327.9 90.8295C328.37 90.8295 328.771 90.7367 329.104 90.5511C329.442 90.3655 329.697 90.1231 329.871 89.8239C330.05 89.5208 330.139 89.197 330.139 88.8523V87.7273C330.078 87.7879 329.96 87.8447 329.786 87.8977C329.616 87.947 329.421 87.9905 329.201 88.0284C328.981 88.0625 328.767 88.0947 328.559 88.125C328.351 88.1515 328.176 88.1742 328.036 88.1932C327.707 88.2348 327.406 88.3049 327.133 88.4034C326.864 88.5019 326.648 88.6439 326.485 88.8295C326.326 89.0114 326.246 89.2538 326.246 89.5568C326.246 89.9773 326.402 90.2955 326.712 90.5114C327.023 90.7235 327.419 90.8295 327.9 90.8295ZM337.694 83.2727V84.6364H332.927V83.2727H337.694ZM334.205 81.1818H335.904V89.4375C335.904 89.767 335.953 90.0152 336.052 90.1818C336.15 90.3447 336.277 90.4564 336.433 90.517C336.592 90.5739 336.764 90.6023 336.95 90.6023C337.086 90.6023 337.205 90.5928 337.308 90.5739C337.41 90.5549 337.489 90.5398 337.546 90.5284L337.853 91.9318C337.755 91.9697 337.614 92.0076 337.433 92.0455C337.251 92.0871 337.024 92.1098 336.751 92.1136C336.304 92.1212 335.887 92.0417 335.501 91.875C335.114 91.7083 334.802 91.4508 334.563 91.1023C334.325 90.7538 334.205 90.3163 334.205 89.7898V81.1818ZM339.093 92V83.2727H340.792V92H339.093ZM339.951 81.9261C339.656 81.9261 339.402 81.8277 339.19 81.6307C338.982 81.4299 338.877 81.1913 338.877 80.9148C338.877 80.6345 338.982 80.3958 339.19 80.1989C339.402 79.9981 339.656 79.8977 339.951 79.8977C340.247 79.8977 340.499 79.9981 340.707 80.1989C340.919 80.3958 341.025 80.6345 341.025 80.9148C341.025 81.1913 340.919 81.4299 340.707 81.6307C340.499 81.8277 340.247 81.9261 339.951 81.9261ZM346.274 92.1761C345.456 92.1761 344.742 91.9886 344.132 91.6136C343.522 91.2386 343.048 90.714 342.711 90.0398C342.374 89.3655 342.206 88.5777 342.206 87.6761C342.206 86.7708 342.374 85.9792 342.711 85.3011C343.048 84.6231 343.522 84.0966 344.132 83.7216C344.742 83.3466 345.456 83.1591 346.274 83.1591C347.092 83.1591 347.806 83.3466 348.416 83.7216C349.026 84.0966 349.499 84.6231 349.836 85.3011C350.173 85.9792 350.342 86.7708 350.342 87.6761C350.342 88.5777 350.173 89.3655 349.836 90.0398C349.499 90.714 349.026 91.2386 348.416 91.6136C347.806 91.9886 347.092 92.1761 346.274 92.1761ZM346.279 90.75C346.81 90.75 347.249 90.6098 347.598 90.3295C347.946 90.0492 348.204 89.6761 348.37 89.2102C348.541 88.7443 348.626 88.2311 348.626 87.6705C348.626 87.1136 348.541 86.6023 348.37 86.1364C348.204 85.6667 347.946 85.2898 347.598 85.0057C347.249 84.7216 346.81 84.5795 346.279 84.5795C345.745 84.5795 345.302 84.7216 344.95 85.0057C344.601 85.2898 344.342 85.6667 344.172 86.1364C344.005 86.6023 343.922 87.1136 343.922 87.6705C343.922 88.2311 344.005 88.7443 344.172 89.2102C344.342 89.6761 344.601 90.0492 344.95 90.3295C345.302 90.6098 345.745 90.75 346.279 90.75ZM353.457 86.8182V92H351.758V83.2727H353.389V84.6932H353.497C353.698 84.2311 354.012 83.8598 354.44 83.5795C354.872 83.2992 355.415 83.1591 356.071 83.1591C356.665 83.1591 357.186 83.2841 357.633 83.5341C358.08 83.7803 358.427 84.1477 358.673 84.6364C358.919 85.125 359.042 85.7292 359.042 86.4489V92H357.344V86.6534C357.344 86.0208 357.179 85.5265 356.849 85.1705C356.52 84.8106 356.067 84.6307 355.491 84.6307C355.097 84.6307 354.747 84.7159 354.44 84.8864C354.137 85.0568 353.897 85.3068 353.719 85.6364C353.544 85.9621 353.457 86.3561 353.457 86.8182Z" fill="white"/>
</svg>
