<svg width="559" height="135" viewBox="0 0 559 135" fill="none" xmlns="http://www.w3.org/2000/svg">
<path d="M299.456 46.2C295.402 46.2 291.989 45.2 289.216 43.2C286.442 41.1733 284.336 38.44 282.896 35C281.482 31.5333 280.776 27.6533 280.776 23.36C280.776 19.0133 281.482 15.12 282.896 11.68C284.336 8.24 286.442 5.53333 289.216 3.56C292.016 1.58667 295.442 0.599999 299.496 0.599999C303.496 0.599999 306.936 1.6 309.816 3.6C312.722 5.57333 314.949 8.28 316.496 11.72C318.042 15.16 318.816 19.04 318.816 23.36C318.816 27.68 318.042 31.56 316.496 35C314.949 38.44 312.722 41.1733 309.816 43.2C306.936 45.2 303.482 46.2 299.456 46.2ZM279.576 64.2V1.8H285.936V33.6H286.736V64.2H279.576ZM298.576 39.68C301.429 39.68 303.789 38.96 305.656 37.52C307.522 36.08 308.922 34.1333 309.856 31.68C310.789 29.2 311.256 26.4267 311.256 23.36C311.256 20.32 310.789 17.5733 309.856 15.12C308.949 12.6667 307.536 10.72 305.616 9.28C303.722 7.84 301.309 7.12 298.376 7.12C295.576 7.12 293.256 7.81333 291.416 9.2C289.576 10.56 288.202 12.4667 287.296 14.92C286.389 17.3467 285.936 20.16 285.936 23.36C285.936 26.5067 286.376 29.32 287.256 31.8C288.162 34.2533 289.549 36.1867 291.416 37.6C293.282 38.9867 295.669 39.68 298.576 39.68ZM343.304 46.2C339.064 46.2 335.358 45.2667 332.184 43.4C329.038 41.5067 326.584 38.88 324.824 35.52C323.064 32.1333 322.184 28.1867 322.184 23.68C322.184 18.96 323.051 14.88 324.784 11.44C326.518 7.97333 328.931 5.30667 332.024 3.44C335.144 1.54667 338.798 0.599999 342.984 0.599999C347.331 0.599999 351.024 1.6 354.064 3.6C357.131 5.6 359.424 8.45333 360.944 12.16C362.491 15.8667 363.158 20.28 362.944 25.4H355.744V22.84C355.664 17.5333 354.584 13.5733 352.504 10.96C350.424 8.32 347.331 7 343.224 7C338.824 7 335.478 8.41333 333.184 11.24C330.891 14.0667 329.744 18.12 329.744 23.4C329.744 28.4933 330.891 32.44 333.184 35.24C335.478 38.04 338.744 39.44 342.984 39.44C345.838 39.44 348.318 38.7867 350.424 37.48C352.531 36.1733 354.184 34.2933 355.384 31.84L362.224 34.2C360.544 38.0133 358.011 40.9733 354.624 43.08C351.264 45.16 347.491 46.2 343.304 46.2ZM327.344 25.4V19.68H359.264V25.4H327.344ZM368.81 45V1.8H375.69V38.52H390.57V1.8H397.45V38.52H412.29V1.8H419.17V45H368.81ZM439.614 46.2C436.388 46.2 433.681 45.6133 431.494 44.44C429.334 43.24 427.694 41.6667 426.574 39.72C425.481 37.7733 424.934 35.64 424.934 33.32C424.934 31.0533 425.361 29.0933 426.214 27.44C427.094 25.76 428.321 24.3733 429.894 23.28C431.468 22.16 433.348 21.28 435.534 20.64C437.588 20.08 439.881 19.6 442.414 19.2C444.974 18.7733 447.561 18.3867 450.174 18.04C452.788 17.6933 455.228 17.36 457.494 17.04L454.934 18.52C455.014 14.68 454.241 11.84 452.614 10C451.014 8.16 448.241 7.24 444.294 7.24C441.681 7.24 439.388 7.84 437.414 9.04C435.468 10.2133 434.094 12.1333 433.294 14.8L426.534 12.76C427.574 8.97333 429.588 6 432.574 3.84C435.561 1.68 439.494 0.599999 444.374 0.599999C448.294 0.599999 451.654 1.30667 454.454 2.72C457.281 4.10667 459.308 6.21333 460.534 9.04C461.148 10.3733 461.534 11.8267 461.694 13.4C461.854 14.9467 461.934 16.5733 461.934 18.28V45H455.614V34.64L457.094 35.6C455.468 39.0933 453.188 41.7333 450.254 43.52C447.348 45.3067 443.801 46.2 439.614 46.2ZM440.694 40.24C443.254 40.24 445.468 39.7867 447.334 38.88C449.228 37.9467 450.748 36.7333 451.894 35.24C453.041 33.72 453.788 32.0667 454.134 30.28C454.534 28.9467 454.748 27.4667 454.774 25.84C454.828 24.1867 454.854 22.92 454.854 22.04L457.334 23.12C455.014 23.44 452.734 23.7467 450.494 24.04C448.254 24.3333 446.134 24.6533 444.134 25C442.134 25.32 440.334 25.7067 438.734 26.16C437.561 26.5333 436.454 27.0133 435.414 27.6C434.401 28.1867 433.574 28.9467 432.934 29.88C432.321 30.7867 432.014 31.92 432.014 33.28C432.014 34.4533 432.308 35.5733 432.894 36.64C433.508 37.7067 434.441 38.5733 435.694 39.24C436.974 39.9067 438.641 40.24 440.694 40.24ZM488.054 46.2C483.814 46.2 480.108 45.2667 476.934 43.4C473.788 41.5067 471.334 38.88 469.574 35.52C467.814 32.1333 466.934 28.1867 466.934 23.68C466.934 18.96 467.801 14.88 469.534 11.44C471.268 7.97333 473.681 5.30667 476.774 3.44C479.894 1.54667 483.548 0.599999 487.734 0.599999C492.081 0.599999 495.774 1.6 498.814 3.6C501.881 5.6 504.174 8.45333 505.694 12.16C507.241 15.8667 507.908 20.28 507.694 25.4H500.494V22.84C500.414 17.5333 499.334 13.5733 497.254 10.96C495.174 8.32 492.081 7 487.974 7C483.574 7 480.228 8.41333 477.934 11.24C475.641 14.0667 474.494 18.12 474.494 23.4C474.494 28.4933 475.641 32.44 477.934 35.24C480.228 38.04 483.494 39.44 487.734 39.44C490.588 39.44 493.068 38.7867 495.174 37.48C497.281 36.1733 498.934 34.2933 500.134 31.84L506.974 34.2C505.294 38.0133 502.761 40.9733 499.374 43.08C496.014 45.16 492.241 46.2 488.054 46.2ZM472.094 25.4V19.68H504.014V25.4H472.094ZM512.388 45V1.8H518.508L534.908 35.32L551.308 1.8H557.428V45H550.548V16.64L536.788 45H533.028L519.268 16.64V45H512.388ZM19.4863 126.2C15.2196 126.2 11.4463 125.28 8.16625 123.44C4.88625 121.573 2.29958 119.013 0.40625 115.76L6.08625 112.08C7.65958 114.453 9.53958 116.28 11.7263 117.56C13.9129 118.813 16.4063 119.44 19.2063 119.44C22.1396 119.44 24.4729 118.773 26.2063 117.44C27.9396 116.08 28.8063 114.253 28.8063 111.96C28.8063 110.253 28.3796 108.947 27.5263 108.04C26.6729 107.133 25.4463 106.507 23.8463 106.16C22.2463 105.813 20.3396 105.64 18.1263 105.64H13.6463V99.76H18.0863C20.8863 99.76 23.1663 99.3067 24.9263 98.4C26.6863 97.4933 27.5663 95.9467 27.5663 93.76C27.5663 91.52 26.7396 89.8933 25.0863 88.88C23.4596 87.84 21.5129 87.32 19.2463 87.32C16.8463 87.32 14.5529 87.8267 12.3663 88.84C10.1796 89.8267 8.29958 91.08 6.72625 92.6L2.40625 87.76C4.64625 85.4667 7.21958 83.7067 10.1263 82.48C13.0596 81.2267 16.2463 80.6 19.6863 80.6C22.4596 80.6 24.9929 81.0933 27.2863 82.08C29.6063 83.04 31.4463 84.4667 32.8063 86.36C34.1929 88.2267 34.8863 90.5067 34.8863 93.2C34.8863 95.4933 34.3529 97.5333 33.2863 99.32C32.2196 101.107 30.6463 102.667 28.5663 104L28.2863 101.48C30.0463 101.907 31.4996 102.693 32.6463 103.84C33.8196 104.96 34.6863 106.293 35.2463 107.84C35.8063 109.387 36.0863 111 36.0863 112.68C36.0863 115.507 35.3396 117.933 33.8463 119.96C32.3796 121.96 30.3929 123.507 27.8863 124.6C25.3796 125.667 22.5796 126.2 19.4863 126.2ZM54.1456 126.2C50.919 126.2 48.2123 125.613 46.0256 124.44C43.8656 123.24 42.2256 121.667 41.1056 119.72C40.0123 117.773 39.4656 115.64 39.4656 113.32C39.4656 111.053 39.8923 109.093 40.7456 107.44C41.6256 105.76 42.8523 104.373 44.4256 103.28C45.999 102.16 47.879 101.28 50.0656 100.64C52.119 100.08 54.4123 99.6 56.9456 99.2C59.5056 98.7733 62.0923 98.3867 64.7056 98.04C67.319 97.6933 69.759 97.36 72.0256 97.04L69.4656 98.52C69.5456 94.68 68.7723 91.84 67.1456 90C65.5456 88.16 62.7723 87.24 58.8256 87.24C56.2123 87.24 53.919 87.84 51.9456 89.04C49.999 90.2133 48.6256 92.1333 47.8256 94.8L41.0656 92.76C42.1056 88.9733 44.119 86 47.1056 83.84C50.0923 81.68 54.0256 80.6 58.9056 80.6C62.8256 80.6 66.1856 81.3067 68.9856 82.72C71.8123 84.1067 73.839 86.2133 75.0656 89.04C75.679 90.3733 76.0656 91.8267 76.2256 93.4C76.3856 94.9467 76.4656 96.5733 76.4656 98.28V125H70.1456V114.64L71.6256 115.6C69.999 119.093 67.719 121.733 64.7856 123.52C61.879 125.307 58.3323 126.2 54.1456 126.2ZM55.2256 120.24C57.7856 120.24 59.999 119.787 61.8656 118.88C63.759 117.947 65.279 116.733 66.4256 115.24C67.5723 113.72 68.319 112.067 68.6656 110.28C69.0656 108.947 69.279 107.467 69.3056 105.84C69.359 104.187 69.3856 102.92 69.3856 102.04L71.8656 103.12C69.5456 103.44 67.2656 103.747 65.0256 104.04C62.7856 104.333 60.6656 104.653 58.6656 105C56.6656 105.32 54.8656 105.707 53.2656 106.16C52.0923 106.533 50.9856 107.013 49.9456 107.6C48.9323 108.187 48.1056 108.947 47.4656 109.88C46.8523 110.787 46.5456 111.92 46.5456 113.28C46.5456 114.453 46.839 115.573 47.4256 116.64C48.039 117.707 48.9723 118.573 50.2256 119.24C51.5056 119.907 53.1723 120.24 55.2256 120.24ZM80.6656 134.6V119.12C83.0923 119.12 84.8256 118.333 85.8656 116.76C86.9056 115.16 87.7456 112.533 88.3856 108.88C88.8123 106.587 89.159 104.133 89.4256 101.52C89.6923 98.9067 89.919 96 90.1056 92.8C90.319 89.5733 90.519 85.9067 90.7056 81.8H120.466V119.12H124.666V134.6H117.866V125H87.4656V134.6H80.6656ZM91.6256 119.12H113.346V87.68H97.1456C97.0656 89.5733 96.959 91.56 96.8256 93.64C96.6923 95.6933 96.5323 97.7467 96.3456 99.8C96.1856 101.853 95.9856 103.8 95.7456 105.64C95.5323 107.453 95.279 109.08 94.9856 110.52C94.639 112.52 94.239 114.213 93.7856 115.6C93.3323 116.987 92.6123 118.16 91.6256 119.12ZM139.552 126.2C136.325 126.2 133.619 125.613 131.432 124.44C129.272 123.24 127.632 121.667 126.512 119.72C125.419 117.773 124.872 115.64 124.872 113.32C124.872 111.053 125.299 109.093 126.152 107.44C127.032 105.76 128.259 104.373 129.832 103.28C131.405 102.16 133.285 101.28 135.472 100.64C137.525 100.08 139.819 99.6 142.352 99.2C144.912 98.7733 147.499 98.3867 150.112 98.04C152.725 97.6933 155.165 97.36 157.432 97.04L154.872 98.52C154.952 94.68 154.179 91.84 152.552 90C150.952 88.16 148.179 87.24 144.232 87.24C141.619 87.24 139.325 87.84 137.352 89.04C135.405 90.2133 134.032 92.1333 133.232 94.8L126.472 92.76C127.512 88.9733 129.525 86 132.512 83.84C135.499 81.68 139.432 80.6 144.312 80.6C148.232 80.6 151.592 81.3067 154.392 82.72C157.219 84.1067 159.245 86.2133 160.472 89.04C161.085 90.3733 161.472 91.8267 161.632 93.4C161.792 94.9467 161.872 96.5733 161.872 98.28V125H155.552V114.64L157.032 115.6C155.405 119.093 153.125 121.733 150.192 123.52C147.285 125.307 143.739 126.2 139.552 126.2ZM140.632 120.24C143.192 120.24 145.405 119.787 147.272 118.88C149.165 117.947 150.685 116.733 151.832 115.24C152.979 113.72 153.725 112.067 154.072 110.28C154.472 108.947 154.685 107.467 154.712 105.84C154.765 104.187 154.792 102.92 154.792 102.04L157.272 103.12C154.952 103.44 152.672 103.747 150.432 104.04C148.192 104.333 146.072 104.653 144.072 105C142.072 105.32 140.272 105.707 138.672 106.16C137.499 106.533 136.392 107.013 135.352 107.6C134.339 108.187 133.512 108.947 132.872 109.88C132.259 110.787 131.952 111.92 131.952 113.28C131.952 114.453 132.245 115.573 132.832 116.64C133.445 117.707 134.379 118.573 135.632 119.24C136.912 119.907 138.579 120.24 140.632 120.24ZM195.272 125V109.44C193.832 110.16 192.085 110.773 190.032 111.28C188.005 111.787 185.832 112.04 183.512 112.04C179.112 112.04 175.565 111.053 172.872 109.08C170.179 107.107 168.419 104.267 167.592 100.56C167.352 99.44 167.179 98.28 167.072 97.08C166.992 95.88 166.939 94.7867 166.912 93.8C166.885 92.8133 166.872 92.0933 166.872 91.64V81.8H174.072V91.64C174.072 92.4133 174.099 93.3733 174.152 94.52C174.205 95.64 174.339 96.7333 174.552 97.8C175.085 100.44 176.192 102.427 177.872 103.76C179.579 105.093 181.979 105.76 185.072 105.76C187.152 105.76 189.072 105.493 190.832 104.96C192.592 104.427 194.072 103.72 195.272 102.84V81.8H202.432V125H195.272ZM246.007 81.8V125H239.127V93.16L216.487 125H210.607V81.8H217.487V113.2L240.167 81.8H246.007ZM284.785 126.24C280.705 126.213 277.225 125.333 274.345 123.6C271.465 121.84 269.225 119.267 267.625 115.88C266.025 112.493 265.132 108.347 264.945 103.44C264.838 101.173 264.865 98.68 265.025 95.96C265.212 93.24 265.505 90.6267 265.905 88.12C266.332 85.6133 266.865 83.5467 267.505 81.92C268.225 79.9733 269.238 78.1733 270.545 76.52C271.878 74.84 273.372 73.4533 275.025 72.36C276.705 71.2133 278.585 70.32 280.665 69.68C282.745 69.04 284.918 68.5467 287.185 68.2C289.478 67.8267 291.772 67.5067 294.065 67.24C296.358 66.9467 298.545 66.6 300.625 66.2L301.345 72.6C299.878 72.92 298.145 73.2 296.145 73.44C294.145 73.6533 292.065 73.9067 289.905 74.2C287.772 74.4933 285.718 74.9067 283.745 75.44C281.798 75.9467 280.118 76.6533 278.705 77.56C276.625 78.8133 275.025 80.6933 273.905 83.2C272.812 85.68 272.145 88.4667 271.905 91.56C273.558 89 275.705 87.12 278.345 85.92C280.985 84.72 283.798 84.12 286.785 84.12C290.652 84.12 293.985 85.0267 296.785 86.84C299.585 88.6267 301.732 91.0933 303.225 94.24C304.745 97.3867 305.505 100.973 305.505 105C305.505 109.267 304.652 113 302.945 116.2C301.238 119.4 298.825 121.88 295.705 123.64C292.612 125.4 288.972 126.267 284.785 126.24ZM285.225 119.48C289.412 119.48 292.585 118.187 294.745 115.6C296.905 112.987 297.985 109.52 297.985 105.2C297.985 100.773 296.865 97.2933 294.625 94.76C292.385 92.2 289.238 90.92 285.185 90.92C281.078 90.92 277.932 92.2 275.745 94.76C273.585 97.2933 272.505 100.773 272.505 105.2C272.505 109.653 273.598 113.147 275.785 115.68C277.972 118.213 281.118 119.48 285.225 119.48ZM346.694 81.8V125H339.814V93.16L317.174 125H311.294V81.8H318.174V113.2L340.854 81.8H346.694ZM370.377 126.2C366.11 126.2 362.337 125.28 359.057 123.44C355.777 121.573 353.19 119.013 351.297 115.76L356.977 112.08C358.55 114.453 360.43 116.28 362.617 117.56C364.804 118.813 367.297 119.44 370.097 119.44C373.03 119.44 375.364 118.773 377.097 117.44C378.83 116.08 379.697 114.253 379.697 111.96C379.697 110.253 379.27 108.947 378.417 108.04C377.564 107.133 376.337 106.507 374.737 106.16C373.137 105.813 371.23 105.64 369.017 105.64H364.537V99.76H368.977C371.777 99.76 374.057 99.3067 375.817 98.4C377.577 97.4933 378.457 95.9467 378.457 93.76C378.457 91.52 377.63 89.8933 375.977 88.88C374.35 87.84 372.404 87.32 370.137 87.32C367.737 87.32 365.444 87.8267 363.257 88.84C361.07 89.8267 359.19 91.08 357.617 92.6L353.297 87.76C355.537 85.4667 358.11 83.7067 361.017 82.48C363.95 81.2267 367.137 80.6 370.577 80.6C373.35 80.6 375.884 81.0933 378.177 82.08C380.497 83.04 382.337 84.4667 383.697 86.36C385.084 88.2267 385.777 90.5067 385.777 93.2C385.777 95.4933 385.244 97.5333 384.177 99.32C383.11 101.107 381.537 102.667 379.457 104L379.177 101.48C380.937 101.907 382.39 102.693 383.537 103.84C384.71 104.96 385.577 106.293 386.137 107.84C386.697 109.387 386.977 111 386.977 112.68C386.977 115.507 386.23 117.933 384.737 119.96C383.27 121.96 381.284 123.507 378.777 124.6C376.27 125.667 373.47 126.2 370.377 126.2ZM392.716 125V81.8H399.836V100H422.556V81.8H429.676V125H422.556V106.76H399.836V125H392.716ZM456.601 126.2C452.361 126.2 448.655 125.267 445.481 123.4C442.335 121.507 439.881 118.88 438.121 115.52C436.361 112.133 435.481 108.187 435.481 103.68C435.481 98.96 436.348 94.88 438.081 91.44C439.815 87.9733 442.228 85.3067 445.321 83.44C448.441 81.5467 452.095 80.6 456.281 80.6C460.628 80.6 464.321 81.6 467.361 83.6C470.428 85.6 472.721 88.4533 474.241 92.16C475.788 95.8667 476.455 100.28 476.241 105.4H469.041V102.84C468.961 97.5333 467.881 93.5733 465.801 90.96C463.721 88.32 460.628 87 456.521 87C452.121 87 448.775 88.4133 446.481 91.24C444.188 94.0667 443.041 98.12 443.041 103.4C443.041 108.493 444.188 112.44 446.481 115.24C448.775 118.04 452.041 119.44 456.281 119.44C459.135 119.44 461.615 118.787 463.721 117.48C465.828 116.173 467.481 114.293 468.681 111.84L475.521 114.2C473.841 118.013 471.308 120.973 467.921 123.08C464.561 125.16 460.788 126.2 456.601 126.2ZM440.641 105.4V99.68H472.561V105.4H440.641ZM500.347 126.2C495.974 126.2 492.254 125.227 489.187 123.28C486.147 121.307 483.827 118.6 482.227 115.16C480.627 111.72 479.8 107.8 479.747 103.4C479.8 98.8933 480.64 94.9333 482.267 91.52C483.92 88.08 486.28 85.4 489.347 83.48C492.414 81.56 496.107 80.6 500.427 80.6C504.987 80.6 508.907 81.72 512.187 83.96C515.494 86.2 517.707 89.2667 518.827 93.16L511.787 95.28C510.88 92.7733 509.4 90.8267 507.347 89.44C505.32 88.0533 502.987 87.36 500.347 87.36C497.387 87.36 494.947 88.0533 493.027 89.44C491.107 90.8 489.68 92.6933 488.747 95.12C487.814 97.52 487.334 100.28 487.307 103.4C487.36 108.2 488.467 112.08 490.627 115.04C492.814 117.973 496.054 119.44 500.347 119.44C503.174 119.44 505.52 118.8 507.387 117.52C509.254 116.213 510.667 114.333 511.627 111.88L518.827 113.76C517.334 117.787 515 120.867 511.827 123C508.654 125.133 504.827 126.2 500.347 126.2ZM535.88 126.2C532.653 126.2 529.947 125.613 527.76 124.44C525.6 123.24 523.96 121.667 522.84 119.72C521.747 117.773 521.2 115.64 521.2 113.32C521.2 111.053 521.627 109.093 522.48 107.44C523.36 105.76 524.587 104.373 526.16 103.28C527.733 102.16 529.613 101.28 531.8 100.64C533.853 100.08 536.147 99.6 538.68 99.2C541.24 98.7733 543.827 98.3867 546.44 98.04C549.053 97.6933 551.493 97.36 553.76 97.04L551.2 98.52C551.28 94.68 550.507 91.84 548.88 90C547.28 88.16 544.507 87.24 540.56 87.24C537.947 87.24 535.653 87.84 533.68 89.04C531.733 90.2133 530.36 92.1333 529.56 94.8L522.8 92.76C523.84 88.9733 525.853 86 528.84 83.84C531.827 81.68 535.76 80.6 540.64 80.6C544.56 80.6 547.92 81.3067 550.72 82.72C553.547 84.1067 555.573 86.2133 556.8 89.04C557.413 90.3733 557.8 91.8267 557.96 93.4C558.12 94.9467 558.2 96.5733 558.2 98.28V125H551.88V114.64L553.36 115.6C551.733 119.093 549.453 121.733 546.52 123.52C543.613 125.307 540.067 126.2 535.88 126.2ZM536.96 120.24C539.52 120.24 541.733 119.787 543.6 118.88C545.493 117.947 547.013 116.733 548.16 115.24C549.307 113.72 550.053 112.067 550.4 110.28C550.8 108.947 551.013 107.467 551.04 105.84C551.093 104.187 551.12 102.92 551.12 102.04L553.6 103.12C551.28 103.44 549 103.747 546.76 104.04C544.52 104.333 542.4 104.653 540.4 105C538.4 105.32 536.6 105.707 535 106.16C533.827 106.533 532.72 107.013 531.68 107.6C530.667 108.187 529.84 108.947 529.2 109.88C528.587 110.787 528.28 111.92 528.28 113.28C528.28 114.453 528.573 115.573 529.16 116.64C529.773 117.707 530.707 118.573 531.96 119.24C533.24 119.907 534.907 120.24 536.96 120.24Z" fill="white"/>
</svg>
