<svg width="1435" height="98" viewBox="0 0 1435 98" fill="none" xmlns="http://www.w3.org/2000/svg">
<path d="M6.95 74V20H51.2V74H42.3V28.45H15.85V74H6.95ZM87.0031 75.5C81.9365 75.5 77.6698 74.25 74.2031 71.75C70.7365 69.2167 68.1031 65.8 66.3031 61.5C64.5365 57.1667 63.6531 52.3167 63.6531 46.95C63.6531 41.5167 64.5365 36.65 66.3031 32.35C68.1031 28.05 70.7365 24.6667 74.2031 22.2C77.7031 19.7333 81.9865 18.5 87.0531 18.5C92.0531 18.5 96.3531 19.75 99.9531 22.25C103.586 24.7167 106.37 28.1 108.303 32.4C110.236 36.7 111.203 41.55 111.203 46.95C111.203 52.35 110.236 57.2 108.303 61.5C106.37 65.8 103.586 69.2167 99.9531 71.75C96.3531 74.25 92.0365 75.5 87.0031 75.5ZM62.1531 98V20H70.1031V59.75H71.1031V98H62.1531ZM85.9031 67.35C89.4698 67.35 92.4198 66.45 94.7531 64.65C97.0865 62.85 98.8365 60.4167 100.003 57.35C101.17 54.25 101.753 50.7833 101.753 46.95C101.753 43.15 101.17 39.7167 100.003 36.65C98.8698 33.5833 97.1031 31.15 94.7031 29.35C92.3365 27.55 89.3198 26.65 85.6531 26.65C82.1531 26.65 79.2531 27.5167 76.9531 29.25C74.6531 30.95 72.9365 33.3333 71.8031 36.4C70.6698 39.4333 70.1031 42.95 70.1031 46.95C70.1031 50.8833 70.6531 54.4 71.7531 57.5C72.8865 60.5667 74.6198 62.9833 76.9531 64.75C79.2865 66.4833 82.2698 67.35 85.9031 67.35ZM142.164 75.5C136.797 75.5 132.164 74.2833 128.264 71.85C124.397 69.4167 121.414 66.05 119.314 61.75C117.214 57.45 116.164 52.5167 116.164 46.95C116.164 41.2833 117.231 36.3167 119.364 32.05C121.497 27.7833 124.514 24.4667 128.414 22.1C132.314 19.7 136.897 18.5 142.164 18.5C147.564 18.5 152.214 19.7167 156.114 22.15C160.014 24.55 162.997 27.9 165.064 32.2C167.164 36.4667 168.214 41.3833 168.214 46.95C168.214 52.5833 167.164 57.55 165.064 61.85C162.964 66.1167 159.964 69.4667 156.064 71.9C152.164 74.3 147.531 75.5 142.164 75.5ZM142.164 67.05C147.764 67.05 151.931 65.1833 154.664 61.45C157.397 57.7167 158.764 52.8833 158.764 46.95C158.764 40.85 157.381 36 154.614 32.4C151.847 28.7667 147.697 26.95 142.164 26.95C138.397 26.95 135.297 27.8 132.864 29.5C130.431 31.2 128.614 33.55 127.414 36.55C126.214 39.55 125.614 43.0167 125.614 46.95C125.614 53.0167 127.014 57.8833 129.814 61.55C132.614 65.2167 136.731 67.05 142.164 67.05ZM172.223 86V66.65C175.256 66.65 177.423 65.6667 178.723 63.7C180.023 61.7 181.073 58.4167 181.873 53.85C182.406 50.9833 182.839 47.9167 183.173 44.65C183.506 41.3833 183.789 37.75 184.023 33.75C184.289 29.7167 184.539 25.1333 184.773 20H221.973V66.65H227.223V86H218.723V74H180.723V86H172.223ZM185.923 66.65H213.073V27.35H192.823C192.723 29.7167 192.589 32.2 192.423 34.8C192.256 37.3667 192.056 39.9333 191.823 42.5C191.623 45.0667 191.373 47.5 191.073 49.8C190.806 52.0667 190.489 54.1 190.123 55.9C189.689 58.4 189.189 60.5167 188.623 62.25C188.056 63.9833 187.156 65.45 185.923 66.65ZM241.27 98L251.72 69.6L251.87 78L228.27 20H237.62L256.12 66.65H252.92L270.27 20H279.32L249.92 98H241.27ZM284.528 74L284.578 20H293.578V46L316.228 20H327.778L303.928 47L330.578 74H318.128L293.578 48V74H284.528ZM346.855 74V28.1H328.055V20H374.555V28.1H355.755V74H346.855Z" fill="white"/>
<path d="M501 86V66.65C504.033 66.65 506.2 65.6667 507.5 63.7C508.8 61.7 509.85 58.4167 510.65 53.85C511.183 50.9833 511.617 47.9167 511.95 44.65C512.283 41.3833 512.567 37.75 512.8 33.75C513.067 29.7167 513.317 25.1333 513.55 20H550.75V66.65H556V86H547.5V74H509.5V86H501ZM514.7 66.65H541.85V27.35H521.6C521.5 29.7167 521.367 32.2 521.2 34.8C521.033 37.3667 520.833 39.9333 520.6 42.5C520.4 45.0667 520.15 47.5 519.85 49.8C519.583 52.0667 519.267 54.1 518.9 55.9C518.467 58.4 517.967 60.5167 517.4 62.25C516.833 63.9833 515.933 65.45 514.7 66.65ZM607.235 20V74H598.635V34.2L570.335 74H562.985V20H571.585V59.25L599.935 20H607.235ZM637.588 75.5C632.255 75.5 627.538 74.35 623.438 72.05C619.338 69.7167 616.105 66.5167 613.738 62.45L620.838 57.85C622.805 60.8167 625.155 63.1 627.888 64.7C630.622 66.2667 633.738 67.05 637.238 67.05C640.905 67.05 643.822 66.2167 645.988 64.55C648.155 62.85 649.238 60.5667 649.238 57.7C649.238 55.5667 648.705 53.9333 647.638 52.8C646.572 51.6667 645.038 50.8833 643.038 50.45C641.038 50.0167 638.655 49.8 635.888 49.8H630.288V42.45H635.838C639.338 42.45 642.188 41.8833 644.388 40.75C646.588 39.6167 647.688 37.6833 647.688 34.95C647.688 32.15 646.655 30.1167 644.588 28.85C642.555 27.55 640.122 26.9 637.288 26.9C634.288 26.9 631.422 27.5333 628.688 28.8C625.955 30.0333 623.605 31.6 621.638 33.5L616.238 27.45C619.038 24.5833 622.255 22.3833 625.888 20.85C629.555 19.2833 633.538 18.5 637.838 18.5C641.305 18.5 644.472 19.1167 647.338 20.35C650.238 21.55 652.538 23.3333 654.238 25.7C655.972 28.0333 656.838 30.8833 656.838 34.25C656.838 37.1167 656.172 39.6667 654.838 41.9C653.505 44.1333 651.538 46.0833 648.938 47.75L648.588 44.6C650.788 45.1333 652.605 46.1167 654.038 47.55C655.505 48.95 656.588 50.6167 657.288 52.55C657.988 54.4833 658.338 56.5 658.338 58.6C658.338 62.1333 657.405 65.1667 655.538 67.7C653.705 70.2 651.222 72.1333 648.088 73.5C644.955 74.8333 641.455 75.5 637.588 75.5ZM681.663 75.5C677.629 75.5 674.246 74.7667 671.513 73.3C668.813 71.8 666.763 69.8333 665.363 67.4C663.996 64.9667 663.313 62.3 663.313 59.4C663.313 56.5667 663.846 54.1167 664.913 52.05C666.013 49.95 667.546 48.2167 669.513 46.85C671.479 45.45 673.829 44.35 676.563 43.55C679.129 42.85 681.996 42.25 685.163 41.75C688.363 41.2167 691.596 40.7333 694.863 40.3C698.129 39.8667 701.179 39.45 704.013 39.05L700.813 40.9C700.913 36.1 699.946 32.55 697.913 30.25C695.913 27.95 692.446 26.8 687.513 26.8C684.246 26.8 681.379 27.55 678.913 29.05C676.479 30.5167 674.763 32.9167 673.763 36.25L665.313 33.7C666.613 28.9667 669.129 25.25 672.863 22.55C676.596 19.85 681.513 18.5 687.613 18.5C692.513 18.5 696.713 19.3833 700.213 21.15C703.746 22.8833 706.279 25.5167 707.813 29.05C708.579 30.7167 709.063 32.5333 709.263 34.5C709.463 36.4333 709.562 38.4667 709.562 40.6V74H701.663V61.05L703.513 62.25C701.479 66.6167 698.629 69.9167 694.963 72.15C691.329 74.3833 686.896 75.5 681.663 75.5ZM683.013 68.05C686.213 68.05 688.979 67.4833 691.313 66.35C693.679 65.1833 695.579 63.6667 697.013 61.8C698.446 59.9 699.379 57.8333 699.813 55.6C700.313 53.9333 700.579 52.0833 700.613 50.05C700.679 47.9833 700.713 46.4 700.713 45.3L703.813 46.65C700.913 47.05 698.063 47.4333 695.263 47.8C692.463 48.1667 689.813 48.5667 687.313 49C684.813 49.4 682.563 49.8833 680.563 50.45C679.096 50.9167 677.713 51.5167 676.413 52.25C675.146 52.9833 674.113 53.9333 673.313 55.1C672.546 56.2333 672.162 57.65 672.162 59.35C672.162 60.8167 672.529 62.2167 673.263 63.55C674.029 64.8833 675.196 65.9667 676.763 66.8C678.363 67.6333 680.446 68.05 683.013 68.05ZM742.813 13.7C740.313 13.7 738.029 13.0833 735.963 11.85C733.896 10.6167 732.246 8.98333 731.013 6.95C729.779 4.88333 729.163 2.58333 729.163 0.0499954H736.363C736.363 1.81666 736.996 3.33333 738.262 4.6C739.529 5.86667 741.046 6.5 742.813 6.5C744.613 6.5 746.129 5.86667 747.363 4.6C748.629 3.33333 749.263 1.81666 749.263 0.0499954H756.463C756.463 2.58333 755.846 4.88333 754.613 6.95C753.413 8.98333 751.763 10.6167 749.663 11.85C747.596 13.0833 745.313 13.7 742.813 13.7ZM763.763 20V74H755.163V34.2L726.863 74H719.513V20H728.113V59.25L756.463 20H763.763ZM774.716 74V20H783.616V42.75H812.016V20H820.916V74H812.016V51.2H783.616V74H774.716Z" fill="white" fill-opacity="0.2"/>
<path d="M954.95 74V20H962.6L983.1 61.9L1003.6 20H1011.25V74H1002.65V38.55L985.45 74H980.75L963.55 38.55V74H954.95ZM1037.56 75.5C1033.53 75.5 1030.15 74.7667 1027.41 73.3C1024.71 71.8 1022.66 69.8333 1021.26 67.4C1019.9 64.9667 1019.21 62.3 1019.21 59.4C1019.21 56.5667 1019.75 54.1167 1020.81 52.05C1021.91 49.95 1023.45 48.2167 1025.41 46.85C1027.38 45.45 1029.73 44.35 1032.46 43.55C1035.03 42.85 1037.9 42.25 1041.06 41.75C1044.26 41.2167 1047.5 40.7333 1050.76 40.3C1054.03 39.8667 1057.08 39.45 1059.91 39.05L1056.71 40.9C1056.81 36.1 1055.85 32.55 1053.81 30.25C1051.81 27.95 1048.35 26.8 1043.41 26.8C1040.15 26.8 1037.28 27.55 1034.81 29.05C1032.38 30.5167 1030.66 32.9167 1029.66 36.25L1021.21 33.7C1022.51 28.9667 1025.03 25.25 1028.76 22.55C1032.5 19.85 1037.41 18.5 1043.51 18.5C1048.41 18.5 1052.61 19.3833 1056.11 21.15C1059.65 22.8833 1062.18 25.5167 1063.71 29.05C1064.48 30.7167 1064.96 32.5333 1065.16 34.5C1065.36 36.4333 1065.46 38.4667 1065.46 40.6V74H1057.56V61.05L1059.41 62.25C1057.38 66.6167 1054.53 69.9167 1050.86 72.15C1047.23 74.3833 1042.8 75.5 1037.56 75.5ZM1038.91 68.05C1042.11 68.05 1044.88 67.4833 1047.21 66.35C1049.58 65.1833 1051.48 63.6667 1052.91 61.8C1054.35 59.9 1055.28 57.8333 1055.71 55.6C1056.21 53.9333 1056.48 52.0833 1056.51 50.05C1056.58 47.9833 1056.61 46.4 1056.61 45.3L1059.71 46.65C1056.81 47.05 1053.96 47.4333 1051.16 47.8C1048.36 48.1667 1045.71 48.5667 1043.21 49C1040.71 49.4 1038.46 49.8833 1036.46 50.45C1035 50.9167 1033.61 51.5167 1032.31 52.25C1031.05 52.9833 1030.01 53.9333 1029.21 55.1C1028.45 56.2333 1028.06 57.65 1028.06 59.35C1028.06 60.8167 1028.43 62.2167 1029.16 63.55C1029.93 64.8833 1031.1 65.9667 1032.66 66.8C1034.26 67.6333 1036.35 68.05 1038.91 68.05ZM1100.26 75.5C1095.2 75.5 1090.93 74.25 1087.46 71.75C1084 69.2167 1081.36 65.8 1079.56 61.5C1077.8 57.1667 1076.91 52.3167 1076.91 46.95C1076.91 41.5167 1077.8 36.65 1079.56 32.35C1081.36 28.05 1084 24.6667 1087.46 22.2C1090.96 19.7333 1095.25 18.5 1100.31 18.5C1105.31 18.5 1109.61 19.75 1113.21 22.25C1116.85 24.7167 1119.63 28.1 1121.56 32.4C1123.5 36.7 1124.46 41.55 1124.46 46.95C1124.46 52.35 1123.5 57.2 1121.56 61.5C1119.63 65.8 1116.85 69.2167 1113.21 71.75C1109.61 74.25 1105.3 75.5 1100.26 75.5ZM1075.41 98V20H1083.36V59.75H1084.36V98H1075.41ZM1099.16 67.35C1102.73 67.35 1105.68 66.45 1108.01 64.65C1110.35 62.85 1112.1 60.4167 1113.26 57.35C1114.43 54.25 1115.01 50.7833 1115.01 46.95C1115.01 43.15 1114.43 39.7167 1113.26 36.65C1112.13 33.5833 1110.36 31.15 1107.96 29.35C1105.6 27.55 1102.58 26.65 1098.91 26.65C1095.41 26.65 1092.51 27.5167 1090.21 29.25C1087.91 30.95 1086.2 33.3333 1085.06 36.4C1083.93 39.4333 1083.36 42.95 1083.36 46.95C1083.36 50.8833 1083.91 54.4 1085.01 57.5C1086.15 60.5667 1087.88 62.9833 1090.21 64.75C1092.55 66.4833 1095.53 67.35 1099.16 67.35ZM1132.38 74L1132.43 20H1141.43V46L1164.08 20H1175.63L1151.78 47L1178.43 74H1165.98L1141.43 48V74H1132.38ZM1201.85 75.5C1196.55 75.5 1191.92 74.3333 1187.95 72C1184.02 69.6333 1180.95 66.35 1178.75 62.15C1176.55 57.9167 1175.45 52.9833 1175.45 47.35C1175.45 41.45 1176.53 36.35 1178.7 32.05C1180.87 27.7167 1183.88 24.3833 1187.75 22.05C1191.65 19.6833 1196.22 18.5 1201.45 18.5C1206.88 18.5 1211.5 19.75 1215.3 22.25C1219.13 24.75 1222 28.3167 1223.9 32.95C1225.83 37.5833 1226.67 43.1 1226.4 49.5H1217.4V46.3C1217.3 39.6667 1215.95 34.7167 1213.35 31.45C1210.75 28.15 1206.88 26.5 1201.75 26.5C1196.25 26.5 1192.07 28.2667 1189.2 31.8C1186.33 35.3333 1184.9 40.4 1184.9 47C1184.9 53.3667 1186.33 58.3 1189.2 61.8C1192.07 65.3 1196.15 67.05 1201.45 67.05C1205.02 67.05 1208.12 66.2333 1210.75 64.6C1213.38 62.9667 1215.45 60.6167 1216.95 57.55L1225.5 60.5C1223.4 65.2667 1220.23 68.9667 1216 71.6C1211.8 74.2 1207.08 75.5 1201.85 75.5ZM1181.9 49.5V42.35H1221.8V49.5H1181.9ZM1247.85 74V28.1H1229.05V20H1275.55V28.1H1256.75V74H1247.85ZM1326.22 20V74H1317.62V34.2L1289.32 74H1281.97V20H1290.57V59.25L1318.92 20H1326.22ZM1337.17 74V20H1346.07V42.75H1374.47V20H1383.37V74H1374.47V51.2H1346.07V74H1337.17ZM1394.38 74V20H1431.88V28.45H1403.28V74H1394.38Z" fill="white" fill-opacity="0.2"/>
</svg>
