<svg width="220" height="78" viewBox="0 0 220 78" fill="none" xmlns="http://www.w3.org/2000/svg">
<g style="mix-blend-mode:difference">
<rect x="1" y="20" width="172.583" height="38" rx="9.5" stroke="white" stroke-width="2"/>
<path d="M15.3678 43.1273C16.1088 45.8928 17.6959 47.7661 20.1289 48.7472C22.5716 49.7257 25.2755 49.8177 28.2408 49.0232C31.1772 48.2364 33.3397 47.0753 34.7282 45.54C36.1139 43.9943 36.6035 42.2133 36.197 40.197L36.1317 39.8957L32.2164 40.9448L32.2901 41.2774C32.388 41.6427 32.0596 42.2787 31.3049 43.1856C30.5598 44.0899 29.2085 44.8044 27.2509 45.3289C25.2932 45.8534 23.6086 45.9189 22.1969 45.5254C20.7825 45.1215 19.8292 44.0011 19.337 42.1644L19.1692 41.5382C18.7778 40.0772 19.0649 38.7307 20.0308 37.4988C21.0034 36.2539 22.4686 35.3692 24.4262 34.8446C26.2111 34.3664 27.6267 34.2947 28.6729 34.6295C29.7163 34.9539 30.4287 35.367 30.81 35.8689L30.9329 36.1547L34.8482 35.1056L34.7295 34.8354C33.7316 32.877 32.3587 31.5726 30.6109 30.9224C28.8602 30.2618 26.4735 30.3365 23.4507 31.1464C20.4855 31.941 18.1898 33.3726 16.5637 35.4414C14.9443 37.4971 14.5066 39.913 15.2504 42.689L15.3678 43.1273Z" fill="white"/>
<path d="M39.0029 48.75V31.4961H41.7747L41.8895 34.0875C42.5127 33.2674 43.3437 32.5513 44.3824 31.939C45.4212 31.3157 46.6294 31.0041 48.007 31.0041C48.3788 31.0041 48.7232 31.026 49.0403 31.0697C49.3683 31.1025 49.6307 31.1462 49.8276 31.2009V34.2843C49.4339 34.2187 49.084 34.1695 48.7779 34.1367C48.4827 34.1039 48.1601 34.0875 47.8102 34.0875C46.4544 34.0875 45.2626 34.3991 44.2348 35.0223C43.2179 35.6347 42.458 36.3946 41.9551 37.3021V48.75H39.0029ZM51.2052 40.3855V39.8606C51.2052 37.2584 52.1128 35.1317 53.9278 33.4807C55.7538 31.8296 58.0827 31.0041 60.9146 31.0041C63.7466 31.0041 65.9826 31.7585 67.6227 33.2674C69.2628 34.7763 70.0719 36.8757 70.05 39.5654V40.8611H52.7961V38.5158H67.1634V38.7782C67.1634 37.0397 66.6878 35.7276 65.7365 34.8419C64.7853 33.9453 63.1343 33.4971 60.7834 33.4971C58.6732 33.4971 57.0112 34.1039 55.7975 35.3176C54.5839 36.5312 53.977 38.0456 53.977 39.8606V40.3855C53.977 42.1896 54.6331 43.693 55.9451 44.8958C57.2682 46.0985 59.1488 46.6999 61.5871 46.6999C62.9538 46.6999 64.173 46.4757 65.2445 46.0274C66.316 45.5682 67.1798 45.0106 67.8359 44.3545L69.8204 46.0602C69.1316 46.9896 68.06 47.755 66.6058 48.3564C65.1516 48.9577 63.4568 49.2584 61.5215 49.2584C58.296 49.2584 55.7702 48.4329 53.9442 46.7819C52.1182 45.1199 51.2052 42.9878 51.2052 40.3855ZM72.3462 43.8133C72.3462 42.031 73.2373 40.6534 75.0195 39.6802C76.8127 38.6962 79.005 38.2041 81.5963 38.2041H87.1727V36.9413C87.1727 35.9025 86.7681 35.0661 85.959 34.4319C85.1608 33.7868 83.8105 33.4643 81.908 33.4643C80.071 33.4643 78.7098 33.7267 77.8241 34.2515C76.9384 34.7763 76.4956 35.4378 76.4956 36.236V36.5312H73.5598V36.236C73.5598 34.7381 74.3635 33.4916 75.9708 32.4966C77.5781 31.5016 79.6227 31.0041 82.1048 31.0041C84.5868 31.0041 86.544 31.5016 87.9763 32.4966C89.4087 33.4916 90.1249 34.9731 90.1249 36.9413V44.8138C90.1249 45.5245 90.2123 46.2024 90.3873 46.8475C90.5622 47.4926 90.7973 48.0393 91.0925 48.4876V48.75H88.2551C88.0693 48.4876 87.8998 48.1213 87.7467 47.6511C87.5936 47.181 87.4952 46.7327 87.4515 46.3062C86.9595 47.017 86.0137 47.6566 84.6141 48.2252C83.2255 48.7937 81.5909 49.078 79.7102 49.078C77.7421 49.078 76.02 48.6407 74.5439 47.7659C73.0787 46.8912 72.3462 45.5737 72.3462 43.8133ZM75.3147 43.7149C75.3147 44.6771 75.7466 45.4042 76.6104 45.8962C77.4742 46.3883 78.7754 46.6343 80.5139 46.6343C82.1868 46.6343 83.7121 46.257 85.0897 45.5026C86.4784 44.7482 87.1727 43.8789 87.1727 42.8948V40.4675H82.0064C79.918 40.4675 78.2779 40.7572 77.0861 41.3367C75.9052 41.9053 75.3147 42.698 75.3147 43.7149ZM92.4866 34.0547V31.4961H104.919V34.0547H92.4866ZM96.6525 43.8953V32.9558V32.5786V27.2319H99.6047V43.8953C99.6047 44.8684 99.8397 45.5627 100.31 45.9782C100.791 46.3937 101.458 46.6015 102.311 46.6015C102.672 46.6015 103.022 46.5687 103.36 46.5031C103.699 46.4375 104.038 46.3555 104.377 46.257V48.7992C104.082 48.9195 103.672 49.0234 103.147 49.1108C102.633 49.1983 102.087 49.242 101.507 49.242C100.064 49.242 98.8939 48.8156 97.9974 47.9628C97.1008 47.099 96.6525 45.7431 96.6525 43.8953ZM106.526 40.3855V39.8606C106.526 37.2584 107.466 35.1317 109.347 33.4807C111.238 31.8296 113.688 31.0041 116.695 31.0041C119.701 31.0041 122.145 31.8296 124.026 33.4807C125.917 35.1317 126.863 37.2584 126.863 39.8606V40.3855C126.863 42.9878 125.917 45.1144 124.026 46.7655C122.145 48.4165 119.701 49.242 116.695 49.242C113.688 49.242 111.238 48.4165 109.347 46.7655C107.466 45.1144 106.526 42.9878 106.526 40.3855ZM109.544 39.8606V40.3855C109.544 42.2224 110.167 43.7149 111.413 44.863C112.66 46.0001 114.42 46.5687 116.695 46.5687C118.958 46.5687 120.713 46.0001 121.959 44.863C123.217 43.7149 123.845 42.2224 123.845 40.3855V39.8606C123.845 38.0237 123.217 36.5367 121.959 35.3996C120.713 34.2515 118.958 33.6775 116.695 33.6775C114.42 33.6775 112.66 34.2515 111.413 35.3996C110.167 36.5367 109.544 38.0237 109.544 39.8606ZM130.389 48.75V31.4961H133.161L133.276 34.0875C133.899 33.2674 134.73 32.5513 135.769 31.939C136.808 31.3157 138.016 31.0041 139.394 31.0041C139.765 31.0041 140.11 31.026 140.427 31.0697C140.755 31.1025 141.017 31.1462 141.214 31.2009V34.2843C140.82 34.2187 140.471 34.1695 140.164 34.1367C139.869 34.1039 139.547 34.0875 139.197 34.0875C137.841 34.0875 136.649 34.3991 135.621 35.0223C134.604 35.6347 133.845 36.3946 133.342 37.3021V48.75H130.389ZM142.739 43.3705H145.675V43.6821C145.675 44.7536 146.2 45.5354 147.25 46.0274C148.299 46.5085 149.71 46.7491 151.481 46.7491C153.252 46.7491 154.614 46.5031 155.565 46.011C156.516 45.5081 156.992 44.8411 156.992 44.0101C156.992 43.1791 156.565 42.5887 155.713 42.2388C154.86 41.8889 153.209 41.5172 150.759 41.1235C148.31 40.7299 146.512 40.1067 145.363 39.2538C144.226 38.401 143.658 37.324 143.658 36.0228C143.658 34.5577 144.374 33.3549 145.806 32.4146C147.25 31.4743 149.196 31.0041 151.645 31.0041C154.116 31.0041 156.09 31.5399 157.566 32.6114C159.042 33.672 159.78 34.9458 159.78 36.4328V36.7117H156.844V36.5148C156.844 35.5964 156.401 34.8638 155.516 34.3171C154.641 33.7704 153.351 33.4971 151.645 33.4971C149.95 33.4971 148.687 33.6993 147.856 34.1039C147.036 34.5084 146.626 35.0661 146.626 35.7768C146.626 36.4875 147.015 37.0451 147.791 37.4497C148.567 37.8543 150.185 38.2533 152.646 38.647C155.084 39.0406 156.915 39.642 158.14 40.4511C159.375 41.2602 159.993 42.3755 159.993 43.7969C159.993 45.3605 159.266 46.6616 157.812 47.7003C156.358 48.7281 154.247 49.242 151.481 49.242C148.704 49.242 146.55 48.7281 145.019 47.7003C143.499 46.6616 142.739 45.2839 142.739 43.5673V43.3705Z" fill="white"/>
<path d="M39.0029 48.75H38.6071V49.1458H39.0029V48.75ZM39.0029 31.4961V31.1003H38.6071V31.4961H39.0029ZM41.7747 31.4961L42.1701 31.4786L42.1533 31.1003H41.7747V31.4961ZM41.8895 34.0875L41.494 34.105L41.5425 35.1983L42.2046 34.327L41.8895 34.0875ZM44.3824 31.939L44.5834 32.28L44.5861 32.2784L44.3824 31.939ZM49.0403 31.0697L48.9862 31.4618L48.9936 31.4628L49.0009 31.4636L49.0403 31.0697ZM49.8276 31.2009H50.2234V30.9L49.9335 30.8195L49.8276 31.2009ZM49.8276 34.2843L49.7625 34.6747L50.2234 34.7516V34.2843H49.8276ZM48.7779 34.1367L48.7342 34.5301L48.7357 34.5303L48.7779 34.1367ZM44.2348 35.0223L44.439 35.3615L44.4401 35.3608L44.2348 35.0223ZM41.9551 37.3021L41.6089 37.1102L41.5592 37.1997V37.3021H41.9551ZM41.9551 48.75V49.1458H42.3509V48.75H41.9551ZM39.3987 48.75V31.4961H38.6071V48.75H39.3987ZM39.0029 31.892H41.7747V31.1003H39.0029V31.892ZM41.3792 31.5136L41.494 34.105L42.2849 34.07L42.1701 31.4786L41.3792 31.5136ZM42.2046 34.327C42.7919 33.5542 43.5815 32.8705 44.5834 32.28L44.1814 31.598C43.1058 32.232 42.2335 32.9807 41.5743 33.848L42.2046 34.327ZM44.5861 32.2784C45.5552 31.6969 46.691 31.3999 48.007 31.3999V30.6083C46.5677 30.6083 45.2871 30.9345 44.1788 31.5995L44.5861 32.2784ZM48.007 31.3999C48.3635 31.3999 48.6896 31.4209 48.9862 31.4618L49.0944 30.6776C48.7568 30.631 48.3941 30.6083 48.007 30.6083V31.3999ZM49.0009 31.4636C49.3183 31.4953 49.5557 31.5362 49.7216 31.5823L49.9335 30.8195C49.7058 30.7563 49.4183 30.7097 49.0797 30.6758L49.0009 31.4636ZM49.4317 31.2009V34.2843H50.2234V31.2009H49.4317ZM49.8926 33.8939C49.4935 33.8273 49.1357 33.7769 48.8201 33.7431L48.7357 34.5303C49.0324 34.5621 49.3744 34.6101 49.7625 34.6747L49.8926 33.8939ZM48.8216 33.7433C48.5096 33.7086 48.1722 33.6917 47.8102 33.6917V34.4833C48.148 34.4833 48.4558 34.4992 48.7342 34.5301L48.8216 33.7433ZM47.8102 33.6917C46.3915 33.6917 45.1269 34.0185 44.0296 34.6839L44.4401 35.3608C45.3983 34.7797 46.5173 34.4833 47.8102 34.4833V33.6917ZM44.0306 34.6832C42.963 35.3261 42.15 36.1337 41.6089 37.1102L42.3013 37.494C42.766 36.6554 43.4729 35.9432 44.439 35.3614L44.0306 34.6832ZM41.5592 37.3021V48.75H42.3509V37.3021H41.5592ZM41.9551 48.3542H39.0029V49.1458H41.9551V48.3542ZM53.9278 33.4807L53.6623 33.187L53.6615 33.1878L53.9278 33.4807ZM70.05 39.5654L69.6542 39.5622V39.5654H70.05ZM70.05 40.8611V41.2569H70.4458V40.8611H70.05ZM52.7961 40.8611H52.4003V41.2569H52.7961V40.8611ZM52.7961 38.5158V38.1199H52.4003V38.5158H52.7961ZM67.1634 38.5158H67.5593V38.1199H67.1634V38.5158ZM65.7365 34.8419L65.465 35.13L65.4668 35.1316L65.7365 34.8419ZM55.9451 44.8958L55.6777 45.1876L55.6789 45.1887L55.9451 44.8958ZM65.2445 46.0274L65.3973 46.3926L65.4004 46.3913L65.2445 46.0274ZM67.8359 44.3545L68.0939 44.0543L67.8155 43.8151L67.556 44.0746L67.8359 44.3545ZM69.8204 46.0602L70.1384 46.2959L70.3577 46.0001L70.0784 45.76L69.8204 46.0602ZM66.6058 48.3564L66.4545 47.9906L66.6058 48.3564ZM53.9442 46.7819L53.6778 47.0746L53.6787 47.0755L53.9442 46.7819ZM51.6011 40.3855V39.8606H50.8094V40.3855H51.6011ZM51.6011 39.8606C51.6011 37.3622 52.4671 35.3445 54.1942 33.7735L53.6615 33.1878C51.7585 34.9189 50.8094 37.1545 50.8094 39.8606H51.6011ZM54.1933 33.7743C55.9356 32.1989 58.1651 31.3999 60.9146 31.3999V30.6083C58.0004 30.6083 55.572 31.4604 53.6623 33.187L54.1933 33.7743ZM60.9146 31.3999C63.6752 31.3999 65.8058 32.1338 67.3547 33.5587L67.8907 32.9761C66.1593 31.3833 63.818 30.6083 60.9146 30.6083V31.3999ZM67.3547 33.5587C68.8956 34.9764 69.6754 36.9591 69.6542 39.5622L70.4458 39.5686C70.4684 36.7922 69.6299 34.5762 67.8907 32.9761L67.3547 33.5587ZM69.6542 39.5654V40.8611H70.4458V39.5654H69.6542ZM70.05 40.4653H52.7961V41.2569H70.05V40.4653ZM53.192 40.8611V38.5158H52.4003V40.8611H53.192ZM52.7961 38.9116H67.1634V38.1199H52.7961V38.9116ZM66.7676 38.5158V38.7782H67.5593V38.5158H66.7676ZM67.5593 38.7782C67.5593 36.9685 67.0625 35.5356 66.0063 34.5522L65.4668 35.1316C66.3131 35.9196 66.7676 37.1108 66.7676 38.7782H67.5593ZM66.008 34.5539C64.9434 33.5505 63.1622 33.1012 60.7834 33.1012V33.8929C63.1063 33.8929 64.6271 34.3402 65.4651 35.13L66.008 34.5539ZM60.7834 33.1012C58.5938 33.1012 56.8219 33.7334 55.5176 35.0377L56.0774 35.5975C57.2005 34.4743 58.7526 33.8929 60.7834 33.8929V33.1012ZM55.5176 35.0377C54.2251 36.3302 53.5812 37.9473 53.5812 39.8606H54.3729C54.3729 38.1439 54.9426 36.7323 56.0774 35.5975L55.5176 35.0377ZM53.5812 39.8606V40.3855H54.3729V39.8606H53.5812ZM53.5812 40.3855C53.5812 42.2988 54.2825 43.9087 55.6777 45.1876L56.2126 44.604C54.9836 43.4774 54.3729 42.0804 54.3729 40.3855H53.5812ZM55.6789 45.1887C57.0977 46.4785 59.0865 47.0957 61.5871 47.0957V46.304C59.2111 46.304 57.4386 45.7185 56.2114 44.6029L55.6789 45.1887ZM61.5871 47.0957C62.9972 47.0957 64.2696 46.8644 65.3973 46.3926L65.0917 45.6623C64.0764 46.0871 62.9105 46.304 61.5871 46.304V47.0957ZM65.4004 46.3913C66.5068 45.9171 67.4163 45.3339 68.1158 44.6344L67.556 44.0746C66.9434 44.6872 66.1253 45.2193 65.0886 45.6636L65.4004 46.3913ZM67.5779 44.6547L69.5624 46.3604L70.0784 45.76L68.0939 44.0543L67.5779 44.6547ZM69.5024 45.8245C68.869 46.6791 67.8654 47.4071 66.4545 47.9906L66.7571 48.7222C68.2546 48.1029 69.3941 47.3002 70.1384 46.2959L69.5024 45.8245ZM66.4545 47.9906C65.0579 48.5681 63.4165 48.8626 61.5215 48.8626V49.6543C63.4971 49.6543 65.2452 49.3474 66.7571 48.7222L66.4545 47.9906ZM61.5215 48.8626C58.3629 48.8626 55.9427 48.0552 54.2097 46.4883L53.6787 47.0755C55.5977 48.8106 58.229 49.6543 61.5215 49.6543V48.8626ZM54.2107 46.4891C52.472 44.9066 51.6011 42.8831 51.6011 40.3855H50.8094C50.8094 43.0924 51.7645 45.3332 53.6778 47.0746L54.2107 46.4891ZM75.0195 39.6802L75.2092 40.0277L75.21 40.0273L75.0195 39.6802ZM87.1727 38.2041V38.6H87.5685V38.2041H87.1727ZM85.959 34.4319L85.7102 34.7398L85.7148 34.7435L85.959 34.4319ZM76.4956 36.5312V36.9271H76.8914V36.5312H76.4956ZM73.5598 36.5312H73.164V36.9271H73.5598V36.5312ZM91.0925 48.4876H91.4884V48.369L91.4231 48.2699L91.0925 48.4876ZM91.0925 48.75V49.1458H91.4884V48.75H91.0925ZM88.2551 48.75L87.9321 48.9788L88.0505 49.1458H88.2551V48.75ZM87.7467 47.6511L88.1231 47.5286L87.7467 47.6511ZM87.4515 46.3062L87.8453 46.2659L87.7359 45.2L87.126 46.0809L87.4515 46.3062ZM84.6141 48.2252L84.4651 47.8584L84.4641 47.8589L84.6141 48.2252ZM74.5439 47.7659L74.341 48.1058L74.3421 48.1065L74.5439 47.7659ZM85.0897 45.5026L84.9008 45.1548L84.8996 45.1554L85.0897 45.5026ZM87.1727 40.4675H87.5685V40.0717H87.1727V40.4675ZM77.0861 41.3367L77.2578 41.6934L77.2591 41.6927L77.0861 41.3367ZM72.742 43.8133C72.742 42.1988 73.5326 40.9431 75.2092 40.0277L74.8298 39.3328C72.942 40.3636 71.9503 41.8633 71.9503 43.8133H72.742ZM75.21 40.0273C76.9312 39.0827 79.0541 38.6 81.5963 38.6V37.8083C78.9558 37.8083 76.6942 38.3097 74.8291 39.3332L75.21 40.0273ZM81.5963 38.6H87.1727V37.8083H81.5963V38.6ZM87.5685 38.2041V36.9413H86.7768V38.2041H87.5685ZM87.5685 36.9413C87.5685 35.7824 87.1092 34.8305 86.2032 34.1204L85.7148 34.7435C86.427 35.3017 86.7768 36.0227 86.7768 36.9413H87.5685ZM86.2078 34.1241C85.3002 33.3905 83.8334 33.0684 81.908 33.0684V33.8601C83.7876 33.8601 85.0214 34.1831 85.7102 34.7398L86.2078 34.1241ZM81.908 33.0684C80.0481 33.0684 78.6002 33.3315 77.6223 33.911L78.0259 34.592C78.8193 34.1219 80.094 33.8601 81.908 33.8601V33.0684ZM77.6223 33.911C76.6563 34.4834 76.0998 35.2571 76.0998 36.236H76.8914C76.8914 35.6186 77.2206 35.0693 78.0259 34.592L77.6223 33.911ZM76.0998 36.236V36.5312H76.8914V36.236H76.0998ZM76.4956 36.1354H73.5598V36.9271H76.4956V36.1354ZM73.9557 36.5312V36.236H73.164V36.5312H73.9557ZM73.9557 36.236C73.9557 34.9118 74.6534 33.7776 76.1791 32.8332L75.7624 32.16C74.0736 33.2055 73.164 34.5643 73.164 36.236H73.9557ZM76.1791 32.8332C77.7071 31.8873 79.6738 31.3999 82.1048 31.3999V30.6083C79.5717 30.6083 77.4491 31.1159 75.7624 32.16L76.1791 32.8332ZM82.1048 31.3999C84.5389 31.3999 86.4071 31.8885 87.7505 32.8217L88.2022 32.1715C86.6809 31.1147 84.6347 30.6083 82.1048 30.6083V31.3999ZM87.7505 32.8217C89.0614 33.7323 89.729 35.0835 89.729 36.9413H90.5207C90.5207 34.8628 89.756 33.2509 88.2022 32.1715L87.7505 32.8217ZM89.729 36.9413V44.8138H90.5207V36.9413H89.729ZM89.729 44.8138C89.729 45.5572 89.8206 46.2701 90.0052 46.9511L90.7693 46.7439C90.6041 46.1346 90.5207 45.4917 90.5207 44.8138H89.729ZM90.0052 46.9511C90.1886 47.6272 90.4388 48.2145 90.7619 48.7053L91.4231 48.2699C91.1558 47.864 90.9358 47.358 90.7693 46.7439L90.0052 46.9511ZM90.6967 48.4876V48.75H91.4884V48.4876H90.6967ZM91.0925 48.3542H88.2551V49.1458H91.0925V48.3542ZM88.5782 48.5212C88.4242 48.3038 88.2697 47.9789 88.1231 47.5286L87.3703 47.7737C87.5299 48.2637 87.7143 48.6713 87.9321 48.9788L88.5782 48.5212ZM88.1231 47.5286C87.9774 47.0811 87.8857 46.6605 87.8453 46.2659L87.0577 46.3466C87.1047 46.8049 87.2099 47.2808 87.3703 47.7737L88.1231 47.5286ZM87.126 46.0809C86.6997 46.6967 85.8402 47.2998 84.4651 47.8584L84.7631 48.5919C86.1871 48.0134 87.2192 47.3372 87.7769 46.5316L87.126 46.0809ZM84.4641 47.8589C83.1335 48.4037 81.552 48.6822 79.7102 48.6822V49.4739C81.6297 49.4739 83.3175 49.1838 84.7641 48.5915L84.4641 47.8589ZM79.7102 48.6822C77.8025 48.6822 76.1522 48.2589 74.7457 47.4254L74.3421 48.1065C75.8878 49.0224 77.6817 49.4739 79.7102 49.4739V48.6822ZM74.7468 47.4261C73.4059 46.6255 72.742 45.4397 72.742 43.8133H71.9503C71.9503 45.7076 72.7516 47.1569 74.341 48.1058L74.7468 47.4261ZM74.9189 43.7149C74.9189 44.8251 75.4322 45.6806 76.4145 46.2402L76.8063 45.5523C76.0611 45.1278 75.7106 44.5291 75.7106 43.7149H74.9189ZM76.4145 46.2402C77.3675 46.783 78.7513 47.0301 80.5139 47.0301V46.2384C78.7994 46.2384 77.5809 45.9935 76.8063 45.5523L76.4145 46.2402ZM80.5139 47.0301C82.2488 47.0301 83.8401 46.6382 85.2799 45.8498L84.8996 45.1554C83.584 45.8759 82.1248 46.2384 80.5139 46.2384V47.0301ZM85.2787 45.8504C86.7124 45.0715 87.5685 44.0984 87.5685 42.8948H86.7768C86.7768 43.6594 86.2444 44.4248 84.9008 45.1548L85.2787 45.8504ZM87.5685 42.8948V40.4675H86.7768V42.8948H87.5685ZM87.1727 40.0717H82.0064V40.8633H87.1727V40.0717ZM82.0064 40.0717C79.8889 40.0717 78.1809 40.3642 76.913 40.9808L77.2591 41.6927C78.3748 41.1503 79.947 40.8633 82.0064 40.8633V40.0717ZM76.9143 40.9801C75.6437 41.5919 74.9189 42.4998 74.9189 43.7149H75.7106C75.7106 42.8963 76.1667 42.2187 77.2578 41.6934L76.9143 40.9801ZM92.4866 34.0547H92.0908V34.4505H92.4866V34.0547ZM92.4866 31.4961V31.1003H92.0908V31.4961H92.4866ZM104.919 31.4961H105.314V31.1003H104.919V31.4961ZM104.919 34.0547V34.4505H105.314V34.0547H104.919ZM96.6525 27.2319V26.836H96.2566V27.2319H96.6525ZM99.6047 27.2319H100V26.836H99.6047V27.2319ZM100.31 45.9782L100.048 46.2749L100.051 46.2778L100.31 45.9782ZM104.377 46.257H104.773V45.7299L104.267 45.8769L104.377 46.257ZM104.377 48.7992L104.527 49.1658L104.773 49.0654V48.7992H104.377ZM103.147 49.1108L103.082 48.7204L103.081 48.7206L103.147 49.1108ZM97.9974 47.9628L97.7227 48.2478L97.7245 48.2496L97.9974 47.9628ZM92.8824 34.0547V31.4961H92.0908V34.0547H92.8824ZM92.4866 31.892H104.919V31.1003H92.4866V31.892ZM104.523 31.4961V34.0547H105.314V31.4961H104.523ZM104.919 33.6589H92.4866V34.4505H104.919V33.6589ZM97.0483 43.8953V32.9558H96.2566V43.8953H97.0483ZM97.0483 32.9558V32.5786H96.2566V32.9558H97.0483ZM97.0483 32.5786V27.2319H96.2566V32.5786H97.0483ZM96.6525 27.6277H99.6047V26.836H96.6525V27.6277ZM99.2088 27.2319V43.8953H100V27.2319H99.2088ZM99.2088 43.8953C99.2088 44.9197 99.4551 45.7511 100.048 46.2748L100.572 45.6816C100.224 45.3744 100 44.8171 100 43.8953H99.2088ZM100.051 46.2778C100.626 46.7739 101.396 46.9973 102.311 46.9973V46.2056C101.52 46.2056 100.956 46.0136 100.569 45.6787L100.051 46.2778ZM102.311 46.9973C102.696 46.9973 103.071 46.9623 103.436 46.8917L103.285 46.1144C102.972 46.175 102.648 46.2056 102.311 46.2056V46.9973ZM103.436 46.8917C103.787 46.8237 104.137 46.7389 104.488 46.6372L104.267 45.8769C103.939 45.972 103.612 46.0512 103.285 46.1144L103.436 46.8917ZM103.982 46.257V48.7992H104.773V46.257H103.982ZM104.228 48.4326C103.972 48.537 103.595 48.635 103.082 48.7204L103.212 49.5013C103.75 49.4117 104.192 49.302 104.527 49.1658L104.228 48.4326ZM103.081 48.7206C102.591 48.804 102.067 48.8462 101.507 48.8462V49.6379C102.107 49.6379 102.676 49.5926 103.214 49.501L103.081 48.7206ZM101.507 48.8462C100.147 48.8462 99.081 48.4472 98.2702 47.6759L97.7245 48.2496C98.7069 49.184 99.9804 49.6379 101.507 49.6379V48.8462ZM98.272 47.6777C97.4836 46.9182 97.0483 45.6876 97.0483 43.8953H96.2566C96.2566 45.7987 96.7179 47.2797 97.7227 48.2478L98.272 47.6777ZM109.347 33.4807L109.087 33.1824L109.086 33.1832L109.347 33.4807ZM124.026 33.4807L123.765 33.7781L123.765 33.7789L124.026 33.4807ZM124.026 46.7655L123.765 46.4673L123.765 46.468L124.026 46.7655ZM109.347 46.7655L109.086 47.0629L109.087 47.0637L109.347 46.7655ZM111.413 44.863L111.145 45.1541L111.147 45.1554L111.413 44.863ZM121.959 44.863L122.226 45.1554L122.226 45.1553L121.959 44.863ZM121.959 35.3996L121.691 35.6907L121.694 35.6932L121.959 35.3996ZM111.413 35.3996L111.68 35.692L111.682 35.6907L111.413 35.3996ZM106.922 40.3855V39.8606H106.13V40.3855H106.922ZM106.922 39.8606C106.922 37.3671 107.817 35.3506 109.608 33.7781L109.086 33.1832C107.116 34.9127 106.13 37.1496 106.13 39.8606H106.922ZM109.607 33.7789C111.413 32.2027 113.764 31.3999 116.695 31.3999V30.6083C113.612 30.6083 111.064 31.4565 109.087 33.1824L109.607 33.7789ZM116.695 31.3999C119.626 31.3999 121.97 32.2027 123.765 33.7781L124.287 33.1832C122.32 31.4565 119.777 30.6083 116.695 30.6083V31.3999ZM123.765 33.7789C125.567 35.3517 126.467 37.3679 126.467 39.8606H127.259C127.259 37.1488 126.267 34.9117 124.286 33.1824L123.765 33.7789ZM126.467 39.8606V40.3855H127.259V39.8606H126.467ZM126.467 40.3855C126.467 42.8782 125.567 44.8945 123.765 46.4673L124.286 47.0637C126.267 45.3344 127.259 43.0973 127.259 40.3855H126.467ZM123.765 46.468C121.97 48.0434 119.626 48.8462 116.695 48.8462V49.6379C119.777 49.6379 122.32 48.7896 124.287 47.0629L123.765 46.468ZM116.695 48.8462C113.764 48.8462 111.413 48.0434 109.607 46.4673L109.087 47.0637C111.064 48.7896 113.612 49.6379 116.695 49.6379V48.8462ZM109.608 46.468C107.817 44.8955 106.922 42.879 106.922 40.3855H106.13C106.13 43.0965 107.116 45.3334 109.086 47.0629L109.608 46.468ZM109.148 39.8606V40.3855H109.94V39.8606H109.148ZM109.148 40.3855C109.148 42.3226 109.81 43.9243 111.145 45.1541L111.682 44.5718C110.524 43.5054 109.94 42.1222 109.94 40.3855H109.148ZM111.147 45.1554C112.488 46.3793 114.356 46.9645 116.695 46.9645V46.1728C114.484 46.1728 112.832 45.6209 111.68 44.5705L111.147 45.1554ZM116.695 46.9645C119.022 46.9645 120.885 46.379 122.226 45.1554L121.692 44.5705C120.541 45.6212 118.893 46.1728 116.695 46.1728V46.9645ZM122.226 45.1553C123.573 43.9258 124.241 42.3238 124.241 40.3855H123.45C123.45 42.121 122.861 43.5039 121.692 44.5706L122.226 45.1553ZM124.241 40.3855V39.8606H123.45V40.3855H124.241ZM124.241 39.8606C124.241 37.9223 123.573 36.3249 122.225 35.106L121.694 35.6932C122.861 36.7485 123.45 38.1251 123.45 39.8606H124.241ZM122.227 35.1084C120.886 33.8731 119.023 33.2816 116.695 33.2816V34.0733C118.893 34.0733 120.539 34.6299 121.691 35.6907L122.227 35.1084ZM116.695 33.2816C114.355 33.2816 112.487 33.8728 111.145 35.1084L111.682 35.6907C112.833 34.6302 114.485 34.0733 116.695 34.0733V33.2816ZM111.147 35.1071C109.81 36.3264 109.148 37.9235 109.148 39.8606H109.94C109.94 38.124 110.524 36.747 111.68 35.692L111.147 35.1071ZM130.389 48.75H129.994V49.1458H130.389V48.75ZM130.389 31.4961V31.1003H129.994V31.4961H130.389ZM133.161 31.4961L133.557 31.4786L133.54 31.1003H133.161V31.4961ZM133.276 34.0875L132.881 34.105L132.929 35.1983L133.591 34.327L133.276 34.0875ZM135.769 31.939L135.97 32.28L135.973 32.2784L135.769 31.939ZM140.427 31.0697L140.373 31.4618L140.38 31.4628L140.387 31.4636L140.427 31.0697ZM141.214 31.2009H141.61V30.9L141.32 30.8195L141.214 31.2009ZM141.214 34.2843L141.149 34.6747L141.61 34.7516V34.2843H141.214ZM140.164 34.1367L140.121 34.5301L140.122 34.5303L140.164 34.1367ZM135.621 35.0223L135.825 35.3615L135.827 35.3608L135.621 35.0223ZM133.342 37.3021L132.995 37.1102L132.946 37.1997V37.3021H133.342ZM133.342 48.75V49.1458H133.737V48.75H133.342ZM130.785 48.75V31.4961H129.994V48.75H130.785ZM130.389 31.892H133.161V31.1003H130.389V31.892ZM132.766 31.5136L132.881 34.105L133.671 34.07L133.557 31.4786L132.766 31.5136ZM133.591 34.327C134.178 33.5542 134.968 32.8705 135.97 32.28L135.568 31.598C134.492 32.232 133.62 32.9807 132.961 33.848L133.591 34.327ZM135.973 32.2784C136.942 31.6969 138.078 31.3999 139.394 31.3999V30.6083C137.954 30.6083 136.674 30.9345 135.565 31.5995L135.973 32.2784ZM139.394 31.3999C139.75 31.3999 140.076 31.4209 140.373 31.4618L140.481 30.6776C140.143 30.631 139.781 30.6083 139.394 30.6083V31.3999ZM140.387 31.4636C140.705 31.4953 140.942 31.5362 141.108 31.5823L141.32 30.8195C141.092 30.7563 140.805 30.7097 140.466 30.6758L140.387 31.4636ZM140.818 31.2009V34.2843H141.61V31.2009H140.818ZM141.279 33.8939C140.88 33.8273 140.522 33.7769 140.207 33.7431L140.122 34.5303C140.419 34.5621 140.761 34.6101 141.149 34.6747L141.279 33.8939ZM140.208 33.7433C139.896 33.7086 139.559 33.6917 139.197 33.6917V34.4833C139.534 34.4833 139.842 34.4992 140.121 34.5301L140.208 33.7433ZM139.197 33.6917C137.778 33.6917 136.513 34.0185 135.416 34.6839L135.827 35.3608C136.785 34.7797 137.904 34.4833 139.197 34.4833V33.6917ZM135.417 34.6832C134.35 35.3261 133.537 36.1337 132.995 37.1102L133.688 37.494C134.153 36.6554 134.859 35.9432 135.825 35.3614L135.417 34.6832ZM132.946 37.3021V48.75H133.737V37.3021H132.946ZM133.342 48.3542H130.389V49.1458H133.342V48.3542ZM142.739 43.3705V42.9746H142.343V43.3705H142.739ZM145.675 43.3705H146.071V42.9746H145.675V43.3705ZM147.25 46.0274L147.082 46.3859L147.085 46.3873L147.25 46.0274ZM155.565 46.011L155.747 46.3626L155.75 46.361L155.565 46.011ZM150.759 41.1235L150.697 41.5143L150.759 41.1235ZM145.363 39.2538L145.126 39.5705L145.127 39.5716L145.363 39.2538ZM145.806 32.4146L145.59 32.0829L145.589 32.0837L145.806 32.4146ZM157.566 32.6114L157.333 32.9317L157.335 32.9329L157.566 32.6114ZM159.78 36.7117V37.1075H160.176V36.7117H159.78ZM156.844 36.7117H156.448V37.1075H156.844V36.7117ZM155.516 34.3171L155.306 34.6528L155.308 34.6539L155.516 34.3171ZM147.856 34.1039L147.683 33.748L147.681 33.7489L147.856 34.1039ZM152.646 38.647L152.709 38.2562L152.708 38.2561L152.646 38.647ZM158.14 40.4511L157.922 40.7813L157.923 40.7822L158.14 40.4511ZM157.812 47.7003L158.04 48.0236L158.042 48.0224L157.812 47.7003ZM145.019 47.7003L144.796 48.0271L144.798 48.029L145.019 47.7003ZM142.739 43.7663H145.675V42.9746H142.739V43.7663ZM145.279 43.3705V43.6821H146.071V43.3705H145.279ZM145.279 43.6821C145.279 44.2852 145.428 44.8279 145.74 45.2927C146.051 45.7556 146.507 46.1164 147.082 46.3858L147.418 45.669C146.943 45.4465 146.611 45.1703 146.397 44.8514C146.185 44.5345 146.071 44.1505 146.071 43.6821H145.279ZM147.085 46.3873C148.206 46.9013 149.68 47.1449 151.481 47.1449V46.3532C149.739 46.3532 148.392 46.1157 147.415 45.6676L147.085 46.3873ZM151.481 47.1449C153.279 47.1449 154.714 46.8968 155.747 46.3626L155.383 45.6594C154.513 46.1093 153.226 46.3532 151.481 46.3532V47.1449ZM155.75 46.361C156.786 45.8131 157.388 45.0323 157.388 44.0101H156.596C156.596 44.6499 156.246 45.203 155.38 45.6611L155.75 46.361ZM157.388 44.0101C157.388 43.5236 157.262 43.0842 156.993 42.7123C156.726 42.3432 156.34 42.0682 155.863 41.8726L155.562 42.605C155.938 42.7593 156.191 42.9544 156.351 43.1758C156.509 43.3943 156.596 43.6656 156.596 44.0101H157.388ZM155.863 41.8726C154.962 41.5029 153.267 41.1257 150.822 40.7327L150.697 41.5143C153.15 41.9086 154.758 42.2749 155.562 42.605L155.863 41.8726ZM150.822 40.7327C148.396 40.3428 146.672 39.7326 145.6 38.9361L145.127 39.5716C146.351 40.4807 148.224 41.117 150.697 41.5143L150.822 40.7327ZM145.601 38.9371C144.553 38.1511 144.054 37.1866 144.054 36.0228H143.262C143.262 37.4613 143.9 38.6509 145.126 39.5705L145.601 38.9371ZM144.054 36.0228C144.054 34.7153 144.681 33.627 146.024 32.7455L145.589 32.0837C144.067 33.0828 143.262 34.4 143.262 36.0228H144.054ZM146.022 32.7462C147.38 31.862 149.242 31.3999 151.645 31.3999V30.6083C149.15 30.6083 147.12 31.0865 145.59 32.0829L146.022 32.7462ZM151.645 31.3999C154.062 31.3999 155.945 31.924 157.333 32.9317L157.798 32.2911C156.234 31.1557 154.171 30.6083 151.645 30.6083V31.3999ZM157.335 32.9329C158.733 33.9377 159.384 35.1021 159.384 36.4328H160.176C160.176 34.7895 159.351 33.4063 157.797 32.2899L157.335 32.9329ZM159.384 36.4328V36.7117H160.176V36.4328H159.384ZM159.78 36.3158H156.844V37.1075H159.78V36.3158ZM157.24 36.7117V36.5148H156.448V36.7117H157.24ZM157.24 36.5148C157.24 35.4387 156.708 34.5877 155.724 33.9803L155.308 34.6539C156.095 35.1399 156.448 35.754 156.448 36.5148H157.24ZM155.726 33.9814C154.759 33.3774 153.382 33.1012 151.645 33.1012V33.8929C153.32 33.8929 154.523 34.1634 155.306 34.6528L155.726 33.9814ZM151.645 33.1012C149.932 33.1012 148.596 33.3035 147.683 33.748L148.03 34.4598C148.779 34.0952 149.968 33.8929 151.645 33.8929V33.1012ZM147.681 33.7489C146.772 34.1974 146.231 34.8701 146.231 35.7768H147.022C147.022 35.262 147.301 34.8195 148.032 34.4589L147.681 33.7489ZM146.231 35.7768C146.231 36.6718 146.737 37.3468 147.608 37.8007L147.974 37.0987C147.292 36.7434 147.022 36.3032 147.022 35.7768H146.231ZM147.608 37.8007C148.45 38.2395 150.132 38.6456 152.583 39.0378L152.708 38.2561C150.239 37.8611 148.684 37.469 147.974 37.0987L147.608 37.8007ZM152.582 39.0377C154.998 39.4277 156.765 40.0174 157.922 40.7813L158.358 40.1208C157.065 39.2666 155.169 38.6535 152.709 38.2562L152.582 39.0377ZM157.923 40.7822C159.052 41.5216 159.597 42.5151 159.597 43.7969H160.389C160.389 42.2358 159.699 40.9988 158.357 40.1199L157.923 40.7822ZM159.597 43.7969C159.597 45.2129 158.949 46.4016 157.582 47.3782L158.042 48.0224C159.583 46.9216 160.389 45.508 160.389 43.7969H159.597ZM157.583 47.3771C156.224 48.3381 154.208 48.8462 151.481 48.8462V49.6379C154.287 49.6379 156.492 49.1182 158.04 48.0236L157.583 47.3771ZM151.481 48.8462C148.745 48.8462 146.68 48.3387 145.24 47.3717L144.798 48.029C146.42 49.1176 148.663 49.6379 151.481 49.6379V48.8462ZM145.242 47.3735C143.821 46.4023 143.135 45.1424 143.135 43.5673H142.343C142.343 45.4255 143.177 46.921 144.796 48.0271L145.242 47.3735ZM143.135 43.5673V43.3705H142.343V43.5673H143.135Z" fill="white"/>
<path d="M177.358 48.0678C177.358 47.4445 177.544 46.9142 177.915 46.4769C178.298 46.0395 178.85 45.8208 179.572 45.8208C180.283 45.8208 180.824 46.0395 181.196 46.4769C181.578 46.9142 181.77 47.4445 181.77 48.0678C181.77 48.6801 181.584 49.2049 181.212 49.6423C180.84 50.0796 180.294 50.2983 179.572 50.2983C178.85 50.2983 178.298 50.0796 177.915 49.6423C177.544 49.2049 177.358 48.6801 177.358 48.0678ZM186.198 49.9375V32.6836H188.97L189.084 35.275C189.708 34.4549 190.539 33.7388 191.577 33.1265C192.616 32.5032 193.824 32.1916 195.202 32.1916C195.574 32.1916 195.918 32.2135 196.235 32.2572C196.563 32.29 196.826 32.3337 197.023 32.3884V35.4718C196.629 35.4062 196.279 35.357 195.973 35.3242C195.678 35.2914 195.355 35.275 195.005 35.275C193.649 35.275 192.458 35.5866 191.43 36.2098C190.413 36.8222 189.653 37.5821 189.15 38.4896V49.9375H186.198ZM199.532 42.393V32.6836H202.484V42.4258C202.484 44.2737 202.954 45.5967 203.895 46.3949C204.835 47.1821 206.092 47.5812 207.667 47.5922C208.99 47.5922 210.198 47.2587 211.291 46.5917C212.385 45.9247 213.26 45.0719 213.916 44.0331V32.6836H216.884V49.9375H214.112L213.998 47.0345H213.981C213.096 48.1826 212.002 49.0081 210.701 49.5111C209.4 50.014 208.017 50.2655 206.552 50.2655C204.463 50.2655 202.768 49.6641 201.467 48.4614C200.177 47.2477 199.532 45.2249 199.532 42.393Z" fill="white"/>
</g>
</svg>
