<svg width="364" height="126" viewBox="0 0 364 126" fill="none" xmlns="http://www.w3.org/2000/svg">
<path d="M1.92 53.68V41.296C3.86133 41.296 5.248 40.6667 6.08 39.408C6.912 38.128 7.584 36.0267 8.096 33.104C8.43733 31.2693 8.71467 29.3067 8.928 27.216C9.14133 25.1253 9.32267 22.8 9.472 20.24C9.64267 17.6587 9.80267 14.7253 9.952 11.44H33.76V41.296H37.12V53.68H31.68V46H7.36V53.68H1.92ZM10.688 41.296H28.064V16.144H15.104C15.04 17.6587 14.9547 19.248 14.848 20.912C14.7413 22.5547 14.6133 24.1973 14.464 25.84C14.336 27.4827 14.176 29.04 13.984 30.512C13.8133 31.9627 13.6107 33.264 13.376 34.416C13.0987 36.016 12.7787 37.3707 12.416 38.48C12.0533 39.5893 11.4773 40.528 10.688 41.296ZM37.1725 46V41.104C38.4525 41.3387 39.4232 41.296 40.0845 40.976C40.7672 40.6347 41.2685 40.048 41.5885 39.216C41.9298 38.3627 42.2072 37.296 42.4205 36.016C42.7832 33.9893 43.0925 31.728 43.3485 29.232C43.6258 26.736 43.8712 24.0053 44.0845 21.04C44.3192 18.0533 44.5325 14.8533 44.7245 11.44H68.8845V46H63.1885V16.848H49.9085C49.7805 18.8107 49.6205 20.8267 49.4285 22.896C49.2578 24.9653 49.0765 26.9813 48.8845 28.944C48.6925 30.8853 48.4792 32.6987 48.2445 34.384C48.0312 36.048 47.7965 37.488 47.5405 38.704C47.1352 40.7947 46.5698 42.4693 45.8445 43.728C45.1192 44.9653 44.0738 45.7653 42.7085 46.128C41.3432 46.512 39.4978 46.4693 37.1725 46ZM97.2965 46V33.488H89.8405C88.9658 33.488 87.9952 33.456 86.9285 33.392C85.8832 33.3067 84.9018 33.1893 83.9845 33.04C81.4885 32.5707 79.3765 31.472 77.6485 29.744C75.9418 28.016 75.0885 25.6267 75.0885 22.576C75.0885 19.6107 75.8885 17.232 77.4885 15.44C79.1098 13.6267 81.1045 12.4533 83.4725 11.92C84.5392 11.664 85.6165 11.5253 86.7045 11.504C87.8138 11.4613 88.7525 11.44 89.5205 11.44H102.993L103.025 46H97.2965ZM74.0325 46L83.2165 31.92H89.3605L80.1765 46H74.0325ZM89.4245 28.784H97.2965V16.144H89.4245C88.9338 16.144 88.2832 16.1653 87.4725 16.208C86.6832 16.2507 85.9258 16.3787 85.2005 16.592C84.5178 16.784 83.8458 17.136 83.1845 17.648C82.5445 18.16 82.0112 18.8213 81.5845 19.632C81.1578 20.4427 80.9445 21.4027 80.9445 22.512C80.9445 24.112 81.3925 25.4133 82.2885 26.416C83.1845 27.3973 84.2725 28.0587 85.5525 28.4C86.2565 28.5707 86.9498 28.6773 87.6325 28.72C88.3365 28.7627 88.9338 28.784 89.4245 28.784ZM130.14 46V16.624H118.107V11.44H147.868V16.624H135.836V46H130.14ZM166.981 46.96C163.589 46.96 160.624 46.2133 158.085 44.72C155.568 43.2053 153.605 41.104 152.197 38.416C150.789 35.7067 150.085 32.5493 150.085 28.944C150.085 25.168 150.778 21.904 152.165 19.152C153.552 16.3787 155.482 14.2453 157.957 12.752C160.453 11.2373 163.376 10.48 166.725 10.48C170.202 10.48 173.157 11.28 175.589 12.88C178.042 14.48 179.877 16.7627 181.093 19.728C182.33 22.6933 182.864 26.224 182.693 30.32H176.933V28.272C176.869 24.0267 176.005 20.8587 174.341 18.768C172.677 16.656 170.202 15.6 166.917 15.6C163.397 15.6 160.72 16.7307 158.885 18.992C157.05 21.2533 156.133 24.496 156.133 28.72C156.133 32.7947 157.05 35.952 158.885 38.192C160.72 40.432 163.333 41.552 166.725 41.552C169.008 41.552 170.992 41.0293 172.677 39.984C174.362 38.9387 175.685 37.4347 176.645 35.472L182.117 37.36C180.773 40.4107 178.746 42.7787 176.037 44.464C173.349 46.128 170.33 46.96 166.981 46.96ZM154.213 30.32V25.744H179.749V30.32H154.213ZM182.807 46L196.023 28.528L183.095 11.44H189.879L199.351 24.112L208.727 11.44H215.511L202.583 28.528L215.831 46H209.015L199.351 32.944L189.623 46H182.807ZM218.4 53.168L218.752 50.512C219.648 50.576 220.32 50.4053 220.768 50C221.216 49.5947 221.504 49.04 221.632 48.336C221.76 47.632 221.781 46.8533 221.696 46H218.4V38.768H224.672V46.96C224.672 49.2 224.117 50.8853 223.008 52.016C221.92 53.1467 220.384 53.5307 218.4 53.168ZM4.448 110L4.48 75.44H10.24V92.08L24.736 75.44H32.128L16.864 92.72L33.92 110H25.952L10.24 93.36V110H4.448ZM49.28 110.96C45.8453 110.96 42.88 110.181 40.384 108.624C37.9093 107.067 36 104.912 34.656 102.16C33.312 99.408 32.64 96.2507 32.64 92.688C32.64 89.0613 33.3227 85.8827 34.688 83.152C36.0533 80.4213 37.984 78.2987 40.48 76.784C42.976 75.248 45.9093 74.48 49.28 74.48C52.736 74.48 55.712 75.2587 58.208 76.816C60.704 78.352 62.6133 80.496 63.936 83.248C65.28 85.9787 65.952 89.1253 65.952 92.688C65.952 96.2933 65.28 99.472 63.936 102.224C62.592 104.955 60.672 107.099 58.176 108.656C55.68 110.192 52.7147 110.96 49.28 110.96ZM49.28 105.552C52.864 105.552 55.5307 104.357 57.28 101.968C59.0293 99.5787 59.904 96.4853 59.904 92.688C59.904 88.784 59.0187 85.68 57.248 83.376C55.4773 81.0507 52.8213 79.888 49.28 79.888C46.8693 79.888 44.8853 80.432 43.328 81.52C41.7707 82.608 40.608 84.112 39.84 86.032C39.072 87.952 38.688 90.1707 38.688 92.688C38.688 96.5707 39.584 99.6853 41.376 102.032C43.168 104.379 45.8027 105.552 49.28 105.552ZM71.0455 110V75.44H75.9415L89.0615 102.256L102.182 75.44H107.078V110H101.574V87.312L90.5655 110H87.5575L76.5495 87.312V110H71.0455ZM118.895 125.36L125.583 107.184L125.679 112.56L110.575 75.44H116.559L128.399 105.296H126.351L137.455 75.44H143.247L124.431 125.36H118.895ZM157.473 110V75.44H172.193C173.068 75.44 174.006 75.4933 175.009 75.6C176.033 75.6853 176.961 75.8453 177.793 76.08C179.649 76.5707 181.174 77.584 182.369 79.12C183.585 80.6347 184.193 82.5547 184.193 84.88C184.193 86.1813 183.99 87.312 183.585 88.272C183.201 89.232 182.646 90.064 181.921 90.768C181.601 91.088 181.249 91.376 180.865 91.632C180.481 91.888 180.097 92.0907 179.713 92.24C180.46 92.368 181.217 92.656 181.985 93.104C183.201 93.7653 184.15 94.6933 184.833 95.888C185.537 97.0827 185.889 98.608 185.889 100.464C185.889 102.811 185.324 104.752 184.193 106.288C183.062 107.803 181.505 108.848 179.521 109.424C178.689 109.659 177.772 109.819 176.769 109.904C175.766 109.968 174.796 110 173.857 110H157.473ZM163.233 105.36H173.537C173.985 105.36 174.518 105.317 175.137 105.232C175.777 105.147 176.342 105.04 176.833 104.912C177.942 104.592 178.742 103.995 179.233 103.12C179.745 102.245 180.001 101.296 180.001 100.272C180.001 98.9067 179.617 97.7973 178.849 96.944C178.102 96.0907 177.11 95.5573 175.873 95.344C175.425 95.216 174.934 95.1413 174.401 95.12C173.889 95.0987 173.43 95.088 173.025 95.088H163.233V105.36ZM163.233 90.384H171.809C172.406 90.384 173.036 90.352 173.697 90.288C174.358 90.2027 174.934 90.064 175.425 89.872C176.406 89.5093 177.121 88.912 177.569 88.08C178.038 87.2267 178.273 86.2987 178.273 85.296C178.273 84.1867 178.017 83.216 177.505 82.384C177.014 81.5307 176.257 80.944 175.233 80.624C174.55 80.368 173.782 80.2293 172.929 80.208C172.097 80.1653 171.564 80.144 171.329 80.144H163.233V90.384ZM200.221 110.96C197.64 110.96 195.475 110.491 193.725 109.552C191.997 108.592 190.685 107.333 189.789 105.776C188.915 104.219 188.477 102.512 188.477 100.656C188.477 98.8427 188.819 97.2747 189.501 95.952C190.205 94.608 191.187 93.4987 192.445 92.624C193.704 91.728 195.208 91.024 196.957 90.512C198.6 90.064 200.435 89.68 202.461 89.36C204.509 89.0187 206.579 88.7093 208.669 88.432C210.76 88.1547 212.712 87.888 214.525 87.632L212.477 88.816C212.541 85.744 211.923 83.472 210.621 82C209.341 80.528 207.123 79.792 203.965 79.792C201.875 79.792 200.04 80.272 198.461 81.232C196.904 82.1707 195.805 83.7067 195.165 85.84L189.757 84.208C190.589 81.1787 192.2 78.8 194.589 77.072C196.979 75.344 200.125 74.48 204.029 74.48C207.165 74.48 209.853 75.0453 212.093 76.176C214.355 77.2853 215.976 78.9707 216.957 81.232C217.448 82.2987 217.757 83.4613 217.885 84.72C218.013 85.9573 218.077 87.2587 218.077 88.624V110H213.021V101.712L214.205 102.48C212.904 105.275 211.08 107.387 208.733 108.816C206.408 110.245 203.571 110.96 200.221 110.96ZM201.085 106.192C203.133 106.192 204.904 105.829 206.397 105.104C207.912 104.357 209.128 103.387 210.045 102.192C210.963 100.976 211.56 99.6533 211.837 98.224C212.157 97.1573 212.328 95.9733 212.349 94.672C212.392 93.3493 212.413 92.336 212.413 91.632L214.397 92.496C212.541 92.752 210.717 92.9973 208.925 93.232C207.133 93.4667 205.437 93.7227 203.837 94C202.237 94.256 200.797 94.5653 199.517 94.928C198.579 95.2267 197.693 95.6107 196.861 96.08C196.051 96.5493 195.389 97.1573 194.877 97.904C194.387 98.6293 194.141 99.536 194.141 100.624C194.141 101.563 194.376 102.459 194.845 103.312C195.336 104.165 196.083 104.859 197.085 105.392C198.109 105.925 199.443 106.192 201.085 106.192ZM220.637 110L234.589 92.72L221.309 75.44H227.645L240.477 92.4V75.44H245.661V92.4L258.493 75.44H264.829L251.549 92.72L265.501 110H258.877L245.661 93.04V110H240.477V93.04L227.261 110H220.637ZM268.651 110V75.44H274.347V90H292.523V75.44H298.219V110H292.523V95.408H274.347V110H268.651ZM305.263 110L305.231 75.44H310.959V87.952H316.239C317.241 87.952 318.265 87.9733 319.311 88.016C320.356 88.0587 321.263 88.1547 322.031 88.304C323.823 88.6667 325.391 89.2747 326.735 90.128C328.079 90.9813 329.124 92.1333 329.871 93.584C330.617 95.0347 330.991 96.8373 330.991 98.992C330.991 101.979 330.212 104.347 328.655 106.096C327.119 107.824 325.103 108.976 322.607 109.552C321.753 109.744 320.772 109.872 319.663 109.936C318.575 109.979 317.54 110 316.559 110H305.263ZM310.959 105.296H316.655C317.295 105.296 318.009 105.275 318.799 105.232C319.588 105.189 320.292 105.083 320.911 104.912C321.999 104.592 322.969 103.963 323.823 103.024C324.697 102.085 325.135 100.741 325.135 98.992C325.135 97.2213 324.708 95.856 323.855 94.896C323.023 93.936 321.924 93.3067 320.559 93.008C319.94 92.8587 319.289 92.7627 318.607 92.72C317.924 92.6773 317.273 92.656 316.655 92.656H310.959V105.296ZM334.959 110V75.44H340.655V110H334.959ZM350.277 105.2V98.928H356.549V105.2H350.277ZM350.309 86.512V80.24H356.581V86.512H350.309Z" fill="white"/>
</svg>
