<svg width="521" height="43" viewBox="0 0 521 43" fill="none" xmlns="http://www.w3.org/2000/svg">
<g style="mix-blend-mode:difference" filter="url(#filter0_b_263_2575)">
<rect width="521" height="43" rx="12" fill="white" fill-opacity="0.2"/>
<g style="mix-blend-mode:exclusion">
<path d="M22.1023 27.1591V25.6136H22.8011C23.0928 25.6136 23.3333 25.5644 23.5227 25.4659C23.7159 25.3674 23.8731 25.2348 23.9943 25.0682C24.1193 24.8977 24.2235 24.7121 24.3068 24.5114L24.4716 24.0966L20.3807 15.3636H22.2443L25.2955 22.0909L28.0114 15.3636H29.8523L25.8295 24.983C25.6591 25.3693 25.4621 25.7273 25.2386 26.0568C25.0189 26.3864 24.7254 26.6534 24.358 26.858C23.9905 27.0587 23.5038 27.1591 22.8977 27.1591H22.1023ZM33.6151 27.1761C32.7704 27.1761 32.0431 26.9848 31.4332 26.6023C30.8272 26.2159 30.3613 25.6837 30.0355 25.0057C29.7098 24.3277 29.5469 23.5511 29.5469 22.6761C29.5469 21.7898 29.7135 21.0076 30.0469 20.3295C30.3802 19.6477 30.8499 19.1155 31.456 18.733C32.062 18.3504 32.776 18.1591 33.598 18.1591C34.2609 18.1591 34.8518 18.2822 35.3707 18.5284C35.8897 18.7708 36.3082 19.1117 36.6264 19.5511C36.9484 19.9905 37.1397 20.5038 37.2003 21.0909H35.5469C35.456 20.6818 35.2476 20.3295 34.9219 20.0341C34.5999 19.7386 34.1681 19.5909 33.6264 19.5909C33.1529 19.5909 32.7382 19.7159 32.3821 19.9659C32.0298 20.2121 31.7552 20.5644 31.5582 21.0227C31.3613 21.4773 31.2628 22.0152 31.2628 22.6364C31.2628 23.2727 31.3594 23.822 31.5526 24.2841C31.7457 24.7462 32.0185 25.1042 32.3707 25.358C32.7268 25.6117 33.1454 25.7386 33.6264 25.7386C33.9484 25.7386 34.2401 25.6799 34.5014 25.5625C34.7666 25.4413 34.9882 25.2689 35.1662 25.0455C35.348 24.822 35.4749 24.553 35.5469 24.2386H37.2003C37.1397 24.803 36.956 25.3068 36.6491 25.75C36.3423 26.1932 35.9313 26.5417 35.4162 26.7955C34.9048 27.0492 34.3045 27.1761 33.6151 27.1761ZM38.3295 27L38.3239 25.5284H38.6364C38.8788 25.5284 39.0814 25.4773 39.2443 25.375C39.411 25.2689 39.5473 25.0909 39.6534 24.8409C39.7595 24.5909 39.8409 24.2462 39.8977 23.8068C39.9545 23.3636 39.9962 22.8068 40.0227 22.1364L40.1761 18.2727H46.267V27H44.6023V19.7386H41.75L41.6136 22.7045C41.5795 23.4242 41.5057 24.053 41.392 24.5909C41.2822 25.1288 41.1212 25.5777 40.9091 25.9375C40.697 26.2936 40.4242 26.5606 40.0909 26.7386C39.7576 26.9129 39.3523 27 38.875 27H38.3295ZM49.294 30.2727C49.0402 30.2727 48.8092 30.2519 48.6009 30.2102C48.3925 30.1723 48.2372 30.1307 48.1349 30.0852L48.544 28.6932C48.8546 28.7765 49.1312 28.8125 49.3736 28.8011C49.616 28.7898 49.83 28.6989 50.0156 28.5284C50.205 28.358 50.3717 28.0795 50.5156 27.6932L50.7259 27.1136L47.5327 18.2727H49.3509L51.5611 25.0455H51.652L53.8622 18.2727H55.6861L52.0895 28.1648C51.9228 28.6193 51.7107 29.0038 51.4531 29.3182C51.1955 29.6364 50.8887 29.875 50.5327 30.0341C50.1766 30.1932 49.7637 30.2727 49.294 30.2727ZM62.8622 18.2727V19.7386H58.9588V27H57.2827V18.2727H62.8622ZM66.3224 24.6193L70.169 18.2727H71.9986V27H70.3338V20.6477L66.5043 27H64.6577V18.2727H66.3224V24.6193Z" fill="white"/>
</g>
<g style="mix-blend-mode:exclusion">
<path d="M116.375 15.3636V27H114.625V16.8636H109.148V27H107.398V15.3636H116.375ZM118.923 30.2727V18.2727H120.582V19.6875H120.724C120.823 19.5057 120.965 19.2955 121.151 19.0568C121.336 18.8182 121.594 18.6098 121.923 18.4318C122.253 18.25 122.688 18.1591 123.23 18.1591C123.935 18.1591 124.563 18.3371 125.116 18.6932C125.67 19.0492 126.103 19.5625 126.418 20.233C126.736 20.9034 126.895 21.7102 126.895 22.6534C126.895 23.5966 126.738 24.4053 126.423 25.0795C126.109 25.75 125.677 26.267 125.128 26.6307C124.579 26.9905 123.952 27.1705 123.247 27.1705C122.717 27.1705 122.283 27.0814 121.946 26.9034C121.613 26.7254 121.351 26.517 121.162 26.2784C120.973 26.0398 120.827 25.8277 120.724 25.642H120.622V30.2727H118.923ZM120.588 22.6364C120.588 23.25 120.677 23.7879 120.855 24.25C121.033 24.7121 121.291 25.0739 121.628 25.3352C121.965 25.5928 122.378 25.7216 122.866 25.7216C123.374 25.7216 123.798 25.5871 124.139 25.3182C124.48 25.0455 124.738 24.6761 124.912 24.2102C125.09 23.7443 125.179 23.2197 125.179 22.6364C125.179 22.0606 125.092 21.5436 124.918 21.0852C124.747 20.6269 124.49 20.2652 124.145 20C123.804 19.7348 123.378 19.6023 122.866 19.6023C122.374 19.6023 121.957 19.7292 121.616 19.983C121.279 20.2367 121.024 20.5909 120.849 21.0455C120.675 21.5 120.588 22.0303 120.588 22.6364ZM132.474 27.1761C131.656 27.1761 130.942 26.9886 130.332 26.6136C129.723 26.2386 129.249 25.714 128.912 25.0398C128.575 24.3655 128.406 23.5777 128.406 22.6761C128.406 21.7708 128.575 20.9792 128.912 20.3011C129.249 19.6231 129.723 19.0966 130.332 18.7216C130.942 18.3466 131.656 18.1591 132.474 18.1591C133.293 18.1591 134.007 18.3466 134.616 18.7216C135.226 19.0966 135.7 19.6231 136.037 20.3011C136.374 20.9792 136.543 21.7708 136.543 22.6761C136.543 23.5777 136.374 24.3655 136.037 25.0398C135.7 25.714 135.226 26.2386 134.616 26.6136C134.007 26.9886 133.293 27.1761 132.474 27.1761ZM132.48 25.75C133.01 25.75 133.45 25.6098 133.798 25.3295C134.147 25.0492 134.404 24.6761 134.571 24.2102C134.741 23.7443 134.827 23.2311 134.827 22.6705C134.827 22.1136 134.741 21.6023 134.571 21.1364C134.404 20.6667 134.147 20.2898 133.798 20.0057C133.45 19.7216 133.01 19.5795 132.48 19.5795C131.946 19.5795 131.503 19.7216 131.151 20.0057C130.802 20.2898 130.543 20.6667 130.372 21.1364C130.205 21.6023 130.122 22.1136 130.122 22.6705C130.122 23.2311 130.205 23.7443 130.372 24.2102C130.543 24.6761 130.802 25.0492 131.151 25.3295C131.503 25.6098 131.946 25.75 132.48 25.75ZM145.558 18.2727V25.608H146.837V29.8125H145.161V27H138.439V18.2727H140.104V25.5341H143.899V18.2727H145.558ZM152.388 27.1761C151.528 27.1761 150.787 26.9924 150.166 26.625C149.549 26.2538 149.071 25.733 148.734 25.0625C148.401 24.3883 148.234 23.5985 148.234 22.6932C148.234 21.7992 148.401 21.0114 148.734 20.3295C149.071 19.6477 149.541 19.1155 150.143 18.733C150.75 18.3504 151.458 18.1591 152.268 18.1591C152.761 18.1591 153.238 18.2405 153.7 18.4034C154.162 18.5663 154.577 18.822 154.945 19.1705C155.312 19.5189 155.602 19.9716 155.814 20.5284C156.026 21.0814 156.132 21.7538 156.132 22.5455V23.1477H149.195V21.875H154.467C154.467 21.428 154.376 21.0322 154.195 20.6875C154.013 20.339 153.757 20.0644 153.428 19.8636C153.102 19.6629 152.719 19.5625 152.28 19.5625C151.803 19.5625 151.386 19.6799 151.03 19.9148C150.678 20.1458 150.405 20.4489 150.212 20.8239C150.022 21.1951 149.928 21.5985 149.928 22.0341V23.0284C149.928 23.6117 150.03 24.108 150.234 24.517C150.443 24.9261 150.732 25.2386 151.104 25.4545C151.475 25.6667 151.909 25.7727 152.405 25.7727C152.727 25.7727 153.02 25.7273 153.286 25.6364C153.551 25.5417 153.78 25.4015 153.973 25.2159C154.166 25.0303 154.314 24.8011 154.416 24.5284L156.024 24.8182C155.895 25.2917 155.664 25.7064 155.331 26.0625C155.001 26.4148 154.587 26.6894 154.087 26.8864C153.59 27.0795 153.024 27.1761 152.388 27.1761ZM161.693 27.1761C160.848 27.1761 160.121 26.9848 159.511 26.6023C158.905 26.2159 158.439 25.6837 158.114 25.0057C157.788 24.3277 157.625 23.5511 157.625 22.6761C157.625 21.7898 157.792 21.0076 158.125 20.3295C158.458 19.6477 158.928 19.1155 159.534 18.733C160.14 18.3504 160.854 18.1591 161.676 18.1591C162.339 18.1591 162.93 18.2822 163.449 18.5284C163.968 18.7708 164.386 19.1117 164.705 19.5511C165.027 19.9905 165.218 20.5038 165.278 21.0909H163.625C163.534 20.6818 163.326 20.3295 163 20.0341C162.678 19.7386 162.246 19.5909 161.705 19.5909C161.231 19.5909 160.816 19.7159 160.46 19.9659C160.108 20.2121 159.833 20.5644 159.636 21.0227C159.439 21.4773 159.341 22.0152 159.341 22.6364C159.341 23.2727 159.438 23.822 159.631 24.2841C159.824 24.7462 160.097 25.1042 160.449 25.358C160.805 25.6117 161.223 25.7386 161.705 25.7386C162.027 25.7386 162.318 25.6799 162.58 25.5625C162.845 25.4413 163.066 25.2689 163.244 25.0455C163.426 24.822 163.553 24.553 163.625 24.2386H165.278C165.218 24.803 165.034 25.3068 164.727 25.75C164.42 26.1932 164.009 26.5417 163.494 26.7955C162.983 27.0492 162.383 27.1761 161.693 27.1761ZM170.771 27.1761C169.927 27.1761 169.199 26.9848 168.589 26.6023C167.983 26.2159 167.518 25.6837 167.192 25.0057C166.866 24.3277 166.703 23.5511 166.703 22.6761C166.703 21.7898 166.87 21.0076 167.203 20.3295C167.536 19.6477 168.006 19.1155 168.612 18.733C169.218 18.3504 169.932 18.1591 170.754 18.1591C171.417 18.1591 172.008 18.2822 172.527 18.5284C173.046 18.7708 173.464 19.1117 173.783 19.5511C174.105 19.9905 174.296 20.5038 174.357 21.0909H172.703C172.612 20.6818 172.404 20.3295 172.078 20.0341C171.756 19.7386 171.324 19.5909 170.783 19.5909C170.309 19.5909 169.894 19.7159 169.538 19.9659C169.186 20.2121 168.911 20.5644 168.714 21.0227C168.518 21.4773 168.419 22.0152 168.419 22.6364C168.419 23.2727 168.516 23.822 168.709 24.2841C168.902 24.7462 169.175 25.1042 169.527 25.358C169.883 25.6117 170.302 25.7386 170.783 25.7386C171.105 25.7386 171.396 25.6799 171.658 25.5625C171.923 25.4413 172.144 25.2689 172.322 25.0455C172.504 24.822 172.631 24.553 172.703 24.2386H174.357C174.296 24.803 174.112 25.3068 173.805 25.75C173.499 26.1932 173.088 26.5417 172.572 26.7955C172.061 27.0492 171.461 27.1761 170.771 27.1761ZM177.452 21.2727H179.986C181.054 21.2727 181.876 21.5379 182.452 22.0682C183.027 22.5985 183.315 23.2822 183.315 24.1193C183.315 24.6648 183.187 25.1553 182.929 25.5909C182.671 26.0265 182.295 26.3712 181.798 26.625C181.302 26.875 180.698 27 179.986 27H176.173V18.2727H177.838V25.5341H179.986C180.474 25.5341 180.876 25.4072 181.19 25.1534C181.505 24.8958 181.662 24.5682 181.662 24.1705C181.662 23.75 181.505 23.4072 181.19 23.142C180.876 22.8731 180.474 22.7386 179.986 22.7386H177.452V21.2727ZM184.554 27V18.2727H186.253V27H184.554Z" fill="white"/>
</g>
<g style="mix-blend-mode:exclusion">
<path d="M230.375 15.3636V27H228.625V16.8636H223.148V27H221.398V15.3636H230.375ZM232.923 30.2727V18.2727H234.582V19.6875H234.724C234.823 19.5057 234.965 19.2955 235.151 19.0568C235.336 18.8182 235.594 18.6098 235.923 18.4318C236.253 18.25 236.688 18.1591 237.23 18.1591C237.935 18.1591 238.563 18.3371 239.116 18.6932C239.67 19.0492 240.103 19.5625 240.418 20.233C240.736 20.9034 240.895 21.7102 240.895 22.6534C240.895 23.5966 240.738 24.4053 240.423 25.0795C240.109 25.75 239.677 26.267 239.128 26.6307C238.579 26.9905 237.952 27.1705 237.247 27.1705C236.717 27.1705 236.283 27.0814 235.946 26.9034C235.613 26.7254 235.351 26.517 235.162 26.2784C234.973 26.0398 234.827 25.8277 234.724 25.642H234.622V30.2727H232.923ZM234.588 22.6364C234.588 23.25 234.677 23.7879 234.855 24.25C235.033 24.7121 235.291 25.0739 235.628 25.3352C235.965 25.5928 236.378 25.7216 236.866 25.7216C237.374 25.7216 237.798 25.5871 238.139 25.3182C238.48 25.0455 238.738 24.6761 238.912 24.2102C239.09 23.7443 239.179 23.2197 239.179 22.6364C239.179 22.0606 239.092 21.5436 238.918 21.0852C238.747 20.6269 238.49 20.2652 238.145 20C237.804 19.7348 237.378 19.6023 236.866 19.6023C236.374 19.6023 235.957 19.7292 235.616 19.983C235.279 20.2367 235.024 20.5909 234.849 21.0455C234.675 21.5 234.588 22.0303 234.588 22.6364ZM246.474 27.1761C245.656 27.1761 244.942 26.9886 244.332 26.6136C243.723 26.2386 243.249 25.714 242.912 25.0398C242.575 24.3655 242.406 23.5777 242.406 22.6761C242.406 21.7708 242.575 20.9792 242.912 20.3011C243.249 19.6231 243.723 19.0966 244.332 18.7216C244.942 18.3466 245.656 18.1591 246.474 18.1591C247.293 18.1591 248.007 18.3466 248.616 18.7216C249.226 19.0966 249.7 19.6231 250.037 20.3011C250.374 20.9792 250.543 21.7708 250.543 22.6761C250.543 23.5777 250.374 24.3655 250.037 25.0398C249.7 25.714 249.226 26.2386 248.616 26.6136C248.007 26.9886 247.293 27.1761 246.474 27.1761ZM246.48 25.75C247.01 25.75 247.45 25.6098 247.798 25.3295C248.147 25.0492 248.404 24.6761 248.571 24.2102C248.741 23.7443 248.827 23.2311 248.827 22.6705C248.827 22.1136 248.741 21.6023 248.571 21.1364C248.404 20.6667 248.147 20.2898 247.798 20.0057C247.45 19.7216 247.01 19.5795 246.48 19.5795C245.946 19.5795 245.503 19.7216 245.151 20.0057C244.802 20.2898 244.543 20.6667 244.372 21.1364C244.205 21.6023 244.122 22.1136 244.122 22.6705C244.122 23.2311 244.205 23.7443 244.372 24.2102C244.543 24.6761 244.802 25.0492 245.151 25.3295C245.503 25.6098 245.946 25.75 246.48 25.75ZM256.2 27.1761C255.34 27.1761 254.6 26.9924 253.979 26.625C253.361 26.2538 252.884 25.733 252.547 25.0625C252.214 24.3883 252.047 23.5985 252.047 22.6932C252.047 21.7992 252.214 21.0114 252.547 20.3295C252.884 19.6477 253.354 19.1155 253.956 18.733C254.562 18.3504 255.27 18.1591 256.081 18.1591C256.573 18.1591 257.051 18.2405 257.513 18.4034C257.975 18.5663 258.39 18.822 258.757 19.1705C259.125 19.5189 259.414 19.9716 259.626 20.5284C259.839 21.0814 259.945 21.7538 259.945 22.5455V23.1477H253.007V21.875H258.28C258.28 21.428 258.189 21.0322 258.007 20.6875C257.825 20.339 257.57 20.0644 257.24 19.8636C256.914 19.6629 256.532 19.5625 256.092 19.5625C255.615 19.5625 255.198 19.6799 254.842 19.9148C254.49 20.1458 254.217 20.4489 254.024 20.8239C253.835 21.1951 253.74 21.5985 253.74 22.0341V23.0284C253.74 23.6117 253.842 24.108 254.047 24.517C254.255 24.9261 254.545 25.2386 254.916 25.4545C255.287 25.6667 255.721 25.7727 256.217 25.7727C256.539 25.7727 256.833 25.7273 257.098 25.6364C257.363 25.5417 257.592 25.4015 257.786 25.2159C257.979 25.0303 258.126 24.8011 258.229 24.5284L259.837 24.8182C259.708 25.2917 259.477 25.7064 259.143 26.0625C258.814 26.4148 258.399 26.6894 257.899 26.8864C257.403 27.0795 256.837 27.1761 256.2 27.1761ZM261.83 27V18.2727H263.528V21.9318H264.347L267.227 18.2727H269.33L265.949 22.517L269.369 27H267.261L264.631 23.5114H263.528V27H261.83ZM270.2 19.7386V18.2727H277.564V19.7386H274.717V27H273.058V19.7386H270.2ZM280.639 21.2727H283.173C284.241 21.2727 285.063 21.5379 285.639 22.0682C286.215 22.5985 286.503 23.2822 286.503 24.1193C286.503 24.6648 286.374 25.1553 286.116 25.5909C285.859 26.0265 285.482 26.3712 284.986 26.625C284.49 26.875 283.885 27 283.173 27H279.361V18.2727H281.026V25.5341H283.173C283.662 25.5341 284.063 25.4072 284.378 25.1534C284.692 24.8958 284.849 24.5682 284.849 24.1705C284.849 23.75 284.692 23.4072 284.378 23.142C284.063 22.8731 283.662 22.7386 283.173 22.7386H280.639V21.2727ZM287.741 27V18.2727H289.44V27H287.741Z" fill="white"/>
</g>
<g style="mix-blend-mode:exclusion">
<path d="M331.182 27L327.273 21.7841H326.034V27H324.278V15.3636H326.034V20.2784H326.608L331.006 15.3636H333.148L328.494 20.5739L333.324 27H331.182ZM337.849 27.1761C337.031 27.1761 336.317 26.9886 335.707 26.6136C335.098 26.2386 334.624 25.714 334.287 25.0398C333.95 24.3655 333.781 23.5777 333.781 22.6761C333.781 21.7708 333.95 20.9792 334.287 20.3011C334.624 19.6231 335.098 19.0966 335.707 18.7216C336.317 18.3466 337.031 18.1591 337.849 18.1591C338.668 18.1591 339.382 18.3466 339.991 18.7216C340.601 19.0966 341.075 19.6231 341.412 20.3011C341.749 20.9792 341.918 21.7708 341.918 22.6761C341.918 23.5777 341.749 24.3655 341.412 25.0398C341.075 25.714 340.601 26.2386 339.991 26.6136C339.382 26.9886 338.668 27.1761 337.849 27.1761ZM337.855 25.75C338.385 25.75 338.825 25.6098 339.173 25.3295C339.522 25.0492 339.779 24.6761 339.946 24.2102C340.116 23.7443 340.202 23.2311 340.202 22.6705C340.202 22.1136 340.116 21.6023 339.946 21.1364C339.779 20.6667 339.522 20.2898 339.173 20.0057C338.825 19.7216 338.385 19.5795 337.855 19.5795C337.321 19.5795 336.878 19.7216 336.526 20.0057C336.177 20.2898 335.918 20.6667 335.747 21.1364C335.58 21.6023 335.497 22.1136 335.497 22.6705C335.497 23.2311 335.58 23.7443 335.747 24.2102C335.918 24.6761 336.177 25.0492 336.526 25.3295C336.878 25.6098 337.321 25.75 337.855 25.75ZM348.712 24.8977L351.53 18.2727H352.996L349.342 27H348.081L344.501 18.2727H345.95L348.712 24.8977ZM345.479 18.2727V27H343.814V18.2727H345.479ZM351.99 27V18.2727H353.643V27H351.99ZM358.447 27.1932C357.894 27.1932 357.394 27.0909 356.947 26.8864C356.5 26.678 356.146 26.3769 355.885 25.983C355.627 25.589 355.499 25.1061 355.499 24.5341C355.499 24.0417 355.593 23.6364 355.783 23.3182C355.972 23 356.228 22.7481 356.55 22.5625C356.872 22.3769 357.232 22.2367 357.629 22.142C358.027 22.0473 358.432 21.9754 358.845 21.9261C359.368 21.8655 359.792 21.8163 360.118 21.7784C360.444 21.7367 360.68 21.6705 360.828 21.5795C360.976 21.4886 361.05 21.3409 361.05 21.1364V21.0966C361.05 20.6004 360.91 20.2159 360.629 19.9432C360.353 19.6705 359.94 19.5341 359.391 19.5341C358.819 19.5341 358.368 19.661 358.038 19.9148C357.713 20.1648 357.487 20.4432 357.362 20.75L355.766 20.3864C355.955 19.8561 356.232 19.428 356.595 19.1023C356.963 18.7727 357.385 18.5341 357.862 18.3864C358.339 18.2348 358.841 18.1591 359.368 18.1591C359.716 18.1591 360.086 18.2008 360.476 18.2841C360.87 18.3636 361.237 18.5114 361.578 18.7273C361.923 18.9432 362.205 19.2519 362.425 19.6534C362.644 20.0511 362.754 20.5682 362.754 21.2045V27H361.095V25.8068H361.027C360.917 26.0265 360.752 26.2424 360.533 26.4545C360.313 26.6667 360.031 26.8428 359.686 26.983C359.341 27.1231 358.929 27.1932 358.447 27.1932ZM358.817 25.8295C359.286 25.8295 359.688 25.7367 360.021 25.5511C360.358 25.3655 360.614 25.1231 360.788 24.8239C360.966 24.5208 361.055 24.197 361.055 23.8523V22.7273C360.995 22.7879 360.877 22.8447 360.703 22.8977C360.533 22.947 360.338 22.9905 360.118 23.0284C359.898 23.0625 359.684 23.0947 359.476 23.125C359.268 23.1515 359.093 23.1742 358.953 23.1932C358.624 23.2348 358.322 23.3049 358.05 23.4034C357.781 23.5019 357.565 23.6439 357.402 23.8295C357.243 24.0114 357.163 24.2538 357.163 24.5568C357.163 24.9773 357.319 25.2955 357.629 25.5114C357.94 25.7235 358.336 25.8295 358.817 25.8295ZM370.932 21.9034V23.375H366.205V21.9034H370.932ZM366.682 18.2727V27H365.017V18.2727H366.682ZM372.119 18.2727V27H370.46V18.2727H372.119ZM373.54 29.517V25.5284H374.25C374.432 25.3617 374.585 25.1629 374.71 24.9318C374.839 24.7008 374.947 24.4261 375.034 24.108C375.125 23.7898 375.201 23.4186 375.261 22.9943C375.322 22.5663 375.375 22.0777 375.42 21.5284L375.693 18.2727H381.625V25.5284H382.966V29.517H381.307V27H375.222V29.517H373.54ZM376.068 25.5284H379.966V19.7273H377.216L377.034 21.5284C376.947 22.4451 376.837 23.2405 376.705 23.9148C376.572 24.5852 376.36 25.1231 376.068 25.5284ZM387.166 27.1932C386.613 27.1932 386.113 27.0909 385.666 26.8864C385.219 26.678 384.865 26.3769 384.604 25.983C384.346 25.589 384.217 25.1061 384.217 24.5341C384.217 24.0417 384.312 23.6364 384.501 23.3182C384.691 23 384.946 22.7481 385.268 22.5625C385.59 22.3769 385.95 22.2367 386.348 22.142C386.746 22.0473 387.151 21.9754 387.564 21.9261C388.087 21.8655 388.511 21.8163 388.837 21.7784C389.162 21.7367 389.399 21.6705 389.547 21.5795C389.695 21.4886 389.768 21.3409 389.768 21.1364V21.0966C389.768 20.6004 389.628 20.2159 389.348 19.9432C389.071 19.6705 388.659 19.5341 388.109 19.5341C387.537 19.5341 387.087 19.661 386.757 19.9148C386.431 20.1648 386.206 20.4432 386.081 20.75L384.484 20.3864C384.674 19.8561 384.95 19.428 385.314 19.1023C385.681 18.7727 386.104 18.5341 386.581 18.3864C387.058 18.2348 387.56 18.1591 388.087 18.1591C388.435 18.1591 388.804 18.2008 389.195 18.2841C389.589 18.3636 389.956 18.5114 390.297 18.7273C390.642 18.9432 390.924 19.2519 391.143 19.6534C391.363 20.0511 391.473 20.5682 391.473 21.2045V27H389.814V25.8068H389.746C389.636 26.0265 389.471 26.2424 389.251 26.4545C389.032 26.6667 388.75 26.8428 388.405 26.983C388.06 27.1231 387.647 27.1932 387.166 27.1932ZM387.536 25.8295C388.005 25.8295 388.407 25.7367 388.74 25.5511C389.077 25.3655 389.333 25.1231 389.507 24.8239C389.685 24.5208 389.774 24.197 389.774 23.8523V22.7273C389.714 22.7879 389.596 22.8447 389.422 22.8977C389.251 22.947 389.056 22.9905 388.837 23.0284C388.617 23.0625 388.403 23.0947 388.195 23.125C387.986 23.1515 387.812 23.1742 387.672 23.1932C387.342 23.2348 387.041 23.3049 386.768 23.4034C386.5 23.5019 386.284 23.6439 386.121 23.8295C385.962 24.0114 385.882 24.2538 385.882 24.5568C385.882 24.9773 386.037 25.2955 386.348 25.5114C386.659 25.7235 387.054 25.8295 387.536 25.8295Z" fill="white"/>
</g>
<g style="mix-blend-mode:exclusion">
<path d="M433.182 27L429.273 21.7841H428.034V27H426.278V15.3636H428.034V20.2784H428.608L433.006 15.3636H435.148L430.494 20.5739L435.324 27H433.182ZM439.849 27.1761C439.031 27.1761 438.317 26.9886 437.707 26.6136C437.098 26.2386 436.624 25.714 436.287 25.0398C435.95 24.3655 435.781 23.5777 435.781 22.6761C435.781 21.7708 435.95 20.9792 436.287 20.3011C436.624 19.6231 437.098 19.0966 437.707 18.7216C438.317 18.3466 439.031 18.1591 439.849 18.1591C440.668 18.1591 441.382 18.3466 441.991 18.7216C442.601 19.0966 443.075 19.6231 443.412 20.3011C443.749 20.9792 443.918 21.7708 443.918 22.6761C443.918 23.5777 443.749 24.3655 443.412 25.0398C443.075 25.714 442.601 26.2386 441.991 26.6136C441.382 26.9886 440.668 27.1761 439.849 27.1761ZM439.855 25.75C440.385 25.75 440.825 25.6098 441.173 25.3295C441.522 25.0492 441.779 24.6761 441.946 24.2102C442.116 23.7443 442.202 23.2311 442.202 22.6705C442.202 22.1136 442.116 21.6023 441.946 21.1364C441.779 20.6667 441.522 20.2898 441.173 20.0057C440.825 19.7216 440.385 19.5795 439.855 19.5795C439.321 19.5795 438.878 19.7216 438.526 20.0057C438.177 20.2898 437.918 20.6667 437.747 21.1364C437.58 21.6023 437.497 22.1136 437.497 22.6705C437.497 23.2311 437.58 23.7443 437.747 24.2102C437.918 24.6761 438.177 25.0492 438.526 25.3295C438.878 25.6098 439.321 25.75 439.855 25.75ZM451.729 21.9034V23.375H447.001V21.9034H451.729ZM447.479 18.2727V27H445.814V18.2727H447.479ZM452.916 18.2727V27H451.257V18.2727H452.916ZM454.107 19.7386V18.2727H461.47V19.7386H458.624V27H456.964V19.7386H454.107ZM465.401 27.1932C464.848 27.1932 464.348 27.0909 463.901 26.8864C463.454 26.678 463.099 26.3769 462.838 25.983C462.58 25.589 462.452 25.1061 462.452 24.5341C462.452 24.0417 462.546 23.6364 462.736 23.3182C462.925 23 463.181 22.7481 463.503 22.5625C463.825 22.3769 464.185 22.2367 464.582 22.142C464.98 22.0473 465.385 21.9754 465.798 21.9261C466.321 21.8655 466.745 21.8163 467.071 21.7784C467.397 21.7367 467.634 21.6705 467.781 21.5795C467.929 21.4886 468.003 21.3409 468.003 21.1364V21.0966C468.003 20.6004 467.863 20.2159 467.582 19.9432C467.306 19.6705 466.893 19.5341 466.344 19.5341C465.772 19.5341 465.321 19.661 464.991 19.9148C464.666 20.1648 464.44 20.4432 464.315 20.75L462.719 20.3864C462.908 19.8561 463.185 19.428 463.548 19.1023C463.916 18.7727 464.338 18.5341 464.815 18.3864C465.293 18.2348 465.795 18.1591 466.321 18.1591C466.67 18.1591 467.039 18.2008 467.429 18.2841C467.823 18.3636 468.19 18.5114 468.531 18.7273C468.876 18.9432 469.158 19.2519 469.378 19.6534C469.598 20.0511 469.707 20.5682 469.707 21.2045V27H468.048V25.8068H467.98C467.87 26.0265 467.705 26.2424 467.486 26.4545C467.266 26.6667 466.984 26.8428 466.639 26.983C466.295 27.1231 465.882 27.1932 465.401 27.1932ZM465.77 25.8295C466.24 25.8295 466.641 25.7367 466.974 25.5511C467.312 25.3655 467.567 25.1231 467.741 24.8239C467.92 24.5208 468.009 24.197 468.009 23.8523V22.7273C467.948 22.7879 467.83 22.8447 467.656 22.8977C467.486 22.947 467.291 22.9905 467.071 23.0284C466.851 23.0625 466.637 23.0947 466.429 23.125C466.221 23.1515 466.046 23.1742 465.906 23.1932C465.577 23.2348 465.276 23.3049 465.003 23.4034C464.734 23.5019 464.518 23.6439 464.355 23.8295C464.196 24.0114 464.116 24.2538 464.116 24.5568C464.116 24.9773 464.272 25.2955 464.582 25.5114C464.893 25.7235 465.289 25.8295 465.77 25.8295ZM471.97 27V18.2727H473.669V21.9318H474.487L477.368 18.2727H479.47L476.089 22.517L479.51 27H477.402L474.771 23.5114H473.669V27H471.97ZM480.341 19.7386V18.2727H487.705V19.7386H484.858V27H483.199V19.7386H480.341ZM490.78 21.2727H493.314C494.382 21.2727 495.204 21.5379 495.78 22.0682C496.356 22.5985 496.643 23.2822 496.643 24.1193C496.643 24.6648 496.515 25.1553 496.257 25.5909C496 26.0265 495.623 26.3712 495.126 26.625C494.63 26.875 494.026 27 493.314 27H489.501V18.2727H491.166V25.5341H493.314C493.803 25.5341 494.204 25.4072 494.518 25.1534C494.833 24.8958 494.99 24.5682 494.99 24.1705C494.99 23.75 494.833 23.4072 494.518 23.142C494.204 22.8731 493.803 22.7386 493.314 22.7386H490.78V21.2727ZM497.882 27V18.2727H499.581V27H497.882Z" fill="white"/>
</g>
</g>
<defs>
<filter id="filter0_b_263_2575" x="-40" y="-40" width="601" height="123" filterUnits="userSpaceOnUse" color-interpolation-filters="sRGB">
<feFlood flood-opacity="0" result="BackgroundImageFix"/>
<feGaussianBlur in="BackgroundImageFix" stdDeviation="20"/>
<feComposite in2="SourceAlpha" operator="in" result="effect1_backgroundBlur_263_2575"/>
<feBlend mode="normal" in="SourceGraphic" in2="effect1_backgroundBlur_263_2575" result="shape"/>
</filter>
</defs>
</svg>
