<svg width="497" height="138" viewBox="0 0 497 138" fill="none" xmlns="http://www.w3.org/2000/svg">
<path d="M2.81818 64V40.7273H5.63636V51.0909H18.0455V40.7273H20.8636V64H18.0455V53.5909H5.63636V64H2.81818ZM32.273 64.3636C30.6972 64.3636 29.3146 63.9886 28.1252 63.2386C26.9434 62.4886 26.0192 61.4394 25.3525 60.0909C24.6934 58.7424 24.3639 57.1667 24.3639 55.3636C24.3639 53.5455 24.6934 51.9583 25.3525 50.6023C26.0192 49.2462 26.9434 48.1932 28.1252 47.4432C29.3146 46.6932 30.6972 46.3182 32.273 46.3182C33.8487 46.3182 35.2275 46.6932 36.4093 47.4432C37.5987 48.1932 38.523 49.2462 39.182 50.6023C39.8487 51.9583 40.182 53.5455 40.182 55.3636C40.182 57.1667 39.8487 58.7424 39.182 60.0909C38.523 61.4394 37.5987 62.4886 36.4093 63.2386C35.2275 63.9886 33.8487 64.3636 32.273 64.3636ZM32.273 61.9545C33.4699 61.9545 34.4548 61.6477 35.2275 61.0341C36.0002 60.4205 36.5722 59.6136 36.9434 58.6136C37.3146 57.6136 37.5002 56.5303 37.5002 55.3636C37.5002 54.197 37.3146 53.1098 36.9434 52.1023C36.5722 51.0947 36.0002 50.2803 35.2275 49.6591C34.4548 49.0379 33.4699 48.7273 32.273 48.7273C31.076 48.7273 30.0911 49.0379 29.3184 49.6591C28.5457 50.2803 27.9737 51.0947 27.6025 52.1023C27.2313 53.1098 27.0457 54.197 27.0457 55.3636C27.0457 56.5303 27.2313 57.6136 27.6025 58.6136C27.9737 59.6136 28.5457 60.4205 29.3184 61.0341C30.0911 61.6477 31.076 61.9545 32.273 61.9545ZM50.9067 46.5455V48.8182H41.8613V46.5455H50.9067ZM44.4976 42.3636H47.1794V59C47.1794 59.7576 47.2893 60.3258 47.509 60.7045C47.7363 61.0758 48.0241 61.3258 48.3726 61.4545C48.7287 61.5758 49.1037 61.6364 49.4976 61.6364C49.7931 61.6364 50.0355 61.6212 50.2249 61.5909C50.4143 61.553 50.5658 61.5227 50.6794 61.5L51.2249 63.9091C51.0431 63.9773 50.7893 64.0455 50.4635 64.1136C50.1378 64.1894 49.7249 64.2273 49.2249 64.2273C48.4673 64.2273 47.7249 64.0644 46.9976 63.7386C46.2779 63.4129 45.6794 62.9167 45.2022 62.25C44.7325 61.5833 44.4976 60.7424 44.4976 59.7273V42.3636ZM61.1115 64.3636C59.4297 64.3636 57.9789 63.9924 56.7592 63.25C55.5471 62.5 54.6115 61.4545 53.9524 60.1136C53.3009 58.7652 52.9751 57.197 52.9751 55.4091C52.9751 53.6212 53.3009 52.0455 53.9524 50.6818C54.6115 49.3106 55.5281 48.2424 56.7024 47.4773C57.8842 46.7045 59.263 46.3182 60.8387 46.3182C61.7478 46.3182 62.6456 46.4697 63.5319 46.7727C64.4183 47.0758 65.2251 47.5682 65.9524 48.25C66.6797 48.9242 67.2592 49.8182 67.691 50.9318C68.1228 52.0455 68.3387 53.4167 68.3387 55.0455V56.1818H54.8842V53.8636H65.6115C65.6115 52.8788 65.4145 52 65.0206 51.2273C64.6342 50.4545 64.0812 49.8447 63.3615 49.3977C62.6494 48.9508 61.8084 48.7273 60.8387 48.7273C59.7706 48.7273 58.8463 48.9924 58.066 49.5227C57.2933 50.0455 56.6986 50.7273 56.2819 51.5682C55.8653 52.4091 55.6569 53.3106 55.6569 54.2727V55.8182C55.6569 57.1364 55.8842 58.2538 56.3387 59.1705C56.8009 60.0795 57.441 60.7727 58.2592 61.25C59.0774 61.7197 60.0281 61.9545 61.1115 61.9545C61.816 61.9545 62.4524 61.8561 63.0206 61.6591C63.5963 61.4545 64.0925 61.1515 64.5092 60.75C64.9259 60.3409 65.2478 59.8333 65.4751 59.2273L68.066 59.9545C67.7933 60.8333 67.335 61.6061 66.691 62.2727C66.0471 62.9318 65.2516 63.447 64.3047 63.8182C63.3577 64.1818 62.2933 64.3636 61.1115 64.3636ZM74.1401 40.7273V64H71.4583V40.7273H74.1401ZM97.183 48H94.3648C94.1981 47.1894 93.9064 46.4773 93.4898 45.8636C93.0807 45.25 92.5807 44.7348 91.9898 44.3182C91.4064 43.8939 90.7587 43.5758 90.0466 43.3636C89.3345 43.1515 88.592 43.0455 87.8193 43.0455C86.4102 43.0455 85.1337 43.4015 83.9898 44.1136C82.8534 44.8258 81.9481 45.875 81.2739 47.2614C80.6072 48.6477 80.2739 50.3485 80.2739 52.3636C80.2739 54.3788 80.6072 56.0795 81.2739 57.4659C81.9481 58.8523 82.8534 59.9015 83.9898 60.6136C85.1337 61.3258 86.4102 61.6818 87.8193 61.6818C88.592 61.6818 89.3345 61.5758 90.0466 61.3636C90.7587 61.1515 91.4064 60.8371 91.9898 60.4205C92.5807 59.9962 93.0807 59.4773 93.4898 58.8636C93.9064 58.2424 94.1981 57.5303 94.3648 56.7273H97.183C96.9708 57.9167 96.5845 58.9811 96.0239 59.9205C95.4633 60.8598 94.7663 61.6591 93.933 62.3182C93.0996 62.9697 92.164 63.4659 91.1261 63.8068C90.0958 64.1477 88.9936 64.3182 87.8193 64.3182C85.8345 64.3182 84.0693 63.8333 82.5239 62.8636C80.9784 61.8939 79.7625 60.5152 78.8761 58.7273C77.9898 56.9394 77.5466 54.8182 77.5466 52.3636C77.5466 49.9091 77.9898 47.7879 78.8761 46C79.7625 44.2121 80.9784 42.8333 82.5239 41.8636C84.0693 40.8939 85.8345 40.4091 87.8193 40.4091C88.9936 40.4091 90.0958 40.5795 91.1261 40.9205C92.164 41.2614 93.0996 41.7614 93.933 42.4205C94.7663 43.072 95.4633 43.8674 96.0239 44.8068C96.5845 45.7386 96.9708 46.803 97.183 48ZM105.55 64.4091C104.444 64.4091 103.44 64.2008 102.538 63.7841C101.637 63.3598 100.921 62.75 100.391 61.9545C99.8603 61.1515 99.5951 60.1818 99.5951 59.0455C99.5951 58.0455 99.7921 57.2348 100.186 56.6136C100.58 55.9848 101.106 55.4924 101.766 55.1364C102.425 54.7803 103.152 54.5152 103.947 54.3409C104.75 54.1591 105.557 54.0152 106.368 53.9091C107.428 53.7727 108.288 53.6705 108.947 53.6023C109.614 53.5265 110.099 53.4015 110.402 53.2273C110.713 53.053 110.868 52.75 110.868 52.3182V52.2273C110.868 51.1061 110.561 50.2348 109.947 49.6136C109.341 48.9924 108.421 48.6818 107.186 48.6818C105.906 48.6818 104.902 48.9621 104.175 49.5227C103.447 50.0833 102.936 50.6818 102.641 51.3182L100.095 50.4091C100.55 49.3485 101.156 48.5227 101.913 47.9318C102.678 47.3333 103.512 46.9167 104.413 46.6818C105.322 46.4394 106.216 46.3182 107.095 46.3182C107.656 46.3182 108.3 46.3864 109.027 46.5227C109.762 46.6515 110.47 46.9205 111.152 47.3295C111.841 47.7386 112.413 48.3561 112.868 49.1818C113.322 50.0076 113.55 51.1136 113.55 52.5V64H110.868V61.6364H110.731C110.55 62.0152 110.247 62.4205 109.822 62.8523C109.398 63.2841 108.834 63.6515 108.129 63.9545C107.425 64.2576 106.565 64.4091 105.55 64.4091ZM105.959 62C107.019 62 107.913 61.7917 108.641 61.375C109.375 60.9583 109.928 60.4205 110.3 59.7614C110.678 59.1023 110.868 58.4091 110.868 57.6818V55.2273C110.754 55.3636 110.504 55.4886 110.118 55.6023C109.739 55.7083 109.3 55.803 108.8 55.8864C108.307 55.9621 107.826 56.0303 107.356 56.0909C106.894 56.1439 106.519 56.1894 106.231 56.2273C105.535 56.3182 104.883 56.4659 104.277 56.6705C103.678 56.8674 103.194 57.1667 102.822 57.5682C102.459 57.9621 102.277 58.5 102.277 59.1818C102.277 60.1136 102.622 60.8182 103.311 61.2955C104.008 61.7652 104.891 62 105.959 62ZM117.485 64V46.5455H120.075V49.1818H120.257C120.575 48.3182 121.151 47.6174 121.985 47.0795C122.818 46.5417 123.757 46.2727 124.803 46.2727C125 46.2727 125.246 46.2765 125.541 46.2841C125.837 46.2917 126.06 46.303 126.212 46.3182V49.0455C126.121 49.0227 125.913 48.9886 125.587 48.9432C125.269 48.8902 124.932 48.8636 124.575 48.8636C123.727 48.8636 122.969 49.0417 122.303 49.3977C121.644 49.7462 121.121 50.2311 120.735 50.8523C120.356 51.4659 120.166 52.1667 120.166 52.9545V64H117.485ZM134.49 64.3636C133.036 64.3636 131.752 63.9962 130.638 63.2614C129.525 62.5189 128.653 61.4735 128.025 60.125C127.396 58.7689 127.081 57.1667 127.081 55.3182C127.081 53.4848 127.396 51.8939 128.025 50.5455C128.653 49.197 129.528 48.1553 130.65 47.4205C131.771 46.6856 133.066 46.3182 134.536 46.3182C135.672 46.3182 136.57 46.5076 137.229 46.8864C137.896 47.2576 138.403 47.6818 138.752 48.1591C139.108 48.6288 139.384 49.0152 139.581 49.3182H139.809V40.7273H142.49V64H139.9V61.3182H139.581C139.384 61.6364 139.104 62.0379 138.74 62.5227C138.377 63 137.858 63.428 137.184 63.8068C136.509 64.178 135.612 64.3636 134.49 64.3636ZM134.854 61.9545C135.93 61.9545 136.839 61.6742 137.581 61.1136C138.324 60.5455 138.888 59.7614 139.275 58.7614C139.661 57.7538 139.854 56.5909 139.854 55.2727C139.854 53.9697 139.665 52.8295 139.286 51.8523C138.907 50.8674 138.347 50.1023 137.604 49.5568C136.862 49.0038 135.945 48.7273 134.854 48.7273C133.718 48.7273 132.771 49.0189 132.013 49.6023C131.263 50.178 130.699 50.9621 130.32 51.9545C129.949 52.9394 129.763 54.0455 129.763 55.2727C129.763 56.5152 129.953 57.6439 130.331 58.6591C130.718 59.6667 131.286 60.4697 132.036 61.0682C132.793 61.6591 133.733 61.9545 134.854 61.9545Z" fill="white"/>
<path opacity="0.6" d="M0.704545 81.875V80.3636H9.71023V81.875H6.07955V92H4.32955V81.875H0.704545ZM12.7828 86.8182V92H11.0839V80.3636H12.7601V84.6932H12.868C13.0726 84.2235 13.3851 83.8504 13.8055 83.5739C14.226 83.2973 14.7752 83.1591 15.4532 83.1591C16.0517 83.1591 16.5745 83.2822 17.0214 83.5284C17.4722 83.7746 17.8207 84.142 18.0669 84.6307C18.3169 85.1155 18.4419 85.7216 18.4419 86.4489V92H16.743V86.6534C16.743 86.0133 16.5782 85.517 16.2487 85.1648C15.9191 84.8087 15.4608 84.6307 14.8737 84.6307C14.4722 84.6307 14.1123 84.7159 13.7941 84.8864C13.4798 85.0568 13.2316 85.3068 13.0498 85.6364C12.8718 85.9621 12.7828 86.3561 12.7828 86.8182ZM23.9903 92.1761C23.1304 92.1761 22.3899 91.9924 21.7687 91.625C21.1513 91.2538 20.674 90.733 20.3369 90.0625C20.0035 89.3883 19.8369 88.5985 19.8369 87.6932C19.8369 86.7992 20.0035 86.0114 20.3369 85.3295C20.674 84.6477 21.1437 84.1155 21.746 83.733C22.352 83.3504 23.0604 83.1591 23.871 83.1591C24.3634 83.1591 24.8407 83.2405 25.3028 83.4034C25.7649 83.5663 26.1797 83.822 26.5471 84.1705C26.9145 84.5189 27.2043 84.9716 27.4164 85.5284C27.6285 86.0814 27.7346 86.7538 27.7346 87.5455V88.1477H20.7971V86.875H26.0698C26.0698 86.428 25.9789 86.0322 25.7971 85.6875C25.6153 85.339 25.3596 85.0644 25.0301 84.8636C24.7043 84.6629 24.3217 84.5625 23.8823 84.5625C23.4051 84.5625 22.9884 84.6799 22.6323 84.9148C22.2801 85.1458 22.0073 85.4489 21.8141 85.8239C21.6248 86.1951 21.5301 86.5985 21.5301 87.0341V88.0284C21.5301 88.6117 21.6323 89.108 21.8369 89.517C22.0452 89.9261 22.335 90.2386 22.7062 90.4545C23.0774 90.6667 23.5111 90.7727 24.0073 90.7727C24.3293 90.7727 24.6229 90.7273 24.888 90.6364C25.1532 90.5417 25.3823 90.4015 25.5755 90.2159C25.7687 90.0303 25.9164 89.8011 26.0187 89.5284L27.6266 89.8182C27.4979 90.2917 27.2668 90.7064 26.9335 91.0625C26.6039 91.4148 26.1891 91.6894 25.6891 91.8864C25.1929 92.0795 24.6266 92.1761 23.9903 92.1761ZM33.0303 92V80.3636H34.7291V84.6875H34.8314C34.9299 84.5057 35.072 84.2955 35.2576 84.0568C35.4432 83.8182 35.7007 83.6098 36.0303 83.4318C36.3598 83.25 36.7954 83.1591 37.3371 83.1591C38.0416 83.1591 38.6704 83.3371 39.2235 83.6932C39.7765 84.0492 40.2102 84.5625 40.5246 85.233C40.8428 85.9034 41.0019 86.7102 41.0019 87.6534C41.0019 88.5966 40.8447 89.4053 40.5303 90.0795C40.2159 90.75 39.7841 91.267 39.2348 91.6307C38.6856 91.9905 38.0587 92.1705 37.3541 92.1705C36.8238 92.1705 36.3901 92.0814 36.053 91.9034C35.7197 91.7254 35.4583 91.517 35.2689 91.2784C35.0795 91.0398 34.9337 90.8277 34.8314 90.642H34.6894V92H33.0303ZM34.6951 87.6364C34.6951 88.25 34.7841 88.7879 34.9621 89.25C35.1401 89.7121 35.3977 90.0739 35.7348 90.3352C36.072 90.5928 36.4848 90.7216 36.9735 90.7216C37.481 90.7216 37.9053 90.5871 38.2462 90.3182C38.5871 90.0455 38.8447 89.6761 39.0189 89.2102C39.197 88.7443 39.286 88.2197 39.286 87.6364C39.286 87.0606 39.1988 86.5436 39.0246 86.0852C38.8541 85.6269 38.5966 85.2652 38.2519 85C37.911 84.7348 37.4848 84.6023 36.9735 84.6023C36.481 84.6023 36.0644 84.7292 35.7235 84.983C35.3863 85.2367 35.1307 85.5909 34.9564 86.0455C34.7822 86.5 34.6951 87.0303 34.6951 87.6364ZM46.1909 92.1761C45.3311 92.1761 44.5905 91.9924 43.9693 91.625C43.3519 91.2538 42.8746 90.733 42.5375 90.0625C42.2042 89.3883 42.0375 88.5985 42.0375 87.6932C42.0375 86.7992 42.2042 86.0114 42.5375 85.3295C42.8746 84.6477 43.3443 84.1155 43.9466 83.733C44.5527 83.3504 45.261 83.1591 46.0716 83.1591C46.564 83.1591 47.0413 83.2405 47.5034 83.4034C47.9655 83.5663 48.3803 83.822 48.7477 84.1705C49.1152 84.5189 49.4049 84.9716 49.617 85.5284C49.8292 86.0814 49.9352 86.7538 49.9352 87.5455V88.1477H42.9977V86.875H48.2705C48.2705 86.428 48.1795 86.0322 47.9977 85.6875C47.8159 85.339 47.5602 85.0644 47.2307 84.8636C46.9049 84.6629 46.5223 84.5625 46.083 84.5625C45.6057 84.5625 45.189 84.6799 44.833 84.9148C44.4807 85.1458 44.208 85.4489 44.0148 85.8239C43.8254 86.1951 43.7307 86.5985 43.7307 87.0341V88.0284C43.7307 88.6117 43.833 89.108 44.0375 89.517C44.2458 89.9261 44.5356 90.2386 44.9068 90.4545C45.278 90.6667 45.7117 90.7727 46.208 90.7727C46.5299 90.7727 46.8235 90.7273 47.0886 90.6364C47.3538 90.5417 47.583 90.4015 47.7761 90.2159C47.9693 90.0303 48.117 89.8011 48.2193 89.5284L49.8273 89.8182C49.6985 90.2917 49.4674 90.7064 49.1341 91.0625C48.8045 91.4148 48.3898 91.6894 47.8898 91.8864C47.3936 92.0795 46.8273 92.1761 46.1909 92.1761ZM57.8799 85.4034L56.3402 85.6761C56.2758 85.4792 56.1735 85.2917 56.0334 85.1136C55.897 84.9356 55.7114 84.7898 55.4765 84.6761C55.2417 84.5625 54.9481 84.5057 54.5959 84.5057C54.1148 84.5057 53.7133 84.6136 53.3913 84.8295C53.0693 85.0417 52.9084 85.3163 52.9084 85.6534C52.9084 85.9451 53.0163 86.1799 53.2322 86.358C53.4481 86.536 53.7966 86.6818 54.2777 86.7955L55.664 87.1136C56.4671 87.2992 57.0655 87.5852 57.4595 87.9716C57.8534 88.358 58.0504 88.8598 58.0504 89.4773C58.0504 90 57.8989 90.4659 57.5959 90.875C57.2966 91.2803 56.878 91.5985 56.3402 91.8295C55.8061 92.0606 55.1868 92.1761 54.4822 92.1761C53.5049 92.1761 52.7076 91.9678 52.0902 91.5511C51.4727 91.1307 51.094 90.5341 50.9538 89.7614L52.5959 89.5114C52.6981 89.9394 52.9084 90.2633 53.2265 90.483C53.5447 90.6989 53.9595 90.8068 54.4709 90.8068C55.0277 90.8068 55.4727 90.6913 55.8061 90.4602C56.1394 90.2254 56.3061 89.9394 56.3061 89.6023C56.3061 89.3295 56.2038 89.1004 55.9993 88.9148C55.7985 88.7292 55.4898 88.589 55.0731 88.4943L53.5959 88.1705C52.7815 87.9848 52.1792 87.6894 51.789 87.2841C51.4027 86.8788 51.2095 86.3655 51.2095 85.7443C51.2095 85.2292 51.3534 84.7784 51.6413 84.392C51.9292 84.0057 52.3269 83.7045 52.8345 83.4886C53.3421 83.2689 53.9235 83.1591 54.5788 83.1591C55.522 83.1591 56.2644 83.3636 56.8061 83.7727C57.3477 84.178 57.7057 84.7216 57.8799 85.4034ZM63.5122 83.2727V84.6364H58.7451V83.2727H63.5122ZM60.0235 81.1818H61.7224V89.4375C61.7224 89.767 61.7716 90.0152 61.8701 90.1818C61.9686 90.3447 62.0955 90.4564 62.2508 90.517C62.4099 90.5739 62.5822 90.6023 62.7678 90.6023C62.9042 90.6023 63.0235 90.5928 63.1258 90.5739C63.2281 90.5549 63.3076 90.5398 63.3644 90.5284L63.6712 91.9318C63.5728 91.9697 63.4326 92.0076 63.2508 92.0455C63.069 92.0871 62.8417 92.1098 62.569 92.1136C62.122 92.1212 61.7053 92.0417 61.319 91.875C60.9326 91.7083 60.6201 91.4508 60.3815 91.1023C60.1428 90.7538 60.0235 90.3163 60.0235 89.7898V81.1818ZM70.3647 86.8182V92H68.6658V80.3636H70.3419V84.6932H70.4499C70.6544 84.2235 70.9669 83.8504 71.3874 83.5739C71.8078 83.2973 72.3571 83.1591 73.0351 83.1591C73.6336 83.1591 74.1563 83.2822 74.6033 83.5284C75.0541 83.7746 75.4025 84.142 75.6488 84.6307C75.8988 85.1155 76.0238 85.7216 76.0238 86.4489V92H74.3249V86.6534C74.3249 86.0133 74.1601 85.517 73.8306 85.1648C73.501 84.8087 73.0427 84.6307 72.4556 84.6307C72.0541 84.6307 71.6942 84.7159 71.376 84.8864C71.0616 85.0568 70.8135 85.3068 70.6317 85.6364C70.4537 85.9621 70.3647 86.3561 70.3647 86.8182ZM81.4869 92.1761C80.6687 92.1761 79.9547 91.9886 79.3449 91.6136C78.735 91.2386 78.2616 90.714 77.9244 90.0398C77.5873 89.3655 77.4187 88.5777 77.4187 87.6761C77.4187 86.7708 77.5873 85.9792 77.9244 85.3011C78.2616 84.6231 78.735 84.0966 79.3449 83.7216C79.9547 83.3466 80.6687 83.1591 81.4869 83.1591C82.3051 83.1591 83.0191 83.3466 83.629 83.7216C84.2388 84.0966 84.7123 84.6231 85.0494 85.3011C85.3866 85.9792 85.5551 86.7708 85.5551 87.6761C85.5551 88.5777 85.3866 89.3655 85.0494 90.0398C84.7123 90.714 84.2388 91.2386 83.629 91.6136C83.0191 91.9886 82.3051 92.1761 81.4869 92.1761ZM81.4926 90.75C82.0229 90.75 82.4623 90.6098 82.8108 90.3295C83.1593 90.0492 83.4169 89.6761 83.5835 89.2102C83.754 88.7443 83.8392 88.2311 83.8392 87.6705C83.8392 87.1136 83.754 86.6023 83.5835 86.1364C83.4169 85.6667 83.1593 85.2898 82.8108 85.0057C82.4623 84.7216 82.0229 84.5795 81.4926 84.5795C80.9585 84.5795 80.5153 84.7216 80.1631 85.0057C79.8146 85.2898 79.5551 85.6667 79.3847 86.1364C79.218 86.6023 79.1347 87.1136 79.1347 87.6705C79.1347 88.2311 79.218 88.7443 79.3847 89.2102C79.5551 89.6761 79.8146 90.0492 80.1631 90.3295C80.5153 90.6098 80.9585 90.75 81.4926 90.75ZM91.0453 83.2727V84.6364H86.2782V83.2727H91.0453ZM87.5566 81.1818H89.2555V89.4375C89.2555 89.767 89.3048 90.0152 89.4032 90.1818C89.5017 90.3447 89.6286 90.4564 89.7839 90.517C89.943 90.5739 90.1154 90.6023 90.301 90.6023C90.4373 90.6023 90.5566 90.5928 90.6589 90.5739C90.7612 90.5549 90.8407 90.5398 90.8976 90.5284L91.2044 91.9318C91.1059 91.9697 90.9657 92.0076 90.7839 92.0455C90.6021 92.0871 90.3748 92.1098 90.1021 92.1136C89.6551 92.1212 89.2385 92.0417 88.8521 91.875C88.4657 91.7083 88.1532 91.4508 87.9146 91.1023C87.676 90.7538 87.5566 90.3163 87.5566 89.7898V81.1818ZM96.1122 92.1761C95.2523 92.1761 94.5118 91.9924 93.8906 91.625C93.2731 91.2538 92.7959 90.733 92.4587 90.0625C92.1254 89.3883 91.9587 88.5985 91.9587 87.6932C91.9587 86.7992 92.1254 86.0114 92.4587 85.3295C92.7959 84.6477 93.2656 84.1155 93.8678 83.733C94.4739 83.3504 95.1822 83.1591 95.9928 83.1591C96.4853 83.1591 96.9625 83.2405 97.4247 83.4034C97.8868 83.5663 98.3016 83.822 98.669 84.1705C99.0364 84.5189 99.3262 84.9716 99.5383 85.5284C99.7504 86.0814 99.8565 86.7538 99.8565 87.5455V88.1477H92.919V86.875H98.1917C98.1917 86.428 98.1008 86.0322 97.919 85.6875C97.7372 85.339 97.4815 85.0644 97.1519 84.8636C96.8262 84.6629 96.4436 84.5625 96.0042 84.5625C95.5269 84.5625 95.1103 84.6799 94.7542 84.9148C94.4019 85.1458 94.1292 85.4489 93.936 85.8239C93.7466 86.1951 93.6519 86.5985 93.6519 87.0341V88.0284C93.6519 88.6117 93.7542 89.108 93.9587 89.517C94.1671 89.9261 94.4569 90.2386 94.8281 90.4545C95.1993 90.6667 95.633 90.7727 96.1292 90.7727C96.4512 90.7727 96.7447 90.7273 97.0099 90.6364C97.275 90.5417 97.5042 90.4015 97.6974 90.2159C97.8906 90.0303 98.0383 89.8011 98.1406 89.5284L99.7485 89.8182C99.6197 90.2917 99.3887 90.7064 99.0553 91.0625C98.7258 91.4148 98.311 91.6894 97.811 91.8864C97.3148 92.0795 96.7485 92.1761 96.1122 92.1761ZM102.96 80.3636V92H101.261V80.3636H102.96ZM111.787 92.1705C111.083 92.1705 110.454 91.9905 109.901 91.6307C109.352 91.267 108.92 90.75 108.605 90.0795C108.295 89.4053 108.139 88.5966 108.139 87.6534C108.139 86.7102 108.297 85.9034 108.611 85.233C108.929 84.5625 109.365 84.0492 109.918 83.6932C110.471 83.3371 111.098 83.1591 111.799 83.1591C112.34 83.1591 112.776 83.25 113.105 83.4318C113.439 83.6098 113.696 83.8182 113.878 84.0568C114.064 84.2955 114.208 84.5057 114.31 84.6875H114.412V80.3636H116.111V92H114.452V90.642H114.31C114.208 90.8277 114.06 91.0398 113.867 91.2784C113.677 91.517 113.416 91.7254 113.083 91.9034C112.749 92.0814 112.318 92.1705 111.787 92.1705ZM112.162 90.7216C112.651 90.7216 113.064 90.5928 113.401 90.3352C113.742 90.0739 113.999 89.7121 114.174 89.25C114.352 88.7879 114.441 88.25 114.441 87.6364C114.441 87.0303 114.354 86.5 114.179 86.0455C114.005 85.5909 113.749 85.2367 113.412 84.983C113.075 84.7292 112.658 84.6023 112.162 84.6023C111.651 84.6023 111.225 84.7348 110.884 85C110.543 85.2652 110.285 85.6269 110.111 86.0852C109.941 86.5436 109.855 87.0606 109.855 87.6364C109.855 88.2197 109.943 88.7443 110.117 89.2102C110.291 89.6761 110.549 90.0455 110.889 90.3182C111.234 90.5871 111.658 90.7216 112.162 90.7216ZM121.817 92.1761C120.957 92.1761 120.217 91.9924 119.596 91.625C118.978 91.2538 118.501 90.733 118.164 90.0625C117.83 89.3883 117.664 88.5985 117.664 87.6932C117.664 86.7992 117.83 86.0114 118.164 85.3295C118.501 84.6477 118.971 84.1155 119.573 83.733C120.179 83.3504 120.887 83.1591 121.698 83.1591C122.19 83.1591 122.668 83.2405 123.13 83.4034C123.592 83.5663 124.007 83.822 124.374 84.1705C124.741 84.5189 125.031 84.9716 125.243 85.5284C125.455 86.0814 125.561 86.7538 125.561 87.5455V88.1477H118.624V86.875H123.897C123.897 86.428 123.806 86.0322 123.624 85.6875C123.442 85.339 123.186 85.0644 122.857 84.8636C122.531 84.6629 122.149 84.5625 121.709 84.5625C121.232 84.5625 120.815 84.6799 120.459 84.9148C120.107 85.1458 119.834 85.4489 119.641 85.8239C119.452 86.1951 119.357 86.5985 119.357 87.0341V88.0284C119.357 88.6117 119.459 89.108 119.664 89.517C119.872 89.9261 120.162 90.2386 120.533 90.4545C120.904 90.6667 121.338 90.7727 121.834 90.7727C122.156 90.7727 122.45 90.7273 122.715 90.6364C122.98 90.5417 123.209 90.4015 123.402 90.2159C123.596 90.0303 123.743 89.8011 123.846 89.5284L125.454 89.8182C125.325 90.2917 125.094 90.7064 124.76 91.0625C124.431 91.4148 124.016 91.6894 123.516 91.8864C123.02 92.0795 122.454 92.1761 121.817 92.1761ZM129.506 92.1932C128.953 92.1932 128.453 92.0909 128.006 91.8864C127.559 91.678 127.205 91.3769 126.944 90.983C126.686 90.589 126.557 90.1061 126.557 89.5341C126.557 89.0417 126.652 88.6364 126.841 88.3182C127.031 88 127.287 87.7481 127.608 87.5625C127.93 87.3769 128.29 87.2367 128.688 87.142C129.086 87.0473 129.491 86.9754 129.904 86.9261C130.427 86.8655 130.851 86.8163 131.177 86.7784C131.502 86.7367 131.739 86.6705 131.887 86.5795C132.035 86.4886 132.108 86.3409 132.108 86.1364V86.0966C132.108 85.6004 131.968 85.2159 131.688 84.9432C131.412 84.6705 130.999 84.5341 130.449 84.5341C129.877 84.5341 129.427 84.661 129.097 84.9148C128.771 85.1648 128.546 85.4432 128.421 85.75L126.824 85.3864C127.014 84.8561 127.29 84.428 127.654 84.1023C128.021 83.7727 128.444 83.5341 128.921 83.3864C129.398 83.2348 129.9 83.1591 130.427 83.1591C130.775 83.1591 131.144 83.2008 131.535 83.2841C131.929 83.3636 132.296 83.5114 132.637 83.7273C132.982 83.9432 133.264 84.2519 133.483 84.6534C133.703 85.0511 133.813 85.5682 133.813 86.2045V92H132.154V90.8068H132.086C131.976 91.0265 131.811 91.2424 131.591 91.4545C131.372 91.6667 131.09 91.8428 130.745 91.983C130.4 92.1231 129.987 92.1932 129.506 92.1932ZM129.876 90.8295C130.345 90.8295 130.747 90.7367 131.08 90.5511C131.417 90.3655 131.673 90.1231 131.847 89.8239C132.025 89.5208 132.114 89.197 132.114 88.8523V87.7273C132.054 87.7879 131.936 87.8447 131.762 87.8977C131.591 87.947 131.396 87.9905 131.177 88.0284C130.957 88.0625 130.743 88.0947 130.535 88.125C130.326 88.1515 130.152 88.1742 130.012 88.1932C129.682 88.2348 129.381 88.3049 129.108 88.4034C128.84 88.5019 128.624 88.6439 128.461 88.8295C128.302 89.0114 128.222 89.2538 128.222 89.5568C128.222 89.9773 128.377 90.2955 128.688 90.5114C128.999 90.7235 129.394 90.8295 129.876 90.8295ZM137.295 80.3636V92H135.596V80.3636H137.295ZM145.64 85.4034L144.1 85.6761C144.036 85.4792 143.934 85.2917 143.793 85.1136C143.657 84.9356 143.471 84.7898 143.237 84.6761C143.002 84.5625 142.708 84.5057 142.356 84.5057C141.875 84.5057 141.473 84.6136 141.151 84.8295C140.829 85.0417 140.668 85.3163 140.668 85.6534C140.668 85.9451 140.776 86.1799 140.992 86.358C141.208 86.536 141.557 86.6818 142.038 86.7955L143.424 87.1136C144.227 87.2992 144.826 87.5852 145.219 87.9716C145.613 88.358 145.81 88.8598 145.81 89.4773C145.81 90 145.659 90.4659 145.356 90.875C145.057 91.2803 144.638 91.5985 144.1 91.8295C143.566 92.0606 142.947 92.1761 142.242 92.1761C141.265 92.1761 140.468 91.9678 139.85 91.5511C139.233 91.1307 138.854 90.5341 138.714 89.7614L140.356 89.5114C140.458 89.9394 140.668 90.2633 140.987 90.483C141.305 90.6989 141.719 90.8068 142.231 90.8068C142.788 90.8068 143.233 90.6913 143.566 90.4602C143.899 90.2254 144.066 89.9394 144.066 89.6023C144.066 89.3295 143.964 89.1004 143.759 88.9148C143.559 88.7292 143.25 88.589 142.833 88.4943L141.356 88.1705C140.541 87.9848 139.939 87.6894 139.549 87.2841C139.163 86.8788 138.969 86.3655 138.969 85.7443C138.969 85.2292 139.113 84.7784 139.401 84.392C139.689 84.0057 140.087 83.7045 140.594 83.4886C141.102 83.2689 141.684 83.1591 142.339 83.1591C143.282 83.1591 144.024 83.3636 144.566 83.7727C145.108 84.178 145.466 84.7216 145.64 85.4034ZM150.953 92V83.2727H152.652V92H150.953ZM151.811 81.9261C151.515 81.9261 151.261 81.8277 151.049 81.6307C150.841 81.4299 150.737 81.1913 150.737 80.9148C150.737 80.6345 150.841 80.3958 151.049 80.1989C151.261 79.9981 151.515 79.8977 151.811 79.8977C152.106 79.8977 152.358 79.9981 152.566 80.1989C152.778 80.3958 152.884 80.6345 152.884 80.9148C152.884 81.1913 152.778 81.4299 152.566 81.6307C152.358 81.8277 152.106 81.9261 151.811 81.9261ZM156.156 86.8182V92H154.457V83.2727H156.088V84.6932H156.196C156.396 84.2311 156.711 83.8598 157.139 83.5795C157.571 83.2992 158.114 83.1591 158.77 83.1591C159.364 83.1591 159.885 83.2841 160.332 83.5341C160.779 83.7803 161.126 84.1477 161.372 84.6364C161.618 85.125 161.741 85.7292 161.741 86.4489V92H160.042V86.6534C160.042 86.0208 159.878 85.5265 159.548 85.1705C159.218 84.8106 158.766 84.6307 158.19 84.6307C157.796 84.6307 157.446 84.7159 157.139 84.8864C156.836 85.0568 156.595 85.3068 156.417 85.6364C156.243 85.9621 156.156 86.3561 156.156 86.8182ZM173.777 83.4205C173.716 82.8826 173.466 82.4659 173.027 82.1705C172.587 81.8712 172.034 81.7216 171.368 81.7216C170.891 81.7216 170.478 81.7973 170.129 81.9489C169.781 82.0966 169.51 82.3011 169.317 82.5625C169.127 82.8201 169.033 83.1136 169.033 83.4432C169.033 83.7197 169.097 83.9583 169.226 84.1591C169.358 84.3598 169.531 84.5284 169.743 84.6648C169.959 84.7973 170.19 84.9091 170.436 85C170.682 85.0871 170.919 85.1591 171.146 85.2159L172.283 85.5114C172.654 85.6023 173.034 85.7254 173.425 85.8807C173.815 86.036 174.176 86.2405 174.51 86.4943C174.843 86.7481 175.112 87.0625 175.317 87.4375C175.525 87.8125 175.629 88.2614 175.629 88.7841C175.629 89.4432 175.459 90.0284 175.118 90.5398C174.781 91.0511 174.29 91.4545 173.646 91.75C173.006 92.0455 172.231 92.1932 171.322 92.1932C170.451 92.1932 169.697 92.0549 169.061 91.7784C168.425 91.5019 167.926 91.1098 167.567 90.6023C167.207 90.0909 167.008 89.4848 166.97 88.7841H168.731C168.766 89.2045 168.902 89.5549 169.141 89.8352C169.383 90.1117 169.692 90.3182 170.067 90.4545C170.445 90.5871 170.86 90.6534 171.311 90.6534C171.807 90.6534 172.248 90.5758 172.635 90.4205C173.025 90.2614 173.332 90.0417 173.555 89.7614C173.779 89.4773 173.891 89.1458 173.891 88.767C173.891 88.4223 173.792 88.1402 173.595 87.9205C173.402 87.7008 173.139 87.5189 172.805 87.375C172.476 87.2311 172.103 87.1042 171.686 86.9943L170.311 86.6193C169.379 86.3655 168.641 85.9924 168.095 85.5C167.553 85.0076 167.283 84.3561 167.283 83.5455C167.283 82.875 167.464 82.2898 167.828 81.7898C168.192 81.2898 168.684 80.9015 169.305 80.625C169.926 80.3447 170.627 80.2045 171.408 80.2045C172.195 80.2045 172.891 80.3428 173.493 80.6193C174.099 80.8958 174.576 81.2765 174.925 81.7614C175.273 82.2424 175.455 82.7955 175.47 83.4205H173.777ZM179.003 92L176.435 83.2727H178.19L179.901 89.6818H179.986L181.702 83.2727H183.457L185.162 89.6534H185.247L186.946 83.2727H188.702L186.139 92H184.406L182.634 85.6989H182.503L180.73 92H179.003ZM189.834 92V83.2727H191.533V92H189.834ZM190.692 81.9261C190.396 81.9261 190.143 81.8277 189.931 81.6307C189.722 81.4299 189.618 81.1913 189.618 80.9148C189.618 80.6345 189.722 80.3958 189.931 80.1989C190.143 79.9981 190.396 79.8977 190.692 79.8977C190.987 79.8977 191.239 79.9981 191.448 80.1989C191.66 80.3958 191.766 80.6345 191.766 80.9148C191.766 81.1913 191.66 81.4299 191.448 81.6307C191.239 81.8277 190.987 81.9261 190.692 81.9261ZM197.412 83.2727V84.6364H192.645V83.2727H197.412ZM193.924 81.1818H195.622V89.4375C195.622 89.767 195.672 90.0152 195.77 90.1818C195.869 90.3447 195.995 90.4564 196.151 90.517C196.31 90.5739 196.482 90.6023 196.668 90.6023C196.804 90.6023 196.924 90.5928 197.026 90.5739C197.128 90.5549 197.208 90.5398 197.264 90.5284L197.571 91.9318C197.473 91.9697 197.333 92.0076 197.151 92.0455C196.969 92.0871 196.742 92.1098 196.469 92.1136C196.022 92.1212 195.605 92.0417 195.219 91.875C194.833 91.7083 194.52 91.4508 194.281 91.1023C194.043 90.7538 193.924 90.3163 193.924 89.7898V81.1818ZM198.63 92V90.8352L203.357 84.8295V84.75H198.783V83.2727H205.476V84.5114L200.931 90.4432V90.5227H205.635V92H198.63ZM210.671 92.1761C209.811 92.1761 209.071 91.9924 208.449 91.625C207.832 91.2538 207.355 90.733 207.018 90.0625C206.684 89.3883 206.518 88.5985 206.518 87.6932C206.518 86.7992 206.684 86.0114 207.018 85.3295C207.355 84.6477 207.824 84.1155 208.427 83.733C209.033 83.3504 209.741 83.1591 210.552 83.1591C211.044 83.1591 211.521 83.2405 211.983 83.4034C212.446 83.5663 212.86 83.822 213.228 84.1705C213.595 84.5189 213.885 84.9716 214.097 85.5284C214.309 86.0814 214.415 86.7538 214.415 87.5455V88.1477H207.478V86.875H212.75C212.75 86.428 212.66 86.0322 212.478 85.6875C212.296 85.339 212.04 85.0644 211.711 84.8636C211.385 84.6629 211.002 84.5625 210.563 84.5625C210.086 84.5625 209.669 84.6799 209.313 84.9148C208.961 85.1458 208.688 85.4489 208.495 85.8239C208.305 86.1951 208.211 86.5985 208.211 87.0341V88.0284C208.211 88.6117 208.313 89.108 208.518 89.517C208.726 89.9261 209.016 90.2386 209.387 90.4545C209.758 90.6667 210.192 90.7727 210.688 90.7727C211.01 90.7727 211.303 90.7273 211.569 90.6364C211.834 90.5417 212.063 90.4015 212.256 90.2159C212.449 90.0303 212.597 89.8011 212.699 89.5284L214.307 89.8182C214.178 90.2917 213.947 90.7064 213.614 91.0625C213.285 91.4148 212.87 91.6894 212.37 91.8864C211.874 92.0795 211.307 92.1761 210.671 92.1761ZM215.82 92V83.2727H217.462V84.6591H217.553C217.712 84.1894 217.993 83.8201 218.394 83.5511C218.799 83.2784 219.258 83.142 219.769 83.142C219.875 83.142 220 83.1458 220.144 83.1534C220.292 83.161 220.407 83.1705 220.491 83.1818V84.8068C220.422 84.7879 220.301 84.767 220.127 84.7443C219.953 84.7178 219.779 84.7045 219.604 84.7045C219.203 84.7045 218.845 84.7898 218.53 84.9602C218.22 85.1269 217.974 85.3598 217.792 85.6591C217.61 85.9545 217.519 86.2917 217.519 86.6705V92H215.82ZM223.18 80.3636V92H221.481V80.3636H223.18ZM227.525 92.1932C226.972 92.1932 226.472 92.0909 226.025 91.8864C225.578 91.678 225.224 91.3769 224.962 90.983C224.705 90.589 224.576 90.1061 224.576 89.5341C224.576 89.0417 224.671 88.6364 224.86 88.3182C225.05 88 225.305 87.7481 225.627 87.5625C225.949 87.3769 226.309 87.2367 226.707 87.142C227.104 87.0473 227.51 86.9754 227.923 86.9261C228.445 86.8655 228.87 86.8163 229.195 86.7784C229.521 86.7367 229.758 86.6705 229.906 86.5795C230.053 86.4886 230.127 86.3409 230.127 86.1364V86.0966C230.127 85.6004 229.987 85.2159 229.707 84.9432C229.43 84.6705 229.017 84.5341 228.468 84.5341C227.896 84.5341 227.445 84.661 227.116 84.9148C226.79 85.1648 226.565 85.4432 226.44 85.75L224.843 85.3864C225.033 84.8561 225.309 84.428 225.673 84.1023C226.04 83.7727 226.462 83.5341 226.94 83.3864C227.417 83.2348 227.919 83.1591 228.445 83.1591C228.794 83.1591 229.163 83.2008 229.553 83.2841C229.947 83.3636 230.315 83.5114 230.656 83.7273C231 83.9432 231.283 84.2519 231.502 84.6534C231.722 85.0511 231.832 85.5682 231.832 86.2045V92H230.173V90.8068H230.104C229.995 91.0265 229.83 91.2424 229.61 91.4545C229.39 91.6667 229.108 91.8428 228.764 91.983C228.419 92.1231 228.006 92.1932 227.525 92.1932ZM227.894 90.8295C228.364 90.8295 228.765 90.7367 229.099 90.5511C229.436 90.3655 229.692 90.1231 229.866 89.8239C230.044 89.5208 230.133 89.197 230.133 88.8523V87.7273C230.072 87.7879 229.955 87.8447 229.781 87.8977C229.61 87.947 229.415 87.9905 229.195 88.0284C228.976 88.0625 228.762 88.0947 228.553 88.125C228.345 88.1515 228.171 88.1742 228.031 88.1932C227.701 88.2348 227.4 88.3049 227.127 88.4034C226.858 88.5019 226.642 88.6439 226.479 88.8295C226.32 89.0114 226.241 89.2538 226.241 89.5568C226.241 89.9773 226.396 90.2955 226.707 90.5114C227.017 90.7235 227.413 90.8295 227.894 90.8295ZM235.313 86.8182V92H233.615V83.2727H235.245V84.6932H235.353C235.554 84.2311 235.868 83.8598 236.296 83.5795C236.728 83.2992 237.272 83.1591 237.927 83.1591C238.522 83.1591 239.043 83.2841 239.49 83.5341C239.937 83.7803 240.283 84.1477 240.529 84.6364C240.776 85.125 240.899 85.7292 240.899 86.4489V92H239.2V86.6534C239.2 86.0208 239.035 85.5265 238.705 85.1705C238.376 84.8106 237.923 84.6307 237.348 84.6307C236.954 84.6307 236.603 84.7159 236.296 84.8864C235.993 85.0568 235.753 85.3068 235.575 85.6364C235.401 85.9621 235.313 86.3561 235.313 86.8182ZM245.964 92.1705C245.26 92.1705 244.631 91.9905 244.078 91.6307C243.528 91.267 243.097 90.75 242.782 90.0795C242.472 89.4053 242.316 88.5966 242.316 87.6534C242.316 86.7102 242.474 85.9034 242.788 85.233C243.106 84.5625 243.542 84.0492 244.095 83.6932C244.648 83.3371 245.275 83.1591 245.975 83.1591C246.517 83.1591 246.953 83.25 247.282 83.4318C247.616 83.6098 247.873 83.8182 248.055 84.0568C248.241 84.2955 248.385 84.5057 248.487 84.6875H248.589V80.3636H250.288V92H248.629V90.642H248.487C248.385 90.8277 248.237 91.0398 248.044 91.2784C247.854 91.517 247.593 91.7254 247.26 91.9034C246.926 92.0814 246.494 92.1705 245.964 92.1705ZM246.339 90.7216C246.828 90.7216 247.241 90.5928 247.578 90.3352C247.919 90.0739 248.176 89.7121 248.35 89.25C248.528 88.7879 248.618 88.25 248.618 87.6364C248.618 87.0303 248.53 86.5 248.356 86.0455C248.182 85.5909 247.926 85.2367 247.589 84.983C247.252 84.7292 246.835 84.6023 246.339 84.6023C245.828 84.6023 245.402 84.7348 245.061 85C244.72 85.2652 244.462 85.6269 244.288 86.0852C244.118 86.5436 244.032 87.0606 244.032 87.6364C244.032 88.2197 244.119 88.7443 244.294 89.2102C244.468 89.6761 244.725 90.0455 245.066 90.3182C245.411 90.5871 245.835 90.7216 246.339 90.7216Z" fill="white"/>
</svg>
