<svg width="183" height="56" viewBox="0 0 183 56" fill="none" xmlns="http://www.w3.org/2000/svg">
<path opacity="0.6" d="M1.40909 12V0.363636H5.34091C6.25 0.363636 6.99621 0.518939 7.57955 0.829545C8.16288 1.13636 8.5947 1.55871 8.875 2.09659C9.1553 2.63447 9.29545 3.24621 9.29545 3.93182C9.29545 4.61742 9.1553 5.22538 8.875 5.75568C8.5947 6.28598 8.16477 6.70265 7.58523 7.00568C7.00568 7.30492 6.26515 7.45455 5.36364 7.45455H2.18182V6.18182H5.31818C5.93939 6.18182 6.43939 6.09091 6.81818 5.90909C7.20076 5.72727 7.47727 5.4697 7.64773 5.13636C7.82197 4.79924 7.90909 4.39773 7.90909 3.93182C7.90909 3.46591 7.82197 3.05871 7.64773 2.71023C7.47349 2.36174 7.19508 2.0928 6.8125 1.90341C6.42992 1.71023 5.92424 1.61364 5.29545 1.61364H2.81818V12H1.40909ZM6.88636 6.77273L9.75 12H8.11364L5.29545 6.77273H6.88636ZM15.027 12.1818C14.1861 12.1818 13.4607 11.9962 12.8509 11.625C12.2448 11.25 11.777 10.7273 11.4474 10.0568C11.1217 9.38258 10.9588 8.59848 10.9588 7.70455C10.9588 6.81061 11.1217 6.02273 11.4474 5.34091C11.777 4.6553 12.2353 4.12121 12.8224 3.73864C13.4134 3.35227 14.1027 3.15909 14.8906 3.15909C15.3452 3.15909 15.794 3.23485 16.2372 3.38636C16.6804 3.53788 17.0838 3.78409 17.4474 4.125C17.8111 4.46212 18.1009 4.90909 18.3168 5.46591C18.5327 6.02273 18.6406 6.70833 18.6406 7.52273V8.09091H11.9134V6.93182H17.277C17.277 6.43939 17.1785 6 16.9815 5.61364C16.7884 5.22727 16.5118 4.92235 16.152 4.69886C15.7959 4.47538 15.3755 4.36364 14.8906 4.36364C14.3565 4.36364 13.8944 4.49621 13.5043 4.76136C13.1179 5.02273 12.8205 5.36364 12.6122 5.78409C12.4039 6.20455 12.2997 6.6553 12.2997 7.13636V7.90909C12.2997 8.56818 12.4134 9.12689 12.6406 9.58523C12.8717 10.0398 13.1918 10.3864 13.6009 10.625C14.0099 10.8598 14.4853 10.9773 15.027 10.9773C15.3793 10.9773 15.6974 10.928 15.9815 10.8295C16.2694 10.7273 16.5175 10.5758 16.7259 10.375C16.9342 10.1705 17.0952 9.91667 17.2088 9.61364L18.5043 9.97727C18.3679 10.4167 18.1387 10.803 17.8168 11.1364C17.4948 11.4659 17.0971 11.7235 16.6236 11.9091C16.1501 12.0909 15.6179 12.1818 15.027 12.1818ZM23.2486 12.2045C22.6955 12.2045 22.1937 12.1004 21.7429 11.892C21.2921 11.6799 20.9342 11.375 20.669 10.9773C20.4039 10.5758 20.2713 10.0909 20.2713 9.52273C20.2713 9.02273 20.3698 8.61742 20.5668 8.30682C20.7637 7.99242 21.027 7.74621 21.3565 7.56818C21.6861 7.39015 22.0497 7.25758 22.4474 7.17045C22.849 7.07955 23.2524 7.00758 23.6577 6.95455C24.188 6.88636 24.6179 6.83523 24.9474 6.80114C25.2808 6.76326 25.5232 6.70076 25.6747 6.61364C25.83 6.52652 25.9077 6.375 25.9077 6.15909V6.11364C25.9077 5.55303 25.7543 5.11742 25.4474 4.80682C25.1444 4.49621 24.6842 4.34091 24.0668 4.34091C23.4266 4.34091 22.9247 4.48106 22.5611 4.76136C22.1974 5.04167 21.9418 5.34091 21.794 5.65909L20.5213 5.20455C20.7486 4.67424 21.0516 4.26136 21.4304 3.96591C21.813 3.66667 22.2296 3.45833 22.6804 3.34091C23.1349 3.2197 23.5819 3.15909 24.0213 3.15909C24.3016 3.15909 24.6236 3.19318 24.9872 3.26136C25.3546 3.32576 25.7088 3.46023 26.0497 3.66477C26.3944 3.86932 26.6804 4.17803 26.9077 4.59091C27.1349 5.00379 27.2486 5.55682 27.2486 6.25V12H25.9077V10.8182H25.8395C25.7486 11.0076 25.5971 11.2102 25.3849 11.4261C25.1728 11.642 24.8906 11.8258 24.5384 11.9773C24.1861 12.1288 23.7562 12.2045 23.2486 12.2045ZM23.4531 11C23.9834 11 24.4304 10.8958 24.794 10.6875C25.1615 10.4792 25.438 10.2102 25.6236 9.88068C25.813 9.55114 25.9077 9.20455 25.9077 8.84091V7.61364C25.8509 7.68182 25.7259 7.74432 25.5327 7.80114C25.3433 7.85417 25.1236 7.90151 24.8736 7.94318C24.6274 7.98106 24.3868 8.01515 24.152 8.04545C23.9209 8.07197 23.7334 8.0947 23.5895 8.11364C23.241 8.15909 22.9152 8.23295 22.6122 8.33523C22.313 8.43371 22.0705 8.58333 21.8849 8.78409C21.7031 8.98106 21.6122 9.25 21.6122 9.59091C21.6122 10.0568 21.7846 10.4091 22.1293 10.6477C22.4777 10.8826 22.919 11 23.4531 11ZM31.0369 0.363636V12H29.696V0.363636H31.0369ZM33.6747 12V0.363636H40.652V1.61364H35.0838V5.54545H40.1293V6.79545H35.0838V12H33.6747ZM45.4517 12.2045C44.8987 12.2045 44.3968 12.1004 43.946 11.892C43.4953 11.6799 43.1373 11.375 42.8722 10.9773C42.607 10.5758 42.4744 10.0909 42.4744 9.52273C42.4744 9.02273 42.5729 8.61742 42.7699 8.30682C42.9669 7.99242 43.2301 7.74621 43.5597 7.56818C43.8892 7.39015 44.2528 7.25758 44.6506 7.17045C45.0521 7.07955 45.4555 7.00758 45.8608 6.95455C46.3911 6.88636 46.821 6.83523 47.1506 6.80114C47.4839 6.76326 47.7263 6.70076 47.8778 6.61364C48.0331 6.52652 48.1108 6.375 48.1108 6.15909V6.11364C48.1108 5.55303 47.9574 5.11742 47.6506 4.80682C47.3475 4.49621 46.8873 4.34091 46.2699 4.34091C45.6297 4.34091 45.1278 4.48106 44.7642 4.76136C44.4006 5.04167 44.1449 5.34091 43.9972 5.65909L42.7244 5.20455C42.9517 4.67424 43.2547 4.26136 43.6335 3.96591C44.0161 3.66667 44.4328 3.45833 44.8835 3.34091C45.3381 3.2197 45.785 3.15909 46.2244 3.15909C46.5047 3.15909 46.8267 3.19318 47.1903 3.26136C47.5578 3.32576 47.9119 3.46023 48.2528 3.66477C48.5975 3.86932 48.8835 4.17803 49.1108 4.59091C49.3381 5.00379 49.4517 5.55682 49.4517 6.25V12H48.1108V10.8182H48.0426C47.9517 11.0076 47.8002 11.2102 47.5881 11.4261C47.3759 11.642 47.0938 11.8258 46.7415 11.9773C46.3892 12.1288 45.9593 12.2045 45.4517 12.2045ZM45.6562 11C46.1866 11 46.6335 10.8958 46.9972 10.6875C47.3646 10.4792 47.6411 10.2102 47.8267 9.88068C48.0161 9.55114 48.1108 9.20455 48.1108 8.84091V7.61364C48.054 7.68182 47.929 7.74432 47.7358 7.80114C47.5464 7.85417 47.3267 7.90151 47.0767 7.94318C46.8305 7.98106 46.59 8.01515 46.3551 8.04545C46.1241 8.07197 45.9366 8.0947 45.7926 8.11364C45.4441 8.15909 45.1184 8.23295 44.8153 8.33523C44.5161 8.43371 44.2737 8.58333 44.0881 8.78409C43.9063 8.98106 43.8153 9.25 43.8153 9.59091C43.8153 10.0568 43.9877 10.4091 44.3324 10.6477C44.6809 10.8826 45.1222 11 45.6562 11ZM58.081 5.22727L56.8764 5.56818C56.8007 5.36742 56.6889 5.17235 56.5412 4.98295C56.3973 4.78977 56.2003 4.63068 55.9503 4.50568C55.7003 4.38068 55.3802 4.31818 54.9901 4.31818C54.456 4.31818 54.0109 4.44129 53.6548 4.6875C53.3026 4.92992 53.1264 5.23864 53.1264 5.61364C53.1264 5.94697 53.2476 6.21023 53.4901 6.40341C53.7325 6.59659 54.1113 6.75758 54.6264 6.88636L55.9219 7.20455C56.7022 7.39394 57.2836 7.68371 57.6662 8.07386C58.0488 8.46023 58.2401 8.95833 58.2401 9.56818C58.2401 10.0682 58.0961 10.5152 57.8082 10.9091C57.5241 11.303 57.1264 11.6136 56.6151 11.8409C56.1037 12.0682 55.509 12.1818 54.831 12.1818C53.9408 12.1818 53.2041 11.9886 52.6207 11.6023C52.0374 11.2159 51.6681 10.6515 51.5128 9.90909L52.7855 9.59091C52.9067 10.0606 53.1359 10.4129 53.473 10.6477C53.8139 10.8826 54.259 11 54.8082 11C55.4332 11 55.9295 10.8674 56.2969 10.6023C56.6681 10.3333 56.8537 10.0114 56.8537 9.63636C56.8537 9.33333 56.7476 9.07955 56.5355 8.875C56.3234 8.66667 55.9976 8.51136 55.5582 8.40909L54.1037 8.06818C53.3045 7.87879 52.7173 7.58523 52.3423 7.1875C51.9711 6.78598 51.7855 6.28409 51.7855 5.68182C51.7855 5.18939 51.9238 4.75379 52.2003 4.375C52.4806 3.99621 52.8613 3.69886 53.3423 3.48295C53.8272 3.26705 54.3764 3.15909 54.9901 3.15909C55.8537 3.15909 56.5317 3.34848 57.0241 3.72727C57.5204 4.10606 57.8726 4.60606 58.081 5.22727ZM64.054 3.27273V4.40909H59.5312V3.27273H64.054ZM60.8494 1.18182H62.1903V9.5C62.1903 9.87879 62.2453 10.1629 62.3551 10.3523C62.4688 10.5379 62.6127 10.6629 62.7869 10.7273C62.965 10.7879 63.1525 10.8182 63.3494 10.8182C63.4972 10.8182 63.6184 10.8106 63.7131 10.7955C63.8078 10.7765 63.8835 10.7614 63.9403 10.75L64.2131 11.9545C64.1222 11.9886 63.9953 12.0227 63.8324 12.0568C63.6695 12.0947 63.4631 12.1136 63.2131 12.1136C62.8343 12.1136 62.4631 12.0322 62.0994 11.8693C61.7396 11.7064 61.4403 11.4583 61.2017 11.125C60.9669 10.7917 60.8494 10.3712 60.8494 9.86364V1.18182ZM77.3438 6.38636V7.63636H69.3438V6.38636H77.3438ZM82.5256 9.77273H83.9574C83.9877 10.1667 84.1657 10.4659 84.4915 10.6705C84.821 10.875 85.2491 10.9773 85.7756 10.9773C86.3134 10.9773 86.7737 10.8674 87.1562 10.6477C87.5388 10.4242 87.7301 10.0644 87.7301 9.56818C87.7301 9.27652 87.6581 9.02273 87.5142 8.80682C87.3703 8.58712 87.1676 8.41667 86.9062 8.29545C86.6449 8.17424 86.3362 8.11364 85.9801 8.11364H84.4801V6.90909H85.9801C86.5142 6.90909 86.9081 6.78788 87.1619 6.54545C87.4195 6.30303 87.5483 6 87.5483 5.63636C87.5483 5.24621 87.41 4.93371 87.1335 4.69886C86.857 4.46023 86.465 4.34091 85.9574 4.34091C85.446 4.34091 85.0199 4.45644 84.679 4.6875C84.3381 4.91477 84.1581 5.20833 84.1392 5.56818H82.7301C82.7453 5.09848 82.8892 4.68371 83.1619 4.32386C83.4347 3.96023 83.8059 3.67614 84.2756 3.47159C84.7453 3.26326 85.2831 3.15909 85.8892 3.15909C86.5028 3.15909 87.035 3.26705 87.4858 3.48295C87.9403 3.69508 88.2907 3.98485 88.5369 4.35227C88.7869 4.71591 88.9119 5.12879 88.9119 5.59091C88.9119 6.08333 88.7737 6.48106 88.4972 6.78409C88.2206 7.08712 87.8741 7.30303 87.4574 7.43182V7.52273C87.7869 7.54545 88.0729 7.65152 88.3153 7.84091C88.5616 8.02652 88.7528 8.27083 88.8892 8.57386C89.0256 8.87311 89.0938 9.20455 89.0938 9.56818C89.0938 10.0985 88.9517 10.5606 88.6676 10.9545C88.3835 11.3447 87.9934 11.6477 87.4972 11.8636C87.0009 12.0758 86.4347 12.1818 85.7983 12.1818C85.1809 12.1818 84.6278 12.0814 84.1392 11.8807C83.6506 11.6761 83.2623 11.3939 82.9744 11.0341C82.6903 10.6705 82.5407 10.25 82.5256 9.77273ZM93.5455 12.2045C92.9924 12.2045 92.4905 12.1004 92.0398 11.892C91.589 11.6799 91.2311 11.375 90.9659 10.9773C90.7008 10.5758 90.5682 10.0909 90.5682 9.52273C90.5682 9.02273 90.6667 8.61742 90.8636 8.30682C91.0606 7.99242 91.3239 7.74621 91.6534 7.56818C91.983 7.39015 92.3466 7.25758 92.7443 7.17045C93.1458 7.07955 93.5492 7.00758 93.9545 6.95455C94.4848 6.88636 94.9148 6.83523 95.2443 6.80114C95.5777 6.76326 95.8201 6.70076 95.9716 6.61364C96.1269 6.52652 96.2045 6.375 96.2045 6.15909V6.11364C96.2045 5.55303 96.0511 5.11742 95.7443 4.80682C95.4413 4.49621 94.9811 4.34091 94.3636 4.34091C93.7235 4.34091 93.2216 4.48106 92.858 4.76136C92.4943 5.04167 92.2386 5.34091 92.0909 5.65909L90.8182 5.20455C91.0455 4.67424 91.3485 4.26136 91.7273 3.96591C92.1098 3.66667 92.5265 3.45833 92.9773 3.34091C93.4318 3.2197 93.8788 3.15909 94.3182 3.15909C94.5985 3.15909 94.9205 3.19318 95.2841 3.26136C95.6515 3.32576 96.0057 3.46023 96.3466 3.66477C96.6913 3.86932 96.9773 4.17803 97.2045 4.59091C97.4318 5.00379 97.5455 5.55682 97.5455 6.25V12H96.2045V10.8182H96.1364C96.0455 11.0076 95.8939 11.2102 95.6818 11.4261C95.4697 11.642 95.1875 11.8258 94.8352 11.9773C94.483 12.1288 94.053 12.2045 93.5455 12.2045ZM93.75 11C94.2803 11 94.7273 10.8958 95.0909 10.6875C95.4583 10.4792 95.7348 10.2102 95.9205 9.88068C96.1098 9.55114 96.2045 9.20455 96.2045 8.84091V7.61364C96.1477 7.68182 96.0227 7.74432 95.8295 7.80114C95.6402 7.85417 95.4205 7.90151 95.1705 7.94318C94.9242 7.98106 94.6837 8.01515 94.4489 8.04545C94.2178 8.07197 94.0303 8.0947 93.8864 8.11364C93.5379 8.15909 93.2121 8.23295 92.9091 8.33523C92.6098 8.43371 92.3674 8.58333 92.1818 8.78409C92 8.98106 91.9091 9.25 91.9091 9.59091C91.9091 10.0568 92.0814 10.4091 92.4261 10.6477C92.7746 10.8826 93.2159 11 93.75 11ZM99.9929 12V3.27273H106.857V12H105.516V4.52273H101.334V12H99.9929ZM109.857 15.2727C109.629 15.2727 109.427 15.2538 109.249 15.2159C109.071 15.1818 108.947 15.1477 108.879 15.1136L109.22 13.9318C109.546 14.0152 109.834 14.0455 110.084 14.0227C110.334 14 110.555 13.8883 110.749 13.6875C110.946 13.4905 111.125 13.1705 111.288 12.7273L111.538 12.0455L108.311 3.27273H109.766L112.175 10.2273H112.266L114.675 3.27273H116.129L112.425 13.2727C112.258 13.7235 112.052 14.0966 111.805 14.392C111.559 14.6913 111.273 14.9129 110.947 15.0568C110.625 15.2008 110.262 15.2727 109.857 15.2727ZM121.132 12.1818C120.314 12.1818 119.609 11.9886 119.018 11.6023C118.428 11.2159 117.973 10.6837 117.655 10.0057C117.337 9.32765 117.178 8.55303 117.178 7.68182C117.178 6.79545 117.34 6.01326 117.666 5.33523C117.996 4.65341 118.454 4.12121 119.041 3.73864C119.632 3.35227 120.321 3.15909 121.109 3.15909C121.723 3.15909 122.276 3.27273 122.768 3.5C123.261 3.72727 123.664 4.04545 123.979 4.45455C124.293 4.86364 124.488 5.34091 124.564 5.88636H123.223C123.121 5.48864 122.893 5.13636 122.541 4.82955C122.193 4.51894 121.723 4.36364 121.132 4.36364C120.609 4.36364 120.151 4.5 119.757 4.77273C119.367 5.04167 119.062 5.42235 118.842 5.91477C118.626 6.40341 118.518 6.97727 118.518 7.63636C118.518 8.31061 118.625 8.89773 118.837 9.39773C119.053 9.89773 119.356 10.286 119.746 10.5625C120.14 10.839 120.602 10.9773 121.132 10.9773C121.481 10.9773 121.797 10.9167 122.081 10.7955C122.365 10.6742 122.606 10.5 122.803 10.2727C123 10.0455 123.14 9.77273 123.223 9.45455H124.564C124.488 9.9697 124.301 10.4337 124.001 10.8466C123.706 11.2557 123.314 11.5814 122.825 11.8239C122.34 12.0625 121.776 12.1818 121.132 12.1818ZM126.524 12V3.27273H127.865V7.06818H128.751L131.888 3.27273H133.615L130.092 7.47727L133.661 12H131.933L129.07 8.31818H127.865V12H126.524ZM139.8 0.363636H141.482L145.436 10.0227H145.572L149.527 0.363636H151.209V12H149.891V3.15909H149.777L146.141 12H144.868L141.232 3.15909H141.118V12H139.8V0.363636ZM154.511 0.363636L157.966 10.1591H158.102L161.557 0.363636H163.034L158.761 12H157.307L153.034 0.363636H154.511ZM164.847 12V0.363636H168.778C169.691 0.363636 170.438 0.528409 171.017 0.857954C171.6 1.18371 172.032 1.625 172.312 2.18182C172.593 2.73864 172.733 3.35985 172.733 4.04545C172.733 4.73106 172.593 5.35417 172.312 5.91477C172.036 6.47538 171.608 6.92235 171.028 7.25568C170.449 7.58523 169.706 7.75 168.801 7.75H165.983V6.5H168.756C169.381 6.5 169.883 6.39205 170.261 6.17614C170.64 5.96023 170.915 5.66856 171.085 5.30114C171.259 4.92992 171.347 4.51136 171.347 4.04545C171.347 3.57955 171.259 3.16288 171.085 2.79545C170.915 2.42803 170.638 2.14015 170.256 1.93182C169.873 1.7197 169.366 1.61364 168.733 1.61364H166.256V12H164.847ZM176.821 10.4091L176.73 11.0227C176.666 11.4545 176.567 11.9167 176.435 12.4091C176.306 12.9015 176.171 13.3655 176.031 13.8011C175.891 14.2367 175.776 14.5833 175.685 14.8409H174.662C174.711 14.5985 174.776 14.2784 174.855 13.8807C174.935 13.483 175.014 13.0379 175.094 12.5455C175.177 12.0568 175.245 11.5568 175.298 11.0455L175.366 10.4091H176.821ZM176.003 5.61364C175.723 5.61364 175.482 5.51326 175.281 5.3125C175.08 5.11174 174.98 4.87121 174.98 4.59091C174.98 4.31061 175.08 4.07008 175.281 3.86932C175.482 3.66856 175.723 3.56818 176.003 3.56818C176.283 3.56818 176.524 3.66856 176.724 3.86932C176.925 4.07008 177.026 4.31061 177.026 4.59091C177.026 4.77652 176.978 4.94697 176.884 5.10227C176.793 5.25758 176.67 5.38258 176.514 5.47727C176.363 5.56818 176.192 5.61364 176.003 5.61364ZM1.40909 32V20.3636H5.47727C6.28788 20.3636 6.95644 20.5038 7.48295 20.7841C8.00947 21.0606 8.40152 21.4337 8.65909 21.9034C8.91667 22.3693 9.04545 22.8864 9.04545 23.4545C9.04545 23.9545 8.95644 24.3674 8.77841 24.6932C8.60417 25.0189 8.37311 25.2765 8.08523 25.4659C7.80114 25.6553 7.49242 25.7955 7.15909 25.8864V26C7.51515 26.0227 7.87311 26.1477 8.23295 26.375C8.5928 26.6023 8.89394 26.928 9.13636 27.3523C9.37879 27.7765 9.5 28.2955 9.5 28.9091C9.5 29.4924 9.36742 30.017 9.10227 30.483C8.83712 30.9489 8.41856 31.3182 7.84659 31.5909C7.27462 31.8636 6.5303 32 5.61364 32H1.40909ZM2.81818 30.75H5.61364C6.53409 30.75 7.1875 30.572 7.57386 30.2159C7.96402 29.8561 8.15909 29.4205 8.15909 28.9091C8.15909 28.5152 8.05871 28.1515 7.85795 27.8182C7.6572 27.4811 7.37121 27.2121 7 27.0114C6.62879 26.8068 6.18939 26.7045 5.68182 26.7045H2.81818V30.75ZM2.81818 25.4773H5.43182C5.85606 25.4773 6.23864 25.3939 6.57955 25.2273C6.92424 25.0606 7.19697 24.8258 7.39773 24.5227C7.60227 24.2197 7.70455 23.8636 7.70455 23.4545C7.70455 22.9432 7.52652 22.5095 7.17045 22.1534C6.81439 21.7936 6.25 21.6136 5.47727 21.6136H2.81818V25.4773ZM14.2017 32.2045C13.6487 32.2045 13.1468 32.1004 12.696 31.892C12.2453 31.6799 11.8873 31.375 11.6222 30.9773C11.357 30.5758 11.2244 30.0909 11.2244 29.5227C11.2244 29.0227 11.3229 28.6174 11.5199 28.3068C11.7169 27.9924 11.9801 27.7462 12.3097 27.5682C12.6392 27.3902 13.0028 27.2576 13.4006 27.1705C13.8021 27.0795 14.2055 27.0076 14.6108 26.9545C15.1411 26.8864 15.571 26.8352 15.9006 26.8011C16.2339 26.7633 16.4763 26.7008 16.6278 26.6136C16.7831 26.5265 16.8608 26.375 16.8608 26.1591V26.1136C16.8608 25.553 16.7074 25.1174 16.4006 24.8068C16.0975 24.4962 15.6373 24.3409 15.0199 24.3409C14.3797 24.3409 13.8778 24.4811 13.5142 24.7614C13.1506 25.0417 12.8949 25.3409 12.7472 25.6591L11.4744 25.2045C11.7017 24.6742 12.0047 24.2614 12.3835 23.9659C12.7661 23.6667 13.1828 23.4583 13.6335 23.3409C14.0881 23.2197 14.535 23.1591 14.9744 23.1591C15.2547 23.1591 15.5767 23.1932 15.9403 23.2614C16.3078 23.3258 16.6619 23.4602 17.0028 23.6648C17.3475 23.8693 17.6335 24.178 17.8608 24.5909C18.0881 25.0038 18.2017 25.5568 18.2017 26.25V32H16.8608V30.8182H16.7926C16.7017 31.0076 16.5502 31.2102 16.3381 31.4261C16.1259 31.642 15.8438 31.8258 15.4915 31.9773C15.1392 32.1288 14.7093 32.2045 14.2017 32.2045ZM14.4062 31C14.9366 31 15.3835 30.8958 15.7472 30.6875C16.1146 30.4792 16.3911 30.2102 16.5767 29.8807C16.7661 29.5511 16.8608 29.2045 16.8608 28.8409V27.6136C16.804 27.6818 16.679 27.7443 16.4858 27.8011C16.2964 27.8542 16.0767 27.9015 15.8267 27.9432C15.5805 27.9811 15.34 28.0152 15.1051 28.0455C14.8741 28.072 14.6866 28.0947 14.5426 28.1136C14.1941 28.1591 13.8684 28.233 13.5653 28.3352C13.2661 28.4337 13.0237 28.5833 12.8381 28.7841C12.6563 28.9811 12.5653 29.25 12.5653 29.5909C12.5653 30.0568 12.7377 30.4091 13.0824 30.6477C13.4309 30.8826 13.8722 31 14.4062 31ZM20.6491 32V23.2727H21.9901V32H20.6491ZM21.331 21.8182C21.0696 21.8182 20.8442 21.7292 20.6548 21.5511C20.4692 21.3731 20.3764 21.1591 20.3764 20.9091C20.3764 20.6591 20.4692 20.4451 20.6548 20.267C20.8442 20.089 21.0696 20 21.331 20C21.5923 20 21.8158 20.089 22.0014 20.267C22.1908 20.4451 22.2855 20.6591 22.2855 20.9091C22.2855 21.1591 22.1908 21.3731 22.0014 21.5511C21.8158 21.7292 21.5923 21.8182 21.331 21.8182ZM27.0142 32.2045C26.4612 32.2045 25.9593 32.1004 25.5085 31.892C25.0578 31.6799 24.6998 31.375 24.4347 30.9773C24.1695 30.5758 24.0369 30.0909 24.0369 29.5227C24.0369 29.0227 24.1354 28.6174 24.3324 28.3068C24.5294 27.9924 24.7926 27.7462 25.1222 27.5682C25.4517 27.3902 25.8153 27.2576 26.2131 27.1705C26.6146 27.0795 27.018 27.0076 27.4233 26.9545C27.9536 26.8864 28.3835 26.8352 28.7131 26.8011C29.0464 26.7633 29.2888 26.7008 29.4403 26.6136C29.5956 26.5265 29.6733 26.375 29.6733 26.1591V26.1136C29.6733 25.553 29.5199 25.1174 29.2131 24.8068C28.91 24.4962 28.4498 24.3409 27.8324 24.3409C27.1922 24.3409 26.6903 24.4811 26.3267 24.7614C25.9631 25.0417 25.7074 25.3409 25.5597 25.6591L24.2869 25.2045C24.5142 24.6742 24.8172 24.2614 25.196 23.9659C25.5786 23.6667 25.9953 23.4583 26.446 23.3409C26.9006 23.2197 27.3475 23.1591 27.7869 23.1591C28.0672 23.1591 28.3892 23.1932 28.7528 23.2614C29.1203 23.3258 29.4744 23.4602 29.8153 23.6648C30.16 23.8693 30.446 24.178 30.6733 24.5909C30.9006 25.0038 31.0142 25.5568 31.0142 26.25V32H29.6733V30.8182H29.6051C29.5142 31.0076 29.3627 31.2102 29.1506 31.4261C28.9384 31.642 28.6563 31.8258 28.304 31.9773C27.9517 32.1288 27.5218 32.2045 27.0142 32.2045ZM27.2188 31C27.7491 31 28.196 30.8958 28.5597 30.6875C28.9271 30.4792 29.2036 30.2102 29.3892 29.8807C29.5786 29.5511 29.6733 29.2045 29.6733 28.8409V27.6136C29.6165 27.6818 29.4915 27.7443 29.2983 27.8011C29.1089 27.8542 28.8892 27.9015 28.6392 27.9432C28.393 27.9811 28.1525 28.0152 27.9176 28.0455C27.6866 28.072 27.4991 28.0947 27.3551 28.1136C27.0066 28.1591 26.6809 28.233 26.3778 28.3352C26.0786 28.4337 25.8362 28.5833 25.6506 28.7841C25.4688 28.9811 25.3778 29.25 25.3778 29.5909C25.3778 30.0568 25.5502 30.4091 25.8949 30.6477C26.2434 30.8826 26.6847 31 27.2188 31ZM44.7344 26.3864V27.6364H36.7344V26.3864H44.7344ZM51.8026 30.0227L56.0071 23.2727H57.5526V32H56.2116V25.25L52.0298 32H50.4616V23.2727H51.8026V30.0227ZM63.554 32.1818C62.7358 32.1818 62.0313 31.9886 61.4403 31.6023C60.8494 31.2159 60.3949 30.6837 60.0767 30.0057C59.7585 29.3277 59.5994 28.553 59.5994 27.6818C59.5994 26.7955 59.7623 26.0133 60.0881 25.3352C60.4176 24.6534 60.8759 24.1212 61.4631 23.7386C62.054 23.3523 62.7434 23.1591 63.5312 23.1591C64.1449 23.1591 64.6979 23.2727 65.1903 23.5C65.6828 23.7273 66.0862 24.0455 66.4006 24.4545C66.715 24.8636 66.91 25.3409 66.9858 25.8864H65.6449C65.5426 25.4886 65.3153 25.1364 64.9631 24.8295C64.6146 24.5189 64.1449 24.3636 63.554 24.3636C63.0313 24.3636 62.5729 24.5 62.179 24.7727C61.7888 25.0417 61.4839 25.4223 61.2642 25.9148C61.0483 26.4034 60.9403 26.9773 60.9403 27.6364C60.9403 28.3106 61.0464 28.8977 61.2585 29.3977C61.4744 29.8977 61.7775 30.286 62.1676 30.5625C62.5616 30.839 63.0237 30.9773 63.554 30.9773C63.9025 30.9773 64.2188 30.9167 64.5028 30.7955C64.7869 30.6742 65.0275 30.5 65.2244 30.2727C65.4214 30.0455 65.5616 29.7727 65.6449 29.4545H66.9858C66.91 29.9697 66.7225 30.4337 66.4233 30.8466C66.1278 31.2557 65.7358 31.5814 65.2472 31.8239C64.7623 32.0625 64.1979 32.1818 63.554 32.1818ZM72.4915 32.1818C71.6733 32.1818 70.9688 31.9886 70.3778 31.6023C69.7869 31.2159 69.3324 30.6837 69.0142 30.0057C68.696 29.3277 68.5369 28.553 68.5369 27.6818C68.5369 26.7955 68.6998 26.0133 69.0256 25.3352C69.3551 24.6534 69.8134 24.1212 70.4006 23.7386C70.9915 23.3523 71.6809 23.1591 72.4688 23.1591C73.0824 23.1591 73.6354 23.2727 74.1278 23.5C74.6203 23.7273 75.0237 24.0455 75.3381 24.4545C75.6525 24.8636 75.8475 25.3409 75.9233 25.8864H74.5824C74.4801 25.4886 74.2528 25.1364 73.9006 24.8295C73.5521 24.5189 73.0824 24.3636 72.4915 24.3636C71.9688 24.3636 71.5104 24.5 71.1165 24.7727C70.7263 25.0417 70.4214 25.4223 70.2017 25.9148C69.9858 26.4034 69.8778 26.9773 69.8778 27.6364C69.8778 28.3106 69.9839 28.8977 70.196 29.3977C70.4119 29.8977 70.715 30.286 71.1051 30.5625C71.4991 30.839 71.9612 30.9773 72.4915 30.9773C72.84 30.9773 73.1562 30.9167 73.4403 30.7955C73.7244 30.6742 73.965 30.5 74.1619 30.2727C74.3589 30.0455 74.4991 29.7727 74.5824 29.4545H75.9233C75.8475 29.9697 75.66 30.4337 75.3608 30.8466C75.0653 31.2557 74.6733 31.5814 74.1847 31.8239C73.6998 32.0625 73.1354 32.1818 72.4915 32.1818ZM77.1108 32V30.75H77.429C77.6903 30.75 77.9081 30.6989 78.0824 30.5966C78.2566 30.4905 78.3968 30.3068 78.5028 30.0455C78.6127 29.7803 78.696 29.4129 78.7528 28.9432C78.8134 28.4697 78.857 27.8674 78.8835 27.1364L79.0426 23.2727H84.8608V32H83.5199V24.5227H80.3153L80.179 27.6364C80.1487 28.3523 80.0843 28.983 79.9858 29.5284C79.8911 30.0701 79.7453 30.5246 79.5483 30.892C79.3551 31.2595 79.0975 31.536 78.7756 31.7216C78.4536 31.9072 78.0502 32 77.5653 32H77.1108ZM90.9801 32.1818C90.1392 32.1818 89.4138 31.9962 88.804 31.625C88.1979 31.25 87.7301 30.7273 87.4006 30.0568C87.0748 29.3826 86.9119 28.5985 86.9119 27.7045C86.9119 26.8106 87.0748 26.0227 87.4006 25.3409C87.7301 24.6553 88.1884 24.1212 88.7756 23.7386C89.3665 23.3523 90.0559 23.1591 90.8438 23.1591C91.2983 23.1591 91.7472 23.2348 92.1903 23.3864C92.6335 23.5379 93.0369 23.7841 93.4006 24.125C93.7642 24.4621 94.054 24.9091 94.2699 25.4659C94.4858 26.0227 94.5938 26.7083 94.5938 27.5227V28.0909H87.8665V26.9318H93.2301C93.2301 26.4394 93.1316 26 92.9347 25.6136C92.7415 25.2273 92.465 24.9223 92.1051 24.6989C91.7491 24.4754 91.3286 24.3636 90.8438 24.3636C90.3097 24.3636 89.8475 24.4962 89.4574 24.7614C89.071 25.0227 88.7737 25.3636 88.5653 25.7841C88.357 26.2045 88.2528 26.6553 88.2528 27.1364V27.9091C88.2528 28.5682 88.3665 29.1269 88.5938 29.5852C88.8248 30.0398 89.1449 30.3864 89.554 30.625C89.9631 30.8598 90.4384 30.9773 90.9801 30.9773C91.3324 30.9773 91.6506 30.928 91.9347 30.8295C92.2225 30.7273 92.4706 30.5758 92.679 30.375C92.8873 30.1705 93.0483 29.9167 93.1619 29.6136L94.4574 29.9773C94.321 30.4167 94.0919 30.803 93.7699 31.1364C93.4479 31.4659 93.0502 31.7235 92.5767 31.9091C92.1032 32.0909 91.571 32.1818 90.9801 32.1818ZM95.7017 34.5V30.75H96.429C96.607 30.5644 96.7604 30.3636 96.8892 30.1477C97.018 29.9318 97.1297 29.6761 97.2244 29.3807C97.3229 29.0814 97.4063 28.7178 97.4744 28.2898C97.5426 27.858 97.6032 27.3371 97.6562 26.7273L97.9517 23.2727H103.497V30.75H104.838V34.5H103.497V32H97.0426V34.5H95.7017ZM97.9517 30.75H102.156V24.5227H99.2017L98.9744 26.7273C98.8797 27.6402 98.7623 28.4375 98.6222 29.1193C98.482 29.8011 98.2585 30.3447 97.9517 30.75ZM110.163 32.1818C109.375 32.1818 108.684 31.9943 108.089 31.6193C107.499 31.2443 107.036 30.7197 106.703 30.0455C106.374 29.3712 106.209 28.5833 106.209 27.6818C106.209 26.7727 106.374 25.9792 106.703 25.3011C107.036 24.6231 107.499 24.0966 108.089 23.7216C108.684 23.3466 109.375 23.1591 110.163 23.1591C110.951 23.1591 111.641 23.3466 112.232 23.7216C112.826 24.0966 113.288 24.6231 113.618 25.3011C113.951 25.9792 114.118 26.7727 114.118 27.6818C114.118 28.5833 113.951 29.3712 113.618 30.0455C113.288 30.7197 112.826 31.2443 112.232 31.6193C111.641 31.9943 110.951 32.1818 110.163 32.1818ZM110.163 30.9773C110.762 30.9773 111.254 30.8239 111.641 30.517C112.027 30.2102 112.313 29.8068 112.499 29.3068C112.684 28.8068 112.777 28.2652 112.777 27.6818C112.777 27.0985 112.684 26.5549 112.499 26.0511C112.313 25.5473 112.027 25.1402 111.641 24.8295C111.254 24.5189 110.762 24.3636 110.163 24.3636C109.565 24.3636 109.072 24.5189 108.686 24.8295C108.3 25.1402 108.014 25.5473 107.828 26.0511C107.643 26.5549 107.55 27.0985 107.55 27.6818C107.55 28.2652 107.643 28.8068 107.828 29.3068C108.014 29.8068 108.3 30.2102 108.686 30.517C109.072 30.8239 109.565 30.9773 110.163 30.9773ZM116.165 32V23.2727H119.733C120.672 23.2727 121.419 23.4848 121.972 23.9091C122.525 24.3333 122.801 24.8939 122.801 25.5909C122.801 26.1212 122.644 26.5322 122.33 26.8239C122.015 27.1117 121.612 27.3068 121.119 27.4091C121.441 27.4545 121.754 27.5682 122.057 27.75C122.364 27.9318 122.617 28.1818 122.818 28.5C123.019 28.8144 123.119 29.2008 123.119 29.6591C123.119 30.1061 123.006 30.5057 122.778 30.858C122.551 31.2102 122.225 31.4886 121.801 31.6932C121.377 31.8977 120.869 32 120.278 32H116.165ZM117.438 30.7727H120.278C120.741 30.7727 121.102 30.6629 121.364 30.4432C121.625 30.2235 121.756 29.9242 121.756 29.5455C121.756 29.0947 121.625 28.7405 121.364 28.483C121.102 28.2216 120.741 28.0909 120.278 28.0909H117.438V30.7727ZM117.438 26.9318H119.733C120.093 26.9318 120.402 26.8826 120.659 26.7841C120.917 26.6818 121.114 26.5379 121.25 26.3523C121.39 26.1629 121.46 25.9394 121.46 25.6818C121.46 25.3144 121.307 25.0265 121 24.8182C120.693 24.6061 120.271 24.5 119.733 24.5H117.438V26.9318ZM127.717 32.2045C127.164 32.2045 126.662 32.1004 126.212 31.892C125.761 31.6799 125.403 31.375 125.138 30.9773C124.873 30.5758 124.74 30.0909 124.74 29.5227C124.74 29.0227 124.839 28.6174 125.036 28.3068C125.232 27.9924 125.496 27.7462 125.825 27.5682C126.155 27.3902 126.518 27.2576 126.916 27.1705C127.318 27.0795 127.721 27.0076 128.126 26.9545C128.657 26.8864 129.087 26.8352 129.416 26.8011C129.75 26.7633 129.992 26.7008 130.143 26.6136C130.299 26.5265 130.376 26.375 130.376 26.1591V26.1136C130.376 25.553 130.223 25.1174 129.916 24.8068C129.613 24.4962 129.153 24.3409 128.536 24.3409C127.895 24.3409 127.393 24.4811 127.03 24.7614C126.666 25.0417 126.411 25.3409 126.263 25.6591L124.99 25.2045C125.217 24.6742 125.52 24.2614 125.899 23.9659C126.282 23.6667 126.698 23.4583 127.149 23.3409C127.604 23.2197 128.051 23.1591 128.49 23.1591C128.77 23.1591 129.092 23.1932 129.456 23.2614C129.823 23.3258 130.178 23.4602 130.518 23.6648C130.863 23.8693 131.149 24.178 131.376 24.5909C131.604 25.0038 131.717 25.5568 131.717 26.25V32H130.376V30.8182H130.308C130.217 31.0076 130.066 31.2102 129.854 31.4261C129.642 31.642 129.359 31.8258 129.007 31.9773C128.655 32.1288 128.225 32.2045 127.717 32.2045ZM127.922 31C128.452 31 128.899 30.8958 129.263 30.6875C129.63 30.4792 129.907 30.2102 130.092 29.8807C130.282 29.5511 130.376 29.2045 130.376 28.8409V27.6136C130.32 27.6818 130.195 27.7443 130.001 27.8011C129.812 27.8542 129.592 27.9015 129.342 27.9432C129.096 27.9811 128.856 28.0152 128.621 28.0455C128.39 28.072 128.202 28.0947 128.058 28.1136C127.71 28.1591 127.384 28.233 127.081 28.3352C126.782 28.4337 126.539 28.5833 126.354 28.7841C126.172 28.9811 126.081 29.25 126.081 29.5909C126.081 30.0568 126.253 30.4091 126.598 30.6477C126.946 30.8826 127.388 31 127.922 31ZM140.006 27.0227V28.2727H135.188V27.0227H140.006ZM135.506 23.2727V32H134.165V23.2727H135.506ZM141.028 23.2727V32H139.688V23.2727H141.028ZM144.818 30.0227L149.023 23.2727H150.568V32H149.227V25.25L145.045 32H143.477V23.2727H144.818V30.0227ZM158.274 32V24.5H155.956C155.433 24.5 155.022 24.6212 154.723 24.8636C154.424 25.1061 154.274 25.4394 154.274 25.8636C154.274 26.2803 154.409 26.608 154.678 26.8466C154.95 27.0852 155.323 27.2045 155.797 27.2045H158.615V28.4545H155.797C155.206 28.4545 154.696 28.3504 154.268 28.142C153.84 27.9337 153.511 27.6364 153.28 27.25C153.049 26.8598 152.933 26.3977 152.933 25.8636C152.933 25.3258 153.054 24.8636 153.297 24.4773C153.539 24.0909 153.886 23.7936 154.337 23.5852C154.791 23.3769 155.331 23.2727 155.956 23.2727H159.547V32H158.274ZM152.456 32L154.933 27.6591H156.388L153.911 32H152.456ZM164.009 30.4091L163.918 31.0227C163.853 31.4545 163.755 31.9167 163.622 32.4091C163.493 32.9015 163.359 33.3655 163.219 33.8011C163.079 34.2367 162.963 34.5833 162.872 34.8409H161.849C161.899 34.5985 161.963 34.2784 162.043 33.8807C162.122 33.483 162.202 33.0379 162.281 32.5455C162.365 32.0568 162.433 31.5568 162.486 31.0455L162.554 30.4091H164.009ZM163.19 25.6136C162.91 25.6136 162.67 25.5133 162.469 25.3125C162.268 25.1117 162.168 24.8712 162.168 24.5909C162.168 24.3106 162.268 24.0701 162.469 23.8693C162.67 23.6686 162.91 23.5682 163.19 23.5682C163.471 23.5682 163.711 23.6686 163.912 23.8693C164.113 24.0701 164.213 24.3106 164.213 24.5909C164.213 24.7765 164.166 24.947 164.071 25.1023C163.98 25.2576 163.857 25.3826 163.702 25.4773C163.55 25.5682 163.38 25.6136 163.19 25.6136ZM1.88636 52H0.409091L4.68182 40.3636H6.13636L10.4091 52H8.93182L5.45455 42.2045H5.36364L1.88636 52ZM2.43182 47.4545H8.38636V48.7045H2.43182V47.4545ZM15.5625 55.4545C14.9148 55.4545 14.358 55.3712 13.892 55.2045C13.4261 55.0417 13.0379 54.8258 12.7273 54.5568C12.4205 54.2917 12.1761 54.0076 11.9943 53.7045L13.0625 52.9545C13.1837 53.1136 13.3371 53.2955 13.5227 53.5C13.7083 53.7083 13.9621 53.8883 14.2841 54.0398C14.6098 54.1951 15.036 54.2727 15.5625 54.2727C16.267 54.2727 16.8485 54.1023 17.3068 53.7614C17.7652 53.4205 17.9943 52.8864 17.9943 52.1591V50.3864H17.8807C17.7822 50.5455 17.642 50.7424 17.4602 50.9773C17.2822 51.2083 17.0246 51.4148 16.6875 51.5966C16.3542 51.7746 15.9034 51.8636 15.3352 51.8636C14.6307 51.8636 13.9981 51.697 13.4375 51.3636C12.8807 51.0303 12.4394 50.5455 12.1136 49.9091C11.7917 49.2727 11.6307 48.5 11.6307 47.5909C11.6307 46.697 11.7879 45.9186 12.1023 45.2557C12.4167 44.589 12.8542 44.0739 13.4148 43.7102C13.9754 43.3428 14.6231 43.1591 15.358 43.1591C15.9261 43.1591 16.3769 43.2538 16.7102 43.4432C17.0473 43.6288 17.3049 43.8409 17.483 44.0795C17.6648 44.3144 17.8049 44.5076 17.9034 44.6591H18.0398V43.2727H19.3352V52.25C19.3352 53 19.1648 53.6098 18.8239 54.0795C18.4867 54.553 18.0322 54.8996 17.4602 55.1193C16.892 55.3428 16.2595 55.4545 15.5625 55.4545ZM15.517 50.6591C16.0549 50.6591 16.5095 50.536 16.8807 50.2898C17.2519 50.0436 17.5341 49.6894 17.7273 49.2273C17.9205 48.7652 18.017 48.2121 18.017 47.5682C18.017 46.9394 17.9223 46.3845 17.733 45.9034C17.5436 45.4223 17.2633 45.0455 16.892 44.7727C16.5208 44.5 16.0625 44.3636 15.517 44.3636C14.9489 44.3636 14.4754 44.5076 14.0966 44.7955C13.7216 45.0833 13.4394 45.4697 13.25 45.9545C13.0644 46.4394 12.9716 46.9773 12.9716 47.5682C12.9716 48.1742 13.0663 48.7102 13.2557 49.1761C13.4489 49.6383 13.733 50.0019 14.108 50.267C14.4867 50.5284 14.9564 50.6591 15.517 50.6591ZM21.7898 52V43.2727H23.1307V52H21.7898ZM22.4716 41.8182C22.2102 41.8182 21.9848 41.7292 21.7955 41.5511C21.6098 41.3731 21.517 41.1591 21.517 40.9091C21.517 40.6591 21.6098 40.4451 21.7955 40.267C21.9848 40.089 22.2102 40 22.4716 40C22.733 40 22.9564 40.089 23.142 40.267C23.3314 40.4451 23.4261 40.6591 23.4261 40.9091C23.4261 41.1591 23.3314 41.3731 23.142 41.5511C22.9564 41.7292 22.733 41.8182 22.4716 41.8182ZM26.9276 40.3636V52H25.5866V40.3636H26.9276ZM33.0426 52.1818C32.2017 52.1818 31.4763 51.9962 30.8665 51.625C30.2604 51.25 29.7926 50.7273 29.4631 50.0568C29.1373 49.3826 28.9744 48.5985 28.9744 47.7045C28.9744 46.8106 29.1373 46.0227 29.4631 45.3409C29.7926 44.6553 30.2509 44.1212 30.8381 43.7386C31.429 43.3523 32.1184 43.1591 32.9062 43.1591C33.3608 43.1591 33.8097 43.2348 34.2528 43.3864C34.696 43.5379 35.0994 43.7841 35.4631 44.125C35.8267 44.4621 36.1165 44.9091 36.3324 45.4659C36.5483 46.0227 36.6562 46.7083 36.6562 47.5227V48.0909H29.929V46.9318H35.2926C35.2926 46.4394 35.1941 46 34.9972 45.6136C34.804 45.2273 34.5275 44.9223 34.1676 44.6989C33.8116 44.4754 33.3911 44.3636 32.9062 44.3636C32.3722 44.3636 31.91 44.4962 31.5199 44.7614C31.1335 45.0227 30.8362 45.3636 30.6278 45.7841C30.4195 46.2045 30.3153 46.6553 30.3153 47.1364V47.9091C30.3153 48.5682 30.429 49.1269 30.6562 49.5852C30.8873 50.0398 31.2074 50.3864 31.6165 50.625C32.0256 50.8598 32.5009 50.9773 33.0426 50.9773C33.3949 50.9773 33.7131 50.928 33.9972 50.8295C34.285 50.7273 34.5331 50.5758 34.7415 50.375C34.9498 50.1705 35.1108 49.9167 35.2244 49.6136L36.5199 49.9773C36.3835 50.4167 36.1544 50.803 35.8324 51.1364C35.5104 51.4659 35.1127 51.7235 34.6392 51.9091C34.1657 52.0909 33.6335 52.1818 33.0426 52.1818ZM49.9688 46.3864V47.6364H41.9688V46.3864H49.9688ZM55.696 52V43.2727H62.5597V52H61.2188V44.5227H57.0369V52H55.696ZM65.0085 55.2727V43.2727H66.304V44.6591H66.4631C66.5616 44.5076 66.6979 44.3144 66.8722 44.0795C67.0502 43.8409 67.304 43.6288 67.6335 43.4432C67.9669 43.2538 68.4176 43.1591 68.9858 43.1591C69.7206 43.1591 70.3684 43.3428 70.929 43.7102C71.4896 44.0777 71.9271 44.5985 72.2415 45.2727C72.5559 45.947 72.7131 46.7424 72.7131 47.6591C72.7131 48.5833 72.5559 49.3845 72.2415 50.0625C71.9271 50.7367 71.4915 51.2595 70.9347 51.6307C70.3778 51.9981 69.7358 52.1818 69.0085 52.1818C68.4479 52.1818 67.9991 52.089 67.6619 51.9034C67.3248 51.714 67.0653 51.5 66.8835 51.2614C66.7017 51.0189 66.5616 50.8182 66.4631 50.6591H66.3494V55.2727H65.0085ZM66.3267 47.6364C66.3267 48.2955 66.4233 48.8769 66.6165 49.3807C66.8097 49.8807 67.0919 50.2727 67.4631 50.5568C67.8343 50.8371 68.2888 50.9773 68.8267 50.9773C69.3873 50.9773 69.8551 50.8295 70.2301 50.5341C70.6089 50.2348 70.893 49.8333 71.0824 49.3295C71.2756 48.822 71.3722 48.2576 71.3722 47.6364C71.3722 47.0227 71.2775 46.4697 71.0881 45.9773C70.9025 45.4811 70.6203 45.089 70.2415 44.8011C69.8665 44.5095 69.3949 44.3636 68.8267 44.3636C68.2813 44.3636 67.8229 44.5019 67.4517 44.7784C67.0805 45.0511 66.8002 45.4337 66.6108 45.9261C66.4214 46.4148 66.3267 46.9848 66.3267 47.6364ZM76.0994 50.0227L80.304 43.2727H81.8494V52H80.5085V45.25L76.3267 52H74.7585V43.2727H76.0994V50.0227ZM90.1463 47.0227V48.2727H85.3281V47.0227H90.1463ZM85.6463 43.2727V52H84.3054V43.2727H85.6463ZM91.169 43.2727V52H89.8281V43.2727H91.169ZM100.482 43.2727V50.75H101.709V54.8182H100.368V52H93.6179V43.2727H94.9588V50.75H99.1406V43.2727H100.482ZM105.115 50.0227L109.32 43.2727H110.865V52H109.524V45.25L105.342 52H103.774V43.2727H105.115V50.0227ZM113.321 52V43.2727H120.185V52H118.844V44.5227H114.662V52H113.321ZM127.134 55.2727V43.2727H128.429V44.6591H128.588C128.687 44.5076 128.823 44.3144 128.997 44.0795C129.175 43.8409 129.429 43.6288 129.759 43.4432C130.092 43.2538 130.543 43.1591 131.111 43.1591C131.846 43.1591 132.493 43.3428 133.054 43.7102C133.615 44.0777 134.052 44.5985 134.366 45.2727C134.681 45.947 134.838 46.7424 134.838 47.6591C134.838 48.5833 134.681 49.3845 134.366 50.0625C134.052 50.7367 133.616 51.2595 133.06 51.6307C132.503 51.9981 131.861 52.1818 131.134 52.1818C130.573 52.1818 130.124 52.089 129.787 51.9034C129.45 51.714 129.19 51.5 129.009 51.2614C128.827 51.0189 128.687 50.8182 128.588 50.6591H128.474V55.2727H127.134ZM128.452 47.6364C128.452 48.2955 128.548 48.8769 128.741 49.3807C128.935 49.8807 129.217 50.2727 129.588 50.5568C129.959 50.8371 130.414 50.9773 130.952 50.9773C131.512 50.9773 131.98 50.8295 132.355 50.5341C132.734 50.2348 133.018 49.8333 133.207 49.3295C133.401 48.822 133.497 48.2576 133.497 47.6364C133.497 47.0227 133.402 46.4697 133.213 45.9773C133.027 45.4811 132.745 45.089 132.366 44.8011C131.991 44.5095 131.52 44.3636 130.952 44.3636C130.406 44.3636 129.948 44.5019 129.577 44.7784C129.205 45.0511 128.925 45.4337 128.736 45.9261C128.546 46.4148 128.452 46.9848 128.452 47.6364ZM139.452 52.2045C138.899 52.2045 138.397 52.1004 137.946 51.892C137.495 51.6799 137.137 51.375 136.872 50.9773C136.607 50.5758 136.474 50.0909 136.474 49.5227C136.474 49.0227 136.573 48.6174 136.77 48.3068C136.967 47.9924 137.23 47.7462 137.56 47.5682C137.889 47.3902 138.253 47.2576 138.651 47.1705C139.052 47.0795 139.455 47.0076 139.861 46.9545C140.391 46.8864 140.821 46.8352 141.151 46.8011C141.484 46.7633 141.726 46.7008 141.878 46.6136C142.033 46.5265 142.111 46.375 142.111 46.1591V46.1136C142.111 45.553 141.957 45.1174 141.651 44.8068C141.348 44.4962 140.887 44.3409 140.27 44.3409C139.63 44.3409 139.128 44.4811 138.764 44.7614C138.401 45.0417 138.145 45.3409 137.997 45.6591L136.724 45.2045C136.952 44.6742 137.255 44.2614 137.634 43.9659C138.016 43.6667 138.433 43.4583 138.884 43.3409C139.338 43.2197 139.785 43.1591 140.224 43.1591C140.505 43.1591 140.827 43.1932 141.19 43.2614C141.558 43.3258 141.912 43.4602 142.253 43.6648C142.598 43.8693 142.884 44.178 143.111 44.5909C143.338 45.0038 143.452 45.5568 143.452 46.25V52H142.111V50.8182H142.043C141.952 51.0076 141.8 51.2102 141.588 51.4261C141.376 51.642 141.094 51.8258 140.741 51.9773C140.389 52.1288 139.959 52.2045 139.452 52.2045ZM139.656 51C140.187 51 140.634 50.8958 140.997 50.6875C141.365 50.4792 141.641 50.2102 141.827 49.8807C142.016 49.5511 142.111 49.2045 142.111 48.8409V47.6136C142.054 47.6818 141.929 47.7443 141.736 47.8011C141.546 47.8542 141.327 47.9015 141.077 47.9432C140.83 47.9811 140.59 48.0152 140.355 48.0455C140.124 48.072 139.937 48.0947 139.793 48.1136C139.444 48.1591 139.118 48.233 138.815 48.3352C138.516 48.4337 138.274 48.5833 138.088 48.7841C137.906 48.9811 137.815 49.25 137.815 49.5909C137.815 50.0568 137.988 50.4091 138.332 50.6477C138.681 50.8826 139.122 51 139.656 51ZM152.376 40L153.058 40.8182C152.793 41.0758 152.486 41.2557 152.138 41.358C151.789 41.4602 151.395 41.5227 150.956 41.5455C150.517 41.5682 150.028 41.5909 149.49 41.6136C148.884 41.6364 148.382 41.7841 147.984 42.0568C147.587 42.3295 147.28 42.7235 147.064 43.2386C146.848 43.7538 146.71 44.3864 146.649 45.1364H146.763C147.058 44.5909 147.467 44.1894 147.99 43.9318C148.513 43.6742 149.073 43.5455 149.672 43.5455C150.354 43.5455 150.967 43.7045 151.513 44.0227C152.058 44.3409 152.49 44.8125 152.808 45.4375C153.126 46.0625 153.286 46.8333 153.286 47.75C153.286 48.6629 153.123 49.4508 152.797 50.1136C152.475 50.7765 152.022 51.2879 151.439 51.6477C150.859 52.0038 150.179 52.1818 149.399 52.1818C148.619 52.1818 147.935 51.9981 147.348 51.6307C146.761 51.2595 146.304 50.7102 145.979 49.983C145.653 49.2519 145.49 48.3485 145.49 47.2727V46.3409C145.49 44.3977 145.82 42.9242 146.479 41.9205C147.142 40.9167 148.138 40.3977 149.467 40.3636C149.937 40.3485 150.356 40.3447 150.723 40.3523C151.09 40.3598 151.411 40.3428 151.683 40.3011C151.956 40.2595 152.187 40.1591 152.376 40ZM149.399 50.9773C149.926 50.9773 150.378 50.8447 150.757 50.5795C151.14 50.3144 151.433 49.9413 151.638 49.4602C151.842 48.9754 151.945 48.4053 151.945 47.75C151.945 47.1136 151.84 46.572 151.632 46.125C151.428 45.678 151.134 45.3371 150.751 45.1023C150.369 44.8674 149.911 44.75 149.376 44.75C148.986 44.75 148.636 44.8163 148.325 44.9489C148.015 45.0814 147.75 45.2765 147.53 45.5341C147.31 45.7917 147.14 46.1061 147.018 46.4773C146.901 46.8485 146.839 47.2727 146.831 47.75C146.831 48.7273 147.06 49.5095 147.518 50.0966C147.977 50.6837 148.604 50.9773 149.399 50.9773ZM158.882 52.1818C158.094 52.1818 157.403 51.9943 156.808 51.6193C156.217 51.2443 155.755 50.7197 155.422 50.0455C155.092 49.3712 154.928 48.5833 154.928 47.6818C154.928 46.7727 155.092 45.9792 155.422 45.3011C155.755 44.6231 156.217 44.0966 156.808 43.7216C157.403 43.3466 158.094 43.1591 158.882 43.1591C159.67 43.1591 160.359 43.3466 160.95 43.7216C161.545 44.0966 162.007 44.6231 162.337 45.3011C162.67 45.9792 162.837 46.7727 162.837 47.6818C162.837 48.5833 162.67 49.3712 162.337 50.0455C162.007 50.7197 161.545 51.2443 160.95 51.6193C160.359 51.9943 159.67 52.1818 158.882 52.1818ZM158.882 50.9773C159.481 50.9773 159.973 50.8239 160.359 50.517C160.746 50.2102 161.032 49.8068 161.217 49.3068C161.403 48.8068 161.496 48.2652 161.496 47.6818C161.496 47.0985 161.403 46.5549 161.217 46.0511C161.032 45.5473 160.746 45.1402 160.359 44.8295C159.973 44.5189 159.481 44.3636 158.882 44.3636C158.284 44.3636 157.791 44.5189 157.405 44.8295C157.018 45.1402 156.732 45.5473 156.547 46.0511C156.361 46.5549 156.268 47.0985 156.268 47.6818C156.268 48.2652 156.361 48.8068 156.547 49.3068C156.732 49.8068 157.018 50.2102 157.405 50.517C157.791 50.8239 158.284 50.9773 158.882 50.9773ZM163.743 44.5227V43.2727H170.834V44.5227H167.97V52H166.629V44.5227H163.743ZM173.949 46.4318H176.449C177.472 46.4318 178.254 46.6913 178.795 47.2102C179.337 47.7292 179.608 48.3864 179.608 49.1818C179.608 49.7045 179.487 50.1799 179.244 50.608C179.002 51.0322 178.646 51.3712 178.176 51.625C177.706 51.875 177.131 52 176.449 52H172.79V43.2727H174.131V50.75H176.449C176.979 50.75 177.415 50.6098 177.756 50.3295C178.097 50.0492 178.267 49.6894 178.267 49.25C178.267 48.7879 178.097 48.411 177.756 48.1193C177.415 47.8277 176.979 47.6818 176.449 47.6818H173.949V46.4318ZM180.994 52V43.2727H182.335V52H180.994Z" fill="white"/>
</svg>
