<svg width="281" height="57" viewBox="0 0 281 57" fill="none" xmlns="http://www.w3.org/2000/svg">
<path opacity="0.6" d="M3.52273 13L0.340909 1.36364H1.77273L4.20455 10.8409H4.31818L6.79545 1.36364H8.38636L10.8636 10.8409H10.9773L13.4091 1.36364H14.8409L11.6591 13H10.2045L7.63636 3.72727H7.54545L4.97727 13H3.52273ZM16.4148 13V4.27273H17.7557V13H16.4148ZM17.0966 2.81818C16.8352 2.81818 16.6098 2.72917 16.4205 2.55114C16.2348 2.37311 16.142 2.15909 16.142 1.90909C16.142 1.65909 16.2348 1.44508 16.4205 1.26705C16.6098 1.08902 16.8352 1 17.0966 1C17.358 1 17.5814 1.08902 17.767 1.26705C17.9564 1.44508 18.0511 1.65909 18.0511 1.90909C18.0511 2.15909 17.9564 2.37311 17.767 2.55114C17.5814 2.72917 17.358 2.81818 17.0966 2.81818ZM20.2116 13V4.27273H21.5071V5.59091H21.598C21.7571 5.15909 22.045 4.80871 22.4616 4.53977C22.8783 4.27083 23.348 4.13636 23.8707 4.13636C23.9692 4.13636 24.0923 4.13826 24.2401 4.14205C24.3878 4.14583 24.4995 4.15152 24.5753 4.15909V5.52273C24.5298 5.51136 24.4257 5.49432 24.2628 5.47159C24.1037 5.44508 23.9351 5.43182 23.7571 5.43182C23.3329 5.43182 22.9541 5.52083 22.6207 5.69886C22.2912 5.87311 22.0298 6.11553 21.8366 6.42614C21.6473 6.73295 21.5526 7.08333 21.5526 7.47727V13H20.2116ZM29.5582 13.1818C28.7173 13.1818 27.992 12.9962 27.3821 12.625C26.776 12.25 26.3082 11.7273 25.9787 11.0568C25.6529 10.3826 25.4901 9.59848 25.4901 8.70455C25.4901 7.81061 25.6529 7.02273 25.9787 6.34091C26.3082 5.6553 26.7666 5.12121 27.3537 4.73864C27.9446 4.35227 28.634 4.15909 29.4219 4.15909C29.8764 4.15909 30.3253 4.23485 30.7685 4.38636C31.2116 4.53788 31.6151 4.78409 31.9787 5.125C32.3423 5.46212 32.6321 5.90909 32.848 6.46591C33.0639 7.02273 33.1719 7.70833 33.1719 8.52273V9.09091H26.4446V7.93182H31.8082C31.8082 7.43939 31.7098 7 31.5128 6.61364C31.3196 6.22727 31.0431 5.92235 30.6832 5.69886C30.3272 5.47538 29.9067 5.36364 29.4219 5.36364C28.8878 5.36364 28.4257 5.49621 28.0355 5.76136C27.6491 6.02273 27.3518 6.36364 27.1435 6.78409C26.9351 7.20455 26.831 7.6553 26.831 8.13636V8.90909C26.831 9.56818 26.9446 10.1269 27.1719 10.5852C27.4029 11.0398 27.723 11.3864 28.1321 11.625C28.5412 11.8598 29.0166 11.9773 29.5582 11.9773C29.9105 11.9773 30.2287 11.928 30.5128 11.8295C30.8007 11.7273 31.0488 11.5758 31.2571 11.375C31.4654 11.1705 31.6264 10.9167 31.7401 10.6136L33.0355 10.9773C32.8991 11.4167 32.67 11.803 32.348 12.1364C32.026 12.4659 31.6283 12.7235 31.1548 12.9091C30.6813 13.0909 30.1491 13.1818 29.5582 13.1818ZM39.098 4.27273V5.40909H34.3935V4.27273H39.098ZM35.8026 13V3.06818C35.8026 2.56818 35.92 2.15151 36.1548 1.81818C36.3897 1.48485 36.6946 1.23485 37.0696 1.06818C37.4446 0.901514 37.8404 0.818181 38.2571 0.818181C38.5866 0.818181 38.8556 0.844696 39.0639 0.897727C39.2723 0.950757 39.4276 0.999999 39.5298 1.04545L39.1435 2.20455C39.0753 2.18182 38.9806 2.15341 38.8594 2.11932C38.742 2.08523 38.5866 2.06818 38.3935 2.06818C37.9503 2.06818 37.6302 2.17992 37.4332 2.40341C37.2401 2.62689 37.1435 2.95455 37.1435 3.38636V13H35.8026ZM40.9773 13V4.27273H42.2727V5.59091H42.3636C42.5227 5.15909 42.8106 4.80871 43.2273 4.53977C43.6439 4.27083 44.1136 4.13636 44.6364 4.13636C44.7348 4.13636 44.858 4.13826 45.0057 4.14205C45.1534 4.14583 45.2652 4.15152 45.3409 4.15909V5.52273C45.2955 5.51136 45.1913 5.49432 45.0284 5.47159C44.8693 5.44508 44.7008 5.43182 44.5227 5.43182C44.0985 5.43182 43.7197 5.52083 43.3864 5.69886C43.0568 5.87311 42.7955 6.11553 42.6023 6.42614C42.4129 6.73295 42.3182 7.08333 42.3182 7.47727V13H40.9773ZM49.4986 13.2045C48.9455 13.2045 48.4437 13.1004 47.9929 12.892C47.5421 12.6799 47.1842 12.375 46.919 11.9773C46.6539 11.5758 46.5213 11.0909 46.5213 10.5227C46.5213 10.0227 46.6198 9.61742 46.8168 9.30682C47.0137 8.99242 47.277 8.74621 47.6065 8.56818C47.9361 8.39015 48.2997 8.25758 48.6974 8.17045C49.099 8.07955 49.5024 8.00758 49.9077 7.95455C50.438 7.88636 50.8679 7.83523 51.1974 7.80114C51.5308 7.76326 51.7732 7.70076 51.9247 7.61364C52.08 7.52652 52.1577 7.375 52.1577 7.15909V7.11364C52.1577 6.55303 52.0043 6.11742 51.6974 5.80682C51.3944 5.49621 50.9342 5.34091 50.3168 5.34091C49.6766 5.34091 49.1747 5.48106 48.8111 5.76136C48.4474 6.04167 48.1918 6.34091 48.044 6.65909L46.7713 6.20455C46.9986 5.67424 47.3016 5.26136 47.6804 4.96591C48.063 4.66667 48.4796 4.45833 48.9304 4.34091C49.3849 4.2197 49.8319 4.15909 50.2713 4.15909C50.5516 4.15909 50.8736 4.19318 51.2372 4.26136C51.6046 4.32576 51.9588 4.46023 52.2997 4.66477C52.6444 4.86932 52.9304 5.17803 53.1577 5.59091C53.3849 6.00379 53.4986 6.55682 53.4986 7.25V13H52.1577V11.8182H52.0895C51.9986 12.0076 51.8471 12.2102 51.6349 12.4261C51.4228 12.642 51.1406 12.8258 50.7884 12.9773C50.4361 13.1288 50.0062 13.2045 49.4986 13.2045ZM49.7031 12C50.2334 12 50.6804 11.8958 51.044 11.6875C51.4115 11.4792 51.688 11.2102 51.8736 10.8807C52.063 10.5511 52.1577 10.2045 52.1577 9.84091V8.61364C52.1009 8.68182 51.9759 8.74432 51.7827 8.80114C51.5933 8.85417 51.3736 8.90151 51.1236 8.94318C50.8774 8.98106 50.6368 9.01515 50.402 9.04545C50.1709 9.07197 49.9834 9.0947 49.8395 9.11364C49.491 9.15909 49.1652 9.23295 48.8622 9.33523C48.563 9.43371 48.3205 9.58333 48.1349 9.78409C47.9531 9.98106 47.8622 10.25 47.8622 10.5909C47.8622 11.0568 48.0346 11.4091 48.3793 11.6477C48.7277 11.8826 49.169 12 49.7031 12ZM55.946 13V4.27273H57.2415V5.63636H57.3551C57.5369 5.17045 57.8305 4.80871 58.2358 4.55114C58.6411 4.28977 59.1278 4.15909 59.696 4.15909C60.2718 4.15909 60.7509 4.28977 61.1335 4.55114C61.5199 4.80871 61.821 5.17045 62.0369 5.63636H62.1278C62.3513 5.18561 62.6866 4.82765 63.1335 4.5625C63.5805 4.29356 64.1165 4.15909 64.7415 4.15909C65.5218 4.15909 66.16 4.40341 66.6562 4.89205C67.1525 5.37689 67.4006 6.13258 67.4006 7.15909V13H66.0597V7.15909C66.0597 6.51515 65.8835 6.05492 65.5312 5.77841C65.179 5.50189 64.7642 5.36364 64.2869 5.36364C63.6733 5.36364 63.1979 5.54924 62.8608 5.92045C62.5237 6.28788 62.3551 6.75379 62.3551 7.31818V13H60.9915V7.02273C60.9915 6.52652 60.8305 6.12689 60.5085 5.82386C60.1866 5.51705 59.7718 5.36364 59.2642 5.36364C58.9157 5.36364 58.59 5.45644 58.2869 5.64205C57.9877 5.82765 57.7453 6.08523 57.5597 6.41477C57.3778 6.74053 57.2869 7.11742 57.2869 7.54545V13H55.946ZM73.5114 13.1818C72.6705 13.1818 71.9451 12.9962 71.3352 12.625C70.7292 12.25 70.2614 11.7273 69.9318 11.0568C69.6061 10.3826 69.4432 9.59848 69.4432 8.70455C69.4432 7.81061 69.6061 7.02273 69.9318 6.34091C70.2614 5.6553 70.7197 5.12121 71.3068 4.73864C71.8977 4.35227 72.5871 4.15909 73.375 4.15909C73.8295 4.15909 74.2784 4.23485 74.7216 4.38636C75.1648 4.53788 75.5682 4.78409 75.9318 5.125C76.2955 5.46212 76.5852 5.90909 76.8011 6.46591C77.017 7.02273 77.125 7.70833 77.125 8.52273V9.09091H70.3977V7.93182H75.7614C75.7614 7.43939 75.6629 7 75.4659 6.61364C75.2727 6.22727 74.9962 5.92235 74.6364 5.69886C74.2803 5.47538 73.8598 5.36364 73.375 5.36364C72.8409 5.36364 72.3788 5.49621 71.9886 5.76136C71.6023 6.02273 71.3049 6.36364 71.0966 6.78409C70.8883 7.20455 70.7841 7.6553 70.7841 8.13636V8.90909C70.7841 9.56818 70.8977 10.1269 71.125 10.5852C71.3561 11.0398 71.6761 11.3864 72.0852 11.625C72.4943 11.8598 72.9697 11.9773 73.5114 11.9773C73.8636 11.9773 74.1818 11.928 74.4659 11.8295C74.7538 11.7273 75.0019 11.5758 75.2102 11.375C75.4186 11.1705 75.5795 10.9167 75.6932 10.6136L76.9886 10.9773C76.8523 11.4167 76.6231 11.803 76.3011 12.1364C75.9792 12.4659 75.5814 12.7235 75.108 12.9091C74.6345 13.0909 74.1023 13.1818 73.5114 13.1818ZM85.3466 6.22727L84.142 6.56818C84.0663 6.36742 83.9545 6.17235 83.8068 5.98295C83.6629 5.78977 83.4659 5.63068 83.2159 5.50568C82.9659 5.38068 82.6458 5.31818 82.2557 5.31818C81.7216 5.31818 81.2765 5.44129 80.9205 5.6875C80.5682 5.92992 80.392 6.23864 80.392 6.61364C80.392 6.94697 80.5133 7.21023 80.7557 7.40341C80.9981 7.59659 81.3769 7.75758 81.892 7.88636L83.1875 8.20455C83.9678 8.39394 84.5492 8.68371 84.9318 9.07386C85.3144 9.46023 85.5057 9.95833 85.5057 10.5682C85.5057 11.0682 85.3617 11.5152 85.0739 11.9091C84.7898 12.303 84.392 12.6136 83.8807 12.8409C83.3693 13.0682 82.7746 13.1818 82.0966 13.1818C81.2064 13.1818 80.4697 12.9886 79.8864 12.6023C79.303 12.2159 78.9337 11.6515 78.7784 10.9091L80.0511 10.5909C80.1723 11.0606 80.4015 11.4129 80.7386 11.6477C81.0795 11.8826 81.5246 12 82.0739 12C82.6989 12 83.1951 11.8674 83.5625 11.6023C83.9337 11.3333 84.1193 11.0114 84.1193 10.6364C84.1193 10.3333 84.0133 10.0795 83.8011 9.875C83.589 9.66667 83.2633 9.51136 82.8239 9.40909L81.3693 9.06818C80.5701 8.87879 79.983 8.58523 79.608 8.1875C79.2367 7.78598 79.0511 7.28409 79.0511 6.68182C79.0511 6.18939 79.1894 5.75379 79.4659 5.375C79.7462 4.99621 80.1269 4.69886 80.608 4.48295C81.0928 4.26705 81.642 4.15909 82.2557 4.15909C83.1193 4.15909 83.7973 4.34848 84.2898 4.72727C84.786 5.10606 85.1383 5.60606 85.3466 6.22727ZM89.5241 11.4091L89.4332 12.0227C89.3688 12.4545 89.2704 12.9167 89.1378 13.4091C89.009 13.9015 88.8745 14.3655 88.7344 14.8011C88.5942 15.2367 88.4787 15.5833 88.3878 15.8409H87.3651C87.4143 15.5985 87.4787 15.2784 87.5582 14.8807C87.6378 14.483 87.7173 14.0379 87.7969 13.5455C87.8802 13.0568 87.9484 12.5568 88.0014 12.0455L88.0696 11.4091H89.5241ZM100.054 13.1818C99.2358 13.1818 98.5313 12.9886 97.9403 12.6023C97.3494 12.2159 96.8949 11.6837 96.5767 11.0057C96.2585 10.3277 96.0994 9.55303 96.0994 8.68182C96.0994 7.79545 96.2623 7.01326 96.5881 6.33523C96.9176 5.65341 97.3759 5.12121 97.9631 4.73864C98.554 4.35227 99.2434 4.15909 100.031 4.15909C100.645 4.15909 101.198 4.27273 101.69 4.5C102.183 4.72727 102.586 5.04545 102.901 5.45455C103.215 5.86364 103.41 6.34091 103.486 6.88636H102.145C102.043 6.48864 101.815 6.13636 101.463 5.82955C101.115 5.51894 100.645 5.36364 100.054 5.36364C99.5313 5.36364 99.0729 5.5 98.679 5.77273C98.2888 6.04167 97.9839 6.42235 97.7642 6.91477C97.5483 7.40341 97.4403 7.97727 97.4403 8.63636C97.4403 9.31061 97.5464 9.89773 97.7585 10.3977C97.9744 10.8977 98.2775 11.286 98.6676 11.5625C99.0616 11.839 99.5237 11.9773 100.054 11.9773C100.402 11.9773 100.719 11.9167 101.003 11.7955C101.287 11.6742 101.527 11.5 101.724 11.2727C101.921 11.0455 102.062 10.7727 102.145 10.4545H103.486C103.41 10.9697 103.223 11.4337 102.923 11.8466C102.628 12.2557 102.236 12.5814 101.747 12.8239C101.262 13.0625 100.698 13.1818 100.054 13.1818ZM104.759 5.52273V4.27273H111.849V5.52273H108.986V13H107.645V5.52273H104.759ZM116.898 13.1818C116.11 13.1818 115.419 12.9943 114.824 12.6193C114.233 12.2443 113.771 11.7197 113.438 11.0455C113.108 10.3712 112.943 9.58333 112.943 8.68182C112.943 7.77273 113.108 6.97917 113.438 6.30114C113.771 5.62311 114.233 5.09659 114.824 4.72159C115.419 4.34659 116.11 4.15909 116.898 4.15909C117.686 4.15909 118.375 4.34659 118.966 4.72159C119.561 5.09659 120.023 5.62311 120.352 6.30114C120.686 6.97917 120.852 7.77273 120.852 8.68182C120.852 9.58333 120.686 10.3712 120.352 11.0455C120.023 11.7197 119.561 12.2443 118.966 12.6193C118.375 12.9943 117.686 13.1818 116.898 13.1818ZM116.898 11.9773C117.496 11.9773 117.989 11.8239 118.375 11.517C118.761 11.2102 119.047 10.8068 119.233 10.3068C119.419 9.80682 119.511 9.26515 119.511 8.68182C119.511 8.09848 119.419 7.55492 119.233 7.05114C119.047 6.54735 118.761 6.14015 118.375 5.82955C117.989 5.51894 117.496 5.36364 116.898 5.36364C116.299 5.36364 115.807 5.51894 115.42 5.82955C115.034 6.14015 114.748 6.54735 114.562 7.05114C114.377 7.55492 114.284 8.09848 114.284 8.68182C114.284 9.26515 114.377 9.80682 114.562 10.3068C114.748 10.8068 115.034 11.2102 115.42 11.517C115.807 11.8239 116.299 11.9773 116.898 11.9773ZM122.899 16.2727V4.27273H124.195V5.65909H124.354C124.452 5.50758 124.589 5.31439 124.763 5.07955C124.941 4.84091 125.195 4.62879 125.524 4.44318C125.857 4.25379 126.308 4.15909 126.876 4.15909C127.611 4.15909 128.259 4.3428 128.82 4.71023C129.38 5.07765 129.818 5.59848 130.132 6.27273C130.446 6.94697 130.604 7.74242 130.604 8.65909C130.604 9.58333 130.446 10.3845 130.132 11.0625C129.818 11.7367 129.382 12.2595 128.825 12.6307C128.268 12.9981 127.626 13.1818 126.899 13.1818C126.339 13.1818 125.89 13.089 125.553 12.9034C125.215 12.714 124.956 12.5 124.774 12.2614C124.592 12.0189 124.452 11.8182 124.354 11.6591H124.24V16.2727H122.899ZM124.217 8.63636C124.217 9.29545 124.314 9.87689 124.507 10.3807C124.7 10.8807 124.982 11.2727 125.354 11.5568C125.725 11.8371 126.179 11.9773 126.717 11.9773C127.278 11.9773 127.746 11.8295 128.121 11.5341C128.5 11.2348 128.784 10.8333 128.973 10.3295C129.166 9.82197 129.263 9.25758 129.263 8.63636C129.263 8.02273 129.168 7.4697 128.979 6.97727C128.793 6.48106 128.511 6.08902 128.132 5.80114C127.757 5.50947 127.286 5.36364 126.717 5.36364C126.172 5.36364 125.714 5.50189 125.342 5.77841C124.971 6.05114 124.691 6.43371 124.501 6.92614C124.312 7.41477 124.217 7.98485 124.217 8.63636ZM133.99 11.0227L138.195 4.27273H139.74V13H138.399V6.25L134.217 13H132.649V4.27273H133.99V11.0227ZM148.673 1L149.355 1.81818C149.09 2.07576 148.783 2.25568 148.435 2.35795C148.086 2.46023 147.692 2.52273 147.253 2.54545C146.813 2.56818 146.325 2.59091 145.787 2.61364C145.181 2.63636 144.679 2.78409 144.281 3.05682C143.884 3.32955 143.577 3.72348 143.361 4.23864C143.145 4.75379 143.007 5.38636 142.946 6.13636H143.06C143.355 5.59091 143.764 5.18939 144.287 4.93182C144.81 4.67424 145.37 4.54545 145.969 4.54545C146.651 4.54545 147.264 4.70455 147.81 5.02273C148.355 5.34091 148.787 5.8125 149.105 6.4375C149.423 7.0625 149.582 7.83333 149.582 8.75C149.582 9.66288 149.42 10.4508 149.094 11.1136C148.772 11.7765 148.319 12.2879 147.736 12.6477C147.156 13.0038 146.476 13.1818 145.696 13.1818C144.916 13.1818 144.232 12.9981 143.645 12.6307C143.058 12.2595 142.601 11.7102 142.276 10.983C141.95 10.2519 141.787 9.34848 141.787 8.27273V7.34091C141.787 5.39773 142.116 3.92424 142.776 2.92045C143.438 1.91667 144.435 1.39773 145.764 1.36364C146.234 1.34848 146.652 1.3447 147.02 1.35227C147.387 1.35985 147.707 1.3428 147.98 1.30114C148.253 1.25947 148.484 1.15909 148.673 1ZM145.696 11.9773C146.223 11.9773 146.675 11.8447 147.054 11.5795C147.437 11.3144 147.73 10.9413 147.935 10.4602C148.139 9.97538 148.241 9.4053 148.241 8.75C148.241 8.11364 148.137 7.57197 147.929 7.125C147.724 6.67803 147.431 6.33712 147.048 6.10227C146.666 5.86742 146.207 5.75 145.673 5.75C145.283 5.75 144.933 5.81629 144.622 5.94886C144.312 6.08144 144.046 6.27651 143.827 6.53409C143.607 6.79167 143.437 7.10606 143.315 7.47727C143.198 7.84848 143.135 8.27273 143.128 8.75C143.128 9.72727 143.357 10.5095 143.815 11.0966C144.274 11.6837 144.901 11.9773 145.696 11.9773ZM155.179 13.1818C154.391 13.1818 153.7 12.9943 153.105 12.6193C152.514 12.2443 152.052 11.7197 151.719 11.0455C151.389 10.3712 151.224 9.58333 151.224 8.68182C151.224 7.77273 151.389 6.97917 151.719 6.30114C152.052 5.62311 152.514 5.09659 153.105 4.72159C153.7 4.34659 154.391 4.15909 155.179 4.15909C155.967 4.15909 156.656 4.34659 157.247 4.72159C157.842 5.09659 158.304 5.62311 158.634 6.30114C158.967 6.97917 159.134 7.77273 159.134 8.68182C159.134 9.58333 158.967 10.3712 158.634 11.0455C158.304 11.7197 157.842 12.2443 157.247 12.6193C156.656 12.9943 155.967 13.1818 155.179 13.1818ZM155.179 11.9773C155.777 11.9773 156.27 11.8239 156.656 11.517C157.043 11.2102 157.329 10.8068 157.514 10.3068C157.7 9.80682 157.793 9.26515 157.793 8.68182C157.793 8.09848 157.7 7.55492 157.514 7.05114C157.329 6.54735 157.043 6.14015 156.656 5.82955C156.27 5.51894 155.777 5.36364 155.179 5.36364C154.58 5.36364 154.088 5.51894 153.702 5.82955C153.315 6.14015 153.029 6.54735 152.844 7.05114C152.658 7.55492 152.565 8.09848 152.565 8.68182C152.565 9.26515 152.658 9.80682 152.844 10.3068C153.029 10.8068 153.315 11.2102 153.702 11.517C154.088 11.8239 154.58 11.9773 155.179 11.9773ZM161.18 16.2727V4.27273H162.476V5.65909H162.635C162.733 5.50758 162.87 5.31439 163.044 5.07955C163.222 4.84091 163.476 4.62879 163.805 4.44318C164.139 4.25379 164.589 4.15909 165.158 4.15909C165.893 4.15909 166.54 4.3428 167.101 4.71023C167.661 5.07765 168.099 5.59848 168.413 6.27273C168.728 6.94697 168.885 7.74242 168.885 8.65909C168.885 9.58333 168.728 10.3845 168.413 11.0625C168.099 11.7367 167.663 12.2595 167.107 12.6307C166.55 12.9981 165.908 13.1818 165.18 13.1818C164.62 13.1818 164.171 13.089 163.834 12.9034C163.497 12.714 163.237 12.5 163.055 12.2614C162.874 12.0189 162.733 11.8182 162.635 11.6591H162.521V16.2727H161.18ZM162.499 8.63636C162.499 9.29545 162.595 9.87689 162.788 10.3807C162.982 10.8807 163.264 11.2727 163.635 11.5568C164.006 11.8371 164.461 11.9773 164.999 11.9773C165.559 11.9773 166.027 11.8295 166.402 11.5341C166.781 11.2348 167.065 10.8333 167.254 10.3295C167.447 9.82197 167.544 9.25758 167.544 8.63636C167.544 8.02273 167.449 7.4697 167.26 6.97727C167.074 6.48106 166.792 6.08902 166.413 5.80114C166.038 5.50947 165.567 5.36364 164.999 5.36364C164.453 5.36364 163.995 5.50189 163.624 5.77841C163.252 6.05114 162.972 6.43371 162.783 6.92614C162.593 7.41477 162.499 7.98485 162.499 8.63636ZM169.999 15.5V11.75H170.726C170.904 11.5644 171.057 11.3636 171.186 11.1477C171.315 10.9318 171.427 10.6761 171.521 10.3807C171.62 10.0814 171.703 9.7178 171.771 9.28977C171.839 8.85795 171.9 8.33712 171.953 7.72727L172.249 4.27273H177.794V11.75H179.135V15.5H177.794V13H171.339V15.5H169.999ZM172.249 11.75H176.453V5.52273H173.499L173.271 7.72727C173.177 8.64015 173.059 9.4375 172.919 10.1193C172.779 10.8011 172.555 11.3447 172.249 11.75ZM182.074 7.43182H184.574C185.597 7.43182 186.379 7.69129 186.92 8.21023C187.462 8.72917 187.733 9.38636 187.733 10.1818C187.733 10.7045 187.612 11.1799 187.369 11.608C187.127 12.0322 186.771 12.3712 186.301 12.625C185.831 12.875 185.256 13 184.574 13H180.915V4.27273H182.256V11.75H184.574C185.104 11.75 185.54 11.6098 185.881 11.3295C186.222 11.0492 186.392 10.6894 186.392 10.25C186.392 9.78788 186.222 9.41098 185.881 9.11932C185.54 8.82765 185.104 8.68182 184.574 8.68182H182.074V7.43182ZM189.119 13V4.27273H190.46V13H189.119ZM194.915 11.4091L194.824 12.0227C194.759 12.4545 194.661 12.9167 194.528 13.4091C194.4 13.9015 194.265 14.3655 194.125 14.8011C193.985 15.2367 193.869 15.5833 193.778 15.8409H192.756C192.805 15.5985 192.869 15.2784 192.949 14.8807C193.028 14.483 193.108 14.0379 193.188 13.5455C193.271 13.0568 193.339 12.5568 193.392 12.0455L193.46 11.4091H194.915ZM201.899 13V4.27273H203.24V8.06818H204.126L207.263 4.27273H208.99L205.467 8.47727L209.036 13H207.308L204.445 9.31818H203.24V13H201.899ZM213.061 13.2045C212.508 13.2045 212.006 13.1004 211.555 12.892C211.105 12.6799 210.747 12.375 210.482 11.9773C210.216 11.5758 210.084 11.0909 210.084 10.5227C210.084 10.0227 210.182 9.61742 210.379 9.30682C210.576 8.99242 210.839 8.74621 211.169 8.56818C211.499 8.39015 211.862 8.25758 212.26 8.17045C212.661 8.07955 213.065 8.00758 213.47 7.95455C214 7.88636 214.43 7.83523 214.76 7.80114C215.093 7.76326 215.336 7.70076 215.487 7.61364C215.643 7.52652 215.72 7.375 215.72 7.15909V7.11364C215.72 6.55303 215.567 6.11742 215.26 5.80682C214.957 5.49621 214.497 5.34091 213.879 5.34091C213.239 5.34091 212.737 5.48106 212.374 5.76136C212.01 6.04167 211.754 6.34091 211.607 6.65909L210.334 6.20455C210.561 5.67424 210.864 5.26136 211.243 4.96591C211.625 4.66667 212.042 4.45833 212.493 4.34091C212.947 4.2197 213.394 4.15909 213.834 4.15909C214.114 4.15909 214.436 4.19318 214.8 4.26136C215.167 4.32576 215.521 4.46023 215.862 4.66477C216.207 4.86932 216.493 5.17803 216.72 5.59091C216.947 6.00379 217.061 6.55682 217.061 7.25V13H215.72V11.8182H215.652C215.561 12.0076 215.41 12.2102 215.197 12.4261C214.985 12.642 214.703 12.8258 214.351 12.9773C213.999 13.1288 213.569 13.2045 213.061 13.2045ZM213.266 12C213.796 12 214.243 11.8958 214.607 11.6875C214.974 11.4792 215.25 11.2102 215.436 10.8807C215.625 10.5511 215.72 10.2045 215.72 9.84091V8.61364C215.663 8.68182 215.538 8.74432 215.345 8.80114C215.156 8.85417 214.936 8.90151 214.686 8.94318C214.44 8.98106 214.199 9.01515 213.964 9.04545C213.733 9.07197 213.546 9.0947 213.402 9.11364C213.054 9.15909 212.728 9.23295 212.425 9.33523C212.125 9.43371 211.883 9.58333 211.697 9.78409C211.516 9.98106 211.425 10.25 211.425 10.5909C211.425 11.0568 211.597 11.4091 211.942 11.6477C212.29 11.8826 212.732 12 213.266 12ZM219.509 16.2727V4.27273H220.804V5.65909H220.963C221.062 5.50758 221.198 5.31439 221.372 5.07955C221.55 4.84091 221.804 4.62879 222.134 4.44318C222.467 4.25379 222.918 4.15909 223.486 4.15909C224.221 4.15909 224.868 4.3428 225.429 4.71023C225.99 5.07765 226.427 5.59848 226.741 6.27273C227.056 6.94697 227.213 7.74242 227.213 8.65909C227.213 9.58333 227.056 10.3845 226.741 11.0625C226.427 11.7367 225.991 12.2595 225.435 12.6307C224.878 12.9981 224.236 13.1818 223.509 13.1818C222.948 13.1818 222.499 13.089 222.162 12.9034C221.825 12.714 221.565 12.5 221.384 12.2614C221.202 12.0189 221.062 11.8182 220.963 11.6591H220.849V16.2727H219.509ZM220.827 8.63636C220.827 9.29545 220.923 9.87689 221.116 10.3807C221.31 10.8807 221.592 11.2727 221.963 11.5568C222.334 11.8371 222.789 11.9773 223.327 11.9773C223.887 11.9773 224.355 11.8295 224.73 11.5341C225.109 11.2348 225.393 10.8333 225.582 10.3295C225.776 9.82197 225.872 9.25758 225.872 8.63636C225.872 8.02273 225.777 7.4697 225.588 6.97727C225.402 6.48106 225.12 6.08902 224.741 5.80114C224.366 5.50947 223.895 5.36364 223.327 5.36364C222.781 5.36364 222.323 5.50189 221.952 5.77841C221.58 6.05114 221.3 6.43371 221.111 6.92614C220.921 7.41477 220.827 7.98485 220.827 8.63636ZM228.118 5.52273V4.27273H235.209V5.52273H232.345V13H231.004V5.52273H228.118ZM240.257 13.1818C239.469 13.1818 238.778 12.9943 238.183 12.6193C237.592 12.2443 237.13 11.7197 236.797 11.0455C236.467 10.3712 236.303 9.58333 236.303 8.68182C236.303 7.77273 236.467 6.97917 236.797 6.30114C237.13 5.62311 237.592 5.09659 238.183 4.72159C238.778 4.34659 239.469 4.15909 240.257 4.15909C241.045 4.15909 241.734 4.34659 242.325 4.72159C242.92 5.09659 243.382 5.62311 243.712 6.30114C244.045 6.97917 244.212 7.77273 244.212 8.68182C244.212 9.58333 244.045 10.3712 243.712 11.0455C243.382 11.7197 242.92 12.2443 242.325 12.6193C241.734 12.9943 241.045 13.1818 240.257 13.1818ZM240.257 11.9773C240.856 11.9773 241.348 11.8239 241.734 11.517C242.121 11.2102 242.407 10.8068 242.592 10.3068C242.778 9.80682 242.871 9.26515 242.871 8.68182C242.871 8.09848 242.778 7.55492 242.592 7.05114C242.407 6.54735 242.121 6.14015 241.734 5.82955C241.348 5.51894 240.856 5.36364 240.257 5.36364C239.659 5.36364 239.166 5.51894 238.78 5.82955C238.393 6.14015 238.107 6.54735 237.922 7.05114C237.736 7.55492 237.643 8.09848 237.643 8.68182C237.643 9.26515 237.736 9.80682 237.922 10.3068C238.107 10.8068 238.393 11.2102 238.78 11.517C239.166 11.8239 239.659 11.9773 240.257 11.9773ZM252.986 4.27273V13H251.645V4.27273H252.986ZM252.463 8.43182V9.68182C252.16 9.79545 251.859 9.89583 251.56 9.98295C251.26 10.0663 250.946 10.1326 250.616 10.1818C250.287 10.2273 249.925 10.25 249.531 10.25C248.543 10.25 247.749 9.98295 247.151 9.44886C246.556 8.91477 246.259 8.11364 246.259 7.04545V4.25H247.599V7.04545C247.599 7.49242 247.685 7.85985 247.855 8.14773C248.026 8.43561 248.257 8.64962 248.548 8.78977C248.84 8.92992 249.168 9 249.531 9C250.099 9 250.613 8.94886 251.071 8.84659C251.533 8.74053 251.997 8.60227 252.463 8.43182ZM261.287 8.02273V9.27273H256.469V8.02273H261.287ZM256.787 4.27273V13H255.446V4.27273H256.787ZM262.31 4.27273V13H260.969V4.27273H262.31ZM267.327 13.2045C266.774 13.2045 266.272 13.1004 265.821 12.892C265.37 12.6799 265.012 12.375 264.747 11.9773C264.482 11.5758 264.349 11.0909 264.349 10.5227C264.349 10.0227 264.448 9.61742 264.645 9.30682C264.842 8.99242 265.105 8.74621 265.435 8.56818C265.764 8.39015 266.128 8.25758 266.526 8.17045C266.927 8.07955 267.33 8.00758 267.736 7.95455C268.266 7.88636 268.696 7.83523 269.026 7.80114C269.359 7.76326 269.601 7.70076 269.753 7.61364C269.908 7.52652 269.986 7.375 269.986 7.15909V7.11364C269.986 6.55303 269.832 6.11742 269.526 5.80682C269.223 5.49621 268.762 5.34091 268.145 5.34091C267.505 5.34091 267.003 5.48106 266.639 5.76136C266.276 6.04167 266.02 6.34091 265.872 6.65909L264.599 6.20455C264.827 5.67424 265.13 5.26136 265.509 4.96591C265.891 4.66667 266.308 4.45833 266.759 4.34091C267.213 4.2197 267.66 4.15909 268.099 4.15909C268.38 4.15909 268.702 4.19318 269.065 4.26136C269.433 4.32576 269.787 4.46023 270.128 4.66477C270.473 4.86932 270.759 5.17803 270.986 5.59091C271.213 6.00379 271.327 6.55682 271.327 7.25V13H269.986V11.8182H269.918C269.827 12.0076 269.675 12.2102 269.463 12.4261C269.251 12.642 268.969 12.8258 268.616 12.9773C268.264 13.1288 267.834 13.2045 267.327 13.2045ZM267.531 12C268.062 12 268.509 11.8958 268.872 11.6875C269.24 11.4792 269.516 11.2102 269.702 10.8807C269.891 10.5511 269.986 10.2045 269.986 9.84091V8.61364C269.929 8.68182 269.804 8.74432 269.611 8.80114C269.421 8.85417 269.202 8.90151 268.952 8.94318C268.705 8.98106 268.465 9.01515 268.23 9.04545C267.999 9.07197 267.812 9.0947 267.668 9.11364C267.319 9.15909 266.993 9.23295 266.69 9.33523C266.391 9.43371 266.149 9.58333 265.963 9.78409C265.781 9.98106 265.69 10.25 265.69 10.5909C265.69 11.0568 265.863 11.4091 266.207 11.6477C266.556 11.8826 266.997 12 267.531 12ZM279.024 13V5.5H276.706C276.183 5.5 275.772 5.62121 275.473 5.86364C275.174 6.10606 275.024 6.43939 275.024 6.86364C275.024 7.2803 275.159 7.60795 275.428 7.84659C275.7 8.08523 276.073 8.20455 276.547 8.20455H279.365V9.45455H276.547C275.956 9.45455 275.446 9.35038 275.018 9.14205C274.59 8.93371 274.261 8.63636 274.03 8.25C273.799 7.85985 273.683 7.39773 273.683 6.86364C273.683 6.32576 273.804 5.86364 274.047 5.47727C274.289 5.09091 274.636 4.79356 275.087 4.58523C275.541 4.37689 276.081 4.27273 276.706 4.27273H280.297V13H279.024ZM273.206 13L275.683 8.65909H277.138L274.661 13H273.206ZM4.77273 33.1818C3.95455 33.1818 3.25 32.9886 2.65909 32.6023C2.06818 32.2159 1.61364 31.6837 1.29545 31.0057C0.977273 30.3277 0.818182 29.553 0.818182 28.6818C0.818182 27.7955 0.981061 27.0133 1.30682 26.3352C1.63636 25.6534 2.0947 25.1212 2.68182 24.7386C3.27273 24.3523 3.96212 24.1591 4.75 24.1591C5.36364 24.1591 5.91667 24.2727 6.40909 24.5C6.90152 24.7273 7.30492 25.0455 7.61932 25.4545C7.93371 25.8636 8.12879 26.3409 8.20455 26.8864H6.86364C6.76136 26.4886 6.53409 26.1364 6.18182 25.8295C5.83333 25.5189 5.36364 25.3636 4.77273 25.3636C4.25 25.3636 3.79167 25.5 3.39773 25.7727C3.00758 26.0417 2.70265 26.4223 2.48295 26.9148C2.26705 27.4034 2.15909 27.9773 2.15909 28.6364C2.15909 29.3106 2.26515 29.8977 2.47727 30.3977C2.69318 30.8977 2.99621 31.286 3.38636 31.5625C3.7803 31.839 4.24242 31.9773 4.77273 31.9773C5.12121 31.9773 5.4375 31.9167 5.72159 31.7955C6.00568 31.6742 6.24621 31.5 6.44318 31.2727C6.64015 31.0455 6.7803 30.7727 6.86364 30.4545H8.20455C8.12879 30.9697 7.94129 31.4337 7.64205 31.8466C7.34659 32.2557 6.95455 32.5814 6.46591 32.8239C5.98106 33.0625 5.41667 33.1818 4.77273 33.1818ZM13.7102 33.1818C12.9223 33.1818 12.2311 32.9943 11.6364 32.6193C11.0455 32.2443 10.5833 31.7197 10.25 31.0455C9.92045 30.3712 9.75568 29.5833 9.75568 28.6818C9.75568 27.7727 9.92045 26.9792 10.25 26.3011C10.5833 25.6231 11.0455 25.0966 11.6364 24.7216C12.2311 24.3466 12.9223 24.1591 13.7102 24.1591C14.4981 24.1591 15.1875 24.3466 15.7784 24.7216C16.3731 25.0966 16.8352 25.6231 17.1648 26.3011C17.4981 26.9792 17.6648 27.7727 17.6648 28.6818C17.6648 29.5833 17.4981 30.3712 17.1648 31.0455C16.8352 31.7197 16.3731 32.2443 15.7784 32.6193C15.1875 32.9943 14.4981 33.1818 13.7102 33.1818ZM13.7102 31.9773C14.3087 31.9773 14.8011 31.8239 15.1875 31.517C15.5739 31.2102 15.8598 30.8068 16.0455 30.3068C16.2311 29.8068 16.3239 29.2652 16.3239 28.6818C16.3239 28.0985 16.2311 27.5549 16.0455 27.0511C15.8598 26.5473 15.5739 26.1402 15.1875 25.8295C14.8011 25.5189 14.3087 25.3636 13.7102 25.3636C13.1117 25.3636 12.6193 25.5189 12.233 25.8295C11.8466 26.1402 11.5606 26.5473 11.375 27.0511C11.1894 27.5549 11.0966 28.0985 11.0966 28.6818C11.0966 29.2652 11.1894 29.8068 11.375 30.3068C11.5606 30.8068 11.8466 31.2102 12.233 31.517C12.6193 31.8239 13.1117 31.9773 13.7102 31.9773ZM19.7116 36.2727V24.2727H21.0071V25.6591H21.1662C21.2647 25.5076 21.401 25.3144 21.5753 25.0795C21.7533 24.8409 22.0071 24.6288 22.3366 24.4432C22.67 24.2538 23.1207 24.1591 23.6889 24.1591C24.4238 24.1591 25.0715 24.3428 25.6321 24.7102C26.1927 25.0777 26.6302 25.5985 26.9446 26.2727C27.259 26.947 27.4162 27.7424 27.4162 28.6591C27.4162 29.5833 27.259 30.3845 26.9446 31.0625C26.6302 31.7367 26.1946 32.2595 25.6378 32.6307C25.081 32.9981 24.4389 33.1818 23.7116 33.1818C23.151 33.1818 22.7022 33.089 22.3651 32.9034C22.0279 32.714 21.7685 32.5 21.5866 32.2614C21.4048 32.0189 21.2647 31.8182 21.1662 31.6591H21.0526V36.2727H19.7116ZM21.0298 28.6364C21.0298 29.2955 21.1264 29.8769 21.3196 30.3807C21.5128 30.8807 21.795 31.2727 22.1662 31.5568C22.5374 31.8371 22.992 31.9773 23.5298 31.9773C24.0904 31.9773 24.5582 31.8295 24.9332 31.5341C25.312 31.2348 25.5961 30.8333 25.7855 30.3295C25.9787 29.822 26.0753 29.2576 26.0753 28.6364C26.0753 28.0227 25.9806 27.4697 25.7912 26.9773C25.6056 26.4811 25.3234 26.089 24.9446 25.8011C24.5696 25.5095 24.098 25.3636 23.5298 25.3636C22.9844 25.3636 22.526 25.5019 22.1548 25.7784C21.7836 26.0511 21.5033 26.4337 21.3139 26.9261C21.1245 27.4148 21.0298 27.9848 21.0298 28.6364ZM28.321 25.5227V24.2727H35.4119V25.5227H32.5483V33H31.2074V25.5227H28.321ZM38.7088 31.0227L42.9134 24.2727H44.4588V33H43.1179V26.25L38.9361 33H37.3679V24.2727H38.7088V31.0227ZM46.9148 36.2727V24.2727H48.2102V25.6591H48.3693C48.4678 25.5076 48.6042 25.3144 48.7784 25.0795C48.9564 24.8409 49.2102 24.6288 49.5398 24.4432C49.8731 24.2538 50.3239 24.1591 50.892 24.1591C51.6269 24.1591 52.2746 24.3428 52.8352 24.7102C53.3958 25.0777 53.8333 25.5985 54.1477 26.2727C54.4621 26.947 54.6193 27.7424 54.6193 28.6591C54.6193 29.5833 54.4621 30.3845 54.1477 31.0625C53.8333 31.7367 53.3977 32.2595 52.8409 32.6307C52.2841 32.9981 51.642 33.1818 50.9148 33.1818C50.3542 33.1818 49.9053 33.089 49.5682 32.9034C49.2311 32.714 48.9716 32.5 48.7898 32.2614C48.608 32.0189 48.4678 31.8182 48.3693 31.6591H48.2557V36.2727H46.9148ZM48.233 28.6364C48.233 29.2955 48.3295 29.8769 48.5227 30.3807C48.7159 30.8807 48.9981 31.2727 49.3693 31.5568C49.7405 31.8371 50.1951 31.9773 50.733 31.9773C51.2936 31.9773 51.7614 31.8295 52.1364 31.5341C52.5152 31.2348 52.7992 30.8333 52.9886 30.3295C53.1818 29.822 53.2784 29.2576 53.2784 28.6364C53.2784 28.0227 53.1837 27.4697 52.9943 26.9773C52.8087 26.4811 52.5265 26.089 52.1477 25.8011C51.7727 25.5095 51.3011 25.3636 50.733 25.3636C50.1875 25.3636 49.7292 25.5019 49.358 25.7784C48.9867 26.0511 48.7064 26.4337 48.517 26.9261C48.3277 27.4148 48.233 27.9848 48.233 28.6364ZM60.2102 33.1818C59.4223 33.1818 58.7311 32.9943 58.1364 32.6193C57.5455 32.2443 57.0833 31.7197 56.75 31.0455C56.4205 30.3712 56.2557 29.5833 56.2557 28.6818C56.2557 27.7727 56.4205 26.9792 56.75 26.3011C57.0833 25.6231 57.5455 25.0966 58.1364 24.7216C58.7311 24.3466 59.4223 24.1591 60.2102 24.1591C60.9981 24.1591 61.6875 24.3466 62.2784 24.7216C62.8731 25.0966 63.3352 25.6231 63.6648 26.3011C63.9981 26.9792 64.1648 27.7727 64.1648 28.6818C64.1648 29.5833 63.9981 30.3712 63.6648 31.0455C63.3352 31.7197 62.8731 32.2443 62.2784 32.6193C61.6875 32.9943 60.9981 33.1818 60.2102 33.1818ZM60.2102 31.9773C60.8087 31.9773 61.3011 31.8239 61.6875 31.517C62.0739 31.2102 62.3598 30.8068 62.5455 30.3068C62.7311 29.8068 62.8239 29.2652 62.8239 28.6818C62.8239 28.0985 62.7311 27.5549 62.5455 27.0511C62.3598 26.5473 62.0739 26.1402 61.6875 25.8295C61.3011 25.5189 60.8087 25.3636 60.2102 25.3636C59.6117 25.3636 59.1193 25.5189 58.733 25.8295C58.3466 26.1402 58.0606 26.5473 57.875 27.0511C57.6894 27.5549 57.5966 28.0985 57.5966 28.6818C57.5966 29.2652 57.6894 29.8068 57.875 30.3068C58.0606 30.8068 58.3466 31.2102 58.733 31.517C59.1193 31.8239 59.6117 31.9773 60.2102 31.9773ZM66.2116 33V24.2727H69.7798C70.7192 24.2727 71.4654 24.4848 72.0185 24.9091C72.5715 25.3333 72.848 25.8939 72.848 26.5909C72.848 27.1212 72.6908 27.5322 72.3764 27.8239C72.062 28.1117 71.6586 28.3068 71.1662 28.4091C71.4882 28.4545 71.8007 28.5682 72.1037 28.75C72.4105 28.9318 72.6643 29.1818 72.8651 29.5C73.0658 29.8144 73.1662 30.2008 73.1662 30.6591C73.1662 31.1061 73.0526 31.5057 72.8253 31.858C72.598 32.2102 72.2723 32.4886 71.848 32.6932C71.4238 32.8977 70.9162 33 70.3253 33H66.2116ZM67.4844 31.7727H70.3253C70.7874 31.7727 71.1491 31.6629 71.4105 31.4432C71.6719 31.2235 71.8026 30.9242 71.8026 30.5455C71.8026 30.0947 71.6719 29.7405 71.4105 29.483C71.1491 29.2216 70.7874 29.0909 70.3253 29.0909H67.4844V31.7727ZM67.4844 27.9318H69.7798C70.1397 27.9318 70.4484 27.8826 70.706 27.7841C70.9635 27.6818 71.1605 27.5379 71.2969 27.3523C71.437 27.1629 71.5071 26.9394 71.5071 26.6818C71.5071 26.3144 71.3537 26.0265 71.0469 25.8182C70.7401 25.6061 70.3177 25.5 69.7798 25.5H67.4844V27.9318ZM75.196 33V24.2727H76.5369V28.0682H77.4233L80.5597 24.2727H82.2869L78.7642 28.4773L82.3324 33H80.6051L77.7415 29.3182H76.5369V33H75.196ZM86.358 33.2045C85.8049 33.2045 85.303 33.1004 84.8523 32.892C84.4015 32.6799 84.0436 32.375 83.7784 31.9773C83.5133 31.5758 83.3807 31.0909 83.3807 30.5227C83.3807 30.0227 83.4792 29.6174 83.6761 29.3068C83.8731 28.9924 84.1364 28.7462 84.4659 28.5682C84.7955 28.3902 85.1591 28.2576 85.5568 28.1705C85.9583 28.0795 86.3617 28.0076 86.767 27.9545C87.2973 27.8864 87.7273 27.8352 88.0568 27.8011C88.3902 27.7633 88.6326 27.7008 88.7841 27.6136C88.9394 27.5265 89.017 27.375 89.017 27.1591V27.1136C89.017 26.553 88.8636 26.1174 88.5568 25.8068C88.2538 25.4962 87.7936 25.3409 87.1761 25.3409C86.536 25.3409 86.0341 25.4811 85.6705 25.7614C85.3068 26.0417 85.0511 26.3409 84.9034 26.6591L83.6307 26.2045C83.858 25.6742 84.161 25.2614 84.5398 24.9659C84.9223 24.6667 85.339 24.4583 85.7898 24.3409C86.2443 24.2197 86.6913 24.1591 87.1307 24.1591C87.411 24.1591 87.733 24.1932 88.0966 24.2614C88.464 24.3258 88.8182 24.4602 89.1591 24.6648C89.5038 24.8693 89.7898 25.178 90.017 25.5909C90.2443 26.0038 90.358 26.5568 90.358 27.25V33H89.017V31.8182H88.9489C88.858 32.0076 88.7064 32.2102 88.4943 32.4261C88.2822 32.642 88 32.8258 87.6477 32.9773C87.2955 33.1288 86.8655 33.2045 86.358 33.2045ZM86.5625 32C87.0928 32 87.5398 31.8958 87.9034 31.6875C88.2708 31.4792 88.5473 31.2102 88.733 30.8807C88.9223 30.5511 89.017 30.2045 89.017 29.8409V28.6136C88.9602 28.6818 88.8352 28.7443 88.642 28.8011C88.4527 28.8542 88.233 28.9015 87.983 28.9432C87.7367 28.9811 87.4962 29.0152 87.2614 29.0455C87.0303 29.072 86.8428 29.0947 86.6989 29.1136C86.3504 29.1591 86.0246 29.233 85.7216 29.3352C85.4223 29.4337 85.1799 29.5833 84.9943 29.7841C84.8125 29.9811 84.7216 30.25 84.7216 30.5909C84.7216 31.0568 84.8939 31.4091 85.2386 31.6477C85.5871 31.8826 86.0284 32 86.5625 32ZM94.8054 31.4091L94.7145 32.0227C94.6501 32.4545 94.5516 32.9167 94.419 33.4091C94.2902 33.9015 94.1558 34.3655 94.0156 34.8011C93.8755 35.2367 93.7599 35.5833 93.669 35.8409H92.6463C92.6955 35.5985 92.7599 35.2784 92.8395 34.8807C92.919 34.483 92.9986 34.0379 93.0781 33.5455C93.1615 33.0568 93.2296 32.5568 93.2827 32.0455L93.3509 31.4091H94.8054ZM109.608 21.3636H111.017V29.0682C111.017 29.8636 110.83 30.5739 110.455 31.1989C110.083 31.8201 109.559 32.3106 108.881 32.6705C108.203 33.0265 107.407 33.2045 106.494 33.2045C105.581 33.2045 104.786 33.0265 104.108 32.6705C103.43 32.3106 102.903 31.8201 102.528 31.1989C102.157 30.5739 101.972 29.8636 101.972 29.0682V21.3636H103.381V28.9545C103.381 29.5227 103.506 30.0284 103.756 30.4716C104.006 30.911 104.362 31.2576 104.824 31.5114C105.29 31.7614 105.847 31.8864 106.494 31.8864C107.142 31.8864 107.699 31.7614 108.165 31.5114C108.631 31.2576 108.987 30.911 109.233 30.4716C109.483 30.0284 109.608 29.5227 109.608 28.9545V21.3636ZM119.831 26.2273L118.626 26.5682C118.551 26.3674 118.439 26.1723 118.291 25.983C118.147 25.7898 117.95 25.6307 117.7 25.5057C117.45 25.3807 117.13 25.3182 116.74 25.3182C116.206 25.3182 115.761 25.4413 115.405 25.6875C115.053 25.9299 114.876 26.2386 114.876 26.6136C114.876 26.947 114.998 27.2102 115.24 27.4034C115.482 27.5966 115.861 27.7576 116.376 27.8864L117.672 28.2045C118.452 28.3939 119.034 28.6837 119.416 29.0739C119.799 29.4602 119.99 29.9583 119.99 30.5682C119.99 31.0682 119.846 31.5152 119.558 31.9091C119.274 32.303 118.876 32.6136 118.365 32.8409C117.854 33.0682 117.259 33.1818 116.581 33.1818C115.691 33.1818 114.954 32.9886 114.371 32.6023C113.787 32.2159 113.418 31.6515 113.263 30.9091L114.536 30.5909C114.657 31.0606 114.886 31.4129 115.223 31.6477C115.564 31.8826 116.009 32 116.558 32C117.183 32 117.679 31.8674 118.047 31.6023C118.418 31.3333 118.604 31.0114 118.604 30.6364C118.604 30.3333 118.498 30.0795 118.286 29.875C118.073 29.6667 117.748 29.5114 117.308 29.4091L115.854 29.0682C115.054 28.8788 114.467 28.5852 114.092 28.1875C113.721 27.786 113.536 27.2841 113.536 26.6818C113.536 26.1894 113.674 25.7538 113.95 25.375C114.231 24.9962 114.611 24.6989 115.092 24.483C115.577 24.267 116.126 24.1591 116.74 24.1591C117.604 24.1591 118.282 24.3485 118.774 24.7273C119.27 25.1061 119.623 25.6061 119.831 26.2273ZM125.668 33.1818C124.827 33.1818 124.101 32.9962 123.491 32.625C122.885 32.25 122.418 31.7273 122.088 31.0568C121.762 30.3826 121.599 29.5985 121.599 28.7045C121.599 27.8106 121.762 27.0227 122.088 26.3409C122.418 25.6553 122.876 25.1212 123.463 24.7386C124.054 24.3523 124.743 24.1591 125.531 24.1591C125.986 24.1591 126.435 24.2348 126.878 24.3864C127.321 24.5379 127.724 24.7841 128.088 25.125C128.452 25.4621 128.741 25.9091 128.957 26.4659C129.173 27.0227 129.281 27.7083 129.281 28.5227V29.0909H122.554V27.9318H127.918C127.918 27.4394 127.819 27 127.622 26.6136C127.429 26.2273 127.152 25.9223 126.793 25.6989C126.437 25.4754 126.016 25.3636 125.531 25.3636C124.997 25.3636 124.535 25.4962 124.145 25.7614C123.759 26.0227 123.461 26.3636 123.253 26.7841C123.045 27.2045 122.94 27.6553 122.94 28.1364V28.9091C122.94 29.5682 123.054 30.1269 123.281 30.5852C123.512 31.0398 123.832 31.3864 124.241 31.625C124.651 31.8598 125.126 31.9773 125.668 31.9773C126.02 31.9773 126.338 31.928 126.622 31.8295C126.91 31.7273 127.158 31.5758 127.366 31.375C127.575 31.1705 127.736 30.9167 127.849 30.6136L129.145 30.9773C129.009 31.4167 128.779 31.803 128.457 32.1364C128.135 32.4659 127.738 32.7235 127.264 32.9091C126.791 33.0909 126.259 33.1818 125.668 33.1818ZM131.321 33V24.2727H132.616V25.5909H132.707C132.866 25.1591 133.154 24.8087 133.571 24.5398C133.988 24.2708 134.457 24.1364 134.98 24.1364C135.079 24.1364 135.202 24.1383 135.349 24.142C135.497 24.1458 135.609 24.1515 135.685 24.1591V25.5227C135.639 25.5114 135.535 25.4943 135.372 25.4716C135.213 25.4451 135.045 25.4318 134.866 25.4318C134.442 25.4318 134.063 25.5208 133.73 25.6989C133.401 25.8731 133.139 26.1155 132.946 26.4261C132.757 26.733 132.662 27.0833 132.662 27.4773V33H131.321ZM141.956 33V21.3636H148.933V22.6136H143.365V26.5455H148.411V27.7955H143.365V33H141.956ZM152.506 21.3636V33H151.165V21.3636H152.506ZM158.507 33.1818C157.719 33.1818 157.028 32.9943 156.433 32.6193C155.842 32.2443 155.38 31.7197 155.047 31.0455C154.717 30.3712 154.553 29.5833 154.553 28.6818C154.553 27.7727 154.717 26.9792 155.047 26.3011C155.38 25.6231 155.842 25.0966 156.433 24.7216C157.028 24.3466 157.719 24.1591 158.507 24.1591C159.295 24.1591 159.984 24.3466 160.575 24.7216C161.17 25.0966 161.632 25.6231 161.962 26.3011C162.295 26.9792 162.462 27.7727 162.462 28.6818C162.462 29.5833 162.295 30.3712 161.962 31.0455C161.632 31.7197 161.17 32.2443 160.575 32.6193C159.984 32.9943 159.295 33.1818 158.507 33.1818ZM158.507 31.9773C159.106 31.9773 159.598 31.8239 159.984 31.517C160.371 31.2102 160.657 30.8068 160.842 30.3068C161.028 29.8068 161.121 29.2652 161.121 28.6818C161.121 28.0985 161.028 27.5549 160.842 27.0511C160.657 26.5473 160.371 26.1402 159.984 25.8295C159.598 25.5189 159.106 25.3636 158.507 25.3636C157.909 25.3636 157.416 25.5189 157.03 25.8295C156.643 26.1402 156.357 26.5473 156.172 27.0511C155.986 27.5549 155.893 28.0985 155.893 28.6818C155.893 29.2652 155.986 29.8068 156.172 30.3068C156.357 30.8068 156.643 31.2102 157.03 31.517C157.416 31.8239 157.909 31.9773 158.507 31.9773ZM166.189 33L163.53 24.2727H164.939L166.825 30.9545H166.916L168.78 24.2727H170.212L172.053 30.9318H172.143L174.03 24.2727H175.439L172.78 33H171.462L169.553 26.2955H169.416L167.507 33H166.189ZM178.024 31.4091L177.933 32.0227C177.869 32.4545 177.77 32.9167 177.638 33.4091C177.509 33.9015 177.375 34.3655 177.234 34.8011C177.094 35.2367 176.979 35.5833 176.888 35.8409H175.865C175.914 35.5985 175.979 35.2784 176.058 34.8807C176.138 34.483 176.217 34.0379 176.297 33.5455C176.38 33.0568 176.448 32.5568 176.501 32.0455L176.57 31.4091H178.024ZM189.19 28.0909V29.3409H184.577V28.0909H189.19ZM185.713 24.2727V33H184.372V24.2727H185.713ZM191.872 33.1818C191.084 33.1818 190.393 32.9943 189.798 32.6193C189.207 32.2443 188.745 31.7197 188.412 31.0455C188.082 30.3712 187.918 29.5833 187.918 28.6818C187.918 27.7727 188.082 26.9792 188.412 26.3011C188.745 25.6231 189.207 25.0966 189.798 24.7216C190.393 24.3466 191.084 24.1591 191.872 24.1591C192.66 24.1591 193.349 24.3466 193.94 24.7216C194.535 25.0966 194.997 25.6231 195.327 26.3011C195.66 26.9792 195.827 27.7727 195.827 28.6818C195.827 29.5833 195.66 30.3712 195.327 31.0455C194.997 31.7197 194.535 32.2443 193.94 32.6193C193.349 32.9943 192.66 33.1818 191.872 33.1818ZM191.872 31.9773C192.471 31.9773 192.963 31.8239 193.349 31.517C193.736 31.2102 194.022 30.8068 194.207 30.3068C194.393 29.8068 194.486 29.2652 194.486 28.6818C194.486 28.0985 194.393 27.5549 194.207 27.0511C194.022 26.5473 193.736 26.1402 193.349 25.8295C192.963 25.5189 192.471 25.3636 191.872 25.3636C191.274 25.3636 190.781 25.5189 190.395 25.8295C190.009 26.1402 189.723 26.5473 189.537 27.0511C189.351 27.5549 189.259 28.0985 189.259 28.6818C189.259 29.2652 189.351 29.8068 189.537 30.3068C189.723 30.8068 190.009 31.2102 190.395 31.517C190.781 31.8239 191.274 31.9773 191.872 31.9773ZM197.463 30.7727H198.895C198.925 31.1667 199.103 31.4659 199.429 31.6705C199.759 31.875 200.187 31.9773 200.713 31.9773C201.251 31.9773 201.711 31.8674 202.094 31.6477C202.476 31.4242 202.668 31.0644 202.668 30.5682C202.668 30.2765 202.596 30.0227 202.452 29.8068C202.308 29.5871 202.105 29.4167 201.844 29.2955C201.582 29.1742 201.274 29.1136 200.918 29.1136H199.418V27.9091H200.918C201.452 27.9091 201.846 27.7879 202.099 27.5455C202.357 27.303 202.486 27 202.486 26.6364C202.486 26.2462 202.348 25.9337 202.071 25.6989C201.795 25.4602 201.402 25.3409 200.895 25.3409C200.384 25.3409 199.957 25.4564 199.616 25.6875C199.276 25.9148 199.096 26.2083 199.077 26.5682H197.668C197.683 26.0985 197.827 25.6837 198.099 25.3239C198.372 24.9602 198.743 24.6761 199.213 24.4716C199.683 24.2633 200.221 24.1591 200.827 24.1591C201.44 24.1591 201.973 24.267 202.423 24.483C202.878 24.6951 203.228 24.9848 203.474 25.3523C203.724 25.7159 203.849 26.1288 203.849 26.5909C203.849 27.0833 203.711 27.4811 203.435 27.7841C203.158 28.0871 202.812 28.303 202.395 28.4318V28.5227C202.724 28.5455 203.01 28.6515 203.253 28.8409C203.499 29.0265 203.69 29.2708 203.827 29.5739C203.963 29.8731 204.031 30.2045 204.031 30.5682C204.031 31.0985 203.889 31.5606 203.605 31.9545C203.321 32.3447 202.931 32.6477 202.435 32.8636C201.938 33.0758 201.372 33.1818 200.736 33.1818C200.118 33.1818 199.565 33.0814 199.077 32.8807C198.588 32.6761 198.2 32.3939 197.912 32.0341C197.628 31.6705 197.478 31.25 197.463 30.7727ZM208.483 33.2045C207.93 33.2045 207.428 33.1004 206.977 32.892C206.527 32.6799 206.169 32.375 205.903 31.9773C205.638 31.5758 205.506 31.0909 205.506 30.5227C205.506 30.0227 205.604 29.6174 205.801 29.3068C205.998 28.9924 206.261 28.7462 206.591 28.5682C206.92 28.3902 207.284 28.2576 207.682 28.1705C208.083 28.0795 208.487 28.0076 208.892 27.9545C209.422 27.8864 209.852 27.8352 210.182 27.8011C210.515 27.7633 210.758 27.7008 210.909 27.6136C211.064 27.5265 211.142 27.375 211.142 27.1591V27.1136C211.142 26.553 210.989 26.1174 210.682 25.8068C210.379 25.4962 209.919 25.3409 209.301 25.3409C208.661 25.3409 208.159 25.4811 207.795 25.7614C207.432 26.0417 207.176 26.3409 207.028 26.6591L205.756 26.2045C205.983 25.6742 206.286 25.2614 206.665 24.9659C207.047 24.6667 207.464 24.4583 207.915 24.3409C208.369 24.2197 208.816 24.1591 209.256 24.1591C209.536 24.1591 209.858 24.1932 210.222 24.2614C210.589 24.3258 210.943 24.4602 211.284 24.6648C211.629 24.8693 211.915 25.178 212.142 25.5909C212.369 26.0038 212.483 26.5568 212.483 27.25V33H211.142V31.8182H211.074C210.983 32.0076 210.831 32.2102 210.619 32.4261C210.407 32.642 210.125 32.8258 209.773 32.9773C209.42 33.1288 208.991 33.2045 208.483 33.2045ZM208.688 32C209.218 32 209.665 31.8958 210.028 31.6875C210.396 31.4792 210.672 31.2102 210.858 30.8807C211.047 30.5511 211.142 30.2045 211.142 29.8409V28.6136C211.085 28.6818 210.96 28.7443 210.767 28.8011C210.578 28.8542 210.358 28.9015 210.108 28.9432C209.862 28.9811 209.621 29.0152 209.386 29.0455C209.155 29.072 208.968 29.0947 208.824 29.1136C208.475 29.1591 208.15 29.233 207.847 29.3352C207.547 29.4337 207.305 29.5833 207.119 29.7841C206.938 29.9811 206.847 30.25 206.847 30.5909C206.847 31.0568 207.019 31.4091 207.364 31.6477C207.712 31.8826 208.153 32 208.688 32ZM221.408 21L222.089 21.8182C221.824 22.0758 221.518 22.2557 221.169 22.358C220.821 22.4602 220.427 22.5227 219.987 22.5455C219.548 22.5682 219.059 22.5909 218.521 22.6136C217.915 22.6364 217.413 22.7841 217.016 23.0568C216.618 23.3295 216.311 23.7235 216.095 24.2386C215.879 24.7538 215.741 25.3864 215.68 26.1364H215.794C216.089 25.5909 216.499 25.1894 217.021 24.9318C217.544 24.6742 218.105 24.5455 218.703 24.5455C219.385 24.5455 219.999 24.7045 220.544 25.0227C221.089 25.3409 221.521 25.8125 221.839 26.4375C222.158 27.0625 222.317 27.8333 222.317 28.75C222.317 29.6629 222.154 30.4508 221.828 31.1136C221.506 31.7765 221.054 32.2879 220.47 32.6477C219.891 33.0038 219.211 33.1818 218.43 33.1818C217.65 33.1818 216.966 32.9981 216.379 32.6307C215.792 32.2595 215.336 31.7102 215.01 30.983C214.684 30.2519 214.521 29.3485 214.521 28.2727V27.3409C214.521 25.3977 214.851 23.9242 215.51 22.9205C216.173 21.9167 217.169 21.3977 218.499 21.3636C218.968 21.3485 219.387 21.3447 219.754 21.3523C220.122 21.3598 220.442 21.3428 220.714 21.3011C220.987 21.2595 221.218 21.1591 221.408 21ZM218.43 31.9773C218.957 31.9773 219.41 31.8447 219.788 31.5795C220.171 31.3144 220.464 30.9413 220.669 30.4602C220.874 29.9754 220.976 29.4053 220.976 28.75C220.976 28.1136 220.872 27.572 220.663 27.125C220.459 26.678 220.165 26.3371 219.783 26.1023C219.4 25.8674 218.942 25.75 218.408 25.75C218.018 25.75 217.667 25.8163 217.357 25.9489C217.046 26.0814 216.781 26.2765 216.561 26.5341C216.341 26.7917 216.171 27.1061 216.05 27.4773C215.932 27.8485 215.87 28.2727 215.862 28.75C215.862 29.7273 216.091 30.5095 216.55 31.0966C217.008 31.6837 217.635 31.9773 218.43 31.9773ZM225.709 31.0227L229.913 24.2727H231.459V33H230.118V26.25L225.936 33H224.368V24.2727H225.709V31.0227ZM233.142 33V31.75H233.46C233.722 31.75 233.939 31.6989 234.114 31.5966C234.288 31.4905 234.428 31.3068 234.534 31.0455C234.644 30.7803 234.727 30.4129 234.784 29.9432C234.845 29.4697 234.888 28.8674 234.915 28.1364L235.074 24.2727H240.892V33H239.551V25.5227H236.347L236.21 28.6364C236.18 29.3523 236.116 29.983 236.017 30.5284C235.922 31.0701 235.777 31.5246 235.58 31.892C235.386 32.2595 235.129 32.536 234.807 32.7216C234.485 32.9072 234.081 33 233.597 33H233.142ZM244.693 31.0227L248.898 24.2727H250.443V33H249.102V26.25L244.92 33H243.352V24.2727H244.693V31.0227ZM251.712 25.5227V24.2727H258.803V25.5227H255.939V33H254.598V25.5227H251.712ZM262.099 31.0227L266.304 24.2727H267.849V33H266.509V26.25L262.327 33H260.759V24.2727H262.099V31.0227ZM275.305 27.3864V28.6364H270.214V27.3864H275.305ZM0.727273 45.5227V44.2727H7.81818V45.5227H4.95455V53H3.61364V45.5227H0.727273ZM12.9801 53.1818C12.1392 53.1818 11.4138 52.9962 10.804 52.625C10.1979 52.25 9.73011 51.7273 9.40057 51.0568C9.07481 50.3826 8.91193 49.5985 8.91193 48.7045C8.91193 47.8106 9.07481 47.0227 9.40057 46.3409C9.73011 45.6553 10.1884 45.1212 10.7756 44.7386C11.3665 44.3523 12.0559 44.1591 12.8438 44.1591C13.2983 44.1591 13.7472 44.2348 14.1903 44.3864C14.6335 44.5379 15.0369 44.7841 15.4006 45.125C15.7642 45.4621 16.054 45.9091 16.2699 46.4659C16.4858 47.0227 16.5938 47.7083 16.5938 48.5227V49.0909H9.86648V47.9318H15.2301C15.2301 47.4394 15.1316 47 14.9347 46.6136C14.7415 46.2273 14.465 45.9223 14.1051 45.6989C13.7491 45.4754 13.3286 45.3636 12.8438 45.3636C12.3097 45.3636 11.8475 45.4962 11.4574 45.7614C11.071 46.0227 10.7737 46.3636 10.5653 46.7841C10.357 47.2045 10.2528 47.6553 10.2528 48.1364V48.9091C10.2528 49.5682 10.3665 50.1269 10.5938 50.5852C10.8248 51.0398 11.1449 51.3864 11.554 51.625C11.9631 51.8598 12.4384 51.9773 12.9801 51.9773C13.3324 51.9773 13.6506 51.928 13.9347 51.8295C14.2225 51.7273 14.4706 51.5758 14.679 51.375C14.8873 51.1705 15.0483 50.9167 15.1619 50.6136L16.4574 50.9773C16.321 51.4167 16.0919 51.803 15.7699 52.1364C15.4479 52.4659 15.0502 52.7235 14.5767 52.9091C14.1032 53.0909 13.571 53.1818 12.9801 53.1818ZM22.179 53.1818C21.3608 53.1818 20.6563 52.9886 20.0653 52.6023C19.4744 52.2159 19.0199 51.6837 18.7017 51.0057C18.3835 50.3277 18.2244 49.553 18.2244 48.6818C18.2244 47.7955 18.3873 47.0133 18.7131 46.3352C19.0426 45.6534 19.5009 45.1212 20.0881 44.7386C20.679 44.3523 21.3684 44.1591 22.1562 44.1591C22.7699 44.1591 23.3229 44.2727 23.8153 44.5C24.3078 44.7273 24.7112 45.0455 25.0256 45.4545C25.34 45.8636 25.535 46.3409 25.6108 46.8864H24.2699C24.1676 46.4886 23.9403 46.1364 23.5881 45.8295C23.2396 45.5189 22.7699 45.3636 22.179 45.3636C21.6563 45.3636 21.1979 45.5 20.804 45.7727C20.4138 46.0417 20.1089 46.4223 19.8892 46.9148C19.6733 47.4034 19.5653 47.9773 19.5653 48.6364C19.5653 49.3106 19.6714 49.8977 19.8835 50.3977C20.0994 50.8977 20.4025 51.286 20.7926 51.5625C21.1866 51.839 21.6487 51.9773 22.179 51.9773C22.5275 51.9773 22.8438 51.9167 23.1278 51.7955C23.4119 51.6742 23.6525 51.5 23.8494 51.2727C24.0464 51.0455 24.1866 50.7727 24.2699 50.4545H25.6108C25.535 50.9697 25.3475 51.4337 25.0483 51.8466C24.7528 52.2557 24.3608 52.5814 23.8722 52.8239C23.3873 53.0625 22.8229 53.1818 22.179 53.1818ZM26.8835 45.5227V44.2727H33.9744V45.5227H31.1108V53H29.7699V45.5227H26.8835ZM37.2713 51.0227L41.4759 44.2727H43.0213V53H41.6804V46.25L37.4986 53H35.9304V44.2727H37.2713V51.0227ZM45.4773 56.2727V44.2727H46.7727V45.6591H46.9318C47.0303 45.5076 47.1667 45.3144 47.3409 45.0795C47.5189 44.8409 47.7727 44.6288 48.1023 44.4432C48.4356 44.2538 48.8864 44.1591 49.4545 44.1591C50.1894 44.1591 50.8371 44.3428 51.3977 44.7102C51.9583 45.0777 52.3958 45.5985 52.7102 46.2727C53.0246 46.947 53.1818 47.7424 53.1818 48.6591C53.1818 49.5833 53.0246 50.3845 52.7102 51.0625C52.3958 51.7367 51.9602 52.2595 51.4034 52.6307C50.8466 52.9981 50.2045 53.1818 49.4773 53.1818C48.9167 53.1818 48.4678 53.089 48.1307 52.9034C47.7936 52.714 47.5341 52.5 47.3523 52.2614C47.1705 52.0189 47.0303 51.8182 46.9318 51.6591H46.8182V56.2727H45.4773ZM46.7955 48.6364C46.7955 49.2955 46.892 49.8769 47.0852 50.3807C47.2784 50.8807 47.5606 51.2727 47.9318 51.5568C48.303 51.8371 48.7576 51.9773 49.2955 51.9773C49.8561 51.9773 50.3239 51.8295 50.6989 51.5341C51.0777 51.2348 51.3617 50.8333 51.5511 50.3295C51.7443 49.822 51.8409 49.2576 51.8409 48.6364C51.8409 48.0227 51.7462 47.4697 51.5568 46.9773C51.3712 46.4811 51.089 46.089 50.7102 45.8011C50.3352 45.5095 49.8636 45.3636 49.2955 45.3636C48.75 45.3636 48.2917 45.5019 47.9205 45.7784C47.5492 46.0511 47.2689 46.4337 47.0795 46.9261C46.8902 47.4148 46.7955 47.9848 46.7955 48.6364ZM58.7727 53.1818C57.9848 53.1818 57.2936 52.9943 56.6989 52.6193C56.108 52.2443 55.6458 51.7197 55.3125 51.0455C54.983 50.3712 54.8182 49.5833 54.8182 48.6818C54.8182 47.7727 54.983 46.9792 55.3125 46.3011C55.6458 45.6231 56.108 45.0966 56.6989 44.7216C57.2936 44.3466 57.9848 44.1591 58.7727 44.1591C59.5606 44.1591 60.25 44.3466 60.8409 44.7216C61.4356 45.0966 61.8977 45.6231 62.2273 46.3011C62.5606 46.9792 62.7273 47.7727 62.7273 48.6818C62.7273 49.5833 62.5606 50.3712 62.2273 51.0455C61.8977 51.7197 61.4356 52.2443 60.8409 52.6193C60.25 52.9943 59.5606 53.1818 58.7727 53.1818ZM58.7727 51.9773C59.3712 51.9773 59.8636 51.8239 60.25 51.517C60.6364 51.2102 60.9223 50.8068 61.108 50.3068C61.2936 49.8068 61.3864 49.2652 61.3864 48.6818C61.3864 48.0985 61.2936 47.5549 61.108 47.0511C60.9223 46.5473 60.6364 46.1402 60.25 45.8295C59.8636 45.5189 59.3712 45.3636 58.7727 45.3636C58.1742 45.3636 57.6818 45.5189 57.2955 45.8295C56.9091 46.1402 56.6231 46.5473 56.4375 47.0511C56.2519 47.5549 56.1591 48.0985 56.1591 48.6818C56.1591 49.2652 56.2519 49.8068 56.4375 50.3068C56.6231 50.8068 56.9091 51.2102 57.2955 51.517C57.6818 51.8239 58.1742 51.9773 58.7727 51.9773ZM64.7741 53V44.2727H68.3423C69.2817 44.2727 70.0279 44.4848 70.581 44.9091C71.134 45.3333 71.4105 45.8939 71.4105 46.5909C71.4105 47.1212 71.2533 47.5322 70.9389 47.8239C70.6245 48.1117 70.2211 48.3068 69.7287 48.4091C70.0507 48.4545 70.3632 48.5682 70.6662 48.75C70.973 48.9318 71.2268 49.1818 71.4276 49.5C71.6283 49.8144 71.7287 50.2008 71.7287 50.6591C71.7287 51.1061 71.6151 51.5057 71.3878 51.858C71.1605 52.2102 70.8348 52.4886 70.4105 52.6932C69.9863 52.8977 69.4787 53 68.8878 53H64.7741ZM66.0469 51.7727H68.8878C69.3499 51.7727 69.7116 51.6629 69.973 51.4432C70.2344 51.2235 70.3651 50.9242 70.3651 50.5455C70.3651 50.0947 70.2344 49.7405 69.973 49.483C69.7116 49.2216 69.3499 49.0909 68.8878 49.0909H66.0469V51.7727ZM66.0469 47.9318H68.3423C68.7022 47.9318 69.0109 47.8826 69.2685 47.7841C69.526 47.6818 69.723 47.5379 69.8594 47.3523C69.9995 47.1629 70.0696 46.9394 70.0696 46.6818C70.0696 46.3144 69.9162 46.0265 69.6094 45.8182C69.3026 45.6061 68.8802 45.5 68.3423 45.5H66.0469V47.9318ZM76.3267 53.2045C75.7737 53.2045 75.2718 53.1004 74.821 52.892C74.3703 52.6799 74.0123 52.375 73.7472 51.9773C73.482 51.5758 73.3494 51.0909 73.3494 50.5227C73.3494 50.0227 73.4479 49.6174 73.6449 49.3068C73.8419 48.9924 74.1051 48.7462 74.4347 48.5682C74.7642 48.3902 75.1278 48.2576 75.5256 48.1705C75.9271 48.0795 76.3305 48.0076 76.7358 47.9545C77.2661 47.8864 77.696 47.8352 78.0256 47.8011C78.3589 47.7633 78.6013 47.7008 78.7528 47.6136C78.9081 47.5265 78.9858 47.375 78.9858 47.1591V47.1136C78.9858 46.553 78.8324 46.1174 78.5256 45.8068C78.2225 45.4962 77.7623 45.3409 77.1449 45.3409C76.5047 45.3409 76.0028 45.4811 75.6392 45.7614C75.2756 46.0417 75.0199 46.3409 74.8722 46.6591L73.5994 46.2045C73.8267 45.6742 74.1297 45.2614 74.5085 44.9659C74.8911 44.6667 75.3078 44.4583 75.7585 44.3409C76.2131 44.2197 76.66 44.1591 77.0994 44.1591C77.3797 44.1591 77.7017 44.1932 78.0653 44.2614C78.4328 44.3258 78.7869 44.4602 79.1278 44.6648C79.4725 44.8693 79.7585 45.178 79.9858 45.5909C80.2131 46.0038 80.3267 46.5568 80.3267 47.25V53H78.9858V51.8182H78.9176C78.8267 52.0076 78.6752 52.2102 78.4631 52.4261C78.2509 52.642 77.9688 52.8258 77.6165 52.9773C77.2642 53.1288 76.8343 53.2045 76.3267 53.2045ZM76.5312 52C77.0616 52 77.5085 51.8958 77.8722 51.6875C78.2396 51.4792 78.5161 51.2102 78.7017 50.8807C78.8911 50.5511 78.9858 50.2045 78.9858 49.8409V48.6136C78.929 48.6818 78.804 48.7443 78.6108 48.8011C78.4214 48.8542 78.2017 48.9015 77.9517 48.9432C77.7055 48.9811 77.465 49.0152 77.2301 49.0455C76.9991 49.072 76.8116 49.0947 76.6676 49.1136C76.3191 49.1591 75.9934 49.233 75.6903 49.3352C75.3911 49.4337 75.1487 49.5833 74.9631 49.7841C74.7813 49.9811 74.6903 50.25 74.6903 50.5909C74.6903 51.0568 74.8627 51.4091 75.2074 51.6477C75.5559 51.8826 75.9972 52 76.5312 52ZM88.6151 48.0227V49.2727H83.7969V48.0227H88.6151ZM84.1151 44.2727V53H82.7741V44.2727H84.1151ZM89.6378 44.2727V53H88.2969V44.2727H89.6378ZM93.4276 51.0227L97.6321 44.2727H99.1776V53H97.8366V46.25L93.6548 53H92.0866V44.2727H93.4276V51.0227ZM105.293 53.1818C104.452 53.1818 103.726 52.9962 103.116 52.625C102.51 52.25 102.043 51.7273 101.713 51.0568C101.387 50.3826 101.224 49.5985 101.224 48.7045C101.224 47.8106 101.387 47.0227 101.713 46.3409C102.043 45.6553 102.501 45.1212 103.088 44.7386C103.679 44.3523 104.368 44.1591 105.156 44.1591C105.611 44.1591 106.06 44.2348 106.503 44.3864C106.946 44.5379 107.349 44.7841 107.713 45.125C108.077 45.4621 108.366 45.9091 108.582 46.4659C108.798 47.0227 108.906 47.7083 108.906 48.5227V49.0909H102.179V47.9318H107.543C107.543 47.4394 107.444 47 107.247 46.6136C107.054 46.2273 106.777 45.9223 106.418 45.6989C106.062 45.4754 105.641 45.3636 105.156 45.3636C104.622 45.3636 104.16 45.4962 103.77 45.7614C103.384 46.0227 103.086 46.3636 102.878 46.7841C102.67 47.2045 102.565 47.6553 102.565 48.1364V48.9091C102.565 49.5682 102.679 50.1269 102.906 50.5852C103.137 51.0398 103.457 51.3864 103.866 51.625C104.276 51.8598 104.751 51.9773 105.293 51.9773C105.645 51.9773 105.963 51.928 106.247 51.8295C106.535 51.7273 106.783 51.5758 106.991 51.375C107.2 51.1705 107.361 50.9167 107.474 50.6136L108.77 50.9773C108.634 51.4167 108.404 51.803 108.082 52.1364C107.76 52.4659 107.363 52.7235 106.889 52.9091C106.416 53.0909 105.884 53.1818 105.293 53.1818Z" fill="white"/>
</svg>
