<svg width="497" height="138" viewBox="0 0 497 138" fill="none" xmlns="http://www.w3.org/2000/svg">
<path d="M2.04545 64V61.9545L14.5909 43.2273H1.90909V40.7273H17.9545V42.7727L5.40909 61.5H18.0909V64H2.04545ZM28.8127 64.3636C27.1309 64.3636 25.6802 63.9924 24.4605 63.25C23.2483 62.5 22.3127 61.4545 21.6536 60.1136C21.0021 58.7652 20.6764 57.197 20.6764 55.4091C20.6764 53.6212 21.0021 52.0455 21.6536 50.6818C22.3127 49.3106 23.2294 48.2424 24.4036 47.4773C25.5855 46.7045 26.9642 46.3182 28.54 46.3182C29.4491 46.3182 30.3468 46.4697 31.2332 46.7727C32.1195 47.0758 32.9264 47.5682 33.6536 48.25C34.3809 48.9242 34.9605 49.8182 35.3923 50.9318C35.8241 52.0455 36.04 53.4167 36.04 55.0455V56.1818H22.5855V53.8636H33.3127C33.3127 52.8788 33.1158 52 32.7218 51.2273C32.3355 50.4545 31.7824 49.8447 31.0627 49.3977C30.3506 48.9508 29.5097 48.7273 28.54 48.7273C27.4718 48.7273 26.5476 48.9924 25.7673 49.5227C24.9945 50.0455 24.3998 50.7273 23.9832 51.5682C23.5665 52.4091 23.3582 53.3106 23.3582 54.2727V55.8182C23.3582 57.1364 23.5855 58.2538 24.04 59.1705C24.5021 60.0795 25.1423 60.7727 25.9605 61.25C26.7786 61.7197 27.7294 61.9545 28.8127 61.9545C29.5173 61.9545 30.1536 61.8561 30.7218 61.6591C31.2976 61.4545 31.7938 61.1515 32.2105 60.75C32.6271 60.3409 32.9491 59.8333 33.1764 59.2273L35.7673 59.9545C35.4945 60.8333 35.0362 61.6061 34.3923 62.2727C33.7483 62.9318 32.9529 63.447 32.0059 63.8182C31.0589 64.1818 29.9945 64.3636 28.8127 64.3636ZM39.1595 64V46.5455H41.7505V49.1818H41.9323C42.2505 48.3182 42.8262 47.6174 43.6595 47.0795C44.4929 46.5417 45.4323 46.2727 46.4777 46.2727C46.6747 46.2727 46.9209 46.2765 47.2164 46.2841C47.5118 46.2917 47.7353 46.303 47.8868 46.3182V49.0455C47.7959 49.0227 47.5876 48.9886 47.2618 48.9432C46.9436 48.8902 46.6065 48.8636 46.2505 48.8636C45.402 48.8636 44.6444 49.0417 43.9777 49.3977C43.3186 49.7462 42.7959 50.2311 42.4095 50.8523C42.0308 51.4659 41.8414 52.1667 41.8414 52.9545V64H39.1595ZM56.6655 64.3636C55.0897 64.3636 53.7071 63.9886 52.5177 63.2386C51.3359 62.4886 50.4117 61.4394 49.745 60.0909C49.0859 58.7424 48.7564 57.1667 48.7564 55.3636C48.7564 53.5455 49.0859 51.9583 49.745 50.6023C50.4117 49.2462 51.3359 48.1932 52.5177 47.4432C53.7071 46.6932 55.0897 46.3182 56.6655 46.3182C58.2412 46.3182 59.62 46.6932 60.8018 47.4432C61.9912 48.1932 62.9155 49.2462 63.5745 50.6023C64.2412 51.9583 64.5745 53.5455 64.5745 55.3636C64.5745 57.1667 64.2412 58.7424 63.5745 60.0909C62.9155 61.4394 61.9912 62.4886 60.8018 63.2386C59.62 63.9886 58.2412 64.3636 56.6655 64.3636ZM56.6655 61.9545C57.8624 61.9545 58.8473 61.6477 59.62 61.0341C60.3927 60.4205 60.9647 59.6136 61.3359 58.6136C61.7071 57.6136 61.8927 56.5303 61.8927 55.3636C61.8927 54.197 61.7071 53.1098 61.3359 52.1023C60.9647 51.0947 60.3927 50.2803 59.62 49.6591C58.8473 49.0379 57.8624 48.7273 56.6655 48.7273C55.4685 48.7273 54.4836 49.0379 53.7109 49.6591C52.9382 50.2803 52.3662 51.0947 51.995 52.1023C51.6238 53.1098 51.4382 54.197 51.4382 55.3636C51.4382 56.5303 51.6238 57.6136 51.995 58.6136C52.3662 59.6136 52.9382 60.4205 53.7109 61.0341C54.4836 61.6477 55.4685 61.9545 56.6655 61.9545Z" fill="white"/>
<path opacity="0.6" d="M2.26136 92H0.397727L4.58523 80.3636H6.61364L10.8011 92H8.9375L5.64773 82.4773H5.55682L2.26136 92ZM2.57386 87.4432H8.61932V88.9205H2.57386V87.4432ZM11.8652 83.2727H13.564V92.5682C13.564 93.1515 13.458 93.6439 13.2459 94.0455C13.0375 94.447 12.7269 94.7519 12.314 94.9602C11.9049 95.1686 11.3993 95.2727 10.797 95.2727C10.7364 95.2727 10.6796 95.2727 10.6265 95.2727C10.5697 95.2727 10.511 95.2708 10.4504 95.267V93.8068C10.5034 93.8068 10.5508 93.8068 10.5924 93.8068C10.6303 93.8068 10.6739 93.8068 10.7231 93.8068C11.1246 93.8068 11.4144 93.6989 11.5924 93.483C11.7743 93.2708 11.8652 92.9621 11.8652 92.5568V83.2727ZM12.7061 81.9261C12.4106 81.9261 12.1568 81.8277 11.9447 81.6307C11.7364 81.4299 11.6322 81.1913 11.6322 80.9148C11.6322 80.6345 11.7364 80.3958 11.9447 80.1989C12.1568 79.9981 12.4106 79.8977 12.7061 79.8977C13.0015 79.8977 13.2534 79.9981 13.4618 80.1989C13.6739 80.3958 13.7799 80.6345 13.7799 80.9148C13.7799 81.1913 13.6739 81.4299 13.4618 81.6307C13.2534 81.8277 13.0015 81.9261 12.7061 81.9261ZM20.898 88.3807V83.2727H22.6025V92H20.932V90.4886H20.8411C20.6404 90.9545 20.3184 91.3428 19.8752 91.6534C19.4358 91.9602 18.8885 92.1136 18.2332 92.1136C17.6726 92.1136 17.1764 91.9905 16.7445 91.7443C16.3165 91.4943 15.9794 91.125 15.7332 90.6364C15.4908 90.1477 15.3695 89.5436 15.3695 88.8239V83.2727H17.0684V88.6193C17.0684 89.214 17.2332 89.6875 17.5627 90.0398C17.8923 90.392 18.3203 90.5682 18.8468 90.5682C19.165 90.5682 19.4813 90.4886 19.7957 90.3295C20.1139 90.1705 20.3771 89.9299 20.5855 89.608C20.7976 89.286 20.9017 88.8769 20.898 88.3807ZM27.6722 92.1705C26.9677 92.1705 26.3389 91.9905 25.7859 91.6307C25.2366 91.267 24.8048 90.75 24.4904 90.0795C24.1798 89.4053 24.0245 88.5966 24.0245 87.6534C24.0245 86.7102 24.1817 85.9034 24.4961 85.233C24.8143 84.5625 25.2499 84.0492 25.8029 83.6932C26.3559 83.3371 26.9828 83.1591 27.6836 83.1591C28.2252 83.1591 28.6609 83.25 28.9904 83.4318C29.3237 83.6098 29.5813 83.8182 29.7631 84.0568C29.9487 84.2955 30.0927 84.5057 30.1949 84.6875H30.2972V80.3636H31.9961V92H30.337V90.642H30.1949C30.0927 90.8277 29.9449 91.0398 29.7518 91.2784C29.5624 91.517 29.301 91.7254 28.9677 91.9034C28.6343 92.0814 28.2025 92.1705 27.6722 92.1705ZM28.0472 90.7216C28.5359 90.7216 28.9487 90.5928 29.2859 90.3352C29.6268 90.0739 29.8843 89.7121 30.0586 89.25C30.2366 88.7879 30.3256 88.25 30.3256 87.6364C30.3256 87.0303 30.2385 86.5 30.0643 86.0455C29.89 85.5909 29.6343 85.2367 29.2972 84.983C28.9601 84.7292 28.5434 84.6023 28.0472 84.6023C27.5359 84.6023 27.1097 84.7348 26.7688 85C26.4279 85.2652 26.1703 85.6269 25.9961 86.0852C25.8256 86.5436 25.7404 87.0606 25.7404 87.6364C25.7404 88.2197 25.8275 88.7443 26.0018 89.2102C26.176 89.6761 26.4336 90.0455 26.7745 90.3182C27.1192 90.5871 27.5434 90.7216 28.0472 90.7216ZM37.7022 92.1761C36.8423 92.1761 36.1018 91.9924 35.4806 91.625C34.8631 91.2538 34.3859 90.733 34.0488 90.0625C33.7154 89.3883 33.5488 88.5985 33.5488 87.6932C33.5488 86.7992 33.7154 86.0114 34.0488 85.3295C34.3859 84.6477 34.8556 84.1155 35.4578 83.733C36.0639 83.3504 36.7722 83.1591 37.5828 83.1591C38.0753 83.1591 38.5525 83.2405 39.0147 83.4034C39.4768 83.5663 39.8916 83.822 40.259 84.1705C40.6264 84.5189 40.9162 84.9716 41.1283 85.5284C41.3404 86.0814 41.4465 86.7538 41.4465 87.5455V88.1477H34.509V86.875H39.7817C39.7817 86.428 39.6908 86.0322 39.509 85.6875C39.3272 85.339 39.0715 85.0644 38.7419 84.8636C38.4162 84.6629 38.0336 84.5625 37.5942 84.5625C37.1169 84.5625 36.7003 84.6799 36.3442 84.9148C35.9919 85.1458 35.7192 85.4489 35.526 85.8239C35.3366 86.1951 35.2419 86.5985 35.2419 87.0341V88.0284C35.2419 88.6117 35.3442 89.108 35.5488 89.517C35.7571 89.9261 36.0469 90.2386 36.4181 90.4545C36.7893 90.6667 37.223 90.7727 37.7192 90.7727C38.0412 90.7727 38.3347 90.7273 38.5999 90.6364C38.865 90.5417 39.0942 90.4015 39.2874 90.2159C39.4806 90.0303 39.6283 89.8011 39.7306 89.5284L41.3385 89.8182C41.2097 90.2917 40.9787 90.7064 40.6453 91.0625C40.3158 91.4148 39.901 91.6894 39.401 91.8864C38.9048 92.0795 38.3385 92.1761 37.7022 92.1761ZM47.9935 86.3466V87.8182H42.8344V86.3466H47.9935ZM51.4765 86.8182V92H49.7777V83.2727H51.4084V84.6932H51.5163C51.7171 84.2311 52.0315 83.8598 52.4595 83.5795C52.8913 83.2992 53.4349 83.1591 54.0902 83.1591C54.6849 83.1591 55.2057 83.2841 55.6527 83.5341C56.0996 83.7803 56.4462 84.1477 56.6924 84.6364C56.9387 85.125 57.0618 85.7292 57.0618 86.4489V92H55.3629V86.6534C55.3629 86.0208 55.1981 85.5265 54.8686 85.1705C54.539 84.8106 54.0864 84.6307 53.5106 84.6307C53.1167 84.6307 52.7663 84.7159 52.4595 84.8864C52.1565 85.0568 51.9159 85.3068 51.7379 85.6364C51.5637 85.9621 51.4765 86.3561 51.4765 86.8182ZM62.5363 92.1761C61.7181 92.1761 61.0041 91.9886 60.3943 91.6136C59.7844 91.2386 59.3109 90.714 58.9738 90.0398C58.6367 89.3655 58.4681 88.5777 58.4681 87.6761C58.4681 86.7708 58.6367 85.9792 58.9738 85.3011C59.3109 84.6231 59.7844 84.0966 60.3943 83.7216C61.0041 83.3466 61.7181 83.1591 62.5363 83.1591C63.3545 83.1591 64.0685 83.3466 64.6784 83.7216C65.2882 84.0966 65.7617 84.6231 66.0988 85.3011C66.4359 85.9792 66.6045 86.7708 66.6045 87.6761C66.6045 88.5777 66.4359 89.3655 66.0988 90.0398C65.7617 90.714 65.2882 91.2386 64.6784 91.6136C64.0685 91.9886 63.3545 92.1761 62.5363 92.1761ZM62.542 90.75C63.0723 90.75 63.5117 90.6098 63.8602 90.3295C64.2087 90.0492 64.4662 89.6761 64.6329 89.2102C64.8034 88.7443 64.8886 88.2311 64.8886 87.6705C64.8886 87.1136 64.8034 86.6023 64.6329 86.1364C64.4662 85.6667 64.2087 85.2898 63.8602 85.0057C63.5117 84.7216 63.0723 84.5795 62.542 84.5795C62.0079 84.5795 61.5647 84.7216 61.2124 85.0057C60.864 85.2898 60.6045 85.6667 60.434 86.1364C60.2674 86.6023 60.184 87.1136 60.184 87.6705C60.184 88.2311 60.2674 88.7443 60.434 89.2102C60.6045 89.6761 60.864 90.0492 61.2124 90.3295C61.5647 90.6098 62.0079 90.75 62.542 90.75ZM74.5606 85.4034L73.0208 85.6761C72.9564 85.4792 72.8541 85.2917 72.714 85.1136C72.5776 84.9356 72.392 84.7898 72.1572 84.6761C71.9223 84.5625 71.6288 84.5057 71.2765 84.5057C70.7954 84.5057 70.3939 84.6136 70.0719 84.8295C69.75 85.0417 69.589 85.3163 69.589 85.6534C69.589 85.9451 69.6969 86.1799 69.9128 86.358C70.1288 86.536 70.4772 86.6818 70.9583 86.7955L72.3447 87.1136C73.1477 87.2992 73.7462 87.5852 74.1401 87.9716C74.5341 88.358 74.731 88.8598 74.731 89.4773C74.731 90 74.5795 90.4659 74.2765 90.875C73.9772 91.2803 73.5587 91.5985 73.0208 91.8295C72.4867 92.0606 71.8674 92.1761 71.1628 92.1761C70.1856 92.1761 69.3882 91.9678 68.7708 91.5511C68.1534 91.1307 67.7746 90.5341 67.6344 89.7614L69.2765 89.5114C69.3788 89.9394 69.589 90.2633 69.9072 90.483C70.2253 90.6989 70.6401 90.8068 71.1515 90.8068C71.7083 90.8068 72.1534 90.6913 72.4867 90.4602C72.82 90.2254 72.9867 89.9394 72.9867 89.6023C72.9867 89.3295 72.8844 89.1004 72.6799 88.9148C72.4791 88.7292 72.1704 88.589 71.7538 88.4943L70.2765 88.1705C69.4621 87.9848 68.8598 87.6894 68.4697 87.2841C68.0833 86.8788 67.8901 86.3655 67.8901 85.7443C67.8901 85.2292 68.0341 84.7784 68.3219 84.392C68.6098 84.0057 69.0075 83.7045 69.5151 83.4886C70.0227 83.2689 70.6041 83.1591 71.2594 83.1591C72.2026 83.1591 72.945 83.3636 73.4867 83.7727C74.0284 84.178 74.3863 84.7216 74.5606 85.4034ZM82.4131 92.1932C81.86 92.1932 81.36 92.0909 80.9131 91.8864C80.4661 91.678 80.1119 91.3769 79.8506 90.983C79.593 90.589 79.4642 90.1061 79.4642 89.5341C79.4642 89.0417 79.5589 88.6364 79.7483 88.3182C79.9377 88 80.1934 87.7481 80.5153 87.5625C80.8373 87.3769 81.1972 87.2367 81.5949 87.142C81.9926 87.0473 82.3979 86.9754 82.8108 86.9261C83.3335 86.8655 83.7578 86.8163 84.0835 86.7784C84.4093 86.7367 84.646 86.6705 84.7937 86.5795C84.9415 86.4886 85.0153 86.3409 85.0153 86.1364V86.0966C85.0153 85.6004 84.8752 85.2159 84.5949 84.9432C84.3184 84.6705 83.9055 84.5341 83.3562 84.5341C82.7843 84.5341 82.3335 84.661 82.004 84.9148C81.6782 85.1648 81.4528 85.4432 81.3278 85.75L79.7312 85.3864C79.9206 84.8561 80.1972 84.428 80.5608 84.1023C80.9282 83.7727 81.3506 83.5341 81.8278 83.3864C82.3051 83.2348 82.807 83.1591 83.3335 83.1591C83.682 83.1591 84.0513 83.2008 84.4415 83.2841C84.8354 83.3636 85.2028 83.5114 85.5437 83.7273C85.8884 83.9432 86.1706 84.2519 86.3903 84.6534C86.61 85.0511 86.7199 85.5682 86.7199 86.2045V92H85.0608V90.8068H84.9926C84.8828 91.0265 84.718 91.2424 84.4983 91.4545C84.2786 91.6667 83.9964 91.8428 83.6517 91.983C83.307 92.1231 82.8941 92.1932 82.4131 92.1932ZM82.7824 90.8295C83.2521 90.8295 83.6536 90.7367 83.9869 90.5511C84.3241 90.3655 84.5797 90.1231 84.754 89.8239C84.932 89.5208 85.021 89.197 85.021 88.8523V87.7273C84.9604 87.7879 84.843 87.8447 84.6687 87.8977C84.4983 87.947 84.3032 87.9905 84.0835 88.0284C83.8638 88.0625 83.6498 88.0947 83.4415 88.125C83.2331 88.1515 83.0589 88.1742 82.9187 88.1932C82.5892 88.2348 82.2881 88.3049 82.0153 88.4034C81.7464 88.5019 81.5305 88.6439 81.3676 88.8295C81.2085 89.0114 81.129 89.2538 81.129 89.5568C81.129 89.9773 81.2843 90.2955 81.5949 90.5114C81.9055 90.7235 82.3013 90.8295 82.7824 90.8295ZM96.3309 83.2727V84.6364H91.5639V83.2727H96.3309ZM92.8423 81.1818H94.5411V89.4375C94.5411 89.767 94.5904 90.0152 94.6889 90.1818C94.7873 90.3447 94.9142 90.4564 95.0695 90.517C95.2286 90.5739 95.401 90.6023 95.5866 90.6023C95.723 90.6023 95.8423 90.5928 95.9445 90.5739C96.0468 90.5549 96.1264 90.5398 96.1832 90.5284L96.49 91.9318C96.3915 91.9697 96.2514 92.0076 96.0695 92.0455C95.8877 92.0871 95.6605 92.1098 95.3877 92.1136C94.9408 92.1212 94.5241 92.0417 94.1377 91.875C93.7514 91.7083 93.4389 91.4508 93.2002 91.1023C92.9616 90.7538 92.8423 90.3163 92.8423 89.7898V81.1818ZM101.313 92.1761C100.494 92.1761 99.7804 91.9886 99.1705 91.6136C98.5607 91.2386 98.0872 90.714 97.7501 90.0398C97.4129 89.3655 97.2444 88.5777 97.2444 87.6761C97.2444 86.7708 97.4129 85.9792 97.7501 85.3011C98.0872 84.6231 98.5607 84.0966 99.1705 83.7216C99.7804 83.3466 100.494 83.1591 101.313 83.1591C102.131 83.1591 102.845 83.3466 103.455 83.7216C104.064 84.0966 104.538 84.6231 104.875 85.3011C105.212 85.9792 105.381 86.7708 105.381 87.6761C105.381 88.5777 105.212 89.3655 104.875 90.0398C104.538 90.714 104.064 91.2386 103.455 91.6136C102.845 91.9886 102.131 92.1761 101.313 92.1761ZM101.318 90.75C101.849 90.75 102.288 90.6098 102.636 90.3295C102.985 90.0492 103.242 89.6761 103.409 89.2102C103.58 88.7443 103.665 88.2311 103.665 87.6705C103.665 87.1136 103.58 86.6023 103.409 86.1364C103.242 85.6667 102.985 85.2898 102.636 85.0057C102.288 84.7216 101.849 84.5795 101.318 84.5795C100.784 84.5795 100.341 84.7216 99.9887 85.0057C99.6402 85.2898 99.3807 85.6667 99.2103 86.1364C99.0436 86.6023 98.9603 87.1136 98.9603 87.6705C98.9603 88.2311 99.0436 88.7443 99.2103 89.2102C99.3807 89.6761 99.6402 90.0492 99.9887 90.3295C100.341 90.6098 100.784 90.75 101.318 90.75ZM106.797 92V83.2727H108.439V84.6591H108.53C108.689 84.1894 108.969 83.8201 109.371 83.5511C109.776 83.2784 110.235 83.142 110.746 83.142C110.852 83.142 110.977 83.1458 111.121 83.1534C111.269 83.161 111.384 83.1705 111.467 83.1818V84.8068C111.399 84.7879 111.278 84.767 111.104 84.7443C110.93 84.7178 110.755 84.7045 110.581 84.7045C110.18 84.7045 109.822 84.7898 109.507 84.9602C109.197 85.1269 108.95 85.3598 108.769 85.6591C108.587 85.9545 108.496 86.2917 108.496 86.6705V92H106.797ZM114.157 86.8182V92H112.458V83.2727H114.088V84.6932H114.196C114.397 84.2311 114.711 83.8598 115.139 83.5795C115.571 83.2992 116.115 83.1591 116.77 83.1591C117.365 83.1591 117.886 83.2841 118.333 83.5341C118.78 83.7803 119.126 84.1477 119.372 84.6364C119.619 85.125 119.742 85.7292 119.742 86.4489V92H118.043V86.6534C118.043 86.0208 117.878 85.5265 117.549 85.1705C117.219 84.8106 116.766 84.6307 116.191 84.6307C115.797 84.6307 115.446 84.7159 115.139 84.8864C114.836 85.0568 114.596 85.3068 114.418 85.6364C114.244 85.9621 114.157 86.3561 114.157 86.8182ZM124.08 92.1932C123.527 92.1932 123.027 92.0909 122.58 91.8864C122.133 91.678 121.779 91.3769 121.517 90.983C121.26 90.589 121.131 90.1061 121.131 89.5341C121.131 89.0417 121.226 88.6364 121.415 88.3182C121.605 88 121.86 87.7481 122.182 87.5625C122.504 87.3769 122.864 87.2367 123.262 87.142C123.659 87.0473 124.065 86.9754 124.478 86.9261C125 86.8655 125.425 86.8163 125.75 86.7784C126.076 86.7367 126.313 86.6705 126.461 86.5795C126.608 86.4886 126.682 86.3409 126.682 86.1364V86.0966C126.682 85.6004 126.542 85.2159 126.262 84.9432C125.985 84.6705 125.572 84.5341 125.023 84.5341C124.451 84.5341 124 84.661 123.671 84.9148C123.345 85.1648 123.12 85.4432 122.995 85.75L121.398 85.3864C121.588 84.8561 121.864 84.428 122.228 84.1023C122.595 83.7727 123.017 83.5341 123.495 83.3864C123.972 83.2348 124.474 83.1591 125 83.1591C125.349 83.1591 125.718 83.2008 126.108 83.2841C126.502 83.3636 126.87 83.5114 127.211 83.7273C127.555 83.9432 127.838 84.2519 128.057 84.6534C128.277 85.0511 128.387 85.5682 128.387 86.2045V92H126.728V90.8068H126.659C126.55 91.0265 126.385 91.2424 126.165 91.4545C125.945 91.6667 125.663 91.8428 125.319 91.983C124.974 92.1231 124.561 92.1932 124.08 92.1932ZM124.449 90.8295C124.919 90.8295 125.32 90.7367 125.654 90.5511C125.991 90.3655 126.247 90.1231 126.421 89.8239C126.599 89.5208 126.688 89.197 126.688 88.8523V87.7273C126.627 87.7879 126.51 87.8447 126.336 87.8977C126.165 87.947 125.97 87.9905 125.75 88.0284C125.531 88.0625 125.317 88.0947 125.108 88.125C124.9 88.1515 124.726 88.1742 124.586 88.1932C124.256 88.2348 123.955 88.3049 123.682 88.4034C123.413 88.5019 123.197 88.6439 123.034 88.8295C122.875 89.0114 122.796 89.2538 122.796 89.5568C122.796 89.9773 122.951 90.2955 123.262 90.5114C123.572 90.7235 123.968 90.8295 124.449 90.8295ZM130.17 92V83.2727H131.812V84.6591H131.902C132.062 84.1894 132.342 83.8201 132.743 83.5511C133.149 83.2784 133.607 83.142 134.118 83.142C134.224 83.142 134.349 83.1458 134.493 83.1534C134.641 83.161 134.757 83.1705 134.84 83.1818V84.8068C134.772 84.7879 134.651 84.767 134.476 84.7443C134.302 84.7178 134.128 84.7045 133.954 84.7045C133.552 84.7045 133.194 84.7898 132.88 84.9602C132.569 85.1269 132.323 85.3598 132.141 85.6591C131.959 85.9545 131.868 86.2917 131.868 86.6705V92H130.17ZM143.261 92.1761C142.443 92.1761 141.728 91.9886 141.119 91.6136C140.509 91.2386 140.035 90.714 139.698 90.0398C139.361 89.3655 139.193 88.5777 139.193 87.6761C139.193 86.7708 139.361 85.9792 139.698 85.3011C140.035 84.6231 140.509 84.0966 141.119 83.7216C141.728 83.3466 142.443 83.1591 143.261 83.1591C144.079 83.1591 144.793 83.3466 145.403 83.7216C146.013 84.0966 146.486 84.6231 146.823 85.3011C147.16 85.9792 147.329 86.7708 147.329 87.6761C147.329 88.5777 147.16 89.3655 146.823 90.0398C146.486 90.714 146.013 91.2386 145.403 91.6136C144.793 91.9886 144.079 92.1761 143.261 92.1761ZM143.266 90.75C143.797 90.75 144.236 90.6098 144.585 90.3295C144.933 90.0492 145.191 89.6761 145.357 89.2102C145.528 88.7443 145.613 88.2311 145.613 87.6705C145.613 87.1136 145.528 86.6023 145.357 86.1364C145.191 85.6667 144.933 85.2898 144.585 85.0057C144.236 84.7216 143.797 84.5795 143.266 84.5795C142.732 84.5795 142.289 84.7216 141.937 85.0057C141.588 85.2898 141.329 85.6667 141.158 86.1364C140.992 86.6023 140.908 87.1136 140.908 87.6705C140.908 88.2311 140.992 88.7443 141.158 89.2102C141.329 89.6761 141.588 90.0492 141.937 90.3295C142.289 90.6098 142.732 90.75 143.266 90.75ZM152.5 95.2727V83.2727H154.159V84.6875H154.301C154.399 84.5057 154.541 84.2955 154.727 84.0568C154.912 83.8182 155.17 83.6098 155.5 83.4318C155.829 83.25 156.265 83.1591 156.806 83.1591C157.511 83.1591 158.14 83.3371 158.693 83.6932C159.246 84.0492 159.679 84.5625 159.994 85.233C160.312 85.9034 160.471 86.7102 160.471 87.6534C160.471 88.5966 160.314 89.4053 160 90.0795C159.685 90.75 159.253 91.267 158.704 91.6307C158.155 91.9905 157.528 92.1705 156.823 92.1705C156.293 92.1705 155.859 92.0814 155.522 91.9034C155.189 91.7254 154.928 91.517 154.738 91.2784C154.549 91.0398 154.403 90.8277 154.301 90.642H154.198V95.2727H152.5ZM154.164 87.6364C154.164 88.25 154.253 88.7879 154.431 89.25C154.609 89.7121 154.867 90.0739 155.204 90.3352C155.541 90.5928 155.954 90.7216 156.443 90.7216C156.95 90.7216 157.375 90.5871 157.715 90.3182C158.056 90.0455 158.314 89.6761 158.488 89.2102C158.666 88.7443 158.755 88.2197 158.755 87.6364C158.755 87.0606 158.668 86.5436 158.494 86.0852C158.323 85.6269 158.066 85.2652 157.721 85C157.38 84.7348 156.954 84.6023 156.443 84.6023C155.95 84.6023 155.534 84.7292 155.193 84.983C154.856 85.2367 154.6 85.5909 154.426 86.0455C154.251 86.5 154.164 87.0303 154.164 87.6364ZM163.593 80.3636V92H161.895V80.3636H163.593ZM167.939 92.1932C167.386 92.1932 166.886 92.0909 166.439 91.8864C165.992 91.678 165.638 91.3769 165.376 90.983C165.119 90.589 164.99 90.1061 164.99 89.5341C164.99 89.0417 165.085 88.6364 165.274 88.3182C165.463 88 165.719 87.7481 166.041 87.5625C166.363 87.3769 166.723 87.2367 167.121 87.142C167.518 87.0473 167.924 86.9754 168.336 86.9261C168.859 86.8655 169.283 86.8163 169.609 86.7784C169.935 86.7367 170.172 86.6705 170.319 86.5795C170.467 86.4886 170.541 86.3409 170.541 86.1364V86.0966C170.541 85.6004 170.401 85.2159 170.121 84.9432C169.844 84.6705 169.431 84.5341 168.882 84.5341C168.31 84.5341 167.859 84.661 167.53 84.9148C167.204 85.1648 166.978 85.4432 166.853 85.75L165.257 85.3864C165.446 84.8561 165.723 84.428 166.086 84.1023C166.454 83.7727 166.876 83.5341 167.353 83.3864C167.831 83.2348 168.333 83.1591 168.859 83.1591C169.208 83.1591 169.577 83.2008 169.967 83.2841C170.361 83.3636 170.728 83.5114 171.069 83.7273C171.414 83.9432 171.696 84.2519 171.916 84.6534C172.136 85.0511 172.246 85.5682 172.246 86.2045V92H170.586V90.8068H170.518C170.408 91.0265 170.244 91.2424 170.024 91.4545C169.804 91.6667 169.522 91.8428 169.177 91.983C168.833 92.1231 168.42 92.1932 167.939 92.1932ZM168.308 90.8295C168.778 90.8295 169.179 90.7367 169.513 90.5511C169.85 90.3655 170.105 90.1231 170.28 89.8239C170.458 89.5208 170.547 89.197 170.547 88.8523V87.7273C170.486 87.7879 170.369 87.8447 170.194 87.8977C170.024 87.947 169.829 87.9905 169.609 88.0284C169.389 88.0625 169.175 88.0947 168.967 88.125C168.759 88.1515 168.585 88.1742 168.444 88.1932C168.115 88.2348 167.814 88.3049 167.541 88.4034C167.272 88.5019 167.056 88.6439 166.893 88.8295C166.734 89.0114 166.655 89.2538 166.655 89.5568C166.655 89.9773 166.81 90.2955 167.121 90.5114C167.431 90.7235 167.827 90.8295 168.308 90.8295ZM175.727 86.8182V92H174.028V83.2727H175.659V84.6932H175.767C175.968 84.2311 176.282 83.8598 176.71 83.5795C177.142 83.2992 177.685 83.1591 178.341 83.1591C178.935 83.1591 179.456 83.2841 179.903 83.5341C180.35 83.7803 180.697 84.1477 180.943 84.6364C181.189 85.125 181.312 85.7292 181.312 86.4489V92H179.614V86.6534C179.614 86.0208 179.449 85.5265 179.119 85.1705C178.79 84.8106 178.337 84.6307 177.761 84.6307C177.367 84.6307 177.017 84.7159 176.71 84.8864C176.407 85.0568 176.167 85.3068 175.989 85.6364C175.814 85.9621 175.727 86.3561 175.727 86.8182ZM186.872 92.1761C186.012 92.1761 185.272 91.9924 184.651 91.625C184.033 91.2538 183.556 90.733 183.219 90.0625C182.885 89.3883 182.719 88.5985 182.719 87.6932C182.719 86.7992 182.885 86.0114 183.219 85.3295C183.556 84.6477 184.026 84.1155 184.628 83.733C185.234 83.3504 185.942 83.1591 186.753 83.1591C187.245 83.1591 187.723 83.2405 188.185 83.4034C188.647 83.5663 189.062 83.822 189.429 84.1705C189.796 84.5189 190.086 84.9716 190.298 85.5284C190.51 86.0814 190.616 86.7538 190.616 87.5455V88.1477H183.679V86.875H188.952C188.952 86.428 188.861 86.0322 188.679 85.6875C188.497 85.339 188.241 85.0644 187.912 84.8636C187.586 84.6629 187.204 84.5625 186.764 84.5625C186.287 84.5625 185.87 84.6799 185.514 84.9148C185.162 85.1458 184.889 85.4489 184.696 85.8239C184.507 86.1951 184.412 86.5985 184.412 87.0341V88.0284C184.412 88.6117 184.514 89.108 184.719 89.517C184.927 89.9261 185.217 90.2386 185.588 90.4545C185.959 90.6667 186.393 90.7727 186.889 90.7727C187.211 90.7727 187.505 90.7273 187.77 90.6364C188.035 90.5417 188.264 90.4015 188.457 90.2159C188.651 90.0303 188.798 89.8011 188.901 89.5284L190.509 89.8182C190.38 90.2917 190.149 90.7064 189.815 91.0625C189.486 91.4148 189.071 91.6894 188.571 91.8864C188.075 92.0795 187.509 92.1761 186.872 92.1761ZM196.095 83.2727V84.6364H191.328V83.2727H196.095ZM192.607 81.1818H194.306V89.4375C194.306 89.767 194.355 90.0152 194.453 90.1818C194.552 90.3447 194.679 90.4564 194.834 90.517C194.993 90.5739 195.165 90.6023 195.351 90.6023C195.487 90.6023 195.607 90.5928 195.709 90.5739C195.811 90.5549 195.891 90.5398 195.948 90.5284L196.254 91.9318C196.156 91.9697 196.016 92.0076 195.834 92.0455C195.652 92.0871 195.425 92.1098 195.152 92.1136C194.705 92.1212 194.288 92.0417 193.902 91.875C193.516 91.7083 193.203 91.4508 192.965 91.1023C192.726 90.7538 192.607 90.3163 192.607 89.7898V81.1818ZM200.034 92.1932C199.481 92.1932 198.981 92.0909 198.534 91.8864C198.087 91.678 197.733 91.3769 197.472 90.983C197.214 90.589 197.085 90.1061 197.085 89.5341C197.085 89.0417 197.18 88.6364 197.37 88.3182C197.559 88 197.815 87.7481 198.137 87.5625C198.459 87.3769 198.818 87.2367 199.216 87.142C199.614 87.0473 200.019 86.9754 200.432 86.9261C200.955 86.8655 201.379 86.8163 201.705 86.7784C202.031 86.7367 202.267 86.6705 202.415 86.5795C202.563 86.4886 202.637 86.3409 202.637 86.1364V86.0966C202.637 85.6004 202.496 85.2159 202.216 84.9432C201.94 84.6705 201.527 84.5341 200.977 84.5341C200.406 84.5341 199.955 84.661 199.625 84.9148C199.299 85.1648 199.074 85.4432 198.949 85.75L197.352 85.3864C197.542 84.8561 197.818 84.428 198.182 84.1023C198.549 83.7727 198.972 83.5341 199.449 83.3864C199.926 83.2348 200.428 83.1591 200.955 83.1591C201.303 83.1591 201.673 83.2008 202.063 83.2841C202.457 83.3636 202.824 83.5114 203.165 83.7273C203.51 83.9432 203.792 84.2519 204.012 84.6534C204.231 85.0511 204.341 85.5682 204.341 86.2045V92H202.682V90.8068H202.614C202.504 91.0265 202.339 91.2424 202.12 91.4545C201.9 91.6667 201.618 91.8428 201.273 91.983C200.928 92.1231 200.515 92.1932 200.034 92.1932ZM200.404 90.8295C200.873 90.8295 201.275 90.7367 201.608 90.5511C201.945 90.3655 202.201 90.1231 202.375 89.8239C202.553 89.5208 202.642 89.197 202.642 88.8523V87.7273C202.582 87.7879 202.464 87.8447 202.29 87.8977C202.12 87.947 201.924 87.9905 201.705 88.0284C201.485 88.0625 201.271 88.0947 201.063 88.125C200.854 88.1515 200.68 88.1742 200.54 88.1932C200.21 88.2348 199.909 88.3049 199.637 88.4034C199.368 88.5019 199.152 88.6439 198.989 88.8295C198.83 89.0114 198.75 89.2538 198.75 89.5568C198.75 89.9773 198.906 90.2955 199.216 90.5114C199.527 90.7235 199.923 90.8295 200.404 90.8295ZM216.418 85.4034L214.878 85.6761C214.814 85.4792 214.712 85.2917 214.571 85.1136C214.435 84.9356 214.25 84.7898 214.015 84.6761C213.78 84.5625 213.486 84.5057 213.134 84.5057C212.653 84.5057 212.251 84.6136 211.929 84.8295C211.607 85.0417 211.446 85.3163 211.446 85.6534C211.446 85.9451 211.554 86.1799 211.77 86.358C211.986 86.536 212.335 86.6818 212.816 86.7955L214.202 87.1136C215.005 87.2992 215.604 87.5852 215.998 87.9716C216.392 88.358 216.589 88.8598 216.589 89.4773C216.589 90 216.437 90.4659 216.134 90.875C215.835 91.2803 215.416 91.5985 214.878 91.8295C214.344 92.0606 213.725 92.1761 213.02 92.1761C212.043 92.1761 211.246 91.9678 210.628 91.5511C210.011 91.1307 209.632 90.5341 209.492 89.7614L211.134 89.5114C211.236 89.9394 211.446 90.2633 211.765 90.483C212.083 90.6989 212.498 90.8068 213.009 90.8068C213.566 90.8068 214.011 90.6913 214.344 90.4602C214.678 90.2254 214.844 89.9394 214.844 89.6023C214.844 89.3295 214.742 89.1004 214.537 88.9148C214.337 88.7292 214.028 88.589 213.611 88.4943L212.134 88.1705C211.32 87.9848 210.717 87.6894 210.327 87.2841C209.941 86.8788 209.748 86.3655 209.748 85.7443C209.748 85.2292 209.892 84.7784 210.179 84.392C210.467 84.0057 210.865 83.7045 211.373 83.4886C211.88 83.2689 212.462 83.1591 213.117 83.1591C214.06 83.1591 214.803 83.3636 215.344 83.7727C215.886 84.178 216.244 84.7216 216.418 85.4034ZM223.505 88.3807V83.2727H225.209V92H223.539V90.4886H223.448C223.247 90.9545 222.925 91.3428 222.482 91.6534C222.043 91.9602 221.495 92.1136 220.84 92.1136C220.279 92.1136 219.783 91.9905 219.351 91.7443C218.923 91.4943 218.586 91.125 218.34 90.6364C218.098 90.1477 217.976 89.5436 217.976 88.8239V83.2727H219.675V88.6193C219.675 89.214 219.84 89.6875 220.17 90.0398C220.499 90.392 220.927 90.5682 221.454 90.5682C221.772 90.5682 222.088 90.4886 222.403 90.3295C222.721 90.1705 222.984 89.9299 223.192 89.608C223.404 89.286 223.509 88.8769 223.505 88.3807ZM233.552 85.4034L232.012 85.6761C231.948 85.4792 231.845 85.2917 231.705 85.1136C231.569 84.9356 231.383 84.7898 231.148 84.6761C230.914 84.5625 230.62 84.5057 230.268 84.5057C229.787 84.5057 229.385 84.6136 229.063 84.8295C228.741 85.0417 228.58 85.3163 228.58 85.6534C228.58 85.9451 228.688 86.1799 228.904 86.358C229.12 86.536 229.468 86.6818 229.95 86.7955L231.336 87.1136C232.139 87.2992 232.737 87.5852 233.131 87.9716C233.525 88.358 233.722 88.8598 233.722 89.4773C233.722 90 233.571 90.4659 233.268 90.875C232.968 91.2803 232.55 91.5985 232.012 91.8295C231.478 92.0606 230.859 92.1761 230.154 92.1761C229.177 92.1761 228.379 91.9678 227.762 91.5511C227.145 91.1307 226.766 90.5341 226.626 89.7614L228.268 89.5114C228.37 89.9394 228.58 90.2633 228.898 90.483C229.217 90.6989 229.631 90.8068 230.143 90.8068C230.7 90.8068 231.145 90.6913 231.478 90.4602C231.811 90.2254 231.978 89.9394 231.978 89.6023C231.978 89.3295 231.876 89.1004 231.671 88.9148C231.47 88.7292 231.162 88.589 230.745 88.4943L229.268 88.1705C228.453 87.9848 227.851 87.6894 227.461 87.2841C227.075 86.8788 226.881 86.3655 226.881 85.7443C226.881 85.2292 227.025 84.7784 227.313 84.392C227.601 84.0057 227.999 83.7045 228.506 83.4886C229.014 83.2689 229.595 83.1591 230.251 83.1591C231.194 83.1591 231.936 83.3636 232.478 83.7727C233.02 84.178 233.378 84.7216 233.552 85.4034ZM239.184 83.2727V84.6364H234.417V83.2727H239.184ZM235.695 81.1818H237.394V89.4375C237.394 89.767 237.444 90.0152 237.542 90.1818C237.64 90.3447 237.767 90.4564 237.923 90.517C238.082 90.5739 238.254 90.6023 238.44 90.6023C238.576 90.6023 238.695 90.5928 238.798 90.5739C238.9 90.5549 238.979 90.5398 239.036 90.5284L239.343 91.9318C239.245 91.9697 239.104 92.0076 238.923 92.0455C238.741 92.0871 238.514 92.1098 238.241 92.1136C237.794 92.1212 237.377 92.0417 236.991 91.875C236.604 91.7083 236.292 91.4508 236.053 91.1023C235.815 90.7538 235.695 90.3163 235.695 89.7898V81.1818ZM244.251 92.1761C243.391 92.1761 242.651 91.9924 242.029 91.625C241.412 91.2538 240.935 90.733 240.598 90.0625C240.264 89.3883 240.098 88.5985 240.098 87.6932C240.098 86.7992 240.264 86.0114 240.598 85.3295C240.935 84.6477 241.404 84.1155 242.007 83.733C242.613 83.3504 243.321 83.1591 244.132 83.1591C244.624 83.1591 245.101 83.2405 245.563 83.4034C246.026 83.5663 246.44 83.822 246.808 84.1705C247.175 84.5189 247.465 84.9716 247.677 85.5284C247.889 86.0814 247.995 86.7538 247.995 87.5455V88.1477H241.058V86.875H246.33C246.33 86.428 246.24 86.0322 246.058 85.6875C245.876 85.339 245.62 85.0644 245.291 84.8636C244.965 84.6629 244.582 84.5625 244.143 84.5625C243.666 84.5625 243.249 84.6799 242.893 84.9148C242.541 85.1458 242.268 85.4489 242.075 85.8239C241.885 86.1951 241.791 86.5985 241.791 87.0341V88.0284C241.791 88.6117 241.893 89.108 242.098 89.517C242.306 89.9261 242.596 90.2386 242.967 90.4545C243.338 90.6667 243.772 90.7727 244.268 90.7727C244.59 90.7727 244.883 90.7273 245.149 90.6364C245.414 90.5417 245.643 90.4015 245.836 90.2159C246.029 90.0303 246.177 89.8011 246.279 89.5284L247.887 89.8182C247.758 90.2917 247.527 90.7064 247.194 91.0625C246.865 91.4148 246.45 91.6894 245.95 91.8864C245.454 92.0795 244.887 92.1761 244.251 92.1761ZM253.474 83.2727V84.6364H248.707V83.2727H253.474ZM249.985 81.1818H251.684V89.4375C251.684 89.767 251.734 90.0152 251.832 90.1818C251.93 90.3447 252.057 90.4564 252.213 90.517C252.372 90.5739 252.544 90.6023 252.73 90.6023C252.866 90.6023 252.985 90.5928 253.088 90.5739C253.19 90.5549 253.269 90.5398 253.326 90.5284L253.633 91.9318C253.535 91.9697 253.394 92.0076 253.213 92.0455C253.031 92.0871 252.804 92.1098 252.531 92.1136C252.084 92.1212 251.667 92.0417 251.281 91.875C250.894 91.7083 250.582 91.4508 250.343 91.1023C250.105 90.7538 249.985 90.3163 249.985 89.7898V81.1818ZM257.413 92.1932C256.86 92.1932 256.36 92.0909 255.913 91.8864C255.466 91.678 255.112 91.3769 254.851 90.983C254.593 90.589 254.464 90.1061 254.464 89.5341C254.464 89.0417 254.559 88.6364 254.748 88.3182C254.938 88 255.193 87.7481 255.515 87.5625C255.837 87.3769 256.197 87.2367 256.595 87.142C256.993 87.0473 257.398 86.9754 257.811 86.9261C258.334 86.8655 258.758 86.8163 259.084 86.7784C259.409 86.7367 259.646 86.6705 259.794 86.5795C259.941 86.4886 260.015 86.3409 260.015 86.1364V86.0966C260.015 85.6004 259.875 85.2159 259.595 84.9432C259.318 84.6705 258.905 84.5341 258.356 84.5341C257.784 84.5341 257.334 84.661 257.004 84.9148C256.678 85.1648 256.453 85.4432 256.328 85.75L254.731 85.3864C254.921 84.8561 255.197 84.428 255.561 84.1023C255.928 83.7727 256.351 83.5341 256.828 83.3864C257.305 83.2348 257.807 83.1591 258.334 83.1591C258.682 83.1591 259.051 83.2008 259.441 83.2841C259.835 83.3636 260.203 83.5114 260.544 83.7273C260.888 83.9432 261.171 84.2519 261.39 84.6534C261.61 85.0511 261.72 85.5682 261.72 86.2045V92H260.061V90.8068H259.993C259.883 91.0265 259.718 91.2424 259.498 91.4545C259.279 91.6667 258.996 91.8428 258.652 91.983C258.307 92.1231 257.894 92.1932 257.413 92.1932ZM257.782 90.8295C258.252 90.8295 258.654 90.7367 258.987 90.5511C259.324 90.3655 259.58 90.1231 259.754 89.8239C259.932 89.5208 260.021 89.197 260.021 88.8523V87.7273C259.96 87.7879 259.843 87.8447 259.669 87.8977C259.498 87.947 259.303 87.9905 259.084 88.0284C258.864 88.0625 258.65 88.0947 258.441 88.125C258.233 88.1515 258.059 88.1742 257.919 88.1932C257.589 88.2348 257.288 88.3049 257.015 88.4034C256.746 88.5019 256.53 88.6439 256.368 88.8295C256.209 89.0114 256.129 89.2538 256.129 89.5568C256.129 89.9773 256.284 90.2955 256.595 90.5114C256.905 90.7235 257.301 90.8295 257.782 90.8295ZM270.656 83.2727L267.491 92H265.673L262.503 83.2727H264.327L266.537 89.9886H266.628L268.832 83.2727H270.656ZM275.237 92.1761C274.377 92.1761 273.637 91.9924 273.016 91.625C272.398 91.2538 271.921 90.733 271.584 90.0625C271.25 89.3883 271.084 88.5985 271.084 87.6932C271.084 86.7992 271.25 86.0114 271.584 85.3295C271.921 84.6477 272.391 84.1155 272.993 83.733C273.599 83.3504 274.307 83.1591 275.118 83.1591C275.61 83.1591 276.088 83.2405 276.55 83.4034C277.012 83.5663 277.427 83.822 277.794 84.1705C278.161 84.5189 278.451 84.9716 278.663 85.5284C278.875 86.0814 278.981 86.7538 278.981 87.5455V88.1477H272.044V86.875H277.317C277.317 86.428 277.226 86.0322 277.044 85.6875C276.862 85.339 276.606 85.0644 276.277 84.8636C275.951 84.6629 275.569 84.5625 275.129 84.5625C274.652 84.5625 274.235 84.6799 273.879 84.9148C273.527 85.1458 273.254 85.4489 273.061 85.8239C272.872 86.1951 272.777 86.5985 272.777 87.0341V88.0284C272.777 88.6117 272.879 89.108 273.084 89.517C273.292 89.9261 273.582 90.2386 273.953 90.4545C274.324 90.6667 274.758 90.7727 275.254 90.7727C275.576 90.7727 275.87 90.7273 276.135 90.6364C276.4 90.5417 276.629 90.4015 276.822 90.2159C277.016 90.0303 277.163 89.8011 277.266 89.5284L278.874 89.8182C278.745 90.2917 278.514 90.7064 278.18 91.0625C277.851 91.4148 277.436 91.6894 276.936 91.8864C276.44 92.0795 275.874 92.1761 275.237 92.1761ZM282.085 80.3636V92H280.386V80.3636H282.085Z" fill="white"/>
</svg>
