<svg width="274" height="56" viewBox="0 0 274 56" fill="none" xmlns="http://www.w3.org/2000/svg">
<path opacity="0.6" d="M8.43182 0.363636V1.61364H2.81818V12H1.40909V0.363636H8.43182ZM9.65767 12V10.75H9.97585C10.2372 10.75 10.455 10.6989 10.6293 10.5966C10.8035 10.4905 10.9437 10.3068 11.0497 10.0455C11.1596 9.7803 11.2429 9.41288 11.2997 8.94318C11.3603 8.4697 11.4039 7.86742 11.4304 7.13636L11.5895 3.27273H17.4077V12H16.0668V4.52273H12.8622L12.7259 7.63636C12.6955 8.35227 12.6312 8.98295 12.5327 9.52841C12.438 10.0701 12.2921 10.5246 12.0952 10.892C11.902 11.2595 11.6444 11.536 11.3224 11.7216C11.0005 11.9072 10.5971 12 10.1122 12H9.65767ZM20.419 15.2727C20.1918 15.2727 19.9891 15.2538 19.8111 15.2159C19.633 15.1818 19.5099 15.1477 19.4418 15.1136L19.7827 13.9318C20.1084 14.0152 20.3963 14.0455 20.6463 14.0227C20.8963 14 21.1179 13.8883 21.3111 13.6875C21.508 13.4905 21.688 13.1705 21.8509 12.7273L22.1009 12.0455L18.8736 3.27273H20.3281L22.7372 10.2273H22.8281L25.2372 3.27273H26.6918L22.9872 13.2727C22.8205 13.7235 22.6141 14.0966 22.3679 14.392C22.1217 14.6913 21.8357 14.9129 21.5099 15.0568C21.188 15.2008 20.8243 15.2727 20.419 15.2727ZM34.9389 0L35.6207 0.818181C35.3556 1.07576 35.0488 1.25568 34.7003 1.35795C34.3518 1.46023 33.9579 1.52273 33.5185 1.54545C33.0791 1.56818 32.5904 1.59091 32.0526 1.61364C31.4465 1.63636 30.9446 1.78409 30.5469 2.05682C30.1491 2.32955 29.8423 2.72348 29.6264 3.23864C29.4105 3.75379 29.2723 4.38636 29.2116 5.13636H29.3253C29.6207 4.59091 30.0298 4.18939 30.5526 3.93182C31.0753 3.67424 31.6359 3.54545 32.2344 3.54545C32.9162 3.54545 33.5298 3.70455 34.0753 4.02273C34.6207 4.34091 35.0526 4.8125 35.3707 5.4375C35.6889 6.0625 35.848 6.83333 35.848 7.75C35.848 8.66288 35.6851 9.45076 35.3594 10.1136C35.0374 10.7765 34.5848 11.2879 34.0014 11.6477C33.4219 12.0038 32.742 12.1818 31.9616 12.1818C31.1813 12.1818 30.4976 11.9981 29.9105 11.6307C29.3234 11.2595 28.867 10.7102 28.5412 9.98295C28.2154 9.25189 28.0526 8.34848 28.0526 7.27273V6.34091C28.0526 4.39773 28.3821 2.92424 29.0412 1.92045C29.7041 0.916666 30.7003 0.397727 32.0298 0.363636C32.4995 0.348485 32.9181 0.344697 33.2855 0.352272C33.6529 0.359848 33.973 0.342803 34.2457 0.301136C34.5185 0.259469 34.7495 0.159091 34.9389 0ZM31.9616 10.9773C32.4882 10.9773 32.9408 10.8447 33.3196 10.5795C33.7022 10.3144 33.9957 9.94129 34.2003 9.46023C34.4048 8.97538 34.5071 8.4053 34.5071 7.75C34.5071 7.11364 34.4029 6.57197 34.1946 6.125C33.9901 5.67803 33.6965 5.33712 33.3139 5.10227C32.9313 4.86742 32.473 4.75 31.9389 4.75C31.5488 4.75 31.1984 4.81629 30.8878 4.94886C30.5772 5.08144 30.312 5.27651 30.0923 5.53409C29.8726 5.79167 29.7022 6.10606 29.581 6.47727C29.4635 6.84848 29.401 7.27273 29.3935 7.75C29.3935 8.72727 29.6226 9.50947 30.081 10.0966C30.5393 10.6837 31.1662 10.9773 31.9616 10.9773ZM39.2401 10.0227L43.4446 3.27273H44.9901V12H43.6491V5.25L39.4673 12H37.8991V3.27273H39.2401V10.0227ZM53.2869 7.02273V8.27273H48.4688V7.02273H53.2869ZM48.7869 3.27273V12H47.446V3.27273H48.7869ZM54.3097 3.27273V12H52.9688V3.27273H54.3097ZM62.5994 7.02273V8.27273H57.7812V7.02273H62.5994ZM58.0994 3.27273V12H56.7585V3.27273H58.0994ZM63.6222 3.27273V12H62.2812V3.27273H63.6222ZM67.2301 6.43182H69.7301C70.7528 6.43182 71.535 6.69129 72.0767 7.21023C72.6184 7.72917 72.8892 8.38636 72.8892 9.18182C72.8892 9.70455 72.768 10.1799 72.5256 10.608C72.2831 11.0322 71.9271 11.3712 71.4574 11.625C70.9877 11.875 70.4119 12 69.7301 12H66.071V3.27273H67.4119V10.75H69.7301C70.2604 10.75 70.696 10.6098 71.0369 10.3295C71.3778 10.0492 71.5483 9.68939 71.5483 9.25C71.5483 8.78788 71.3778 8.41098 71.0369 8.11932C70.696 7.82765 70.2604 7.68182 69.7301 7.68182H67.2301V6.43182ZM74.2756 12V3.27273H75.6165V12H74.2756ZM81.7301 12.1818C80.8892 12.1818 80.1638 11.9962 79.554 11.625C78.9479 11.25 78.4801 10.7273 78.1506 10.0568C77.8248 9.38258 77.6619 8.59848 77.6619 7.70455C77.6619 6.81061 77.8248 6.02273 78.1506 5.34091C78.4801 4.6553 78.9384 4.12121 79.5256 3.73864C80.1165 3.35227 80.8059 3.15909 81.5938 3.15909C82.0483 3.15909 82.4972 3.23485 82.9403 3.38636C83.3835 3.53788 83.7869 3.78409 84.1506 4.125C84.5142 4.46212 84.804 4.90909 85.0199 5.46591C85.2358 6.02273 85.3438 6.70833 85.3438 7.52273V8.09091H78.6165V6.93182H83.9801C83.9801 6.43939 83.8816 6 83.6847 5.61364C83.4915 5.22727 83.215 4.92235 82.8551 4.69886C82.4991 4.47538 82.0786 4.36364 81.5938 4.36364C81.0597 4.36364 80.5975 4.49621 80.2074 4.76136C79.821 5.02273 79.5237 5.36364 79.3153 5.78409C79.107 6.20455 79.0028 6.6553 79.0028 7.13636V7.90909C79.0028 8.56818 79.1165 9.12689 79.3438 9.58523C79.5748 10.0398 79.8949 10.3864 80.304 10.625C80.7131 10.8598 81.1884 10.9773 81.7301 10.9773C82.0824 10.9773 82.4006 10.928 82.6847 10.8295C82.9725 10.7273 83.2206 10.5758 83.429 10.375C83.6373 10.1705 83.7983 9.91667 83.9119 9.61364L85.2074 9.97727C85.071 10.4167 84.8419 10.803 84.5199 11.1364C84.1979 11.4659 83.8002 11.7235 83.3267 11.9091C82.8532 12.0909 82.321 12.1818 81.7301 12.1818ZM93.2244 10.0227L97.429 3.27273H98.9744V12H97.6335V5.25L93.4517 12H91.8835V3.27273H93.2244V10.0227ZM107.271 7.02273V8.27273H102.453V7.02273H107.271ZM102.771 3.27273V12H101.43V3.27273H102.771ZM108.294 3.27273V12H106.953V3.27273H108.294ZM109.555 4.52273V3.27273H116.646V4.52273H113.783V12H112.442V4.52273H109.555ZM121.808 12.1818C120.967 12.1818 120.242 11.9962 119.632 11.625C119.026 11.25 118.558 10.7273 118.229 10.0568C117.903 9.38258 117.74 8.59848 117.74 7.70455C117.74 6.81061 117.903 6.02273 118.229 5.34091C118.558 4.6553 119.017 4.12121 119.604 3.73864C120.195 3.35227 120.884 3.15909 121.672 3.15909C122.126 3.15909 122.575 3.23485 123.018 3.38636C123.462 3.53788 123.865 3.78409 124.229 4.125C124.592 4.46212 124.882 4.90909 125.098 5.46591C125.314 6.02273 125.422 6.70833 125.422 7.52273V8.09091H118.695V6.93182H124.058C124.058 6.43939 123.96 6 123.763 5.61364C123.57 5.22727 123.293 4.92235 122.933 4.69886C122.577 4.47538 122.157 4.36364 121.672 4.36364C121.138 4.36364 120.676 4.49621 120.286 4.76136C119.899 5.02273 119.602 5.36364 119.393 5.78409C119.185 6.20455 119.081 6.6553 119.081 7.13636V7.90909C119.081 8.56818 119.195 9.12689 119.422 9.58523C119.653 10.0398 119.973 10.3864 120.382 10.625C120.791 10.8598 121.267 10.9773 121.808 10.9773C122.161 10.9773 122.479 10.928 122.763 10.8295C123.051 10.7273 123.299 10.5758 123.507 10.375C123.715 10.1705 123.876 9.91667 123.99 9.61364L125.286 9.97727C125.149 10.4167 124.92 10.803 124.598 11.1364C124.276 11.4659 123.878 11.7235 123.405 11.9091C122.931 12.0909 122.399 12.1818 121.808 12.1818ZM127.462 15.2727V3.27273H128.757V4.65909H128.916C129.015 4.50758 129.151 4.31439 129.325 4.07955C129.503 3.84091 129.757 3.62879 130.087 3.44318C130.42 3.25379 130.871 3.15909 131.439 3.15909C132.174 3.15909 132.821 3.3428 133.382 3.71023C133.943 4.07765 134.38 4.59848 134.695 5.27273C135.009 5.94697 135.166 6.74242 135.166 7.65909C135.166 8.58333 135.009 9.38447 134.695 10.0625C134.38 10.7367 133.945 11.2595 133.388 11.6307C132.831 11.9981 132.189 12.1818 131.462 12.1818C130.901 12.1818 130.452 12.089 130.115 11.9034C129.778 11.714 129.518 11.5 129.337 11.2614C129.155 11.0189 129.015 10.8182 128.916 10.6591H128.803V15.2727H127.462ZM128.78 7.63636C128.78 8.29545 128.876 8.87689 129.07 9.38068C129.263 9.88068 129.545 10.2727 129.916 10.5568C130.287 10.8371 130.742 10.9773 131.28 10.9773C131.84 10.9773 132.308 10.8295 132.683 10.5341C133.062 10.2348 133.346 9.83333 133.536 9.32955C133.729 8.82197 133.825 8.25758 133.825 7.63636C133.825 7.02273 133.731 6.4697 133.541 5.97727C133.356 5.48106 133.073 5.08902 132.695 4.80114C132.32 4.50947 131.848 4.36364 131.28 4.36364C130.734 4.36364 130.276 4.50189 129.905 4.77841C129.534 5.05114 129.253 5.43371 129.064 5.92614C128.875 6.41477 128.78 6.98485 128.78 7.63636ZM137.212 12V3.27273H140.78C141.719 3.27273 142.465 3.48485 143.018 3.90909C143.571 4.33333 143.848 4.89394 143.848 5.59091C143.848 6.12121 143.691 6.5322 143.376 6.82386C143.062 7.11174 142.659 7.30682 142.166 7.40909C142.488 7.45455 142.801 7.56818 143.104 7.75C143.411 7.93182 143.664 8.18182 143.865 8.5C144.066 8.81439 144.166 9.20076 144.166 9.65909C144.166 10.1061 144.053 10.5057 143.825 10.858C143.598 11.2102 143.272 11.4886 142.848 11.6932C142.424 11.8977 141.916 12 141.325 12H137.212ZM138.484 10.7727H141.325C141.787 10.7727 142.149 10.6629 142.411 10.4432C142.672 10.2235 142.803 9.92424 142.803 9.54545C142.803 9.0947 142.672 8.74053 142.411 8.48295C142.149 8.22159 141.787 8.09091 141.325 8.09091H138.484V10.7727ZM138.484 6.93182H140.78C141.14 6.93182 141.448 6.88258 141.706 6.78409C141.964 6.68182 142.161 6.53788 142.297 6.35227C142.437 6.16288 142.507 5.93939 142.507 5.68182C142.507 5.31439 142.354 5.02651 142.047 4.81818C141.74 4.60606 141.318 4.5 140.78 4.5H138.484V6.93182ZM147.355 6.43182H149.855C150.878 6.43182 151.66 6.69129 152.202 7.21023C152.743 7.72917 153.014 8.38636 153.014 9.18182C153.014 9.70455 152.893 10.1799 152.651 10.608C152.408 11.0322 152.052 11.3712 151.582 11.625C151.113 11.875 150.537 12 149.855 12H146.196V3.27273H147.537V10.75H149.855C150.385 10.75 150.821 10.6098 151.162 10.3295C151.503 10.0492 151.673 9.68939 151.673 9.25C151.673 8.78788 151.503 8.41098 151.162 8.11932C150.821 7.82765 150.385 7.68182 149.855 7.68182H147.355V6.43182ZM159.237 7.09091V8.34091H154.624V7.09091H159.237ZM155.76 3.27273V12H154.419V3.27273H155.76ZM161.919 12.1818C161.131 12.1818 160.44 11.9943 159.845 11.6193C159.254 11.2443 158.792 10.7197 158.459 10.0455C158.129 9.37121 157.964 8.58333 157.964 7.68182C157.964 6.77273 158.129 5.97917 158.459 5.30114C158.792 4.62311 159.254 4.09659 159.845 3.72159C160.44 3.34659 161.131 3.15909 161.919 3.15909C162.707 3.15909 163.396 3.34659 163.987 3.72159C164.582 4.09659 165.044 4.62311 165.374 5.30114C165.707 5.97917 165.874 6.77273 165.874 7.68182C165.874 8.58333 165.707 9.37121 165.374 10.0455C165.044 10.7197 164.582 11.2443 163.987 11.6193C163.396 11.9943 162.707 12.1818 161.919 12.1818ZM161.919 10.9773C162.518 10.9773 163.01 10.8239 163.396 10.517C163.783 10.2102 164.069 9.80682 164.254 9.30682C164.44 8.80682 164.533 8.26515 164.533 7.68182C164.533 7.09848 164.44 6.55492 164.254 6.05114C164.069 5.54735 163.783 5.14015 163.396 4.82955C163.01 4.51894 162.518 4.36364 161.919 4.36364C161.321 4.36364 160.828 4.51894 160.442 4.82955C160.055 5.14015 159.769 5.54735 159.584 6.05114C159.398 6.55492 159.305 7.09848 159.305 7.68182C159.305 8.26515 159.398 8.80682 159.584 9.30682C159.769 9.80682 160.055 10.2102 160.442 10.517C160.828 10.8239 161.321 10.9773 161.919 10.9773ZM170.055 10.4091L169.964 11.0227C169.9 11.4545 169.802 11.9167 169.669 12.4091C169.54 12.9015 169.406 13.3655 169.266 13.8011C169.125 14.2367 169.01 14.5833 168.919 14.8409H167.896C167.946 14.5985 168.01 14.2784 168.089 13.8807C168.169 13.483 168.249 13.0379 168.328 12.5455C168.411 12.0568 168.48 11.5568 168.533 11.0455L168.601 10.4091H170.055ZM177.04 12V3.27273H183.903V12H182.562V4.52273H178.381V12H177.04ZM189.898 12.1818C189.11 12.1818 188.419 11.9943 187.824 11.6193C187.233 11.2443 186.771 10.7197 186.438 10.0455C186.108 9.37121 185.943 8.58333 185.943 7.68182C185.943 6.77273 186.108 5.97917 186.438 5.30114C186.771 4.62311 187.233 4.09659 187.824 3.72159C188.419 3.34659 189.11 3.15909 189.898 3.15909C190.686 3.15909 191.375 3.34659 191.966 3.72159C192.561 4.09659 193.023 4.62311 193.352 5.30114C193.686 5.97917 193.852 6.77273 193.852 7.68182C193.852 8.58333 193.686 9.37121 193.352 10.0455C193.023 10.7197 192.561 11.2443 191.966 11.6193C191.375 11.9943 190.686 12.1818 189.898 12.1818ZM189.898 10.9773C190.496 10.9773 190.989 10.8239 191.375 10.517C191.761 10.2102 192.047 9.80682 192.233 9.30682C192.419 8.80682 192.511 8.26515 192.511 7.68182C192.511 7.09848 192.419 6.55492 192.233 6.05114C192.047 5.54735 191.761 5.14015 191.375 4.82955C190.989 4.51894 190.496 4.36364 189.898 4.36364C189.299 4.36364 188.807 4.51894 188.42 4.82955C188.034 5.14015 187.748 5.54735 187.562 6.05114C187.377 6.55492 187.284 7.09848 187.284 7.68182C187.284 8.26515 187.377 8.80682 187.562 9.30682C187.748 9.80682 188.034 10.2102 188.42 10.517C188.807 10.8239 189.299 10.9773 189.898 10.9773ZM195.126 12V10.75H195.445C195.706 10.75 195.924 10.6989 196.098 10.5966C196.272 10.4905 196.412 10.3068 196.518 10.0455C196.628 9.7803 196.712 9.41288 196.768 8.94318C196.829 8.4697 196.873 7.86742 196.899 7.13636L197.058 3.27273H202.876V12H201.536V4.52273H198.331L198.195 7.63636C198.164 8.35227 198.1 8.98295 198.001 9.52841C197.907 10.0701 197.761 10.5246 197.564 10.892C197.371 11.2595 197.113 11.536 196.791 11.7216C196.469 11.9072 196.066 12 195.581 12H195.126ZM208.996 12.1818C208.155 12.1818 207.429 11.9962 206.82 11.625C206.214 11.25 205.746 10.7273 205.416 10.0568C205.09 9.38258 204.928 8.59848 204.928 7.70455C204.928 6.81061 205.09 6.02273 205.416 5.34091C205.746 4.6553 206.204 4.12121 206.791 3.73864C207.382 3.35227 208.071 3.15909 208.859 3.15909C209.314 3.15909 209.763 3.23485 210.206 3.38636C210.649 3.53788 211.053 3.78409 211.416 4.125C211.78 4.46212 212.07 4.90909 212.286 5.46591C212.501 6.02273 212.609 6.70833 212.609 7.52273V8.09091H205.882V6.93182H211.246C211.246 6.43939 211.147 6 210.95 5.61364C210.757 5.22727 210.481 4.92235 210.121 4.69886C209.765 4.47538 209.344 4.36364 208.859 4.36364C208.325 4.36364 207.863 4.49621 207.473 4.76136C207.087 5.02273 206.789 5.36364 206.581 5.78409C206.373 6.20455 206.268 6.6553 206.268 7.13636V7.90909C206.268 8.56818 206.382 9.12689 206.609 9.58523C206.84 10.0398 207.161 10.3864 207.57 10.625C207.979 10.8598 208.454 10.9773 208.996 10.9773C209.348 10.9773 209.666 10.928 209.95 10.8295C210.238 10.7273 210.486 10.5758 210.695 10.375C210.903 10.1705 211.064 9.91667 211.178 9.61364L212.473 9.97727C212.337 10.4167 212.107 10.803 211.786 11.1364C211.464 11.4659 211.066 11.7235 210.592 11.9091C210.119 12.0909 209.587 12.1818 208.996 12.1818ZM214.649 12V3.27273H218.217C219.157 3.27273 219.903 3.48485 220.456 3.90909C221.009 4.33333 221.286 4.89394 221.286 5.59091C221.286 6.12121 221.128 6.5322 220.814 6.82386C220.5 7.11174 220.096 7.30682 219.604 7.40909C219.926 7.45455 220.238 7.56818 220.541 7.75C220.848 7.93182 221.102 8.18182 221.303 8.5C221.503 8.81439 221.604 9.20076 221.604 9.65909C221.604 10.1061 221.49 10.5057 221.263 10.858C221.036 11.2102 220.71 11.4886 220.286 11.6932C219.861 11.8977 219.354 12 218.763 12H214.649ZM215.922 10.7727H218.763C219.225 10.7727 219.587 10.6629 219.848 10.4432C220.109 10.2235 220.24 9.92424 220.24 9.54545C220.24 9.0947 220.109 8.74053 219.848 8.48295C219.587 8.22159 219.225 8.09091 218.763 8.09091H215.922V10.7727ZM215.922 6.93182H218.217C218.577 6.93182 218.886 6.88258 219.143 6.78409C219.401 6.68182 219.598 6.53788 219.734 6.35227C219.875 6.16288 219.945 5.93939 219.945 5.68182C219.945 5.31439 219.791 5.02651 219.484 4.81818C219.178 4.60606 218.755 4.5 218.217 4.5H215.922V6.93182ZM224.793 6.43182H227.293C228.315 6.43182 229.098 6.69129 229.639 7.21023C230.181 7.72917 230.452 8.38636 230.452 9.18182C230.452 9.70455 230.33 10.1799 230.088 10.608C229.846 11.0322 229.49 11.3712 229.02 11.625C228.55 11.875 227.974 12 227.293 12H223.634V3.27273H224.974V10.75H227.293C227.823 10.75 228.259 10.6098 228.599 10.3295C228.94 10.0492 229.111 9.68939 229.111 9.25C229.111 8.78788 228.94 8.41098 228.599 8.11932C228.259 7.82765 227.823 7.68182 227.293 7.68182H224.793V6.43182ZM231.838 12V3.27273H233.179V12H231.838ZM239.293 12.1818C238.452 12.1818 237.726 11.9962 237.116 11.625C236.51 11.25 236.043 10.7273 235.713 10.0568C235.387 9.38258 235.224 8.59848 235.224 7.70455C235.224 6.81061 235.387 6.02273 235.713 5.34091C236.043 4.6553 236.501 4.12121 237.088 3.73864C237.679 3.35227 238.368 3.15909 239.156 3.15909C239.611 3.15909 240.06 3.23485 240.503 3.38636C240.946 3.53788 241.349 3.78409 241.713 4.125C242.077 4.46212 242.366 4.90909 242.582 5.46591C242.798 6.02273 242.906 6.70833 242.906 7.52273V8.09091H236.179V6.93182H241.543C241.543 6.43939 241.444 6 241.247 5.61364C241.054 5.22727 240.777 4.92235 240.418 4.69886C240.062 4.47538 239.641 4.36364 239.156 4.36364C238.622 4.36364 238.16 4.49621 237.77 4.76136C237.384 5.02273 237.086 5.36364 236.878 5.78409C236.67 6.20455 236.565 6.6553 236.565 7.13636V7.90909C236.565 8.56818 236.679 9.12689 236.906 9.58523C237.137 10.0398 237.457 10.3864 237.866 10.625C238.276 10.8598 238.751 10.9773 239.293 10.9773C239.645 10.9773 239.963 10.928 240.247 10.8295C240.535 10.7273 240.783 10.5758 240.991 10.375C241.2 10.1705 241.361 9.91667 241.474 9.61364L242.77 9.97727C242.634 10.4167 242.404 10.803 242.082 11.1364C241.76 11.4659 241.363 11.7235 240.889 11.9091C240.416 12.0909 239.884 12.1818 239.293 12.1818ZM2.56818 30.0227L6.77273 23.2727H8.31818V32H6.97727V25.25L2.79545 32H1.22727V23.2727H2.56818V30.0227ZM14.5014 32V30.75H14.8196C15.081 30.75 15.2988 30.6989 15.473 30.5966C15.6473 30.4905 15.7874 30.3068 15.8935 30.0455C16.0033 29.7803 16.0866 29.4129 16.1435 28.9432C16.2041 28.4697 16.2476 27.8674 16.2741 27.1364L16.4332 23.2727H22.2514V32H20.9105V24.5227H17.706L17.5696 27.6364C17.5393 28.3523 17.4749 28.983 17.3764 29.5284C17.2817 30.0701 17.1359 30.5246 16.9389 30.892C16.7457 31.2595 16.4882 31.536 16.1662 31.7216C15.8442 31.9072 15.4408 32 14.956 32H14.5014ZM27.2798 32.2045C26.7268 32.2045 26.2249 32.1004 25.7741 31.892C25.3234 31.6799 24.9654 31.375 24.7003 30.9773C24.4351 30.5758 24.3026 30.0909 24.3026 29.5227C24.3026 29.0227 24.401 28.6174 24.598 28.3068C24.795 27.9924 25.0582 27.7462 25.3878 27.5682C25.7173 27.3902 26.081 27.2576 26.4787 27.1705C26.8802 27.0795 27.2836 27.0076 27.6889 26.9545C28.2192 26.8864 28.6491 26.8352 28.9787 26.8011C29.312 26.7633 29.5545 26.7008 29.706 26.6136C29.8613 26.5265 29.9389 26.375 29.9389 26.1591V26.1136C29.9389 25.553 29.7855 25.1174 29.4787 24.8068C29.1757 24.4962 28.7154 24.3409 28.098 24.3409C27.4579 24.3409 26.956 24.4811 26.5923 24.7614C26.2287 25.0417 25.973 25.3409 25.8253 25.6591L24.5526 25.2045C24.7798 24.6742 25.0829 24.2614 25.4616 23.9659C25.8442 23.6667 26.2609 23.4583 26.7116 23.3409C27.1662 23.2197 27.6132 23.1591 28.0526 23.1591C28.3329 23.1591 28.6548 23.1932 29.0185 23.2614C29.3859 23.3258 29.7401 23.4602 30.081 23.6648C30.4257 23.8693 30.7116 24.178 30.9389 24.5909C31.1662 25.0038 31.2798 25.5568 31.2798 26.25V32H29.9389V30.8182H29.8707C29.7798 31.0076 29.6283 31.2102 29.4162 31.4261C29.2041 31.642 28.9219 31.8258 28.5696 31.9773C28.2173 32.1288 27.7874 32.2045 27.2798 32.2045ZM27.4844 31C28.0147 31 28.4616 30.8958 28.8253 30.6875C29.1927 30.4792 29.4692 30.2102 29.6548 29.8807C29.8442 29.5511 29.9389 29.2045 29.9389 28.8409V27.6136C29.8821 27.6818 29.7571 27.7443 29.5639 27.8011C29.3745 27.8542 29.1548 27.9015 28.9048 27.9432C28.6586 27.9811 28.4181 28.0152 28.1832 28.0455C27.9522 28.072 27.7647 28.0947 27.6207 28.1136C27.2723 28.1591 26.9465 28.233 26.6435 28.3352C26.3442 28.4337 26.1018 28.5833 25.9162 28.7841C25.7344 28.9811 25.6435 29.25 25.6435 29.5909C25.6435 30.0568 25.8158 30.4091 26.1605 30.6477C26.509 30.8826 26.9503 31 27.4844 31ZM40.2045 20L40.8864 20.8182C40.6212 21.0758 40.3144 21.2557 39.9659 21.358C39.6174 21.4602 39.2235 21.5227 38.7841 21.5455C38.3447 21.5682 37.8561 21.5909 37.3182 21.6136C36.7121 21.6364 36.2102 21.7841 35.8125 22.0568C35.4148 22.3295 35.108 22.7235 34.892 23.2386C34.6761 23.7538 34.5379 24.3864 34.4773 25.1364H34.5909C34.8864 24.5909 35.2955 24.1894 35.8182 23.9318C36.3409 23.6742 36.9015 23.5455 37.5 23.5455C38.1818 23.5455 38.7955 23.7045 39.3409 24.0227C39.8864 24.3409 40.3182 24.8125 40.6364 25.4375C40.9545 26.0625 41.1136 26.8333 41.1136 27.75C41.1136 28.6629 40.9508 29.4508 40.625 30.1136C40.303 30.7765 39.8504 31.2879 39.267 31.6477C38.6875 32.0038 38.0076 32.1818 37.2273 32.1818C36.447 32.1818 35.7633 31.9981 35.1761 31.6307C34.589 31.2595 34.1326 30.7102 33.8068 29.983C33.4811 29.2519 33.3182 28.3485 33.3182 27.2727V26.3409C33.3182 24.3977 33.6477 22.9242 34.3068 21.9205C34.9697 20.9167 35.9659 20.3977 37.2955 20.3636C37.7652 20.3485 38.1837 20.3447 38.5511 20.3523C38.9186 20.3598 39.2386 20.3428 39.5114 20.3011C39.7841 20.2595 40.0152 20.1591 40.2045 20ZM37.2273 30.9773C37.7538 30.9773 38.2064 30.8447 38.5852 30.5795C38.9678 30.3144 39.2614 29.9413 39.4659 29.4602C39.6705 28.9754 39.7727 28.4053 39.7727 27.75C39.7727 27.1136 39.6686 26.572 39.4602 26.125C39.2557 25.678 38.9621 25.3371 38.5795 25.1023C38.197 24.8674 37.7386 24.75 37.2045 24.75C36.8144 24.75 36.464 24.8163 36.1534 24.9489C35.8428 25.0814 35.5777 25.2765 35.358 25.5341C35.1383 25.7917 34.9678 26.1061 34.8466 26.4773C34.7292 26.8485 34.6667 27.2727 34.6591 27.75C34.6591 28.7273 34.8883 29.5095 35.3466 30.0966C35.8049 30.6837 36.4318 30.9773 37.2273 30.9773ZM46.7102 32.1818C45.9223 32.1818 45.2311 31.9943 44.6364 31.6193C44.0455 31.2443 43.5833 30.7197 43.25 30.0455C42.9205 29.3712 42.7557 28.5833 42.7557 27.6818C42.7557 26.7727 42.9205 25.9792 43.25 25.3011C43.5833 24.6231 44.0455 24.0966 44.6364 23.7216C45.2311 23.3466 45.9223 23.1591 46.7102 23.1591C47.4981 23.1591 48.1875 23.3466 48.7784 23.7216C49.3731 24.0966 49.8352 24.6231 50.1648 25.3011C50.4981 25.9792 50.6648 26.7727 50.6648 27.6818C50.6648 28.5833 50.4981 29.3712 50.1648 30.0455C49.8352 30.7197 49.3731 31.2443 48.7784 31.6193C48.1875 31.9943 47.4981 32.1818 46.7102 32.1818ZM46.7102 30.9773C47.3087 30.9773 47.8011 30.8239 48.1875 30.517C48.5739 30.2102 48.8598 29.8068 49.0455 29.3068C49.2311 28.8068 49.3239 28.2652 49.3239 27.6818C49.3239 27.0985 49.2311 26.5549 49.0455 26.0511C48.8598 25.5473 48.5739 25.1402 48.1875 24.8295C47.8011 24.5189 47.3087 24.3636 46.7102 24.3636C46.1117 24.3636 45.6193 24.5189 45.233 24.8295C44.8466 25.1402 44.5606 25.5473 44.375 26.0511C44.1894 26.5549 44.0966 27.0985 44.0966 27.6818C44.0966 28.2652 44.1894 28.8068 44.375 29.3068C44.5606 29.8068 44.8466 30.2102 45.233 30.517C45.6193 30.8239 46.1117 30.9773 46.7102 30.9773ZM52.7116 35.2727V23.2727H54.0071V24.6591H54.1662C54.2647 24.5076 54.401 24.3144 54.5753 24.0795C54.7533 23.8409 55.0071 23.6288 55.3366 23.4432C55.67 23.2538 56.1207 23.1591 56.6889 23.1591C57.4238 23.1591 58.0715 23.3428 58.6321 23.7102C59.1927 24.0777 59.6302 24.5985 59.9446 25.2727C60.259 25.947 60.4162 26.7424 60.4162 27.6591C60.4162 28.5833 60.259 29.3845 59.9446 30.0625C59.6302 30.7367 59.1946 31.2595 58.6378 31.6307C58.081 31.9981 57.4389 32.1818 56.7116 32.1818C56.151 32.1818 55.7022 32.089 55.3651 31.9034C55.0279 31.714 54.7685 31.5 54.5866 31.2614C54.4048 31.0189 54.2647 30.8182 54.1662 30.6591H54.0526V35.2727H52.7116ZM54.0298 27.6364C54.0298 28.2955 54.1264 28.8769 54.3196 29.3807C54.5128 29.8807 54.795 30.2727 55.1662 30.5568C55.5374 30.8371 55.992 30.9773 56.5298 30.9773C57.0904 30.9773 57.5582 30.8295 57.9332 30.5341C58.312 30.2348 58.5961 29.8333 58.7855 29.3295C58.9787 28.822 59.0753 28.2576 59.0753 27.6364C59.0753 27.0227 58.9806 26.4697 58.7912 25.9773C58.6056 25.4811 58.3234 25.089 57.9446 24.8011C57.5696 24.5095 57.098 24.3636 56.5298 24.3636C55.9844 24.3636 55.526 24.5019 55.1548 24.7784C54.7836 25.0511 54.5033 25.4337 54.3139 25.9261C54.1245 26.4148 54.0298 26.9848 54.0298 27.6364ZM65.0298 32.2045C64.4768 32.2045 63.9749 32.1004 63.5241 31.892C63.0734 31.6799 62.7154 31.375 62.4503 30.9773C62.1851 30.5758 62.0526 30.0909 62.0526 29.5227C62.0526 29.0227 62.151 28.6174 62.348 28.3068C62.545 27.9924 62.8082 27.7462 63.1378 27.5682C63.4673 27.3902 63.831 27.2576 64.2287 27.1705C64.6302 27.0795 65.0336 27.0076 65.4389 26.9545C65.9692 26.8864 66.3991 26.8352 66.7287 26.8011C67.062 26.7633 67.3045 26.7008 67.456 26.6136C67.6113 26.5265 67.6889 26.375 67.6889 26.1591V26.1136C67.6889 25.553 67.5355 25.1174 67.2287 24.8068C66.9257 24.4962 66.4654 24.3409 65.848 24.3409C65.2079 24.3409 64.706 24.4811 64.3423 24.7614C63.9787 25.0417 63.723 25.3409 63.5753 25.6591L62.3026 25.2045C62.5298 24.6742 62.8329 24.2614 63.2116 23.9659C63.5942 23.6667 64.0109 23.4583 64.4616 23.3409C64.9162 23.2197 65.3632 23.1591 65.8026 23.1591C66.0829 23.1591 66.4048 23.1932 66.7685 23.2614C67.1359 23.3258 67.4901 23.4602 67.831 23.6648C68.1757 23.8693 68.4616 24.178 68.6889 24.5909C68.9162 25.0038 69.0298 25.5568 69.0298 26.25V32H67.6889V30.8182H67.6207C67.5298 31.0076 67.3783 31.2102 67.1662 31.4261C66.9541 31.642 66.6719 31.8258 66.3196 31.9773C65.9673 32.1288 65.5374 32.2045 65.0298 32.2045ZM65.2344 31C65.7647 31 66.2116 30.8958 66.5753 30.6875C66.9427 30.4792 67.2192 30.2102 67.4048 29.8807C67.5942 29.5511 67.6889 29.2045 67.6889 28.8409V27.6136C67.6321 27.6818 67.5071 27.7443 67.3139 27.8011C67.1245 27.8542 66.9048 27.9015 66.6548 27.9432C66.4086 27.9811 66.1681 28.0152 65.9332 28.0455C65.7022 28.072 65.5147 28.0947 65.3707 28.1136C65.0223 28.1591 64.6965 28.233 64.3935 28.3352C64.0942 28.4337 63.8518 28.5833 63.6662 28.7841C63.4844 28.9811 63.3935 29.25 63.3935 29.5909C63.3935 30.0568 63.5658 30.4091 63.9105 30.6477C64.259 30.8826 64.7003 31 65.2344 31ZM70.2898 24.5227V23.2727H77.3807V24.5227H74.517V32H73.1761V24.5227H70.2898ZM82.429 32.1818C81.6411 32.1818 80.9498 31.9943 80.3551 31.6193C79.7642 31.2443 79.3021 30.7197 78.9688 30.0455C78.6392 29.3712 78.4744 28.5833 78.4744 27.6818C78.4744 26.7727 78.6392 25.9792 78.9688 25.3011C79.3021 24.6231 79.7642 24.0966 80.3551 23.7216C80.9498 23.3466 81.6411 23.1591 82.429 23.1591C83.2169 23.1591 83.9063 23.3466 84.4972 23.7216C85.0919 24.0966 85.554 24.6231 85.8835 25.3011C86.2169 25.9792 86.3835 26.7727 86.3835 27.6818C86.3835 28.5833 86.2169 29.3712 85.8835 30.0455C85.554 30.7197 85.0919 31.2443 84.4972 31.6193C83.9063 31.9943 83.2169 32.1818 82.429 32.1818ZM82.429 30.9773C83.0275 30.9773 83.5199 30.8239 83.9062 30.517C84.2926 30.2102 84.5786 29.8068 84.7642 29.3068C84.9498 28.8068 85.0426 28.2652 85.0426 27.6818C85.0426 27.0985 84.9498 26.5549 84.7642 26.0511C84.5786 25.5473 84.2926 25.1402 83.9062 24.8295C83.5199 24.5189 83.0275 24.3636 82.429 24.3636C81.8305 24.3636 81.3381 24.5189 80.9517 24.8295C80.5653 25.1402 80.2794 25.5473 80.0938 26.0511C79.9081 26.5549 79.8153 27.0985 79.8153 27.6818C79.8153 28.2652 79.9081 28.8068 80.0938 29.3068C80.2794 29.8068 80.5653 30.2102 80.9517 30.517C81.3381 30.8239 81.8305 30.9773 82.429 30.9773ZM88.4304 35.2727V23.2727H89.7259V24.6591H89.8849C89.9834 24.5076 90.1198 24.3144 90.294 24.0795C90.4721 23.8409 90.7259 23.6288 91.0554 23.4432C91.3887 23.2538 91.8395 23.1591 92.4077 23.1591C93.1425 23.1591 93.7902 23.3428 94.3509 23.7102C94.9115 24.0777 95.349 24.5985 95.6634 25.2727C95.9777 25.947 96.1349 26.7424 96.1349 27.6591C96.1349 28.5833 95.9777 29.3845 95.6634 30.0625C95.349 30.7367 94.9134 31.2595 94.3565 31.6307C93.7997 31.9981 93.1577 32.1818 92.4304 32.1818C91.8698 32.1818 91.4209 32.089 91.0838 31.9034C90.7467 31.714 90.4872 31.5 90.3054 31.2614C90.1236 31.0189 89.9834 30.8182 89.8849 30.6591H89.7713V35.2727H88.4304ZM89.7486 27.6364C89.7486 28.2955 89.8452 28.8769 90.0384 29.3807C90.2315 29.8807 90.5137 30.2727 90.8849 30.5568C91.2562 30.8371 91.7107 30.9773 92.2486 30.9773C92.8092 30.9773 93.277 30.8295 93.652 30.5341C94.0308 30.2348 94.3149 29.8333 94.5043 29.3295C94.6974 28.822 94.794 28.2576 94.794 27.6364C94.794 27.0227 94.6993 26.4697 94.5099 25.9773C94.3243 25.4811 94.0421 25.089 93.6634 24.8011C93.2884 24.5095 92.8168 24.3636 92.2486 24.3636C91.7031 24.3636 91.2448 24.5019 90.8736 24.7784C90.5024 25.0511 90.2221 25.4337 90.0327 25.9261C89.8433 26.4148 89.7486 26.9848 89.7486 27.6364ZM104.021 27.0227V28.2727H99.2031V27.0227H104.021ZM99.5213 23.2727V32H98.1804V23.2727H99.5213ZM105.044 23.2727V32H103.703V23.2727H105.044ZM108.652 26.4318H111.152C112.175 26.4318 112.957 26.6913 113.499 27.2102C114.04 27.7292 114.311 28.3864 114.311 29.1818C114.311 29.7045 114.19 30.1799 113.947 30.608C113.705 31.0322 113.349 31.3712 112.879 31.625C112.41 31.875 111.834 32 111.152 32H107.493V23.2727H108.834V30.75H111.152C111.682 30.75 112.118 30.6098 112.459 30.3295C112.8 30.0492 112.97 29.6894 112.97 29.25C112.97 28.7879 112.8 28.411 112.459 28.1193C112.118 27.8277 111.682 27.6818 111.152 27.6818H108.652V26.4318ZM115.697 32V23.2727H117.038V32H115.697ZM123.152 32.1818C122.311 32.1818 121.586 31.9962 120.976 31.625C120.37 31.25 119.902 30.7273 119.572 30.0568C119.247 29.3826 119.084 28.5985 119.084 27.7045C119.084 26.8106 119.247 26.0227 119.572 25.3409C119.902 24.6553 120.36 24.1212 120.947 23.7386C121.538 23.3523 122.228 23.1591 123.016 23.1591C123.47 23.1591 123.919 23.2348 124.362 23.3864C124.805 23.5379 125.209 23.7841 125.572 24.125C125.936 24.4621 126.226 24.9091 126.442 25.4659C126.658 26.0227 126.766 26.7083 126.766 27.5227V28.0909H120.038V26.9318H125.402C125.402 26.4394 125.304 26 125.107 25.6136C124.913 25.2273 124.637 24.9223 124.277 24.6989C123.921 24.4754 123.5 24.3636 123.016 24.3636C122.482 24.3636 122.019 24.4962 121.629 24.7614C121.243 25.0227 120.946 25.3636 120.737 25.7841C120.529 26.2045 120.425 26.6553 120.425 27.1364V27.9091C120.425 28.5682 120.538 29.1269 120.766 29.5852C120.997 30.0398 121.317 30.3864 121.726 30.625C122.135 30.8598 122.61 30.9773 123.152 30.9773C123.504 30.9773 123.822 30.928 124.107 30.8295C124.394 30.7273 124.643 30.5758 124.851 30.375C125.059 30.1705 125.22 29.9167 125.334 29.6136L126.629 29.9773C126.493 30.4167 126.264 30.803 125.942 31.1364C125.62 31.4659 125.222 31.7235 124.749 31.9091C124.275 32.0909 123.743 32.1818 123.152 32.1818ZM134.646 30.0227L138.851 23.2727H140.396V32H139.055V25.25L134.874 32H133.305V23.2727H134.646V30.0227ZM146.398 32.1818C145.58 32.1818 144.875 31.9886 144.284 31.6023C143.693 31.2159 143.239 30.6837 142.92 30.0057C142.602 29.3277 142.443 28.553 142.443 27.6818C142.443 26.7955 142.606 26.0133 142.932 25.3352C143.261 24.6534 143.72 24.1212 144.307 23.7386C144.898 23.3523 145.587 23.1591 146.375 23.1591C146.989 23.1591 147.542 23.2727 148.034 23.5C148.527 23.7273 148.93 24.0455 149.244 24.4545C149.559 24.8636 149.754 25.3409 149.83 25.8864H148.489C148.386 25.4886 148.159 25.1364 147.807 24.8295C147.458 24.5189 146.989 24.3636 146.398 24.3636C145.875 24.3636 145.417 24.5 145.023 24.7727C144.633 25.0417 144.328 25.4223 144.108 25.9148C143.892 26.4034 143.784 26.9773 143.784 27.6364C143.784 28.3106 143.89 28.8977 144.102 29.3977C144.318 29.8977 144.621 30.286 145.011 30.5625C145.405 30.839 145.867 30.9773 146.398 30.9773C146.746 30.9773 147.062 30.9167 147.347 30.7955C147.631 30.6742 147.871 30.5 148.068 30.2727C148.265 30.0455 148.405 29.7727 148.489 29.4545H149.83C149.754 29.9697 149.566 30.4337 149.267 30.8466C148.972 31.2557 148.58 31.5814 148.091 31.8239C147.606 32.0625 147.042 32.1818 146.398 32.1818ZM155.335 32.1818C154.517 32.1818 153.813 31.9886 153.222 31.6023C152.631 31.2159 152.176 30.6837 151.858 30.0057C151.54 29.3277 151.381 28.553 151.381 27.6818C151.381 26.7955 151.544 26.0133 151.869 25.3352C152.199 24.6534 152.657 24.1212 153.244 23.7386C153.835 23.3523 154.525 23.1591 155.312 23.1591C155.926 23.1591 156.479 23.2727 156.972 23.5C157.464 23.7273 157.867 24.0455 158.182 24.4545C158.496 24.8636 158.691 25.3409 158.767 25.8864H157.426C157.324 25.4886 157.097 25.1364 156.744 24.8295C156.396 24.5189 155.926 24.3636 155.335 24.3636C154.813 24.3636 154.354 24.5 153.96 24.7727C153.57 25.0417 153.265 25.4223 153.045 25.9148C152.83 26.4034 152.722 26.9773 152.722 27.6364C152.722 28.3106 152.828 28.8977 153.04 29.3977C153.256 29.8977 153.559 30.286 153.949 30.5625C154.343 30.839 154.805 30.9773 155.335 30.9773C155.684 30.9773 156 30.9167 156.284 30.7955C156.568 30.6742 156.809 30.5 157.006 30.2727C157.203 30.0455 157.343 29.7727 157.426 29.4545H158.767C158.691 29.9697 158.504 30.4337 158.205 30.8466C157.909 31.2557 157.517 31.5814 157.028 31.8239C156.544 32.0625 155.979 32.1818 155.335 32.1818ZM159.955 32V30.75H160.273C160.534 30.75 160.752 30.6989 160.926 30.5966C161.1 30.4905 161.241 30.3068 161.347 30.0455C161.456 29.7803 161.54 29.4129 161.597 28.9432C161.657 28.4697 161.701 27.8674 161.727 27.1364L161.886 23.2727H167.705V32H166.364V24.5227H163.159L163.023 27.6364C162.992 28.3523 162.928 28.983 162.83 29.5284C162.735 30.0701 162.589 30.5246 162.392 30.892C162.199 31.2595 161.941 31.536 161.619 31.7216C161.297 31.9072 160.894 32 160.409 32H159.955ZM173.824 32.1818C172.983 32.1818 172.258 31.9962 171.648 31.625C171.042 31.25 170.574 30.7273 170.244 30.0568C169.919 29.3826 169.756 28.5985 169.756 27.7045C169.756 26.8106 169.919 26.0227 170.244 25.3409C170.574 24.6553 171.032 24.1212 171.619 23.7386C172.21 23.3523 172.9 23.1591 173.688 23.1591C174.142 23.1591 174.591 23.2348 175.034 23.3864C175.477 23.5379 175.881 23.7841 176.244 24.125C176.608 24.4621 176.898 24.9091 177.114 25.4659C177.33 26.0227 177.438 26.7083 177.438 27.5227V28.0909H170.71V26.9318H176.074C176.074 26.4394 175.975 26 175.778 25.6136C175.585 25.2273 175.309 24.9223 174.949 24.6989C174.593 24.4754 174.172 24.3636 173.688 24.3636C173.153 24.3636 172.691 24.4962 172.301 24.7614C171.915 25.0227 171.617 25.3636 171.409 25.7841C171.201 26.2045 171.097 26.6553 171.097 27.1364V27.9091C171.097 28.5682 171.21 29.1269 171.438 29.5852C171.669 30.0398 171.989 30.3864 172.398 30.625C172.807 30.8598 173.282 30.9773 173.824 30.9773C174.176 30.9773 174.494 30.928 174.778 30.8295C175.066 30.7273 175.314 30.5758 175.523 30.375C175.731 30.1705 175.892 29.9167 176.006 29.6136L177.301 29.9773C177.165 30.4167 176.936 30.803 176.614 31.1364C176.292 31.4659 175.894 31.7235 175.42 31.9091C174.947 32.0909 174.415 32.1818 173.824 32.1818ZM178.545 34.5V30.75H179.273C179.451 30.5644 179.604 30.3636 179.733 30.1477C179.862 29.9318 179.973 29.6761 180.068 29.3807C180.167 29.0814 180.25 28.7178 180.318 28.2898C180.386 27.858 180.447 27.3371 180.5 26.7273L180.795 23.2727H186.341V30.75H187.682V34.5H186.341V32H179.886V34.5H178.545ZM180.795 30.75H185V24.5227H182.045L181.818 26.7273C181.723 27.6402 181.606 28.4375 181.466 29.1193C181.326 29.8011 181.102 30.3447 180.795 30.75ZM193.007 32.1818C192.219 32.1818 191.528 31.9943 190.933 31.6193C190.342 31.2443 189.88 30.7197 189.547 30.0455C189.217 29.3712 189.053 28.5833 189.053 27.6818C189.053 26.7727 189.217 25.9792 189.547 25.3011C189.88 24.6231 190.342 24.0966 190.933 23.7216C191.528 23.3466 192.219 23.1591 193.007 23.1591C193.795 23.1591 194.484 23.3466 195.075 23.7216C195.67 24.0966 196.132 24.6231 196.462 25.3011C196.795 25.9792 196.962 26.7727 196.962 27.6818C196.962 28.5833 196.795 29.3712 196.462 30.0455C196.132 30.7197 195.67 31.2443 195.075 31.6193C194.484 31.9943 193.795 32.1818 193.007 32.1818ZM193.007 30.9773C193.606 30.9773 194.098 30.8239 194.484 30.517C194.871 30.2102 195.157 29.8068 195.342 29.3068C195.528 28.8068 195.621 28.2652 195.621 27.6818C195.621 27.0985 195.528 26.5549 195.342 26.0511C195.157 25.5473 194.871 25.1402 194.484 24.8295C194.098 24.5189 193.606 24.3636 193.007 24.3636C192.409 24.3636 191.916 24.5189 191.53 24.8295C191.143 25.1402 190.857 25.5473 190.672 26.0511C190.486 26.5549 190.393 27.0985 190.393 27.6818C190.393 28.2652 190.486 28.8068 190.672 29.3068C190.857 29.8068 191.143 30.2102 191.53 30.517C191.916 30.8239 192.409 30.9773 193.007 30.9773ZM199.009 32V23.2727H202.577C203.516 23.2727 204.262 23.4848 204.815 23.9091C205.368 24.3333 205.645 24.8939 205.645 25.5909C205.645 26.1212 205.488 26.5322 205.173 26.8239C204.859 27.1117 204.455 27.3068 203.963 27.4091C204.285 27.4545 204.598 27.5682 204.901 27.75C205.207 27.9318 205.461 28.1818 205.662 28.5C205.863 28.8144 205.963 29.2008 205.963 29.6591C205.963 30.1061 205.849 30.5057 205.622 30.858C205.395 31.2102 205.069 31.4886 204.645 31.6932C204.221 31.8977 203.713 32 203.122 32H199.009ZM200.281 30.7727H203.122C203.584 30.7727 203.946 30.6629 204.207 30.4432C204.469 30.2235 204.599 29.9242 204.599 29.5455C204.599 29.0947 204.469 28.7405 204.207 28.483C203.946 28.2216 203.584 28.0909 203.122 28.0909H200.281V30.7727ZM200.281 26.9318H202.577C202.937 26.9318 203.245 26.8826 203.503 26.7841C203.76 26.6818 203.957 26.5379 204.094 26.3523C204.234 26.1629 204.304 25.9394 204.304 25.6818C204.304 25.3144 204.151 25.0265 203.844 24.8182C203.537 24.6061 203.115 24.5 202.577 24.5H200.281V26.9318ZM210.561 32.2045C210.008 32.2045 209.506 32.1004 209.055 31.892C208.605 31.6799 208.247 31.375 207.982 30.9773C207.716 30.5758 207.584 30.0909 207.584 29.5227C207.584 29.0227 207.682 28.6174 207.879 28.3068C208.076 27.9924 208.339 27.7462 208.669 27.5682C208.999 27.3902 209.362 27.2576 209.76 27.1705C210.161 27.0795 210.565 27.0076 210.97 26.9545C211.5 26.8864 211.93 26.8352 212.26 26.8011C212.593 26.7633 212.836 26.7008 212.987 26.6136C213.143 26.5265 213.22 26.375 213.22 26.1591V26.1136C213.22 25.553 213.067 25.1174 212.76 24.8068C212.457 24.4962 211.997 24.3409 211.379 24.3409C210.739 24.3409 210.237 24.4811 209.874 24.7614C209.51 25.0417 209.254 25.3409 209.107 25.6591L207.834 25.2045C208.061 24.6742 208.364 24.2614 208.743 23.9659C209.125 23.6667 209.542 23.4583 209.993 23.3409C210.447 23.2197 210.894 23.1591 211.334 23.1591C211.614 23.1591 211.936 23.1932 212.3 23.2614C212.667 23.3258 213.021 23.4602 213.362 23.6648C213.707 23.8693 213.993 24.178 214.22 24.5909C214.447 25.0038 214.561 25.5568 214.561 26.25V32H213.22V30.8182H213.152C213.061 31.0076 212.91 31.2102 212.697 31.4261C212.485 31.642 212.203 31.8258 211.851 31.9773C211.499 32.1288 211.069 32.2045 210.561 32.2045ZM210.766 31C211.296 31 211.743 30.8958 212.107 30.6875C212.474 30.4792 212.75 30.2102 212.936 29.8807C213.125 29.5511 213.22 29.2045 213.22 28.8409V27.6136C213.163 27.6818 213.038 27.7443 212.845 27.8011C212.656 27.8542 212.436 27.9015 212.186 27.9432C211.94 27.9811 211.699 28.0152 211.464 28.0455C211.233 28.072 211.046 28.0947 210.902 28.1136C210.554 28.1591 210.228 28.233 209.925 28.3352C209.625 28.4337 209.383 28.5833 209.197 28.7841C209.016 28.9811 208.925 29.25 208.925 29.5909C208.925 30.0568 209.097 30.4091 209.442 30.6477C209.79 30.8826 210.232 31 210.766 31ZM222.849 27.0227V28.2727H218.031V27.0227H222.849ZM218.349 23.2727V32H217.009V23.2727H218.349ZM223.872 23.2727V32H222.531V23.2727H223.872ZM227.662 30.0227L231.866 23.2727H233.412V32H232.071V25.25L227.889 32H226.321V23.2727H227.662V30.0227ZM241.118 32V24.5H238.8C238.277 24.5 237.866 24.6212 237.567 24.8636C237.268 25.1061 237.118 25.4394 237.118 25.8636C237.118 26.2803 237.252 26.608 237.521 26.8466C237.794 27.0852 238.167 27.2045 238.641 27.2045H241.459V28.4545H238.641C238.05 28.4545 237.54 28.3504 237.112 28.142C236.684 27.9337 236.355 27.6364 236.124 27.25C235.893 26.8598 235.777 26.3977 235.777 25.8636C235.777 25.3258 235.898 24.8636 236.141 24.4773C236.383 24.0909 236.73 23.7936 237.18 23.5852C237.635 23.3769 238.175 23.2727 238.8 23.2727H242.391V32H241.118ZM235.3 32L237.777 27.6591H239.232L236.754 32H235.3ZM246.852 30.4091L246.761 31.0227C246.697 31.4545 246.598 31.9167 246.466 32.4091C246.337 32.9015 246.203 33.3655 246.062 33.8011C245.922 34.2367 245.807 34.5833 245.716 34.8409H244.693C244.742 34.5985 244.807 34.2784 244.886 33.8807C244.966 33.483 245.045 33.0379 245.125 32.5455C245.208 32.0568 245.277 31.5568 245.33 31.0455L245.398 30.4091H246.852ZM4.77273 52.1818C3.95455 52.1818 3.25 51.9886 2.65909 51.6023C2.06818 51.2159 1.61364 50.6837 1.29545 50.0057C0.977273 49.3277 0.818182 48.553 0.818182 47.6818C0.818182 46.7955 0.981061 46.0133 1.30682 45.3352C1.63636 44.6534 2.0947 44.1212 2.68182 43.7386C3.27273 43.3523 3.96212 43.1591 4.75 43.1591C5.36364 43.1591 5.91667 43.2727 6.40909 43.5C6.90152 43.7273 7.30492 44.0455 7.61932 44.4545C7.93371 44.8636 8.12879 45.3409 8.20455 45.8864H6.86364C6.76136 45.4886 6.53409 45.1364 6.18182 44.8295C5.83333 44.5189 5.36364 44.3636 4.77273 44.3636C4.25 44.3636 3.79167 44.5 3.39773 44.7727C3.00758 45.0417 2.70265 45.4223 2.48295 45.9148C2.26705 46.4034 2.15909 46.9773 2.15909 47.6364C2.15909 48.3106 2.26515 48.8977 2.47727 49.3977C2.69318 49.8977 2.99621 50.286 3.38636 50.5625C3.7803 50.839 4.24242 50.9773 4.77273 50.9773C5.12121 50.9773 5.4375 50.9167 5.72159 50.7955C6.00568 50.6742 6.24621 50.5 6.44318 50.2727C6.64015 50.0455 6.7803 49.7727 6.86364 49.4545H8.20455C8.12879 49.9697 7.94129 50.4337 7.64205 50.8466C7.34659 51.2557 6.95455 51.5814 6.46591 51.8239C5.98106 52.0625 5.41667 52.1818 4.77273 52.1818ZM13.8239 52.1818C12.983 52.1818 12.2576 51.9962 11.6477 51.625C11.0417 51.25 10.5739 50.7273 10.2443 50.0568C9.91856 49.3826 9.75568 48.5985 9.75568 47.7045C9.75568 46.8106 9.91856 46.0227 10.2443 45.3409C10.5739 44.6553 11.0322 44.1212 11.6193 43.7386C12.2102 43.3523 12.8996 43.1591 13.6875 43.1591C14.142 43.1591 14.5909 43.2348 15.0341 43.3864C15.4773 43.5379 15.8807 43.7841 16.2443 44.125C16.608 44.4621 16.8977 44.9091 17.1136 45.4659C17.3295 46.0227 17.4375 46.7083 17.4375 47.5227V48.0909H10.7102V46.9318H16.0739C16.0739 46.4394 15.9754 46 15.7784 45.6136C15.5852 45.2273 15.3087 44.9223 14.9489 44.6989C14.5928 44.4754 14.1723 44.3636 13.6875 44.3636C13.1534 44.3636 12.6913 44.4962 12.3011 44.7614C11.9148 45.0227 11.6174 45.3636 11.4091 45.7841C11.2008 46.2045 11.0966 46.6553 11.0966 47.1364V47.9091C11.0966 48.5682 11.2102 49.1269 11.4375 49.5852C11.6686 50.0398 11.9886 50.3864 12.3977 50.625C12.8068 50.8598 13.2822 50.9773 13.8239 50.9773C14.1761 50.9773 14.4943 50.928 14.7784 50.8295C15.0663 50.7273 15.3144 50.5758 15.5227 50.375C15.7311 50.1705 15.892 49.9167 16.0057 49.6136L17.3011 49.9773C17.1648 50.4167 16.9356 50.803 16.6136 51.1364C16.2917 51.4659 15.8939 51.7235 15.4205 51.9091C14.947 52.0909 14.4148 52.1818 13.8239 52.1818ZM24.8636 43.2727V44.5227H20.8182V52H19.4773V43.2727H24.8636ZM31.5938 50.1818L34.6392 43.2727H35.9119L32.1392 52H31.0483L27.3438 43.2727H28.5938L31.5938 50.1818ZM28.1619 43.2727V52H26.821V43.2727H28.1619ZM35.0256 52V43.2727H36.3665V52H35.0256ZM42.4801 52.1818C41.6392 52.1818 40.9138 51.9962 40.304 51.625C39.6979 51.25 39.2301 50.7273 38.9006 50.0568C38.5748 49.3826 38.4119 48.5985 38.4119 47.7045C38.4119 46.8106 38.5748 46.0227 38.9006 45.3409C39.2301 44.6553 39.6884 44.1212 40.2756 43.7386C40.8665 43.3523 41.5559 43.1591 42.3438 43.1591C42.7983 43.1591 43.2472 43.2348 43.6903 43.3864C44.1335 43.5379 44.5369 43.7841 44.9006 44.125C45.2642 44.4621 45.554 44.9091 45.7699 45.4659C45.9858 46.0227 46.0938 46.7083 46.0938 47.5227V48.0909H39.3665V46.9318H44.7301C44.7301 46.4394 44.6316 46 44.4347 45.6136C44.2415 45.2273 43.965 44.9223 43.6051 44.6989C43.2491 44.4754 42.8286 44.3636 42.3438 44.3636C41.8097 44.3636 41.3475 44.4962 40.9574 44.7614C40.571 45.0227 40.2737 45.3636 40.0653 45.7841C39.857 46.2045 39.7528 46.6553 39.7528 47.1364V47.9091C39.7528 48.5682 39.8665 49.1269 40.0938 49.5852C40.3248 50.0398 40.6449 50.3864 41.054 50.625C41.4631 50.8598 41.9384 50.9773 42.4801 50.9773C42.8324 50.9773 43.1506 50.928 43.4347 50.8295C43.7225 50.7273 43.9706 50.5758 44.179 50.375C44.3873 50.1705 44.5483 49.9167 44.6619 49.6136L45.9574 49.9773C45.821 50.4167 45.5919 50.803 45.2699 51.1364C44.9479 51.4659 44.5502 51.7235 44.0767 51.9091C43.6032 52.0909 43.071 52.1818 42.4801 52.1818ZM53.9744 47.0227V48.2727H49.1562V47.0227H53.9744ZM49.4744 43.2727V52H48.1335V43.2727H49.4744ZM54.9972 43.2727V52H53.6562V43.2727H54.9972ZM56.2585 44.5227V43.2727H63.3494V44.5227H60.4858V52H59.1449V44.5227H56.2585ZM66.6463 50.0227L70.8509 43.2727H72.3963V52H71.0554V45.25L66.8736 52H65.3054V43.2727H66.6463V50.0227ZM74.8523 55.2727V43.2727H76.1477V44.6591H76.3068C76.4053 44.5076 76.5417 44.3144 76.7159 44.0795C76.8939 43.8409 77.1477 43.6288 77.4773 43.4432C77.8106 43.2538 78.2614 43.1591 78.8295 43.1591C79.5644 43.1591 80.2121 43.3428 80.7727 43.7102C81.3333 44.0777 81.7708 44.5985 82.0852 45.2727C82.3996 45.947 82.5568 46.7424 82.5568 47.6591C82.5568 48.5833 82.3996 49.3845 82.0852 50.0625C81.7708 50.7367 81.3352 51.2595 80.7784 51.6307C80.2216 51.9981 79.5795 52.1818 78.8523 52.1818C78.2917 52.1818 77.8428 52.089 77.5057 51.9034C77.1686 51.714 76.9091 51.5 76.7273 51.2614C76.5455 51.0189 76.4053 50.8182 76.3068 50.6591H76.1932V55.2727H74.8523ZM76.1705 47.6364C76.1705 48.2955 76.267 48.8769 76.4602 49.3807C76.6534 49.8807 76.9356 50.2727 77.3068 50.5568C77.678 50.8371 78.1326 50.9773 78.6705 50.9773C79.2311 50.9773 79.6989 50.8295 80.0739 50.5341C80.4527 50.2348 80.7367 49.8333 80.9261 49.3295C81.1193 48.822 81.2159 48.2576 81.2159 47.6364C81.2159 47.0227 81.1212 46.4697 80.9318 45.9773C80.7462 45.4811 80.464 45.089 80.0852 44.8011C79.7102 44.5095 79.2386 44.3636 78.6705 44.3636C78.125 44.3636 77.6667 44.5019 77.2955 44.7784C76.9242 45.0511 76.6439 45.4337 76.4545 45.9261C76.2652 46.4148 76.1705 46.9848 76.1705 47.6364ZM88.1477 52.1818C87.3598 52.1818 86.6686 51.9943 86.0739 51.6193C85.483 51.2443 85.0208 50.7197 84.6875 50.0455C84.358 49.3712 84.1932 48.5833 84.1932 47.6818C84.1932 46.7727 84.358 45.9792 84.6875 45.3011C85.0208 44.6231 85.483 44.0966 86.0739 43.7216C86.6686 43.3466 87.3598 43.1591 88.1477 43.1591C88.9356 43.1591 89.625 43.3466 90.2159 43.7216C90.8106 44.0966 91.2727 44.6231 91.6023 45.3011C91.9356 45.9792 92.1023 46.7727 92.1023 47.6818C92.1023 48.5833 91.9356 49.3712 91.6023 50.0455C91.2727 50.7197 90.8106 51.2443 90.2159 51.6193C89.625 51.9943 88.9356 52.1818 88.1477 52.1818ZM88.1477 50.9773C88.7462 50.9773 89.2386 50.8239 89.625 50.517C90.0114 50.2102 90.2973 49.8068 90.483 49.3068C90.6686 48.8068 90.7614 48.2652 90.7614 47.6818C90.7614 47.0985 90.6686 46.5549 90.483 46.0511C90.2973 45.5473 90.0114 45.1402 89.625 44.8295C89.2386 44.5189 88.7462 44.3636 88.1477 44.3636C87.5492 44.3636 87.0568 44.5189 86.6705 44.8295C86.2841 45.1402 85.9981 45.5473 85.8125 46.0511C85.6269 46.5549 85.5341 47.0985 85.5341 47.6818C85.5341 48.2652 85.6269 48.8068 85.8125 49.3068C85.9981 49.8068 86.2841 50.2102 86.6705 50.517C87.0568 50.8239 87.5492 50.9773 88.1477 50.9773ZM94.1491 52V43.2727H97.7173C98.6567 43.2727 99.4029 43.4848 99.956 43.9091C100.509 44.3333 100.786 44.8939 100.786 45.5909C100.786 46.1212 100.628 46.5322 100.314 46.8239C99.9995 47.1117 99.5961 47.3068 99.1037 47.4091C99.4257 47.4545 99.7382 47.5682 100.041 47.75C100.348 47.9318 100.602 48.1818 100.803 48.5C101.003 48.8144 101.104 49.2008 101.104 49.6591C101.104 50.1061 100.99 50.5057 100.763 50.858C100.536 51.2102 100.21 51.4886 99.7855 51.6932C99.3613 51.8977 98.8537 52 98.2628 52H94.1491ZM95.4219 50.7727H98.2628C98.7249 50.7727 99.0866 50.6629 99.348 50.4432C99.6094 50.2235 99.7401 49.9242 99.7401 49.5455C99.7401 49.0947 99.6094 48.7405 99.348 48.483C99.0866 48.2216 98.7249 48.0909 98.2628 48.0909H95.4219V50.7727ZM95.4219 46.9318H97.7173C98.0772 46.9318 98.3859 46.8826 98.6435 46.7841C98.901 46.6818 99.098 46.5379 99.2344 46.3523C99.3745 46.1629 99.4446 45.9394 99.4446 45.6818C99.4446 45.3144 99.2912 45.0265 98.9844 44.8182C98.6776 44.6061 98.2552 44.5 97.7173 44.5H95.4219V46.9318ZM105.702 52.2045C105.149 52.2045 104.647 52.1004 104.196 51.892C103.745 51.6799 103.387 51.375 103.122 50.9773C102.857 50.5758 102.724 50.0909 102.724 49.5227C102.724 49.0227 102.823 48.6174 103.02 48.3068C103.217 47.9924 103.48 47.7462 103.81 47.5682C104.139 47.3902 104.503 47.2576 104.901 47.1705C105.302 47.0795 105.705 47.0076 106.111 46.9545C106.641 46.8864 107.071 46.8352 107.401 46.8011C107.734 46.7633 107.976 46.7008 108.128 46.6136C108.283 46.5265 108.361 46.375 108.361 46.1591V46.1136C108.361 45.553 108.207 45.1174 107.901 44.8068C107.598 44.4962 107.137 44.3409 106.52 44.3409C105.88 44.3409 105.378 44.4811 105.014 44.7614C104.651 45.0417 104.395 45.3409 104.247 45.6591L102.974 45.2045C103.202 44.6742 103.505 44.2614 103.884 43.9659C104.266 43.6667 104.683 43.4583 105.134 43.3409C105.588 43.2197 106.035 43.1591 106.474 43.1591C106.755 43.1591 107.077 43.1932 107.44 43.2614C107.808 43.3258 108.162 43.4602 108.503 43.6648C108.848 43.8693 109.134 44.178 109.361 44.5909C109.588 45.0038 109.702 45.5568 109.702 46.25V52H108.361V50.8182H108.293C108.202 51.0076 108.05 51.2102 107.838 51.4261C107.626 51.642 107.344 51.8258 106.991 51.9773C106.639 52.1288 106.209 52.2045 105.702 52.2045ZM105.906 51C106.437 51 106.884 50.8958 107.247 50.6875C107.615 50.4792 107.891 50.2102 108.077 49.8807C108.266 49.5511 108.361 49.2045 108.361 48.8409V47.6136C108.304 47.6818 108.179 47.7443 107.986 47.8011C107.796 47.8542 107.577 47.9015 107.327 47.9432C107.08 47.9811 106.84 48.0152 106.605 48.0455C106.374 48.072 106.187 48.0947 106.043 48.1136C105.694 48.1591 105.368 48.233 105.065 48.3352C104.766 48.4337 104.524 48.5833 104.338 48.7841C104.156 48.9811 104.065 49.25 104.065 49.5909C104.065 50.0568 104.238 50.4091 104.582 50.6477C104.931 50.8826 105.372 51 105.906 51ZM117.99 47.0227V48.2727H113.172V47.0227H117.99ZM113.49 43.2727V52H112.149V43.2727H113.49ZM119.013 43.2727V52H117.672V43.2727H119.013ZM122.803 50.0227L127.007 43.2727H128.553V52H127.212V45.25L123.03 52H121.462V43.2727H122.803V50.0227ZM134.668 52.1818C133.827 52.1818 133.101 51.9962 132.491 51.625C131.885 51.25 131.418 50.7273 131.088 50.0568C130.762 49.3826 130.599 48.5985 130.599 47.7045C130.599 46.8106 130.762 46.0227 131.088 45.3409C131.418 44.6553 131.876 44.1212 132.463 43.7386C133.054 43.3523 133.743 43.1591 134.531 43.1591C134.986 43.1591 135.435 43.2348 135.878 43.3864C136.321 43.5379 136.724 43.7841 137.088 44.125C137.452 44.4621 137.741 44.9091 137.957 45.4659C138.173 46.0227 138.281 46.7083 138.281 47.5227V48.0909H131.554V46.9318H136.918C136.918 46.4394 136.819 46 136.622 45.6136C136.429 45.2273 136.152 44.9223 135.793 44.6989C135.437 44.4754 135.016 44.3636 134.531 44.3636C133.997 44.3636 133.535 44.4962 133.145 44.7614C132.759 45.0227 132.461 45.3636 132.253 45.7841C132.045 46.2045 131.94 46.6553 131.94 47.1364V47.9091C131.94 48.5682 132.054 49.1269 132.281 49.5852C132.512 50.0398 132.832 50.3864 133.241 50.625C133.651 50.8598 134.126 50.9773 134.668 50.9773C135.02 50.9773 135.338 50.928 135.622 50.8295C135.91 50.7273 136.158 50.5758 136.366 50.375C136.575 50.1705 136.736 49.9167 136.849 49.6136L138.145 49.9773C138.009 50.4167 137.779 50.803 137.457 51.1364C137.135 51.4659 136.738 51.7235 136.264 51.9091C135.791 52.0909 135.259 52.1818 134.668 52.1818ZM142.321 50.4091L142.23 51.0227C142.166 51.4545 142.067 51.9167 141.935 52.4091C141.806 52.9015 141.671 53.3655 141.531 53.8011C141.391 54.2367 141.276 54.5833 141.185 54.8409H140.162C140.211 54.5985 140.276 54.2784 140.355 53.8807C140.435 53.483 140.514 53.0379 140.594 52.5455C140.677 52.0568 140.745 51.5568 140.798 51.0455L140.866 50.4091H142.321ZM153.942 40.3636H155.351V48.6818C155.351 49.4242 155.214 50.0549 154.942 50.5739C154.669 51.0928 154.285 51.4867 153.788 51.7557C153.292 52.0246 152.707 52.1591 152.033 52.1591C151.396 52.1591 150.83 52.0436 150.334 51.8125C149.838 51.5777 149.447 51.2443 149.163 50.8125C148.879 50.3807 148.737 49.8674 148.737 49.2727H150.124C150.124 49.6023 150.205 49.8902 150.368 50.1364C150.535 50.3788 150.762 50.5682 151.05 50.7045C151.338 50.8409 151.665 50.9091 152.033 50.9091C152.438 50.9091 152.783 50.8239 153.067 50.6534C153.351 50.483 153.567 50.233 153.714 49.9034C153.866 49.5701 153.942 49.1629 153.942 48.6818V40.3636ZM161.538 52.1818C160.75 52.1818 160.059 51.9943 159.464 51.6193C158.874 51.2443 158.411 50.7197 158.078 50.0455C157.749 49.3712 157.584 48.5833 157.584 47.6818C157.584 46.7727 157.749 45.9792 158.078 45.3011C158.411 44.6231 158.874 44.0966 159.464 43.7216C160.059 43.3466 160.75 43.1591 161.538 43.1591C162.326 43.1591 163.016 43.3466 163.607 43.7216C164.201 44.0966 164.663 44.6231 164.993 45.3011C165.326 45.9792 165.493 46.7727 165.493 47.6818C165.493 48.5833 165.326 49.3712 164.993 50.0455C164.663 50.7197 164.201 51.2443 163.607 51.6193C163.016 51.9943 162.326 52.1818 161.538 52.1818ZM161.538 50.9773C162.137 50.9773 162.629 50.8239 163.016 50.517C163.402 50.2102 163.688 49.8068 163.874 49.3068C164.059 48.8068 164.152 48.2652 164.152 47.6818C164.152 47.0985 164.059 46.5549 163.874 46.0511C163.688 45.5473 163.402 45.1402 163.016 44.8295C162.629 44.5189 162.137 44.3636 161.538 44.3636C160.94 44.3636 160.447 44.5189 160.061 44.8295C159.675 45.1402 159.389 45.5473 159.203 46.0511C159.018 46.5549 158.925 47.0985 158.925 47.6818C158.925 48.2652 159.018 48.8068 159.203 49.3068C159.389 49.8068 159.675 50.2102 160.061 50.517C160.447 50.8239 160.94 50.9773 161.538 50.9773ZM167.722 52V40.3636H169.062V44.6591H169.176C169.275 44.5076 169.411 44.3144 169.585 44.0795C169.763 43.8409 170.017 43.6288 170.347 43.4432C170.68 43.2538 171.131 43.1591 171.699 43.1591C172.434 43.1591 173.081 43.3428 173.642 43.7102C174.203 44.0777 174.64 44.5985 174.955 45.2727C175.269 45.947 175.426 46.7424 175.426 47.6591C175.426 48.5833 175.269 49.3845 174.955 50.0625C174.64 50.7367 174.205 51.2595 173.648 51.6307C173.091 51.9981 172.449 52.1818 171.722 52.1818C171.161 52.1818 170.712 52.089 170.375 51.9034C170.038 51.714 169.778 51.5 169.597 51.2614C169.415 51.0189 169.275 50.8182 169.176 50.6591H169.017V52H167.722ZM169.04 47.6364C169.04 48.2955 169.136 48.8769 169.33 49.3807C169.523 49.8807 169.805 50.2727 170.176 50.5568C170.547 50.8371 171.002 50.9773 171.54 50.9773C172.1 50.9773 172.568 50.8295 172.943 50.5341C173.322 50.2348 173.606 49.8333 173.795 49.3295C173.989 48.822 174.085 48.2576 174.085 47.6364C174.085 47.0227 173.991 46.4697 173.801 45.9773C173.616 45.4811 173.333 45.089 172.955 44.8011C172.58 44.5095 172.108 44.3636 171.54 44.3636C170.994 44.3636 170.536 44.5019 170.165 44.7784C169.794 45.0511 169.513 45.4337 169.324 45.9261C169.134 46.4148 169.04 46.9848 169.04 47.6364ZM188.159 45.2273L186.955 45.5682C186.879 45.3674 186.767 45.1723 186.619 44.983C186.475 44.7898 186.278 44.6307 186.028 44.5057C185.778 44.3807 185.458 44.3182 185.068 44.3182C184.534 44.3182 184.089 44.4413 183.733 44.6875C183.381 44.9299 183.205 45.2386 183.205 45.6136C183.205 45.947 183.326 46.2102 183.568 46.4034C183.811 46.5966 184.189 46.7576 184.705 46.8864L186 47.2045C186.78 47.3939 187.362 47.6837 187.744 48.0739C188.127 48.4602 188.318 48.9583 188.318 49.5682C188.318 50.0682 188.174 50.5152 187.886 50.9091C187.602 51.303 187.205 51.6136 186.693 51.8409C186.182 52.0682 185.587 52.1818 184.909 52.1818C184.019 52.1818 183.282 51.9886 182.699 51.6023C182.116 51.2159 181.746 50.6515 181.591 49.9091L182.864 49.5909C182.985 50.0606 183.214 50.4129 183.551 50.6477C183.892 50.8826 184.337 51 184.886 51C185.511 51 186.008 50.8674 186.375 50.6023C186.746 50.3333 186.932 50.0114 186.932 49.6364C186.932 49.3333 186.826 49.0795 186.614 48.875C186.402 48.6667 186.076 48.5114 185.636 48.4091L184.182 48.0682C183.383 47.8788 182.795 47.5852 182.42 47.1875C182.049 46.786 181.864 46.2841 181.864 45.6818C181.864 45.1894 182.002 44.7538 182.278 44.375C182.559 43.9962 182.939 43.6989 183.42 43.483C183.905 43.267 184.455 43.1591 185.068 43.1591C185.932 43.1591 186.61 43.3485 187.102 43.7273C187.598 44.1061 187.951 44.6061 188.159 45.2273ZM194.132 43.2727V44.4091H189.609V43.2727H194.132ZM190.928 41.1818H192.268V49.5C192.268 49.8788 192.323 50.1629 192.433 50.3523C192.547 50.5379 192.691 50.6629 192.865 50.7273C193.043 50.7879 193.231 50.8182 193.428 50.8182C193.575 50.8182 193.696 50.8106 193.791 50.7955C193.886 50.7765 193.962 50.7614 194.018 50.75L194.291 51.9545C194.2 51.9886 194.073 52.0227 193.911 52.0568C193.748 52.0947 193.541 52.1136 193.291 52.1136C192.912 52.1136 192.541 52.0322 192.178 51.8693C191.818 51.7064 191.518 51.4583 191.28 51.125C191.045 50.7917 190.928 50.3712 190.928 49.8636V41.1818ZM199.601 52.1818C198.813 52.1818 198.122 51.9943 197.527 51.6193C196.936 51.2443 196.474 50.7197 196.141 50.0455C195.811 49.3712 195.646 48.5833 195.646 47.6818C195.646 46.7727 195.811 45.9792 196.141 45.3011C196.474 44.6231 196.936 44.0966 197.527 43.7216C198.122 43.3466 198.813 43.1591 199.601 43.1591C200.389 43.1591 201.078 43.3466 201.669 43.7216C202.264 44.0966 202.726 44.6231 203.055 45.3011C203.389 45.9792 203.555 46.7727 203.555 47.6818C203.555 48.5833 203.389 49.3712 203.055 50.0455C202.726 50.7197 202.264 51.2443 201.669 51.6193C201.078 51.9943 200.389 52.1818 199.601 52.1818ZM199.601 50.9773C200.199 50.9773 200.692 50.8239 201.078 50.517C201.464 50.2102 201.75 49.8068 201.936 49.3068C202.122 48.8068 202.214 48.2652 202.214 47.6818C202.214 47.0985 202.122 46.5549 201.936 46.0511C201.75 45.5473 201.464 45.1402 201.078 44.8295C200.692 44.5189 200.199 44.3636 199.601 44.3636C199.002 44.3636 198.51 44.5189 198.124 44.8295C197.737 45.1402 197.451 45.5473 197.266 46.0511C197.08 46.5549 196.987 47.0985 196.987 47.6818C196.987 48.2652 197.08 48.8068 197.266 49.3068C197.451 49.8068 197.737 50.2102 198.124 50.517C198.51 50.8239 199.002 50.9773 199.601 50.9773ZM205.602 52V43.2727H206.898V44.5909H206.989C207.148 44.1591 207.436 43.8087 207.852 43.5398C208.269 43.2708 208.739 43.1364 209.261 43.1364C209.36 43.1364 209.483 43.1383 209.631 43.142C209.778 43.1458 209.89 43.1515 209.966 43.1591V44.5227C209.92 44.5114 209.816 44.4943 209.653 44.4716C209.494 44.4451 209.326 44.4318 209.148 44.4318C208.723 44.4318 208.345 44.5208 208.011 44.6989C207.682 44.8731 207.42 45.1155 207.227 45.4261C207.038 45.733 206.943 46.0833 206.943 46.4773V52H205.602ZM211.555 52V43.2727H212.896V52H211.555ZM212.237 41.8182C211.976 41.8182 211.75 41.7292 211.561 41.5511C211.375 41.3731 211.283 41.1591 211.283 40.9091C211.283 40.6591 211.375 40.4451 211.561 40.267C211.75 40.089 211.976 40 212.237 40C212.499 40 212.722 40.089 212.908 40.267C213.097 40.4451 213.192 40.6591 213.192 40.9091C213.192 41.1591 213.097 41.3731 212.908 41.5511C212.722 41.7292 212.499 41.8182 212.237 41.8182ZM219.011 52.1818C218.17 52.1818 217.445 51.9962 216.835 51.625C216.229 51.25 215.761 50.7273 215.432 50.0568C215.106 49.3826 214.943 48.5985 214.943 47.7045C214.943 46.8106 215.106 46.0227 215.432 45.3409C215.761 44.6553 216.22 44.1212 216.807 43.7386C217.398 43.3523 218.087 43.1591 218.875 43.1591C219.33 43.1591 219.778 43.2348 220.222 43.3864C220.665 43.5379 221.068 43.7841 221.432 44.125C221.795 44.4621 222.085 44.9091 222.301 45.4659C222.517 46.0227 222.625 46.7083 222.625 47.5227V48.0909H215.898V46.9318H221.261C221.261 46.4394 221.163 46 220.966 45.6136C220.773 45.2273 220.496 44.9223 220.136 44.6989C219.78 44.4754 219.36 44.3636 218.875 44.3636C218.341 44.3636 217.879 44.4962 217.489 44.7614C217.102 45.0227 216.805 45.3636 216.597 45.7841C216.388 46.2045 216.284 46.6553 216.284 47.1364V47.9091C216.284 48.5682 216.398 49.1269 216.625 49.5852C216.856 50.0398 217.176 50.3864 217.585 50.625C217.994 50.8598 218.47 50.9773 219.011 50.9773C219.364 50.9773 219.682 50.928 219.966 50.8295C220.254 50.7273 220.502 50.5758 220.71 50.375C220.919 50.1705 221.08 49.9167 221.193 49.6136L222.489 49.9773C222.352 50.4167 222.123 50.803 221.801 51.1364C221.479 51.4659 221.081 51.7235 220.608 51.9091C220.134 52.0909 219.602 52.1818 219.011 52.1818ZM230.847 45.2273L229.642 45.5682C229.566 45.3674 229.455 45.1723 229.307 44.983C229.163 44.7898 228.966 44.6307 228.716 44.5057C228.466 44.3807 228.146 44.3182 227.756 44.3182C227.222 44.3182 226.777 44.4413 226.42 44.6875C226.068 44.9299 225.892 45.2386 225.892 45.6136C225.892 45.947 226.013 46.2102 226.256 46.4034C226.498 46.5966 226.877 46.7576 227.392 46.8864L228.688 47.2045C229.468 47.3939 230.049 47.6837 230.432 48.0739C230.814 48.4602 231.006 48.9583 231.006 49.5682C231.006 50.0682 230.862 50.5152 230.574 50.9091C230.29 51.303 229.892 51.6136 229.381 51.8409C228.869 52.0682 228.275 52.1818 227.597 52.1818C226.706 52.1818 225.97 51.9886 225.386 51.6023C224.803 51.2159 224.434 50.6515 224.278 49.9091L225.551 49.5909C225.672 50.0606 225.902 50.4129 226.239 50.6477C226.58 50.8826 227.025 51 227.574 51C228.199 51 228.695 50.8674 229.062 50.6023C229.434 50.3333 229.619 50.0114 229.619 49.6364C229.619 49.3333 229.513 49.0795 229.301 48.875C229.089 48.6667 228.763 48.5114 228.324 48.4091L226.869 48.0682C226.07 47.8788 225.483 47.5852 225.108 47.1875C224.737 46.786 224.551 46.2841 224.551 45.6818C224.551 45.1894 224.689 44.7538 224.966 44.375C225.246 43.9962 225.627 43.6989 226.108 43.483C226.593 43.267 227.142 43.1591 227.756 43.1591C228.619 43.1591 229.297 43.3485 229.79 43.7273C230.286 44.1061 230.638 44.6061 230.847 45.2273ZM235.024 50.4091L234.933 51.0227C234.869 51.4545 234.77 51.9167 234.638 52.4091C234.509 52.9015 234.375 53.3655 234.234 53.8011C234.094 54.2367 233.979 54.5833 233.888 54.8409H232.865C232.914 54.5985 232.979 54.2784 233.058 53.8807C233.138 53.483 233.217 53.0379 233.297 52.5455C233.38 52.0568 233.448 51.5568 233.501 51.0455L233.57 50.4091H235.024ZM251.554 44H250.145C250.062 43.5947 249.916 43.2386 249.707 42.9318C249.503 42.625 249.253 42.3674 248.957 42.1591C248.666 41.947 248.342 41.7879 247.986 41.6818C247.63 41.5758 247.259 41.5227 246.872 41.5227C246.168 41.5227 245.529 41.7008 244.957 42.0568C244.389 42.4129 243.937 42.9375 243.599 43.6307C243.266 44.3239 243.099 45.1742 243.099 46.1818C243.099 47.1894 243.266 48.0398 243.599 48.733C243.937 49.4261 244.389 49.9508 244.957 50.3068C245.529 50.6629 246.168 50.8409 246.872 50.8409C247.259 50.8409 247.63 50.7879 247.986 50.6818C248.342 50.5758 248.666 50.4186 248.957 50.2102C249.253 49.9981 249.503 49.7386 249.707 49.4318C249.916 49.1212 250.062 48.7652 250.145 48.3636H251.554C251.448 48.9583 251.255 49.4905 250.974 49.9602C250.694 50.4299 250.346 50.8295 249.929 51.1591C249.512 51.4848 249.045 51.733 248.526 51.9034C248.01 52.0739 247.459 52.1591 246.872 52.1591C245.88 52.1591 244.997 51.9167 244.224 51.4318C243.452 50.947 242.844 50.2576 242.401 49.3636C241.957 48.4697 241.736 47.4091 241.736 46.1818C241.736 44.9545 241.957 43.8939 242.401 43C242.844 42.1061 243.452 41.4167 244.224 40.9318C244.997 40.447 245.88 40.2045 246.872 40.2045C247.459 40.2045 248.01 40.2898 248.526 40.4602C249.045 40.6307 249.512 40.8807 249.929 41.2102C250.346 41.536 250.694 41.9337 250.974 42.4034C251.255 42.8693 251.448 43.4015 251.554 44ZM258.286 40.3636H259.695V48.6818C259.695 49.4242 259.558 50.0549 259.286 50.5739C259.013 51.0928 258.628 51.4867 258.132 51.7557C257.636 52.0246 257.051 52.1591 256.376 52.1591C255.74 52.1591 255.174 52.0436 254.678 51.8125C254.181 51.5777 253.791 51.2443 253.507 50.8125C253.223 50.3807 253.081 49.8674 253.081 49.2727H254.467C254.467 49.6023 254.549 49.8902 254.712 50.1364C254.878 50.3788 255.106 50.5682 255.393 50.7045C255.681 50.8409 256.009 50.9091 256.376 50.9091C256.782 50.9091 257.126 50.8239 257.411 50.6534C257.695 50.483 257.911 50.233 258.058 49.9034C258.21 49.5701 258.286 49.1629 258.286 48.6818V40.3636ZM262.518 40.3636H264.2L268.155 50.0227H268.291L272.246 40.3636H273.928V52H272.609V43.1591H272.496L268.859 52H267.587L263.95 43.1591H263.837V52H262.518V40.3636Z" fill="white"/>
</svg>
