<svg width="320" height="86" viewBox="0 0 320 86" fill="none" xmlns="http://www.w3.org/2000/svg">
<path d="M1.19209e-07 86V66.65C3.03333 66.65 5.2 65.6667 6.5 63.7C7.8 61.7 8.85 58.4167 9.65 53.85C10.1833 50.9833 10.6167 47.9167 10.95 44.65C11.2833 41.3833 11.5667 37.75 11.8 33.75C12.0667 29.7167 12.3167 25.1333 12.55 20H49.75V66.65H55V86H46.5V74H8.5V86H1.19209e-07ZM13.7 66.65H40.85V27.35H20.6C20.5 29.7167 20.3667 32.2 20.2 34.8C20.0333 37.3667 19.8333 39.9333 19.6 42.5C19.4 45.0667 19.15 47.5 18.85 49.8C18.5833 52.0667 18.2667 54.1 17.9 55.9C17.4667 58.4 16.9667 60.5167 16.4 62.25C15.8333 63.9833 14.9333 65.45 13.7 66.65ZM106.235 20V74H97.6352V34.2L69.3352 74H61.9852V20H70.5852V59.25L98.9352 20H106.235ZM136.588 75.5C131.255 75.5 126.538 74.35 122.438 72.05C118.338 69.7167 115.105 66.5167 112.738 62.45L119.838 57.85C121.805 60.8167 124.155 63.1 126.888 64.7C129.622 66.2667 132.738 67.05 136.238 67.05C139.905 67.05 142.822 66.2167 144.988 64.55C147.155 62.85 148.238 60.5667 148.238 57.7C148.238 55.5667 147.705 53.9333 146.638 52.8C145.572 51.6667 144.038 50.8833 142.038 50.45C140.038 50.0167 137.655 49.8 134.888 49.8H129.288V42.45H134.838C138.338 42.45 141.188 41.8833 143.388 40.75C145.588 39.6167 146.688 37.6833 146.688 34.95C146.688 32.15 145.655 30.1167 143.588 28.85C141.555 27.55 139.122 26.9 136.288 26.9C133.288 26.9 130.422 27.5333 127.688 28.8C124.955 30.0333 122.605 31.6 120.638 33.5L115.238 27.45C118.038 24.5833 121.255 22.3833 124.888 20.85C128.555 19.2833 132.538 18.5 136.838 18.5C140.305 18.5 143.472 19.1167 146.338 20.35C149.238 21.55 151.538 23.3333 153.238 25.7C154.972 28.0333 155.838 30.8833 155.838 34.25C155.838 37.1167 155.172 39.6667 153.838 41.9C152.505 44.1333 150.538 46.0833 147.938 47.75L147.588 44.6C149.788 45.1333 151.605 46.1167 153.038 47.55C154.505 48.95 155.588 50.6167 156.288 52.55C156.988 54.4833 157.338 56.5 157.338 58.6C157.338 62.1333 156.405 65.1667 154.538 67.7C152.705 70.2 150.222 72.1333 147.088 73.5C143.955 74.8333 140.455 75.5 136.588 75.5ZM180.663 75.5C176.629 75.5 173.246 74.7667 170.513 73.3C167.813 71.8 165.763 69.8333 164.363 67.4C162.996 64.9667 162.313 62.3 162.313 59.4C162.313 56.5667 162.846 54.1167 163.913 52.05C165.013 49.95 166.546 48.2167 168.513 46.85C170.479 45.45 172.829 44.35 175.563 43.55C178.129 42.85 180.996 42.25 184.163 41.75C187.363 41.2167 190.596 40.7333 193.863 40.3C197.129 39.8667 200.179 39.45 203.013 39.05L199.813 40.9C199.913 36.1 198.946 32.55 196.913 30.25C194.913 27.95 191.446 26.8 186.513 26.8C183.246 26.8 180.379 27.55 177.913 29.05C175.479 30.5167 173.763 32.9167 172.763 36.25L164.313 33.7C165.613 28.9667 168.129 25.25 171.863 22.55C175.596 19.85 180.513 18.5 186.613 18.5C191.513 18.5 195.713 19.3833 199.213 21.15C202.746 22.8833 205.279 25.5167 206.813 29.05C207.579 30.7167 208.063 32.5333 208.263 34.5C208.463 36.4333 208.562 38.4667 208.562 40.6V74H200.663V61.05L202.513 62.25C200.479 66.6167 197.629 69.9167 193.963 72.15C190.329 74.3833 185.896 75.5 180.663 75.5ZM182.013 68.05C185.213 68.05 187.979 67.4833 190.313 66.35C192.679 65.1833 194.579 63.6667 196.013 61.8C197.446 59.9 198.379 57.8333 198.813 55.6C199.313 53.9333 199.579 52.0833 199.613 50.05C199.679 47.9833 199.713 46.4 199.713 45.3L202.813 46.65C199.913 47.05 197.063 47.4333 194.263 47.8C191.463 48.1667 188.813 48.5667 186.313 49C183.813 49.4 181.563 49.8833 179.563 50.45C178.096 50.9167 176.713 51.5167 175.413 52.25C174.146 52.9833 173.113 53.9333 172.313 55.1C171.546 56.2333 171.162 57.65 171.162 59.35C171.162 60.8167 171.529 62.2167 172.263 63.55C173.029 64.8833 174.196 65.9667 175.763 66.8C177.363 67.6333 179.446 68.05 182.013 68.05ZM241.813 13.7C239.313 13.7 237.029 13.0833 234.963 11.85C232.896 10.6167 231.246 8.98333 230.013 6.95C228.779 4.88333 228.163 2.58333 228.163 0.0499954H235.363C235.363 1.81666 235.996 3.33333 237.262 4.6C238.529 5.86667 240.046 6.5 241.813 6.5C243.613 6.5 245.129 5.86667 246.363 4.6C247.629 3.33333 248.263 1.81666 248.263 0.0499954H255.463C255.463 2.58333 254.846 4.88333 253.613 6.95C252.413 8.98333 250.763 10.6167 248.663 11.85C246.596 13.0833 244.313 13.7 241.813 13.7ZM262.763 20V74H254.163V34.2L225.863 74H218.513V20H227.113V59.25L255.463 20H262.763ZM273.716 74V20H282.616V42.75H311.016V20H319.916V74H311.016V51.2H282.616V74H273.716Z" fill="white"/>
</svg>
