<svg width="255" height="60" viewBox="0 0 255 60" fill="none" xmlns="http://www.w3.org/2000/svg">
<g style="mix-blend-mode:difference" filter="url(#filter0_b_268_1193)">
<rect width="255" height="60" rx="16" fill="white" fill-opacity="0.2"/>
<g style="mix-blend-mode:exclusion">
<path d="M46.233 29.7273C46.233 31.2803 45.9489 32.6155 45.3807 33.733C44.8125 34.8456 44.0336 35.7027 43.044 36.304C42.0592 36.9006 40.9394 37.1989 39.6847 37.1989C38.4252 37.1989 37.3007 36.9006 36.3111 36.304C35.3262 35.7027 34.5497 34.8433 33.9815 33.7259C33.4134 32.6084 33.1293 31.2756 33.1293 29.7273C33.1293 28.1742 33.4134 26.8414 33.9815 25.7287C34.5497 24.6113 35.3262 23.7543 36.3111 23.1577C37.3007 22.5563 38.4252 22.2557 39.6847 22.2557C40.9394 22.2557 42.0592 22.5563 43.044 23.1577C44.0336 23.7543 44.8125 24.6113 45.3807 25.7287C45.9489 26.8414 46.233 28.1742 46.233 29.7273ZM44.0597 29.7273C44.0597 28.5436 43.8679 27.5469 43.4844 26.7372C43.1056 25.9228 42.5848 25.3073 41.9219 24.8906C41.2637 24.4692 40.518 24.2585 39.6847 24.2585C38.8466 24.2585 38.0985 24.4692 37.4403 24.8906C36.7822 25.3073 36.2614 25.9228 35.8778 26.7372C35.4991 27.5469 35.3097 28.5436 35.3097 29.7273C35.3097 30.911 35.4991 31.91 35.8778 32.7244C36.2614 33.5341 36.7822 34.1496 37.4403 34.571C38.0985 34.9877 38.8466 35.196 39.6847 35.196C40.518 35.196 41.2637 34.9877 41.9219 34.571C42.5848 34.1496 43.1056 33.5341 43.4844 32.7244C43.8679 31.91 44.0597 30.911 44.0597 29.7273ZM57.2148 22.0284L58.0955 23.3707C57.7688 23.669 57.3971 23.8821 56.9805 24.0099C56.5685 24.133 56.0927 24.2112 55.5529 24.2443C55.0131 24.2727 54.3952 24.2988 53.6992 24.3224C52.9132 24.3461 52.2669 24.5166 51.7603 24.8338C51.2537 25.1463 50.863 25.6103 50.5884 26.2259C50.3185 26.8366 50.1433 27.6037 50.0629 28.527H50.1978C50.5529 27.8499 51.0453 27.3433 51.6751 27.0071C52.3095 26.6709 53.0221 26.5028 53.8129 26.5028C54.6935 26.5028 55.4772 26.7041 56.1637 27.1065C56.8503 27.509 57.39 28.0985 57.783 28.875C58.1808 29.6468 58.3796 30.5914 58.3796 31.7088C58.3796 32.8404 58.1713 33.8182 57.7546 34.642C57.3427 35.4659 56.7603 36.1027 56.0075 36.5526C55.2594 36.9976 54.3763 37.2202 53.3583 37.2202C52.3403 37.2202 51.4525 36.9905 50.695 36.5312C49.9421 36.0672 49.3574 35.3807 48.9407 34.4716C48.5288 33.5625 48.3228 32.4403 48.3228 31.1051V30.0256C48.3228 27.5303 48.7679 25.6529 49.658 24.3935C50.5482 23.134 51.8787 22.4877 53.6495 22.4545C54.2224 22.4403 54.7338 22.438 55.1836 22.4474C55.6334 22.4522 56.0264 22.4309 56.3626 22.3835C56.7035 22.3314 56.9876 22.2131 57.2148 22.0284ZM53.3654 35.4375C53.9573 35.4375 54.4663 35.2884 54.8924 34.9901C55.3233 34.687 55.6547 34.2585 55.8867 33.7045C56.1187 33.1506 56.2347 32.4972 56.2347 31.7443C56.2347 31.0057 56.1187 30.3783 55.8867 29.8622C55.6547 29.3461 55.3233 28.9531 54.8924 28.6832C54.4615 28.4086 53.9454 28.2713 53.3441 28.2713C52.899 28.2713 52.5013 28.3494 52.1509 28.5057C51.8005 28.6572 51.4999 28.8821 51.2489 29.1804C51.0027 29.4787 50.811 29.8433 50.6737 30.2741C50.5411 30.7003 50.4701 31.1903 50.4606 31.7443C50.4606 32.8712 50.7186 33.7685 51.2347 34.4361C51.7556 35.1037 52.4658 35.4375 53.3654 35.4375ZM65.3469 37.2202C64.2911 37.2202 63.382 36.9811 62.6197 36.5028C61.8621 36.0199 61.2797 35.3546 60.8725 34.5071C60.4653 33.6596 60.2617 32.6889 60.2617 31.5952C60.2617 30.4872 60.4701 29.5095 60.8867 28.6619C61.3034 27.8097 61.8905 27.1444 62.6481 26.6662C63.4057 26.188 64.2982 25.9489 65.3256 25.9489C66.1542 25.9489 66.8929 26.1027 67.5415 26.4105C68.1902 26.7135 68.7134 27.1397 69.1112 27.6889C69.5136 28.2382 69.7527 28.8797 69.8285 29.6136H67.7617C67.6481 29.1023 67.3877 28.6619 66.9805 28.2926C66.578 27.9233 66.0382 27.7386 65.3612 27.7386C64.7693 27.7386 64.2508 27.8949 63.8058 28.2074C63.3654 28.5152 63.0221 28.9555 62.7759 29.5284C62.5297 30.0966 62.4066 30.7689 62.4066 31.5455C62.4066 32.3409 62.5273 33.0275 62.7688 33.6051C63.0103 34.1828 63.3512 34.6302 63.7915 34.9474C64.2366 35.2647 64.7598 35.4233 65.3612 35.4233C65.7636 35.4233 66.1282 35.3499 66.4549 35.2031C66.7863 35.0516 67.0633 34.8362 67.2859 34.5568C67.5131 34.2775 67.6718 33.9413 67.7617 33.5483H69.8285C69.7527 34.2538 69.5231 34.8835 69.1396 35.4375C68.756 35.9915 68.2423 36.4271 67.5984 36.7443C66.9592 37.0616 66.2087 37.2202 65.3469 37.2202ZM73.4418 41.0909C73.1245 41.0909 72.8357 41.0649 72.5753 41.0128C72.3149 40.9654 72.1207 40.9134 71.9929 40.8565L72.5043 39.1165C72.8925 39.2206 73.2382 39.2656 73.5412 39.2514C73.8442 39.2372 74.1117 39.1236 74.3438 38.9105C74.5805 38.6974 74.7888 38.3494 74.9688 37.8665L75.2315 37.142L71.2401 26.0909H73.5128L76.2756 34.5568H76.3892L79.152 26.0909H81.4318L76.9361 38.456C76.7277 39.0241 76.4626 39.5047 76.1406 39.8977C75.8187 40.2955 75.4351 40.5938 74.9901 40.7926C74.545 40.9915 74.0289 41.0909 73.4418 41.0909ZM81.4638 40.1463V35.1605H82.3516C82.5788 34.9522 82.7706 34.7036 82.9268 34.4148C83.0878 34.1259 83.2228 33.7827 83.3317 33.3849C83.4453 32.9872 83.54 32.5232 83.6158 31.9929C83.6915 31.4579 83.7578 30.8471 83.8146 30.1605L84.1555 26.0909H91.5703V35.1605H93.2464V40.1463H91.1726V37H83.5661V40.1463H81.4638ZM84.6243 35.1605H89.4964V27.9091H86.0589L85.8317 30.1605C85.7228 31.3063 85.5855 32.3007 85.4197 33.1435C85.254 33.9815 84.9889 34.6539 84.6243 35.1605ZM97.4031 34.0241L102.211 26.0909H104.498V37H102.417V29.0597L97.6303 37H95.3221V26.0909H97.4031V34.0241ZM106 27.9233V26.0909H115.205V27.9233H111.647V37H109.573V27.9233H106ZM119.049 29.8409H122.217C123.552 29.8409 124.579 30.1723 125.299 30.8352C126.019 31.4981 126.379 32.3527 126.379 33.3991C126.379 34.081 126.218 34.6941 125.896 35.2386C125.574 35.7831 125.103 36.214 124.482 36.5312C123.862 36.8438 123.107 37 122.217 37H117.451V26.0909H119.532V35.1676H122.217C122.827 35.1676 123.329 35.009 123.722 34.6918C124.115 34.3698 124.312 33.9602 124.312 33.4631C124.312 32.9375 124.115 32.509 123.722 32.1776C123.329 31.8414 122.827 31.6733 122.217 31.6733H119.049V29.8409ZM134.053 37V26.0909H142.952V37H140.871V27.9233H136.119V37H134.053ZM145.791 41.0909V26.0909H147.865V27.8594H148.042C148.165 27.6321 148.343 27.3693 148.575 27.071C148.807 26.7727 149.129 26.5123 149.541 26.2898C149.953 26.0625 150.497 25.9489 151.174 25.9489C152.055 25.9489 152.841 26.1714 153.532 26.6165C154.224 27.0616 154.766 27.7031 155.159 28.5412C155.556 29.3793 155.755 30.3878 155.755 31.5668C155.755 32.7457 155.559 33.7566 155.166 34.5994C154.773 35.4375 154.233 36.0838 153.547 36.5384C152.86 36.9882 152.076 37.2131 151.196 37.2131C150.533 37.2131 149.991 37.1018 149.569 36.8793C149.153 36.6567 148.826 36.3963 148.589 36.098C148.352 35.7997 148.17 35.5346 148.042 35.3026H147.914V41.0909H145.791ZM147.872 31.5455C147.872 32.3125 147.983 32.9848 148.206 33.5625C148.428 34.1402 148.75 34.5923 149.172 34.919C149.593 35.241 150.109 35.402 150.72 35.402C151.354 35.402 151.885 35.2339 152.311 34.8977C152.737 34.5568 153.059 34.0952 153.277 33.5128C153.499 32.9304 153.61 32.2746 153.61 31.5455C153.61 30.8258 153.502 30.1795 153.284 29.6065C153.071 29.0336 152.749 28.5814 152.318 28.25C151.892 27.9186 151.359 27.7528 150.72 27.7528C150.104 27.7528 149.583 27.9115 149.157 28.2287C148.736 28.5459 148.416 28.9886 148.199 29.5568C147.981 30.125 147.872 30.7879 147.872 31.5455ZM162.73 37.2202C161.707 37.2202 160.815 36.9858 160.052 36.517C159.29 36.0483 158.698 35.3925 158.277 34.5497C157.855 33.7069 157.645 32.7221 157.645 31.5952C157.645 30.4635 157.855 29.474 158.277 28.6264C158.698 27.7789 159.29 27.1207 160.052 26.652C160.815 26.1832 161.707 25.9489 162.73 25.9489C163.752 25.9489 164.645 26.1832 165.407 26.652C166.17 27.1207 166.761 27.7789 167.183 28.6264C167.604 29.474 167.815 30.4635 167.815 31.5952C167.815 32.7221 167.604 33.7069 167.183 34.5497C166.761 35.3925 166.17 36.0483 165.407 36.517C164.645 36.9858 163.752 37.2202 162.73 37.2202ZM162.737 35.4375C163.4 35.4375 163.949 35.2623 164.385 34.9119C164.82 34.5616 165.142 34.0952 165.35 33.5128C165.564 32.9304 165.67 32.2888 165.67 31.5881C165.67 30.892 165.564 30.2528 165.35 29.6705C165.142 29.0833 164.82 28.6122 164.385 28.2571C163.949 27.902 163.4 27.7244 162.737 27.7244C162.069 27.7244 161.515 27.902 161.075 28.2571C160.639 28.6122 160.315 29.0833 160.102 29.6705C159.894 30.2528 159.789 30.892 159.789 31.5881C159.789 32.2888 159.894 32.9304 160.102 33.5128C160.315 34.0952 160.639 34.5616 161.075 34.9119C161.515 35.2623 162.069 35.4375 162.737 35.4375ZM174.887 37.2202C173.812 37.2202 172.887 36.9905 172.11 36.5312C171.338 36.0672 170.742 35.4162 170.32 34.5781C169.904 33.7353 169.695 32.7481 169.695 31.6165C169.695 30.4991 169.904 29.5142 170.32 28.6619C170.742 27.8097 171.329 27.1444 172.082 26.6662C172.839 26.188 173.725 25.9489 174.738 25.9489C175.353 25.9489 175.95 26.0507 176.528 26.2543C177.105 26.4579 177.624 26.7775 178.083 27.2131C178.542 27.6487 178.905 28.2145 179.17 28.9105C179.435 29.6018 179.567 30.4422 179.567 31.4318V32.1847H170.896V30.5938H177.487C177.487 30.035 177.373 29.5402 177.146 29.1094C176.918 28.6738 176.599 28.3305 176.187 28.0795C175.78 27.8286 175.301 27.7031 174.752 27.7031C174.156 27.7031 173.635 27.8499 173.19 28.1435C172.749 28.4323 172.408 28.8111 172.167 29.2798C171.93 29.7438 171.812 30.2481 171.812 30.7926V32.0355C171.812 32.7647 171.94 33.3849 172.195 33.8963C172.456 34.4077 172.818 34.7983 173.282 35.0682C173.746 35.3333 174.288 35.4659 174.908 35.4659C175.311 35.4659 175.678 35.4091 176.009 35.2955C176.341 35.1771 176.627 35.0019 176.869 34.7699C177.11 34.5379 177.295 34.2514 177.423 33.9105L179.433 34.2727C179.272 34.8646 178.983 35.383 178.566 35.8281C178.154 36.2685 177.636 36.6117 177.011 36.858C176.39 37.0994 175.683 37.2202 174.887 37.2202ZM181.924 37V26.0909H184.047V30.6648H185.07L188.671 26.0909H191.299L187.073 31.3963L191.348 37H188.713L185.425 32.6392H184.047V37H181.924ZM192.387 27.9233V26.0909H201.592V27.9233H198.033V37H195.96V27.9233H192.387Z" fill="white"/>
</g>
<g style="mix-blend-mode:exclusion">
<path d="M222 22.5859L229.414 30.0002L222 37.4144L220.586 36.0002L226.586 30.0002L220.586 24.0002L222 22.5859Z" fill="white"/>
</g>
</g>
<defs>
<filter id="filter0_b_268_1193" x="-40" y="-40" width="335" height="140" filterUnits="userSpaceOnUse" color-interpolation-filters="sRGB">
<feFlood flood-opacity="0" result="BackgroundImageFix"/>
<feGaussianBlur in="BackgroundImageFix" stdDeviation="20"/>
<feComposite in2="SourceAlpha" operator="in" result="effect1_backgroundBlur_268_1193"/>
<feBlend mode="normal" in="SourceGraphic" in2="effect1_backgroundBlur_268_1193" result="shape"/>
</filter>
</defs>
</svg>
