<svg width="369" height="80" viewBox="0 0 369 80" fill="none" xmlns="http://www.w3.org/2000/svg">
<path d="M0.950001 56V2H45.2V56H36.3V10.45H9.85V56H0.950001ZM81.0031 57.5C75.9365 57.5 71.6698 56.25 68.2031 53.75C64.7365 51.2167 62.1031 47.8 60.3031 43.5C58.5365 39.1667 57.6531 34.3167 57.6531 28.95C57.6531 23.5167 58.5365 18.65 60.3031 14.35C62.1031 10.05 64.7365 6.66666 68.2031 4.2C71.7031 1.73333 75.9865 0.499999 81.0531 0.499999C86.0531 0.499999 90.3531 1.75 93.9531 4.25C97.5865 6.71666 100.37 10.1 102.303 14.4C104.236 18.7 105.203 23.55 105.203 28.95C105.203 34.35 104.236 39.2 102.303 43.5C100.37 47.8 97.5865 51.2167 93.9531 53.75C90.3531 56.25 86.0365 57.5 81.0031 57.5ZM56.1531 80V2H64.1031V41.75H65.1031V80H56.1531ZM79.9031 49.35C83.4698 49.35 86.4198 48.45 88.7531 46.65C91.0865 44.85 92.8365 42.4167 94.0031 39.35C95.1698 36.25 95.7531 32.7833 95.7531 28.95C95.7531 25.15 95.1698 21.7167 94.0031 18.65C92.8698 15.5833 91.1031 13.15 88.7031 11.35C86.3365 9.55 83.3198 8.65 79.6531 8.65C76.1531 8.65 73.2531 9.51667 70.9531 11.25C68.6531 12.95 66.9365 15.3333 65.8031 18.4C64.6698 21.4333 64.1031 24.95 64.1031 28.95C64.1031 32.8833 64.6531 36.4 65.7531 39.5C66.8865 42.5667 68.6198 44.9833 70.9531 46.75C73.2865 48.4833 76.2698 49.35 79.9031 49.35ZM136.164 57.5C130.797 57.5 126.164 56.2833 122.264 53.85C118.397 51.4167 115.414 48.05 113.314 43.75C111.214 39.45 110.164 34.5167 110.164 28.95C110.164 23.2833 111.231 18.3167 113.364 14.05C115.497 9.78333 118.514 6.46666 122.414 4.09999C126.314 1.7 130.897 0.499999 136.164 0.499999C141.564 0.499999 146.214 1.71667 150.114 4.15C154.014 6.55 156.997 9.9 159.064 14.2C161.164 18.4667 162.214 23.3833 162.214 28.95C162.214 34.5833 161.164 39.55 159.064 43.85C156.964 48.1167 153.964 51.4667 150.064 53.9C146.164 56.3 141.531 57.5 136.164 57.5ZM136.164 49.05C141.764 49.05 145.931 47.1833 148.664 43.45C151.397 39.7167 152.764 34.8833 152.764 28.95C152.764 22.85 151.381 18 148.614 14.4C145.847 10.7667 141.697 8.95 136.164 8.95C132.397 8.95 129.297 9.8 126.864 11.5C124.431 13.2 122.614 15.55 121.414 18.55C120.214 21.55 119.614 25.0167 119.614 28.95C119.614 35.0167 121.014 39.8833 123.814 43.55C126.614 47.2167 130.731 49.05 136.164 49.05ZM166.223 68V48.65C169.256 48.65 171.423 47.6667 172.723 45.7C174.023 43.7 175.073 40.4167 175.873 35.85C176.406 32.9833 176.839 29.9167 177.173 26.65C177.506 23.3833 177.789 19.75 178.023 15.75C178.289 11.7167 178.539 7.13333 178.773 2H215.973V48.65H221.223V68H212.723V56H174.723V68H166.223ZM179.923 48.65H207.073V9.35H186.823C186.723 11.7167 186.589 14.2 186.423 16.8C186.256 19.3667 186.056 21.9333 185.823 24.5C185.623 27.0667 185.373 29.5 185.073 31.8C184.806 34.0667 184.489 36.1 184.123 37.9C183.689 40.4 183.189 42.5167 182.623 44.25C182.056 45.9833 181.156 47.45 179.923 48.65ZM235.27 80L245.72 51.6L245.87 60L222.27 2H231.62L250.12 48.65H246.92L264.27 2H273.32L243.92 80H235.27ZM278.528 56L278.578 2H287.578V28L310.228 2H321.778L297.928 29L324.578 56H312.128L287.578 30V56H278.528ZM340.855 56V10.1H322.055V2H368.555V10.1H349.755V56H340.855Z" fill="white"/>
</svg>
