<svg width="1296" height="241" viewBox="0 0 1296 241" fill="none" xmlns="http://www.w3.org/2000/svg">
<path d="M722.943 69.1477H721.17C721.102 68.7689 720.975 68.4356 720.79 68.1477C720.604 67.8598 720.377 67.6155 720.108 67.4148C719.839 67.214 719.538 67.0625 719.205 66.9602C718.875 66.858 718.525 66.8068 718.153 66.8068C717.483 66.8068 716.883 66.9754 716.352 67.3125C715.826 67.6496 715.409 68.1439 715.102 68.7955C714.799 69.447 714.648 70.2424 714.648 71.1818C714.648 72.1288 714.799 72.928 715.102 73.5795C715.409 74.2311 715.828 74.7235 716.358 75.0568C716.888 75.3902 717.485 75.5568 718.148 75.5568C718.515 75.5568 718.864 75.5076 719.193 75.4091C719.527 75.3068 719.828 75.1572 720.097 74.9602C720.366 74.7633 720.593 74.5227 720.778 74.2386C720.968 73.9508 721.098 73.6212 721.17 73.25L722.943 73.2557C722.848 73.8277 722.665 74.3542 722.392 74.8352C722.123 75.3125 721.777 75.7254 721.352 76.0739C720.932 76.4186 720.451 76.6856 719.909 76.875C719.367 77.0644 718.777 77.1591 718.136 77.1591C717.129 77.1591 716.231 76.9205 715.443 76.4432C714.655 75.9621 714.034 75.2746 713.58 74.3807C713.129 73.4867 712.903 72.4205 712.903 71.1818C712.903 69.9394 713.131 68.8731 713.585 67.983C714.04 67.089 714.661 66.4034 715.449 65.9261C716.237 65.4451 717.133 65.2045 718.136 65.2045C718.754 65.2045 719.33 65.2936 719.864 65.4716C720.402 65.6458 720.884 65.9034 721.312 66.2443C721.741 66.5814 722.095 66.9943 722.375 67.483C722.655 67.9678 722.845 68.5227 722.943 69.1477ZM723.939 69.7386V68.2727H731.303V69.7386H728.456V77H726.797V69.7386H723.939ZM735.975 77.1761C735.115 77.1761 734.374 76.9924 733.753 76.625C733.136 76.2538 732.658 75.733 732.321 75.0625C731.988 74.3883 731.821 73.5985 731.821 72.6932C731.821 71.7992 731.988 71.0114 732.321 70.3295C732.658 69.6477 733.128 69.1155 733.73 68.733C734.336 68.3504 735.045 68.1591 735.855 68.1591C736.348 68.1591 736.825 68.2405 737.287 68.4034C737.749 68.5663 738.164 68.822 738.531 69.1705C738.899 69.5189 739.189 69.9716 739.401 70.5284C739.613 71.0814 739.719 71.7538 739.719 72.5455V73.1477H732.781V71.875H738.054C738.054 71.428 737.963 71.0322 737.781 70.6875C737.6 70.339 737.344 70.0644 737.014 69.8636C736.689 69.6629 736.306 69.5625 735.867 69.5625C735.389 69.5625 734.973 69.6799 734.617 69.9148C734.264 70.1458 733.992 70.4489 733.799 70.8239C733.609 71.1951 733.514 71.5985 733.514 72.0341V73.0284C733.514 73.6117 733.617 74.108 733.821 74.517C734.03 74.9261 734.319 75.2386 734.691 75.4545C735.062 75.6667 735.495 75.7727 735.992 75.7727C736.314 75.7727 736.607 75.7273 736.872 75.6364C737.138 75.5417 737.367 75.4015 737.56 75.2159C737.753 75.0303 737.901 74.8011 738.003 74.5284L739.611 74.8182C739.482 75.2917 739.251 75.7064 738.918 76.0625C738.588 76.4148 738.174 76.6894 737.674 76.8864C737.177 77.0795 736.611 77.1761 735.975 77.1761ZM741.124 77V68.2727H742.823V71.9318H743.641L746.522 68.2727H748.624L745.243 72.517L748.664 77H746.556L743.925 73.5114H742.823V77H741.124ZM754.684 75.0227L758.888 68.2727H760.434V77H759.093V70.25L754.911 77H753.343V68.2727H754.684V75.0227ZM765.955 77.1818C765.137 77.1818 764.432 76.9886 763.842 76.6023C763.251 76.2159 762.796 75.6837 762.478 75.0057C762.16 74.3277 762.001 73.553 762.001 72.6818C762.001 71.7955 762.164 71.0133 762.489 70.3352C762.819 69.6534 763.277 69.1212 763.864 68.7386C764.455 68.3523 765.145 68.1591 765.932 68.1591C766.546 68.1591 767.099 68.2727 767.592 68.5C768.084 68.7273 768.487 69.0455 768.802 69.4545C769.116 69.8636 769.311 70.3409 769.387 70.8864H768.046C767.944 70.4886 767.717 70.1364 767.364 69.8295C767.016 69.5189 766.546 69.3636 765.955 69.3636C765.432 69.3636 764.974 69.5 764.58 69.7727C764.19 70.0417 763.885 70.4223 763.665 70.9148C763.45 71.4034 763.342 71.9773 763.342 72.6364C763.342 73.3106 763.448 73.8977 763.66 74.3977C763.876 74.8977 764.179 75.286 764.569 75.5625C764.963 75.839 765.425 75.9773 765.955 75.9773C766.304 75.9773 766.62 75.9167 766.904 75.7955C767.188 75.6742 767.429 75.5 767.626 75.2727C767.823 75.0455 767.963 74.7727 768.046 74.4545H769.387C769.311 74.9697 769.124 75.4337 768.825 75.8466C768.529 76.2557 768.137 76.5814 767.648 76.8239C767.164 77.0625 766.599 77.1818 765.955 77.1818ZM774.413 77.1818C773.595 77.1818 772.89 76.9886 772.299 76.6023C771.708 76.2159 771.254 75.6837 770.935 75.0057C770.617 74.3277 770.458 73.553 770.458 72.6818C770.458 71.7955 770.621 71.0133 770.947 70.3352C771.276 69.6534 771.735 69.1212 772.322 68.7386C772.913 68.3523 773.602 68.1591 774.39 68.1591C775.004 68.1591 775.557 68.2727 776.049 68.5C776.542 68.7273 776.945 69.0455 777.259 69.4545C777.574 69.8636 777.769 70.3409 777.845 70.8864H776.504C776.401 70.4886 776.174 70.1364 775.822 69.8295C775.473 69.5189 775.004 69.3636 774.413 69.3636C773.89 69.3636 773.432 69.5 773.038 69.7727C772.648 70.0417 772.343 70.4223 772.123 70.9148C771.907 71.4034 771.799 71.9773 771.799 72.6364C771.799 73.3106 771.905 73.8977 772.117 74.3977C772.333 74.8977 772.636 75.286 773.026 75.5625C773.42 75.839 773.882 75.9773 774.413 75.9773C774.761 75.9773 775.077 75.9167 775.362 75.7955C775.646 75.6742 775.886 75.5 776.083 75.2727C776.28 75.0455 776.42 74.7727 776.504 74.4545H777.845C777.769 74.9697 777.581 75.4337 777.282 75.8466C776.987 76.2557 776.595 76.5814 776.106 76.8239C775.621 77.0625 775.057 77.1818 774.413 77.1818ZM778.552 77V75.75H778.87C779.132 75.75 779.349 75.6989 779.524 75.5966C779.698 75.4905 779.838 75.3068 779.944 75.0455C780.054 74.7803 780.137 74.4129 780.194 73.9432C780.255 73.4697 780.298 72.8674 780.325 72.1364L780.484 68.2727H786.302V77H784.961V69.5227H781.757L781.62 72.6364C781.59 73.3523 781.526 73.983 781.427 74.5284C781.332 75.0701 781.187 75.5246 780.99 75.892C780.796 76.2595 780.539 76.536 780.217 76.7216C779.895 76.9072 779.491 77 779.007 77H778.552ZM791.941 77.1818C791.1 77.1818 790.375 76.9962 789.765 76.625C789.159 76.25 788.691 75.7273 788.362 75.0568C788.036 74.3826 787.873 73.5985 787.873 72.7045C787.873 71.8106 788.036 71.0227 788.362 70.3409C788.691 69.6553 789.15 69.1212 789.737 68.7386C790.328 68.3523 791.017 68.1591 791.805 68.1591C792.26 68.1591 792.708 68.2348 793.152 68.3864C793.595 68.5379 793.998 68.7841 794.362 69.125C794.725 69.4621 795.015 69.9091 795.231 70.4659C795.447 71.0227 795.555 71.7083 795.555 72.5227V73.0909H788.828V71.9318H794.191C794.191 71.4394 794.093 71 793.896 70.6136C793.703 70.2273 793.426 69.9223 793.066 69.6989C792.71 69.4754 792.29 69.3636 791.805 69.3636C791.271 69.3636 790.809 69.4962 790.419 69.7614C790.032 70.0227 789.735 70.3636 789.527 70.7841C789.318 71.2045 789.214 71.6553 789.214 72.1364V72.9091C789.214 73.5682 789.328 74.1269 789.555 74.5852C789.786 75.0398 790.106 75.3864 790.515 75.625C790.924 75.8598 791.4 75.9773 791.941 75.9773C792.294 75.9773 792.612 75.928 792.896 75.8295C793.184 75.7273 793.432 75.5758 793.64 75.375C793.849 75.1705 794.01 74.9167 794.123 74.6136L795.419 74.9773C795.282 75.4167 795.053 75.803 794.731 76.1364C794.409 76.4659 794.011 76.7235 793.538 76.9091C793.064 77.0909 792.532 77.1818 791.941 77.1818ZM796.183 79.5V75.75H796.91C797.088 75.5644 797.242 75.3636 797.37 75.1477C797.499 74.9318 797.611 74.6761 797.706 74.3807C797.804 74.0814 797.887 73.7178 797.956 73.2898C798.024 72.858 798.084 72.3371 798.137 71.7273L798.433 68.2727H803.978V75.75H805.319V79.5H803.978V77H797.524V79.5H796.183ZM798.433 75.75H802.637V69.5227H799.683L799.456 71.7273C799.361 72.6402 799.244 73.4375 799.103 74.1193C798.963 74.8011 798.74 75.3447 798.433 75.75ZM810.165 77.1818C809.377 77.1818 808.685 76.9943 808.091 76.6193C807.5 76.2443 807.038 75.7197 806.704 75.0455C806.375 74.3712 806.21 73.5833 806.21 72.6818C806.21 71.7727 806.375 70.9792 806.704 70.3011C807.038 69.6231 807.5 69.0966 808.091 68.7216C808.685 68.3466 809.377 68.1591 810.165 68.1591C810.952 68.1591 811.642 68.3466 812.233 68.7216C812.827 69.0966 813.29 69.6231 813.619 70.3011C813.952 70.9792 814.119 71.7727 814.119 72.6818C814.119 73.5833 813.952 74.3712 813.619 75.0455C813.29 75.7197 812.827 76.2443 812.233 76.6193C811.642 76.9943 810.952 77.1818 810.165 77.1818ZM810.165 75.9773C810.763 75.9773 811.256 75.8239 811.642 75.517C812.028 75.2102 812.314 74.8068 812.5 74.3068C812.685 73.8068 812.778 73.2652 812.778 72.6818C812.778 72.0985 812.685 71.5549 812.5 71.0511C812.314 70.5473 812.028 70.1402 811.642 69.8295C811.256 69.5189 810.763 69.3636 810.165 69.3636C809.566 69.3636 809.074 69.5189 808.687 69.8295C808.301 70.1402 808.015 70.5473 807.829 71.0511C807.644 71.5549 807.551 72.0985 807.551 72.6818C807.551 73.2652 807.644 73.8068 807.829 74.3068C808.015 74.8068 808.301 75.2102 808.687 75.517C809.074 75.8239 809.566 75.9773 810.165 75.9773ZM815.686 77V68.2727H819.254C820.194 68.2727 820.94 68.4848 821.493 68.9091C822.046 69.3333 822.322 69.8939 822.322 70.5909C822.322 71.1212 822.165 71.5322 821.851 71.8239C821.536 72.1117 821.133 72.3068 820.641 72.4091C820.963 72.4545 821.275 72.5682 821.578 72.75C821.885 72.9318 822.139 73.1818 822.339 73.5C822.54 73.8144 822.641 74.2008 822.641 74.6591C822.641 75.1061 822.527 75.5057 822.3 75.858C822.072 76.2102 821.747 76.4886 821.322 76.6932C820.898 76.8977 820.391 77 819.8 77H815.686ZM816.959 75.7727H819.8C820.262 75.7727 820.624 75.6629 820.885 75.4432C821.146 75.2235 821.277 74.9242 821.277 74.5455C821.277 74.0947 821.146 73.7405 820.885 73.483C820.624 73.2216 820.262 73.0909 819.8 73.0909H816.959V75.7727ZM816.959 71.9318H819.254C819.614 71.9318 819.923 71.8826 820.18 71.7841C820.438 71.6818 820.635 71.5379 820.771 71.3523C820.911 71.1629 820.981 70.9394 820.981 70.6818C820.981 70.3144 820.828 70.0265 820.521 69.8182C820.214 69.6061 819.792 69.5 819.254 69.5H816.959V71.9318ZM826.759 77.2045C826.206 77.2045 825.704 77.1004 825.253 76.892C824.802 76.6799 824.444 76.375 824.179 75.9773C823.914 75.5758 823.781 75.0909 823.781 74.5227C823.781 74.0227 823.88 73.6174 824.077 73.3068C824.274 72.9924 824.537 72.7462 824.867 72.5682C825.196 72.3902 825.56 72.2576 825.957 72.1705C826.359 72.0795 826.762 72.0076 827.168 71.9545C827.698 71.8864 828.128 71.8352 828.457 71.8011C828.791 71.7633 829.033 71.7008 829.185 71.6136C829.34 71.5265 829.418 71.375 829.418 71.1591V71.1136C829.418 70.553 829.264 70.1174 828.957 69.8068C828.654 69.4962 828.194 69.3409 827.577 69.3409C826.937 69.3409 826.435 69.4811 826.071 69.7614C825.707 70.0417 825.452 70.3409 825.304 70.6591L824.031 70.2045C824.259 69.6742 824.562 69.2614 824.94 68.9659C825.323 68.6667 825.74 68.4583 826.19 68.3409C826.645 68.2197 827.092 68.1591 827.531 68.1591C827.812 68.1591 828.134 68.1932 828.497 68.2614C828.865 68.3258 829.219 68.4602 829.56 68.6648C829.904 68.8693 830.19 69.178 830.418 69.5909C830.645 70.0038 830.759 70.5568 830.759 71.25V77H829.418V75.8182H829.349C829.259 76.0076 829.107 76.2102 828.895 76.4261C828.683 76.642 828.401 76.8258 828.048 76.9773C827.696 77.1288 827.266 77.2045 826.759 77.2045ZM826.963 76C827.493 76 827.94 75.8958 828.304 75.6875C828.671 75.4792 828.948 75.2102 829.134 74.8807C829.323 74.5511 829.418 74.2045 829.418 73.8409V72.6136C829.361 72.6818 829.236 72.7443 829.043 72.8011C828.853 72.8542 828.634 72.9015 828.384 72.9432C828.137 72.9811 827.897 73.0152 827.662 73.0455C827.431 73.072 827.243 73.0947 827.099 73.1136C826.751 73.1591 826.425 73.233 826.122 73.3352C825.823 73.4337 825.581 73.5833 825.395 73.7841C825.213 73.9811 825.122 74.25 825.122 74.5909C825.122 75.0568 825.295 75.4091 825.639 75.6477C825.988 75.8826 826.429 76 826.963 76ZM838.567 72.0227V73.2727H833.749V72.0227H838.567ZM834.067 68.2727V77H832.726V68.2727H834.067ZM839.59 68.2727V77H838.249V68.2727H839.59ZM842.899 75.0227L847.104 68.2727H848.649V77H847.309V70.25L843.127 77H841.559V68.2727H842.899V75.0227ZM851.966 75.0227L856.171 68.2727H857.716V77H856.375V70.25L852.194 77H850.625V68.2727H851.966V75.0227ZM855.284 65.3636H856.534C856.534 65.9773 856.322 66.4792 855.898 66.8693C855.474 67.2595 854.898 67.4545 854.171 67.4545C853.455 67.4545 852.885 67.2595 852.461 66.8693C852.04 66.4792 851.83 65.9773 851.83 65.3636H853.08C853.08 65.6591 853.161 65.9186 853.324 66.142C853.491 66.3655 853.773 66.4773 854.171 66.4773C854.569 66.4773 854.853 66.3655 855.023 66.142C855.197 65.9186 855.284 65.6591 855.284 65.3636Z" fill="white"/>
<path d="M728.864 122.727V125.227H717.636V146H714.818V122.727H728.864ZM730.355 146V143.5H730.992C731.514 143.5 731.95 143.398 732.299 143.193C732.647 142.981 732.927 142.614 733.139 142.091C733.359 141.561 733.526 140.826 733.639 139.886C733.761 138.939 733.848 137.735 733.901 136.273L734.219 128.545H745.855V146H743.174V131.045H736.764L736.492 137.273C736.431 138.705 736.302 139.966 736.105 141.057C735.916 142.14 735.624 143.049 735.23 143.784C734.844 144.519 734.329 145.072 733.685 145.443C733.041 145.814 732.234 146 731.264 146H730.355ZM750.918 152.545C750.464 152.545 750.058 152.508 749.702 152.432C749.346 152.364 749.1 152.295 748.964 152.227L749.645 149.864C750.297 150.03 750.873 150.091 751.373 150.045C751.873 150 752.316 149.777 752.702 149.375C753.096 148.981 753.456 148.341 753.782 147.455L754.282 146.091L747.827 128.545H750.736L755.554 142.455H755.736L760.554 128.545H763.464L756.054 148.545C755.721 149.447 755.308 150.193 754.816 150.784C754.323 151.383 753.751 151.826 753.1 152.114C752.456 152.402 751.729 152.545 750.918 152.545ZM778.998 122L780.361 123.636C779.831 124.152 779.218 124.511 778.521 124.716C777.824 124.92 777.036 125.045 776.157 125.091C775.278 125.136 774.301 125.182 773.225 125.227C772.013 125.273 771.009 125.568 770.214 126.114C769.418 126.659 768.805 127.447 768.373 128.477C767.941 129.508 767.665 130.773 767.543 132.273H767.771C768.361 131.182 769.18 130.379 770.225 129.864C771.271 129.348 772.392 129.091 773.589 129.091C774.952 129.091 776.18 129.409 777.271 130.045C778.361 130.682 779.225 131.625 779.861 132.875C780.498 134.125 780.816 135.667 780.816 137.5C780.816 139.326 780.49 140.902 779.839 142.227C779.195 143.553 778.29 144.576 777.123 145.295C775.964 146.008 774.604 146.364 773.043 146.364C771.483 146.364 770.115 145.996 768.941 145.261C767.767 144.519 766.854 143.42 766.202 141.966C765.551 140.504 765.225 138.697 765.225 136.545V134.682C765.225 130.795 765.884 127.848 767.202 125.841C768.528 123.833 770.521 122.795 773.18 122.727C774.119 122.697 774.956 122.689 775.691 122.705C776.426 122.72 777.066 122.686 777.611 122.602C778.157 122.519 778.619 122.318 778.998 122ZM773.043 143.955C774.096 143.955 775.002 143.689 775.759 143.159C776.524 142.629 777.111 141.883 777.521 140.92C777.93 139.951 778.134 138.811 778.134 137.5C778.134 136.227 777.926 135.144 777.509 134.25C777.1 133.356 776.513 132.674 775.748 132.205C774.983 131.735 774.066 131.5 772.998 131.5C772.218 131.5 771.517 131.633 770.896 131.898C770.274 132.163 769.744 132.553 769.305 133.068C768.865 133.583 768.524 134.212 768.282 134.955C768.047 135.697 767.922 136.545 767.907 137.5C767.907 139.455 768.365 141.019 769.282 142.193C770.199 143.367 771.452 143.955 773.043 143.955ZM786.64 142.045L795.049 128.545H798.14V146H795.458V132.5L787.095 146H783.958V128.545H786.64V142.045ZM813.774 136.045V138.545H804.137V136.045H813.774ZM804.774 128.545V146H802.092V128.545H804.774ZM815.819 128.545V146H813.137V128.545H815.819ZM831.439 136.045V138.545H821.802V136.045H831.439ZM822.439 128.545V146H819.757V128.545H822.439ZM833.484 128.545V146H830.802V128.545H833.484ZM839.74 134.864H844.74C846.786 134.864 848.35 135.383 849.433 136.42C850.517 137.458 851.058 138.773 851.058 140.364C851.058 141.409 850.816 142.36 850.331 143.216C849.846 144.064 849.134 144.742 848.195 145.25C847.255 145.75 846.104 146 844.74 146H837.422V128.545H840.104V143.5H844.74C845.801 143.5 846.672 143.22 847.354 142.659C848.036 142.098 848.377 141.379 848.377 140.5C848.377 139.576 848.036 138.822 847.354 138.239C846.672 137.655 845.801 137.364 844.74 137.364H839.74V134.864ZM853.831 146V128.545H856.513V146H853.831ZM867.78 146.364C866.098 146.364 864.648 145.992 863.428 145.25C862.216 144.5 861.28 143.455 860.621 142.114C859.97 140.765 859.644 139.197 859.644 137.409C859.644 135.621 859.97 134.045 860.621 132.682C861.28 131.311 862.197 130.242 863.371 129.477C864.553 128.705 865.932 128.318 867.508 128.318C868.417 128.318 869.314 128.47 870.201 128.773C871.087 129.076 871.894 129.568 872.621 130.25C873.348 130.924 873.928 131.818 874.36 132.932C874.792 134.045 875.008 135.417 875.008 137.045V138.182H861.553V135.864H872.28C872.28 134.879 872.083 134 871.689 133.227C871.303 132.455 870.75 131.845 870.03 131.398C869.318 130.951 868.477 130.727 867.508 130.727C866.439 130.727 865.515 130.992 864.735 131.523C863.962 132.045 863.367 132.727 862.951 133.568C862.534 134.409 862.326 135.311 862.326 136.273V137.818C862.326 139.136 862.553 140.254 863.008 141.17C863.47 142.08 864.11 142.773 864.928 143.25C865.746 143.72 866.697 143.955 867.78 143.955C868.485 143.955 869.121 143.856 869.689 143.659C870.265 143.455 870.761 143.152 871.178 142.75C871.595 142.341 871.917 141.833 872.144 141.227L874.735 141.955C874.462 142.833 874.004 143.606 873.36 144.273C872.716 144.932 871.92 145.447 870.973 145.818C870.026 146.182 868.962 146.364 867.78 146.364ZM888.849 142.045L897.258 128.545H900.349V146H897.667V132.5L889.303 146H886.167V128.545H888.849V142.045ZM915.983 136.045V138.545H906.346V136.045H915.983ZM906.983 128.545V146H904.301V128.545H906.983ZM918.028 128.545V146H915.346V128.545H918.028ZM919.591 131.045V128.545H933.773V131.045H928.045V146H925.364V131.045H919.591ZM943.136 146.364C941.455 146.364 940.004 145.992 938.784 145.25C937.572 144.5 936.636 143.455 935.977 142.114C935.326 140.765 935 139.197 935 137.409C935 135.621 935.326 134.045 935.977 132.682C936.636 131.311 937.553 130.242 938.727 129.477C939.909 128.705 941.288 128.318 942.864 128.318C943.773 128.318 944.671 128.47 945.557 128.773C946.443 129.076 947.25 129.568 947.977 130.25C948.705 130.924 949.284 131.818 949.716 132.932C950.148 134.045 950.364 135.417 950.364 137.045V138.182H936.909V135.864H947.636C947.636 134.879 947.44 134 947.046 133.227C946.659 132.455 946.106 131.845 945.386 131.398C944.674 130.951 943.833 130.727 942.864 130.727C941.796 130.727 940.871 130.992 940.091 131.523C939.318 132.045 938.724 132.727 938.307 133.568C937.89 134.409 937.682 135.311 937.682 136.273V137.818C937.682 139.136 937.909 140.254 938.364 141.17C938.826 142.08 939.466 142.773 940.284 143.25C941.102 143.72 942.053 143.955 943.136 143.955C943.841 143.955 944.477 143.856 945.046 143.659C945.621 143.455 946.118 143.152 946.534 142.75C946.951 142.341 947.273 141.833 947.5 141.227L950.091 141.955C949.818 142.833 949.36 143.606 948.716 144.273C948.072 144.932 947.277 145.447 946.33 145.818C945.383 146.182 944.318 146.364 943.136 146.364ZM953.483 152.545V128.545H956.074V131.318H956.392C956.589 131.015 956.862 130.629 957.211 130.159C957.567 129.682 958.074 129.258 958.733 128.886C959.4 128.508 960.301 128.318 961.438 128.318C962.908 128.318 964.203 128.686 965.324 129.42C966.445 130.155 967.32 131.197 967.949 132.545C968.578 133.894 968.892 135.485 968.892 137.318C968.892 139.167 968.578 140.769 967.949 142.125C967.32 143.473 966.449 144.519 965.336 145.261C964.222 145.996 962.938 146.364 961.483 146.364C960.362 146.364 959.464 146.178 958.79 145.807C958.116 145.428 957.597 145 957.233 144.523C956.87 144.038 956.589 143.636 956.392 143.318H956.165V152.545H953.483ZM956.12 137.273C956.12 138.591 956.313 139.754 956.699 140.761C957.086 141.761 957.65 142.545 958.392 143.114C959.135 143.674 960.044 143.955 961.12 143.955C962.241 143.955 963.176 143.659 963.926 143.068C964.684 142.47 965.252 141.667 965.631 140.659C966.017 139.644 966.211 138.515 966.211 137.273C966.211 136.045 966.021 134.939 965.642 133.955C965.271 132.962 964.707 132.178 963.949 131.602C963.199 131.019 962.256 130.727 961.12 130.727C960.029 130.727 959.112 131.004 958.37 131.557C957.627 132.102 957.067 132.867 956.688 133.852C956.309 134.83 956.12 135.97 956.12 137.273ZM972.023 146V128.545H979.16C981.038 128.545 982.531 128.97 983.637 129.818C984.743 130.667 985.296 131.788 985.296 133.182C985.296 134.242 984.982 135.064 984.353 135.648C983.724 136.223 982.917 136.614 981.932 136.818C982.576 136.909 983.201 137.136 983.807 137.5C984.421 137.864 984.929 138.364 985.33 139C985.732 139.629 985.932 140.402 985.932 141.318C985.932 142.212 985.705 143.011 985.251 143.716C984.796 144.42 984.145 144.977 983.296 145.386C982.448 145.795 981.432 146 980.251 146H972.023ZM974.569 143.545H980.251C981.175 143.545 981.898 143.326 982.421 142.886C982.944 142.447 983.205 141.848 983.205 141.091C983.205 140.189 982.944 139.481 982.421 138.966C981.898 138.443 981.175 138.182 980.251 138.182H974.569V143.545ZM974.569 135.864H979.16C979.879 135.864 980.497 135.765 981.012 135.568C981.527 135.364 981.921 135.076 982.194 134.705C982.474 134.326 982.614 133.879 982.614 133.364C982.614 132.629 982.307 132.053 981.694 131.636C981.08 131.212 980.235 131 979.16 131H974.569V135.864ZM991.35 134.864H996.35C998.396 134.864 999.96 135.383 1001.04 136.42C1002.13 137.458 1002.67 138.773 1002.67 140.364C1002.67 141.409 1002.43 142.36 1001.94 143.216C1001.46 144.064 1000.74 144.742 999.805 145.25C998.865 145.75 997.714 146 996.35 146H989.032V128.545H991.714V143.5H996.35C997.411 143.5 998.282 143.22 998.964 142.659C999.646 142.098 999.987 141.379 999.987 140.5C999.987 139.576 999.646 138.822 998.964 138.239C998.282 137.655 997.411 137.364 996.35 137.364H991.35V134.864ZM1014.15 136.182V138.682H1004.93V136.182H1014.15ZM1007.2 128.545V146H1004.52V128.545H1007.2ZM1019.52 146.364C1017.94 146.364 1016.56 145.989 1015.37 145.239C1014.19 144.489 1013.26 143.439 1012.6 142.091C1011.94 140.742 1011.61 139.167 1011.61 137.364C1011.61 135.545 1011.94 133.958 1012.6 132.602C1013.26 131.246 1014.19 130.193 1015.37 129.443C1016.56 128.693 1017.94 128.318 1019.52 128.318C1021.09 128.318 1022.47 128.693 1023.65 129.443C1024.84 130.193 1025.77 131.246 1026.43 132.602C1027.09 133.958 1027.43 135.545 1027.43 137.364C1027.43 139.167 1027.09 140.742 1026.43 142.091C1025.77 143.439 1024.84 144.489 1023.65 145.239C1022.47 145.989 1021.09 146.364 1019.52 146.364ZM1019.52 143.955C1020.72 143.955 1021.7 143.648 1022.47 143.034C1023.25 142.42 1023.82 141.614 1024.19 140.614C1024.56 139.614 1024.75 138.53 1024.75 137.364C1024.75 136.197 1024.56 135.11 1024.19 134.102C1023.82 133.095 1023.25 132.28 1022.47 131.659C1021.7 131.038 1020.72 130.727 1019.52 130.727C1018.32 130.727 1017.34 131.038 1016.56 131.659C1015.79 132.28 1015.22 133.095 1014.85 134.102C1014.48 135.11 1014.29 136.197 1014.29 137.364C1014.29 138.53 1014.48 139.614 1014.85 140.614C1015.22 141.614 1015.79 142.42 1016.56 143.034C1017.34 143.648 1018.32 143.955 1019.52 143.955ZM1034.83 142.818L1034.65 144.045C1034.52 144.909 1034.32 145.833 1034.06 146.818C1033.8 147.803 1033.53 148.731 1033.25 149.602C1032.97 150.473 1032.74 151.167 1032.56 151.682H1030.51C1030.61 151.197 1030.74 150.557 1030.9 149.761C1031.06 148.966 1031.22 148.076 1031.38 147.091C1031.54 146.114 1031.68 145.114 1031.79 144.091L1031.92 142.818H1034.83ZM1046.88 146V128.545H1060.61V146H1057.92V131.045H1049.56V146H1046.88ZM1071.64 146.364C1070.06 146.364 1068.68 145.989 1067.49 145.239C1066.31 144.489 1065.38 143.439 1064.71 142.091C1064.06 140.742 1063.73 139.167 1063.73 137.364C1063.73 135.545 1064.06 133.958 1064.71 132.602C1065.38 131.246 1066.31 130.193 1067.49 129.443C1068.68 128.693 1070.06 128.318 1071.64 128.318C1073.21 128.318 1074.59 128.693 1075.77 129.443C1076.96 130.193 1077.89 131.246 1078.54 132.602C1079.21 133.958 1079.54 135.545 1079.54 137.364C1079.54 139.167 1079.21 140.742 1078.54 142.091C1077.89 143.439 1076.96 144.489 1075.77 145.239C1074.59 145.989 1073.21 146.364 1071.64 146.364ZM1071.64 143.955C1072.83 143.955 1073.82 143.648 1074.59 143.034C1075.36 142.42 1075.93 141.614 1076.31 140.614C1076.68 139.614 1076.86 138.53 1076.86 137.364C1076.86 136.197 1076.68 135.11 1076.31 134.102C1075.93 133.095 1075.36 132.28 1074.59 131.659C1073.82 131.038 1072.83 130.727 1071.64 130.727C1070.44 130.727 1069.45 131.038 1068.68 131.659C1067.91 132.28 1067.34 133.095 1066.96 134.102C1066.59 135.11 1066.41 136.197 1066.41 137.364C1066.41 138.53 1066.59 139.614 1066.96 140.614C1067.34 141.614 1067.91 142.42 1068.68 143.034C1069.45 143.648 1070.44 143.955 1071.64 143.955ZM1081.13 146V143.5H1081.77C1082.29 143.5 1082.73 143.398 1083.08 143.193C1083.42 142.981 1083.7 142.614 1083.92 142.091C1084.14 141.561 1084.3 140.826 1084.42 139.886C1084.54 138.939 1084.63 137.735 1084.68 136.273L1085 128.545H1096.63V146H1093.95V131.045H1087.54L1087.27 137.273C1087.21 138.705 1087.08 139.966 1086.88 141.057C1086.69 142.14 1086.4 143.049 1086.01 143.784C1085.62 144.519 1085.11 145.072 1084.46 145.443C1083.82 145.814 1083.01 146 1082.04 146H1081.13ZM1107.91 146.364C1106.23 146.364 1104.78 145.992 1103.56 145.25C1102.35 144.5 1101.41 143.455 1100.75 142.114C1100.1 140.765 1099.78 139.197 1099.78 137.409C1099.78 135.621 1100.1 134.045 1100.75 132.682C1101.41 131.311 1102.33 130.242 1103.5 129.477C1104.68 128.705 1106.06 128.318 1107.64 128.318C1108.55 128.318 1109.45 128.47 1110.33 128.773C1111.22 129.076 1112.03 129.568 1112.75 130.25C1113.48 130.924 1114.06 131.818 1114.49 132.932C1114.92 134.045 1115.14 135.417 1115.14 137.045V138.182H1101.68V135.864H1112.41C1112.41 134.879 1112.21 134 1111.82 133.227C1111.43 132.455 1110.88 131.845 1110.16 131.398C1109.45 130.951 1108.61 130.727 1107.64 130.727C1106.57 130.727 1105.65 130.992 1104.87 131.523C1104.09 132.045 1103.5 132.727 1103.08 133.568C1102.67 134.409 1102.46 135.311 1102.46 136.273V137.818C1102.46 139.136 1102.68 140.254 1103.14 141.17C1103.6 142.08 1104.24 142.773 1105.06 143.25C1105.88 143.72 1106.83 143.955 1107.91 143.955C1108.62 143.955 1109.25 143.856 1109.82 143.659C1110.4 143.455 1110.89 143.152 1111.31 142.75C1111.73 142.341 1112.05 141.833 1112.28 141.227L1114.87 141.955C1114.59 142.833 1114.13 143.606 1113.49 144.273C1112.85 144.932 1112.05 145.447 1111.1 145.818C1110.16 146.182 1109.09 146.364 1107.91 146.364ZM1118.26 146V128.545H1125.39C1127.27 128.545 1128.77 128.97 1129.87 129.818C1130.98 130.667 1131.53 131.788 1131.53 133.182C1131.53 134.242 1131.22 135.064 1130.59 135.648C1129.96 136.223 1129.15 136.614 1128.17 136.818C1128.81 136.909 1129.44 137.136 1130.04 137.5C1130.66 137.864 1131.16 138.364 1131.57 139C1131.97 139.629 1132.17 140.402 1132.17 141.318C1132.17 142.212 1131.94 143.011 1131.49 143.716C1131.03 144.42 1130.38 144.977 1129.53 145.386C1128.68 145.795 1127.67 146 1126.49 146H1118.26ZM1120.8 143.545H1126.49C1127.41 143.545 1128.13 143.326 1128.66 142.886C1129.18 142.447 1129.44 141.848 1129.44 141.091C1129.44 140.189 1129.18 139.481 1128.66 138.966C1128.13 138.443 1127.41 138.182 1126.49 138.182H1120.8V143.545ZM1120.8 135.864H1125.39C1126.11 135.864 1126.73 135.765 1127.25 135.568C1127.76 135.364 1128.16 135.076 1128.43 134.705C1128.71 134.326 1128.85 133.879 1128.85 133.364C1128.85 132.629 1128.54 132.053 1127.93 131.636C1127.32 131.212 1126.47 131 1125.39 131H1120.8V135.864ZM1137.59 134.864H1142.59C1144.63 134.864 1146.2 135.383 1147.28 136.42C1148.36 137.458 1148.9 138.773 1148.9 140.364C1148.9 141.409 1148.66 142.36 1148.18 143.216C1147.69 144.064 1146.98 144.742 1146.04 145.25C1145.1 145.75 1143.95 146 1142.59 146H1135.27V128.545H1137.95V143.5H1142.59C1143.65 143.5 1144.52 143.22 1145.2 142.659C1145.88 142.098 1146.22 141.379 1146.22 140.5C1146.22 139.576 1145.88 138.822 1145.2 138.239C1144.52 137.655 1143.65 137.364 1142.59 137.364H1137.59V134.864ZM1151.68 146V128.545H1154.36V146H1151.68ZM1165.63 146.364C1163.94 146.364 1162.49 145.992 1161.27 145.25C1160.06 144.5 1159.13 143.455 1158.47 142.114C1157.81 140.765 1157.49 139.197 1157.49 137.409C1157.49 135.621 1157.81 134.045 1158.47 132.682C1159.13 131.311 1160.04 130.242 1161.22 129.477C1162.4 128.705 1163.78 128.318 1165.35 128.318C1166.26 128.318 1167.16 128.47 1168.05 128.773C1168.93 129.076 1169.74 129.568 1170.47 130.25C1171.19 130.924 1171.77 131.818 1172.2 132.932C1172.64 134.045 1172.85 135.417 1172.85 137.045V138.182H1159.4V135.864H1170.13C1170.13 134.879 1169.93 134 1169.53 133.227C1169.15 132.455 1168.59 131.845 1167.88 131.398C1167.16 130.951 1166.32 130.727 1165.35 130.727C1164.28 130.727 1163.36 130.992 1162.58 131.523C1161.81 132.045 1161.21 132.727 1160.8 133.568C1160.38 134.409 1160.17 135.311 1160.17 136.273V137.818C1160.17 139.136 1160.4 140.254 1160.85 141.17C1161.31 142.08 1161.95 142.773 1162.77 143.25C1163.59 143.72 1164.54 143.955 1165.63 143.955C1166.33 143.955 1166.97 143.856 1167.53 143.659C1168.11 143.455 1168.61 143.152 1169.02 142.75C1169.44 142.341 1169.76 141.833 1169.99 141.227L1172.58 141.955C1172.31 142.833 1171.85 143.606 1171.2 144.273C1170.56 144.932 1169.77 145.447 1168.82 145.818C1167.87 146.182 1166.81 146.364 1165.63 146.364ZM717.136 181.045L725.545 167.545H728.636V185H725.955V171.5L717.591 185H714.455V167.545H717.136V181.045ZM739.083 185V182.5H739.719C740.242 182.5 740.678 182.398 741.026 182.193C741.375 181.981 741.655 181.614 741.867 181.091C742.087 180.561 742.253 179.826 742.367 178.886C742.488 177.939 742.575 176.735 742.628 175.273L742.946 167.545H754.583V185H751.901V170.045H745.492L745.219 176.273C745.159 177.705 745.03 178.966 744.833 180.057C744.643 181.14 744.352 182.049 743.958 182.784C743.571 183.519 743.056 184.072 742.412 184.443C741.768 184.814 740.962 185 739.992 185H739.083ZM763.68 185.409C762.574 185.409 761.57 185.201 760.668 184.784C759.767 184.36 759.051 183.75 758.521 182.955C757.99 182.152 757.725 181.182 757.725 180.045C757.725 179.045 757.922 178.235 758.316 177.614C758.71 176.985 759.236 176.492 759.896 176.136C760.555 175.78 761.282 175.515 762.077 175.341C762.88 175.159 763.687 175.015 764.498 174.909C765.558 174.773 766.418 174.67 767.077 174.602C767.744 174.527 768.229 174.402 768.532 174.227C768.843 174.053 768.998 173.75 768.998 173.318V173.227C768.998 172.106 768.691 171.235 768.077 170.614C767.471 169.992 766.551 169.682 765.316 169.682C764.036 169.682 763.032 169.962 762.305 170.523C761.577 171.083 761.066 171.682 760.771 172.318L758.225 171.409C758.68 170.348 759.286 169.523 760.043 168.932C760.808 168.333 761.642 167.917 762.543 167.682C763.452 167.439 764.346 167.318 765.225 167.318C765.786 167.318 766.43 167.386 767.157 167.523C767.892 167.652 768.6 167.92 769.282 168.33C769.971 168.739 770.543 169.356 770.998 170.182C771.452 171.008 771.68 172.114 771.68 173.5V185H768.998V182.636H768.861C768.68 183.015 768.377 183.42 767.952 183.852C767.528 184.284 766.964 184.652 766.259 184.955C765.555 185.258 764.695 185.409 763.68 185.409ZM764.089 183C765.149 183 766.043 182.792 766.771 182.375C767.505 181.958 768.058 181.42 768.43 180.761C768.808 180.102 768.998 179.409 768.998 178.682V176.227C768.884 176.364 768.634 176.489 768.248 176.602C767.869 176.708 767.43 176.803 766.93 176.886C766.437 176.962 765.956 177.03 765.486 177.091C765.024 177.144 764.649 177.189 764.361 177.227C763.665 177.318 763.013 177.466 762.407 177.67C761.808 177.867 761.324 178.167 760.952 178.568C760.589 178.962 760.407 179.5 760.407 180.182C760.407 181.114 760.752 181.818 761.441 182.295C762.138 182.765 763.021 183 764.089 183ZM788.569 161L789.933 162.636C789.402 163.152 788.789 163.511 788.092 163.716C787.395 163.92 786.607 164.045 785.728 164.091C784.849 164.136 783.872 164.182 782.796 164.227C781.584 164.273 780.58 164.568 779.785 165.114C778.99 165.659 778.376 166.447 777.944 167.477C777.512 168.508 777.236 169.773 777.115 171.273H777.342C777.933 170.182 778.751 169.379 779.796 168.864C780.842 168.348 781.963 168.091 783.16 168.091C784.524 168.091 785.751 168.409 786.842 169.045C787.933 169.682 788.796 170.625 789.433 171.875C790.069 173.125 790.387 174.667 790.387 176.5C790.387 178.326 790.062 179.902 789.41 181.227C788.766 182.553 787.861 183.576 786.694 184.295C785.535 185.008 784.175 185.364 782.615 185.364C781.054 185.364 779.687 184.996 778.512 184.261C777.338 183.519 776.425 182.42 775.774 180.966C775.122 179.504 774.796 177.697 774.796 175.545V173.682C774.796 169.795 775.455 166.848 776.774 164.841C778.099 162.833 780.092 161.795 782.751 161.727C783.69 161.697 784.527 161.689 785.262 161.705C785.997 161.72 786.637 161.686 787.183 161.602C787.728 161.519 788.19 161.318 788.569 161ZM782.615 182.955C783.668 182.955 784.573 182.689 785.33 182.159C786.096 181.629 786.683 180.883 787.092 179.92C787.501 178.951 787.705 177.811 787.705 176.5C787.705 175.227 787.497 174.144 787.08 173.25C786.671 172.356 786.084 171.674 785.319 171.205C784.554 170.735 783.637 170.5 782.569 170.5C781.789 170.5 781.088 170.633 780.467 170.898C779.846 171.163 779.315 171.553 778.876 172.068C778.437 172.583 778.096 173.212 777.853 173.955C777.618 174.697 777.493 175.545 777.478 176.5C777.478 178.455 777.937 180.019 778.853 181.193C779.77 182.367 781.024 182.955 782.615 182.955ZM800.62 185.364C799.045 185.364 797.662 184.989 796.473 184.239C795.291 183.489 794.367 182.439 793.7 181.091C793.041 179.742 792.711 178.167 792.711 176.364C792.711 174.545 793.041 172.958 793.7 171.602C794.367 170.246 795.291 169.193 796.473 168.443C797.662 167.693 799.045 167.318 800.62 167.318C802.196 167.318 803.575 167.693 804.757 168.443C805.946 169.193 806.87 170.246 807.53 171.602C808.196 172.958 808.53 174.545 808.53 176.364C808.53 178.167 808.196 179.742 807.53 181.091C806.87 182.439 805.946 183.489 804.757 184.239C803.575 184.989 802.196 185.364 800.62 185.364ZM800.62 182.955C801.817 182.955 802.802 182.648 803.575 182.034C804.348 181.42 804.92 180.614 805.291 179.614C805.662 178.614 805.848 177.53 805.848 176.364C805.848 175.197 805.662 174.11 805.291 173.102C804.92 172.095 804.348 171.28 803.575 170.659C802.802 170.038 801.817 169.727 800.62 169.727C799.423 169.727 798.439 170.038 797.666 170.659C796.893 171.28 796.321 172.095 795.95 173.102C795.579 174.11 795.393 175.197 795.393 176.364C795.393 177.53 795.579 178.614 795.95 179.614C796.321 180.614 796.893 181.42 797.666 182.034C798.439 182.648 799.423 182.955 800.62 182.955ZM811.663 191.545V167.545H814.254V170.318H814.572C814.769 170.015 815.042 169.629 815.391 169.159C815.747 168.682 816.254 168.258 816.913 167.886C817.58 167.508 818.481 167.318 819.618 167.318C821.088 167.318 822.383 167.686 823.504 168.42C824.625 169.155 825.5 170.197 826.129 171.545C826.758 172.894 827.072 174.485 827.072 176.318C827.072 178.167 826.758 179.769 826.129 181.125C825.5 182.473 824.629 183.519 823.516 184.261C822.402 184.996 821.118 185.364 819.663 185.364C818.542 185.364 817.644 185.178 816.97 184.807C816.296 184.428 815.777 184 815.413 183.523C815.05 183.038 814.769 182.636 814.572 182.318H814.345V191.545H811.663ZM814.3 176.273C814.3 177.591 814.493 178.754 814.879 179.761C815.266 180.761 815.83 181.545 816.572 182.114C817.315 182.674 818.224 182.955 819.3 182.955C820.421 182.955 821.356 182.659 822.106 182.068C822.864 181.47 823.432 180.667 823.811 179.659C824.197 178.644 824.391 177.515 824.391 176.273C824.391 175.045 824.201 173.939 823.822 172.955C823.451 171.962 822.887 171.178 822.129 170.602C821.379 170.019 820.436 169.727 819.3 169.727C818.209 169.727 817.292 170.004 816.55 170.557C815.807 171.102 815.247 171.867 814.868 172.852C814.489 173.83 814.3 174.97 814.3 176.273ZM835.34 185.409C834.234 185.409 833.23 185.201 832.328 184.784C831.427 184.36 830.711 183.75 830.181 182.955C829.65 182.152 829.385 181.182 829.385 180.045C829.385 179.045 829.582 178.235 829.976 177.614C830.37 176.985 830.896 176.492 831.556 176.136C832.215 175.78 832.942 175.515 833.737 175.341C834.54 175.159 835.347 175.015 836.158 174.909C837.218 174.773 838.078 174.67 838.737 174.602C839.404 174.527 839.889 174.402 840.192 174.227C840.503 174.053 840.658 173.75 840.658 173.318V173.227C840.658 172.106 840.351 171.235 839.737 170.614C839.131 169.992 838.211 169.682 836.976 169.682C835.696 169.682 834.692 169.962 833.965 170.523C833.237 171.083 832.726 171.682 832.431 172.318L829.885 171.409C830.34 170.348 830.946 169.523 831.703 168.932C832.468 168.333 833.302 167.917 834.203 167.682C835.112 167.439 836.006 167.318 836.885 167.318C837.446 167.318 838.09 167.386 838.817 167.523C839.552 167.652 840.26 167.92 840.942 168.33C841.631 168.739 842.203 169.356 842.658 170.182C843.112 171.008 843.34 172.114 843.34 173.5V185H840.658V182.636H840.521C840.34 183.015 840.037 183.42 839.612 183.852C839.188 184.284 838.624 184.652 837.919 184.955C837.215 185.258 836.355 185.409 835.34 185.409ZM835.749 183C836.809 183 837.703 182.792 838.431 182.375C839.165 181.958 839.718 181.42 840.09 180.761C840.468 180.102 840.658 179.409 840.658 178.682V176.227C840.544 176.364 840.294 176.489 839.908 176.602C839.529 176.708 839.09 176.803 838.59 176.886C838.097 176.962 837.616 177.03 837.146 177.091C836.684 177.144 836.309 177.189 836.021 177.227C835.325 177.318 834.673 177.466 834.067 177.67C833.468 177.867 832.984 178.167 832.612 178.568C832.249 178.962 832.067 179.5 832.067 180.182C832.067 181.114 832.412 181.818 833.101 182.295C833.798 182.765 834.681 183 835.749 183ZM844.9 170.045V167.545H859.081V170.045H853.354V185H850.672V170.045H844.9ZM868.218 185.364C866.642 185.364 865.26 184.989 864.07 184.239C862.888 183.489 861.964 182.439 861.298 181.091C860.638 179.742 860.309 178.167 860.309 176.364C860.309 174.545 860.638 172.958 861.298 171.602C861.964 170.246 862.888 169.193 864.07 168.443C865.26 167.693 866.642 167.318 868.218 167.318C869.794 167.318 871.173 167.693 872.354 168.443C873.544 169.193 874.468 170.246 875.127 171.602C875.794 172.958 876.127 174.545 876.127 176.364C876.127 178.167 875.794 179.742 875.127 181.091C874.468 182.439 873.544 183.489 872.354 184.239C871.173 184.989 869.794 185.364 868.218 185.364ZM868.218 182.955C869.415 182.955 870.4 182.648 871.173 182.034C871.945 181.42 872.517 180.614 872.888 179.614C873.26 178.614 873.445 177.53 873.445 176.364C873.445 175.197 873.26 174.11 872.888 173.102C872.517 172.095 871.945 171.28 871.173 170.659C870.4 170.038 869.415 169.727 868.218 169.727C867.021 169.727 866.036 170.038 865.263 170.659C864.491 171.28 863.919 172.095 863.548 173.102C863.176 174.11 862.991 175.197 862.991 176.364C862.991 177.53 863.176 178.614 863.548 179.614C863.919 180.614 864.491 181.42 865.263 182.034C866.036 182.648 867.021 182.955 868.218 182.955ZM879.261 191.545V167.545H881.852V170.318H882.17C882.367 170.015 882.64 169.629 882.988 169.159C883.344 168.682 883.852 168.258 884.511 167.886C885.177 167.508 886.079 167.318 887.215 167.318C888.685 167.318 889.98 167.686 891.102 168.42C892.223 169.155 893.098 170.197 893.727 171.545C894.355 172.894 894.67 174.485 894.67 176.318C894.67 178.167 894.355 179.769 893.727 181.125C893.098 182.473 892.227 183.519 891.113 184.261C889.999 184.996 888.715 185.364 887.261 185.364C886.14 185.364 885.242 185.178 884.568 184.807C883.893 184.428 883.374 184 883.011 183.523C882.647 183.038 882.367 182.636 882.17 182.318H881.943V191.545H879.261ZM881.897 176.273C881.897 177.591 882.09 178.754 882.477 179.761C882.863 180.761 883.427 181.545 884.17 182.114C884.912 182.674 885.821 182.955 886.897 182.955C888.018 182.955 888.954 182.659 889.704 182.068C890.462 181.47 891.03 180.667 891.409 179.659C891.795 178.644 891.988 177.515 891.988 176.273C891.988 175.045 891.799 173.939 891.42 172.955C891.049 171.962 890.484 171.178 889.727 170.602C888.977 170.019 888.034 169.727 886.897 169.727C885.806 169.727 884.89 170.004 884.147 170.557C883.405 171.102 882.844 171.867 882.465 172.852C882.087 173.83 881.897 174.97 881.897 176.273ZM909.483 175.045V177.545H899.846V175.045H909.483ZM900.483 167.545V185H897.801V167.545H900.483ZM911.528 167.545V185H908.846V167.545H911.528ZM917.784 173.864H922.784C924.829 173.864 926.394 174.383 927.477 175.42C928.56 176.458 929.102 177.773 929.102 179.364C929.102 180.409 928.86 181.36 928.375 182.216C927.89 183.064 927.178 183.742 926.239 184.25C925.299 184.75 924.148 185 922.784 185H915.466V167.545H918.148V182.5H922.784C923.845 182.5 924.716 182.22 925.398 181.659C926.079 181.098 926.42 180.379 926.42 179.5C926.42 178.576 926.079 177.822 925.398 177.239C924.716 176.655 923.845 176.364 922.784 176.364H917.784V173.864ZM931.875 185V167.545H934.557V185H931.875ZM945.824 185.364C944.142 185.364 942.691 184.992 941.472 184.25C940.26 183.5 939.324 182.455 938.665 181.114C938.013 179.765 937.688 178.197 937.688 176.409C937.688 174.621 938.013 173.045 938.665 171.682C939.324 170.311 940.241 169.242 941.415 168.477C942.597 167.705 943.975 167.318 945.551 167.318C946.46 167.318 947.358 167.47 948.244 167.773C949.131 168.076 949.938 168.568 950.665 169.25C951.392 169.924 951.972 170.818 952.404 171.932C952.835 173.045 953.051 174.417 953.051 176.045V177.182H939.597V174.864H950.324C950.324 173.879 950.127 173 949.733 172.227C949.347 171.455 948.794 170.845 948.074 170.398C947.362 169.951 946.521 169.727 945.551 169.727C944.483 169.727 943.559 169.992 942.779 170.523C942.006 171.045 941.411 171.727 940.994 172.568C940.578 173.409 940.369 174.311 940.369 175.273V176.818C940.369 178.136 940.597 179.254 941.051 180.17C941.513 181.08 942.154 181.773 942.972 182.25C943.79 182.72 944.741 182.955 945.824 182.955C946.529 182.955 947.165 182.856 947.733 182.659C948.309 182.455 948.805 182.152 949.222 181.75C949.638 181.341 949.96 180.833 950.188 180.227L952.779 180.955C952.506 181.833 952.047 182.606 951.404 183.273C950.76 183.932 949.964 184.447 949.017 184.818C948.07 185.182 947.006 185.364 945.824 185.364ZM966.893 181.045L975.302 167.545H978.393V185H975.711V171.5L967.347 185H964.211V167.545H966.893V181.045ZM989.435 185.364C987.799 185.364 986.39 184.977 985.208 184.205C984.026 183.432 983.117 182.367 982.481 181.011C981.845 179.655 981.526 178.106 981.526 176.364C981.526 174.591 981.852 173.027 982.504 171.67C983.163 170.307 984.079 169.242 985.254 168.477C986.435 167.705 987.814 167.318 989.39 167.318C990.617 167.318 991.723 167.545 992.708 168C993.693 168.455 994.5 169.091 995.129 169.909C995.757 170.727 996.148 171.682 996.299 172.773H993.617C993.413 171.977 992.958 171.273 992.254 170.659C991.557 170.038 990.617 169.727 989.435 169.727C988.39 169.727 987.473 170 986.685 170.545C985.905 171.083 985.295 171.845 984.856 172.83C984.424 173.807 984.208 174.955 984.208 176.273C984.208 177.621 984.42 178.795 984.845 179.795C985.276 180.795 985.882 181.572 986.663 182.125C987.451 182.678 988.375 182.955 989.435 182.955C990.132 182.955 990.765 182.833 991.333 182.591C991.901 182.348 992.382 182 992.776 181.545C993.17 181.091 993.451 180.545 993.617 179.909H996.299C996.148 180.939 995.773 181.867 995.174 182.693C994.583 183.511 993.799 184.163 992.822 184.648C991.852 185.125 990.723 185.364 989.435 185.364ZM1006.35 185.364C1004.71 185.364 1003.3 184.977 1002.12 184.205C1000.94 183.432 1000.03 182.367 999.396 181.011C998.76 179.655 998.441 178.106 998.441 176.364C998.441 174.591 998.767 173.027 999.419 171.67C1000.08 170.307 1000.99 169.242 1002.17 168.477C1003.35 167.705 1004.73 167.318 1006.3 167.318C1007.53 167.318 1008.64 167.545 1009.62 168C1010.61 168.455 1011.41 169.091 1012.04 169.909C1012.67 170.727 1013.06 171.682 1013.21 172.773H1010.53C1010.33 171.977 1009.87 171.273 1009.17 170.659C1008.47 170.038 1007.53 169.727 1006.35 169.727C1005.3 169.727 1004.39 170 1003.6 170.545C1002.82 171.083 1002.21 171.845 1001.77 172.83C1001.34 173.807 1001.12 174.955 1001.12 176.273C1001.12 177.621 1001.34 178.795 1001.76 179.795C1002.19 180.795 1002.8 181.572 1003.58 182.125C1004.37 182.678 1005.29 182.955 1006.35 182.955C1007.05 182.955 1007.68 182.833 1008.25 182.591C1008.82 182.348 1009.3 182 1009.69 181.545C1010.09 181.091 1010.37 180.545 1010.53 179.909H1013.21C1013.06 180.939 1012.69 181.867 1012.09 182.693C1011.5 183.511 1010.71 184.163 1009.74 184.648C1008.77 185.125 1007.64 185.364 1006.35 185.364ZM1014.63 185V182.5H1015.27C1015.79 182.5 1016.22 182.398 1016.57 182.193C1016.92 181.981 1017.2 181.614 1017.41 181.091C1017.63 180.561 1017.8 179.826 1017.91 178.886C1018.03 177.939 1018.12 176.735 1018.17 175.273L1018.49 167.545H1030.13V185H1027.45V170.045H1021.04L1020.77 176.273C1020.7 177.705 1020.58 178.966 1020.38 180.057C1020.19 181.14 1019.9 182.049 1019.5 182.784C1019.12 183.519 1018.6 184.072 1017.96 184.443C1017.31 184.814 1016.51 185 1015.54 185H1014.63ZM1041.41 185.364C1039.73 185.364 1038.28 184.992 1037.06 184.25C1035.84 183.5 1034.91 182.455 1034.25 181.114C1033.6 179.765 1033.27 178.197 1033.27 176.409C1033.27 174.621 1033.6 173.045 1034.25 171.682C1034.91 170.311 1035.82 169.242 1037 168.477C1038.18 167.705 1039.56 167.318 1041.14 167.318C1042.04 167.318 1042.94 167.47 1043.83 167.773C1044.71 168.076 1045.52 168.568 1046.25 169.25C1046.98 169.924 1047.56 170.818 1047.99 171.932C1048.42 173.045 1048.64 174.417 1048.64 176.045V177.182H1035.18V174.864H1045.91C1045.91 173.879 1045.71 173 1045.32 172.227C1044.93 171.455 1044.38 170.845 1043.66 170.398C1042.95 169.951 1042.1 169.727 1041.14 169.727C1040.07 169.727 1039.14 169.992 1038.36 170.523C1037.59 171.045 1036.99 171.727 1036.58 172.568C1036.16 173.409 1035.95 174.311 1035.95 175.273V176.818C1035.95 178.136 1036.18 179.254 1036.64 180.17C1037.1 181.08 1037.74 181.773 1038.56 182.25C1039.37 182.72 1040.32 182.955 1041.41 182.955C1042.11 182.955 1042.75 182.856 1043.32 182.659C1043.89 182.455 1044.39 182.152 1044.81 181.75C1045.22 181.341 1045.54 180.833 1045.77 180.227L1048.36 180.955C1048.09 181.833 1047.63 182.606 1046.99 183.273C1046.34 183.932 1045.55 184.447 1044.6 184.818C1043.65 185.182 1042.59 185.364 1041.41 185.364ZM1049.89 190V182.5H1051.35C1051.7 182.129 1052.01 181.727 1052.27 181.295C1052.52 180.864 1052.75 180.352 1052.94 179.761C1053.13 179.163 1053.3 178.436 1053.44 177.58C1053.57 176.716 1053.69 175.674 1053.8 174.455L1054.39 167.545H1065.48V182.5H1068.16V190H1065.48V185H1052.57V190H1049.89ZM1054.39 182.5H1062.8V170.045H1056.89L1056.44 174.455C1056.25 176.28 1056.01 177.875 1055.73 179.239C1055.45 180.602 1055 181.689 1054.39 182.5ZM1077.85 185.364C1076.28 185.364 1074.9 184.989 1073.71 184.239C1072.52 183.489 1071.6 182.439 1070.93 181.091C1070.27 179.742 1069.95 178.167 1069.95 176.364C1069.95 174.545 1070.27 172.958 1070.93 171.602C1071.6 170.246 1072.52 169.193 1073.71 168.443C1074.9 167.693 1076.28 167.318 1077.85 167.318C1079.43 167.318 1080.81 167.693 1081.99 168.443C1083.18 169.193 1084.1 170.246 1084.76 171.602C1085.43 172.958 1085.76 174.545 1085.76 176.364C1085.76 178.167 1085.43 179.742 1084.76 181.091C1084.1 182.439 1083.18 183.489 1081.99 184.239C1080.81 184.989 1079.43 185.364 1077.85 185.364ZM1077.85 182.955C1079.05 182.955 1080.04 182.648 1080.81 182.034C1081.58 181.42 1082.15 180.614 1082.52 179.614C1082.9 178.614 1083.08 177.53 1083.08 176.364C1083.08 175.197 1082.9 174.11 1082.52 173.102C1082.15 172.095 1081.58 171.28 1080.81 170.659C1080.04 170.038 1079.05 169.727 1077.85 169.727C1076.66 169.727 1075.67 170.038 1074.9 170.659C1074.13 171.28 1073.55 172.095 1073.18 173.102C1072.81 174.11 1072.63 175.197 1072.63 176.364C1072.63 177.53 1072.81 178.614 1073.18 179.614C1073.55 180.614 1074.13 181.42 1074.9 182.034C1075.67 182.648 1076.66 182.955 1077.85 182.955ZM1088.9 185V167.545H1096.03C1097.91 167.545 1099.4 167.97 1100.51 168.818C1101.62 169.667 1102.17 170.788 1102.17 172.182C1102.17 173.242 1101.86 174.064 1101.23 174.648C1100.6 175.223 1099.79 175.614 1098.81 175.818C1099.45 175.909 1100.08 176.136 1100.68 176.5C1101.29 176.864 1101.8 177.364 1102.2 178C1102.61 178.629 1102.81 179.402 1102.81 180.318C1102.81 181.212 1102.58 182.011 1102.12 182.716C1101.67 183.42 1101.02 183.977 1100.17 184.386C1099.32 184.795 1098.31 185 1097.12 185H1088.9ZM1091.44 182.545H1097.12C1098.05 182.545 1098.77 182.326 1099.29 181.886C1099.82 181.447 1100.08 180.848 1100.08 180.091C1100.08 179.189 1099.82 178.481 1099.29 177.966C1098.77 177.443 1098.05 177.182 1097.12 177.182H1091.44V182.545ZM1091.44 174.864H1096.03C1096.75 174.864 1097.37 174.765 1097.89 174.568C1098.4 174.364 1098.79 174.076 1099.07 173.705C1099.35 173.326 1099.49 172.879 1099.49 172.364C1099.49 171.629 1099.18 171.053 1098.57 170.636C1097.95 170.212 1097.11 170 1096.03 170H1091.44V174.864ZM1111.04 185.409C1109.94 185.409 1108.93 185.201 1108.03 184.784C1107.13 184.36 1106.41 183.75 1105.88 182.955C1105.35 182.152 1105.09 181.182 1105.09 180.045C1105.09 179.045 1105.28 178.235 1105.68 177.614C1106.07 176.985 1106.6 176.492 1107.26 176.136C1107.92 175.78 1108.64 175.515 1109.44 175.341C1110.24 175.159 1111.05 175.015 1111.86 174.909C1112.92 174.773 1113.78 174.67 1114.44 174.602C1115.11 174.527 1115.59 174.402 1115.89 174.227C1116.21 174.053 1116.36 173.75 1116.36 173.318V173.227C1116.36 172.106 1116.05 171.235 1115.44 170.614C1114.83 169.992 1113.91 169.682 1112.68 169.682C1111.4 169.682 1110.39 169.962 1109.67 170.523C1108.94 171.083 1108.43 171.682 1108.13 172.318L1105.59 171.409C1106.04 170.348 1106.65 169.523 1107.41 168.932C1108.17 168.333 1109 167.917 1109.91 167.682C1110.81 167.439 1111.71 167.318 1112.59 167.318C1113.15 167.318 1113.79 167.386 1114.52 167.523C1115.25 167.652 1115.96 167.92 1116.64 168.33C1117.33 168.739 1117.91 169.356 1118.36 170.182C1118.81 171.008 1119.04 172.114 1119.04 173.5V185H1116.36V182.636H1116.22C1116.04 183.015 1115.74 183.42 1115.31 183.852C1114.89 184.284 1114.33 184.652 1113.62 184.955C1112.92 185.258 1112.06 185.409 1111.04 185.409ZM1111.45 183C1112.51 183 1113.41 182.792 1114.13 182.375C1114.87 181.958 1115.42 181.42 1115.79 180.761C1116.17 180.102 1116.36 179.409 1116.36 178.682V176.227C1116.25 176.364 1116 176.489 1115.61 176.602C1115.23 176.708 1114.79 176.803 1114.29 176.886C1113.8 176.962 1113.32 177.03 1112.85 177.091C1112.39 177.144 1112.01 177.189 1111.72 177.227C1111.03 177.318 1110.38 177.466 1109.77 177.67C1109.17 177.867 1108.69 178.167 1108.31 178.568C1107.95 178.962 1107.77 179.5 1107.77 180.182C1107.77 181.114 1108.11 181.818 1108.8 182.295C1109.5 182.765 1110.38 183 1111.45 183ZM1134.66 175.045V177.545H1125.02V175.045H1134.66ZM1125.66 167.545V185H1122.98V167.545H1125.66ZM1136.7 167.545V185H1134.02V167.545H1136.7ZM1143.32 181.045L1151.73 167.545H1154.82V185H1152.14V171.5L1143.78 185H1140.64V167.545H1143.32V181.045ZM1169.28 185V170H1164.64C1163.59 170 1162.77 170.242 1162.17 170.727C1161.58 171.212 1161.28 171.879 1161.28 172.727C1161.28 173.561 1161.54 174.216 1162.08 174.693C1162.63 175.17 1163.37 175.409 1164.32 175.409H1169.96V177.909H1164.32C1163.14 177.909 1162.12 177.701 1161.26 177.284C1160.41 176.867 1159.75 176.273 1159.29 175.5C1158.83 174.72 1158.59 173.795 1158.59 172.727C1158.59 171.652 1158.84 170.727 1159.32 169.955C1159.81 169.182 1160.5 168.587 1161.4 168.17C1162.31 167.754 1163.39 167.545 1164.64 167.545H1171.82V185H1169.28ZM1157.64 185L1162.59 176.318H1165.5L1160.55 185H1157.64ZM1179.78 181.818L1179.6 183.045C1179.47 183.909 1179.28 184.833 1179.01 185.818C1178.75 186.803 1178.49 187.731 1178.2 188.602C1177.92 189.473 1177.69 190.167 1177.51 190.682H1175.47C1175.56 190.197 1175.69 189.557 1175.85 188.761C1176.01 187.966 1176.17 187.076 1176.33 186.091C1176.5 185.114 1176.63 184.114 1176.74 183.091L1176.88 181.818H1179.78ZM721.545 224.364C719.909 224.364 718.5 223.977 717.318 223.205C716.136 222.432 715.227 221.367 714.591 220.011C713.955 218.655 713.636 217.106 713.636 215.364C713.636 213.591 713.962 212.027 714.614 210.67C715.273 209.307 716.189 208.242 717.364 207.477C718.545 206.705 719.924 206.318 721.5 206.318C722.727 206.318 723.833 206.545 724.818 207C725.803 207.455 726.61 208.091 727.239 208.909C727.867 209.727 728.258 210.682 728.409 211.773H725.727C725.523 210.977 725.068 210.273 724.364 209.659C723.667 209.038 722.727 208.727 721.545 208.727C720.5 208.727 719.583 209 718.795 209.545C718.015 210.083 717.405 210.845 716.966 211.83C716.534 212.807 716.318 213.955 716.318 215.273C716.318 216.621 716.53 217.795 716.955 218.795C717.386 219.795 717.992 220.572 718.773 221.125C719.561 221.678 720.485 221.955 721.545 221.955C722.242 221.955 722.875 221.833 723.443 221.591C724.011 221.348 724.492 221 724.886 220.545C725.28 220.091 725.561 219.545 725.727 218.909H728.409C728.258 219.939 727.883 220.867 727.284 221.693C726.693 222.511 725.909 223.163 724.932 223.648C723.962 224.125 722.833 224.364 721.545 224.364ZM738.688 224.364C737.006 224.364 735.555 223.992 734.335 223.25C733.123 222.5 732.188 221.455 731.529 220.114C730.877 218.765 730.551 217.197 730.551 215.409C730.551 213.621 730.877 212.045 731.529 210.682C732.188 209.311 733.104 208.242 734.279 207.477C735.46 206.705 736.839 206.318 738.415 206.318C739.324 206.318 740.222 206.47 741.108 206.773C741.995 207.076 742.801 207.568 743.529 208.25C744.256 208.924 744.835 209.818 745.267 210.932C745.699 212.045 745.915 213.417 745.915 215.045V216.182H732.46V213.864H743.188C743.188 212.879 742.991 212 742.597 211.227C742.21 210.455 741.657 209.845 740.938 209.398C740.226 208.951 739.385 208.727 738.415 208.727C737.347 208.727 736.423 208.992 735.642 209.523C734.87 210.045 734.275 210.727 733.858 211.568C733.442 212.409 733.233 213.311 733.233 214.273V215.818C733.233 217.136 733.46 218.254 733.915 219.17C734.377 220.08 735.017 220.773 735.835 221.25C736.654 221.72 737.604 221.955 738.688 221.955C739.392 221.955 740.029 221.856 740.597 221.659C741.173 221.455 741.669 221.152 742.085 220.75C742.502 220.341 742.824 219.833 743.051 219.227L745.642 219.955C745.37 220.833 744.911 221.606 744.267 222.273C743.623 222.932 742.828 223.447 741.881 223.818C740.934 224.182 739.87 224.364 738.688 224.364ZM759.807 206.545V209.045H751.716V224H749.035V206.545H759.807ZM772.307 220.364L778.398 206.545H780.944L773.398 224H771.217L763.807 206.545H766.307L772.307 220.364ZM765.444 206.545V224H762.762V206.545H765.444ZM779.171 224V206.545H781.853V224H779.171ZM793.12 224.364C791.438 224.364 789.988 223.992 788.768 223.25C787.556 222.5 786.62 221.455 785.961 220.114C785.31 218.765 784.984 217.197 784.984 215.409C784.984 213.621 785.31 212.045 785.961 210.682C786.62 209.311 787.537 208.242 788.711 207.477C789.893 206.705 791.272 206.318 792.848 206.318C793.757 206.318 794.654 206.47 795.541 206.773C796.427 207.076 797.234 207.568 797.961 208.25C798.688 208.924 799.268 209.818 799.7 210.932C800.132 212.045 800.348 213.417 800.348 215.045V216.182H786.893V213.864H797.62C797.62 212.879 797.423 212 797.029 211.227C796.643 210.455 796.09 209.845 795.37 209.398C794.658 208.951 793.817 208.727 792.848 208.727C791.779 208.727 790.855 208.992 790.075 209.523C789.302 210.045 788.707 210.727 788.291 211.568C787.874 212.409 787.666 213.311 787.666 214.273V215.818C787.666 217.136 787.893 218.254 788.348 219.17C788.81 220.08 789.45 220.773 790.268 221.25C791.086 221.72 792.037 221.955 793.12 221.955C793.825 221.955 794.461 221.856 795.029 221.659C795.605 221.455 796.101 221.152 796.518 220.75C796.935 220.341 797.257 219.833 797.484 219.227L800.075 219.955C799.802 220.833 799.344 221.606 798.7 222.273C798.056 222.932 797.26 223.447 796.313 223.818C795.366 224.182 794.302 224.364 793.12 224.364ZM815.149 214.045V216.545H805.512V214.045H815.149ZM806.149 206.545V224H803.467V206.545H806.149ZM817.194 206.545V224H814.512V206.545H817.194ZM818.757 209.045V206.545H832.939V209.045H827.212V224H824.53V209.045H818.757ZM838.573 220.045L846.982 206.545H850.073V224H847.391V210.5L839.027 224H835.891V206.545H838.573V220.045ZM854.025 230.545V206.545H856.615V209.318H856.934C857.131 209.015 857.403 208.629 857.752 208.159C858.108 207.682 858.615 207.258 859.275 206.886C859.941 206.508 860.843 206.318 861.979 206.318C863.449 206.318 864.744 206.686 865.865 207.42C866.987 208.155 867.862 209.197 868.49 210.545C869.119 211.894 869.434 213.485 869.434 215.318C869.434 217.167 869.119 218.769 868.49 220.125C867.862 221.473 866.99 222.519 865.877 223.261C864.763 223.996 863.479 224.364 862.025 224.364C860.903 224.364 860.006 224.178 859.331 223.807C858.657 223.428 858.138 223 857.775 222.523C857.411 222.038 857.131 221.636 856.934 221.318H856.706V230.545H854.025ZM856.661 215.273C856.661 216.591 856.854 217.754 857.24 218.761C857.627 219.761 858.191 220.545 858.934 221.114C859.676 221.674 860.585 221.955 861.661 221.955C862.782 221.955 863.718 221.659 864.468 221.068C865.225 220.47 865.793 219.667 866.172 218.659C866.559 217.644 866.752 216.515 866.752 215.273C866.752 214.045 866.562 212.939 866.184 211.955C865.812 210.962 865.248 210.178 864.49 209.602C863.74 209.019 862.797 208.727 861.661 208.727C860.57 208.727 859.653 209.004 858.911 209.557C858.168 210.102 857.608 210.867 857.229 211.852C856.85 212.83 856.661 213.97 856.661 215.273ZM879.655 224.364C878.08 224.364 876.697 223.989 875.508 223.239C874.326 222.489 873.402 221.439 872.735 220.091C872.076 218.742 871.746 217.167 871.746 215.364C871.746 213.545 872.076 211.958 872.735 210.602C873.402 209.246 874.326 208.193 875.508 207.443C876.697 206.693 878.08 206.318 879.655 206.318C881.231 206.318 882.61 206.693 883.792 207.443C884.981 208.193 885.905 209.246 886.565 210.602C887.231 211.958 887.565 213.545 887.565 215.364C887.565 217.167 887.231 218.742 886.565 220.091C885.905 221.439 884.981 222.489 883.792 223.239C882.61 223.989 881.231 224.364 879.655 224.364ZM879.655 221.955C880.852 221.955 881.837 221.648 882.61 221.034C883.383 220.42 883.955 219.614 884.326 218.614C884.697 217.614 884.883 216.53 884.883 215.364C884.883 214.197 884.697 213.11 884.326 212.102C883.955 211.095 883.383 210.28 882.61 209.659C881.837 209.038 880.852 208.727 879.655 208.727C878.458 208.727 877.474 209.038 876.701 209.659C875.928 210.28 875.356 211.095 874.985 212.102C874.614 213.11 874.428 214.197 874.428 215.364C874.428 216.53 874.614 217.614 874.985 218.614C875.356 219.614 875.928 220.42 876.701 221.034C877.474 221.648 878.458 221.955 879.655 221.955ZM890.698 224V206.545H897.835C899.713 206.545 901.206 206.97 902.312 207.818C903.418 208.667 903.971 209.788 903.971 211.182C903.971 212.242 903.657 213.064 903.028 213.648C902.399 214.223 901.592 214.614 900.607 214.818C901.251 214.909 901.876 215.136 902.482 215.5C903.096 215.864 903.604 216.364 904.005 217C904.407 217.629 904.607 218.402 904.607 219.318C904.607 220.212 904.38 221.011 903.926 221.716C903.471 222.42 902.82 222.977 901.971 223.386C901.123 223.795 900.107 224 898.926 224H890.698ZM893.244 221.545H898.926C899.85 221.545 900.573 221.326 901.096 220.886C901.619 220.447 901.88 219.848 901.88 219.091C901.88 218.189 901.619 217.481 901.096 216.966C900.573 216.443 899.85 216.182 898.926 216.182H893.244V221.545ZM893.244 213.864H897.835C898.554 213.864 899.172 213.765 899.687 213.568C900.202 213.364 900.596 213.076 900.869 212.705C901.149 212.326 901.289 211.879 901.289 211.364C901.289 210.629 900.982 210.053 900.369 209.636C899.755 209.212 898.91 209 897.835 209H893.244V213.864ZM912.843 224.409C911.737 224.409 910.734 224.201 909.832 223.784C908.931 223.36 908.215 222.75 907.684 221.955C907.154 221.152 906.889 220.182 906.889 219.045C906.889 218.045 907.086 217.235 907.48 216.614C907.874 215.985 908.4 215.492 909.059 215.136C909.718 214.78 910.446 214.515 911.241 214.341C912.044 214.159 912.851 214.015 913.662 213.909C914.722 213.773 915.582 213.67 916.241 213.602C916.908 213.527 917.393 213.402 917.696 213.227C918.006 213.053 918.162 212.75 918.162 212.318V212.227C918.162 211.106 917.855 210.235 917.241 209.614C916.635 208.992 915.715 208.682 914.48 208.682C913.199 208.682 912.196 208.962 911.468 209.523C910.741 210.083 910.23 210.682 909.934 211.318L907.389 210.409C907.843 209.348 908.449 208.523 909.207 207.932C909.972 207.333 910.806 206.917 911.707 206.682C912.616 206.439 913.51 206.318 914.389 206.318C914.949 206.318 915.593 206.386 916.321 206.523C917.056 206.652 917.764 206.92 918.446 207.33C919.135 207.739 919.707 208.356 920.162 209.182C920.616 210.008 920.843 211.114 920.843 212.5V224H918.162V221.636H918.025C917.843 222.015 917.54 222.42 917.116 222.852C916.692 223.284 916.128 223.652 915.423 223.955C914.718 224.258 913.859 224.409 912.843 224.409ZM913.253 222C914.313 222 915.207 221.792 915.934 221.375C916.669 220.958 917.222 220.42 917.593 219.761C917.972 219.102 918.162 218.409 918.162 217.682V215.227C918.048 215.364 917.798 215.489 917.412 215.602C917.033 215.708 916.593 215.803 916.093 215.886C915.601 215.962 915.12 216.03 914.65 216.091C914.188 216.144 913.813 216.189 913.525 216.227C912.828 216.318 912.177 216.466 911.571 216.67C910.972 216.867 910.487 217.167 910.116 217.568C909.753 217.962 909.571 218.5 909.571 219.182C909.571 220.114 909.915 220.818 910.605 221.295C911.302 221.765 912.184 222 913.253 222ZM936.46 214.045V216.545H926.824V214.045H936.46ZM927.46 206.545V224H924.778V206.545H927.46ZM938.506 206.545V224H935.824V206.545H938.506ZM945.125 220.045L953.534 206.545H956.625V224H953.943V210.5L945.58 224H942.443V206.545H945.125V220.045ZM967.895 224.364C966.213 224.364 964.763 223.992 963.543 223.25C962.331 222.5 961.395 221.455 960.736 220.114C960.085 218.765 959.759 217.197 959.759 215.409C959.759 213.621 960.085 212.045 960.736 210.682C961.395 209.311 962.312 208.242 963.486 207.477C964.668 206.705 966.047 206.318 967.622 206.318C968.532 206.318 969.429 206.47 970.316 206.773C971.202 207.076 972.009 207.568 972.736 208.25C973.463 208.924 974.043 209.818 974.475 210.932C974.907 212.045 975.122 213.417 975.122 215.045V216.182H961.668V213.864H972.395C972.395 212.879 972.198 212 971.804 211.227C971.418 210.455 970.865 209.845 970.145 209.398C969.433 208.951 968.592 208.727 967.622 208.727C966.554 208.727 965.63 208.992 964.85 209.523C964.077 210.045 963.482 210.727 963.066 211.568C962.649 212.409 962.441 213.311 962.441 214.273V215.818C962.441 217.136 962.668 218.254 963.122 219.17C963.585 220.08 964.225 220.773 965.043 221.25C965.861 221.72 966.812 221.955 967.895 221.955C968.6 221.955 969.236 221.856 969.804 221.659C970.38 221.455 970.876 221.152 971.293 220.75C971.71 220.341 972.032 219.833 972.259 219.227L974.85 219.955C974.577 220.833 974.119 221.606 973.475 222.273C972.831 222.932 972.035 223.447 971.088 223.818C970.141 224.182 969.077 224.364 967.895 224.364ZM982.242 220.818L982.06 222.045C981.931 222.909 981.734 223.833 981.469 224.818C981.212 225.803 980.943 226.731 980.663 227.602C980.382 228.473 980.151 229.167 979.969 229.682H977.924C978.022 229.197 978.151 228.557 978.31 227.761C978.469 226.966 978.628 226.076 978.788 225.091C978.954 224.114 979.091 223.114 979.197 222.091L979.333 220.818H982.242ZM1003.56 200.727H1006.38V217.364C1006.38 218.848 1006.11 220.11 1005.56 221.148C1005.02 222.186 1004.25 222.973 1003.26 223.511C1002.26 224.049 1001.09 224.318 999.745 224.318C998.473 224.318 997.34 224.087 996.348 223.625C995.355 223.155 994.575 222.489 994.007 221.625C993.439 220.761 993.154 219.735 993.154 218.545H995.927C995.927 219.205 996.09 219.78 996.416 220.273C996.749 220.758 997.204 221.136 997.779 221.409C998.355 221.682 999.01 221.818 999.745 221.818C1000.56 221.818 1001.25 221.648 1001.81 221.307C1002.38 220.966 1002.81 220.466 1003.11 219.807C1003.41 219.14 1003.56 218.326 1003.56 217.364V200.727ZM1017.8 224.364C1016.22 224.364 1014.84 223.989 1013.65 223.239C1012.47 222.489 1011.54 221.439 1010.88 220.091C1010.22 218.742 1009.89 217.167 1009.89 215.364C1009.89 213.545 1010.22 211.958 1010.88 210.602C1011.54 209.246 1012.47 208.193 1013.65 207.443C1014.84 206.693 1016.22 206.318 1017.8 206.318C1019.37 206.318 1020.75 206.693 1021.93 207.443C1023.12 208.193 1024.05 209.246 1024.71 210.602C1025.37 211.958 1025.71 213.545 1025.71 215.364C1025.71 217.167 1025.37 218.742 1024.71 220.091C1024.05 221.439 1023.12 222.489 1021.93 223.239C1020.75 223.989 1019.37 224.364 1017.8 224.364ZM1017.8 221.955C1018.99 221.955 1019.98 221.648 1020.75 221.034C1021.52 220.42 1022.1 219.614 1022.47 218.614C1022.84 217.614 1023.02 216.53 1023.02 215.364C1023.02 214.197 1022.84 213.11 1022.47 212.102C1022.1 211.095 1021.52 210.28 1020.75 209.659C1019.98 209.038 1018.99 208.727 1017.8 208.727C1016.6 208.727 1015.61 209.038 1014.84 209.659C1014.07 210.28 1013.5 211.095 1013.13 212.102C1012.76 213.11 1012.57 214.197 1012.57 215.364C1012.57 216.53 1012.76 217.614 1013.13 218.614C1013.5 219.614 1014.07 220.42 1014.84 221.034C1015.61 221.648 1016.6 221.955 1017.8 221.955ZM1029.2 224V200.727H1031.89V209.318H1032.11C1032.31 209.015 1032.58 208.629 1032.93 208.159C1033.29 207.682 1033.79 207.258 1034.45 206.886C1035.12 206.508 1036.02 206.318 1037.16 206.318C1038.63 206.318 1039.92 206.686 1041.04 207.42C1042.17 208.155 1043.04 209.197 1043.67 210.545C1044.3 211.894 1044.61 213.485 1044.61 215.318C1044.61 217.167 1044.3 218.769 1043.67 220.125C1043.04 221.473 1042.17 222.519 1041.06 223.261C1039.94 223.996 1038.66 224.364 1037.2 224.364C1036.08 224.364 1035.18 224.178 1034.51 223.807C1033.84 223.428 1033.32 223 1032.95 222.523C1032.59 222.038 1032.31 221.636 1032.11 221.318H1031.79V224H1029.2ZM1031.84 215.273C1031.84 216.591 1032.03 217.754 1032.42 218.761C1032.81 219.761 1033.37 220.545 1034.11 221.114C1034.85 221.674 1035.76 221.955 1036.84 221.955C1037.96 221.955 1038.9 221.659 1039.65 221.068C1040.4 220.47 1040.97 219.667 1041.35 218.659C1041.74 217.644 1041.93 216.515 1041.93 215.273C1041.93 214.045 1041.74 212.939 1041.36 211.955C1040.99 210.962 1040.43 210.178 1039.67 209.602C1038.92 209.019 1037.98 208.727 1036.84 208.727C1035.75 208.727 1034.83 209.004 1034.09 209.557C1033.35 210.102 1032.79 210.867 1032.41 211.852C1032.03 212.83 1031.84 213.97 1031.84 215.273ZM1068.16 210.455L1065.75 211.136C1065.6 210.735 1065.37 210.345 1065.08 209.966C1064.79 209.58 1064.4 209.261 1063.9 209.011C1063.4 208.761 1062.76 208.636 1061.98 208.636C1060.91 208.636 1060.02 208.883 1059.31 209.375C1058.6 209.86 1058.25 210.477 1058.25 211.227C1058.25 211.894 1058.49 212.42 1058.98 212.807C1059.46 213.193 1060.22 213.515 1061.25 213.773L1063.84 214.409C1065.4 214.788 1066.56 215.367 1067.33 216.148C1068.09 216.92 1068.48 217.917 1068.48 219.136C1068.48 220.136 1068.19 221.03 1067.61 221.818C1067.04 222.606 1066.25 223.227 1065.23 223.682C1064.2 224.136 1063.01 224.364 1061.66 224.364C1059.88 224.364 1058.4 223.977 1057.24 223.205C1056.07 222.432 1055.33 221.303 1055.02 219.818L1057.57 219.182C1057.81 220.121 1058.27 220.826 1058.94 221.295C1059.62 221.765 1060.51 222 1061.61 222C1062.86 222 1063.86 221.735 1064.59 221.205C1065.33 220.667 1065.7 220.023 1065.7 219.273C1065.7 218.667 1065.49 218.159 1065.07 217.75C1064.64 217.333 1063.99 217.023 1063.11 216.818L1060.2 216.136C1058.61 215.758 1057.43 215.17 1056.68 214.375C1055.94 213.572 1055.57 212.568 1055.57 211.364C1055.57 210.379 1055.84 209.508 1056.4 208.75C1056.96 207.992 1057.72 207.398 1058.68 206.966C1059.65 206.534 1060.75 206.318 1061.98 206.318C1063.7 206.318 1065.06 206.697 1066.04 207.455C1067.04 208.212 1067.74 209.212 1068.16 210.455ZM1079.14 206.545V208.818H1070.1V206.545H1079.14ZM1072.74 202.364H1075.42V219C1075.42 219.758 1075.53 220.326 1075.75 220.705C1075.97 221.076 1076.26 221.326 1076.61 221.455C1076.97 221.576 1077.34 221.636 1077.74 221.636C1078.03 221.636 1078.27 221.621 1078.46 221.591C1078.65 221.553 1078.8 221.523 1078.92 221.5L1079.46 223.909C1079.28 223.977 1079.03 224.045 1078.7 224.114C1078.38 224.189 1077.96 224.227 1077.46 224.227C1076.7 224.227 1075.96 224.064 1075.24 223.739C1074.52 223.413 1073.92 222.917 1073.44 222.25C1072.97 221.583 1072.74 220.742 1072.74 219.727V202.364ZM1089.12 224.364C1087.55 224.364 1086.16 223.989 1084.97 223.239C1083.79 222.489 1082.87 221.439 1082.2 220.091C1081.54 218.742 1081.21 217.167 1081.21 215.364C1081.21 213.545 1081.54 211.958 1082.2 210.602C1082.87 209.246 1083.79 208.193 1084.97 207.443C1086.16 206.693 1087.55 206.318 1089.12 206.318C1090.7 206.318 1092.08 206.693 1093.26 207.443C1094.45 208.193 1095.37 209.246 1096.03 210.602C1096.7 211.958 1097.03 213.545 1097.03 215.364C1097.03 217.167 1096.7 218.742 1096.03 220.091C1095.37 221.439 1094.45 222.489 1093.26 223.239C1092.08 223.989 1090.7 224.364 1089.12 224.364ZM1089.12 221.955C1090.32 221.955 1091.3 221.648 1092.08 221.034C1092.85 220.42 1093.42 219.614 1093.79 218.614C1094.16 217.614 1094.35 216.53 1094.35 215.364C1094.35 214.197 1094.16 213.11 1093.79 212.102C1093.42 211.095 1092.85 210.28 1092.08 209.659C1091.3 209.038 1090.32 208.727 1089.12 208.727C1087.92 208.727 1086.94 209.038 1086.17 209.659C1085.39 210.28 1084.82 211.095 1084.45 212.102C1084.08 213.11 1083.89 214.197 1083.89 215.364C1083.89 216.53 1084.08 217.614 1084.45 218.614C1084.82 219.614 1085.39 220.42 1086.17 221.034C1086.94 221.648 1087.92 221.955 1089.12 221.955ZM1100.16 224V206.545H1102.76V209.182H1102.94C1103.26 208.318 1103.83 207.617 1104.66 207.08C1105.5 206.542 1106.44 206.273 1107.48 206.273C1107.68 206.273 1107.93 206.277 1108.22 206.284C1108.52 206.292 1108.74 206.303 1108.89 206.318V209.045C1108.8 209.023 1108.59 208.989 1108.27 208.943C1107.95 208.89 1107.61 208.864 1107.26 208.864C1106.41 208.864 1105.65 209.042 1104.98 209.398C1104.32 209.746 1103.8 210.231 1103.41 210.852C1103.04 211.466 1102.85 212.167 1102.85 212.955V224H1100.16ZM1111.11 224V206.545H1113.79V224H1111.11ZM1112.47 203.636C1111.95 203.636 1111.5 203.458 1111.12 203.102C1110.75 202.746 1110.57 202.318 1110.57 201.818C1110.57 201.318 1110.75 200.89 1111.12 200.534C1111.5 200.178 1111.95 200 1112.47 200C1113 200 1113.44 200.178 1113.82 200.534C1114.19 200.89 1114.38 201.318 1114.38 201.818C1114.38 202.318 1114.19 202.746 1113.82 203.102C1113.44 203.458 1113 203.636 1112.47 203.636ZM1125.06 224.364C1123.38 224.364 1121.93 223.992 1120.71 223.25C1119.5 222.5 1118.56 221.455 1117.9 220.114C1117.25 218.765 1116.93 217.197 1116.93 215.409C1116.93 213.621 1117.25 212.045 1117.9 210.682C1118.56 209.311 1119.48 208.242 1120.65 207.477C1121.84 206.705 1123.21 206.318 1124.79 206.318C1125.7 206.318 1126.6 206.47 1127.48 206.773C1128.37 207.076 1129.18 207.568 1129.9 208.25C1130.63 208.924 1131.21 209.818 1131.64 210.932C1132.07 212.045 1132.29 213.417 1132.29 215.045V216.182H1118.84V213.864H1129.56C1129.56 212.879 1129.37 212 1128.97 211.227C1128.59 210.455 1128.03 209.845 1127.31 209.398C1126.6 208.951 1125.76 208.727 1124.79 208.727C1123.72 208.727 1122.8 208.992 1122.02 209.523C1121.24 210.045 1120.65 210.727 1120.23 211.568C1119.82 212.409 1119.61 213.311 1119.61 214.273V215.818C1119.61 217.136 1119.84 218.254 1120.29 219.17C1120.75 220.08 1121.39 220.773 1122.21 221.25C1123.03 221.72 1123.98 221.955 1125.06 221.955C1125.77 221.955 1126.4 221.856 1126.97 221.659C1127.55 221.455 1128.04 221.152 1128.46 220.75C1128.88 220.341 1129.2 219.833 1129.43 219.227L1132.02 219.955C1131.74 220.833 1131.29 221.606 1130.64 222.273C1130 222.932 1129.2 223.447 1128.26 223.818C1127.31 224.182 1126.24 224.364 1125.06 224.364ZM1147.77 210.455L1145.36 211.136C1145.21 210.735 1144.99 210.345 1144.69 209.966C1144.41 209.58 1144.01 209.261 1143.51 209.011C1143.01 208.761 1142.37 208.636 1141.59 208.636C1140.52 208.636 1139.63 208.883 1138.92 209.375C1138.22 209.86 1137.86 210.477 1137.86 211.227C1137.86 211.894 1138.11 212.42 1138.59 212.807C1139.08 213.193 1139.83 213.515 1140.86 213.773L1143.45 214.409C1145.02 214.788 1146.18 215.367 1146.94 216.148C1147.71 216.92 1148.09 217.917 1148.09 219.136C1148.09 220.136 1147.8 221.03 1147.23 221.818C1146.66 222.606 1145.86 223.227 1144.84 223.682C1143.82 224.136 1142.63 224.364 1141.27 224.364C1139.49 224.364 1138.02 223.977 1136.85 223.205C1135.69 222.432 1134.95 221.303 1134.64 219.818L1137.18 219.182C1137.42 220.121 1137.88 220.826 1138.56 221.295C1139.24 221.765 1140.13 222 1141.23 222C1142.48 222 1143.47 221.735 1144.2 221.205C1144.95 220.667 1145.32 220.023 1145.32 219.273C1145.32 218.667 1145.11 218.159 1144.68 217.75C1144.26 217.333 1143.61 217.023 1142.73 216.818L1139.82 216.136C1138.22 215.758 1137.05 215.17 1136.3 214.375C1135.55 213.572 1135.18 212.568 1135.18 211.364C1135.18 210.379 1135.46 209.508 1136.01 208.75C1136.57 207.992 1137.33 207.398 1138.3 206.966C1139.27 206.534 1140.36 206.318 1141.59 206.318C1143.32 206.318 1144.67 206.697 1145.66 207.455C1146.65 208.212 1147.36 209.212 1147.77 210.455ZM1155.17 220.818L1154.99 222.045C1154.86 222.909 1154.66 223.833 1154.4 224.818C1154.14 225.803 1153.87 226.731 1153.59 227.602C1153.31 228.473 1153.08 229.167 1152.9 229.682H1150.85C1150.95 229.197 1151.08 228.557 1151.24 227.761C1151.4 226.966 1151.55 226.076 1151.71 225.091C1151.88 224.114 1152.02 223.114 1152.12 222.091L1152.26 220.818H1155.17ZM1186.31 208H1183.49C1183.32 207.189 1183.03 206.477 1182.61 205.864C1182.21 205.25 1181.71 204.735 1181.11 204.318C1180.53 203.894 1179.88 203.576 1179.17 203.364C1178.46 203.152 1177.72 203.045 1176.94 203.045C1175.54 203.045 1174.26 203.402 1173.11 204.114C1171.98 204.826 1171.07 205.875 1170.4 207.261C1169.73 208.648 1169.4 210.348 1169.4 212.364C1169.4 214.379 1169.73 216.08 1170.4 217.466C1171.07 218.852 1171.98 219.902 1173.11 220.614C1174.26 221.326 1175.54 221.682 1176.94 221.682C1177.72 221.682 1178.46 221.576 1179.17 221.364C1179.88 221.152 1180.53 220.837 1181.11 220.42C1181.71 219.996 1182.21 219.477 1182.61 218.864C1183.03 218.242 1183.32 217.53 1183.49 216.727H1186.31C1186.1 217.917 1185.71 218.981 1185.15 219.92C1184.59 220.86 1183.89 221.659 1183.06 222.318C1182.22 222.97 1181.29 223.466 1180.25 223.807C1179.22 224.148 1178.12 224.318 1176.94 224.318C1174.96 224.318 1173.19 223.833 1171.65 222.864C1170.1 221.894 1168.89 220.515 1168 218.727C1167.11 216.939 1166.67 214.818 1166.67 212.364C1166.67 209.909 1167.11 207.788 1168 206C1168.89 204.212 1170.1 202.833 1171.65 201.864C1173.19 200.894 1174.96 200.409 1176.94 200.409C1178.12 200.409 1179.22 200.58 1180.25 200.92C1181.29 201.261 1182.22 201.761 1183.06 202.42C1183.89 203.072 1184.59 203.867 1185.15 204.807C1185.71 205.739 1186.1 206.803 1186.31 208ZM1198.81 200.727H1201.63V217.364C1201.63 218.848 1201.36 220.11 1200.81 221.148C1200.27 222.186 1199.5 222.973 1198.5 223.511C1197.51 224.049 1196.34 224.318 1194.99 224.318C1193.72 224.318 1192.59 224.087 1191.6 223.625C1190.6 223.155 1189.82 222.489 1189.25 221.625C1188.69 220.761 1188.4 219.735 1188.4 218.545H1191.17C1191.17 219.205 1191.34 219.78 1191.66 220.273C1192 220.758 1192.45 221.136 1193.03 221.409C1193.6 221.682 1194.26 221.818 1194.99 221.818C1195.8 221.818 1196.49 221.648 1197.06 221.307C1197.63 220.966 1198.06 220.466 1198.36 219.807C1198.66 219.14 1198.81 218.326 1198.81 217.364V200.727ZM1206.32 200.727H1209.68L1217.59 220.045H1217.86L1225.77 200.727H1229.14V224H1226.5V206.318H1226.27L1219 224H1216.45L1209.18 206.318H1208.95V224H1206.32V200.727Z" fill="white"/>
<circle cx="1214" cy="35" r="24" transform="rotate(-90 1214 35)" fill="white" fill-opacity="0.2"/>
<path d="M1216 27.5858L1208.59 35L1216 42.4142L1217.41 41L1211.41 35L1217.41 29L1216 27.5858Z" fill="white"/>
<circle cx="24" cy="24" r="24" transform="matrix(8.74228e-08 -1 -1 -8.74228e-08 1296 59)" fill="white" fill-opacity="0.2"/>
<path d="M1270 27.5858L1277.41 35L1270 42.4142L1268.59 41L1274.59 35L1268.59 29L1270 27.5858Z" fill="white"/>
<path d="M19.04 46.96C15.5413 46.96 12.5653 46.1813 10.112 44.624C7.68 43.0453 5.824 40.88 4.544 38.128C3.264 35.376 2.60267 32.24 2.56 28.72C2.60267 25.1147 3.27467 21.9467 4.576 19.216C5.89867 16.464 7.78667 14.32 10.24 12.784C12.6933 11.248 15.648 10.48 19.104 10.48C22.752 10.48 25.888 11.376 28.512 13.168C31.1573 14.96 32.928 17.4133 33.824 20.528L28.192 22.224C27.4667 20.2187 26.2827 18.6613 24.64 17.552C23.0187 16.4427 21.152 15.888 19.04 15.888C16.672 15.888 14.72 16.4427 13.184 17.552C11.648 18.64 10.5067 20.1547 9.76 22.096C9.01333 24.016 8.62933 26.224 8.608 28.72C8.65067 32.56 9.536 35.664 11.264 38.032C13.0133 40.3787 15.6053 41.552 19.04 41.552C21.3013 41.552 23.1787 41.04 24.672 40.016C26.1653 38.9707 27.296 37.4667 28.064 35.504L33.824 37.008C32.6293 40.2293 30.7627 42.6933 28.224 44.4C25.6853 46.1067 22.624 46.96 19.04 46.96ZM46.962 46V16.624H34.93V11.44H64.69V16.624H52.658V46H46.962ZM83.8035 46.96C80.4115 46.96 77.4462 46.2133 74.9075 44.72C72.3902 43.2053 70.4275 41.104 69.0195 38.416C67.6115 35.7067 66.9075 32.5493 66.9075 28.944C66.9075 25.168 67.6008 21.904 68.9875 19.152C70.3742 16.3787 72.3048 14.2453 74.7795 12.752C77.2755 11.2373 80.1982 10.48 83.5475 10.48C87.0248 10.48 89.9795 11.28 92.4115 12.88C94.8648 14.48 96.6995 16.7627 97.9155 19.728C99.1528 22.6933 99.6862 26.224 99.5155 30.32H93.7555V28.272C93.6915 24.0267 92.8275 20.8587 91.1635 18.768C89.4995 16.656 87.0248 15.6 83.7395 15.6C80.2195 15.6 77.5422 16.7307 75.7075 18.992C73.8728 21.2533 72.9555 24.496 72.9555 28.72C72.9555 32.7947 73.8728 35.952 75.7075 38.192C77.5422 40.432 80.1555 41.552 83.5475 41.552C85.8302 41.552 87.8142 41.0293 89.4995 39.984C91.1848 38.9387 92.5075 37.4347 93.4675 35.472L98.9395 37.36C97.5955 40.4107 95.5688 42.7787 92.8595 44.464C90.1715 46.128 87.1528 46.96 83.8035 46.96ZM71.0355 30.32V25.744H96.5715V30.32H71.0355ZM104.688 46L104.72 11.44H110.48V28.08L124.976 11.44H132.368L117.104 28.72L134.16 46H126.192L110.48 29.36V46H104.688ZM163.713 11.44V46H158.209V20.528L140.097 46H135.393V11.44H140.897V36.56L159.041 11.44H163.713ZM4.448 110V75.44H32.768V110H27.072V80.848H10.144V110H4.448ZM55.682 110.96C52.4393 110.96 49.7087 110.16 47.49 108.56C45.2713 106.939 43.586 104.752 42.434 102C41.3033 99.2267 40.738 96.1227 40.738 92.688C40.738 89.2107 41.3033 86.096 42.434 83.344C43.586 80.592 45.2713 78.4267 47.49 76.848C49.73 75.2693 52.4713 74.48 55.714 74.48C58.914 74.48 61.666 75.28 63.97 76.88C66.2953 78.4587 68.0767 80.624 69.314 83.376C70.5513 86.128 71.17 89.232 71.17 92.688C71.17 96.144 70.5513 99.248 69.314 102C68.0767 104.752 66.2953 106.939 63.97 108.56C61.666 110.16 58.9033 110.96 55.682 110.96ZM39.778 125.36V75.44H44.866V100.88H45.506V125.36H39.778ZM54.978 105.744C57.2607 105.744 59.1487 105.168 60.642 104.016C62.1353 102.864 63.2553 101.307 64.002 99.344C64.7487 97.36 65.122 95.1413 65.122 92.688C65.122 90.256 64.7487 88.0587 64.002 86.096C63.2767 84.1333 62.146 82.576 60.61 81.424C59.0953 80.272 57.1647 79.696 54.818 79.696C52.578 79.696 50.722 80.2507 49.25 81.36C47.778 82.448 46.6793 83.9733 45.954 85.936C45.2287 87.8773 44.866 90.128 44.866 92.688C44.866 95.2053 45.218 97.456 45.922 99.44C46.6473 101.403 47.7567 102.949 49.25 104.08C50.7433 105.189 52.6527 105.744 54.978 105.744ZM90.985 110.96C87.5503 110.96 84.585 110.181 82.089 108.624C79.6143 107.067 77.705 104.912 76.361 102.16C75.017 99.408 74.345 96.2507 74.345 92.688C74.345 89.0613 75.0277 85.8827 76.393 83.152C77.7583 80.4213 79.689 78.2987 82.185 76.784C84.681 75.248 87.6143 74.48 90.985 74.48C94.441 74.48 97.417 75.2587 99.913 76.816C102.409 78.352 104.318 80.496 105.641 83.248C106.985 85.9787 107.657 89.1253 107.657 92.688C107.657 96.2933 106.985 99.472 105.641 102.224C104.297 104.955 102.377 107.099 99.881 108.656C97.385 110.192 94.4197 110.96 90.985 110.96ZM90.985 105.552C94.569 105.552 97.2357 104.357 98.985 101.968C100.734 99.5787 101.609 96.4853 101.609 92.688C101.609 88.784 100.724 85.68 98.953 83.376C97.1823 81.0507 94.5263 79.888 90.985 79.888C88.5743 79.888 86.5903 80.432 85.033 81.52C83.4757 82.608 82.313 84.112 81.545 86.032C80.777 87.952 80.393 90.1707 80.393 92.688C80.393 96.5707 81.289 99.6853 83.081 102.032C84.873 104.379 87.5077 105.552 90.985 105.552ZM142.222 116.4V110H112.75V75.44H118.446V104.592H135.374V75.44H141.07V104.816H147.918V116.4H142.222ZM166.089 110.96C162.697 110.96 159.731 110.213 157.193 108.72C154.675 107.205 152.713 105.104 151.305 102.416C149.897 99.7067 149.193 96.5493 149.193 92.944C149.193 89.168 149.886 85.904 151.273 83.152C152.659 80.3787 154.59 78.2453 157.065 76.752C159.561 75.2373 162.483 74.48 165.833 74.48C169.31 74.48 172.265 75.28 174.697 76.88C177.15 78.48 178.985 80.7627 180.201 83.728C181.438 86.6933 181.971 90.224 181.801 94.32H176.041V92.272C175.977 88.0267 175.113 84.8587 173.449 82.768C171.785 80.656 169.31 79.6 166.025 79.6C162.505 79.6 159.827 80.7307 157.993 82.992C156.158 85.2533 155.241 88.496 155.241 92.72C155.241 96.7947 156.158 99.952 157.993 102.192C159.827 104.432 162.441 105.552 165.833 105.552C168.115 105.552 170.099 105.029 171.785 103.984C173.47 102.939 174.793 101.435 175.753 99.472L181.225 101.36C179.881 104.411 177.854 106.779 175.145 108.464C172.457 110.128 169.438 110.96 166.089 110.96ZM153.321 94.32V89.744H178.857V94.32H153.321ZM201.565 110.96C198.066 110.96 195.09 110.181 192.637 108.624C190.205 107.045 188.349 104.88 187.069 102.128C185.789 99.376 185.128 96.24 185.085 92.72C185.128 89.1147 185.8 85.9467 187.101 83.216C188.424 80.464 190.312 78.32 192.765 76.784C195.218 75.248 198.173 74.48 201.629 74.48C205.277 74.48 208.413 75.376 211.037 77.168C213.682 78.96 215.453 81.4133 216.349 84.528L210.717 86.224C209.992 84.2187 208.808 82.6613 207.165 81.552C205.544 80.4427 203.677 79.888 201.565 79.888C199.197 79.888 197.245 80.4427 195.709 81.552C194.173 82.64 193.032 84.1547 192.285 86.096C191.538 88.016 191.154 90.224 191.133 92.72C191.176 96.56 192.061 99.664 193.789 102.032C195.538 104.379 198.13 105.552 201.565 105.552C203.826 105.552 205.704 105.04 207.197 104.016C208.69 102.971 209.821 101.467 210.589 99.504L216.349 101.008C215.154 104.229 213.288 106.693 210.749 108.4C208.21 110.107 205.149 110.96 201.565 110.96ZM234.582 110.96C231.084 110.96 228.108 110.181 225.654 108.624C223.222 107.045 221.366 104.88 220.086 102.128C218.806 99.376 218.145 96.24 218.102 92.72C218.145 89.1147 218.817 85.9467 220.118 83.216C221.441 80.464 223.329 78.32 225.782 76.784C228.236 75.248 231.19 74.48 234.646 74.48C238.294 74.48 241.43 75.376 244.054 77.168C246.7 78.96 248.47 81.4133 249.366 84.528L243.734 86.224C243.009 84.2187 241.825 82.6613 240.182 81.552C238.561 80.4427 236.694 79.888 234.582 79.888C232.214 79.888 230.262 80.4427 228.726 81.552C227.19 82.64 226.049 84.1547 225.302 86.096C224.556 88.016 224.172 90.224 224.15 92.72C224.193 96.56 225.078 99.664 226.806 102.032C228.556 104.379 231.148 105.552 234.582 105.552C236.844 105.552 238.721 105.04 240.214 104.016C241.708 102.971 242.838 101.467 243.606 99.504L249.366 101.008C248.172 104.229 246.305 106.693 243.766 108.4C241.228 110.107 238.166 110.96 234.582 110.96ZM267.76 110.96C264.325 110.96 261.36 110.181 258.864 108.624C256.389 107.067 254.48 104.912 253.136 102.16C251.792 99.408 251.12 96.2507 251.12 92.688C251.12 89.0613 251.803 85.8827 253.168 83.152C254.533 80.4213 256.464 78.2987 258.96 76.784C261.456 75.248 264.389 74.48 267.76 74.48C271.216 74.48 274.192 75.2587 276.688 76.816C279.184 78.352 281.093 80.496 282.416 83.248C283.76 85.9787 284.432 89.1253 284.432 92.688C284.432 96.2933 283.76 99.472 282.416 102.224C281.072 104.955 279.152 107.099 276.656 108.656C274.16 110.192 271.195 110.96 267.76 110.96ZM267.76 105.552C271.344 105.552 274.011 104.357 275.76 101.968C277.509 99.5787 278.384 96.4853 278.384 92.688C278.384 88.784 277.499 85.68 275.728 83.376C273.957 81.0507 271.301 79.888 267.76 79.888C265.349 79.888 263.365 80.432 261.808 81.52C260.251 82.608 259.088 84.112 258.32 86.032C257.552 87.952 257.168 90.1707 257.168 92.688C257.168 96.5707 258.064 99.6853 259.856 102.032C261.648 104.379 264.283 105.552 267.76 105.552ZM289.526 110V75.44H304.246C305.12 75.44 306.059 75.4933 307.062 75.6C308.086 75.6853 309.014 75.8453 309.846 76.08C311.702 76.5707 313.227 77.584 314.422 79.12C315.638 80.6347 316.246 82.5547 316.246 84.88C316.246 86.1813 316.043 87.312 315.638 88.272C315.254 89.232 314.699 90.064 313.974 90.768C313.654 91.088 313.302 91.376 312.918 91.632C312.534 91.888 312.15 92.0907 311.766 92.24C312.512 92.368 313.27 92.656 314.038 93.104C315.254 93.7653 316.203 94.6933 316.886 95.888C317.59 97.0827 317.942 98.608 317.942 100.464C317.942 102.811 317.376 104.752 316.246 106.288C315.115 107.803 313.558 108.848 311.574 109.424C310.742 109.659 309.824 109.819 308.822 109.904C307.819 109.968 306.848 110 305.91 110H289.526ZM295.286 105.36H305.59C306.038 105.36 306.571 105.317 307.19 105.232C307.83 105.147 308.395 105.04 308.886 104.912C309.995 104.592 310.795 103.995 311.286 103.12C311.798 102.245 312.054 101.296 312.054 100.272C312.054 98.9067 311.67 97.7973 310.902 96.944C310.155 96.0907 309.163 95.5573 307.926 95.344C307.478 95.216 306.987 95.1413 306.454 95.12C305.942 95.0987 305.483 95.088 305.078 95.088H295.286V105.36ZM295.286 90.384H303.862C304.459 90.384 305.088 90.352 305.75 90.288C306.411 90.2027 306.987 90.064 307.478 89.872C308.459 89.5093 309.174 88.912 309.622 88.08C310.091 87.2267 310.326 86.2987 310.326 85.296C310.326 84.1867 310.07 83.216 309.558 82.384C309.067 81.5307 308.31 80.944 307.286 80.624C306.603 80.368 305.835 80.2293 304.982 80.208C304.15 80.1653 303.616 80.144 303.382 80.144H295.286V90.384Z" fill="white"/>
<path fill-rule="evenodd" clip-rule="evenodd" d="M539.904 95.8179L536.168 117.407H560.234L526.095 156.182L529.832 134.593H505.766L539.904 95.8179Z" fill="white"/>
</svg>
