<svg width="632" height="632" viewBox="0 0 632 632" fill="none" xmlns="http://www.w3.org/2000/svg">
<rect width="632" height="632" rx="32" fill="#F84D4E"/>
<rect width="632" height="632" rx="32" fill="white"/>
<path d="M43.78 99V60.12H48.154L62.842 91.089L77.449 60.12H81.877V98.973H77.314V70.677L64.111 99H61.546L48.343 70.677V99H43.78ZM96.237 99.81C94.059 99.81 92.232 99.414 90.756 98.622C89.298 97.812 88.191 96.75 87.435 95.436C86.697 94.122 86.328 92.682 86.328 91.116C86.328 89.586 86.616 88.263 87.192 87.147C87.786 86.013 88.614 85.077 89.676 84.339C90.738 83.583 92.007 82.989 93.483 82.557C94.869 82.179 96.417 81.855 98.127 81.585C99.855 81.297 101.601 81.036 103.365 80.802C105.129 80.568 106.776 80.343 108.306 80.127L106.578 81.126C106.632 78.534 106.11 76.617 105.012 75.375C103.932 74.133 102.06 73.512 99.396 73.512C97.632 73.512 96.084 73.917 94.752 74.727C93.438 75.519 92.511 76.815 91.971 78.615L87.408 77.238C88.11 74.682 89.469 72.675 91.485 71.217C93.501 69.759 96.156 69.03 99.45 69.03C102.096 69.03 104.364 69.507 106.254 70.461C108.162 71.397 109.53 72.819 110.358 74.727C110.772 75.627 111.033 76.608 111.141 77.67C111.249 78.714 111.303 79.812 111.303 80.964V99H107.037V92.007L108.036 92.655C106.938 95.013 105.399 96.795 103.419 98.001C101.457 99.207 99.063 99.81 96.237 99.81ZM96.966 95.787C98.694 95.787 100.188 95.481 101.448 94.869C102.726 94.239 103.752 93.42 104.526 92.412C105.3 91.386 105.804 90.27 106.038 89.064C106.308 88.164 106.452 87.165 106.47 86.067C106.506 84.951 106.524 84.096 106.524 83.502L108.198 84.231C106.632 84.447 105.093 84.654 103.581 84.852C102.069 85.05 100.638 85.266 99.288 85.5C97.938 85.716 96.723 85.977 95.643 86.283C94.851 86.535 94.104 86.859 93.402 87.255C92.718 87.651 92.16 88.164 91.728 88.794C91.314 89.406 91.107 90.171 91.107 91.089C91.107 91.881 91.305 92.637 91.701 93.357C92.115 94.077 92.745 94.662 93.591 95.112C94.455 95.562 95.58 95.787 96.966 95.787ZM117.363 64.683V59.715H122.169V64.683H117.363ZM117.363 99V69.84H122.169V99H117.363ZM137.059 99.81C134.881 99.81 133.054 99.414 131.578 98.622C130.12 97.812 129.013 96.75 128.257 95.436C127.519 94.122 127.15 92.682 127.15 91.116C127.15 89.586 127.438 88.263 128.014 87.147C128.608 86.013 129.436 85.077 130.498 84.339C131.56 83.583 132.829 82.989 134.305 82.557C135.691 82.179 137.239 81.855 138.949 81.585C140.677 81.297 142.423 81.036 144.187 80.802C145.951 80.568 147.598 80.343 149.128 80.127L147.4 81.126C147.454 78.534 146.932 76.617 145.834 75.375C144.754 74.133 142.882 73.512 140.218 73.512C138.454 73.512 136.906 73.917 135.574 74.727C134.26 75.519 133.333 76.815 132.793 78.615L128.23 77.238C128.932 74.682 130.291 72.675 132.307 71.217C134.323 69.759 136.978 69.03 140.272 69.03C142.918 69.03 145.186 69.507 147.076 70.461C148.984 71.397 150.352 72.819 151.18 74.727C151.594 75.627 151.855 76.608 151.963 77.67C152.071 78.714 152.125 79.812 152.125 80.964V99H147.859V92.007L148.858 92.655C147.76 95.013 146.221 96.795 144.241 98.001C142.279 99.207 139.885 99.81 137.059 99.81ZM137.788 95.787C139.516 95.787 141.01 95.481 142.27 94.869C143.548 94.239 144.574 93.42 145.348 92.412C146.122 91.386 146.626 90.27 146.86 89.064C147.13 88.164 147.274 87.165 147.292 86.067C147.328 84.951 147.346 84.096 147.346 83.502L149.02 84.231C147.454 84.447 145.915 84.654 144.403 84.852C142.891 85.05 141.46 85.266 140.11 85.5C138.76 85.716 137.545 85.977 136.465 86.283C135.673 86.535 134.926 86.859 134.224 87.255C133.54 87.651 132.982 88.164 132.55 88.794C132.136 89.406 131.929 90.171 131.929 91.089C131.929 91.881 132.127 92.637 132.523 93.357C132.937 94.077 133.567 94.662 134.413 95.112C135.277 95.562 136.402 95.787 137.788 95.787Z" fill="#010C5C"/>
<path d="M41.2784 137.364H43.4091L47.1136 146.409H47.25L50.9545 137.364H53.0852V149H51.4148V140.58H51.3068L47.875 148.983H46.4886L43.0568 140.574H42.9489V149H41.2784V137.364ZM57.5612 149.193C57.0082 149.193 56.5082 149.091 56.0612 148.886C55.6142 148.678 55.2601 148.377 54.9987 147.983C54.7411 147.589 54.6123 147.106 54.6123 146.534C54.6123 146.042 54.707 145.636 54.8964 145.318C55.0858 145 55.3415 144.748 55.6635 144.562C55.9854 144.377 56.3453 144.237 56.743 144.142C57.1407 144.047 57.546 143.975 57.9589 143.926C58.4816 143.866 58.9059 143.816 59.2316 143.778C59.5574 143.737 59.7941 143.67 59.9419 143.58C60.0896 143.489 60.1635 143.341 60.1635 143.136V143.097C60.1635 142.6 60.0233 142.216 59.743 141.943C59.4665 141.67 59.0536 141.534 58.5044 141.534C57.9324 141.534 57.4816 141.661 57.1521 141.915C56.8263 142.165 56.601 142.443 56.476 142.75L54.8794 142.386C55.0688 141.856 55.3453 141.428 55.7089 141.102C56.0763 140.773 56.4987 140.534 56.976 140.386C57.4532 140.235 57.9551 140.159 58.4816 140.159C58.8301 140.159 59.1995 140.201 59.5896 140.284C59.9835 140.364 60.351 140.511 60.6919 140.727C61.0366 140.943 61.3188 141.252 61.5385 141.653C61.7582 142.051 61.868 142.568 61.868 143.205V149H60.2089V147.807H60.1407C60.0309 148.027 59.8661 148.242 59.6464 148.455C59.4267 148.667 59.1445 148.843 58.7998 148.983C58.4551 149.123 58.0423 149.193 57.5612 149.193ZM57.9305 147.83C58.4002 147.83 58.8017 147.737 59.1351 147.551C59.4722 147.366 59.7279 147.123 59.9021 146.824C60.0801 146.521 60.1691 146.197 60.1691 145.852V144.727C60.1085 144.788 59.9911 144.845 59.8169 144.898C59.6464 144.947 59.4513 144.991 59.2316 145.028C59.012 145.062 58.7979 145.095 58.5896 145.125C58.3813 145.152 58.207 145.174 58.0669 145.193C57.7373 145.235 57.4362 145.305 57.1635 145.403C56.8945 145.502 56.6786 145.644 56.5157 145.83C56.3566 146.011 56.2771 146.254 56.2771 146.557C56.2771 146.977 56.4324 147.295 56.743 147.511C57.0536 147.723 57.4495 147.83 57.9305 147.83ZM63.6508 149V140.273H65.3497V149H63.6508ZM64.5088 138.926C64.2133 138.926 63.9595 138.828 63.7474 138.631C63.5391 138.43 63.4349 138.191 63.4349 137.915C63.4349 137.634 63.5391 137.396 63.7474 137.199C63.9595 136.998 64.2133 136.898 64.5088 136.898C64.8042 136.898 65.0561 136.998 65.2644 137.199C65.4766 137.396 65.5826 137.634 65.5826 137.915C65.5826 138.191 65.4766 138.43 65.2644 138.631C65.0561 138.828 64.8042 138.926 64.5088 138.926ZM69.6949 149.193C69.1419 149.193 68.6419 149.091 68.1949 148.886C67.748 148.678 67.3938 148.377 67.1324 147.983C66.8749 147.589 66.7461 147.106 66.7461 146.534C66.7461 146.042 66.8408 145.636 67.0302 145.318C67.2196 145 67.4752 144.748 67.7972 144.562C68.1192 144.377 68.479 144.237 68.8768 144.142C69.2745 144.047 69.6798 143.975 70.0927 143.926C70.6154 143.866 71.0396 143.816 71.3654 143.778C71.6912 143.737 71.9279 143.67 72.0756 143.58C72.2234 143.489 72.2972 143.341 72.2972 143.136V143.097C72.2972 142.6 72.1571 142.216 71.8768 141.943C71.6002 141.67 71.1874 141.534 70.6381 141.534C70.0662 141.534 69.6154 141.661 69.2859 141.915C68.9601 142.165 68.7347 142.443 68.6097 142.75L67.0131 142.386C67.2025 141.856 67.479 141.428 67.8427 141.102C68.2101 140.773 68.6324 140.534 69.1097 140.386C69.587 140.235 70.0889 140.159 70.6154 140.159C70.9639 140.159 71.3332 140.201 71.7234 140.284C72.1173 140.364 72.4847 140.511 72.8256 140.727C73.1703 140.943 73.4525 141.252 73.6722 141.653C73.8919 142.051 74.0018 142.568 74.0018 143.205V149H72.3427V147.807H72.2745C72.1646 148.027 71.9999 148.242 71.7802 148.455C71.5605 148.667 71.2783 148.843 70.9336 148.983C70.5889 149.123 70.176 149.193 69.6949 149.193ZM70.0643 147.83C70.534 147.83 70.9355 147.737 71.2688 147.551C71.6059 147.366 71.8616 147.123 72.0359 146.824C72.2139 146.521 72.3029 146.197 72.3029 145.852V144.727C72.2423 144.788 72.1249 144.845 71.9506 144.898C71.7802 144.947 71.5851 144.991 71.3654 145.028C71.1457 145.062 70.9317 145.095 70.7234 145.125C70.515 145.152 70.3408 145.174 70.2006 145.193C69.8711 145.235 69.5699 145.305 69.2972 145.403C69.0283 145.502 68.8124 145.644 68.6495 145.83C68.4904 146.011 68.4109 146.254 68.4109 146.557C68.4109 146.977 68.5662 147.295 68.8768 147.511C69.1874 147.723 69.5832 147.83 70.0643 147.83ZM79.5389 149V140.273H81.2378V149H79.5389ZM80.3969 138.926C80.1014 138.926 79.8476 138.828 79.6355 138.631C79.4272 138.43 79.323 138.191 79.323 137.915C79.323 137.634 79.4272 137.396 79.6355 137.199C79.8476 136.998 80.1014 136.898 80.3969 136.898C80.6923 136.898 80.9442 136.998 81.1526 137.199C81.3647 137.396 81.4707 137.634 81.4707 137.915C81.4707 138.191 81.3647 138.43 81.1526 138.631C80.9442 138.828 80.6923 138.926 80.3969 138.926ZM89.5831 142.403L88.0433 142.676C87.9789 142.479 87.8766 142.292 87.7365 142.114C87.6001 141.936 87.4145 141.79 87.1797 141.676C86.9448 141.562 86.6512 141.506 86.299 141.506C85.8179 141.506 85.4164 141.614 85.0944 141.83C84.7725 142.042 84.6115 142.316 84.6115 142.653C84.6115 142.945 84.7194 143.18 84.9353 143.358C85.1512 143.536 85.4997 143.682 85.9808 143.795L87.3672 144.114C88.1702 144.299 88.7687 144.585 89.1626 144.972C89.5566 145.358 89.7535 145.86 89.7535 146.477C89.7535 147 89.602 147.466 89.299 147.875C88.9997 148.28 88.5812 148.598 88.0433 148.83C87.5092 149.061 86.8899 149.176 86.1853 149.176C85.2081 149.176 84.4107 148.968 83.7933 148.551C83.1759 148.131 82.7971 147.534 82.6569 146.761L84.299 146.511C84.4012 146.939 84.6115 147.263 84.9297 147.483C85.2478 147.699 85.6626 147.807 86.174 147.807C86.7308 147.807 87.1759 147.691 87.5092 147.46C87.8425 147.225 88.0092 146.939 88.0092 146.602C88.0092 146.33 87.9069 146.1 87.7024 145.915C87.5016 145.729 87.1929 145.589 86.7762 145.494L85.299 145.17C84.4846 144.985 83.8823 144.689 83.4922 144.284C83.1058 143.879 82.9126 143.366 82.9126 142.744C82.9126 142.229 83.0566 141.778 83.3444 141.392C83.6323 141.006 84.03 140.705 84.5376 140.489C85.0452 140.269 85.6266 140.159 86.2819 140.159C87.2251 140.159 87.9675 140.364 88.5092 140.773C89.0509 141.178 89.4088 141.722 89.5831 142.403ZM97.4356 149.193C96.8825 149.193 96.3825 149.091 95.9356 148.886C95.4886 148.678 95.1344 148.377 94.8731 147.983C94.6155 147.589 94.4867 147.106 94.4867 146.534C94.4867 146.042 94.5814 145.636 94.7708 145.318C94.9602 145 95.2159 144.748 95.5378 144.562C95.8598 144.377 96.2197 144.237 96.6174 144.142C97.0151 144.047 97.4204 143.975 97.8333 143.926C98.356 143.866 98.7803 143.816 99.106 143.778C99.4318 143.737 99.6685 143.67 99.8162 143.58C99.964 143.489 100.038 143.341 100.038 143.136V143.097C100.038 142.6 99.8977 142.216 99.6174 141.943C99.3409 141.67 98.928 141.534 98.3787 141.534C97.8068 141.534 97.356 141.661 97.0265 141.915C96.7007 142.165 96.4753 142.443 96.3503 142.75L94.7537 142.386C94.9431 141.856 95.2197 141.428 95.5833 141.102C95.9507 140.773 96.3731 140.534 96.8503 140.386C97.3276 140.235 97.8295 140.159 98.356 140.159C98.7045 140.159 99.0738 140.201 99.464 140.284C99.8579 140.364 100.225 140.511 100.566 140.727C100.911 140.943 101.193 141.252 101.413 141.653C101.633 142.051 101.742 142.568 101.742 143.205V149H100.083V147.807H100.015C99.9053 148.027 99.7405 148.242 99.5208 148.455C99.3011 148.667 99.0189 148.843 98.6742 148.983C98.3295 149.123 97.9166 149.193 97.4356 149.193ZM97.8049 147.83C98.2746 147.83 98.6761 147.737 99.0094 147.551C99.3466 147.366 99.6022 147.123 99.7765 146.824C99.9545 146.521 100.044 146.197 100.044 145.852V144.727C99.9829 144.788 99.8655 144.845 99.6912 144.898C99.5208 144.947 99.3257 144.991 99.106 145.028C98.8863 145.062 98.6723 145.095 98.464 145.125C98.2556 145.152 98.0814 145.174 97.9412 145.193C97.6117 145.235 97.3106 145.305 97.0378 145.403C96.7689 145.502 96.553 145.644 96.3901 145.83C96.231 146.011 96.1515 146.254 96.1515 146.557C96.1515 146.977 96.3068 147.295 96.6174 147.511C96.928 147.723 97.3238 147.83 97.8049 147.83ZM108.978 143.818V149H107.28V140.273H108.91V141.693H109.018C109.219 141.231 109.533 140.86 109.961 140.58C110.393 140.299 110.937 140.159 111.592 140.159C112.187 140.159 112.708 140.284 113.155 140.534C113.602 140.78 113.948 141.148 114.194 141.636C114.441 142.125 114.564 142.729 114.564 143.449V149H112.865V143.653C112.865 143.021 112.7 142.527 112.37 142.17C112.041 141.811 111.588 141.631 111.012 141.631C110.619 141.631 110.268 141.716 109.961 141.886C109.658 142.057 109.418 142.307 109.24 142.636C109.066 142.962 108.978 143.356 108.978 143.818ZM120.123 149.176C119.264 149.176 118.523 148.992 117.902 148.625C117.284 148.254 116.807 147.733 116.47 147.062C116.137 146.388 115.97 145.598 115.97 144.693C115.97 143.799 116.137 143.011 116.47 142.33C116.807 141.648 117.277 141.116 117.879 140.733C118.485 140.35 119.193 140.159 120.004 140.159C120.497 140.159 120.974 140.241 121.436 140.403C121.898 140.566 122.313 140.822 122.68 141.17C123.048 141.519 123.337 141.972 123.55 142.528C123.762 143.081 123.868 143.754 123.868 144.545V145.148H116.93V143.875H122.203C122.203 143.428 122.112 143.032 121.93 142.688C121.748 142.339 121.493 142.064 121.163 141.864C120.837 141.663 120.455 141.562 120.015 141.562C119.538 141.562 119.122 141.68 118.765 141.915C118.413 142.146 118.14 142.449 117.947 142.824C117.758 143.195 117.663 143.598 117.663 144.034V145.028C117.663 145.612 117.765 146.108 117.97 146.517C118.178 146.926 118.468 147.239 118.839 147.455C119.211 147.667 119.644 147.773 120.14 147.773C120.462 147.773 120.756 147.727 121.021 147.636C121.286 147.542 121.515 147.402 121.709 147.216C121.902 147.03 122.05 146.801 122.152 146.528L123.76 146.818C123.631 147.292 123.4 147.706 123.067 148.062C122.737 148.415 122.322 148.689 121.822 148.886C121.326 149.08 120.76 149.176 120.123 149.176ZM127.149 149L124.581 140.273H126.337L128.047 146.682H128.132L129.848 140.273H131.604L133.308 146.653H133.393L135.092 140.273H136.848L134.285 149H132.552L130.78 142.699H130.649L128.876 149H127.149ZM145.808 140.273V141.636H141.041V140.273H145.808ZM142.32 138.182H144.019V146.438C144.019 146.767 144.068 147.015 144.166 147.182C144.265 147.345 144.392 147.456 144.547 147.517C144.706 147.574 144.878 147.602 145.064 147.602C145.2 147.602 145.32 147.593 145.422 147.574C145.524 147.555 145.604 147.54 145.661 147.528L145.967 148.932C145.869 148.97 145.729 149.008 145.547 149.045C145.365 149.087 145.138 149.11 144.865 149.114C144.418 149.121 144.002 149.042 143.615 148.875C143.229 148.708 142.916 148.451 142.678 148.102C142.439 147.754 142.32 147.316 142.32 146.79V138.182ZM150.875 149.176C150.015 149.176 149.275 148.992 148.654 148.625C148.036 148.254 147.559 147.733 147.222 147.062C146.889 146.388 146.722 145.598 146.722 144.693C146.722 143.799 146.889 143.011 147.222 142.33C147.559 141.648 148.029 141.116 148.631 140.733C149.237 140.35 149.945 140.159 150.756 140.159C151.248 140.159 151.726 140.241 152.188 140.403C152.65 140.566 153.065 140.822 153.432 141.17C153.8 141.519 154.089 141.972 154.301 142.528C154.514 143.081 154.62 143.754 154.62 144.545V145.148H147.682V143.875H152.955C152.955 143.428 152.864 143.032 152.682 142.688C152.5 142.339 152.245 142.064 151.915 141.864C151.589 141.663 151.207 141.562 150.767 141.562C150.29 141.562 149.873 141.68 149.517 141.915C149.165 142.146 148.892 142.449 148.699 142.824C148.51 143.195 148.415 143.598 148.415 144.034V145.028C148.415 145.612 148.517 146.108 148.722 146.517C148.93 146.926 149.22 147.239 149.591 147.455C149.962 147.667 150.396 147.773 150.892 147.773C151.214 147.773 151.508 147.727 151.773 147.636C152.038 147.542 152.267 147.402 152.461 147.216C152.654 147.03 152.801 146.801 152.904 146.528L154.512 146.818C154.383 147.292 154.152 147.706 153.818 148.062C153.489 148.415 153.074 148.689 152.574 148.886C152.078 149.08 151.512 149.176 150.875 149.176ZM159.701 149.176C158.856 149.176 158.129 148.985 157.519 148.602C156.913 148.216 156.447 147.684 156.121 147.006C155.795 146.328 155.632 145.551 155.632 144.676C155.632 143.79 155.799 143.008 156.132 142.33C156.466 141.648 156.936 141.116 157.542 140.733C158.148 140.35 158.862 140.159 159.684 140.159C160.347 140.159 160.937 140.282 161.456 140.528C161.975 140.771 162.394 141.112 162.712 141.551C163.034 141.991 163.225 142.504 163.286 143.091H161.632C161.542 142.682 161.333 142.33 161.007 142.034C160.686 141.739 160.254 141.591 159.712 141.591C159.239 141.591 158.824 141.716 158.468 141.966C158.115 142.212 157.841 142.564 157.644 143.023C157.447 143.477 157.348 144.015 157.348 144.636C157.348 145.273 157.445 145.822 157.638 146.284C157.831 146.746 158.104 147.104 158.456 147.358C158.812 147.612 159.231 147.739 159.712 147.739C160.034 147.739 160.326 147.68 160.587 147.562C160.852 147.441 161.074 147.269 161.252 147.045C161.434 146.822 161.561 146.553 161.632 146.239H163.286C163.225 146.803 163.042 147.307 162.735 147.75C162.428 148.193 162.017 148.542 161.502 148.795C160.99 149.049 160.39 149.176 159.701 149.176ZM166.322 143.818V149H164.623V137.364H166.299V141.693H166.407C166.611 141.223 166.924 140.85 167.344 140.574C167.765 140.297 168.314 140.159 168.992 140.159C169.59 140.159 170.113 140.282 170.56 140.528C171.011 140.775 171.359 141.142 171.606 141.631C171.856 142.116 171.981 142.722 171.981 143.449V149H170.282V143.653C170.282 143.013 170.117 142.517 169.787 142.165C169.458 141.809 169 141.631 168.412 141.631C168.011 141.631 167.651 141.716 167.333 141.886C167.019 142.057 166.77 142.307 166.589 142.636C166.411 142.962 166.322 143.356 166.322 143.818ZM177.522 149V140.273H179.221V149H177.522ZM178.38 138.926C178.085 138.926 177.831 138.828 177.619 138.631C177.41 138.43 177.306 138.191 177.306 137.915C177.306 137.634 177.41 137.396 177.619 137.199C177.831 136.998 178.085 136.898 178.38 136.898C178.675 136.898 178.927 136.998 179.136 137.199C179.348 137.396 179.454 137.634 179.454 137.915C179.454 138.191 179.348 138.43 179.136 138.631C178.927 138.828 178.675 138.926 178.38 138.926ZM182.725 143.818V149H181.026V140.273H182.657V141.693H182.765C182.966 141.231 183.28 140.86 183.708 140.58C184.14 140.299 184.684 140.159 185.339 140.159C185.934 140.159 186.454 140.284 186.901 140.534C187.348 140.78 187.695 141.148 187.941 141.636C188.187 142.125 188.311 142.729 188.311 143.449V149H186.612V143.653C186.612 143.021 186.447 142.527 186.117 142.17C185.788 141.811 185.335 141.631 184.759 141.631C184.365 141.631 184.015 141.716 183.708 141.886C183.405 142.057 183.165 142.307 182.987 142.636C182.812 142.962 182.725 143.356 182.725 143.818ZM193.863 152.273V140.273H195.522V141.688H195.664C195.763 141.506 195.905 141.295 196.091 141.057C196.276 140.818 196.534 140.61 196.863 140.432C197.193 140.25 197.628 140.159 198.17 140.159C198.875 140.159 199.503 140.337 200.056 140.693C200.61 141.049 201.043 141.562 201.358 142.233C201.676 142.903 201.835 143.71 201.835 144.653C201.835 145.597 201.678 146.405 201.363 147.08C201.049 147.75 200.617 148.267 200.068 148.631C199.519 148.991 198.892 149.17 198.187 149.17C197.657 149.17 197.223 149.081 196.886 148.903C196.553 148.725 196.291 148.517 196.102 148.278C195.913 148.04 195.767 147.828 195.664 147.642H195.562V152.273H193.863ZM195.528 144.636C195.528 145.25 195.617 145.788 195.795 146.25C195.973 146.712 196.231 147.074 196.568 147.335C196.905 147.593 197.318 147.722 197.806 147.722C198.314 147.722 198.738 147.587 199.079 147.318C199.42 147.045 199.678 146.676 199.852 146.21C200.03 145.744 200.119 145.22 200.119 144.636C200.119 144.061 200.032 143.544 199.858 143.085C199.687 142.627 199.43 142.265 199.085 142C198.744 141.735 198.318 141.602 197.806 141.602C197.314 141.602 196.897 141.729 196.556 141.983C196.219 142.237 195.964 142.591 195.789 143.045C195.615 143.5 195.528 144.03 195.528 144.636ZM205.798 149.193C205.245 149.193 204.745 149.091 204.298 148.886C203.851 148.678 203.497 148.377 203.236 147.983C202.978 147.589 202.849 147.106 202.849 146.534C202.849 146.042 202.944 145.636 203.133 145.318C203.323 145 203.578 144.748 203.9 144.562C204.222 144.377 204.582 144.237 204.98 144.142C205.378 144.047 205.783 143.975 206.196 143.926C206.719 143.866 207.143 143.816 207.469 143.778C207.794 143.737 208.031 143.67 208.179 143.58C208.326 143.489 208.4 143.341 208.4 143.136V143.097C208.4 142.6 208.26 142.216 207.98 141.943C207.703 141.67 207.29 141.534 206.741 141.534C206.169 141.534 205.719 141.661 205.389 141.915C205.063 142.165 204.838 142.443 204.713 142.75L203.116 142.386C203.306 141.856 203.582 141.428 203.946 141.102C204.313 140.773 204.736 140.534 205.213 140.386C205.69 140.235 206.192 140.159 206.719 140.159C207.067 140.159 207.436 140.201 207.826 140.284C208.22 140.364 208.588 140.511 208.929 140.727C209.273 140.943 209.556 141.252 209.775 141.653C209.995 142.051 210.105 142.568 210.105 143.205V149H208.446V147.807H208.378C208.268 148.027 208.103 148.242 207.883 148.455C207.664 148.667 207.381 148.843 207.037 148.983C206.692 149.123 206.279 149.193 205.798 149.193ZM206.167 147.83C206.637 147.83 207.039 147.737 207.372 147.551C207.709 147.366 207.965 147.123 208.139 146.824C208.317 146.521 208.406 146.197 208.406 145.852V144.727C208.345 144.788 208.228 144.845 208.054 144.898C207.883 144.947 207.688 144.991 207.469 145.028C207.249 145.062 207.035 145.095 206.826 145.125C206.618 145.152 206.444 145.174 206.304 145.193C205.974 145.235 205.673 145.305 205.4 145.403C205.131 145.502 204.915 145.644 204.753 145.83C204.594 146.011 204.514 146.254 204.514 146.557C204.514 146.977 204.669 147.295 204.98 147.511C205.29 147.723 205.686 147.83 206.167 147.83ZM218.427 142.403L216.888 142.676C216.823 142.479 216.721 142.292 216.581 142.114C216.444 141.936 216.259 141.79 216.024 141.676C215.789 141.562 215.496 141.506 215.143 141.506C214.662 141.506 214.261 141.614 213.939 141.83C213.617 142.042 213.456 142.316 213.456 142.653C213.456 142.945 213.564 143.18 213.78 143.358C213.996 143.536 214.344 143.682 214.825 143.795L216.212 144.114C217.015 144.299 217.613 144.585 218.007 144.972C218.401 145.358 218.598 145.86 218.598 146.477C218.598 147 218.446 147.466 218.143 147.875C217.844 148.28 217.426 148.598 216.888 148.83C216.354 149.061 215.734 149.176 215.03 149.176C214.052 149.176 213.255 148.968 212.638 148.551C212.02 148.131 211.641 147.534 211.501 146.761L213.143 146.511C213.246 146.939 213.456 147.263 213.774 147.483C214.092 147.699 214.507 147.807 215.018 147.807C215.575 147.807 216.02 147.691 216.354 147.46C216.687 147.225 216.854 146.939 216.854 146.602C216.854 146.33 216.751 146.1 216.547 145.915C216.346 145.729 216.037 145.589 215.621 145.494L214.143 145.17C213.329 144.985 212.727 144.689 212.337 144.284C211.95 143.879 211.757 143.366 211.757 142.744C211.757 142.229 211.901 141.778 212.189 141.392C212.477 141.006 212.874 140.705 213.382 140.489C213.89 140.269 214.471 140.159 215.126 140.159C216.069 140.159 216.812 140.364 217.354 140.773C217.895 141.178 218.253 141.722 218.427 142.403ZM226.526 142.403L224.986 142.676C224.921 142.479 224.819 142.292 224.679 142.114C224.543 141.936 224.357 141.79 224.122 141.676C223.887 141.562 223.594 141.506 223.241 141.506C222.76 141.506 222.359 141.614 222.037 141.83C221.715 142.042 221.554 142.316 221.554 142.653C221.554 142.945 221.662 143.18 221.878 143.358C222.094 143.536 222.442 143.682 222.923 143.795L224.31 144.114C225.113 144.299 225.711 144.585 226.105 144.972C226.499 145.358 226.696 145.86 226.696 146.477C226.696 147 226.545 147.466 226.241 147.875C225.942 148.28 225.524 148.598 224.986 148.83C224.452 149.061 223.832 149.176 223.128 149.176C222.151 149.176 221.353 148.968 220.736 148.551C220.118 148.131 219.74 147.534 219.599 146.761L221.241 146.511C221.344 146.939 221.554 147.263 221.872 147.483C222.19 147.699 222.605 147.807 223.116 147.807C223.673 147.807 224.118 147.691 224.452 147.46C224.785 147.225 224.952 146.939 224.952 146.602C224.952 146.33 224.849 146.1 224.645 145.915C224.444 145.729 224.135 145.589 223.719 145.494L222.241 145.17C221.427 144.985 220.825 144.689 220.435 144.284C220.048 143.879 219.855 143.366 219.855 142.744C219.855 142.229 219.999 141.778 220.287 141.392C220.575 141.006 220.973 140.705 221.48 140.489C221.988 140.269 222.569 140.159 223.224 140.159C224.168 140.159 224.91 140.364 225.452 140.773C225.993 141.178 226.351 141.722 226.526 142.403ZM229.976 149L227.408 140.273H229.163L230.874 146.682H230.959L232.675 140.273H234.431L236.135 146.653H236.22L237.919 140.273H239.675L237.112 149H235.379L233.607 142.699H233.476L231.703 149H229.976ZM244.218 149.176C243.399 149.176 242.685 148.989 242.076 148.614C241.466 148.239 240.992 147.714 240.655 147.04C240.318 146.366 240.149 145.578 240.149 144.676C240.149 143.771 240.318 142.979 240.655 142.301C240.992 141.623 241.466 141.097 242.076 140.722C242.685 140.347 243.399 140.159 244.218 140.159C245.036 140.159 245.75 140.347 246.36 140.722C246.969 141.097 247.443 141.623 247.78 142.301C248.117 142.979 248.286 143.771 248.286 144.676C248.286 145.578 248.117 146.366 247.78 147.04C247.443 147.714 246.969 148.239 246.36 148.614C245.75 148.989 245.036 149.176 244.218 149.176ZM244.223 147.75C244.754 147.75 245.193 147.61 245.541 147.33C245.89 147.049 246.147 146.676 246.314 146.21C246.485 145.744 246.57 145.231 246.57 144.67C246.57 144.114 246.485 143.602 246.314 143.136C246.147 142.667 245.89 142.29 245.541 142.006C245.193 141.722 244.754 141.58 244.223 141.58C243.689 141.58 243.246 141.722 242.894 142.006C242.545 142.29 242.286 142.667 242.115 143.136C241.949 143.602 241.865 144.114 241.865 144.67C241.865 145.231 241.949 145.744 242.115 146.21C242.286 146.676 242.545 147.049 242.894 147.33C243.246 147.61 243.689 147.75 244.223 147.75ZM249.702 149V140.273H251.344V141.659H251.435C251.594 141.189 251.874 140.82 252.276 140.551C252.681 140.278 253.14 140.142 253.651 140.142C253.757 140.142 253.882 140.146 254.026 140.153C254.174 140.161 254.289 140.17 254.372 140.182V141.807C254.304 141.788 254.183 141.767 254.009 141.744C253.835 141.718 253.66 141.705 253.486 141.705C253.085 141.705 252.727 141.79 252.412 141.96C252.102 142.127 251.855 142.36 251.674 142.659C251.492 142.955 251.401 143.292 251.401 143.67V149H249.702ZM258.317 149.17C257.613 149.17 256.984 148.991 256.431 148.631C255.882 148.267 255.45 147.75 255.135 147.08C254.825 146.405 254.669 145.597 254.669 144.653C254.669 143.71 254.827 142.903 255.141 142.233C255.459 141.562 255.895 141.049 256.448 140.693C257.001 140.337 257.628 140.159 258.329 140.159C258.87 140.159 259.306 140.25 259.635 140.432C259.969 140.61 260.226 140.818 260.408 141.057C260.594 141.295 260.738 141.506 260.84 141.688H260.942V137.364H262.641V149H260.982V147.642H260.84C260.738 147.828 260.59 148.04 260.397 148.278C260.207 148.517 259.946 148.725 259.613 148.903C259.279 149.081 258.848 149.17 258.317 149.17ZM258.692 147.722C259.181 147.722 259.594 147.593 259.931 147.335C260.272 147.074 260.529 146.712 260.704 146.25C260.882 145.788 260.971 145.25 260.971 144.636C260.971 144.03 260.884 143.5 260.709 143.045C260.535 142.591 260.279 142.237 259.942 141.983C259.605 141.729 259.188 141.602 258.692 141.602C258.181 141.602 257.755 141.735 257.414 142C257.073 142.265 256.815 142.627 256.641 143.085C256.471 143.544 256.385 144.061 256.385 144.636C256.385 145.22 256.473 145.744 256.647 146.21C256.821 146.676 257.079 147.045 257.419 147.318C257.764 147.587 258.188 147.722 258.692 147.722ZM266.285 137.364V149H264.586V137.364H266.285ZM271.852 149.176C270.992 149.176 270.251 148.992 269.63 148.625C269.013 148.254 268.535 147.733 268.198 147.062C267.865 146.388 267.698 145.598 267.698 144.693C267.698 143.799 267.865 143.011 268.198 142.33C268.535 141.648 269.005 141.116 269.607 140.733C270.213 140.35 270.922 140.159 271.732 140.159C272.225 140.159 272.702 140.241 273.164 140.403C273.626 140.566 274.041 140.822 274.408 141.17C274.776 141.519 275.066 141.972 275.278 142.528C275.49 143.081 275.596 143.754 275.596 144.545V145.148H268.658V143.875H273.931C273.931 143.428 273.84 143.032 273.658 142.688C273.477 142.339 273.221 142.064 272.891 141.864C272.566 141.663 272.183 141.562 271.744 141.562C271.266 141.562 270.85 141.68 270.494 141.915C270.141 142.146 269.869 142.449 269.675 142.824C269.486 143.195 269.391 143.598 269.391 144.034V145.028C269.391 145.612 269.494 146.108 269.698 146.517C269.906 146.926 270.196 147.239 270.567 147.455C270.939 147.667 271.372 147.773 271.869 147.773C272.191 147.773 272.484 147.727 272.749 147.636C273.014 147.542 273.244 147.402 273.437 147.216C273.63 147.03 273.778 146.801 273.88 146.528L275.488 146.818C275.359 147.292 275.128 147.706 274.795 148.062C274.465 148.415 274.05 148.689 273.55 148.886C273.054 149.08 272.488 149.176 271.852 149.176ZM283.541 142.403L282.001 142.676C281.936 142.479 281.834 142.292 281.694 142.114C281.558 141.936 281.372 141.79 281.137 141.676C280.902 141.562 280.609 141.506 280.256 141.506C279.775 141.506 279.374 141.614 279.052 141.83C278.73 142.042 278.569 142.316 278.569 142.653C278.569 142.945 278.677 143.18 278.893 143.358C279.109 143.536 279.457 143.682 279.938 143.795L281.325 144.114C282.128 144.299 282.726 144.585 283.12 144.972C283.514 145.358 283.711 145.86 283.711 146.477C283.711 147 283.56 147.466 283.256 147.875C282.957 148.28 282.539 148.598 282.001 148.83C281.467 149.061 280.847 149.176 280.143 149.176C279.166 149.176 278.368 148.968 277.751 148.551C277.133 148.131 276.755 147.534 276.614 146.761L278.256 146.511C278.359 146.939 278.569 147.263 278.887 147.483C279.205 147.699 279.62 147.807 280.131 147.807C280.688 147.807 281.133 147.691 281.467 147.46C281.8 147.225 281.967 146.939 281.967 146.602C281.967 146.33 281.864 146.1 281.66 145.915C281.459 145.729 281.15 145.589 280.734 145.494L279.256 145.17C278.442 144.985 277.84 144.689 277.45 144.284C277.063 143.879 276.87 143.366 276.87 142.744C276.87 142.229 277.014 141.778 277.302 141.392C277.59 141.006 277.988 140.705 278.495 140.489C279.003 140.269 279.584 140.159 280.239 140.159C281.183 140.159 281.925 140.364 282.467 140.773C283.008 141.178 283.366 141.722 283.541 142.403ZM291.639 142.403L290.099 142.676C290.035 142.479 289.932 142.292 289.792 142.114C289.656 141.936 289.47 141.79 289.235 141.676C289 141.562 288.707 141.506 288.355 141.506C287.874 141.506 287.472 141.614 287.15 141.83C286.828 142.042 286.667 142.316 286.667 142.653C286.667 142.945 286.775 143.18 286.991 143.358C287.207 143.536 287.555 143.682 288.036 143.795L289.423 144.114C290.226 144.299 290.824 144.585 291.218 144.972C291.612 145.358 291.809 145.86 291.809 146.477C291.809 147 291.658 147.466 291.355 147.875C291.055 148.28 290.637 148.598 290.099 148.83C289.565 149.061 288.946 149.176 288.241 149.176C287.264 149.176 286.466 148.968 285.849 148.551C285.231 148.131 284.853 147.534 284.713 146.761L286.355 146.511C286.457 146.939 286.667 147.263 286.985 147.483C287.303 147.699 287.718 147.807 288.23 147.807C288.786 147.807 289.231 147.691 289.565 147.46C289.898 147.225 290.065 146.939 290.065 146.602C290.065 146.33 289.963 146.1 289.758 145.915C289.557 145.729 289.249 145.589 288.832 145.494L287.355 145.17C286.54 144.985 285.938 144.689 285.548 144.284C285.161 143.879 284.968 143.366 284.968 142.744C284.968 142.229 285.112 141.778 285.4 141.392C285.688 141.006 286.086 140.705 286.593 140.489C287.101 140.269 287.682 140.159 288.338 140.159C289.281 140.159 290.023 140.364 290.565 140.773C291.107 141.178 291.464 141.722 291.639 142.403ZM299.491 149.193C298.938 149.193 298.438 149.091 297.991 148.886C297.544 148.678 297.19 148.377 296.929 147.983C296.671 147.589 296.542 147.106 296.542 146.534C296.542 146.042 296.637 145.636 296.826 145.318C297.016 145 297.271 144.748 297.593 144.562C297.915 144.377 298.275 144.237 298.673 144.142C299.071 144.047 299.476 143.975 299.889 143.926C300.412 143.866 300.836 143.816 301.162 143.778C301.487 143.737 301.724 143.67 301.872 143.58C302.02 143.489 302.093 143.341 302.093 143.136V143.097C302.093 142.6 301.953 142.216 301.673 141.943C301.396 141.67 300.984 141.534 300.434 141.534C299.862 141.534 299.412 141.661 299.082 141.915C298.756 142.165 298.531 142.443 298.406 142.75L296.809 142.386C296.999 141.856 297.275 141.428 297.639 141.102C298.006 140.773 298.429 140.534 298.906 140.386C299.383 140.235 299.885 140.159 300.412 140.159C300.76 140.159 301.129 140.201 301.52 140.284C301.914 140.364 302.281 140.511 302.622 140.727C302.967 140.943 303.249 141.252 303.468 141.653C303.688 142.051 303.798 142.568 303.798 143.205V149H302.139V147.807H302.071C301.961 148.027 301.796 148.242 301.576 148.455C301.357 148.667 301.075 148.843 300.73 148.983C300.385 149.123 299.972 149.193 299.491 149.193ZM299.861 147.83C300.33 147.83 300.732 147.737 301.065 147.551C301.402 147.366 301.658 147.123 301.832 146.824C302.01 146.521 302.099 146.197 302.099 145.852V144.727C302.039 144.788 301.921 144.845 301.747 144.898C301.576 144.947 301.381 144.991 301.162 145.028C300.942 145.062 300.728 145.095 300.52 145.125C300.311 145.152 300.137 145.174 299.997 145.193C299.667 145.235 299.366 145.305 299.093 145.403C298.825 145.502 298.609 145.644 298.446 145.83C298.287 146.011 298.207 146.254 298.207 146.557C298.207 146.977 298.362 147.295 298.673 147.511C298.984 147.723 299.379 147.83 299.861 147.83ZM311.109 145.381V140.273H312.814V149H311.143V147.489H311.052C310.852 147.955 310.53 148.343 310.086 148.653C309.647 148.96 309.1 149.114 308.444 149.114C307.884 149.114 307.388 148.991 306.956 148.744C306.528 148.494 306.191 148.125 305.944 147.636C305.702 147.148 305.581 146.544 305.581 145.824V140.273H307.28V145.619C307.28 146.214 307.444 146.687 307.774 147.04C308.104 147.392 308.532 147.568 309.058 147.568C309.376 147.568 309.693 147.489 310.007 147.33C310.325 147.17 310.588 146.93 310.797 146.608C311.009 146.286 311.113 145.877 311.109 145.381ZM318.69 140.273V141.636H313.923V140.273H318.69ZM315.202 138.182H316.901V146.438C316.901 146.767 316.95 147.015 317.048 147.182C317.147 147.345 317.274 147.456 317.429 147.517C317.588 147.574 317.76 147.602 317.946 147.602C318.082 147.602 318.202 147.593 318.304 147.574C318.406 147.555 318.486 147.54 318.543 147.528L318.849 148.932C318.751 148.97 318.611 149.008 318.429 149.045C318.247 149.087 318.02 149.11 317.747 149.114C317.3 149.121 316.883 149.042 316.497 148.875C316.111 148.708 315.798 148.451 315.56 148.102C315.321 147.754 315.202 147.316 315.202 146.79V138.182ZM321.976 143.818V149H320.277V137.364H321.953V141.693H322.061C322.266 141.223 322.578 140.85 322.999 140.574C323.419 140.297 323.968 140.159 324.646 140.159C325.245 140.159 325.768 140.282 326.215 140.528C326.665 140.775 327.014 141.142 327.26 141.631C327.51 142.116 327.635 142.722 327.635 143.449V149H325.936V143.653C325.936 143.013 325.771 142.517 325.442 142.165C325.112 141.809 324.654 141.631 324.067 141.631C323.665 141.631 323.305 141.716 322.987 141.886C322.673 142.057 322.425 142.307 322.243 142.636C322.065 142.962 321.976 143.356 321.976 143.818ZM333.183 149.176C332.324 149.176 331.583 148.992 330.962 148.625C330.344 148.254 329.867 147.733 329.53 147.062C329.197 146.388 329.03 145.598 329.03 144.693C329.03 143.799 329.197 143.011 329.53 142.33C329.867 141.648 330.337 141.116 330.939 140.733C331.545 140.35 332.253 140.159 333.064 140.159C333.557 140.159 334.034 140.241 334.496 140.403C334.958 140.566 335.373 140.822 335.74 141.17C336.108 141.519 336.397 141.972 336.61 142.528C336.822 143.081 336.928 143.754 336.928 144.545V145.148H329.99V143.875H335.263C335.263 143.428 335.172 143.032 334.99 142.688C334.808 142.339 334.553 142.064 334.223 141.864C333.897 141.663 333.515 141.562 333.075 141.562C332.598 141.562 332.182 141.68 331.825 141.915C331.473 142.146 331.2 142.449 331.007 142.824C330.818 143.195 330.723 143.598 330.723 144.034V145.028C330.723 145.612 330.825 146.108 331.03 146.517C331.238 146.926 331.528 147.239 331.899 147.455C332.271 147.667 332.704 147.773 333.2 147.773C333.522 147.773 333.816 147.727 334.081 147.636C334.346 147.542 334.575 147.402 334.769 147.216C334.962 147.03 335.11 146.801 335.212 146.528L336.82 146.818C336.691 147.292 336.46 147.706 336.127 148.062C335.797 148.415 335.382 148.689 334.882 148.886C334.386 149.08 333.82 149.176 333.183 149.176ZM340.032 143.818V149H338.333V140.273H339.963V141.693H340.071C340.272 141.231 340.586 140.86 341.014 140.58C341.446 140.299 341.99 140.159 342.645 140.159C343.24 140.159 343.761 140.284 344.208 140.534C344.655 140.78 345.001 141.148 345.247 141.636C345.494 142.125 345.617 142.729 345.617 143.449V149H343.918V143.653C343.918 143.021 343.753 142.527 343.424 142.17C343.094 141.811 342.641 141.631 342.066 141.631C341.672 141.631 341.321 141.716 341.014 141.886C340.711 142.057 340.471 142.307 340.293 142.636C340.119 142.962 340.032 143.356 340.032 143.818ZM351.489 140.273V141.636H346.722V140.273H351.489ZM348 138.182H349.699V146.438C349.699 146.767 349.749 147.015 349.847 147.182C349.945 147.345 350.072 147.456 350.228 147.517C350.387 147.574 350.559 147.602 350.745 147.602C350.881 147.602 351 147.593 351.103 147.574C351.205 147.555 351.284 147.54 351.341 147.528L351.648 148.932C351.55 148.97 351.409 149.008 351.228 149.045C351.046 149.087 350.819 149.11 350.546 149.114C350.099 149.121 349.682 149.042 349.296 148.875C348.909 148.708 348.597 148.451 348.358 148.102C348.12 147.754 348 147.316 348 146.79V138.182ZM352.888 149V140.273H354.587V149H352.888ZM353.746 138.926C353.451 138.926 353.197 138.828 352.985 138.631C352.777 138.43 352.672 138.191 352.672 137.915C352.672 137.634 352.777 137.396 352.985 137.199C353.197 136.998 353.451 136.898 353.746 136.898C354.042 136.898 354.294 136.998 354.502 137.199C354.714 137.396 354.82 137.634 354.82 137.915C354.82 138.191 354.714 138.43 354.502 138.631C354.294 138.828 354.042 138.926 353.746 138.926ZM360.069 149.176C359.224 149.176 358.497 148.985 357.887 148.602C357.281 148.216 356.815 147.684 356.489 147.006C356.163 146.328 356.001 145.551 356.001 144.676C356.001 143.79 356.167 143.008 356.501 142.33C356.834 141.648 357.304 141.116 357.91 140.733C358.516 140.35 359.23 140.159 360.052 140.159C360.715 140.159 361.306 140.282 361.824 140.528C362.343 140.771 362.762 141.112 363.08 141.551C363.402 141.991 363.593 142.504 363.654 143.091H362.001C361.91 142.682 361.701 142.33 361.376 142.034C361.054 141.739 360.622 141.591 360.08 141.591C359.607 141.591 359.192 141.716 358.836 141.966C358.484 142.212 358.209 142.564 358.012 143.023C357.815 143.477 357.717 144.015 357.717 144.636C357.717 145.273 357.813 145.822 358.006 146.284C358.199 146.746 358.472 147.104 358.824 147.358C359.181 147.612 359.599 147.739 360.08 147.739C360.402 147.739 360.694 147.68 360.955 147.562C361.22 147.441 361.442 147.269 361.62 147.045C361.802 146.822 361.929 146.553 362.001 146.239H363.654C363.593 146.803 363.41 147.307 363.103 147.75C362.796 148.193 362.385 148.542 361.87 148.795C361.359 149.049 360.758 149.176 360.069 149.176ZM367.531 149.193C366.978 149.193 366.478 149.091 366.031 148.886C365.584 148.678 365.229 148.377 364.968 147.983C364.71 147.589 364.582 147.106 364.582 146.534C364.582 146.042 364.676 145.636 364.866 145.318C365.055 145 365.311 144.748 365.633 144.562C365.955 144.377 366.315 144.237 366.712 144.142C367.11 144.047 367.515 143.975 367.928 143.926C368.451 143.866 368.875 143.816 369.201 143.778C369.527 143.737 369.764 143.67 369.911 143.58C370.059 143.489 370.133 143.341 370.133 143.136V143.097C370.133 142.6 369.993 142.216 369.712 141.943C369.436 141.67 369.023 141.534 368.474 141.534C367.902 141.534 367.451 141.661 367.121 141.915C366.796 142.165 366.57 142.443 366.445 142.75L364.849 142.386C365.038 141.856 365.315 141.428 365.678 141.102C366.046 140.773 366.468 140.534 366.945 140.386C367.423 140.235 367.925 140.159 368.451 140.159C368.8 140.159 369.169 140.201 369.559 140.284C369.953 140.364 370.32 140.511 370.661 140.727C371.006 140.943 371.288 141.252 371.508 141.653C371.728 142.051 371.837 142.568 371.837 143.205V149H370.178V147.807H370.11C370 148.027 369.835 148.242 369.616 148.455C369.396 148.667 369.114 148.843 368.769 148.983C368.425 149.123 368.012 149.193 367.531 149.193ZM367.9 147.83C368.37 147.83 368.771 147.737 369.104 147.551C369.442 147.366 369.697 147.123 369.871 146.824C370.05 146.521 370.139 146.197 370.139 145.852V144.727C370.078 144.788 369.96 144.845 369.786 144.898C369.616 144.947 369.421 144.991 369.201 145.028C368.981 145.062 368.767 145.095 368.559 145.125C368.351 145.152 368.176 145.174 368.036 145.193C367.707 145.235 367.406 145.305 367.133 145.403C366.864 145.502 366.648 145.644 366.485 145.83C366.326 146.011 366.246 146.254 366.246 146.557C366.246 146.977 366.402 147.295 366.712 147.511C367.023 147.723 367.419 147.83 367.9 147.83ZM377.694 140.273V141.636H372.927V140.273H377.694ZM374.205 138.182H375.904V146.438C375.904 146.767 375.953 147.015 376.052 147.182C376.15 147.345 376.277 147.456 376.433 147.517C376.592 147.574 376.764 147.602 376.95 147.602C377.086 147.602 377.205 147.593 377.308 147.574C377.41 147.555 377.489 147.54 377.546 147.528L377.853 148.932C377.755 148.97 377.614 149.008 377.433 149.045C377.251 149.087 377.024 149.11 376.751 149.114C376.304 149.121 375.887 149.042 375.501 148.875C375.114 148.708 374.802 148.451 374.563 148.102C374.325 147.754 374.205 147.316 374.205 146.79V138.182ZM379.093 149V140.273H380.792V149H379.093ZM379.951 138.926C379.656 138.926 379.402 138.828 379.19 138.631C378.982 138.43 378.877 138.191 378.877 137.915C378.877 137.634 378.982 137.396 379.19 137.199C379.402 136.998 379.656 136.898 379.951 136.898C380.247 136.898 380.499 136.998 380.707 137.199C380.919 137.396 381.025 137.634 381.025 137.915C381.025 138.191 380.919 138.43 380.707 138.631C380.499 138.828 380.247 138.926 379.951 138.926ZM386.274 149.176C385.456 149.176 384.742 148.989 384.132 148.614C383.522 148.239 383.048 147.714 382.711 147.04C382.374 146.366 382.206 145.578 382.206 144.676C382.206 143.771 382.374 142.979 382.711 142.301C383.048 141.623 383.522 141.097 384.132 140.722C384.742 140.347 385.456 140.159 386.274 140.159C387.092 140.159 387.806 140.347 388.416 140.722C389.026 141.097 389.499 141.623 389.836 142.301C390.173 142.979 390.342 143.771 390.342 144.676C390.342 145.578 390.173 146.366 389.836 147.04C389.499 147.714 389.026 148.239 388.416 148.614C387.806 148.989 387.092 149.176 386.274 149.176ZM386.279 147.75C386.81 147.75 387.249 147.61 387.598 147.33C387.946 147.049 388.204 146.676 388.37 146.21C388.541 145.744 388.626 145.231 388.626 144.67C388.626 144.114 388.541 143.602 388.37 143.136C388.204 142.667 387.946 142.29 387.598 142.006C387.249 141.722 386.81 141.58 386.279 141.58C385.745 141.58 385.302 141.722 384.95 142.006C384.601 142.29 384.342 142.667 384.172 143.136C384.005 143.602 383.922 144.114 383.922 144.67C383.922 145.231 384.005 145.744 384.172 146.21C384.342 146.676 384.601 147.049 384.95 147.33C385.302 147.61 385.745 147.75 386.279 147.75ZM393.457 143.818V149H391.758V140.273H393.389V141.693H393.497C393.698 141.231 394.012 140.86 394.44 140.58C394.872 140.299 395.415 140.159 396.071 140.159C396.665 140.159 397.186 140.284 397.633 140.534C398.08 140.78 398.427 141.148 398.673 141.636C398.919 142.125 399.042 142.729 399.042 143.449V149H397.344V143.653C397.344 143.021 397.179 142.527 396.849 142.17C396.52 141.811 396.067 141.631 395.491 141.631C395.097 141.631 394.747 141.716 394.44 141.886C394.137 142.057 393.897 142.307 393.719 142.636C393.544 142.962 393.457 143.356 393.457 143.818Z" fill="#010C5C"/>
</svg>
