<svg width="266" height="60" viewBox="0 0 266 60" fill="none" xmlns="http://www.w3.org/2000/svg">
<g filter="url(#filter0_b_268_1001)">
<path d="M44.9688 22.4545V37H42.7812V24.3295H35.9347V37H33.7472V22.4545H44.9688ZM52.7493 37.2202C51.7266 37.2202 50.834 36.9858 50.0717 36.517C49.3094 36.0483 48.7176 35.3925 48.2962 34.5497C47.8748 33.7069 47.6641 32.7221 47.6641 31.5952C47.6641 30.4635 47.8748 29.474 48.2962 28.6264C48.7176 27.7789 49.3094 27.1207 50.0717 26.652C50.834 26.1832 51.7266 25.9489 52.7493 25.9489C53.772 25.9489 54.6645 26.1832 55.4268 26.652C56.1892 27.1207 56.781 27.7789 57.2024 28.6264C57.6238 29.474 57.8345 30.4635 57.8345 31.5952C57.8345 32.7221 57.6238 33.7069 57.2024 34.5497C56.781 35.3925 56.1892 36.0483 55.4268 36.517C54.6645 36.9858 53.772 37.2202 52.7493 37.2202ZM52.7564 35.4375C53.4193 35.4375 53.9685 35.2623 54.4041 34.9119C54.8397 34.5616 55.1617 34.0952 55.37 33.5128C55.5831 32.9304 55.6896 32.2888 55.6896 31.5881C55.6896 30.892 55.5831 30.2528 55.37 29.6705C55.1617 29.0833 54.8397 28.6122 54.4041 28.2571C53.9685 27.902 53.4193 27.7244 52.7564 27.7244C52.0888 27.7244 51.5348 27.902 51.0945 28.2571C50.6589 28.6122 50.3345 29.0833 50.1214 29.6705C49.9131 30.2528 49.8089 30.892 49.8089 31.5881C49.8089 32.2888 49.9131 32.9304 50.1214 33.5128C50.3345 34.0952 50.6589 34.5616 51.0945 34.9119C51.5348 35.2623 52.0888 35.4375 52.7564 35.4375ZM60.2049 37V26.0909H62.3285V30.6648H63.3512L66.9521 26.0909H69.5799L65.354 31.3963L69.6296 37H66.9947L63.7063 32.6392H62.3285V37H60.2049ZM74.4538 37.2415C73.7625 37.2415 73.1375 37.1136 72.5788 36.858C72.0201 36.5975 71.5774 36.2211 71.2507 35.7287C70.9287 35.2363 70.7678 34.6326 70.7678 33.9176C70.7678 33.3021 70.8861 32.7955 71.1229 32.3977C71.3596 32 71.6792 31.6851 72.0817 31.4531C72.4841 31.2211 72.9339 31.0459 73.4311 30.9276C73.9283 30.8092 74.4349 30.7192 74.951 30.6577C75.6044 30.5819 76.1347 30.5204 76.5419 30.473C76.9491 30.4209 77.245 30.3381 77.4297 30.2244C77.6143 30.1108 77.7067 29.9261 77.7067 29.6705V29.6207C77.7067 29.0005 77.5315 28.5199 77.1811 28.179C76.8355 27.8381 76.3194 27.6676 75.6328 27.6676C74.9179 27.6676 74.3544 27.8262 73.9425 28.1435C73.5353 28.456 73.2536 28.804 73.0973 29.1875L71.1016 28.733C71.3383 28.0701 71.6839 27.535 72.1385 27.1278C72.5978 26.7159 73.1257 26.4176 73.7223 26.233C74.3189 26.0436 74.9463 25.9489 75.6044 25.9489C76.04 25.9489 76.5017 26.0009 76.9893 26.1051C77.4818 26.2045 77.9411 26.3892 78.3672 26.6591C78.7981 26.929 79.1508 27.3149 79.4254 27.8168C79.7 28.3139 79.8374 28.9602 79.8374 29.7557V37H77.7635V35.5085H77.6783C77.541 35.7831 77.335 36.053 77.0604 36.3182C76.7857 36.5833 76.433 36.8035 76.0021 36.9787C75.5713 37.1539 75.0552 37.2415 74.4538 37.2415ZM74.9155 35.5369C75.5026 35.5369 76.0045 35.4209 76.4212 35.1889C76.8426 34.9569 77.1622 34.6539 77.38 34.2798C77.6025 33.901 77.7138 33.4962 77.7138 33.0653V31.6591C77.638 31.7348 77.4912 31.8059 77.2734 31.8722C77.0604 31.9337 76.8165 31.9882 76.5419 32.0355C76.2673 32.0781 75.9998 32.1184 75.7393 32.1562C75.4789 32.1894 75.2611 32.2178 75.0859 32.2415C74.674 32.2936 74.2976 32.3812 73.9567 32.5043C73.6205 32.6274 73.3506 32.8049 73.147 33.0369C72.9482 33.2642 72.8487 33.5672 72.8487 33.946C72.8487 34.4716 73.0429 34.8693 73.4311 35.1392C73.8194 35.4044 74.3142 35.5369 74.9155 35.5369ZM82.0195 34.1165H84.1928C84.2212 34.5616 84.4225 34.9048 84.7965 35.1463C85.1753 35.3878 85.6654 35.5085 86.2667 35.5085C86.8775 35.5085 87.3983 35.3783 87.8292 35.1179C88.2601 34.8527 88.4755 34.4432 88.4755 33.8892C88.4755 33.5578 88.3926 33.2689 88.2269 33.0227C88.0659 32.7718 87.8363 32.5777 87.538 32.4403C87.2444 32.303 86.8964 32.2344 86.494 32.2344H84.7184V30.5653H86.494C87.0953 30.5653 87.5451 30.428 87.8434 30.1534C88.1417 29.8788 88.2908 29.5355 88.2908 29.1236C88.2908 28.6785 88.1299 28.321 87.8079 28.0511C87.4906 27.7765 87.0479 27.6392 86.4798 27.6392C85.9021 27.6392 85.4215 27.7694 85.038 28.0298C84.6545 28.2855 84.4532 28.617 84.4343 29.0241H82.2894C82.3036 28.4134 82.4883 27.8783 82.8434 27.419C83.2032 26.955 83.6862 26.5952 84.2923 26.3395C84.9031 26.0791 85.5967 25.9489 86.3732 25.9489C87.1829 25.9489 87.8836 26.0791 88.4755 26.3395C89.0674 26.5999 89.5243 26.9598 89.8462 27.419C90.1729 27.8783 90.3363 28.4062 90.3363 29.0028C90.3363 29.6042 90.1564 30.0966 89.7965 30.4801C89.4414 30.8589 88.9774 31.1312 88.4045 31.2969V31.4105C88.8259 31.4389 89.1999 31.5668 89.5266 31.794C89.8533 32.0213 90.109 32.322 90.2937 32.696C90.4783 33.0701 90.5707 33.4938 90.5707 33.9673C90.5707 34.6349 90.386 35.2126 90.0167 35.7003C89.6521 36.188 89.1455 36.5644 88.4968 36.8295C87.8529 37.09 87.1166 37.2202 86.288 37.2202C85.4831 37.2202 84.761 37.0947 84.1218 36.8438C83.4873 36.5881 82.9831 36.2282 82.609 35.7642C82.2397 35.3002 82.0432 34.7509 82.0195 34.1165ZM95.9382 37.2415C95.2469 37.2415 94.6219 37.1136 94.0632 36.858C93.5045 36.5975 93.0618 36.2211 92.7351 35.7287C92.4131 35.2363 92.2521 34.6326 92.2521 33.9176C92.2521 33.3021 92.3705 32.7955 92.6072 32.3977C92.844 32 93.1636 31.6851 93.5661 31.4531C93.9685 31.2211 94.4183 31.0459 94.9155 30.9276C95.4126 30.8092 95.9193 30.7192 96.4354 30.6577C97.0888 30.5819 97.6191 30.5204 98.0263 30.473C98.4335 30.4209 98.7294 30.3381 98.9141 30.2244C99.0987 30.1108 99.1911 29.9261 99.1911 29.6705V29.6207C99.1911 29.0005 99.0159 28.5199 98.6655 28.179C98.3198 27.8381 97.8037 27.6676 97.1172 27.6676C96.4022 27.6676 95.8388 27.8262 95.4268 28.1435C95.0196 28.456 94.7379 28.804 94.5817 29.1875L92.5859 28.733C92.8227 28.0701 93.1683 27.535 93.6229 27.1278C94.0821 26.7159 94.6101 26.4176 95.2067 26.233C95.8033 26.0436 96.4306 25.9489 97.0888 25.9489C97.5244 25.9489 97.986 26.0009 98.4737 26.1051C98.9661 26.2045 99.4254 26.3892 99.8516 26.6591C100.282 26.929 100.635 27.3149 100.91 27.8168C101.184 28.3139 101.322 28.9602 101.322 29.7557V37H99.2479V35.5085H99.1626C99.0253 35.7831 98.8194 36.053 98.5447 36.3182C98.2701 36.5833 97.9174 36.8035 97.4865 36.9787C97.0556 37.1539 96.5395 37.2415 95.9382 37.2415ZM96.3999 35.5369C96.987 35.5369 97.4889 35.4209 97.9055 35.1889C98.3269 34.9569 98.6465 34.6539 98.8643 34.2798C99.0869 33.901 99.1982 33.4962 99.1982 33.0653V31.6591C99.1224 31.7348 98.9756 31.8059 98.7578 31.8722C98.5447 31.9337 98.3009 31.9882 98.0263 32.0355C97.7517 32.0781 97.4841 32.1184 97.2237 32.1562C96.9633 32.1894 96.7455 32.2178 96.5703 32.2415C96.1584 32.2936 95.782 32.3812 95.4411 32.5043C95.1049 32.6274 94.835 32.8049 94.6314 33.0369C94.4325 33.2642 94.3331 33.5672 94.3331 33.946C94.3331 34.4716 94.5272 34.8693 94.9155 35.1392C95.3037 35.4044 95.7985 35.5369 96.3999 35.5369ZM102.797 27.9233V26.0909H112.002V27.9233H108.444V37H106.37V27.9233H102.797ZM115.846 29.8409H119.013C120.349 29.8409 121.376 30.1723 122.096 30.8352C122.816 31.4981 123.175 32.3527 123.175 33.3991C123.175 34.081 123.014 34.6941 122.692 35.2386C122.371 35.7831 121.899 36.214 121.279 36.5312C120.659 36.8438 119.904 37 119.013 37H114.248V26.0909H116.329V35.1676H119.013C119.624 35.1676 120.126 35.009 120.519 34.6918C120.912 34.3698 121.109 33.9602 121.109 33.4631C121.109 32.9375 120.912 32.509 120.519 32.1776C120.126 31.8414 119.624 31.6733 119.013 31.6733H115.846V29.8409ZM138.243 30.6293V32.4688H132.334V30.6293H138.243ZM132.93 26.0909V37H130.849V26.0909H132.93ZM139.727 26.0909V37H137.653V26.0909H139.727ZM145.743 37.2415C145.052 37.2415 144.427 37.1136 143.868 36.858C143.309 36.5975 142.866 36.2211 142.54 35.7287C142.218 35.2363 142.057 34.6326 142.057 33.9176C142.057 33.3021 142.175 32.7955 142.412 32.3977C142.649 32 142.968 31.6851 143.371 31.4531C143.773 31.2211 144.223 31.0459 144.72 30.9276C145.217 30.8092 145.724 30.7192 146.24 30.6577C146.893 30.5819 147.424 30.5204 147.831 30.473C148.238 30.4209 148.534 30.3381 148.719 30.2244C148.903 30.1108 148.996 29.9261 148.996 29.6705V29.6207C148.996 29.0005 148.821 28.5199 148.47 28.179C148.125 27.8381 147.608 27.6676 146.922 27.6676C146.207 27.6676 145.643 27.8262 145.232 28.1435C144.824 28.456 144.543 28.804 144.386 29.1875L142.391 28.733C142.627 28.0701 142.973 27.535 143.428 27.1278C143.887 26.7159 144.415 26.4176 145.011 26.233C145.608 26.0436 146.235 25.9489 146.893 25.9489C147.329 25.9489 147.791 26.0009 148.278 26.1051C148.771 26.2045 149.23 26.3892 149.656 26.6591C150.087 26.929 150.44 27.3149 150.714 27.8168C150.989 28.3139 151.126 28.9602 151.126 29.7557V37H149.053V35.5085H148.967C148.83 35.7831 148.624 36.053 148.349 36.3182C148.075 36.5833 147.722 36.8035 147.291 36.9787C146.86 37.1539 146.344 37.2415 145.743 37.2415ZM146.205 35.5369C146.792 35.5369 147.294 35.4209 147.71 35.1889C148.132 34.9569 148.451 34.6539 148.669 34.2798C148.892 33.901 149.003 33.4962 149.003 33.0653V31.6591C148.927 31.7348 148.78 31.8059 148.562 31.8722C148.349 31.9337 148.106 31.9882 147.831 32.0355C147.556 32.0781 147.289 32.1184 147.028 32.1562C146.768 32.1894 146.55 32.2178 146.375 32.2415C145.963 32.2936 145.587 32.3812 145.246 32.5043C144.91 32.6274 144.64 32.8049 144.436 33.0369C144.237 33.2642 144.138 33.5672 144.138 33.946C144.138 34.4716 144.332 34.8693 144.72 35.1392C145.108 35.4044 145.603 35.5369 146.205 35.5369ZM159.248 37V26.0909H161.371V30.6648H162.394L165.995 26.0909H168.623L164.397 31.3963L168.673 37H166.038L162.749 32.6392H161.371V37H159.248ZM173.497 37.2415C172.806 37.2415 172.181 37.1136 171.622 36.858C171.063 36.5975 170.62 36.2211 170.294 35.7287C169.972 35.2363 169.811 34.6326 169.811 33.9176C169.811 33.3021 169.929 32.7955 170.166 32.3977C170.403 32 170.722 31.6851 171.125 31.4531C171.527 31.2211 171.977 31.0459 172.474 30.9276C172.971 30.8092 173.478 30.7192 173.994 30.6577C174.647 30.5819 175.178 30.5204 175.585 30.473C175.992 30.4209 176.288 30.3381 176.473 30.2244C176.657 30.1108 176.75 29.9261 176.75 29.6705V29.6207C176.75 29.0005 176.574 28.5199 176.224 28.179C175.878 27.8381 175.362 27.6676 174.676 27.6676C173.961 27.6676 173.397 27.8262 172.985 28.1435C172.578 28.456 172.297 28.804 172.14 29.1875L170.145 28.733C170.381 28.0701 170.727 27.535 171.181 27.1278C171.641 26.7159 172.169 26.4176 172.765 26.233C173.362 26.0436 173.989 25.9489 174.647 25.9489C175.083 25.9489 175.545 26.0009 176.032 26.1051C176.525 26.2045 176.984 26.3892 177.41 26.6591C177.841 26.929 178.194 27.3149 178.468 27.8168C178.743 28.3139 178.88 28.9602 178.88 29.7557V37H176.806V35.5085H176.721C176.584 35.7831 176.378 36.053 176.103 36.3182C175.829 36.5833 175.476 36.8035 175.045 36.9787C174.614 37.1539 174.098 37.2415 173.497 37.2415ZM173.958 35.5369C174.546 35.5369 175.047 35.4209 175.464 35.1889C175.886 34.9569 176.205 34.6539 176.423 34.2798C176.645 33.901 176.757 33.4962 176.757 33.0653V31.6591C176.681 31.7348 176.534 31.8059 176.316 31.8722C176.103 31.9337 175.859 31.9882 175.585 32.0355C175.31 32.0781 175.043 32.1184 174.782 32.1562C174.522 32.1894 174.304 32.2178 174.129 32.2415C173.717 32.2936 173.341 32.3812 173 32.5043C172.663 32.6274 172.394 32.8049 172.19 33.0369C171.991 33.2642 171.892 33.5672 171.892 33.946C171.892 34.4716 172.086 34.8693 172.474 35.1392C172.862 35.4044 173.357 35.5369 173.958 35.5369ZM181.709 41.0909V26.0909H183.783V27.8594H183.96C184.083 27.6321 184.261 27.3693 184.493 27.071C184.725 26.7727 185.047 26.5123 185.459 26.2898C185.871 26.0625 186.415 25.9489 187.092 25.9489C187.973 25.9489 188.759 26.1714 189.45 26.6165C190.142 27.0616 190.684 27.7031 191.077 28.5412C191.474 29.3793 191.673 30.3878 191.673 31.5668C191.673 32.7457 191.477 33.7566 191.084 34.5994C190.691 35.4375 190.151 36.0838 189.464 36.5384C188.778 36.9882 187.994 37.2131 187.114 37.2131C186.451 37.2131 185.909 37.1018 185.487 36.8793C185.071 36.6567 184.744 36.3963 184.507 36.098C184.27 35.7997 184.088 35.5346 183.96 35.3026H183.832V41.0909H181.709ZM183.79 31.5455C183.79 32.3125 183.901 32.9848 184.124 33.5625C184.346 34.1402 184.668 34.5923 185.089 34.919C185.511 35.241 186.027 35.402 186.638 35.402C187.272 35.402 187.803 35.2339 188.229 34.8977C188.655 34.5568 188.977 34.0952 189.195 33.5128C189.417 32.9304 189.528 32.2746 189.528 31.5455C189.528 30.8258 189.42 30.1795 189.202 29.6065C188.989 29.0336 188.667 28.5814 188.236 28.25C187.81 27.9186 187.277 27.7528 186.638 27.7528C186.022 27.7528 185.501 27.9115 185.075 28.2287C184.654 28.5459 184.334 28.9886 184.116 29.5568C183.899 30.125 183.79 30.7879 183.79 31.5455ZM192.739 27.9233V26.0909H201.943V27.9233H198.385V37H196.311V27.9233H192.739ZM208.383 37.2202C207.308 37.2202 206.383 36.9905 205.606 36.5312C204.834 36.0672 204.238 35.4162 203.816 34.5781C203.4 33.7353 203.191 32.7481 203.191 31.6165C203.191 30.4991 203.4 29.5142 203.816 28.6619C204.238 27.8097 204.825 27.1444 205.578 26.6662C206.335 26.188 207.221 25.9489 208.234 25.9489C208.85 25.9489 209.446 26.0507 210.024 26.2543C210.601 26.4579 211.12 26.7775 211.579 27.2131C212.038 27.6487 212.401 28.2145 212.666 28.9105C212.931 29.6018 213.064 30.4422 213.064 31.4318V32.1847H204.392V30.5938H210.983C210.983 30.035 210.869 29.5402 210.642 29.1094C210.414 28.6738 210.095 28.3305 209.683 28.0795C209.276 27.8286 208.797 27.7031 208.248 27.7031C207.652 27.7031 207.131 27.8499 206.686 28.1435C206.245 28.4323 205.904 28.8111 205.663 29.2798C205.426 29.7438 205.308 30.2481 205.308 30.7926V32.0355C205.308 32.7647 205.436 33.3849 205.691 33.8963C205.952 34.4077 206.314 34.7983 206.778 35.0682C207.242 35.3333 207.784 35.4659 208.404 35.4659C208.807 35.4659 209.174 35.4091 209.505 35.2955C209.837 35.1771 210.123 35.0019 210.365 34.7699C210.606 34.5379 210.791 34.2514 210.919 33.9105L212.929 34.2727C212.768 34.8646 212.479 35.383 212.062 35.8281C211.65 36.2685 211.132 36.6117 210.507 36.858C209.886 37.0994 209.179 37.2202 208.383 37.2202Z" fill="white"/>
<path d="M233 22.5859L240.414 30.0002L233 37.4144L231.586 36.0002L237.586 30.0002L231.586 24.0002L233 22.5859Z" fill="white"/>
<rect x="0.5" y="0.5" width="265" height="59" rx="15.5" stroke="white"/>
</g>
<defs>
<filter id="filter0_b_268_1001" x="-40" y="-40" width="346" height="140" filterUnits="userSpaceOnUse" color-interpolation-filters="sRGB">
<feFlood flood-opacity="0" result="BackgroundImageFix"/>
<feGaussianBlur in="BackgroundImageFix" stdDeviation="20"/>
<feComposite in2="SourceAlpha" operator="in" result="effect1_backgroundBlur_268_1001"/>
<feBlend mode="normal" in="SourceGraphic" in2="effect1_backgroundBlur_268_1001" result="shape"/>
</filter>
</defs>
</svg>
