<svg width="379" height="80" viewBox="0 0 379 80" fill="none" xmlns="http://www.w3.org/2000/svg">
<path d="M0.950001 56V2H45.2V56H36.3V10.45H9.85V56H0.950001ZM81.0031 57.5C75.9365 57.5 71.6698 56.25 68.2031 53.75C64.7365 51.2167 62.1031 47.8 60.3031 43.5C58.5365 39.1667 57.6531 34.3167 57.6531 28.95C57.6531 23.5167 58.5365 18.65 60.3031 14.35C62.1031 10.05 64.7365 6.66666 68.2031 4.2C71.7031 1.73333 75.9865 0.499999 81.0531 0.499999C86.0531 0.499999 90.3531 1.75 93.9531 4.25C97.5865 6.71666 100.37 10.1 102.303 14.4C104.236 18.7 105.203 23.55 105.203 28.95C105.203 34.35 104.236 39.2 102.303 43.5C100.37 47.8 97.5865 51.2167 93.9531 53.75C90.3531 56.25 86.0365 57.5 81.0031 57.5ZM56.1531 80V2H64.1031V41.75H65.1031V80H56.1531ZM79.9031 49.35C83.4698 49.35 86.4198 48.45 88.7531 46.65C91.0865 44.85 92.8365 42.4167 94.0031 39.35C95.1698 36.25 95.7531 32.7833 95.7531 28.95C95.7531 25.15 95.1698 21.7167 94.0031 18.65C92.8698 15.5833 91.1031 13.15 88.7031 11.35C86.3365 9.55 83.3198 8.65 79.6531 8.65C76.1531 8.65 73.2531 9.51667 70.9531 11.25C68.6531 12.95 66.9365 15.3333 65.8031 18.4C64.6698 21.4333 64.1031 24.95 64.1031 28.95C64.1031 32.8833 64.6531 36.4 65.7531 39.5C66.8865 42.5667 68.6198 44.9833 70.9531 46.75C73.2865 48.4833 76.2698 49.35 79.9031 49.35ZM136.164 57.5C130.797 57.5 126.164 56.2833 122.264 53.85C118.397 51.4167 115.414 48.05 113.314 43.75C111.214 39.45 110.164 34.5167 110.164 28.95C110.164 23.2833 111.231 18.3167 113.364 14.05C115.497 9.78333 118.514 6.46666 122.414 4.09999C126.314 1.7 130.897 0.499999 136.164 0.499999C141.564 0.499999 146.214 1.71667 150.114 4.15C154.014 6.55 156.997 9.9 159.064 14.2C161.164 18.4667 162.214 23.3833 162.214 28.95C162.214 34.5833 161.164 39.55 159.064 43.85C156.964 48.1167 153.964 51.4667 150.064 53.9C146.164 56.3 141.531 57.5 136.164 57.5ZM136.164 49.05C141.764 49.05 145.931 47.1833 148.664 43.45C151.397 39.7167 152.764 34.8833 152.764 28.95C152.764 22.85 151.381 18 148.614 14.4C145.847 10.7667 141.697 8.95 136.164 8.95C132.397 8.95 129.297 9.8 126.864 11.5C124.431 13.2 122.614 15.55 121.414 18.55C120.214 21.55 119.614 25.0167 119.614 28.95C119.614 35.0167 121.014 39.8833 123.814 43.55C126.614 47.2167 130.731 49.05 136.164 49.05ZM193.623 57.5C188.323 57.5 183.689 56.3333 179.723 54C175.789 51.6333 172.723 48.35 170.523 44.15C168.323 39.9167 167.223 34.9833 167.223 29.35C167.223 23.45 168.306 18.35 170.473 14.05C172.639 9.71666 175.656 6.38333 179.523 4.05C183.423 1.68333 187.989 0.499999 193.223 0.499999C198.656 0.499999 203.273 1.75 207.073 4.25C210.906 6.75 213.773 10.3167 215.673 14.95C217.606 19.5833 218.439 25.1 218.173 31.5H209.173V28.3C209.073 21.6667 207.723 16.7167 205.123 13.45C202.523 10.15 198.656 8.5 193.523 8.5C188.023 8.5 183.839 10.2667 180.973 13.8C178.106 17.3333 176.673 22.4 176.673 29C176.673 35.3667 178.106 40.3 180.973 43.8C183.839 47.3 187.923 49.05 193.223 49.05C196.789 49.05 199.889 48.2333 202.523 46.6C205.156 44.9667 207.223 42.6167 208.723 39.55L217.273 42.5C215.173 47.2667 212.006 50.9667 207.773 53.6C203.573 56.2 198.856 57.5 193.623 57.5ZM173.673 31.5V24.35H213.573V31.5H173.673ZM226.255 56L226.305 2H235.305V28L257.955 2H269.505L245.655 29L272.305 56H259.855L235.305 30V56H226.255ZM288.581 56V10.1H269.781V2H316.281V10.1H297.481V56H288.581ZM322.746 56L322.696 2H331.646V21.55H339.896C341.463 21.55 343.063 21.5833 344.696 21.65C346.329 21.7167 347.746 21.8667 348.946 22.1C351.746 22.6667 354.196 23.6167 356.296 24.95C358.396 26.2833 360.029 28.0833 361.196 30.35C362.363 32.6167 362.946 35.4333 362.946 38.8C362.946 43.4667 361.729 47.1667 359.296 49.9C356.896 52.6 353.746 54.4 349.846 55.3C348.513 55.6 346.979 55.8 345.246 55.9C343.546 55.9667 341.929 56 340.396 56H322.746ZM331.646 48.65H340.546C341.546 48.65 342.663 48.6167 343.896 48.55C345.129 48.4833 346.229 48.3167 347.196 48.05C348.896 47.55 350.413 46.5667 351.746 45.1C353.113 43.6333 353.796 41.5333 353.796 38.8C353.796 36.0333 353.129 33.9 351.796 32.4C350.496 30.9 348.779 29.9167 346.646 29.45C345.679 29.2167 344.663 29.0667 343.596 29C342.529 28.9333 341.513 28.9 340.546 28.9H331.646V48.65ZM369.146 56V2H378.046V56H369.146Z" fill="white"/>
</svg>
